<?xml version="1.0" encoding="utf-8"?>
<!-- Generator: Adobe Illustrator 22.0.1, SVG Export Plug-In . SVG Version: 6.00 Build 0)  -->
<svg version="1.1" id="Layer_1" xmlns="http://www.w3.org/2000/svg" xmlns:xlink="http://www.w3.org/1999/xlink" x="0px" y="0px"
	 width="44.5px" height="49.2px" viewBox="0 0 44.5 49.2" style="enable-background:new 0 0 44.5 49.2;" xml:space="preserve">
<style type="text/css">
	.st0{fill:none;}
	.st1{fill:none;stroke:#606060;stroke-width:1.5;stroke-miterlimit:10;}
	.st2{fill-rule:evenodd;clip-rule:evenodd;}
	.st3{fill-rule:evenodd;clip-rule:evenodd;fill:#CC2229;}
</style>
<rect id="SVGID_15_" x="-937.5" y="4182.7" class="st0" width="1920" height="7357"/>
<polyline class="st1" points="706.1,7214.5 699.5,7221.1 692.9,7214.5 "/>
<rect x="-937.5" y="-1429.3" class="st0" width="1920" height="7357"/>
<rect x="-937.5" y="-2912.3" class="st0" width="1920" height="7357"/>
<g>
	<path class="st2" d="M38,1.1h2.7l-0.1,0.5h-0.5c-0.3,0-0.4-0.1-0.4-0.1v0.9c0,0.3-0.1,0.6-0.1,0.9S39.5,4,39.5,4.1h-0.7V3.3
		c0-0.3,0.1-0.6,0.1-0.9c0-0.3,0.1-0.7,0.1-0.9h-0.3h-0.3c-0.2,0-0.3,0.1-0.3,0.1V1.1z M41,1.1h0.9c0,0.2,0.1,0.3,0.1,0.4
		c0,0.1,0.2,0.4,0.3,0.7c0,0.1,0.1,0.3,0.1,0.5c0.1,0.3,0.3,0.6,0.3,0.6c0-0.2,0.2-0.4,0.3-0.7c0.1-0.2,0.3-0.6,0.3-0.8
		c0.1-0.3,0.3-0.6,0.3-0.7h1v1c0,0.3-0.1,0.8-0.1,1.1v1h-0.7V3.5V2.7c0-0.3,0.1-0.5,0.1-0.6V1.8l-0.9,2.4h-0.7C42.2,4,42,3.7,42,3.4
		c-0.1-0.4-0.3-0.7-0.3-0.8c0-0.2-0.2-0.5-0.3-0.8v0.8c0,0.2-0.1,0.5-0.1,0.8v0.7h-0.7c0-0.3,0.1-0.7,0.1-1c0-0.3,0.1-0.7,0.1-1
		C40.9,1.8,41,1.5,41,1.1 M8.6,49H6.8L6,46.5H2.7L2,49H0.3l3.1-11.2h2L8.6,49z M5.5,44.7l-1.2-4.2l-1.1,4.2H5.5z M15,49h-1.5v-1.2
		c-0.3,0.5-0.6,0.8-0.9,1c-0.3,0.2-0.6,0.4-1,0.4c-0.6,0-1.2-0.4-1.7-1.1c-0.5-0.6-0.7-1.8-0.7-3.1c0-1.3,0.2-2.5,0.6-3.2
		c0.5-0.7,1.1-1.1,1.9-1.1c0.6,0,1.2,0.4,1.7,1.2v-4H15V49z M10.7,44.8c0,0.8,0.1,1.6,0.3,1.9c0.3,0.5,0.6,0.8,1,0.8
		c0.4,0,0.7-0.3,1-0.6c0.3-0.4,0.4-1.1,0.4-2c0-0.9-0.1-1.7-0.4-2.1c-0.2-0.4-0.6-0.7-1-0.7c-0.3,0-0.6,0.3-0.9,0.6
		C10.9,43.3,10.7,44,10.7,44.8 M16.3,44.8c0-0.6,0.1-1.4,0.3-2c0.3-0.7,0.6-1.2,1.1-1.5c0.5-0.4,1.1-0.6,1.6-0.6
		c0.9,0,1.7,0.4,2.2,1.2c0.6,0.8,0.9,2,0.9,3.2s-0.3,2.3-0.9,3c-0.6,0.8-1.4,1.2-2.2,1.2c-0.5,0-1.1-0.2-1.6-0.5
		c-0.5-0.3-0.9-0.8-1.2-1.5c-0.3-0.6-0.3-1.5-0.3-2.3V44.8z M17.9,45c0,0.8,0.1,1.5,0.3,1.9c0.3,0.4,0.7,0.7,1.1,0.7
		c0.4,0,0.8-0.3,1-0.7c0.3-0.4,0.5-1.1,0.5-1.9c0-0.8-0.2-1.5-0.5-2c-0.3-0.5-0.7-0.8-1-0.8c-0.4,0-0.8,0.3-1,0.7
		C18.1,43.5,17.9,44.2,17.9,45 M23.7,49V37.8h1.6v4c0.5-0.8,1.1-1.2,1.7-1.2c0.7,0,1.4,0.4,1.8,1.1c0.5,0.7,0.8,1.8,0.8,3.1
		c0,1.4-0.3,2.5-0.8,3.2c-0.5,0.7-1.1,1.1-1.7,1.1c-0.3,0-0.7-0.2-1-0.4c-0.3-0.1-0.6-0.6-0.8-1V49H23.7z M25.3,44.8
		c0,0.8,0.1,1.6,0.3,1.9c0.3,0.5,0.7,0.8,1.1,0.8c0.4,0,0.7-0.3,0.9-0.6c0.3-0.3,0.4-1.1,0.4-2c0-0.9-0.1-1.7-0.4-2.1
		c-0.2-0.4-0.6-0.7-1-0.7c-0.4,0-0.7,0.3-0.9,0.6C25.5,43.3,25.3,44,25.3,44.8 M34.4,46.5l1.6,0.3c-0.2,0.8-0.6,1.5-1,1.9
		c-0.5,0.3-1.1,0.6-1.7,0.6c-1,0-1.8-0.5-2.3-1.4c-0.4-0.7-0.6-1.7-0.6-2.8c0-1.3,0.2-2.4,0.7-3.2c0.5-0.8,1.2-1.2,2-1.2
		c0.9,0,1.6,0.4,2.1,1.2c0.5,0.8,0.8,2.1,0.8,3.7H32c0,0.7,0.1,1.2,0.4,1.5c0.3,0.3,0.6,0.5,0.9,0.5c0.3,0,0.5-0.1,0.6-0.3
		C34.1,47.2,34.3,46.8,34.4,46.5 M34.5,44.3c0-0.6-0.2-1.1-0.4-1.4c-0.2-0.3-0.6-0.5-0.9-0.5c-0.4,0-0.7,0.3-0.9,0.6
		c-0.3,0.3-0.4,0.8-0.4,1.3H34.5z"/>
	<path class="st3" d="M0,0h13.5L0,32.9V0z M22.7,0h13.7v32.5L22.7,0z M18.3,12.6l7.5,19.7h-4.6l-3.2-6.2h-5.1L18.3,12.6z"/>
</g>
</svg>
