<?xml version="1.0" encoding="utf-8"?>
<!-- Generator: Adobe Illustrator 22.0.1, SVG Export Plug-In . SVG Version: 6.00 Build 0)  -->
<svg version="1.1" id="Layer_1" xmlns="http://www.w3.org/2000/svg" xmlns:xlink="http://www.w3.org/1999/xlink" x="0px" y="0px"
	 width="63.3px" height="41.9px" viewBox="0 0 63.3 41.9" style="enable-background:new 0 0 63.3 41.9;" xml:space="preserve">
<style type="text/css">
	.st0{fill:none;}
	.st1{fill:none;stroke:#606060;stroke-width:1.5;stroke-miterlimit:10;}
</style>
<rect id="SVGID_15_" x="-927.7" y="4179.1" class="st0" width="1920" height="7357"/>
<polyline class="st1" points="715.9,7210.8 709.3,7217.4 702.7,7210.8 "/>
<rect x="-927.7" y="-1432.9" class="st0" width="1920" height="7357"/>
<rect x="-927.7" y="-2915.9" class="st0" width="1920" height="7357"/>
<path d="M4.5,41.9c0,0-0.1,0-0.2,0c-0.8-0.1-1.6-0.4-2.2-0.9c-1-0.7-1.7-1.7-1.9-2.9c-0.2-0.6-0.2-1.3-0.1-2c0.3-1.7,1.4-3.2,3-3.9
	c0.4-0.2,0.8-0.3,1.2-0.3c0.3,0,0.9,0,1.1,0c0.5,0.1,1,0.2,1.5,0.4c0.5,0.3,0.9,0.5,1.3,1c0.4,0.4,0.6,0.7,0.9,1.2l0.1,0.1l-0.2,0.2
	c-0.3,0.2-1,0.7-1.2,0.8l-0.2,0.1l-0.1-0.2c-0.1-0.2-0.2-0.3-0.3-0.5c-0.4-0.6-1.1-1.1-1.8-1.2c-0.4-0.1-0.9-0.1-1.2,0
	c-0.4,0.1-0.8,0.3-1.2,0.6c-0.1,0.1-0.4,0.3-0.5,0.5c-0.6,0.7-0.8,1.7-0.6,2.6c0.1,0.3,0.2,0.7,0.4,1c0.5,0.7,1.3,1.2,2.1,1.3
	c0.2,0,0.5,0,0.7,0c0.8-0.1,1.5-0.5,2-1.1c0.1-0.2,0.2-0.3,0.4-0.6c0-0.1,0.1-0.2,0.1-0.2c0,0,0.4,0.2,0.8,0.6l0.8,0.6l-0.1,0.1
	c-0.2,0.3-0.4,0.7-0.7,1c-0.4,0.5-0.9,0.8-1.4,1.1c-0.5,0.2-1,0.4-1.5,0.5C5.2,41.9,4.6,41.9,4.5,41.9 M11.1,36.9v-4.8H13v3.5h4.9
	v-3.5h1.9v9.7h-1.9v-4.3H13v4.3h-1.9V36.9z M21.7,40.9c0.2-0.5,1.2-2.6,2.1-4.8l1.8-4h1.3h1.3l2.1,4.8c1.2,2.6,2.1,4.8,2.2,4.8
	l0,0.1h-2.2l-0.4-1l-0.4-1l-2.5,0l-2.5,0l-0.4,1l-0.4,1h-2.2L21.7,40.9z M28.6,37.9c0,0-1.7-3.8-1.7-3.8c0,0-1.6,3.8-1.6,3.8
	c0,0,0.6,0,1.7,0C28.4,37.9,28.6,37.9,28.6,37.9 M34,36.9v-4.8h1.3l1.3,0l2.1,2.9l2.1,2.9l0-2.9l0-2.9h1.9v9.7l-0.8,0l-0.8,0
	l-2.6-3.6c-1.4-2-2.6-3.6-2.6-3.6c0,0,0,1.6,0,3.6v3.6H34V36.9z M46.1,36.9v-4.8h6.8V34H48v1.9h4.5v1.9H48v1.9h5.6v1.9h-7.5V36.9z
	 M56.2,36.9v-4.8h1.9v7.7h5.3v1.9h-7.1V36.9z M23.8,29.6c-2-0.1-4.3-0.7-6.1-1.7c-1.4-0.7-2.5-1.5-3.6-2.7c-0.9-0.9-1.6-1.7-2.1-2.7
	l-0.2-0.4l0.3-0.2c0.7-0.4,3.8-2,3.8-2c0,0,0.1,0.2,0.3,0.4c1.6,2.4,4.2,4,7.1,4.4c0.5,0.1,2.1,0.1,2.6,0c0.6-0.1,1.4-0.3,1.9-0.4
	c0,0,0-0.1-0.2-0.3c-1.1-1.3-2-3-2.6-4.6c-1-2.9-1.1-6-0.2-8.9c0.5-1.8,1.4-3.6,2.6-5c0.2-0.2,0.3-0.4,0.3-0.4
	c0-0.1-0.9-0.3-1.5-0.4c-0.9-0.2-2.3-0.2-3.2,0c-1.4,0.2-2.8,0.7-3.9,1.4C18,7,17,8,16.2,9.2l-0.4,0.5l-0.5-0.2
	c-0.3-0.1-1.2-0.6-2.1-1.1c-0.9-0.5-1.6-0.8-1.6-0.8c0,0,0.5-0.9,0.8-1.2c0.7-1,1.9-2.3,2.9-3.1c2.4-1.9,5.1-3,8.1-3.2
	C23.9,0,25.3,0,25.8,0c1.9,0.2,3.5,0.6,5.2,1.5l0.8,0.4l0.3-0.2c0.4-0.2,1.2-0.6,1.8-0.8C35.6,0.3,37.2,0,39.1,0
	c1.3,0,2.4,0.1,3.5,0.4c2.6,0.6,4.9,1.9,6.8,3.8c1,1,1.9,2.1,2.5,3.2L52,7.6l-1.6,0.8c-0.9,0.5-1.8,1-2.1,1.1l-0.5,0.2l-0.3-0.5
	C45.8,6.7,43,5,40,4.7c-0.9-0.1-2.2,0-3,0.2c-0.4,0.1-1.1,0.3-1.1,0.3c0,0,0.1,0.2,0.2,0.3c1.7,2.1,2.8,4.7,3.2,7.6
	c0.1,0.7,0.1,2.4,0,3.1c-0.3,2.9-1.4,5.5-3.1,7.6c-0.4,0.5-0.4,0.5-0.3,0.5c0.1,0,0.3,0.1,0.6,0.2c1.4,0.4,3,0.4,4.4,0.1
	c2.6-0.5,5-2,6.5-4.3c0.1-0.2,0.3-0.4,0.3-0.4c0,0,0.4,0.1,0.8,0.3c0.8,0.4,3.4,1.7,3.4,1.8c0,0-0.8,1.3-1.3,1.9
	c-0.5,0.6-1.7,1.8-2.3,2.3c-2.1,1.7-4.6,2.7-7.2,3.1c-3,0.4-6.3-0.1-8.9-1.6l-0.4-0.2L31.4,28C29.1,29.2,26.5,29.7,23.8,29.6
	 M32.3,21.2c1.3-1.6,2.1-3.5,2.3-5.4c0.1-0.7,0-2-0.1-2.6c-0.3-1.6-0.9-3.1-1.9-4.3c-0.2-0.2-0.4-0.6-0.6-0.7l-0.3-0.3l-0.2,0.3
	c-0.3,0.3-0.8,1-1.1,1.5c-1.4,2.2-1.8,4.9-1.2,7.4c0.4,1.6,1.2,3.2,2.3,4.5l0.3,0.3l0.1-0.1C32,21.7,32.2,21.4,32.3,21.2"/>
</svg>
