<svg id="Layer_1" data-name="Layer 1" xmlns="http://www.w3.org/2000/svg" width="113.67" height="31.49" viewBox="0 0 113.67 31.49"><defs><style>.cls-1{fill:#ff5a00;}.cls-2{fill:#29007c;}</style></defs><path class="cls-1" d="M113,27.4a3,3,0,1,0-2.95,3A2.9,2.9,0,0,0,113,27.4Zm-3.72.16v2h-.64V25.17h1.59c.93,0,1.36.41,1.36,1.2a.9.9,0,0,1-.76.93v0c.37.06.51.39.58,1a4.07,4.07,0,0,0,.28,1.23h-.76a11.76,11.76,0,0,1-.29-1.48.64.64,0,0,0-.74-.5ZM110,27c.62,0,.8-.33.8-.62s-.18-.62-.8-.62h-.79V27Zm-3.67.41A3.66,3.66,0,1,1,110,31,3.58,3.58,0,0,1,106.36,27.4Z"/><path class="cls-1" d="M93.7,30.39l-4.21-4.73-4.17,4.73H76.53l8.59-9.65L76.53,11.1h9.06l4.25,4.68,4.1-4.68h8.74l-8.54,9.6,8.65,9.69Zm-34,0V0H76.53V6.77H66.81V11.1h9.72v6.51H66.81v6h9.72v6.79Z"/><path class="cls-2" d="M52.55,0V12.44h-.07A7.24,7.24,0,0,0,46.65,10a9.84,9.84,0,0,0-9.44,7.39c-1.41-4.63-5.05-7.47-10.44-7.47-4.38,0-7.84,2-9.65,5.17v-4h-9V6.77H18V0H0V30.39H8.07V17.61h8.05a11.82,11.82,0,0,0-.37,3c0,6.33,4.84,10.79,11,10.79,5.19,0,8.62-2.45,10.43-6.89H30.29a3.48,3.48,0,0,1-3.52,1.73,4.15,4.15,0,0,1-4-4.13H36.81c.62,5,4.54,9.37,9.92,9.37a6.87,6.87,0,0,0,5.74-3.07h.08v2h7.12V0ZM23,17.71a3.9,3.9,0,0,1,3.82-3.2,3.71,3.71,0,0,1,3.85,3.2Zm25.29,8.05c-2.63,0-4.26-2.44-4.26-5,0-2.73,1.42-5.35,4.26-5.35s4.11,2.62,4.11,5.35S51.11,25.76,48.24,25.76Z"/></svg>