<?xml version="1.0" encoding="utf-8"?>
<!-- Generator: Adobe Illustrator 22.0.1, SVG Export Plug-In . SVG Version: 6.00 Build 0)  -->
<svg version="1.1" id="Layer_1" xmlns="http://www.w3.org/2000/svg" xmlns:xlink="http://www.w3.org/1999/xlink" x="0px" y="0px"
	 width="113.7px" height="37.1px" viewBox="0 0 113.7 37.1" style="enable-background:new 0 0 113.7 37.1;" xml:space="preserve">
<style type="text/css">
	.st0{fill:none;}
	.st1{fill:none;stroke:#606060;stroke-width:1.5;stroke-miterlimit:10;}
	.st2{fill:#3780FF;}
	.st3{fill:#38B137;}
	.st4{fill:#FA3913;}
	.st5{fill:#FCBD06;}
</style>
<rect id="SVGID_15_" x="-902.9" y="4176.4" class="st0" width="1920" height="7357"/>
<polyline class="st1" points="740.7,7208.2 734.1,7214.8 727.4,7208.2 "/>
<rect x="-902.9" y="-1435.6" class="st0" width="1920" height="7357"/>
<rect x="-902.9" y="-2918.6" class="st0" width="1920" height="7357"/>
<g>
	<path class="st2" d="M14,0h1c3.5,0.1,7,1.5,9.4,4c-0.9,0.9-1.8,1.8-2.7,2.8c-1.4-1.3-3.1-2.2-4.9-2.6c-2.7-0.6-5.6-0.1-7.9,1.5
		C6.4,7.3,4.7,10,4.4,13c-0.4,2.9,0.4,6,2.3,8.2c1.8,2.2,4.6,3.6,7.4,3.7c2.7,0.2,5.5-0.7,7.4-2.5C23.1,21,23.8,19,24,17
		c-3.2,0-6.3,0-9.5,0v-3.9h13.3c0.7,4.2-0.3,9-3.5,12c-2.1,2.1-5.1,3.4-8.1,3.6c-2.9,0.3-5.9-0.3-8.5-1.7c-3.1-1.7-5.6-4.5-6.8-7.8
		c-1.1-3-1.2-6.5-0.1-9.5c1-2.8,2.8-5.2,5.2-7C8.3,1.1,11.1,0.2,14,0"/>
	<path class="st3" d="M90.5,1h4.1v27.2c-1.4,0-2.7,0-4.1,0C90.5,19.1,90.5,10.1,90.5,1"/>
	<path class="st4" d="M36.9,10.4c2.5-0.5,5.2,0.1,7.3,1.6c1.9,1.3,3.2,3.4,3.6,5.7c0.5,2.7-0.1,5.5-1.8,7.6
		c-1.8,2.3-4.9,3.6-7.8,3.4c-2.7-0.2-5.3-1.5-6.9-3.7c-1.8-2.4-2.3-5.8-1.3-8.7C30.9,13.3,33.7,11,36.9,10.4 M37.5,14.1
		c-1,0.3-2,0.9-2.7,1.7c-1.9,2.2-1.7,5.8,0.3,7.9c1.2,1.2,2.9,1.7,4.5,1.4c1.5-0.3,2.8-1.3,3.5-2.6c1.3-2.3,0.9-5.4-1-7.2
		C40.9,14.1,39.1,13.6,37.5,14.1"/>
	<path class="st5" d="M57.1,10.4c2.9-0.6,6,0.2,8.2,2.3c3.5,3.1,3.9,9,0.9,12.7c-1.8,2.3-4.7,3.5-7.6,3.4c-2.8-0.1-5.5-1.4-7.1-3.7
		c-1.9-2.5-2.3-5.9-1.2-8.8C51.3,13.2,54,11,57.1,10.4 M57.7,14.1c-1,0.3-2,0.9-2.7,1.7c-1.8,2.2-1.8,5.7,0.2,7.8
		c1.2,1.2,3,1.8,4.7,1.5c1.5-0.3,2.8-1.3,3.5-2.6c1.2-2.3,0.9-5.4-1.1-7.2C61.1,14.1,59.3,13.6,57.7,14.1"/>
	<path class="st2" d="M74.3,11.5c2.2-1.4,5.1-1.8,7.5-0.6c0.7,0.3,1.4,0.9,1.9,1.4c0-0.5,0-1,0-1.6c1.3,0,2.6,0,3.9,0v16.8
		c0,2.5-0.7,5.2-2.5,7.1c-2,2-5.1,2.7-7.8,2.3c-3-0.4-5.5-2.6-6.7-5.3c1.1-0.6,2.3-1,3.5-1.5c0.7,1.6,2,2.9,3.7,3.2
		c1.7,0.3,3.7-0.1,4.8-1.5c1.2-1.4,1.2-3.4,1.1-5.2c-0.9,0.9-1.9,1.6-3.1,1.9c-2.6,0.7-5.6-0.2-7.6-2c-2.1-1.8-3.3-4.6-3.2-7.3
		C69.9,16.2,71.6,13.2,74.3,11.5 M78.2,14c-1.2,0.2-2.3,0.8-3,1.7c-1.8,2.1-1.8,5.5,0,7.6c1,1.2,2.7,1.9,4.3,1.8
		c1.5-0.2,2.9-1.1,3.6-2.4c1.3-2.2,1-5.3-0.6-7.2C81.5,14.3,79.8,13.7,78.2,14"/>
	<path class="st4" d="M99.4,12.5c2.3-2.1,5.8-2.9,8.8-1.7c2.8,1,4.6,3.7,5.5,6.4c-4.1,1.7-8.3,3.4-12.4,5.1c0.6,1.1,1.4,2.1,2.6,2.5
		c1.7,0.6,3.6,0.4,5-0.7c0.6-0.4,1-1,1.4-1.5c1,0.7,2.1,1.4,3.1,2.1c-1.5,2.2-4,3.8-6.7,4c-3,0.4-6.1-0.8-8.1-3.1
		C95.6,21.9,95.9,15.8,99.4,12.5 M101.5,16c-0.6,0.9-0.9,2.1-0.9,3.2c2.8-1.1,5.5-2.3,8.3-3.5c-0.5-1.1-1.6-1.7-2.7-1.9
		C104.4,13.6,102.5,14.6,101.5,16"/>
</g>
</svg>
