<?xml version="1.0" encoding="utf-8"?>
<!-- Generator: Adobe Illustrator 22.0.1, SVG Export Plug-In . SVG Version: 6.00 Build 0)  -->
<svg version="1.1" id="Layer_1" xmlns="http://www.w3.org/2000/svg" xmlns:xlink="http://www.w3.org/1999/xlink" x="0px" y="0px"
	 width="115.3px" height="33.4px" viewBox="0 0 115.3 33.4" style="enable-background:new 0 0 115.3 33.4;" xml:space="preserve">
<style type="text/css">
	.st0{fill:none;}
	.st1{fill:none;stroke:#606060;stroke-width:1.5;stroke-miterlimit:10;}
	.st2{fill:#45535E;}
	.st3{fill:#F8761F;}
</style>
<rect id="SVGID_15_" x="-901.7" y="4174.9" class="st0" width="1920" height="7357"/>
<polyline class="st1" points="741.9,7206.6 735.3,7213.3 728.7,7206.6 "/>
<rect x="-901.7" y="-1437.1" class="st0" width="1920" height="7357"/>
<rect x="-901.7" y="-2920.1" class="st0" width="1920" height="7357"/>
<g>
	<path class="st2" d="M0,6.2h4v8.9h8.5V6.2h4v21.9h-4V19H4v9.1H0V6.2z M29.3,21c0,1.8-1.5,3.3-3.3,3.3c-1.8,0-3.3-1.5-3.3-3.3v-9.4
		h-3.8V21c0,3.9,3.2,7.1,7.1,7.1c3.9,0,7.1-3.2,7.1-7.1v-9.4h-3.8V21 M43.7,11.7c-1.9,0-3.2,0.5-4.5,1.8V6.2h-3.8v13.4
		c0,5,3.6,8.5,7.7,8.5c4.5,0,8.5-3.5,8.5-8.2C51.7,15.3,48,11.7,43.7,11.7 M43.8,24.6c-2.6,0-4.6-2.2-4.6-4.7c0-2.5,2-4.7,4.6-4.7
		c2.2,0,4.2,2.2,4.2,4.7C48,22.5,46,24.6,43.8,24.6 M58.1,12.7c0-1.9,1.3-2.5,2.7-2.5c1.1,0,2.6,0.9,3.6,1.9l2.5-2.9
		c-1.3-1.7-3.8-2.8-5.9-2.8c-4.1,0-7.1,2.4-7.1,6.4c0,7.4,9.1,5.1,9.1,9.2c0,1.3-1.3,2.4-2.7,2.4c-2.3,0-3-1.1-4-2.3l-2.8,2.9
		c1.8,2.2,4,3.3,6.6,3.3c3.9,0,7.1-2.4,7.1-6.3C67.2,13.7,58.1,16.2,58.1,12.7 M77.3,11.5c-4.1,0-7.7,3.4-7.7,8.5v13.5h3.8v-7.3
		c1.3,1.3,2.6,1.8,4.5,1.8c4.3,0,7.9-3.6,7.9-8.2C85.8,15,81.8,11.5,77.3,11.5 M78,24.4c-2.6,0-4.6-2.2-4.6-4.7c0-2.5,2-4.7,4.6-4.7
		c2.2,0,4.2,2.2,4.2,4.7C82.1,22.2,80.2,24.4,78,24.4 M114,24.6c-2.3,0-2.9-1-2.9-2.5v-6.6h3.5v-3.4h-3.5V7.8l-3.9,1.7V23
		c0,3.4,2.4,5.2,5.6,5.2c0.5,0,1.2,0,1.5-0.1l0.9-3.5C114.9,24.6,114.4,24.6,114,24.6"/>
	<path class="st3" d="M103.9,15.7c-0.7-1.3-1.8-2.3-3.1-3c-1-0.6-2-0.9-3.1-1.1v-4c1.1-0.5,1.8-1.5,1.8-2.8c0-1.7-1.3-3-3-3
		c-1.7,0-3.1,1.4-3.1,3c0,1.2,0.7,2.3,1.8,2.8v4c-0.9,0.1-1.8,0.4-2.7,0.8c-1.7-1.3-7.5-5.7-10.8-8.2c0.1-0.3,0.1-0.6,0.1-0.9
		c0-1.9-1.5-3.4-3.4-3.4c-1.9,0-3.4,1.5-3.4,3.4c0,1.9,1.5,3.4,3.4,3.4c0.6,0,1.2-0.2,1.7-0.5L81,6.8l9.7,7c-0.5,0.5-1,1-1.4,1.6
		c-0.8,1.2-1.2,2.6-1.2,4v0.3c0,1,0.2,2,0.5,2.9c0.3,0.8,0.7,1.5,1.3,2.2l-3.2,3.2c-1-0.4-2-0.1-2.7,0.6c-0.5,0.5-0.8,1.2-0.8,1.8
		c0,0.7,0.3,1.4,0.8,1.8c0.5,0.5,1.2,0.8,1.8,0.8c0.7,0,1.4-0.3,1.8-0.8c0.5-0.5,0.8-1.2,0.8-1.8c0-0.3,0-0.5-0.1-0.8l3.3-3.3
		c0.5,0.3,0.9,0.6,1.5,0.8c1,0.5,2.2,0.7,3.5,0.7h0.2c1.4,0,2.7-0.3,3.9-1c1.3-0.7,2.3-1.7,3.1-2.9c0.8-1.2,1.2-2.6,1.2-4.1v-0.1
		C104.9,18.3,104.6,17,103.9,15.7 M99.8,22.7c-0.9,1-1.9,1.6-3.1,1.6h-0.2c-0.7,0-1.3-0.2-2-0.5c-0.7-0.4-1.3-0.9-1.7-1.6
		c-0.5-0.7-0.7-1.4-0.7-2.1v-0.2c0-0.7,0.1-1.5,0.5-2.1c0.4-0.7,0.9-1.3,1.6-1.8c0.7-0.4,1.4-0.7,2.2-0.7h0.1c0.7,0,1.4,0.1,2.1,0.5
		c0.7,0.4,1.2,0.8,1.6,1.5c0.4,0.6,0.7,1.3,0.7,2.1c0,0.2,0,0.3,0,0.5C101,20.9,100.6,21.8,99.8,22.7"/>
</g>
</svg>
