<?xml version="1.0" encoding="utf-8"?>
<!-- Generator: Adobe Illustrator 22.0.1, SVG Export Plug-In . SVG Version: 6.00 Build 0)  -->
<svg version="1.1" id="Layer_1" xmlns="http://www.w3.org/2000/svg" xmlns:xlink="http://www.w3.org/1999/xlink" x="0px" y="0px"
	 width="80px" height="32px" viewBox="0 0 80 32" style="enable-background:new 0 0 80 32;" xml:space="preserve">
<style type="text/css">
	.st0{fill:none;}
	.st1{fill:none;stroke:#606060;stroke-width:1.5;stroke-miterlimit:10;}
	.st2{fill:#1F70C1;}
</style>
<rect id="SVGID_15_" x="-919.8" y="4174.2" class="st0" width="1920" height="7357"/>
<polyline class="st1" points="723.9,7205.9 717.2,7212.5 710.6,7205.9 "/>
<rect x="-919.8" y="-1437.8" class="st0" width="1920" height="7357"/>
<rect x="-919.8" y="-2920.8" class="st0" width="1920" height="7357"/>
<g>
	<path class="st2" d="M0,2.2h15.6V0H0V2.2z M17.8,0v2.2H40c0,0-2.3-2.2-5.3-2.2H17.8z M44.3,0v2.2h13.4L56.9,0H44.3z M67.4,0
		l-0.8,2.2h13.3V0H67.4z M0,6.4h15.6V4.3H0V6.4z M17.8,4.3v2.2h24.8c0,0-0.3-1.7-0.8-2.2H17.8z M44.3,4.3v2.2h14.9l-0.7-2.2H44.3z
		 M65.8,4.3L65,6.4h14.8V4.3H65.8z M4.5,10.7h6.7V8.5H4.5V10.7z M22.3,10.7H29V8.5h-6.7V10.7z M35.6,8.5v2.2h6.7
		c0,0,0.4-1.2,0.4-2.2H35.6z M48.8,8.5v2.2h12L60,8.5H48.8z M64.3,8.5l-0.8,2.2h12V8.5H64.3z M4.5,15h6.7v-2.2H4.5V15z M22.3,12.8
		V15h17.2c0,0,1.4-1.1,1.9-2.2H22.3z M48.8,12.8V15h6.7v-1.2L56,15h12.4l0.5-1.2V15h6.7v-2.2H62.9l-0.7,1.9l-0.7-1.9H48.8z
		 M4.5,19.2h6.7V17H4.5V19.2z M22.3,17v2.2h19.1c-0.5-1.1-1.9-2.2-1.9-2.2H22.3z M48.8,19.2h6.7V17h-6.7V19.2z M56.8,17l0.8,2.2h9.3
		l0.8-2.2H56.8z M68.8,19.2h6.7V17h-6.7V19.2z M4.5,23.5h6.7v-2.2H4.5V23.5z M22.3,23.5H29v-2.2h-6.7V23.5z M35.6,21.3v2.2h7.2
		c0-1-0.4-2.2-0.4-2.2H35.6z M48.8,23.5h6.7v-2.2h-6.7V23.5z M58.3,21.3l0.8,2.2h6.2l0.8-2.2H58.3z M68.8,23.5h6.7v-2.2h-6.7V23.5z
		 M0.1,27.7h15.6v-2.2H0.1V27.7z M17.8,25.6v2.2h24c0.5-0.5,0.8-2.2,0.8-2.2H17.8z M44.4,27.7h11.1v-2.2H44.4V27.7z M59.8,25.6
		l0.8,2.2h3.2l0.8-2.2H59.8z M68.8,27.7H80v-2.2H68.8V27.7z M0.1,32h15.6v-2.2H0.1V32z M17.8,29.8V32h16.9c3,0,5.3-2.2,5.3-2.2H17.8
		z M44.4,32h11.1v-2.2H44.4V32z M61.4,29.8l0.8,2.2l0.1,0l0.8-2.2H61.4z M68.8,32H80v-2.2H68.8V32z"/>
</g>
</svg>
