<?xml version="1.0" encoding="utf-8"?>
<!-- Generator: Adobe Illustrator 22.0.1, SVG Export Plug-In . SVG Version: 6.00 Build 0)  -->
<svg version="1.1" id="Layer_1" xmlns="http://www.w3.org/2000/svg" xmlns:xlink="http://www.w3.org/1999/xlink" x="0px" y="0px"
	 width="56.5px" height="44px" viewBox="0 0 56.5 44" style="enable-background:new 0 0 56.5 44;" xml:space="preserve">
<style type="text/css">
	.st0{fill:none;}
	.st1{fill:none;stroke:#606060;stroke-width:1.5;stroke-miterlimit:10;}
	.st2{fill:#231F20;}
	.st3{fill:#F79410;}
	.st4{fill:#FF5F00;}
	.st5{fill:#EB001B;}
	.st6{fill:#F79E1B;}
</style>
<rect id="SVGID_15_" x="-931.7" y="4179.9" class="st0" width="1920" height="7357"/>
<polyline class="st1" points="711.9,7211.6 705.3,7218.2 698.7,7211.6 "/>
<rect x="-931.7" y="-1432.1" class="st0" width="1920" height="7357"/>
<rect x="-931.7" y="-2915.1" class="st0" width="1920" height="7357"/>
<g>
	<path class="st2" d="M55.4,43.4v0.1h0.1c0,0,0,0,0.1,0c0,0,0,0,0,0c0,0,0,0,0,0c0,0,0,0-0.1,0L55.4,43.4L55.4,43.4z M55.5,43.3
		c0,0,0.1,0,0.1,0c0,0,0,0.1,0,0.1c0,0,0,0.1,0,0.1c0,0-0.1,0-0.1,0l0.1,0.2h-0.1l-0.1-0.2h0v0.2h-0.1v-0.4H55.5L55.5,43.3z
		 M55.5,43.9c0,0,0.1,0,0.1,0c0,0,0.1,0,0.1-0.1c0,0,0.1-0.1,0.1-0.1c0-0.1,0-0.2,0-0.3c0,0,0-0.1-0.1-0.1c0,0-0.1-0.1-0.1-0.1
		c0,0-0.1,0-0.1,0c0,0-0.1,0-0.1,0c0,0-0.1,0-0.1,0.1c-0.1,0.1-0.1,0.3-0.1,0.4c0,0,0,0.1,0.1,0.1c0,0,0.1,0.1,0.1,0.1
		C55.4,43.9,55.4,43.9,55.5,43.9 M55.5,43c0.1,0,0.2,0,0.3,0.1c0,0,0.1,0.1,0.1,0.1c0,0.1,0,0.2,0,0.4c0,0.1-0.1,0.1-0.1,0.1
		c0,0-0.1,0.1-0.1,0.1c-0.1,0-0.1,0-0.2,0c-0.1,0-0.1,0-0.2,0c-0.1,0-0.1-0.1-0.2-0.1c0,0-0.1-0.1-0.1-0.2c0-0.1,0-0.2,0-0.4
		c0-0.1,0.1-0.1,0.1-0.1c0,0,0.1-0.1,0.1-0.1C55.3,43,55.4,43,55.5,43 M12.2,41.4c0-0.8,0.5-1.5,1.4-1.5c0.8,0,1.4,0.6,1.4,1.5
		c0,0.8-0.6,1.5-1.4,1.5C12.7,42.9,12.2,42.2,12.2,41.4 M16,41.4v-2.3h-1v0.6c-0.3-0.4-0.8-0.7-1.5-0.7c-1.3,0-2.3,1-2.3,2.4
		s1,2.4,2.3,2.4c0.7,0,1.1-0.3,1.5-0.7v0.6h1L16,41.4L16,41.4z M50,41.4c0-0.8,0.5-1.5,1.4-1.5c0.8,0,1.4,0.6,1.4,1.5
		c0,0.8-0.6,1.5-1.4,1.5C50.6,42.9,50,42.2,50,41.4 M53.8,41.4v-4.2h-1v2.4C52.5,39.2,52,39,51.3,39C50,39,49,40,49,41.4
		s1,2.4,2.3,2.4c0.7,0,1.1-0.3,1.5-0.7v0.6h1V41.4z M28.5,39.9c0.7,0,1.1,0.4,1.2,1.1h-2.4C27.4,40.3,27.8,39.9,28.5,39.9 M28.5,39
		c-1.4,0-2.3,1-2.3,2.4c0,1.5,1,2.4,2.4,2.4c0.7,0,1.3-0.2,1.9-0.6L30,42.4c-0.4,0.3-0.9,0.5-1.3,0.5c-0.7,0-1.2-0.3-1.4-1.1h3.4
		c0-0.1,0-0.3,0-0.4C30.7,39.9,29.8,39,28.5,39 M40.7,41.4c0-0.8,0.5-1.5,1.4-1.5c0.8,0,1.4,0.6,1.4,1.5c0,0.8-0.6,1.5-1.4,1.5
		C41.2,42.9,40.7,42.2,40.7,41.4 M44.4,41.4v-2.3h-1v0.6C43.1,39.2,42.6,39,42,39c-1.3,0-2.3,1-2.3,2.4s1,2.4,2.3,2.4
		c0.7,0,1.1-0.3,1.5-0.7v0.6h1V41.4L44.4,41.4z M35,41.4c0,1.4,1,2.4,2.5,2.4c0.7,0,1.2-0.2,1.7-0.6l-0.5-0.8
		c-0.4,0.3-0.8,0.4-1.2,0.4c-0.8,0-1.4-0.6-1.4-1.5s0.6-1.5,1.4-1.5c0.4,0,0.8,0.1,1.2,0.4l0.5-0.8c-0.5-0.4-1-0.6-1.7-0.6
		C36,39,35,40,35,41.4 M48,39c-0.6,0-1,0.3-1.2,0.7v-0.6h-1v4.6h1v-2.6c0-0.8,0.3-1.2,1-1.2c0.2,0,0.4,0,0.6,0.1l0.3-1
		C48.5,39,48.2,39,48,39 M20.9,39.4c-0.5-0.3-1.2-0.5-1.9-0.5c-1.2,0-1.9,0.6-1.9,1.5c0,0.8,0.6,1.2,1.6,1.4l0.5,0.1
		c0.6,0.1,0.8,0.2,0.8,0.5c0,0.4-0.4,0.6-1.1,0.6c-0.7,0-1.2-0.2-1.5-0.5l-0.5,0.8c0.6,0.4,1.3,0.6,2,0.6c1.3,0,2.1-0.6,2.1-1.5
		c0-0.8-0.6-1.2-1.6-1.4L19,40.9c-0.4-0.1-0.8-0.1-0.8-0.5c0-0.3,0.3-0.5,0.9-0.5c0.6,0,1.2,0.2,1.4,0.4L20.9,39.4L20.9,39.4z
		 M34,39c-0.6,0-1,0.3-1.2,0.7v-0.6h-1v4.6h1v-2.6c0-0.8,0.3-1.2,1-1.2c0.2,0,0.4,0,0.6,0.1l0.3-1C34.5,39,34.2,39,34,39 M25.4,39.1
		h-1.6v-1.4h-1v1.4h-0.9V40h0.9v2.1c0,1.1,0.4,1.7,1.6,1.7c0.4,0,0.9-0.1,1.3-0.4l-0.3-0.9c-0.3,0.2-0.6,0.3-0.9,0.3
		c-0.5,0-0.7-0.3-0.7-0.8V40h1.6V39.1z M10.3,43.7v-2.9c0-1.1-0.7-1.8-1.8-1.8c-0.6,0-1.2,0.2-1.6,0.8C6.5,39.3,6,39,5.3,39
		c-0.5,0-1,0.1-1.4,0.7v-0.6h-1v4.6h1v-2.6c0-0.8,0.4-1.2,1.1-1.2c0.7,0,1,0.4,1,1.2v2.6h1v-2.6c0-0.8,0.5-1.2,1.1-1.2
		c0.7,0,1,0.4,1,1.2v2.6L10.3,43.7z"/>
	<path class="st3" d="M56,28.3v-0.7h-0.2l-0.2,0.5l-0.2-0.5h-0.2v0.7h0.1v-0.5l0.2,0.4h0.1l0.2-0.4v0.5H56L56,28.3z M54.8,28.3v-0.6
		h0.2v-0.1h-0.6v0.1h0.2v0.6H54.8L54.8,28.3z"/>
	<rect x="20.6" y="3.7" class="st4" width="15.3" height="27.5"/>
	<path class="st5" d="M21.6,17.5c0-5.6,2.6-10.5,6.7-13.7C25.2,1.3,21.4,0,17.5,0C7.8,0,0,7.8,0,17.5c0,9.6,7.8,17.5,17.5,17.5
		c3.9,0,7.7-1.3,10.8-3.7C24.2,28,21.6,23,21.6,17.5"/>
	<path class="st6" d="M56.5,17.5c0,9.6-7.8,17.5-17.5,17.5c-3.9,0-7.7-1.3-10.8-3.7c4.1-3.2,6.7-8.2,6.7-13.7
		c0-5.6-2.6-10.5-6.7-13.7C31.3,1.3,35.1,0,39,0C48.7,0,56.5,7.8,56.5,17.5"/>
</g>
</svg>
