<?xml version="1.0" encoding="utf-8"?>
<!-- Generator: Adobe Illustrator 22.0.1, SVG Export Plug-In . SVG Version: 6.00 Build 0)  -->
<svg version="1.1" id="Layer_1" xmlns="http://www.w3.org/2000/svg" xmlns:xlink="http://www.w3.org/1999/xlink" x="0px" y="0px"
	 width="143.9px" height="30.7px" viewBox="0 0 143.9 30.7" style="enable-background:new 0 0 143.9 30.7;" xml:space="preserve">
<style type="text/css">
	.st0{fill:none;}
	.st1{fill:none;stroke:#606060;stroke-width:1.5;stroke-miterlimit:10;}
	.st2{fill:#F1511B;}
	.st3{fill:#80CC28;}
	.st4{fill:#00ADEF;}
	.st5{fill:#FBBC09;}
</style>
<rect id="SVGID_15_" x="-888" y="4173.7" class="st0" width="1920" height="7357"/>
<polyline class="st1" points="755.6,7205.4 749,7212.1 742.4,7205.4 "/>
<rect x="-888" y="-1438.3" class="st0" width="1920" height="7357"/>
<rect x="-888" y="-2921.3" class="st0" width="1920" height="7357"/>
<g>
	<path d="M143.9,13.9v-2.5h-3.1V7.4l-0.1,0l-3,0.9l-0.1,0v3H133V9.7c0-0.8,0.2-1.4,0.5-1.8c0.3-0.4,0.8-0.6,1.4-0.6
		c0.4,0,0.9,0.1,1.4,0.3l0.1,0.1V5.1l-0.1,0c-0.4-0.2-1-0.2-1.7-0.2c-0.9,0-1.7,0.2-2.5,0.6c-0.7,0.4-1.3,1-1.7,1.7
		c-0.4,0.7-0.6,1.5-0.6,2.5v1.8h-2.2v2.5h2.2v10.7h3.1V13.9h4.7v6.8c0,2.8,1.3,4.2,3.9,4.2c0.4,0,0.9,0,1.3-0.1
		c0.5-0.1,0.8-0.2,1-0.3l0,0v-2.6l-0.1,0.1c-0.2,0.1-0.4,0.2-0.6,0.3c-0.3,0.1-0.5,0.1-0.6,0.1c-0.6,0-1.1-0.2-1.3-0.5
		c-0.3-0.3-0.4-0.9-0.4-1.7v-6.2H143.9z M120.6,22.3c-1.1,0-2-0.4-2.7-1.1c-0.6-0.7-1-1.8-1-3.2c0-1.4,0.3-2.5,1-3.3
		c0.6-0.8,1.5-1.1,2.6-1.1c1.1,0,2,0.4,2.6,1.1c0.6,0.7,0.9,1.8,0.9,3.2c0,1.4-0.3,2.5-0.9,3.3C122.6,21.9,121.8,22.3,120.6,22.3
		 M120.8,11c-2.2,0-3.9,0.6-5.1,1.9c-1.2,1.3-1.9,3-1.9,5.2c0,2.1,0.6,3.7,1.8,4.9c1.2,1.2,2.8,1.8,4.9,1.8c2.1,0,3.8-0.6,5-1.9
		c1.2-1.3,1.9-3,1.9-5.1c0-2.1-0.6-3.8-1.7-5S122.8,11,120.8,11 M108.7,11c-1.5,0-2.7,0.4-3.6,1.1c-0.9,0.8-1.4,1.7-1.4,2.9
		c0,0.6,0.1,1.2,0.3,1.6c0.2,0.5,0.5,0.9,0.9,1.2c0.4,0.3,1.1,0.7,1.9,1.1c0.7,0.3,1.2,0.5,1.6,0.7c0.3,0.2,0.6,0.4,0.7,0.6
		c0.1,0.2,0.2,0.4,0.2,0.7c0,0.9-0.7,1.3-2,1.3c-0.5,0-1.1-0.1-1.7-0.3c-0.6-0.2-1.2-0.5-1.8-0.9l-0.1-0.1v3l0,0
		c0.4,0.2,1,0.4,1.7,0.5c0.7,0.1,1.3,0.2,1.8,0.2c1.6,0,2.9-0.4,3.8-1.1c0.9-0.8,1.4-1.8,1.4-3c0-0.9-0.3-1.7-0.8-2.3
		c-0.5-0.6-1.4-1.2-2.6-1.7c-1-0.4-1.6-0.7-1.9-1c-0.3-0.2-0.4-0.6-0.4-1c0-0.4,0.2-0.7,0.5-0.9c0.3-0.3,0.8-0.4,1.3-0.4
		c0.5,0,1.1,0.1,1.6,0.2c0.5,0.2,1,0.4,1.4,0.6l0.1,0.1v-2.9l0,0c-0.4-0.2-0.8-0.3-1.4-0.4C109.7,11.1,109.2,11,108.7,11 M95.5,22.3
		c-1.1,0-2-0.4-2.7-1.1c-0.6-0.7-1-1.8-1-3.2c0-1.4,0.3-2.5,1-3.3c0.6-0.8,1.5-1.1,2.6-1.1c1.1,0,2,0.4,2.6,1.1
		c0.6,0.7,0.9,1.8,0.9,3.2c0,1.4-0.3,2.5-0.9,3.3C97.5,21.9,96.6,22.3,95.5,22.3 M95.6,11c-2.2,0-3.9,0.6-5.1,1.9
		c-1.2,1.3-1.9,3-1.9,5.2c0,2.1,0.6,3.7,1.8,4.9c1.2,1.2,2.8,1.8,4.9,1.8c2.1,0,3.8-0.6,5-1.9c1.2-1.3,1.9-3,1.9-5.1
		c0-2.1-0.6-3.8-1.7-5S97.6,11,95.6,11 M83.8,13.6v-2.3h-3.1v13.2h3.1v-6.7c0-1.1,0.3-2.1,0.8-2.8c0.5-0.7,1.2-1.1,2-1.1
		c0.3,0,0.6,0,0.9,0.1c0.3,0.1,0.6,0.2,0.7,0.3l0.1,0.1v-3.1l-0.1,0c-0.3-0.1-0.7-0.2-1.2-0.2c-0.8,0-1.5,0.3-2.1,0.7
		C84.5,12.3,84.2,12.9,83.8,13.6L83.8,13.6z M75.2,11c-1.4,0-2.7,0.3-3.8,0.9c-1.1,0.6-1.9,1.5-2.5,2.6c-0.6,1.1-0.9,2.4-0.9,3.8
		c0,1.2,0.3,2.4,0.8,3.4c0.6,1,1.3,1.8,2.3,2.3c1,0.5,2.1,0.8,3.4,0.8c1.5,0,2.7-0.3,3.7-0.9l0,0v-2.8l-0.1,0.1
		c-0.5,0.3-1,0.6-1.5,0.8c-0.5,0.2-1,0.3-1.5,0.3c-1.2,0-2.2-0.4-2.9-1.1c-0.7-0.8-1.1-1.8-1.1-3.1c0-1.3,0.4-2.4,1.1-3.2
		c0.7-0.8,1.7-1.2,2.9-1.2c1,0,2,0.3,3,1l0.1,0.1v-3l0,0c-0.4-0.2-0.8-0.4-1.4-0.5C76.3,11.1,75.7,11,75.2,11 M65.9,11.4h-3.1v13.2
		h3.1V11.4z M64.4,5.7c-0.5,0-1,0.2-1.3,0.5c-0.4,0.3-0.6,0.8-0.6,1.3c0,0.5,0.2,0.9,0.5,1.3c0.4,0.3,0.8,0.5,1.3,0.5
		c0.5,0,1-0.2,1.3-0.5c0.4-0.3,0.6-0.8,0.6-1.3c0-0.5-0.2-0.9-0.5-1.3C65.4,5.9,64.9,5.7,64.4,5.7 M56.7,10.4v14.2h3.2V6.2h-4.4
		l-5.6,13.7L44.5,6.2h-4.6v18.4h3V10.4H43l5.7,14.2h2.2l5.6-14.2H56.7z"/>
	<rect class="st2" width="14.6" height="14.6"/>
	<rect x="16.1" class="st3" width="14.6" height="14.6"/>
	<rect y="16.1" class="st4" width="14.6" height="14.6"/>
	<rect x="16.1" y="16.1" class="st5" width="14.6" height="14.6"/>
</g>
</svg>
