<?xml version="1.0" encoding="utf-8"?>
<!-- Generator: Adobe Illustrator 22.0.1, SVG Export Plug-In . SVG Version: 6.00 Build 0)  -->
<svg version="1.1" id="Layer_1" xmlns="http://www.w3.org/2000/svg" xmlns:xlink="http://www.w3.org/1999/xlink" x="0px" y="0px"
	 width="52.1px" height="42.3px" viewBox="0 0 52.1 42.3" style="enable-background:new 0 0 52.1 42.3;" xml:space="preserve">
<style type="text/css">
	.st0{fill:none;}
	.st1{fill:none;stroke:#606060;stroke-width:1.5;stroke-miterlimit:10;}
	.st2{fill:#1DA1F2;}
</style>
<rect id="SVGID_15_" x="-933.9" y="4179.4" class="st0" width="1920" height="7357"/>
<polyline class="st1" points="709.7,7211.1 703.1,7217.7 696.5,7211.1 "/>
<rect x="-933.9" y="-1432.6" class="st0" width="1920" height="7357"/>
<rect x="-933.9" y="-2915.6" class="st0" width="1920" height="7357"/>
<path class="st2" d="M52.1,5c-1.9,0.8-4,1.4-6.1,1.7c2.2-1.3,3.9-3.4,4.7-5.9c-2.1,1.2-4.4,2.1-6.8,2.6C41.9,1.3,39.1,0,36.1,0
	c-5.9,0-10.7,4.8-10.7,10.7c0,0.8,0.1,1.6,0.3,2.4C16.8,12.7,8.9,8.4,3.6,2C2.7,3.5,2.2,5.4,2.2,7.3c0,3.7,1.9,7,4.8,8.9
	c-1.7-0.1-3.4-0.5-4.8-1.3V15c0,5.2,3.7,9.5,8.6,10.5c-0.9,0.2-1.9,0.4-2.8,0.4c-0.7,0-1.3-0.1-2-0.2c1.4,4.2,5.3,7.3,10,7.4
	c-3.7,2.9-8.3,4.6-13.3,4.6c-0.9,0-1.7-0.1-2.6-0.1c4.7,3,10.3,4.8,16.4,4.8C36,42.3,46.8,26,46.8,11.9c0-0.5,0-0.9,0-1.4
	C48.8,9,50.7,7.2,52.1,5L52.1,5z"/>
</svg>
