<svg id="Layer_1" data-name="Layer 1" xmlns="http://www.w3.org/2000/svg" width="111.25" height="31.45" viewBox="0 0 111.25 31.45"><defs><style>.cls-1{fill:#1fb6ea;}</style></defs><path id="path4" class="cls-1" d="M24.87,14.8q-.16,3.63-5.08,10-5.07,6.6-8.58,6.6-2.18,0-3.68-4L5.52,20q-1.11-4-2.4-4a7.69,7.69,0,0,0-1.95,1.17L0,15.61Q1.85,14,3.63,12.37C5.27,11,6.5,10.21,7.32,10.13c1.93-.18,3.13,1.14,3.57,4,.49,3.06.82,5,1,5.7.56,2.54,1.17,3.81,1.84,3.81.52,0,1.31-.83,2.35-2.47a9.67,9.67,0,0,0,1.67-3.76c.15-1.42-.41-2.13-1.67-2.13a4.48,4.48,0,0,0-1.84.41q1.83-6,7-5.85c2.55.08,3.76,1.74,3.61,5"/><path id="path6" class="cls-1" d="M35.37,2.78A4,4,0,0,1,34,5.45a5,5,0,0,1-3.58,1.44q-3.18,0-3.07-2.77A3.93,3.93,0,0,1,29,1.33,5.73,5.73,0,0,1,32.68,0a2.47,2.47,0,0,1,2,.92A2.65,2.65,0,0,1,35.37,2.78Zm4.86,19.87A19.06,19.06,0,0,1,35.93,28c-2.5,2.16-5,3.24-7.49,3.24a3.27,3.27,0,0,1-2.66-1.12,4.21,4.21,0,0,1-.86-2.91,26.4,26.4,0,0,1,1.14-5.69c.73-2.57,1.09-4,1.09-4.13,0-1-.33-1.45-1-1.45a6.16,6.16,0,0,0-1.9,1.17L23,15.61l3.58-3.24c1.6-1.42,2.79-2.16,3.58-2.24a2.73,2.73,0,0,1,2.7,1.09,4.65,4.65,0,0,1,.65,3.26c-.49,2.26-1,5.14-1.57,8.62,0,1.6.54,2.4,1.73,2.4.53,0,1.46-.55,2.8-1.66a22.59,22.59,0,0,0,2.74-2.59l1.06,1.4"/><path id="path8" class="cls-1" d="M75.12,22.65A18.89,18.89,0,0,1,70.82,28c-2.5,2.15-5,3.23-7.49,3.23s-3.59-1.34-3.52-4a20.36,20.36,0,0,1,.7-4.29,20.46,20.46,0,0,0,.7-3.91q0-2.13-1.29-2.13t-3.48,3.47a15.43,15.43,0,0,0-2.3,7,8.2,8.2,0,0,0,.47,3.69q-3.9.11-5.45-1.29c-.94-.82-1.36-2.18-1.29-4.08a15.23,15.23,0,0,1,.55-3.57A14.53,14.53,0,0,0,49,19c.08-1.38-.43-2.07-1.51-2.07s-1.94,1.07-3,3.19a16.22,16.22,0,0,0-1.79,6.65,11.54,11.54,0,0,0,.4,4.36c-2.56.07-4.37-.47-5.45-1.62a5.94,5.94,0,0,1-1.22-4.4,29.66,29.66,0,0,1,.51-4,31.74,31.74,0,0,0,.52-4c.08-.67-.1-1-.51-1A6.18,6.18,0,0,0,35,17.12l-1.34-1.51q.29-.22,3.52-3.24c1.57-1.45,2.63-2.2,3.19-2.23a2.43,2.43,0,0,1,2.34,1.2,5.24,5.24,0,0,1,.9,3,4.53,4.53,0,0,1-.12,1.06,10.26,10.26,0,0,1,2-2.23,10,10,0,0,1,5.76-2.52C53,10.54,54.33,11,55.12,12A5.43,5.43,0,0,1,56,15.5l.84-.73a15,15,0,0,1,2.51-2.4,8.27,8.27,0,0,1,4.3-1.68c1.79-.15,3.08.28,3.86,1.28a5,5,0,0,1,.89,3.51A25.55,25.55,0,0,1,67.66,20a28.31,28.31,0,0,0-.7,3.42,3,3,0,0,0,.22,1.61c.19.3.64.45,1.34.45.53,0,1.46-.55,2.8-1.66a22.59,22.59,0,0,0,2.74-2.59l1.06,1.4"/><path id="path10" class="cls-1" d="M83.39,16.76c0-1-.37-1.5-1.23-1.5-1.12,0-2.25.77-3.4,2.3A7.79,7.79,0,0,0,77,22a3.33,3.33,0,0,0,0,.73,12.59,12.59,0,0,0,4.74-3.06A5.44,5.44,0,0,0,83.39,16.76Zm12.68,5.83C95,24.38,92.87,26.16,89.7,28a23.85,23.85,0,0,1-12,3.4q-4.53,0-6.48-3a8.24,8.24,0,0,1-1.34-4.91c0-3,1.38-5.89,4-8.61a13.88,13.88,0,0,1,10.28-4.47q5.47,0,5.81,4.46.22,2.85-3.13,5.86a17,17,0,0,1-9,4.17,3.47,3.47,0,0,0,3,1.4,22.3,22.3,0,0,0,8.78-2.05,23.41,23.41,0,0,0,5.36-3l1.06,1.39"/><path id="path12" class="cls-1" d="M104.92,18.63a7,7,0,0,0-.42-2.77c-.31-.83-.77-1.26-1.36-1.26q-2.85,0-4.7,3.08a10.82,10.82,0,0,0-1.67,5.38,4.79,4.79,0,0,0,.5,2.46A1.9,1.9,0,0,0,99,26.75q2.52,0,4.3-3A10.53,10.53,0,0,0,104.92,18.63Zm6.32.22a13.3,13.3,0,0,1-3.8,8.87,11.8,11.8,0,0,1-8.89,3.73,8.11,8.11,0,0,1-6.7-2.84A9.07,9.07,0,0,1,90,23.31a11.6,11.6,0,0,1,3.46-8.82A13,13,0,0,1,103.58,10a7,7,0,0,1,5.93,2.62,9.06,9.06,0,0,1,1.73,6.2"/></svg>