<svg width="150" height="150" viewBox="0 0 150 150" fill="none" xmlns="http://www.w3.org/2000/svg">
<path d="M123.497 74.5086H98.904V58.2891C98.904 57.0456 97.899 56.0391 96.654 56.0391H52.905C51.6615 56.0391 50.655 57.0456 50.655 58.2891V74.5086H26.061C24.8175 74.5086 23.811 75.5151 23.811 76.7586V123.541C23.811 124.783 24.8175 125.791 26.061 125.791H123.501C124.745 125.791 125.751 124.783 125.751 123.541V76.7586C125.747 75.5151 124.74 74.5086 123.497 74.5086ZM94.404 60.5391V121.289H83.373V104.711C83.373 103.469 82.3665 102.461 81.123 102.461H68.373C67.131 102.461 66.123 103.469 66.123 104.711V121.291H55.155V60.5406L94.404 60.5391ZM28.311 79.0086H50.655V121.291H28.311V79.0086ZM70.6215 121.289V106.96H78.8715V121.289H70.6215ZM121.247 121.289H98.904V79.0086H121.248L121.247 121.289Z" fill="black"/>
<path d="M104.936 97.507H114.561C115.803 97.507 116.811 96.5005 116.811 95.257V86.32C116.811 85.0765 115.803 84.07 114.561 84.07H104.936C103.692 84.07 102.686 85.0765 102.686 86.32V95.257C102.686 96.5005 103.692 97.507 104.936 97.507ZM107.186 88.57H112.311V93.007H107.186V88.57ZM104.936 114.007H114.561C115.803 114.007 116.811 113.001 116.811 111.757V102.82C116.811 101.577 115.803 100.57 114.561 100.57H104.936C103.692 100.57 102.686 101.577 102.686 102.82V111.757C102.686 113.001 103.692 114.007 104.936 114.007ZM107.186 105.07H112.311V109.507H107.186V105.07ZM44.622 84.07H34.9965C33.753 84.07 32.7465 85.0765 32.7465 86.32V95.257C32.7465 96.5005 33.753 97.507 34.9965 97.507H44.622C45.8655 97.507 46.872 96.5005 46.872 95.257V86.32C46.872 85.0765 45.8655 84.07 44.622 84.07ZM42.372 93.007H37.2465V88.57H42.372V93.007ZM44.622 100.57H34.9965C33.753 100.57 32.7465 101.577 32.7465 102.82V111.757C32.7465 113.001 33.753 114.007 34.9965 114.007H44.622C45.8655 114.007 46.872 113.001 46.872 111.757V102.82C46.872 101.577 45.8655 100.57 44.622 100.57ZM42.372 109.507H37.2465V105.07H42.372V109.507ZM78.9675 79.0075H88.5945C89.8365 79.0075 90.8445 77.9995 90.8445 76.7575V67.819C90.8445 66.5755 89.8365 65.569 88.5945 65.569H78.9675C77.7255 65.569 76.7175 66.5755 76.7175 67.819V76.7575C76.7175 77.9995 77.721 79.0075 78.9675 79.0075ZM81.2175 70.069H86.3445V74.5075H81.2175V70.069ZM60.9675 79.0075H70.593C71.835 79.0075 72.843 77.9995 72.843 76.7575V67.819C72.843 66.5755 71.835 65.569 70.593 65.569H60.9675C59.724 65.569 58.7175 66.5755 58.7175 67.819V76.7575C58.7175 77.9995 59.7225 79.0075 60.9675 79.0075ZM63.2175 70.069H68.343V74.5075H63.2175V70.069ZM78.9675 97.507H88.5945C89.8365 97.507 90.8445 96.5005 90.8445 95.257V86.32C90.8445 85.0765 89.8365 84.07 88.5945 84.07H78.9675C77.7255 84.07 76.7175 85.0765 76.7175 86.32V95.257C76.7175 96.5005 77.721 97.507 78.9675 97.507ZM81.2175 88.57H86.3445V93.007H81.2175V88.57ZM60.9675 97.507H70.593C71.835 97.507 72.843 96.5005 72.843 95.257V86.32C72.843 85.0765 71.835 84.07 70.593 84.07H60.9675C59.724 84.07 58.7175 85.0765 58.7175 86.32V95.257C58.7175 96.5005 59.7225 97.507 60.9675 97.507ZM63.2175 88.57H68.343V93.007H63.2175V88.57ZM25.197 40.873C25.053 41.7175 25.3995 42.5695 26.0925 43.0735C26.4855 43.3585 26.949 43.504 27.4155 43.504C27.774 43.504 28.134 43.4185 28.4625 43.246L32.445 41.152L36.426 43.246C37.185 43.6435 38.103 43.5775 38.796 43.075C39.489 42.5725 39.8355 41.719 39.6915 40.8745L38.931 36.4405L42.153 33.298C42.7665 32.701 42.9885 31.8055 42.723 30.991C42.4575 30.1765 41.754 29.5825 40.9065 29.4595L36.453 28.8115L34.461 24.778C34.0815 24.01 33.3 23.524 32.4435 23.524C31.587 23.524 30.8055 24.01 30.426 24.778L28.434 28.8115L23.9805 29.4595C23.133 29.5825 22.4295 30.1765 22.164 30.991C21.9 31.8055 22.1205 32.6995 22.7325 33.298L25.9545 36.439L25.197 40.873ZM30.2535 33.094C30.9855 32.9875 31.62 32.527 31.947 31.864L32.445 30.856L32.943 31.864C33.2715 32.527 33.9045 32.989 34.6365 33.094L35.7495 33.256L34.944 34.0405C34.413 34.558 34.1715 35.302 34.296 36.0325L34.485 37.138L33.492 36.616C32.835 36.2725 32.0535 36.2725 31.398 36.616L30.4035 37.1395L30.5925 36.0325C30.717 35.3035 30.4755 34.558 29.946 34.0405L29.139 33.256L30.2535 33.094ZM47.1255 36.4375L46.3635 40.873C46.2195 41.7175 46.566 42.5695 47.2605 43.0735C47.6535 43.3585 48.1155 43.504 48.582 43.504C48.9405 43.504 49.3005 43.4185 49.6306 43.246L53.6115 41.152L57.5925 43.246C58.3515 43.6435 59.271 43.5775 59.9625 43.075C60.657 42.5725 61.002 41.719 60.8596 40.8745L60.0975 36.4405L63.3195 33.2995C63.9315 32.701 64.1535 31.807 63.888 30.9925C63.624 30.178 62.919 29.584 62.0715 29.461L57.6195 28.813L55.629 24.7795C55.248 24.0115 54.4665 23.5255 53.6101 23.5255C52.7535 23.5255 51.972 24.0115 51.591 24.7795L49.6005 28.813L45.15 29.458C44.3025 29.581 43.599 30.175 43.3335 30.9895C43.068 31.804 43.29 32.698 43.9035 33.2965L47.1255 36.4375ZM51.42 33.094C52.152 32.9875 52.785 32.527 53.1135 31.864L53.6115 30.856L54.1096 31.864C54.438 32.527 55.071 32.989 55.803 33.094L56.916 33.256L56.109 34.0405C55.5795 34.558 55.3365 35.302 55.4625 36.0325L55.6516 37.138L54.6585 36.616C54.0015 36.2725 53.22 36.2725 52.5645 36.616L51.57 37.1395L51.7605 36.0325C51.8865 35.3035 51.6435 34.558 51.1125 34.0405L50.307 33.256L51.42 33.094ZM68.292 36.4375L67.53 40.8715C67.386 41.716 67.7325 42.568 68.427 43.072C69.1215 43.576 70.038 43.6405 70.797 43.243L74.778 41.149L78.759 43.243C79.0905 43.4155 79.4475 43.501 79.806 43.501C80.274 43.501 80.736 43.3555 81.129 43.0705C81.822 42.568 82.1685 41.7145 82.026 40.87L81.264 36.436L84.486 33.2935C85.098 32.6965 85.3215 31.801 85.056 30.9865C84.7905 30.172 84.087 29.578 83.2395 29.455L78.7845 28.807L76.7925 24.7735C76.4145 24.0055 75.633 23.5195 74.7765 23.5195C73.92 23.5195 73.137 24.0055 72.7575 24.7735L70.7655 28.807L66.312 29.455C65.466 29.578 64.7626 30.172 64.4955 30.9865C64.2315 31.801 64.452 32.695 65.067 33.2935L68.292 36.4375ZM72.588 33.094C73.32 32.9875 73.953 32.527 74.2815 31.864L74.7795 30.856L75.2775 31.864C75.606 32.5285 76.239 32.989 76.971 33.094L78.084 33.256L77.2785 34.0405C76.7475 34.558 76.5015 35.302 76.6275 36.0325L76.8165 37.1395L75.822 36.616C75.4935 36.4435 75.135 36.358 74.7765 36.358C74.4165 36.358 74.0565 36.445 73.728 36.616L72.735 37.138L72.9255 36.0325C73.0515 35.3035 72.8085 34.558 72.2775 34.0405L71.472 33.256L72.588 33.094ZM89.4615 36.4375L88.698 40.873C88.554 41.7175 88.902 42.5695 89.5965 43.0735C89.991 43.357 90.45 43.5025 90.918 43.5025C91.275 43.5025 91.6365 43.417 91.9665 43.2445L95.946 41.1505L99.927 43.2445C100.686 43.642 101.601 43.576 102.297 43.0735C102.99 42.571 103.335 41.7175 103.193 40.873L102.432 36.439L105.653 33.298C106.263 32.701 106.488 31.8055 106.221 30.991C105.957 30.1765 105.252 29.5825 104.405 29.4595L99.9495 28.8115L97.962 24.778C97.581 24.01 96.801 23.524 95.9415 23.524C95.088 23.524 94.302 24.01 93.9225 24.778L91.9305 28.8115L87.48 29.4595C86.634 29.5825 85.9305 30.1765 85.6635 30.991C85.3995 31.8055 85.6215 32.6995 86.235 33.298L89.4615 36.4375ZM93.7545 33.094C94.4865 32.9875 95.1195 32.527 95.448 31.864L95.946 30.856L96.4425 31.864C96.771 32.527 97.4071 32.989 98.1376 33.094L99.249 33.256L98.4435 34.0405C97.9125 34.558 97.671 35.302 97.7955 36.0325L97.9845 37.138L96.9915 36.616C96.3345 36.2725 95.553 36.2725 94.8975 36.616L93.9045 37.1395L94.095 36.0325C94.218 35.3035 93.978 34.558 93.444 34.042L92.6385 33.256L93.7545 33.094ZM127.391 30.9895C127.127 30.175 126.422 29.581 125.574 29.458L121.121 28.81L119.129 24.7765C118.751 24.0085 117.971 23.5225 117.11 23.5225C116.255 23.5225 115.47 24.0085 115.092 24.7765L113.103 28.81L108.65 29.458C107.802 29.581 107.097 30.175 106.833 30.9895C106.565 31.804 106.79 32.698 107.402 33.2965L110.622 36.4375L109.86 40.873C109.715 41.7175 110.063 42.5695 110.757 43.0735C111.45 43.5745 112.368 43.6405 113.127 43.2445L117.107 41.1505L121.088 43.2445C121.419 43.417 121.776 43.5025 122.133 43.5025C122.603 43.5025 123.063 43.357 123.458 43.072C124.149 42.5695 124.496 41.716 124.352 40.8715L123.593 36.4375L126.813 33.2965C127.434 32.698 127.656 31.804 127.391 30.9895ZM119.61 34.0405C119.079 34.558 118.836 35.302 118.962 36.0325L119.15 37.138L118.157 36.6145C117.827 36.442 117.468 36.3565 117.111 36.3565C116.753 36.3565 116.393 36.4435 116.064 36.6145L115.071 37.1365L115.262 36.031C115.388 35.302 115.146 34.5565 114.614 34.039L113.808 33.2545L114.921 33.0925C115.652 32.986 116.288 32.5255 116.615 31.861L117.113 30.8545L117.611 31.861C117.938 32.5255 118.572 32.986 119.304 33.091L120.416 33.253L119.61 34.0405Z" fill="black"/>
</svg>
