<svg width="619" height="413" viewBox="0 0 619 413" fill="none" xmlns="http://www.w3.org/2000/svg">
<path d="M169.359 186.696C169.359 186.696 162.539 194.708 169.998 210.237C176.199 204.042 179.562 196.268 169.359 186.696Z" fill="#9595CE"/>
<path d="M150.262 208.214C150.262 208.214 157.195 202.432 170.442 208.988C165.067 214.254 158.371 217.063 150.262 208.214ZM153.76 174.792C153.76 174.792 149.478 182.422 158.062 193.883C162.126 187.832 163.612 180.966 153.76 174.792Z" fill="#9595CE"/>
<path d="M138.77 191.519C138.77 191.519 145.682 186.17 158.268 192.974C152.893 197.889 146.311 200.367 138.77 191.519ZM144.341 165.345C144.341 165.345 140.513 169.96 144.877 178.757C148.364 175.184 150.221 170.724 144.341 165.345Z" fill="#9595CE"/>
<path d="M134.096 176.826C134.096 176.826 137.728 174.204 144.98 178.654C141.617 181.4 138.285 182.329 134.096 176.826ZM182.316 203.258C182.316 203.258 172.402 211.972 179.871 227.501C186.474 224.259 191.818 217.445 182.316 203.258Z" fill="#9595CE"/>
<path d="M159.785 222.648C159.785 222.648 169.441 216.598 180.428 226.623C176.116 231.29 169.163 234.026 159.785 222.648ZM193.933 219.984C193.933 219.984 182.388 226.365 186.34 243.133C193.479 241.388 200.164 235.885 193.933 219.984Z" fill="#9595CE"/>
<path d="M162.312 240.19C162.312 240.19 172.546 231.869 186.608 241.822C182.316 247.8 174.702 251.93 162.312 240.19Z" fill="#9595CE"/>
<path d="M135.571 172.49C135.695 172.541 135.313 172.355 135.53 172.469C135.592 172.5 135.654 172.531 135.716 172.552C135.86 172.624 135.994 172.696 136.128 172.779C136.428 172.954 136.716 173.14 136.995 173.336C137.15 173.44 137.294 173.553 137.439 173.656C137.521 173.718 137.604 173.78 137.686 173.842C137.841 173.956 137.686 173.842 137.655 173.822C137.717 173.873 137.779 173.925 137.851 173.977C138.223 174.266 138.584 174.575 138.945 174.875C140.771 176.444 142.494 178.137 144.186 179.862C148.436 184.198 152.46 188.762 156.39 193.388C158.34 195.69 160.269 198.013 162.157 200.367C163.767 202.37 165.211 204.198 166.697 206.191C168.172 208.173 169.544 210.228 170.885 212.303C173.444 216.257 175.889 220.284 178.076 224.445C180.232 228.544 182.12 232.777 183.554 237.186C185.112 241.956 186.061 246.881 186.886 251.827C187.093 253.056 187.289 254.284 187.485 255.523C187.578 256.102 188.3 256.422 188.816 256.277C189.424 256.112 189.662 255.523 189.569 254.945C188.764 249.876 187.949 244.785 186.608 239.829C185.36 235.255 183.616 230.826 181.553 226.551C179.479 222.246 177.086 218.106 174.558 214.058C172.897 211.405 171.215 208.741 169.369 206.211C166.212 201.864 162.797 197.693 159.351 193.573C155.348 188.793 151.232 184.095 146.92 179.593C145.145 177.735 143.329 175.918 141.421 174.193C140.08 172.985 138.677 171.736 137.088 170.848C136.778 170.673 136.469 170.538 136.139 170.404C135.602 170.187 134.952 170.642 134.808 171.158C134.643 171.777 135.024 172.273 135.571 172.49Z" fill="#B4BDED"/>
<path d="M186.236 242.029C187.206 241.337 187.959 240.356 188.65 239.396C189.507 238.208 190.28 236.949 190.941 235.637C192.509 232.54 193.231 228.926 192.983 225.467C192.932 224.652 191.653 224.652 191.714 225.467C191.941 228.699 191.312 232.096 189.847 234.997C189.228 236.205 188.527 237.382 187.743 238.497C187.134 239.354 186.463 240.325 185.597 240.944C184.936 241.409 185.566 242.503 186.236 242.029Z" fill="#B4BDED"/>
<path d="M167.274 241.398C170.452 242.286 173.702 243.06 176.993 243.422C180.005 243.752 183.11 243.566 185.855 242.183C186.587 241.811 185.948 240.717 185.215 241.088C182.605 242.4 179.634 242.462 176.786 242.131C173.691 241.77 170.617 241.016 167.615 240.18C166.82 239.953 166.49 241.171 167.274 241.398ZM180.696 225.952C182.017 223.701 182.45 220.975 182.677 218.404C182.914 215.74 182.873 213.046 182.595 210.392C182.512 209.587 181.233 209.576 181.326 210.392C181.594 212.932 181.635 215.503 181.439 218.053C181.243 220.511 180.872 223.154 179.603 225.312C179.18 226.024 180.284 226.664 180.696 225.952Z" fill="#B4BDED"/>
<path d="M162.281 224.249C164.396 225.261 166.666 225.994 168.935 226.551C171.504 227.181 174.248 227.656 176.889 227.357C178.148 227.212 179.407 226.902 180.469 226.18C181.14 225.715 180.5 224.621 179.83 225.085C177.436 226.727 173.918 226.252 171.246 225.756C168.409 225.23 165.531 224.404 162.921 223.154C162.188 222.803 161.538 223.898 162.281 224.249ZM151.717 209.123C154.791 210.021 157.845 210.537 161.053 210.579C163.973 210.62 167.016 210.465 169.833 209.649C170.617 209.422 170.287 208.194 169.492 208.421C166.779 209.205 163.859 209.35 161.053 209.309C157.958 209.267 155.028 208.761 152.057 207.894C151.263 207.667 150.933 208.896 151.717 209.123Z" fill="#B4BDED"/>
<path d="M169.431 190.816C169.998 191.621 170.225 192.623 170.401 193.583C170.638 194.905 170.71 196.268 170.731 197.61C170.772 200.387 170.586 203.196 170.112 205.942C170.019 206.489 169.905 207.047 169.771 207.584C169.709 207.811 169.647 208.028 169.575 208.245C169.493 208.482 169.503 208.472 169.42 208.627C169.059 209.36 170.153 210 170.514 209.267C170.906 208.482 171.081 207.604 171.247 206.747C171.504 205.415 171.669 204.073 171.783 202.721C172.051 199.737 172.134 196.681 171.69 193.707C171.504 192.499 171.236 191.177 170.524 190.165C170.07 189.505 168.967 190.145 169.431 190.816ZM141.4 192.633C142.164 193.108 143.092 193.377 143.938 193.624C145.259 194.017 146.61 194.306 147.972 194.502C150.778 194.905 154.007 195.09 156.566 193.655C157.278 193.253 156.638 192.158 155.926 192.561C153.605 193.862 150.531 193.624 148.003 193.232C146.744 193.036 145.496 192.757 144.279 192.396C143.515 192.169 142.711 191.941 142.04 191.528C141.349 191.105 140.709 192.21 141.4 192.633Z" fill="#B4BDED"/>
<path d="M154.296 178.385C154.307 178.416 154.327 178.447 154.337 178.478C154.41 178.633 154.296 178.385 154.348 178.509C154.399 178.633 154.451 178.767 154.503 178.891C154.668 179.304 154.822 179.728 154.967 180.141C155.4 181.369 155.782 182.608 156.091 183.868C156.731 186.418 157.402 189.536 156.349 192.076C156.04 192.83 157.267 193.16 157.577 192.417C158.691 189.733 158.021 186.398 157.36 183.682C156.865 181.679 156.277 179.614 155.39 177.745C155.039 177.012 153.945 177.652 154.296 178.385ZM136.386 178.065C137.707 179.005 139.316 179.315 140.895 179.48C142.38 179.645 143.938 179.635 145.125 178.623C145.754 178.096 144.846 177.198 144.227 177.725C143.299 178.509 141.865 178.313 140.761 178.189C139.44 178.034 138.12 177.745 137.026 176.961C136.748 176.764 136.314 176.909 136.16 177.188C135.974 177.518 136.108 177.869 136.386 178.065Z" fill="#B4BDED"/>
<path d="M144.155 167.802C144.392 168.535 144.454 169.33 144.506 170.094C144.599 171.25 144.619 172.417 144.609 173.584C144.599 174.699 144.557 175.814 144.433 176.919C144.392 177.321 144.33 177.724 144.227 178.116C144.145 178.447 144.124 178.601 143.959 178.839C143.495 179.52 144.599 180.15 145.052 179.479C145.486 178.839 145.568 177.93 145.661 177.187C145.806 176.041 145.857 174.874 145.867 173.718C145.878 172.51 145.857 171.302 145.764 170.094C145.692 169.226 145.63 168.307 145.362 167.471C145.135 166.686 143.907 167.017 144.155 167.802Z" fill="#B4BDED"/>
<path d="M99.8242 236.505C105.168 263.804 136.944 346.105 208.417 344.773C181.656 278.548 144.877 291.186 99.8242 236.505Z" fill="#9595CE"/>
<path d="M99.9064 235.874C100.825 241.181 104.332 245.497 107.499 249.669C110.625 253.788 113.834 257.836 117.125 261.821C123.697 269.782 130.578 277.474 137.727 284.929C144.918 292.424 152.367 299.662 160.032 306.673C167.708 313.684 175.6 320.467 183.657 327.034C191.683 333.57 199.885 339.899 208.221 346.052C209.273 346.827 210.326 347.601 211.378 348.365C211.76 348.644 212.224 348.076 211.842 347.787C203.506 341.716 195.305 335.459 187.268 329.006C179.262 322.573 171.422 315.945 163.777 309.079C156.112 302.192 148.653 295.088 141.452 287.727C134.24 280.365 127.287 272.755 120.643 264.888C117.331 260.974 114.102 256.999 110.956 252.952C109.346 250.887 107.757 248.812 106.2 246.705C104.559 244.496 102.95 242.235 101.846 239.705C101.299 238.445 100.886 237.144 100.649 235.792C100.556 235.348 99.8238 235.41 99.9064 235.874Z" fill="#D8D5F7"/>
<path d="M117.641 261.336C118.425 256.834 120.313 252.601 121.087 248.099C121.303 246.84 121.427 245.57 121.417 244.3C121.417 243.825 120.684 243.897 120.684 244.372C120.705 248.915 118.972 253.2 117.775 257.516C117.434 258.744 117.135 259.973 116.919 261.233C116.836 261.687 117.558 261.811 117.641 261.336ZM126.131 271.176C127.029 266.622 128.102 262.11 129.34 257.64C129.691 256.38 130.052 255.12 130.434 253.861C130.568 253.406 129.835 253.293 129.701 253.737C128.37 258.176 127.204 262.678 126.204 267.201C125.925 268.481 125.657 269.761 125.399 271.052C125.316 271.527 126.039 271.64 126.131 271.176ZM133.921 280.024C134.323 276.916 135.334 273.943 136.19 270.948C137.036 267.954 137.665 264.898 138.037 261.811C138.243 260.066 138.377 258.311 138.439 256.555C138.45 256.359 138.223 256.204 138.037 256.225C137.82 256.246 137.707 256.432 137.707 256.628C137.604 259.746 137.242 262.854 136.644 265.91C136.056 268.925 135.138 271.836 134.313 274.789C133.838 276.472 133.425 278.166 133.198 279.9C133.126 280.375 133.859 280.499 133.921 280.024ZM136.046 282.461C137.418 277.102 139.419 271.909 141.998 267.015C142.731 265.631 143.505 264.268 144.32 262.936C144.423 262.761 144.299 262.523 144.134 262.451C143.938 262.358 143.752 262.472 143.649 262.637C140.74 267.397 138.377 272.497 136.644 277.794C136.159 279.291 135.716 280.809 135.324 282.347C135.2 282.802 135.932 282.915 136.046 282.461ZM148.993 295.068C148.426 293.612 148.777 291.991 148.993 290.494C149.23 288.831 149.478 287.179 149.736 285.527C150.242 282.213 150.788 278.909 151.376 275.615C151.706 273.767 152.057 271.929 152.429 270.092C152.521 269.627 151.799 269.503 151.696 269.968C150.355 276.658 149.272 283.39 148.302 290.132C148.054 291.836 147.652 293.674 148.302 295.326C148.477 295.77 149.169 295.512 148.993 295.068ZM151.851 298.052C153.429 290.948 154.564 283.741 155.245 276.503C155.431 274.469 155.586 272.435 155.709 270.401C155.74 269.926 155.008 269.802 154.977 270.277C154.554 277.546 153.667 284.784 152.336 291.939C151.964 293.942 151.552 295.945 151.108 297.938C151.026 298.392 151.748 298.506 151.851 298.052ZM159.392 304.845C159.929 299.373 160.465 293.808 162.281 288.584C162.787 287.128 163.395 285.713 164.117 284.35C164.344 283.927 163.663 283.628 163.447 284.051C160.857 288.976 159.815 294.51 159.165 299.982C158.98 301.562 158.825 303.142 158.67 304.732C158.619 305.197 159.351 305.32 159.392 304.845ZM171.834 316.234C172.464 310.153 173.825 304.154 175.878 298.392C176.466 296.761 177.106 295.14 177.797 293.55C177.983 293.116 177.312 292.807 177.127 293.25C174.661 298.909 172.876 304.876 171.824 310.958C171.525 312.672 171.287 314.386 171.112 316.11C171.061 316.575 171.783 316.699 171.834 316.234ZM174.197 318.165C174.279 313.167 175.455 308.201 177.612 303.699C178.22 302.44 178.891 301.211 179.644 300.034C179.902 299.642 179.324 299.167 179.066 299.569C176.301 303.885 174.486 308.79 173.784 313.87C173.578 315.315 173.475 316.781 173.454 318.247C173.454 318.712 174.197 318.64 174.197 318.165ZM182.749 325.341C182.77 322.037 183.183 318.743 183.967 315.532C184.751 312.321 185.906 309.213 187.402 306.27C188.248 304.598 189.218 302.987 190.28 301.449C190.549 301.056 189.981 300.592 189.703 300.984C187.784 303.761 186.185 306.766 184.957 309.925C183.74 313.074 182.873 316.368 182.409 319.724C182.151 321.613 182.017 323.513 182.007 325.413C182.007 325.888 182.749 325.816 182.749 325.341ZM190.982 331.969C190.528 326.621 192.519 321.479 194.944 316.822C195.676 315.418 196.45 314.035 197.234 312.661C197.471 312.248 196.79 311.949 196.563 312.362C193.84 317.143 191.106 322.119 190.363 327.653C190.167 329.109 190.115 330.575 190.239 332.042C190.28 332.506 191.023 332.434 190.982 331.969Z" fill="#D8D5F7"/>
<path d="M192.426 333.043C192.653 328.665 193.984 324.36 196.305 320.632C196.966 319.579 197.698 318.567 198.503 317.617C198.812 317.256 198.235 316.791 197.925 317.153C195.026 320.591 193.035 324.762 192.168 329.171C191.921 330.41 191.766 331.659 191.704 332.919C191.673 333.394 192.406 333.518 192.426 333.043ZM128.783 274.676C124.13 274.521 119.498 273.953 114.855 273.581C110.337 273.22 105.777 273.044 101.268 273.581C98.751 273.881 96.2647 274.407 93.8712 275.223C93.4173 275.378 93.6855 276.07 94.1292 275.915C98.3796 274.459 102.888 273.984 107.365 273.974C111.946 273.963 116.506 274.459 121.056 274.872C123.645 275.109 126.245 275.316 128.845 275.399C129.041 275.409 129.196 275.182 129.175 274.996C129.175 274.789 128.989 274.676 128.783 274.676ZM119.322 263.773C112.978 263.494 106.685 262.172 100.763 259.87C99.0812 259.219 97.4305 258.476 95.8211 257.67C95.3981 257.454 95.0989 258.135 95.5219 258.342C101.258 261.212 107.458 263.143 113.813 264.01C115.598 264.258 117.393 264.413 119.199 264.495C119.673 264.526 119.797 263.793 119.322 263.773ZM110.615 253.158C106.313 252.074 102.135 250.536 98.1527 248.574C97.7297 248.368 97.4202 249.039 97.8535 249.245C101.887 251.238 106.138 252.787 110.502 253.892C110.956 254.005 111.079 253.272 110.615 253.158ZM140.183 287.148C135.159 287.314 130.124 287.334 125.1 287.221C120.086 287.107 115.072 286.839 110.068 286.436C107.252 286.209 104.436 285.94 101.629 285.62C101.155 285.569 101.031 286.291 101.506 286.343C106.519 286.911 111.554 287.334 116.599 287.613C121.633 287.892 126.678 288.026 131.723 288.026C134.57 288.026 137.418 287.974 140.265 287.881C140.73 287.871 140.657 287.138 140.183 287.148ZM152.955 299.951C150.272 300.622 147.518 300.984 144.763 301.273C142.102 301.552 139.43 301.779 136.758 302.006C131.486 302.46 126.193 302.822 120.891 302.791C117.909 302.77 114.928 302.626 111.956 302.295C111.482 302.244 111.358 302.977 111.833 303.028C117.146 303.606 122.5 303.627 127.823 303.369C133.198 303.111 138.573 302.615 143.928 302.099C147.043 301.789 150.159 301.407 153.202 300.643C153.677 300.519 153.409 299.838 152.955 299.951ZM143.329 290.38C137.191 291.392 130.991 292.084 124.78 292.455C118.559 292.817 112.317 292.858 106.096 292.569C102.609 292.404 99.1224 292.135 95.656 291.764C95.1815 291.712 95.0577 292.445 95.5322 292.497C101.753 293.157 108.015 293.498 114.267 293.498C120.488 293.509 126.72 293.188 132.91 292.538C136.417 292.166 139.925 291.702 143.402 291.123C143.866 291.041 143.794 290.308 143.329 290.38ZM162.271 308.408C156.349 311.567 149.602 312.383 143.02 312.971C136.242 313.58 129.453 314.19 122.675 314.871C118.838 315.253 115 315.666 111.162 316.079C110.687 316.131 110.76 316.864 111.234 316.812C118.064 316.069 124.893 315.367 131.733 314.726C135.148 314.406 138.553 314.097 141.968 313.797C145.31 313.508 148.663 313.188 151.964 312.579C155.627 311.897 159.248 310.855 162.539 309.089C162.941 308.882 162.694 308.18 162.271 308.408ZM166.15 311.691C161.817 313.684 157.329 315.336 152.759 316.719C148.147 318.123 143.463 319.259 138.738 320.23C134.044 321.2 129.33 322.006 124.594 322.749C119.859 323.492 115.113 324.184 110.368 324.917C105.601 325.661 100.856 326.445 96.1203 327.385C95.5322 327.498 94.9545 327.622 94.3664 327.736C93.9022 327.829 93.9744 328.572 94.4387 328.469C99.1534 327.488 103.909 326.683 108.665 325.929C113.432 325.175 118.198 324.484 122.964 323.75C127.72 323.017 132.476 322.233 137.191 321.293C141.916 320.354 146.61 319.269 151.232 317.938C155.833 316.606 160.372 315.026 164.767 313.105C165.314 312.868 165.851 312.62 166.397 312.372C166.841 312.186 166.583 311.495 166.15 311.691ZM176.982 320.973C172.381 323.255 167.584 325.144 162.663 326.621C157.752 328.097 152.728 329.15 147.642 329.791C144.774 330.152 141.885 330.369 138.986 330.451C138.511 330.462 138.584 331.205 139.058 331.184C144.237 331.03 149.396 330.441 154.471 329.429C159.506 328.417 164.448 326.993 169.245 325.165C171.968 324.122 174.64 322.955 177.251 321.665C177.663 321.448 177.405 320.756 176.982 320.973ZM186.288 328.376C181.635 329.842 176.951 331.195 172.237 332.434C167.512 333.673 162.756 334.778 157.979 335.769C155.297 336.326 152.604 336.843 149.911 337.328C149.447 337.41 149.509 338.144 149.984 338.061C154.822 337.204 159.64 336.213 164.437 335.108C169.204 334.003 173.939 332.785 178.643 331.453C181.295 330.699 183.946 329.904 186.577 329.068C187 328.923 186.742 328.242 186.288 328.376ZM194.799 335.583C189.61 336.698 184.421 337.823 179.273 339.093C174.135 340.353 169.038 341.747 164.025 343.43C161.208 344.369 158.412 345.412 155.668 346.548C155.235 346.734 155.493 347.426 155.926 347.24C160.785 345.216 165.778 343.543 170.834 342.088C175.909 340.632 181.037 339.383 186.185 338.226C189.073 337.576 191.962 336.946 194.861 336.326C195.325 336.213 195.263 335.48 194.799 335.583Z" fill="#D8D5F7"/>
<path d="M172.505 345.918C172.505 347.756 186.391 349.253 203.517 349.253C220.642 349.253 234.529 347.756 234.529 345.918C234.529 344.08 220.642 342.583 203.517 342.583C186.391 342.583 172.505 344.08 172.505 345.918Z" fill="#5851BC"/>
<path d="M224.594 343.027C224.594 343.027 225.46 344.183 222.572 345.288C219.673 346.393 214.112 345.175 213.534 344.824V345.639L208.954 345.412V344.39C208.954 344.39 208.892 341.644 210.687 339.444H214.339C214.339 339.444 214.401 340.838 215.092 341.592C216.66 341.169 221.757 340.88 224.594 343.027ZM196.852 343.027C196.852 343.027 197.719 344.183 194.82 345.288C191.921 346.393 186.36 345.175 185.783 344.824V345.639L181.202 345.412V344.39C181.202 344.39 181.14 341.644 182.935 339.444H186.587C186.587 339.444 186.649 340.838 187.34 341.592C188.919 341.169 194.015 340.88 196.852 343.027Z" fill="#212121"/>
<path d="M213.648 251.093L216.134 339.898H209.882C209.882 339.898 202.444 317.287 203.135 308.48C203.827 299.672 201.227 294.427 201.227 286.301C201.227 278.186 200.855 267.324 200.855 267.324L199.225 267.087C199.225 267.087 195.986 290.504 195.057 292.827C195.522 302.563 190.425 318.33 189.724 325.061C189.032 331.783 187.402 339.898 187.402 339.898H181.842C181.842 339.898 179.52 317.875 181.842 306.745C184.163 295.615 182.997 267.324 182.997 267.324C182.997 267.324 182.77 254.335 184.854 251.785C186.948 249.235 213.648 251.093 213.648 251.093Z" fill="#3644AC"/>
<path d="M198.183 274.356C198.224 269.266 198.895 264.186 199.566 259.137C199.854 256.927 199.72 253.458 200.257 250.484C207.117 250.639 213.648 251.094 213.648 251.094L216.134 339.899H209.882C209.882 339.899 202.444 317.287 203.135 308.48C203.826 299.673 201.227 294.428 201.227 286.302C201.227 278.186 200.855 267.324 200.855 267.324L199.225 267.087C199.225 267.087 198.781 270.246 198.183 274.356Z" fill="#2A2A7C"/>
<path d="M212.895 206.107C212.895 206.107 202.588 195.504 187.351 204.6C191.931 213.531 190.425 249.359 192.158 251.093C197.255 252.828 209.831 253.179 211.45 252.363C213.07 240.768 214.865 213.18 214.865 212.829C214.865 212.478 212.895 206.107 212.895 206.107Z" fill="#D8D5F7"/>
<path d="M219.023 250.815C219.023 254.046 209.552 261.057 208.861 255.956C208.17 250.856 204.693 207.955 206.777 204.249C208.397 202.855 210.945 200.769 212.111 206.572C213.266 212.364 219.023 247.593 219.023 250.815ZM184.854 256.194C184.854 256.194 192.385 264.536 193.654 260.365C194.934 256.194 206.973 215.844 192.375 203.671C185.422 205.643 182.296 224.31 183.451 236.597C182.77 251.672 180.686 253.871 184.854 256.194Z" fill="#5851BC"/>
<path d="M213.988 237.114L213.638 239.664C213.638 239.664 193.365 243.66 188.155 239.891C182.946 236.123 181.842 208.875 183.234 206.325C184.627 203.775 192.85 201.338 192.85 201.338C192.85 201.338 200.205 230.145 198.926 233.397C198.926 233.397 199.566 234.677 200.835 234.378C202.114 234.089 213.978 235.71 213.978 235.71V237.114H213.988Z" fill="#6E66C9"/>
<path d="M202.268 192.912L204.033 203.32L196.584 204.972L197.224 193.521L202.268 192.912Z" fill="#F8A17A"/>
<path d="M189.682 187.378C189.682 193.232 195.501 199.293 200.69 199.293C205.879 199.293 208.458 193.232 208.458 187.378C208.458 181.523 204.26 176.784 199.07 176.784C193.881 176.784 189.682 181.523 189.682 187.378Z" fill="#F8A17A"/>
<path d="M209.81 179.087C209.955 179.428 212.585 187.553 204.6 186.624C196.605 185.695 194.872 185.932 194.057 183.836C193.242 181.751 189.425 177.342 192.551 175.721C195.676 174.1 208.655 176.423 209.81 179.087Z" fill="#212121"/>
<path d="M192.024 193.005C193.324 192.128 194.944 183.403 193.303 181.503C191.673 179.603 192.055 177.384 189.6 179.748C187.154 182.112 188.031 189.959 188.341 191.075C188.661 192.19 190.951 193.738 192.024 193.005Z" fill="#212121"/>
<path d="M190.683 188.71C190.683 189.825 191.581 190.723 192.695 190.723C193.809 190.723 194.707 189.825 194.707 188.71C194.707 187.595 193.809 186.696 192.695 186.696C191.581 186.696 190.683 187.595 190.683 188.71Z" fill="#F8A17A"/>
<path d="M204.848 200.48C204.971 200.491 206.24 202.484 206.24 202.484C206.24 202.484 202.196 206.82 201.804 206.717C200.762 206.572 199.658 204.249 199.658 204.249C199.658 204.249 204.208 200.45 204.848 200.48ZM197.925 206.799C198.039 206.789 199.658 204.249 199.658 204.249C199.658 204.249 196.79 200.016 196.151 200.078C195.511 200.14 193.685 200.48 193.685 200.48C193.685 200.48 197.059 206.882 197.925 206.799Z" fill="white"/>
<path d="M207.293 203.258C207.293 204.632 208.799 206.635 210.615 206.335C214.071 205.778 211.977 203.568 211.977 201.73C211.977 199.892 210.976 199.572 209.15 199.572C207.303 199.583 207.293 201.431 207.293 203.258Z" fill="#F8A17A"/>
<path d="M213.029 204.249C213.029 204.249 225.883 232.302 220.787 236.824C218.466 238.559 210.357 240.655 210.357 209.236C209.428 206.335 208.851 206.572 208.851 206.572L213.029 204.249Z" fill="#5851BC"/>
<path d="M220.797 236.824C218.476 238.559 210.367 240.655 210.367 209.236C209.439 206.334 208.861 206.572 208.861 206.572L209.263 206.345C209.769 206.386 210.192 206.902 210.408 207.408C211.161 209.163 211.223 211.125 211.615 213.004C211.976 214.76 212.637 216.432 213.06 218.177C213.689 220.769 213.803 223.453 214.36 226.065C214.886 228.523 215.794 230.887 216.691 233.241C216.887 233.737 217.083 234.243 217.424 234.646C217.826 235.1 218.383 235.379 218.92 235.647C219.59 235.977 220.261 236.36 220.952 236.649C220.9 236.7 220.859 236.772 220.797 236.824Z" fill="#2A2A7C"/>
<path d="M213.194 238.343C213.194 239.953 215.061 240.211 216.856 240.211C218.641 240.211 220.323 239.272 220.323 237.661C220.323 236.05 219.404 235.39 217.62 235.39C215.835 235.4 213.194 236.742 213.194 238.343Z" fill="#F8A17A"/>
<path d="M392.085 43.4785H249.973V324.68H441.419V92.863H392.085V43.4785Z" fill="#C4C3FC"/>
<path d="M392.085 92.863H441.419L392.085 43.4785V92.863Z" fill="white"/>
<path d="M405.435 112.078H283.708V113.854H405.435V112.078Z" fill="#D8D5F7"/>
<path d="M405.435 125.687H283.708V127.462H405.435V125.687Z" fill="#D8D5F7"/>
<path d="M405.435 139.284H283.708V141.06H405.435V139.284Z" fill="#D8D5F7"/>
<path d="M405.435 152.893H283.708V154.668H405.435V152.893Z" fill="#D8D5F7"/>
<path d="M405.435 166.49H283.708V168.266H405.435V166.49Z" fill="#D8D5F7"/>
<path d="M405.435 180.089H283.708V181.865H405.435V180.089Z" fill="#D8D5F7"/>
<path d="M405.435 193.697H283.708V195.473H405.435V193.697Z" fill="#D8D5F7"/>
<path d="M405.435 207.295H283.708V209.071H405.435V207.295Z" fill="#D8D5F7"/>
<path d="M405.435 220.893H283.708V222.668H405.435V220.893Z" fill="#D8D5F7"/>
<path d="M405.435 234.501H283.708V236.277H405.435V234.501Z" fill="#D8D5F7"/>
<path d="M405.435 248.1H283.708V249.876H405.435V248.1Z" fill="#D8D5F7"/>
<path d="M405.435 261.697H283.708V263.473H405.435V261.697Z" fill="#D8D5F7"/>
<path d="M405.435 275.306H283.708V277.082H405.435V275.306Z" fill="#D8D5F7"/>
<path d="M405.435 288.903H283.708V290.679H405.435V288.903Z" fill="#D8D5F7"/>
<path d="M475.33 220.511C475.33 220.511 481.654 228.698 473.597 243.597C467.799 237.227 464.869 229.442 475.33 220.511Z" fill="#9595CE"/>
<path d="M493.085 242.535C493.085 242.535 486.544 236.526 473.226 242.349C478.26 247.78 484.698 250.857 493.085 242.535ZM491.208 209.557C491.208 209.557 495.045 217.249 486.09 228.111C482.376 221.967 481.242 215.153 491.208 209.557Z" fill="#9595CE"/>
<path d="M505.145 226.685C505.145 226.685 498.604 221.099 485.925 227.201C490.98 232.271 497.325 235.028 505.145 226.685ZM500.905 200.718C500.905 200.718 504.454 205.436 499.75 213.872C496.49 210.186 494.87 205.725 500.905 200.718Z" fill="#9595CE"/>
<path d="M510.427 212.478C510.427 212.478 506.982 209.731 499.657 213.768C502.824 216.618 506.053 217.682 510.427 212.478ZM461.826 236.163C461.826 236.163 471.152 245.187 463.094 260.086C456.76 256.597 451.829 249.658 461.826 236.163Z" fill="#9595CE"/>
<path d="M483.047 256.277C483.047 256.277 473.855 249.886 462.589 259.209C466.602 263.99 473.308 267.005 483.047 256.277ZM449.631 252.044C449.631 252.044 460.67 258.848 456.007 275.141C449.074 273.097 442.771 267.366 449.631 252.044Z" fill="#9595CE"/>
<path d="M479.746 273.375C479.746 273.375 470.079 264.722 455.811 273.839C459.742 279.91 467.015 284.329 479.746 273.375Z" fill="#9595CE"/>
<path d="M508.674 206.087C507.188 206.603 505.878 207.584 504.65 208.534C502.742 210 500.936 211.6 499.172 213.232C494.695 217.362 490.444 221.739 486.287 226.189C482.542 230.196 478.848 234.274 475.371 238.507C473.752 240.479 472.235 242.524 470.76 244.599C468.036 248.409 465.406 252.301 463.043 256.349C460.701 260.365 458.628 264.547 456.977 268.894C455.244 273.478 454.078 278.248 453.046 283.039C452.788 284.237 452.541 285.434 452.293 286.632C452.015 287.964 454.057 288.532 454.336 287.2C455.337 282.409 456.337 277.598 457.813 272.931C459.205 268.522 461.093 264.299 463.28 260.241C465.457 256.215 467.923 252.353 470.523 248.595C471.833 246.695 473.174 244.816 474.546 242.957C474.66 242.802 474.773 242.647 474.897 242.493C474.959 242.42 475.01 242.338 475.072 242.265C475.103 242.224 475.299 241.976 475.217 242.069C475.124 242.183 475.299 241.956 475.33 241.925C475.392 241.842 475.464 241.749 475.537 241.667C475.691 241.47 475.836 241.285 475.99 241.088C479.22 237.062 482.676 233.21 486.173 229.421C490.3 224.94 494.53 220.552 498.935 216.35C500.771 214.594 502.649 212.87 504.609 211.259C505.465 210.547 505.929 210.186 506.786 209.577C507.394 209.143 508.024 208.72 508.694 208.368C508.828 208.296 508.963 208.245 509.097 208.172C509.251 208.09 508.849 208.255 509.055 208.193C509.117 208.172 509.19 208.141 509.251 208.121C510.52 207.687 509.963 205.632 508.674 206.087Z" fill="#B4BDED"/>
<path d="M456.935 273.096C456.1 272.446 455.491 271.516 454.924 270.639C454.191 269.493 453.531 268.295 452.974 267.066C451.633 264.124 451.168 260.717 451.55 257.505C451.643 256.71 450.395 256.71 450.302 257.505C449.91 260.882 450.446 264.444 451.829 267.552C452.417 268.863 453.108 270.133 453.892 271.341C454.501 272.281 455.171 273.292 456.058 273.984C456.677 274.469 457.575 273.592 456.935 273.096Z" fill="#B4BDED"/>
<path d="M474.505 273.116C471.482 273.808 468.397 274.407 465.302 274.603C462.517 274.779 459.649 274.552 457.183 273.158C456.482 272.765 455.852 273.839 456.554 274.242C459.154 275.708 462.166 276.038 465.106 275.873C468.377 275.687 471.657 275.068 474.845 274.335C475.619 274.149 475.289 272.941 474.505 273.116ZM463.445 257.928C462.321 255.781 462.073 253.189 462.001 250.794C461.918 248.316 462.063 245.807 462.445 243.36C462.568 242.575 461.361 242.234 461.238 243.029C460.835 245.652 460.65 248.326 460.753 250.98C460.846 253.54 461.155 256.256 462.362 258.558C462.744 259.271 463.827 258.641 463.445 257.928Z" fill="#B4BDED"/>
<path d="M480.066 256.566C477.425 257.681 474.536 258.383 471.699 258.776C469.017 259.147 465.519 259.447 463.219 257.702C462.579 257.216 461.96 258.301 462.589 258.786C464.436 260.19 467.025 260.335 469.254 260.252C471.905 260.138 474.546 259.633 477.094 258.91C478.219 258.59 479.323 258.228 480.396 257.774C481.128 257.464 480.808 256.256 480.066 256.566ZM491.301 242.152C488.34 242.865 485.451 243.216 482.418 243.113C479.653 243.02 476.795 242.731 474.154 241.843C473.391 241.584 473.061 242.792 473.824 243.051C476.558 243.98 479.55 244.279 482.418 244.362C485.564 244.465 488.577 244.093 491.641 243.36C492.415 243.164 492.085 241.966 491.301 242.152Z" fill="#B4BDED"/>
<path d="M474.102 223.764C472.596 225.705 472.4 228.596 472.245 230.96C472.049 233.841 472.111 236.763 472.472 239.623C472.606 240.645 472.73 241.708 473.143 242.648C473.463 243.381 474.546 242.751 474.226 242.018C474.288 242.163 474.205 241.956 474.195 241.925C474.175 241.853 474.154 241.791 474.133 241.719C474.082 241.543 474.04 241.368 473.999 241.192C473.896 240.728 473.813 240.253 473.752 239.778C473.586 238.549 473.494 237.31 473.442 236.071C473.329 233.314 473.359 230.485 473.886 227.77C474.082 226.737 474.34 225.498 474.99 224.652C475.464 224.022 474.587 223.134 474.102 223.764ZM501.906 226.562C501.276 226.913 500.43 227.109 499.667 227.295C498.46 227.594 497.222 227.801 495.984 227.935C493.456 228.193 490.465 228.276 488.226 226.882C487.545 226.458 486.916 227.532 487.596 227.966C490.021 229.484 493.24 229.463 495.984 229.184C497.335 229.05 498.677 228.823 499.997 228.503C500.853 228.296 501.761 228.069 502.535 227.635C503.237 227.253 502.607 226.18 501.906 226.562Z" fill="#B4BDED"/>
<path d="M489.454 212.406C488.504 214.202 487.824 216.216 487.246 218.147C486.462 220.79 485.657 224.022 486.637 226.716C486.905 227.47 488.112 227.14 487.844 226.386C486.926 223.856 487.751 220.81 488.494 218.343C489.031 216.557 489.65 214.698 490.527 213.036C490.908 212.323 489.835 211.693 489.454 212.406ZM507.518 212.499C506.404 213.222 505.094 213.428 503.794 213.521C502.68 213.593 501.297 213.697 500.42 212.881C499.832 212.334 498.945 213.211 499.533 213.769C500.657 214.812 502.215 214.874 503.66 214.781C505.217 214.688 506.817 214.45 508.147 213.583C508.818 213.139 508.189 212.055 507.518 212.499Z" fill="#B4BDED"/>
<path d="M499.77 202.772C499.461 203.588 499.368 204.476 499.265 205.333C499.12 206.51 499.038 207.697 498.986 208.885C498.945 210.02 498.935 211.166 499.028 212.302C499.09 213.046 499.131 213.923 499.533 214.574C499.956 215.255 501.029 214.636 500.616 213.944C500.534 213.799 500.462 213.552 500.4 213.262C500.328 212.87 500.286 212.478 500.266 212.085C500.193 210.981 500.204 209.855 500.245 208.75C500.286 207.625 500.369 206.5 500.503 205.384C500.596 204.62 500.699 203.825 500.978 203.092C501.256 202.349 500.049 202.029 499.77 202.772Z" fill="#B4BDED"/>
<path d="M463.714 313.911C475.351 306.384 486.307 317.205 491.662 312.084C496.18 307.52 494.076 298.166 497.212 296.204C500.152 293.871 507.776 296.916 511.975 292.188C515.699 287.996 508.096 280.149 511.676 277.01C515.472 273.685 520.951 266.716 518.619 263.629C516.019 260.201 506.683 264.64 503.887 265.26C498.873 266.375 492.91 259.932 485.956 262.999C481.696 264.878 485.606 271.517 481.582 275.327C477.053 279.622 471.688 271.207 462.847 278.125C449.642 288.45 464.787 300.127 460.794 311.072C459.505 314.603 462.95 314.252 463.714 313.911Z" fill="#C4C3FC"/>
<path d="M512.893 267.304L496.799 278.599C492.642 281.521 488.34 284.35 484.626 287.84C478.828 293.271 473.556 299.291 468.274 305.207C465.818 307.953 463.384 310.72 460.959 313.488C460.454 314.066 461.3 314.912 461.805 314.334C466.685 308.759 471.606 303.204 476.641 297.763C479.22 294.975 481.819 292.208 484.553 289.565C487.886 286.333 491.672 283.659 495.458 281.005C501.473 276.782 507.477 272.57 513.492 268.347C514.121 267.892 513.523 266.86 512.893 267.304Z" fill="white"/>
<path d="M507.952 272.115C508.767 272.084 509.582 272.115 510.386 272.249C511.088 272.363 511.831 272.487 512.408 272.931C512.666 273.127 513.079 272.972 513.223 272.714C513.399 272.404 513.265 272.094 513.007 271.898C512.346 271.402 511.5 271.227 510.696 271.103C509.788 270.958 508.87 270.897 507.952 270.928C507.632 270.938 507.353 271.196 507.353 271.526C507.353 271.826 507.632 272.125 507.952 272.115ZM490.454 284.402C496.036 284.319 501.514 286.787 505.094 291.072C505.589 291.66 506.425 290.813 505.94 290.225C502.164 285.703 496.314 283.121 490.454 283.204C489.681 283.214 489.681 284.412 490.454 284.402ZM500.802 277.174C501.235 276.813 501.421 276.162 501.576 275.636C501.792 274.861 501.927 274.056 502.05 273.261C502.174 272.456 502.277 271.65 502.401 270.845C502.484 270.329 502.535 269.75 502.731 269.265C502.855 268.966 502.597 268.604 502.319 268.532C501.978 268.439 501.71 268.646 501.586 268.945C501.4 269.399 501.339 269.936 501.266 270.422C501.142 271.206 501.039 271.991 500.926 272.776C500.812 273.55 500.678 274.324 500.493 275.078C500.42 275.347 500.317 275.729 500.235 275.925C500.224 275.945 500.131 276.121 500.09 276.204C500.07 276.235 499.966 276.369 500.07 276.235C500.039 276.276 499.997 276.307 499.966 276.338C499.368 276.823 500.224 277.67 500.802 277.174ZM472.369 302.243C472.442 302.212 472.524 302.202 472.596 302.192C472.73 302.161 472.638 302.181 472.638 302.181C472.71 302.171 472.792 302.161 472.865 302.161C473.246 302.13 473.638 302.119 474.02 302.109C475.165 302.099 476.321 302.171 477.466 302.295C480.334 302.615 483.305 303.276 485.822 304.721C487.174 305.496 488.371 306.528 489.134 307.912C489.505 308.583 490.537 307.984 490.166 307.313C488.67 304.597 485.729 303.08 482.872 302.181C480.169 301.335 477.28 300.942 474.453 300.911C473.71 300.901 472.772 300.829 472.05 301.087C471.338 301.355 471.647 302.501 472.369 302.243ZM466.592 281.304C466.963 281.707 467.407 282.058 467.809 282.43C468.573 283.132 469.326 283.844 470.038 284.598C471.988 286.642 473.731 288.955 474.845 291.567C475.537 293.188 475.939 294.912 475.97 296.678C475.98 297.442 477.177 297.442 477.167 296.678C477.074 290.772 473.174 285.765 469.027 281.934C468.501 281.449 467.913 281.005 467.438 280.468C466.922 279.89 466.076 280.736 466.592 281.304ZM480.54 280.189C482.077 283.008 483.295 286.136 482.923 289.409C482.841 290.173 484.027 290.163 484.12 289.409C484.522 285.94 483.212 282.574 481.572 279.59C481.2 278.909 480.169 279.518 480.54 280.189ZM461.991 292.404C463.992 294.004 465.313 296.451 466.293 298.764C467.159 300.808 468.057 303.276 467.799 305.537C467.717 306.301 468.903 306.291 468.996 305.537C469.264 303.121 468.305 300.488 467.386 298.309C466.344 295.852 464.952 293.26 462.837 291.567C462.238 291.082 461.392 291.918 461.991 292.404ZM489.258 265.641C490.248 270.958 492.084 276.059 493.818 281.17C494.065 281.893 495.21 281.583 494.963 280.85C493.23 275.739 491.404 270.638 490.403 265.321C490.269 264.578 489.124 264.898 489.258 265.641ZM481.118 292.837C483.264 292.641 485.482 292.93 487.576 293.374C489.846 293.859 492.353 294.582 494.086 296.203C494.643 296.73 495.489 295.883 494.932 295.356C493.085 293.622 490.485 292.786 488.061 292.249C485.822 291.753 483.418 291.423 481.128 291.639C480.365 291.712 480.354 292.909 481.118 292.837Z" fill="white"/>
<path d="M501.163 287.128C501.534 286.87 502.112 286.952 502.545 286.931C503.113 286.911 503.67 286.88 504.237 286.849C505.382 286.787 506.528 286.704 507.673 286.601C507.993 286.57 508.271 286.343 508.271 286.002C508.271 285.703 507.993 285.372 507.673 285.403C506.435 285.507 505.207 285.6 503.969 285.662C503.36 285.692 502.752 285.723 502.143 285.744C501.596 285.765 501.029 285.765 500.565 286.085C500.296 286.271 500.183 286.611 500.348 286.901C500.492 287.179 500.895 287.314 501.163 287.128Z" fill="white"/>
<path d="M429.39 257.195C430.618 256.214 431.949 255.461 433.352 254.924L431.959 250.381C430.009 251.093 428.142 252.115 426.429 253.478C422.168 256.886 419.723 261.728 419.218 266.756L423.912 267.417C424.252 263.556 426.109 259.818 429.39 257.195Z" fill="#F76D1A"/>
<path d="M457.596 273.013L452.933 272.156C452.2 275.233 450.467 278.103 447.805 280.241C441.45 285.331 432.165 284.298 427.079 277.938C424.614 274.851 423.592 271.082 423.912 267.427L419.218 266.767C418.723 271.661 420.074 276.751 423.386 280.891C430.112 289.306 442.369 290.669 450.777 283.937C454.357 281.067 456.667 277.185 457.596 273.013Z" fill="#6E66C9"/>
<path d="M452.933 272.157L457.596 273.014C458.854 267.428 457.658 261.357 453.81 256.535L450.106 259.498C453.067 263.195 453.954 267.882 452.933 272.157Z" fill="#F8A17A"/>
<path d="M450.116 259.498L453.82 256.535C448.466 249.834 439.593 247.614 431.959 250.381L433.352 254.924C439.17 252.704 446.01 254.367 450.116 259.498Z" fill="#EFA935"/>
<path d="M431.381 270.091C432.866 268.904 434.476 267.995 436.168 267.355L434.486 261.862C432.134 262.719 429.875 263.958 427.811 265.61C422.663 269.73 419.702 275.574 419.094 281.666L424.778 282.461C425.181 277.783 427.43 273.261 431.381 270.091Z" fill="#F76D1A"/>
<path d="M465.488 289.223L459.845 288.191C458.957 291.918 456.874 295.387 453.644 297.958C445.958 304.112 434.744 302.863 428.595 295.171C425.614 291.443 424.376 286.88 424.768 282.471L419.084 281.676C418.485 287.592 420.115 293.735 424.118 298.753C432.248 308.923 447.062 310.565 457.224 302.439C461.568 298.96 464.353 294.252 465.488 289.223Z" fill="#6E66C9"/>
<path d="M459.845 288.181L465.488 289.214C467.005 282.472 465.56 275.12 460.918 269.297L456.44 272.88C460.01 277.361 461.083 283.019 459.845 288.181Z" fill="#F8A17A"/>
<path d="M456.44 272.89L460.918 269.307C454.449 261.212 443.72 258.517 434.497 261.873L436.178 267.366C443.214 264.671 451.478 266.674 456.44 272.89Z" fill="#EFA935"/>
<path d="M475.547 277.649H406.91V296.09H475.547V277.649Z" fill="#C4C3FC"/>
<path d="M475.547 277.649H406.91V296.09H475.547V277.649Z" stroke="#5751BB" stroke-width="6.447" stroke-miterlimit="10"/>
<path d="M428.984 217.89L424.866 222.404L475.56 268.729L479.678 264.215L428.984 217.89Z" fill="#C4C3FC"/>
<path d="M428.984 217.89L424.866 222.404L475.56 268.729L479.678 264.215L428.984 217.89Z" stroke="#5751BB" stroke-width="3.711" stroke-miterlimit="10"/>
<path d="M475.547 319.104H406.91V337.545H475.547V319.104Z" fill="#C4C3FC"/>
<path d="M475.547 319.104H406.91V337.545H475.547V319.104Z" stroke="#5751BB" stroke-width="6.447" stroke-miterlimit="10"/>
<path d="M417.505 296.09H406.91V319.115H417.505V296.09Z" fill="#C4C3FC"/>
<path d="M417.505 296.09H406.91V319.115H417.505V296.09Z" stroke="#5751BB" stroke-width="5.538" stroke-miterlimit="10"/>
<path d="M432.021 296.09H421.426V319.115H432.021V296.09Z" fill="#C4C3FC"/>
<path d="M432.021 296.09H421.426V319.115H432.021V296.09Z" stroke="#5751BB" stroke-width="5.538" stroke-miterlimit="10"/>
<path d="M446.536 296.09H435.941V319.115H446.536V296.09Z" fill="#C4C3FC"/>
<path d="M446.536 296.09H435.941V319.115H446.536V296.09Z" stroke="#5751BB" stroke-width="5.538" stroke-miterlimit="10"/>
<path d="M461.041 296.09H450.446V319.115H461.041V296.09Z" fill="#C4C3FC"/>
<path d="M461.041 296.09H450.446V319.115H461.041V296.09Z" stroke="#5751BB" stroke-width="5.538" stroke-miterlimit="10"/>
<path d="M475.557 296.09H464.962V319.115H475.557V296.09Z" fill="#C4C3FC"/>
<path d="M475.557 296.09H464.962V319.115H475.557V296.09Z" stroke="#5751BB" stroke-width="5.538" stroke-miterlimit="10"/>
<path d="M476.795 273.013C476.795 275.522 478.827 277.546 481.324 277.546C483.821 277.546 485.853 275.512 485.853 273.013C485.853 270.504 483.821 268.48 481.324 268.48C478.827 268.48 476.795 270.504 476.795 273.013Z" fill="#C4C3FC"/>
<path d="M476.795 273.013C476.795 275.522 478.827 277.546 481.324 277.546C483.821 277.546 485.853 275.512 485.853 273.013C485.853 270.504 483.821 268.48 481.324 268.48C478.827 268.48 476.795 270.504 476.795 273.013Z" stroke="#5751BB" stroke-width="3.278" stroke-miterlimit="10"/>
<path d="M424.005 344.649C424.005 347.302 421.859 349.45 419.207 349.45C416.556 349.45 414.41 347.302 414.41 344.649C414.41 341.995 416.556 339.848 419.207 339.848C421.859 339.848 424.005 341.995 424.005 344.649ZM467.19 344.649C467.19 347.302 465.044 349.45 462.393 349.45C459.742 349.45 457.596 347.302 457.596 344.649C457.596 341.995 459.742 339.848 462.393 339.848C465.044 339.848 467.19 341.995 467.19 344.649Z" fill="#6E66C9"/>
<path d="M237.16 266.653L228.091 272.838H234.508V289.585H239.821V272.838H246.238L237.16 266.653Z" fill="#F76D1A"/>
<path d="M262.425 219.757L253.347 225.942H259.764V242.689H265.077V225.942H271.494L262.425 219.757Z" fill="#F76D1A"/>
<path d="M313.668 167.688L304.6 173.873H311.017V190.61H316.33V173.873H322.747L313.668 167.688Z" fill="#F76D1A"/>
<path d="M288 245.002L297.079 238.817H290.662V222.08H285.349V238.817H278.932L288 245.002Z" fill="#00A09D"/>
<path d="M365.097 252.002L356.018 258.187H362.435V274.923H367.748V258.187H374.165L365.097 252.002Z" fill="#F76D1A"/>
<path d="M192.819 296.214H178.262V353.972H192.819V296.214Z" fill="#5851BC"/>
<path d="M192.819 296.214H178.262V353.972H192.819V296.214Z" stroke="white" stroke-width="1.549" stroke-miterlimit="10"/>
<path d="M218.445 278.124H203.888V353.971H218.445V278.124Z" fill="#5851BC"/>
<path d="M218.445 278.124H203.888V353.971H218.445V278.124Z" stroke="white" stroke-width="1.549" stroke-miterlimit="10"/>
<path d="M244.072 296.214H229.515V353.972H244.072V296.214Z" fill="#5851BC"/>
<path d="M244.072 296.214H229.515V353.972H244.072V296.214Z" stroke="white" stroke-width="1.549" stroke-miterlimit="10"/>
<path d="M269.698 246.943H255.142V353.962H269.698V246.943Z" fill="#5851BC"/>
<path d="M269.698 246.943H255.142V353.962H269.698V246.943Z" stroke="white" stroke-width="1.549" stroke-miterlimit="10"/>
<path d="M295.325 251.248H280.768V353.971H295.325V251.248Z" fill="#5851BC"/>
<path d="M295.325 251.248H280.768V353.971H295.325V251.248Z" stroke="white" stroke-width="1.549" stroke-miterlimit="10"/>
<path d="M320.951 194.936H306.395V353.972H320.951V194.936Z" fill="#5851BC"/>
<path d="M320.951 194.936H306.395V353.972H320.951V194.936Z" stroke="white" stroke-width="1.549" stroke-miterlimit="10"/>
<path d="M372.37 277.825H357.813V353.972H372.37V277.825Z" fill="#5851BC"/>
<path d="M372.37 277.825H357.813V353.972H372.37V277.825Z" stroke="white" stroke-width="1.549" stroke-miterlimit="10"/>
<path d="M346.743 236.07H332.187V353.961H346.743V236.07Z" fill="#5851BC"/>
<path d="M346.743 236.07H332.187V353.961H346.743V236.07Z" stroke="white" stroke-width="1.549" stroke-miterlimit="10"/>
<path d="M265.634 183.31L288 150.807L310.408 128.154L341.647 210.032L368.831 154.339L390.723 187.11L432.826 167.998" stroke="#6E66C9" stroke-width="7.332" stroke-miterlimit="10"/>
<path d="M286.618 143.93C282.667 144.725 280.077 148.452 280.841 152.252C281.604 156.052 285.431 158.488 289.393 157.683C293.344 156.888 295.934 153.161 295.17 149.361C294.397 145.561 290.579 143.135 286.618 143.93ZM288.454 153.026C287.175 153.285 285.947 152.5 285.7 151.271C285.452 150.043 286.288 148.845 287.567 148.587C288.846 148.329 290.074 149.113 290.322 150.342C290.559 151.571 289.723 152.768 288.454 153.026Z" fill="#6E66C9"/>
<path d="M287.556 148.597C286.277 148.855 285.452 150.053 285.689 151.281C285.937 152.51 287.175 153.295 288.444 153.037C289.723 152.779 290.548 151.581 290.311 150.352C290.063 149.124 288.836 148.339 287.556 148.597Z" fill="#E6E7E8"/>
<path d="M306.333 105.769C294.675 108.123 287.061 119.098 289.31 130.291C291.57 141.483 302.835 148.649 314.493 146.305C326.151 143.951 333.765 132.975 331.516 121.783C329.256 110.58 317.98 103.415 306.333 105.769ZM311.79 132.851C307.87 133.646 304.073 131.23 303.32 127.462C302.557 123.693 305.126 119.997 309.046 119.212C312.966 118.417 316.763 120.833 317.526 124.602C318.269 128.36 315.711 132.056 311.79 132.851Z" fill="#5851BC"/>
<path d="M309.036 119.213C305.116 120.008 302.547 123.694 303.31 127.463C304.074 131.231 307.86 133.637 311.78 132.852C315.7 132.057 318.269 128.371 317.506 124.603C316.753 120.834 312.956 118.418 309.036 119.213Z" fill="#E6E7E8"/>
<path d="M367.253 145.552C362.93 146.43 360.093 150.498 360.939 154.659C361.774 158.809 365.963 161.473 370.286 160.606C374.608 159.728 377.445 155.66 376.599 151.499C375.764 147.338 371.586 144.685 367.253 145.552ZM369.491 156.662C367.428 157.075 365.437 155.815 365.045 153.833C364.642 151.85 365.994 149.909 368.057 149.496C370.121 149.083 372.112 150.343 372.504 152.325C372.896 154.308 371.555 156.249 369.491 156.662Z" fill="#6E66C9"/>
<path d="M368.047 149.495C365.984 149.908 364.643 151.849 365.035 153.832C365.437 155.814 367.428 157.074 369.481 156.661C371.545 156.248 372.886 154.307 372.494 152.324C372.102 150.342 370.111 149.082 368.047 149.495Z" fill="#E6E7E8"/>
<path d="M388.36 175.38C381.624 176.743 377.219 183.093 378.518 189.567C379.818 196.04 386.338 200.191 393.086 198.828C399.822 197.465 404.228 191.115 402.928 184.642C401.617 178.168 395.097 174.027 388.36 175.38ZM391.848 192.685C388.639 193.335 385.534 191.363 384.915 188.276C384.296 185.199 386.39 182.174 389.598 181.523C392.807 180.873 395.912 182.845 396.531 185.932C397.15 189.019 395.056 192.034 391.848 192.685Z" fill="#6E66C9"/>
<path d="M389.599 181.524C386.39 182.174 384.296 185.189 384.915 188.276C385.534 191.353 388.639 193.336 391.848 192.685C395.056 192.035 397.151 189.02 396.532 185.933C395.913 182.856 392.807 180.884 389.599 181.524Z" fill="#E6E7E8"/>
<path d="M431.949 163.662C429.462 164.168 427.832 166.511 428.307 168.907C428.792 171.302 431.195 172.83 433.692 172.335C436.178 171.829 437.808 169.485 437.334 167.09C436.849 164.694 434.435 163.166 431.949 163.662ZM433.238 170.063C432.052 170.301 430.907 169.568 430.68 168.432C430.453 167.296 431.226 166.171 432.413 165.933C433.599 165.696 434.744 166.429 434.971 167.564C435.198 168.711 434.425 169.826 433.238 170.063Z" fill="#6E66C9"/>
<path d="M432.403 165.933C431.216 166.171 430.442 167.286 430.669 168.432C430.896 169.568 432.052 170.301 433.228 170.063C434.414 169.826 435.188 168.711 434.961 167.565C434.744 166.429 433.589 165.696 432.403 165.933Z" fill="#E6E7E8"/>
<path d="M263.096 170.734C255.864 172.19 251.139 179.004 252.532 185.953C253.935 192.902 260.929 197.352 268.161 195.886C275.393 194.43 280.118 187.615 278.726 180.667C277.322 173.728 270.328 169.278 263.096 170.734ZM267.191 191.054C262.735 191.952 258.433 189.216 257.566 184.941C256.71 180.667 259.619 176.475 264.066 175.576C268.522 174.678 272.824 177.414 273.691 181.689C274.547 185.963 271.638 190.155 267.191 191.054Z" fill="#7A79CC"/>
<path d="M264.065 175.577C259.609 176.475 256.699 180.667 257.566 184.942C258.422 189.216 262.734 191.952 267.191 191.054C271.638 190.156 274.557 185.964 273.691 181.689C272.824 177.415 268.522 174.679 264.065 175.577Z" fill="white"/>
<path d="M342.256 218.167C346.929 217.227 349.993 212.819 349.085 208.317C348.177 203.825 343.659 200.945 338.975 201.895C334.291 202.834 331.238 207.243 332.145 211.734C333.053 216.236 337.582 219.117 342.256 218.167ZM338.356 198.766C344.835 197.455 351.097 201.44 352.345 207.656C353.594 213.882 349.364 219.974 342.895 221.285C336.416 222.596 330.154 218.611 328.896 212.385C327.647 206.18 331.877 200.077 338.356 198.766Z" fill="#D8D5F7"/>
<path d="M341.616 214.987C344.463 214.409 346.33 211.724 345.773 208.988C345.227 206.252 342.462 204.497 339.614 205.075C336.757 205.653 334.9 208.338 335.446 211.074C336.014 213.81 338.768 215.565 341.616 214.987ZM338.985 201.895C343.658 200.955 348.187 203.826 349.095 208.317C350.003 212.819 346.939 217.217 342.266 218.167C337.582 219.107 333.063 216.236 332.155 211.735C331.247 207.243 334.301 202.845 338.985 201.895Z" fill="#5851BC"/>
<path d="M339.624 205.075C342.472 204.497 345.226 206.252 345.784 208.988C346.33 211.724 344.473 214.409 341.626 214.987C338.779 215.565 336.014 213.81 335.467 211.074C334.91 208.338 336.767 205.653 339.624 205.075Z" fill="#6E66C9"/>
<path d="M342.885 221.296C349.364 219.985 353.594 213.893 352.335 207.667C351.087 201.451 344.824 197.466 338.346 198.777C331.867 200.088 327.637 206.18 328.885 212.406C330.144 218.622 336.406 222.597 342.885 221.296ZM337.809 196.062C345.836 194.441 353.604 199.386 355.162 207.089C356.72 214.801 351.468 222.37 343.442 223.991C335.405 225.612 327.637 220.666 326.089 212.953C324.521 205.251 329.772 197.683 337.809 196.062Z" fill="#5851BC"/>
<path d="M180.624 213.108C180.624 213.108 182.781 222.442 178.468 223.154C174.166 223.877 175.6 228.183 175.6 228.183L166.274 228.905C166.274 228.905 168.43 226.035 168.43 224.6C168.43 223.165 166.274 220.356 166.274 215.989C166.274 209.525 168.43 208.09 170.576 207.378C172.742 206.655 179.19 205.932 180.624 213.108ZM193.871 251.073C193.871 251.073 194.965 253.613 189.012 254.449C183.049 255.275 186.041 253.324 186.041 253.324L187.32 253.004C187.32 253.004 186.845 252.095 188.589 249.999C190.332 247.903 193.871 251.073 193.871 251.073Z" fill="#F8A17A"/>
<path d="M189.167 254.718C189.167 254.718 170.339 260.82 168.11 260.417C164.273 259.963 160.662 253.097 159.166 249.834C157.67 246.572 154.183 237.64 156.029 234.398C157.876 231.156 162.684 231.322 165.098 235.906C167.512 240.49 169.647 253.087 170.906 253.768C172.165 254.45 186.02 253.004 186.99 252.715C187.96 252.426 189.167 254.718 189.167 254.718Z" fill="#6691DD"/>
<path d="M207.695 365.299C207.695 367.632 192.478 369.511 173.712 369.511C154.946 369.511 139.729 367.622 139.729 365.299C139.729 362.975 154.946 361.086 173.712 361.086C192.478 361.086 207.695 362.975 207.695 365.299Z" fill="#B4BDED"/>
<path d="M199.999 362.428C199.999 362.428 200.102 362.49 200.278 362.593C201.258 363.223 204.291 365.402 199.999 366.011C194.975 366.734 190.673 366.011 187.083 366.011C183.492 366.011 183.492 366.011 184.215 363.141C184.937 360.27 185.649 356.677 185.649 355.242C185.649 353.807 189.239 353.807 189.239 353.807C189.239 353.807 189.239 358.835 190.673 359.547C192.107 360.281 197.843 360.993 199.999 362.428ZM160.548 365.298C160.548 365.298 164.85 365.298 163.416 363.141C161.982 360.983 159.114 360.983 156.958 360.27C154.802 359.547 152.656 357.4 152.656 355.242C152.656 353.084 150.5 353.807 150.5 353.807C150.5 353.807 150.5 358.112 149.066 360.27C147.632 362.428 146.909 365.298 148.343 365.298H160.548Z" fill="#DDA905"/>
<path d="M190.673 355.965L184.936 357.4C184.936 357.4 178.478 337.297 177.766 318.64C177.044 309.306 169.874 293.519 169.874 293.519C169.874 293.519 162.704 315.057 161.982 319.363C161.26 323.668 154.812 353.817 154.812 355.252C154.812 356.687 150.51 357.41 149.076 355.252C147.642 342.336 149.798 330.844 151.232 324.38C152.666 317.917 155.534 303.565 154.822 296.379C154.1 289.203 154.1 280.582 156.978 276.999C162.714 279.157 183.513 276.999 183.513 276.999C183.513 276.999 187.103 286.333 187.815 295.667C188.516 305 190.673 355.965 190.673 355.965Z" fill="#0B2D4E"/>
<path d="M185.649 277.722C185.649 277.722 170.586 285.62 154.802 277.722C156.958 265.517 156.958 249.72 156.236 247.572C156.236 247.572 152.646 236.091 154.802 233.933C156.958 231.775 165.562 227.47 166.274 227.47C166.996 227.47 173.444 228.905 177.034 227.47C182.058 231.063 185.638 235.368 184.926 241.832C184.204 248.295 183.492 262.647 184.204 266.953C184.937 271.258 185.649 277.722 185.649 277.722Z" fill="#6691DD"/>
<path d="M182.419 209.886C182.781 213.118 179.913 214.553 179.913 217.423C179.913 220.294 177.044 218.859 177.756 215.988C178.478 213.118 175.961 213.479 175.249 215.627C174.094 219.096 174.888 224.599 167.357 221.368C161.92 219.034 164.489 212.757 165.201 210.599C165.923 208.441 165.923 206.293 170.937 204.858C178.148 202.803 182.069 206.654 182.419 209.886Z" fill="#0B2D4E"/>
<path d="M158.155 250.97C157.969 250.546 157.298 249.648 156.844 249.71C156.731 249.72 156.638 249.741 156.535 249.762C156.896 254.976 156.597 267.583 154.802 277.722C157.061 278.858 159.31 279.653 161.497 280.2C160.981 260.531 160.878 257.072 158.155 250.97Z" fill="#B4BDED"/>
<path d="M184.318 239.747C181.573 239.84 182.017 241.161 182.13 241.543C182.739 243.629 182.048 248.895 182.533 251.011C182.925 252.725 183.245 254.501 184.018 256.07C184.184 250.887 184.565 245.24 184.947 241.822C185.029 241.099 185.05 240.407 185.019 239.736C184.772 239.736 184.545 239.736 184.318 239.747Z" fill="#8896D8"/>
<path d="M231.661 235.399C231.661 235.399 235.808 237.846 228.865 241.667C221.313 245.828 223.139 240.882 223.139 240.882L225.151 240.614C225.151 240.614 224.914 239.664 227.328 237.01C229.123 235.048 231.661 235.399 231.661 235.399Z" fill="#F8A17A"/>
<path d="M224.068 240.262L224.026 243.855C224.026 243.855 206.994 249.999 203.507 248.915C197.337 247.004 196.048 247.263 192.334 246.209C188.62 245.167 172.361 243.009 171.969 239.983C171.577 236.969 170.297 235.079 174.187 233.551C178.076 232.013 181.769 228.967 189.032 233.644C196.295 238.321 204.249 241.625 210.037 241.625C216.65 241.625 224.068 240.262 224.068 240.262Z" fill="#6691DD"/>
<path d="M427.626 364.628C427.626 366.94 416.226 368.819 402.164 368.819C388.103 368.819 376.703 366.94 376.703 364.628C376.703 362.315 388.103 360.436 402.164 360.436C416.226 360.436 427.626 362.315 427.626 364.628Z" fill="#B4BDED"/>
<path d="M406.786 313.302L407.684 320.343C407.643 319.982 411.501 330.059 410.923 336.76C410.346 343.461 407.127 360.177 406.797 360.755C406.466 361.334 404.671 363.347 404.671 363.347C404.671 363.347 404.166 352.175 404.713 346.424C405.259 340.673 403.516 326.652 402.319 322.687C401.133 318.722 401.556 308.831 401.556 308.831L406.786 313.302Z" fill="#EB965C"/>
<path d="M407.766 355.831C407.766 355.831 408.942 355.707 409.355 357.72C409.768 359.733 408.313 365.381 408.313 365.381H407.436L407.766 362.026C407.766 362.026 406.549 365.794 403.96 365.67C401.36 365.546 401.865 365.743 401.112 365.464C400.369 365.185 399.843 364.431 400.607 363.564C401.37 362.697 402.794 362.47 403.475 362.49C404.156 362.511 406.508 360.002 406.879 358.98C407.261 357.958 407.766 355.831 407.766 355.831Z" fill="#212121"/>
<path d="M403.609 312.351C403.609 312.351 403.691 316.285 404.197 318.887C404.702 321.489 405.785 330.534 401.432 346.032C398.925 354.663 399.843 357.43 399.843 357.43C399.843 357.43 399.255 362.066 397.078 363.347L394.901 364.627C394.901 364.627 397.078 348.871 397.078 343.595C397.078 338.319 397.161 319.713 396.831 313.353C396.49 306.982 403.609 312.351 403.609 312.351Z" fill="#FEB373"/>
<path d="M399.606 355.831C399.606 355.831 400.782 355.707 401.195 357.72C401.607 359.733 400.153 365.381 400.153 365.381H399.276L399.606 362.026C399.606 362.026 398.388 365.794 395.799 365.67C393.199 365.546 393.705 365.743 392.952 365.464C392.209 365.185 391.683 364.431 392.446 363.564C393.209 362.697 394.633 362.47 395.314 362.49C395.995 362.511 398.347 360.002 398.719 358.98C399.09 357.958 399.606 355.831 399.606 355.831Z" fill="#212121"/>
<path d="M410.696 314.634C410.696 314.634 418.96 284.248 415.38 274.759C407.116 274.428 387.659 266.385 388.072 277.33C388.485 288.274 390.269 311.516 393.168 313.519C396.067 315.532 408.344 317.546 410.696 314.634Z" fill="#32324A"/>
<path d="M415.937 238.9C415.937 238.9 416.607 266.871 412.367 271.6C405.115 274.429 408.457 272.859 408.457 272.859C408.457 272.859 411.913 255.431 409.014 247.842C406.115 240.242 406.673 233.428 415.937 238.9Z" fill="#6E66C9"/>
<path d="M411.872 215.669C413.141 212.623 411.553 204.879 403.949 205.457C392.735 205.241 392.013 211.033 393.457 214.44C394.902 217.847 392.9 220.883 392.9 220.883C392.9 220.883 392.436 221.967 393.529 222.545C394.613 223.124 396.212 230.372 399.1 227.615C401.999 224.858 402.722 232.612 402.722 232.612L408.004 230.661C408.004 230.661 407.282 224.073 408.22 221.823C409.17 219.572 410.604 218.704 411.872 215.669Z" fill="#F8A17A"/>
<path d="M409.757 230.681L408.127 232.633L400.596 233.015H399.678C399.678 233.015 398.368 229.938 399.09 229.287C400.348 228.152 406.435 227.625 409.767 230.506" fill="#C4C3FC"/>
<path d="M409.128 231.528C409.128 231.528 419.393 234.315 415.597 242.028C411.8 249.741 405.218 255.544 409.902 261.573C414.586 267.603 416.164 268.615 416.432 274.862C412.244 279.776 394.716 279.332 389.918 274.862C385.121 270.391 390.919 268.491 392.487 265.363C394.045 262.234 395.613 258.218 394.716 256.318C393.818 254.418 384.667 245.373 392.487 235.203C396.067 230.185 405.641 229.979 409.128 231.528Z" fill="#5751BB"/>
<path d="M374.371 247.005L372.865 247.903C372.865 247.903 372.555 246.2 371.586 245.869C370.605 245.539 366.004 246.231 364.89 245.869C363.776 245.508 361.372 244 361.372 244C361.372 244 362.486 242.803 366.644 243.474C370.801 244.145 372.339 243.474 373.68 245.787C375.011 248.099 374.371 247.005 374.371 247.005Z" fill="#FBCAA3"/>
<path d="M394.396 234.037C394.396 234.037 398.584 234.646 396.624 243.867C394.674 253.087 387.215 265.312 383.481 264.578C379.746 263.856 372.04 248.399 371.709 246.045C373.494 244.93 373.938 245.322 373.938 245.322C373.938 245.322 381.748 252.013 383.646 254.522C385.544 257.052 387.422 236.391 394.396 234.037Z" fill="#6E66C9"/>
<path d="M419.857 233.623C419.857 233.623 403.743 239.343 402.536 237C401.329 234.656 406.157 222.204 402.969 215.348C399.781 208.492 394.54 212.168 391.631 211.456C388.722 210.743 394.19 201.915 404.898 203.898C415.607 205.88 412.78 216.597 412.842 218.043C412.904 219.488 419.373 230.402 419.847 231.61C420.342 232.828 419.857 233.623 419.857 233.623Z" fill="#212121"/>
</svg>
