<svg width="35" height="35" viewBox="0 0 35 35" fill="none" xmlns="http://www.w3.org/2000/svg">
<path d="M8.75016 21.1463C8.75016 21.5331 8.59652 21.904 8.32303 22.1775C8.04954 22.451 7.6786 22.6047 7.29183 22.6047C6.90506 22.6047 6.53412 22.451 6.26063 22.1775C5.98714 21.904 5.8335 21.5331 5.8335 21.1463V14.5838C5.8335 14.197 5.98714 13.8261 6.26063 13.5526C6.53412 13.2791 6.90506 13.1255 7.29183 13.1255C7.6786 13.1255 8.04954 13.2791 8.32303 13.5526C8.59652 13.8261 8.75016 14.197 8.75016 14.5838V21.1463ZM29.1668 21.1463C29.1668 21.5331 29.0132 21.904 28.7397 22.1775C28.4662 22.451 28.0953 22.6047 27.7085 22.6047C27.3217 22.6047 26.9508 22.451 26.6773 22.1775C26.4038 21.904 26.2502 21.5331 26.2502 21.1463V14.5838C26.2502 14.197 26.4038 13.8261 26.6773 13.5526C26.9508 13.2791 27.3217 13.1255 27.7085 13.1255C28.0953 13.1255 28.4662 13.2791 28.7397 13.5526C29.0132 13.8261 29.1668 14.197 29.1668 14.5838V21.1463ZM16.0418 29.1664C16.0418 29.5532 15.8882 29.9241 15.6147 30.1976C15.3412 30.4711 14.9703 30.6248 14.5835 30.6248C14.1967 30.6248 13.8258 30.4711 13.5523 30.1976C13.2788 29.9241 13.1252 29.5532 13.1252 29.1664V22.6039C13.1252 22.2172 13.2788 21.8462 13.5523 21.5727C13.8258 21.2992 14.1967 21.1456 14.5835 21.1456C14.9703 21.1456 15.3412 21.2992 15.6147 21.5727C15.8882 21.8462 16.0418 22.2172 16.0418 22.6039V29.1664ZM21.8752 29.1664C21.8752 29.5532 21.7215 29.9241 21.448 30.1976C21.1745 30.4711 20.8036 30.6248 20.4168 30.6248C20.0301 30.6248 19.6591 30.4711 19.3856 30.1976C19.1121 29.9241 18.9585 29.5532 18.9585 29.1664V22.6039C18.9585 22.2172 19.1121 21.8462 19.3856 21.5727C19.6591 21.2992 20.0301 21.1456 20.4168 21.1456C20.8036 21.1456 21.1745 21.2992 21.448 21.5727C21.7215 21.8462 21.8752 22.2172 21.8752 22.6039V29.1664Z" fill="#7CB342"/>
<path d="M10.2085 13.1259V24.0627C10.2085 24.4494 10.3621 24.8204 10.6356 25.0939C10.9091 25.3674 11.2801 25.521 11.6668 25.521H23.3335C23.7203 25.521 24.0912 25.3674 24.3647 25.0939C24.6382 24.8204 24.7918 24.4494 24.7918 24.0627V13.1259H10.2085ZM17.5002 5.8335C13.1252 5.8335 10.4601 8.49131 10.2085 11.6668H24.7918C24.5395 8.49131 21.8752 5.8335 17.5002 5.8335ZM14.5835 9.91537C14.3901 9.91537 14.2046 9.83855 14.0679 9.7018C13.9312 9.56506 13.8543 9.37959 13.8543 9.1862C13.8543 8.99282 13.9312 8.80735 14.0679 8.67061C14.2046 8.53386 14.3901 8.45704 14.5835 8.45704C14.7769 8.45704 14.9623 8.53386 15.0991 8.67061C15.2358 8.80735 15.3127 8.99282 15.3127 9.1862C15.3127 9.37959 15.2358 9.56506 15.0991 9.7018C14.9623 9.83855 14.7769 9.91537 14.5835 9.91537ZM20.4168 9.91537C20.2234 9.91537 20.038 9.83855 19.9012 9.7018C19.7645 9.56506 19.6877 9.37959 19.6877 9.1862C19.6877 8.99282 19.7645 8.80735 19.9012 8.67061C20.038 8.53386 20.2234 8.45704 20.4168 8.45704C20.6102 8.45704 20.7957 8.53386 20.9324 8.67061C21.0692 8.80735 21.146 8.99282 21.146 9.1862C21.146 9.37959 21.0692 9.56506 20.9324 9.7018C20.7957 9.83855 20.6102 9.91537 20.4168 9.91537Z" fill="#7CB342"/>
<path d="M13.125 5.104L14.097 6.62213M21.875 5.104L20.6602 6.92619L21.875 5.104Z" stroke="#7CB342" stroke-width="2" stroke-linecap="round"/>
</svg>
