<svg width="32" height="32" viewBox="0 0 71 73" fill="none" xmlns="http://www.w3.org/2000/svg">
<path d="M68.4025 14.4494L36.5275 1.16818C35.8671 0.902272 35.1294 0.902272 34.4689 1.16818L2.59395 14.4494C2.05754 14.6826 1.61176 15.0842 1.32417 15.5935C1.03657 16.1028 0.922835 16.692 1.0002 17.2717L6.3127 57.1155C6.37084 57.5428 6.53091 57.9499 6.7794 58.3024C7.02788 58.6549 7.35749 58.9425 7.74043 59.1409L34.3029 72.4221C34.6771 72.5971 35.0852 72.6877 35.4982 72.6877C35.9113 72.6877 36.3194 72.5971 36.6936 72.4221L63.2561 59.1409C63.639 58.9425 63.9686 58.6549 64.2171 58.3024C64.4656 57.9499 64.6256 57.5428 64.6838 57.1155L69.9963 17.2717C70.0737 16.692 69.9599 16.1028 69.6723 15.5935C69.3847 15.0842 68.9389 14.6826 68.4025 14.4494ZM59.6037 54.9905L35.4982 67.0764L11.3928 54.9905L6.51191 18.5666L35.4982 6.51389L64.4846 18.5666L59.6037 54.9905ZM33.1076 21.0237L21.1545 44.9299C20.8375 45.5639 20.7853 46.2979 21.0095 46.9704C21.2336 47.6429 21.7158 48.1988 22.3498 48.5159C22.9838 48.8329 23.7178 48.885 24.3903 48.6609C25.0628 48.4367 25.6187 47.9546 25.9357 47.3205L28.7248 41.7092H42.2717L45.0607 47.3205C45.2865 47.7602 45.6291 48.1292 46.0508 48.3869C46.4725 48.6446 46.9571 48.7811 47.4514 48.7815C47.8634 48.7727 48.2697 48.6825 48.6467 48.5159C49.2714 48.1892 49.7451 47.6329 49.968 46.9641C50.191 46.2953 50.1458 45.5661 49.842 44.9299L37.8889 21.0237C37.6626 20.5847 37.3198 20.2164 36.8982 19.9594C36.4765 19.7023 35.9921 19.5663 35.4982 19.5663C35.0044 19.5663 34.52 19.7023 34.0983 19.9594C33.6766 20.2164 33.3339 20.5847 33.1076 21.0237ZM39.6154 36.3967H31.3811L35.4982 28.1623L39.6154 36.3967Z" fill="#B52E31"/>
</svg>
