<svg width="168" height="168" viewBox="0 0 168 168" fill="none" xmlns="http://www.w3.org/2000/svg">
<path d="M2 151.869C3.10457 151.869 4 150.974 4 149.869C4 148.765 3.10457 147.869 2 147.869C0.89543 147.869 0 148.765 0 149.869C0 150.974 0.89543 151.869 2 151.869Z" fill="black"/>
<path d="M11 147.869H8C7.46957 147.869 6.96086 148.08 6.58579 148.455C6.21071 148.83 6 149.339 6 149.869C6 150.4 6.21071 150.908 6.58579 151.283C6.96086 151.658 7.46957 151.869 8 151.869H11C11.5304 151.869 12.0391 151.658 12.4142 151.283C12.7893 150.908 13 150.4 13 149.869C13 149.339 12.7893 148.83 12.4142 148.455C12.0391 148.08 11.5304 147.869 11 147.869ZM160 147.869H157C156.47 147.869 155.961 148.08 155.586 148.455C155.211 148.83 155 149.339 155 149.869C155 150.4 155.211 150.908 155.586 151.283C155.961 151.658 156.47 151.869 157 151.869H160C160.53 151.869 161.039 151.658 161.414 151.283C161.789 150.908 162 150.4 162 149.869C162 149.339 161.789 148.83 161.414 148.455C161.039 148.08 160.53 147.869 160 147.869Z" fill="black"/>
<path d="M166 151.869C167.105 151.869 168 150.974 168 149.869C168 148.765 167.105 147.869 166 147.869C164.895 147.869 164 148.765 164 149.869C164 150.974 164.895 151.869 166 151.869Z" fill="black"/>
<path d="M118.154 155.869H109.846C109.343 155.909 108.874 156.138 108.532 156.508C108.19 156.879 108 157.365 108 157.869C108 158.374 108.19 158.859 108.532 159.23C108.874 159.601 109.343 159.829 109.846 159.869H118.154C118.657 159.829 119.126 159.601 119.468 159.23C119.81 158.859 120 158.374 120 157.869C120 157.365 119.81 156.879 119.468 156.508C119.126 156.138 118.657 155.909 118.154 155.869ZM58.1539 155.869H49.8462C49.3434 155.909 48.8742 156.138 48.5321 156.508C48.19 156.879 48 157.365 48 157.869C48 158.374 48.19 158.859 48.5321 159.23C48.8742 159.601 49.3434 159.829 49.8462 159.869H58.1539C58.6567 159.829 59.1258 159.601 59.468 159.23C59.8101 158.859 60.0001 158.374 60.0001 157.869C60.0001 157.365 59.8101 156.879 59.468 156.508C59.1258 156.138 58.6567 155.909 58.1539 155.869ZM104 155.869H64C63.4696 155.869 62.9609 156.08 62.5858 156.455C62.2107 156.83 62 157.339 62 157.869C62 158.4 62.2107 158.908 62.5858 159.283C62.9609 159.658 63.4696 159.869 64 159.869H79.94V161.869H72C71.4696 161.869 70.9609 162.08 70.5858 162.455C70.2107 162.83 70 163.339 70 163.869C70 164.4 70.2107 164.908 70.5858 165.283C70.9609 165.658 71.4696 165.869 72 165.869H97C97.5305 165.869 98.0392 165.658 98.4142 165.283C98.7893 164.908 99 164.4 99 163.869C99 163.339 98.7893 162.83 98.4142 162.455C98.0392 162.08 97.5305 161.869 97 161.869H88.06V159.869H104C104.53 159.869 105.039 159.658 105.414 159.283C105.789 158.908 106 158.4 106 157.869C106 157.339 105.789 156.83 105.414 156.455C105.039 156.08 104.53 155.869 104 155.869Z" fill="#00CCFF"/>
<path d="M76.0002 76.8694C76.0002 59.1965 68.6918 45.8694 59.0002 45.8694C57.6172 45.8733 56.2485 46.1496 54.9723 46.6825C54.7177 46.6637 54.4702 46.5895 54.2472 46.4651C53.4152 45.9778 53.0851 44.6233 52.9542 43.5735C52.9224 43.3126 52.8393 43.0604 52.7099 42.8316C52.5805 42.6028 52.4072 42.4017 52.2 42.2399C51.9928 42.0781 51.7557 41.9588 51.5023 41.8887C51.2489 41.8187 50.9842 41.7993 50.7233 41.8316C50.4624 41.864 50.2105 41.9474 49.9819 42.0773C49.7533 42.2071 49.5525 42.3808 49.3911 42.5883C49.2297 42.7958 49.1108 43.0331 49.0412 43.2866C48.9716 43.5401 48.9527 43.8049 48.9855 44.0657C49.1121 45.9274 49.8676 47.6909 51.1282 49.0667C50.81 49.2362 50.4522 49.3176 50.0919 49.3025C49.1271 49.2117 48.2619 48.1096 47.7062 47.2009C47.5695 46.9763 47.3898 46.7808 47.1774 46.6257C46.965 46.4706 46.7241 46.3589 46.4685 46.2971C46.2129 46.2352 45.9476 46.2243 45.6878 46.2651C45.428 46.3059 45.1788 46.3975 44.9545 46.5347C44.7301 46.6719 44.5351 46.852 44.3804 47.0647C44.2258 47.2774 44.1146 47.5186 44.0532 47.7743C43.9919 48.03 43.9816 48.2953 44.0229 48.555C44.0643 48.8148 44.1564 49.0638 44.2941 49.2878C45.0945 50.7247 46.2836 51.9069 47.7251 52.6989C47.2684 53.0855 46.6903 53.2992 46.0919 53.3025C45.1271 53.2117 44.2618 52.1096 43.7062 51.2009C43.5694 50.9763 43.3897 50.7808 43.1774 50.6257C42.965 50.4706 42.7241 50.3589 42.4685 50.2971C42.2129 50.2352 41.9476 50.2243 41.6878 50.2651C41.428 50.3059 41.1788 50.3975 40.9545 50.5347C40.7301 50.6719 40.535 50.852 40.3804 51.0647C40.2257 51.2774 40.1146 51.5186 40.0532 51.7743C39.9919 52.03 39.9816 52.2953 40.0229 52.555C40.0642 52.8148 40.1564 53.0638 40.2941 53.2878C41.7759 55.7101 43.5727 57.0463 45.6351 57.2712C43.1155 63.4924 41.8791 70.1585 42.0002 76.8694C42.0002 94.5423 49.3086 107.869 59.0002 107.869C68.6918 107.869 76.0002 94.5424 76.0002 76.8694ZM70.791 84.7335C70.4762 82.8871 69.5232 81.2099 68.0982 79.9943C68.2259 80.3644 68.274 80.7574 68.2395 81.1474C68.205 81.5374 68.0886 81.9158 67.8978 82.2577C67.7071 82.5997 67.4463 82.8976 67.1326 83.1319C66.8189 83.3662 66.4592 83.5316 66.0772 83.6175C66.7167 84.5785 67.0395 85.7157 67.0002 86.8694C67.0002 89.3113 65.8156 90.8694 65.0002 90.8694C64.1847 90.8694 63.0002 89.3113 63.0002 86.8694C62.9394 85.6075 63.3381 84.3664 64.1223 83.376C63.7664 83.1946 63.4532 82.9397 63.2033 82.6281C62.9534 82.3165 62.7726 81.9553 62.6728 81.5686C62.5731 81.1818 62.5566 80.7783 62.6246 80.3847C62.6926 79.9911 62.8435 79.6165 63.0672 79.2856C62.0376 79.8283 61.1519 80.608 60.483 81.5604C59.8142 82.5128 59.3815 83.6107 59.2205 84.7633C58.3883 82.2156 57.9761 79.5495 58.0002 76.8694C58.0002 69.1374 61.1342 62.8694 65.0002 62.8694C68.8662 62.8694 72.0002 69.1374 72.0002 76.8694C72.024 79.5388 71.6157 82.1945 70.791 84.7335V84.7335ZM59.0002 103.869C51.8205 103.869 46.0002 91.7811 46.0002 76.8694C46.0002 61.9577 51.8205 49.8694 59.0002 49.8694C63.1249 49.8694 66.7983 53.8639 69.1798 60.0866C67.9282 59.2972 66.4799 58.8754 65.0002 58.8694C58.6263 58.8694 54.0002 66.4395 54.0002 76.8694C54.0002 86.9276 58.3078 94.305 64.3309 94.8195C64.7746 94.886 65.2257 94.886 65.6694 94.8195C66.9152 94.7123 68.118 94.3124 69.1798 93.6522C66.7982 99.875 63.1249 103.869 59.0002 103.869ZM109 45.8694C107.617 45.8733 106.249 46.1496 104.972 46.6825C104.718 46.6637 104.47 46.5895 104.247 46.4651C103.415 45.9778 103.085 44.6233 102.954 43.5735C102.922 43.3126 102.839 43.0604 102.71 42.8316C102.581 42.6028 102.407 42.4017 102.2 42.2399C101.993 42.0781 101.756 41.9588 101.502 41.8887C101.249 41.8187 100.984 41.7993 100.723 41.8316C100.462 41.864 100.21 41.9474 99.9819 42.0773C99.7533 42.2071 99.5525 42.3808 99.3911 42.5883C99.2297 42.7958 99.1108 43.0331 99.0412 43.2866C98.9716 43.5401 98.9527 43.8049 98.9855 44.0657C99.112 45.9274 99.8675 47.6908 101.128 49.0666C100.81 49.2362 100.452 49.3176 100.092 49.3025C99.1271 49.2117 98.2619 48.1096 97.7062 47.201C97.5695 46.9763 97.3898 46.7809 97.1774 46.6258C96.965 46.4707 96.7241 46.359 96.4685 46.2971C96.2129 46.2352 95.9476 46.2243 95.6878 46.2651C95.428 46.3059 95.1788 46.3975 94.9545 46.5347C94.7301 46.6719 94.5351 46.8521 94.3804 47.0648C94.2258 47.2775 94.1146 47.5186 94.0532 47.7743C93.9919 48.0301 93.9816 48.2954 94.0229 48.5551C94.0643 48.8148 94.1564 49.0638 94.2941 49.2879C95.0948 50.7252 96.2845 51.9077 97.7267 52.6997C97.27 53.0872 96.6909 53.3008 96.092 53.3025C95.1271 53.2117 94.2619 52.1096 93.7062 51.2009C93.5695 50.9763 93.3898 50.7808 93.1774 50.6257C92.965 50.4706 92.7241 50.359 92.4685 50.2971C92.2129 50.2352 91.9476 50.2243 91.6878 50.2651C91.428 50.3059 91.1788 50.3975 90.9545 50.5347C90.7301 50.6719 90.5351 50.8521 90.3804 51.0648C90.2258 51.2775 90.1146 51.5186 90.0532 51.7743C89.9919 52.03 89.9816 52.2954 90.0229 52.5551C90.0643 52.8148 90.1564 53.0638 90.2941 53.2879C91.776 55.7101 93.5727 57.0463 95.6351 57.2713C93.1155 63.4924 91.8791 70.1585 92.0002 76.8694C92.0002 94.5423 99.3086 107.869 109 107.869C118.692 107.869 126 94.5423 126 76.8694C126 59.1965 118.692 45.8694 109 45.8694ZM96.0002 76.8694C96.0002 69.1374 99.1342 62.8694 103 62.8694C106.866 62.8694 110 69.1374 110 76.8694C110.024 79.5388 109.616 82.1945 108.791 84.7335C108.476 82.8871 107.523 81.2099 106.098 79.9943C106.226 80.3644 106.274 80.7574 106.24 81.1474C106.205 81.5374 106.089 81.9158 105.898 82.2577C105.707 82.5997 105.446 82.8976 105.133 83.1319C104.819 83.3662 104.459 83.5316 104.077 83.6175C104.717 84.5785 105.039 85.7157 105 86.8694C105 89.3113 103.816 90.8694 103 90.8694C102.185 90.8694 101 89.3113 101 86.8694C100.939 85.6075 101.338 84.3664 102.122 83.376C101.766 83.1946 101.453 82.9397 101.203 82.6281C100.953 82.3165 100.773 81.9553 100.673 81.5686C100.573 81.1818 100.557 80.7783 100.625 80.3847C100.693 79.9911 100.843 79.6164 101.067 79.2855C100.038 79.8282 99.1519 80.6079 98.4831 81.5604C97.8142 82.5128 97.3815 83.6106 97.2205 84.7633C96.3883 82.2156 95.9761 79.5495 96.0002 76.8694ZM109 103.869C104.875 103.869 101.202 99.875 98.8206 93.6522C99.8825 94.3125 101.086 94.7124 102.331 94.8195C102.775 94.8861 103.226 94.8861 103.669 94.8195C109.692 94.3054 114 86.9279 114 76.8694C114 66.4395 109.374 58.8694 103 58.8694C101.52 58.8754 100.072 59.2972 98.8206 60.0866C101.202 53.8639 104.875 49.8694 109 49.8694C116.18 49.8694 122 61.9577 122 76.8694C122 91.7811 116.18 103.869 109 103.869Z" fill="black"/>
<path d="M106.902 114.851C100.217 115.189 99.0714 110.967 98.9591 110.466C98.8514 109.949 98.5439 109.496 98.1035 109.205C97.6631 108.914 97.1256 108.809 96.6081 108.913C96.0906 109.017 95.6351 109.321 95.3408 109.759C95.0466 110.197 94.9375 110.734 95.0372 111.252C95.4377 112.973 96.3368 114.538 97.6221 115.751C92.9298 121.337 88.1041 124.237 83.255 124.358C78.0977 124.479 74.1191 121.4 72.423 119.819C73.8091 119.009 75.0583 117.985 76.1241 116.784C76.4792 116.391 76.6639 115.873 76.6375 115.344C76.6112 114.815 76.3761 114.318 75.9837 113.962C75.5913 113.606 75.0737 113.421 74.5446 113.446C74.0155 113.471 73.5179 113.705 73.1612 114.097C68.6622 119.056 64.877 116.888 64.4425 116.613C64.001 116.322 63.4622 116.218 62.9439 116.323C62.4257 116.428 61.9702 116.734 61.6771 117.175C61.384 117.615 61.2772 118.153 61.38 118.672C61.4828 119.191 61.7869 119.647 62.2257 119.943C63.6825 120.856 65.3718 121.329 67.0909 121.306C67.4784 121.303 67.8655 121.279 68.2502 121.232C72.4282 132.758 77.263 138.394 83.0274 138.44H83.0919C92.1173 138.44 99.1397 123.855 101.547 118.133C103.045 118.637 104.616 118.885 106.196 118.868C106.489 118.868 106.79 118.861 107.098 118.847C107.628 118.821 108.125 118.585 108.482 118.192C108.838 117.799 109.024 117.281 108.998 116.751C108.967 116.223 108.73 115.729 108.338 115.373C107.946 115.018 107.431 114.831 106.902 114.851ZM83.0929 134.44H83.0568C80.2423 134.417 77.4113 131.632 74.7306 126.307C77.372 127.698 80.3207 128.403 83.3058 128.358C87.019 128.217 90.6107 126.997 93.6417 124.848C90.6505 129.812 86.8126 134.44 83.0929 134.44Z" fill="#00CCFF"/>
<path d="M150.721 147.869H105.392C128.787 138.807 145.5 115.333 145.5 87.8691C145.5 52.5794 117.911 23.8691 84.0001 23.8691C50.0889 23.8691 22.5001 52.5794 22.5001 87.8691C22.5001 115.333 39.2128 138.807 62.6081 147.869H17.2788C16.9943 147.832 16.7051 147.856 16.4306 147.939C16.156 148.023 15.9025 148.164 15.6868 148.353C15.4712 148.543 15.2984 148.776 15.1801 149.037C15.0617 149.299 15.0005 149.582 15.0005 149.869C15.0005 150.156 15.0617 150.44 15.1801 150.701C15.2984 150.963 15.4712 151.196 15.6868 151.385C15.9025 151.574 16.156 151.715 16.4306 151.799C16.7051 151.882 16.9943 151.906 17.2788 151.869H150.721C151.006 151.906 151.295 151.882 151.57 151.799C151.844 151.715 152.098 151.574 152.313 151.385C152.529 151.196 152.702 150.963 152.82 150.701C152.939 150.44 153 150.156 153 149.869C153 149.582 152.939 149.299 152.82 149.037C152.702 148.776 152.529 148.543 152.313 148.353C152.098 148.164 151.844 148.023 151.57 147.939C151.295 147.856 151.006 147.832 150.721 147.869ZM26.5001 87.8691C26.5001 54.7321 52.2438 27.8691 84.0001 27.8691C115.756 27.8691 141.5 54.7321 141.5 87.8691C141.5 121.006 115.756 147.869 84.0001 147.869C52.2438 147.869 26.5001 121.006 26.5001 87.8691ZM24.0001 48.8754C24.5935 48.8754 25.1735 48.6995 25.6668 48.3699C26.1602 48.0402 26.5447 47.5717 26.7718 47.0235C26.9988 46.4753 27.0582 45.8721 26.9425 45.2902C26.8267 44.7082 26.541 44.1737 26.1214 43.7541C25.7019 43.3346 25.1673 43.0488 24.5854 42.9331C24.0034 42.8173 23.4002 42.8767 22.8521 43.1038C22.3039 43.3309 21.8354 43.7154 21.5057 44.2087C21.1761 44.7021 21.0001 45.2821 21.0001 45.8754C21.001 46.6708 21.3174 47.4333 21.8798 47.9958C22.4422 48.5582 23.2048 48.8745 24.0001 48.8754ZM24.0001 44.3754C24.2968 44.3754 24.5868 44.4634 24.8335 44.6282C25.0801 44.7931 25.2724 45.0273 25.3859 45.3014C25.4995 45.5755 25.5292 45.8771 25.4713 46.1681C25.4134 46.459 25.2706 46.7263 25.0608 46.9361C24.851 47.1459 24.5837 47.2887 24.2928 47.3466C24.0018 47.4045 23.7002 47.3748 23.4261 47.2613C23.152 47.1477 22.9177 46.9555 22.7529 46.7088C22.5881 46.4621 22.5001 46.1721 22.5001 45.8754C22.5005 45.4777 22.6587 45.0964 22.9399 44.8152C23.2211 44.534 23.6024 44.3758 24.0001 44.3754ZM132.446 30.629C132.05 30.629 131.663 30.7463 131.335 30.966C131.006 31.1858 130.749 31.4982 130.598 31.8636C130.447 32.2291 130.407 32.6312 130.484 33.0192C130.561 33.4071 130.752 33.7635 131.031 34.0432C131.311 34.3229 131.668 34.5134 132.055 34.5905C132.443 34.6677 132.846 34.6281 133.211 34.4767C133.576 34.3254 133.889 34.069 134.109 33.7401C134.328 33.4112 134.446 33.0245 134.446 32.629C134.445 32.0987 134.234 31.5904 133.859 31.2154C133.484 30.8405 132.976 30.6296 132.446 30.629ZM132.446 33.629C132.248 33.629 132.055 33.5703 131.89 33.4604C131.726 33.3506 131.597 33.1944 131.522 33.0117C131.446 32.8289 131.426 32.6279 131.465 32.4339C131.503 32.2399 131.599 32.0617 131.739 31.9219C131.878 31.782 132.057 31.6868 132.251 31.6482C132.445 31.6096 132.646 31.6294 132.828 31.7051C133.011 31.7808 133.167 31.909 133.277 32.0734C133.387 32.2379 133.446 32.4312 133.446 32.629C133.445 32.8941 133.34 33.1483 133.152 33.3358C132.965 33.5233 132.711 33.6287 132.446 33.629ZM24.0001 3.36914C23.6046 3.36914 23.2179 3.48644 22.889 3.7062C22.5601 3.92596 22.3037 4.23832 22.1524 4.60377C22.001 4.96923 21.9614 5.37136 22.0385 5.75932C22.1157 6.14728 22.3062 6.50365 22.5859 6.78335C22.8656 7.06306 23.222 7.25354 23.6099 7.33071C23.9979 7.40788 24.4 7.36828 24.7655 7.2169C25.1309 7.06552 25.4433 6.80918 25.6631 6.48028C25.8828 6.15138 26.0001 5.7647 26.0001 5.36914C25.9995 4.83889 25.7886 4.33054 25.4137 3.9556C25.0387 3.58066 24.5304 3.36975 24.0001 3.36914ZM24.0001 6.36914C23.8023 6.36914 23.609 6.31049 23.4445 6.20061C23.2801 6.09073 23.1519 5.93455 23.0762 5.75182C23.0006 5.5691 22.9807 5.36803 23.0193 5.17405C23.0579 4.98007 23.1532 4.80189 23.293 4.66203C23.4329 4.52218 23.611 4.42694 23.805 4.38836C23.999 4.34977 24.2001 4.36957 24.3828 4.44526C24.5655 4.52095 24.7217 4.64912 24.8316 4.81357C24.9415 4.97802 25.0001 5.17136 25.0001 5.36914C24.9999 5.63428 24.8944 5.88848 24.7069 6.07595C24.5195 6.26343 24.2653 6.36888 24.0001 6.36914ZM164 13.8691C163.605 13.8691 163.218 13.9864 162.889 14.2062C162.56 14.426 162.304 14.7383 162.152 15.1038C162.001 15.4692 161.961 15.8714 162.039 16.2593C162.116 16.6473 162.306 17.0036 162.586 17.2834C162.866 17.5631 163.222 17.7535 163.61 17.8307C163.998 17.9079 164.4 17.8683 164.765 17.7169C165.131 17.5655 165.443 17.3092 165.663 16.9803C165.883 16.6514 166 16.2647 166 15.8691C166 15.3389 165.789 14.8305 165.414 14.4556C165.039 14.0807 164.53 13.8697 164 13.8691ZM164 16.8691C163.802 16.8691 163.609 16.8105 163.445 16.7006C163.28 16.5907 163.152 16.4346 163.076 16.2518C163.001 16.0691 162.981 15.868 163.019 15.6741C163.058 15.4801 163.153 15.3019 163.293 15.162C163.433 15.0222 163.611 14.9269 163.805 14.8884C163.999 14.8498 164.2 14.8696 164.383 14.9453C164.566 15.0209 164.722 15.1491 164.832 15.3136C164.941 15.478 165 15.6714 165 15.8691C165 16.1343 164.894 16.3885 164.707 16.576C164.519 16.7634 164.265 16.8689 164 16.8691ZM56.0001 13.8691C56.0001 13.4736 55.8828 13.0869 55.6631 12.758C55.4433 12.4291 55.1309 12.1728 54.7655 12.0214C54.4 11.87 53.9979 11.8304 53.6099 11.9076C53.222 11.9847 52.8656 12.1752 52.5859 12.4549C52.3062 12.7346 52.1157 13.091 52.0386 13.479C51.9614 13.8669 52.001 14.2691 52.1524 14.6345C52.3037 15 52.5601 15.3123 52.889 15.5321C53.2179 15.7518 53.6046 15.8691 54.0001 15.8691C54.5304 15.8685 55.0387 15.6576 55.4137 15.2827C55.7886 14.9077 55.9995 14.3994 56.0001 13.8691ZM53.0001 13.8691C53.0001 13.6714 53.0588 13.478 53.1686 13.3136C53.2785 13.1491 53.4347 13.0209 53.6174 12.9453C53.8002 12.8696 54.0012 12.8498 54.1952 12.8884C54.3892 12.9269 54.5674 13.0222 54.7072 13.162C54.8471 13.3019 54.9423 13.4801 54.9809 13.6741C55.0195 13.868 54.9997 14.0691 54.924 14.2518C54.8483 14.4345 54.7201 14.5907 54.5557 14.7006C54.3912 14.8105 54.1979 14.8691 54.0001 14.8691C53.735 14.8689 53.4808 14.7634 53.2933 14.576C53.1058 14.3885 53.0004 14.1343 53.0001 13.8691Z" fill="black"/>
<path d="M137.638 4.61786L139.125 2.66286L138.186 2.13086L137.232 4.32086H137.2L136.23 2.14586L135.275 2.69386L136.746 4.60286V4.63386L134.446 4.33686V5.40086L136.762 5.10386V5.13486L135.275 7.04286L136.167 7.60686L137.185 5.40086H137.215L138.154 7.59086L139.14 7.02786L137.638 5.14986V5.11886L140 5.40086V4.33686L137.638 4.64986V4.61786Z" fill="#00CCFF"/>
<path d="M5.73388 34.3589L4.87788 35.4579L5.39188 35.7819L5.97788 34.5119H5.99588L6.53588 35.7729L7.10388 35.4489L6.23888 34.3679V34.3499L7.59888 34.5119V33.8989L6.23888 34.0789V34.0609L7.09488 32.9349L6.55488 32.6289L6.00488 33.8899H5.98688L5.42888 32.6379L4.87788 32.9529L5.72588 34.0519V34.0699L4.40088 33.8989V34.5119L5.73388 34.3409V34.3589Z" fill="#00CCFF"/>
<path d="M160.029 49.5761V48.5331L157.712 48.8401V48.8091L159.17 46.8911L158.249 46.3691L157.313 48.5171H157.282L156.331 46.3841L155.394 46.9211L156.837 48.7941V48.8241L154.581 48.5331V49.5761L156.852 49.2851V49.3161L155.394 51.1881L156.269 51.7401L157.267 49.5761H157.297L158.218 51.7251L159.185 51.1731L157.712 49.3311V49.3001L160.029 49.5761Z" fill="#00CCFF"/>
<path d="M103.351 11.6568L104.609 10.0018L103.815 9.55176L103.008 11.4048H102.981L102.16 9.56476L101.352 10.0288L102.597 11.6438V11.6698L100.65 11.4188V12.3188L102.61 12.0678V12.0938L101.352 13.7088L102.106 14.1858L102.968 12.3188H102.994L103.788 14.1718L104.622 13.6958L103.351 12.1068V12.0808L105.35 12.3188V11.4188L103.351 11.6828V11.6568Z" fill="#00CCFF"/>
</svg>
