<svg width="32" height="32" viewBox="0 0 32 32" fill="none" xmlns="http://www.w3.org/2000/svg">
<path d="M28.4014 17.4347L20.5 15.2399V14.7283C21.9592 13.9965 23.1288 12.7936 23.8194 11.3144C24.5099 9.83521 24.6811 8.16623 24.3051 6.57766C23.929 4.98909 23.0279 3.5739 21.7475 2.5612C20.4671 1.5485 18.8825 0.997559 17.25 0.997559C15.6175 0.997559 14.0328 1.5485 12.7524 2.5612C11.4721 3.5739 10.5709 4.98909 10.1949 6.57766C9.81891 8.16623 9.99004 9.83521 10.6806 11.3144C11.3712 12.7936 12.5407 13.9965 14 14.7283V19.4999H12.4739L11.318 18.0874C10.376 16.9361 9.018 16.2027 7.53868 16.0463C6.05937 15.8899 4.57805 16.3231 3.41611 17.252C3.21825 17.3277 3.04181 17.4504 2.90207 17.6097C2.76232 17.7689 2.66347 17.9597 2.61407 18.1657C2.56467 18.3717 2.56621 18.5867 2.61855 18.792C2.6709 18.9972 2.77247 19.1867 2.91449 19.3439L13.4427 30.9999H29.5V18.8799C29.4993 18.5523 29.3916 18.2338 29.1933 17.9729C28.995 17.7121 28.717 17.5231 28.4014 17.4347ZM12 8.24993C11.9992 7.36019 12.2246 6.48485 12.655 5.70613C13.0854 4.9274 13.7066 4.27082 14.4604 3.79805C15.2141 3.32528 16.0756 3.05182 16.964 3.00336C17.8525 2.9549 18.7386 3.13303 19.5393 3.52101C20.34 3.90899 21.029 4.4941 21.5415 5.2214C22.054 5.9487 22.3733 6.79432 22.4693 7.67886C22.5654 8.5634 22.435 9.45784 22.0905 10.2782C21.7461 11.0985 21.1987 11.8179 20.5 12.3687V8.24993C20.5 7.38797 20.1576 6.56132 19.5481 5.95183C18.9386 5.34233 18.1119 4.99992 17.25 4.99992C16.388 4.99992 15.5614 5.34233 14.9519 5.95183C14.3424 6.56132 14 7.38797 14 8.24993V12.3687C13.3767 11.8782 12.8729 11.2527 12.5265 10.5392C12.18 9.82578 12 9.04303 12 8.24993ZM27.5 28.9999H14.3312L4.9463 18.6093C5.70058 18.1166 6.61038 17.92 7.5008 18.0574C8.39123 18.1948 9.19945 18.6565 9.77011 19.3537L11.5264 21.4999H16V8.24993C16 7.9184 16.1317 7.60046 16.3661 7.36604C16.6005 7.13162 16.9185 6.99993 17.25 6.99993C17.5815 6.99993 17.8994 7.13162 18.1339 7.36604C18.3683 7.60046 18.5 7.9184 18.5 8.24993V16.76L27.5 19.26V28.9999Z" fill="#00CCFF"/>
</svg>
