<svg width="92" height="92" viewBox="0 0 92 92" fill="none" xmlns="http://www.w3.org/2000/svg">
<path d="M64.6875 18.6875L50.3125 70.4375H41.6875L27.3125 18.6875H64.6875Z" fill="#FEE27D"/>
<path d="M61.8125 18.6875L47.4375 70.4375H50.3125L64.6875 18.6875H61.8125Z" fill="#FDDD5A"/>
<path d="M53.1875 35.9375L45.9712 58.9375L38.8125 35.9375L46 30.1875L53.1875 35.9375Z" fill="white"/>
<path d="M64.6875 90.5625H27.3125L30.1875 70.4375H61.8125L64.6875 90.5625Z" fill="#57565C"/>
<path d="M61.8125 70.4375H58.9375L61.8125 90.5625H64.6875L61.8125 70.4375Z" fill="#3C3B41"/>
<path d="M56.0625 76.1875H35.9375V84.8125H56.0625V76.1875Z" fill="#FEE27D"/>
<path d="M56.0625 76.1875H53.1875V84.8125H56.0625V76.1875Z" fill="#FDDD5A"/>
<path d="M55.8326 38.18L46.0576 30.7625L36.2826 38.18L40.0201 26.1625L30.2451 18.6875H42.3489L46.0864 6.69873L49.7951 18.6875H61.9276L52.0951 26.1625L55.8326 38.18Z" fill="#ED4769"/>
<path d="M61.9272 18.6875H59.0522L49.2197 26.1625L52.066 35.305L55.8322 38.18L52.0947 26.1625L61.9272 18.6875Z" fill="#EB304A"/>
<path d="M34.5 86.2498H57.5V74.7498H34.5V86.2498ZM37.375 77.6248H54.625V83.3748H37.375V77.6248ZM52.21 68.9998L66.585 17.2498H50.8588L46 1.83984L41.285 17.2498H25.415L39.79 68.9998H28.9513L25.645 91.9998H66.355L63.0488 68.9998H52.21ZM62.79 20.1248L57.5 38.9561L53.7625 26.6798L62.3875 20.1248H62.79ZM42.3488 20.1248C42.6551 20.1223 42.9529 20.0239 43.2004 19.8434C43.4479 19.6629 43.6327 19.4095 43.7288 19.1186L46 11.4998L48.3288 19.0611C48.426 19.349 48.6119 19.5986 48.8598 19.7742C49.1078 19.9499 49.405 20.0424 49.7088 20.0386H57.5575L50.4275 25.6161L53.13 34.2411L46 28.9511L38.9275 34.3273L41.63 25.7023L34.5 20.1248H42.3488ZM51.4625 36.6561L46 54.1073L40.595 36.7136L46 32.5448L51.4625 36.6561ZM29.21 20.1248H29.7563L38.3813 26.6798L34.5 39.1286L29.21 20.1248ZM34.96 40.9686L38.0938 38.5823L46 63.7673L53.935 38.4961L57.0975 40.8823L49.22 68.9998H42.78L34.96 40.9686ZM28.98 89.1248L31.4238 71.8748H60.5763L63.02 89.1248H28.98Z" fill="black"/>
</svg>
