<svg width="100" height="100" viewBox="0 0 100 100" fill="none" xmlns="http://www.w3.org/2000/svg">
<path d="M15.625 23.4375H18.75C19.1644 23.4375 19.5618 23.2729 19.8549 22.9799C20.1479 22.6868 20.3125 22.2894 20.3125 21.875C20.3125 21.4606 20.1479 21.0632 19.8549 20.7701C19.5618 20.4771 19.1644 20.3125 18.75 20.3125H15.625C15.2106 20.3125 14.8132 20.1479 14.5201 19.8549C14.2271 19.5618 14.0625 19.1644 14.0625 18.75V15.625C14.0625 15.2106 14.2271 14.8132 14.5201 14.5201C14.8132 14.2271 15.2106 14.0625 15.625 14.0625H56.25C56.6644 14.0625 57.0618 14.2271 57.3549 14.5201C57.6479 14.8132 57.8125 15.2106 57.8125 15.625V18.75C57.8125 19.1644 57.6479 19.5618 57.3549 19.8549C57.0618 20.1479 56.6644 20.3125 56.25 20.3125H32.8125C32.3981 20.3125 32.0007 20.4771 31.7076 20.7701C31.4146 21.0632 31.25 21.4606 31.25 21.875C31.25 22.2894 31.4146 22.6868 31.7076 22.9799C32.0007 23.2729 32.3981 23.4375 32.8125 23.4375H56.25C57.4932 23.4375 58.6855 22.9436 59.5646 22.0646C60.4436 21.1855 60.9375 19.9932 60.9375 18.75V15.625C60.9375 14.3818 60.4436 13.1895 59.5646 12.3104C58.6855 11.4314 57.4932 10.9375 56.25 10.9375H15.625C14.3818 10.9375 13.1895 11.4314 12.3104 12.3104C11.4314 13.1895 10.9375 14.3818 10.9375 15.625V18.75C10.9375 19.9932 11.4314 21.1855 12.3104 22.0646C13.1895 22.9436 14.3818 23.4375 15.625 23.4375Z" fill="black"/>
<path d="M26.5625 20.3125H25C24.5856 20.3125 24.1882 20.4771 23.8951 20.7701C23.6021 21.0632 23.4375 21.4606 23.4375 21.875C23.4375 22.2894 23.6021 22.6868 23.8951 22.9799C24.1882 23.2729 24.5856 23.4375 25 23.4375H26.5625C26.9769 23.4375 27.3743 23.2729 27.6674 22.9799C27.9604 22.6868 28.125 22.2894 28.125 21.875C28.125 21.4606 27.9604 21.0632 27.6674 20.7701C27.3743 20.4771 26.9769 20.3125 26.5625 20.3125Z" fill="black"/>
<path d="M76.5625 20.3125C78.2884 20.3125 79.6875 18.9134 79.6875 17.1875C79.6875 15.4616 78.2884 14.0625 76.5625 14.0625C74.8366 14.0625 73.4375 15.4616 73.4375 17.1875C73.4375 18.9134 74.8366 20.3125 76.5625 20.3125Z" fill="black"/>
<path d="M67.1875 20.3125C68.9134 20.3125 70.3125 18.9134 70.3125 17.1875C70.3125 15.4616 68.9134 14.0625 67.1875 14.0625C65.4616 14.0625 64.0625 15.4616 64.0625 17.1875C64.0625 18.9134 65.4616 20.3125 67.1875 20.3125Z" fill="black"/>
<path d="M85.9375 20.3125C87.6634 20.3125 89.0625 18.9134 89.0625 17.1875C89.0625 15.4616 87.6634 14.0625 85.9375 14.0625C84.2116 14.0625 82.8125 15.4616 82.8125 17.1875C82.8125 18.9134 84.2116 20.3125 85.9375 20.3125Z" fill="black"/>
<path d="M90.625 4.6875H9.375C8.1318 4.6875 6.93951 5.18136 6.06044 6.06044C5.18136 6.93951 4.6875 8.1318 4.6875 9.375V90.625C4.6875 91.8682 5.18136 93.0605 6.06044 93.9396C6.93951 94.8186 8.1318 95.3125 9.375 95.3125H90.625C91.8682 95.3125 93.0605 94.8186 93.9396 93.9396C94.8186 93.0605 95.3125 91.8682 95.3125 90.625V9.375C95.3125 8.1318 94.8186 6.93951 93.9396 6.06044C93.0605 5.18136 91.8682 4.6875 90.625 4.6875ZM9.375 7.8125H90.625C91.0394 7.8125 91.4368 7.97712 91.7299 8.27015C92.0229 8.56317 92.1875 8.9606 92.1875 9.375V26.5625H7.8125V9.375C7.8125 8.9606 7.97712 8.56317 8.27015 8.27015C8.56317 7.97712 8.9606 7.8125 9.375 7.8125ZM90.625 92.1875H9.375C8.9606 92.1875 8.56317 92.0229 8.27015 91.7299C7.97712 91.4368 7.8125 91.0394 7.8125 90.625V29.6875H92.1875V90.625C92.1875 91.0394 92.0229 91.4368 91.7299 91.7299C91.4368 92.0229 91.0394 92.1875 90.625 92.1875Z" fill="black"/>
<path d="M74.2032 55.8437L69.4376 55.0468C69.0323 53.7718 68.5092 52.5373 67.8751 51.3593L70.6876 47.4218C71.3507 46.5325 71.6769 45.4368 71.6082 44.3296C71.5396 43.2225 71.0805 42.1755 70.3126 41.3749L69.6251 40.7031C68.841 39.9204 67.805 39.4408 66.7009 39.3493C65.5969 39.2578 64.4961 39.5602 63.5938 40.2031L59.6563 43.0156C58.4783 42.3814 57.2438 41.8583 55.9688 41.4531L55.1719 36.7656C54.9956 35.6535 54.4249 34.6421 53.5642 33.9162C52.7035 33.1904 51.6103 32.7985 50.4844 32.8124H49.5157C48.3944 32.7974 47.3049 33.1848 46.4449 33.9044C45.5848 34.6239 45.0112 35.628 44.8282 36.7343L44.0313 41.4218C42.7563 41.827 41.5218 42.3501 40.3438 42.9843L36.4063 40.1718C35.5027 39.5248 34.3986 39.2199 33.2911 39.3115C32.1835 39.4031 31.1445 39.8852 30.3594 40.6718L29.6876 41.3437C28.9009 42.1287 28.4188 43.1677 28.3272 44.2753C28.2356 45.3829 28.5406 46.487 29.1876 47.3906L32.0001 51.3281C31.3659 52.506 30.8428 53.7405 30.4376 55.0156L25.7501 55.8124C24.6604 56.0042 23.6736 56.5753 22.9644 57.4246C22.2553 58.2738 21.8694 59.3466 21.8751 60.4531V61.4218C21.8786 62.5297 22.2745 63.6005 22.9924 64.4442C23.7104 65.288 24.7039 65.8502 25.7969 66.0312L30.4844 66.8281C30.8897 68.1031 31.4128 69.3376 32.0469 70.5156L29.2344 74.4531C28.5874 75.3567 28.2825 76.4607 28.3741 77.5683C28.4657 78.6759 28.9478 79.7149 29.7344 80.4999L30.4063 81.1718C31.2845 82.0511 32.476 82.5457 33.7188 82.5468C34.6994 82.5483 35.6557 82.2423 36.4532 81.6718L40.3907 78.8593C41.5687 79.4935 42.8032 80.0166 44.0782 80.4218L44.8751 85.1874C45.0581 86.2938 45.6317 87.2978 46.4918 88.0174C47.3518 88.7369 48.4413 89.1244 49.5626 89.1093H50.5313C51.6392 89.1057 52.71 88.7099 53.5537 87.9919C54.3975 87.274 54.9597 86.2804 55.1407 85.1874L55.9376 80.4218C57.2126 80.0166 58.4471 79.4935 59.6251 78.8593L63.5626 81.6718C64.452 82.3122 65.5378 82.6207 66.6311 82.5436C67.7244 82.4665 68.7561 82.0088 69.5469 81.2499L70.2344 80.5781C71.0211 79.793 71.5032 78.754 71.5948 77.6464C71.6864 76.5389 71.3814 75.4348 70.7344 74.5312L67.9219 70.5937C68.5561 69.4157 69.0792 68.1812 69.4844 66.9062L74.2501 66.1093C75.3478 65.9162 76.3408 65.3383 77.0509 64.4793C77.7611 63.6202 78.1419 62.5363 78.1251 61.4218V60.4531C78.1215 59.3452 77.7256 58.2744 77.0077 57.4306C76.2898 56.5869 75.2962 56.0246 74.2032 55.8437ZM75.0001 61.4218C75.0049 61.7963 74.875 62.1601 74.6341 62.4469C74.3932 62.7337 74.0573 62.9244 73.6876 62.9843L67.9532 63.9374L67.6407 64.0624C67.5548 64.0865 67.4712 64.1179 67.3907 64.1562C67.2808 64.2317 67.181 64.321 67.0938 64.4218C67.0938 64.4218 66.9844 64.4218 66.9532 64.5624C66.8443 64.7071 66.7647 64.8716 66.7188 65.0468C66.2987 66.6958 65.6408 68.2749 64.7657 69.7343C64.7593 69.8019 64.7593 69.8699 64.7657 69.9374C64.7171 70.0547 64.6753 70.1747 64.6407 70.2968C64.6329 70.4008 64.6329 70.5053 64.6407 70.6093C64.6329 70.7029 64.6329 70.797 64.6407 70.8906C64.6818 71.0273 64.7395 71.1585 64.8126 71.2812V71.4374L68.1719 76.1249C68.3889 76.4249 68.4923 76.7923 68.4637 77.1614C68.4351 77.5306 68.2763 77.8776 68.0157 78.1406L67.3282 78.8124C67.0672 79.0754 66.7211 79.2371 66.3519 79.2686C65.9827 79.3001 65.6144 79.1993 65.3126 78.9843L60.6251 75.6093C60.5712 75.5721 60.5136 75.5407 60.4532 75.5156C60.3355 75.4474 60.2095 75.3949 60.0782 75.3593H59.7969C59.6929 75.3515 59.5885 75.3515 59.4844 75.3593L59.1407 75.4843C59.068 75.4755 58.9946 75.4755 58.9219 75.4843C57.4648 76.3639 55.885 77.0221 54.2344 77.4374C54.0322 77.4826 53.841 77.5676 53.6719 77.6874L53.5001 77.8749C53.4102 77.9523 53.3313 78.0417 53.2657 78.1406C53.2049 78.3326 53.1319 78.5205 53.0469 78.7031L52.0938 84.4374C52.0339 84.8072 51.8432 85.1431 51.5564 85.384C51.2696 85.6249 50.9058 85.7548 50.5313 85.7499H49.5626C49.188 85.7548 48.8243 85.6249 48.5375 85.384C48.2507 85.1431 48.06 84.8072 48.0001 84.4374L47.0469 78.7031V78.5937C47.0202 78.4328 46.9617 78.2788 46.8751 78.1406C46.8106 78.0502 46.7373 77.9664 46.6563 77.8906C46.5981 77.819 46.5355 77.7512 46.4688 77.6874C46.3219 77.596 46.1645 77.5225 46.0001 77.4687C44.3501 77.0514 42.7707 76.3933 41.3126 75.5156H41.1251L40.6251 75.4687C40.5158 75.4609 40.4062 75.4609 40.2969 75.4687H40.0313C39.8946 75.5098 39.7634 75.5675 39.6407 75.6406C39.6407 75.6406 39.5313 75.6406 39.4844 75.6406L34.7969 78.9999C34.4969 79.2169 34.1296 79.3203 33.7604 79.2917C33.3913 79.2631 33.0443 79.1043 32.7813 78.8437L32.1094 78.1562C31.8464 77.8952 31.6848 77.5491 31.6533 77.1799C31.6218 76.8107 31.7226 76.4424 31.9376 76.1406L35.3126 71.4531C35.35 71.3939 35.3814 71.331 35.4063 71.2656C35.4742 71.1533 35.5268 71.0324 35.5626 70.9062C35.5781 70.8078 35.5781 70.7077 35.5626 70.6093C35.5699 70.5105 35.5699 70.4113 35.5626 70.3124C35.5297 70.1776 35.4826 70.0467 35.4219 69.9218C35.4219 69.9218 35.4219 69.8124 35.4219 69.7499C34.5454 68.2912 33.8874 66.7119 33.4688 65.0624V64.9531C33.4202 64.7991 33.352 64.652 33.2657 64.5156C33.2019 64.4489 33.1341 64.3863 33.0626 64.3281C32.9903 64.2433 32.9061 64.1696 32.8126 64.1093C32.6954 64.0437 32.569 63.9963 32.4376 63.9687C32.4376 63.9687 32.3282 63.9687 32.2501 63.8906L26.5157 62.9374C26.146 62.8775 25.81 62.6868 25.5691 62.4C25.3282 62.1132 25.1984 61.7494 25.2032 61.3749V60.4062C25.1984 60.0317 25.3282 59.6679 25.5691 59.3811C25.81 59.0943 26.146 58.9036 26.5157 58.8437L32.2501 57.8906H32.3594L32.5001 57.8124L32.6876 57.7031C32.7993 57.6358 32.8953 57.5452 32.9688 57.4374C33.0012 57.3971 33.0379 57.3605 33.0782 57.3281C33.1871 57.1719 33.2665 56.9972 33.3126 56.8124C33.7312 55.1629 34.3892 53.5837 35.2657 52.1249C35.2657 52.1249 35.2657 51.9999 35.2657 51.9531C35.3479 51.8309 35.416 51.6999 35.4688 51.5624C35.4762 51.4636 35.4762 51.3644 35.4688 51.2656C35.4843 51.1672 35.4843 51.067 35.4688 50.9687C35.433 50.8424 35.3805 50.7216 35.3126 50.6093C35.2877 50.5438 35.2563 50.481 35.2188 50.4218L31.8438 45.7343C31.6268 45.4343 31.5234 45.067 31.552 44.6978C31.5806 44.3287 31.7394 43.9817 32.0001 43.7187L32.6876 43.0468C32.9486 42.7838 33.2946 42.6221 33.6638 42.5907C34.033 42.5592 34.4014 42.6599 34.7032 42.8749L39.3907 46.2499C39.5468 46.345 39.7149 46.4186 39.8907 46.4687H39.9688H40.2501H40.4376H40.6251C40.8008 46.4421 40.9702 46.3839 41.1251 46.2968C42.5838 45.4203 44.1631 44.7623 45.8126 44.3437C45.937 44.3088 46.0537 44.2505 46.1563 44.1718L46.3282 44.0781C46.4342 43.9856 46.5286 43.8806 46.6094 43.7656L46.7032 43.6562C46.8046 43.4883 46.8735 43.3027 46.9063 43.1093L47.8594 37.3749C47.9193 37.0052 48.11 36.6693 48.3968 36.4284C48.6836 36.1875 49.0474 36.0576 49.4219 36.0624H50.3907C50.7652 36.0576 51.129 36.1875 51.4158 36.4284C51.7026 36.6693 51.8933 37.0052 51.9532 37.3749L52.9063 43.1093C52.9104 43.1509 52.9104 43.1927 52.9063 43.2343C52.9472 43.3911 53.0049 43.543 53.0782 43.6874L53.2813 43.9062C53.3407 43.9864 53.4088 44.0598 53.4844 44.1249C53.6209 44.2112 53.768 44.2795 53.9219 44.3281H54.0313C55.6808 44.7467 57.2601 45.4047 58.7188 46.2812C58.8682 46.3681 59.0325 46.4264 59.2032 46.4531H59.3438H59.5157H59.7969C59.9727 46.403 60.1409 46.3294 60.2969 46.2343L64.9844 42.8593C65.2862 42.6443 65.6546 42.5435 66.0238 42.575C66.393 42.6065 66.739 42.7682 67.0001 43.0312L67.6876 43.7031C67.9482 43.966 68.107 44.313 68.1356 44.6822C68.1642 45.0514 68.0608 45.4187 67.8438 45.7187L64.4844 50.4062V50.5624C64.4114 50.6851 64.3537 50.8163 64.3126 50.9531C64.3048 51.0466 64.3048 51.1407 64.3126 51.2343C64.3048 51.3383 64.3048 51.4428 64.3126 51.5468C64.3472 51.6689 64.389 51.7889 64.4376 51.9062C64.4312 51.9737 64.4312 52.0417 64.4376 52.1093C65.3127 53.5687 65.9706 55.1478 66.3907 56.7968C66.4368 56.9815 66.5162 57.1563 66.6251 57.3124C66.6653 57.3449 66.702 57.3815 66.7344 57.4218C66.8124 57.5257 66.9075 57.6155 67.0157 57.6874L67.2032 57.7968L67.5469 57.9218H67.6563L73.3907 58.8749C73.7604 58.9348 74.0963 59.1255 74.3372 59.4123C74.5781 59.6991 74.708 60.0629 74.7032 60.4374L75.0001 61.4218Z" fill="black"/>
<path d="M50 48.4375C47.5277 48.4375 45.111 49.1706 43.0554 50.5441C40.9998 51.9176 39.3976 53.8699 38.4515 56.154C37.5054 58.438 37.2579 60.9514 37.7402 63.3761C38.2225 65.8009 39.413 68.0282 41.1612 69.7763C42.9093 71.5245 45.1366 72.715 47.5614 73.1973C49.9861 73.6796 52.4995 73.4321 54.7835 72.486C57.0676 71.5399 59.0199 69.9377 60.3934 67.8821C61.7669 65.8265 62.5 63.4098 62.5 60.9375C62.5 57.6223 61.183 54.4429 58.8388 52.0987C56.4946 49.7545 53.3152 48.4375 50 48.4375ZM50 70.3125C48.1458 70.3125 46.3332 69.7627 44.7915 68.7325C43.2498 67.7024 42.0482 66.2382 41.3386 64.5252C40.6291 62.8121 40.4434 60.9271 40.8051 59.1085C41.1669 57.29 42.0598 55.6195 43.3709 54.3084C44.682 52.9973 46.3525 52.1044 48.171 51.7426C49.9896 51.3809 51.8746 51.5666 53.5877 52.2761C55.3007 52.9857 56.7649 54.1873 57.795 55.729C58.8252 57.2707 59.375 59.0833 59.375 60.9375C59.375 63.4239 58.3873 65.8085 56.6291 67.5666C54.871 69.3248 52.4864 70.3125 50 70.3125Z" fill="black"/>
</svg>
