<svg width="732" height="512" viewBox="0 0 732 512" fill="none" xmlns="http://www.w3.org/2000/svg">
<path d="M155.4 248.205H92.7607V424.395H155.4V248.205Z" fill="#E3EBFF"/>
<path d="M151.262 251.464H96.1714V284.698H151.262V251.464Z" fill="white"/>
<path d="M151.262 292.075H96.1714V325.309H151.262V292.075Z" fill="white"/>
<path d="M151.262 332.083H96.1714V365.317H151.262V332.083Z" fill="white"/>
<path d="M151.262 372.091H96.1714V405.325H151.262V372.091Z" fill="white"/>
<path d="M589.341 241.538H529.574V156.921H589.341V241.538ZM530.982 240.061H587.934V158.398H530.982V240.061Z" fill="#AEC5FF"/>
<path d="M188.845 456.269C217.3 456.269 240.367 451.391 240.367 445.374C240.367 439.357 217.3 434.479 188.845 434.479C160.39 434.479 137.322 439.357 137.322 445.374C137.322 451.391 160.39 456.269 188.845 456.269Z" fill="#E7ECFF"/>
<path d="M492.693 456.507C537.351 456.507 573.554 451.629 573.554 445.612C573.554 439.595 537.351 434.718 492.693 434.718C448.034 434.718 411.831 439.595 411.831 445.612C411.831 451.629 448.034 456.507 492.693 456.507Z" fill="#E7ECFF"/>
<path d="M197.044 424.396C197.044 424.396 209.65 423.393 210.462 420.738C211.273 418.083 205.448 414.725 212.085 405.755C218.722 396.785 228.893 405.606 237.488 398.39C246.083 391.175 238.634 387.768 252.385 378.749C266.136 369.73 281.757 383.759 283.019 395.284C284.281 406.809 294.787 403.5 304.528 406.006C314.269 408.512 311.109 417.229 318.514 419.234C325.918 421.24 348.363 424.396 348.363 424.396H197.044Z" fill="#E7ECFF"/>
<path d="M639.116 424.067H92.9717V425.226H639.116V424.067Z" fill="#07076B"/>
<path d="M454.189 356.206H213.137C198.429 356.206 186.464 343.649 186.464 328.217V160.514C186.464 145.088 198.429 132.524 213.137 132.524H454.189C468.889 132.524 480.862 145.082 480.862 160.514V328.217C480.862 343.649 468.897 356.206 454.189 356.206ZM213.137 133.813C199.106 133.813 187.692 145.792 187.692 160.514V328.217C187.692 342.94 199.108 354.918 213.137 354.918H454.189C468.22 354.918 479.634 342.938 479.634 328.217V160.514C479.634 145.792 468.218 133.813 454.189 133.813H213.137Z" fill="#4A78FF"/>
<path d="M463.763 141.729H221.172C208.147 141.729 197.588 152.809 197.588 166.477V344.177C197.588 357.845 208.147 368.925 221.172 368.925H463.763C476.788 368.925 487.347 357.845 487.347 344.177V166.477C487.347 152.809 476.788 141.729 463.763 141.729Z" fill="url(#paint0_linear_1221_2091)"/>
<path d="M487.347 166.356C487.347 159.824 484.875 153.56 480.474 148.942C476.072 144.323 470.103 141.729 463.879 141.729H221.014C217.933 141.729 214.881 142.366 212.034 143.603C209.186 144.841 206.599 146.655 204.42 148.942C202.241 151.229 200.512 153.944 199.333 156.931C198.154 159.919 197.547 163.122 197.547 166.356V173.591H487.347V166.356Z" fill="#3630EA"/>
<g opacity="0.27">
<path d="M206.562 161.762H477.545V336.368C477.545 349.517 467.504 360.217 455.161 360.217H228.946C216.603 360.217 206.56 349.517 206.56 336.368L206.562 161.762ZM207.613 162.867V336.368C207.613 348.908 217.183 359.112 228.946 359.112H455.161C466.924 359.112 476.493 348.908 476.493 336.368V162.867H207.613Z" fill="#3630EA"/>
</g>
<g opacity="0.46">
<path d="M483.016 264.734H395.319C393.24 264.734 391.565 262.722 391.565 260.241V191.436C391.565 188.956 393.248 186.944 395.319 186.944H483.016C485.092 186.944 486.769 188.956 486.769 191.436V260.241C486.777 262.728 485.092 264.734 483.016 264.734Z" fill="#EEF2FF"/>
</g>
<g opacity="0.46">
<path d="M474.278 269.909H383.991C381.676 269.909 379.799 271.879 379.799 274.309V347.481C379.799 349.911 381.676 351.88 383.991 351.88H474.278C476.594 351.88 478.471 349.911 478.471 347.481V274.309C478.471 271.879 476.594 269.909 474.278 269.909Z" fill="#EEF2FF"/>
</g>
<g opacity="0.46">
<path d="M296.65 282.115H214.828C212.797 282.115 211.15 283.843 211.15 285.975V348.022C211.15 350.154 212.797 351.882 214.828 351.882H296.65C298.681 351.882 300.328 350.154 300.328 348.022V285.975C300.328 283.843 298.681 282.115 296.65 282.115Z" fill="#EEF2FF"/>
</g>
<g opacity="0.65">
<path d="M500.127 182.577H400.298C397.933 182.577 396.016 184.589 396.016 187.07V255.874C396.016 258.355 397.933 260.367 400.298 260.367H500.127C502.492 260.367 504.409 258.355 504.409 255.874V187.07C504.409 184.589 502.492 182.577 500.127 182.577Z" fill="#405FE2"/>
</g>
<path d="M493.334 203.103H459.277C458.206 203.103 457.337 204.014 457.337 205.138V205.14C457.337 206.264 458.206 207.175 459.277 207.175H493.334C494.405 207.175 495.273 206.264 495.273 205.14V205.138C495.273 204.014 494.405 203.103 493.334 203.103Z" fill="#DFDFF4"/>
<path d="M493.334 212.907H459.277C458.206 212.907 457.337 213.818 457.337 214.942V214.943C457.337 216.067 458.206 216.978 459.277 216.978H493.334C494.405 216.978 495.273 216.067 495.273 214.943V214.942C495.273 213.818 494.405 212.907 493.334 212.907Z" fill="#DFDFF4"/>
<path d="M493.334 222.71H459.277C458.206 222.71 457.337 223.621 457.337 224.745V224.747C457.337 225.871 458.206 226.782 459.277 226.782H493.334C494.405 226.782 495.273 225.871 495.273 224.747V224.745C495.273 223.621 494.405 222.71 493.334 222.71Z" fill="#DFDFF4"/>
<path d="M493.334 232.515H459.277C458.206 232.515 457.337 233.426 457.337 234.55V234.552C457.337 235.676 458.206 236.587 459.277 236.587H493.334C494.405 236.587 495.273 235.676 495.273 234.552V234.55C495.273 233.426 494.405 232.515 493.334 232.515Z" fill="#DFDFF4"/>
<path d="M493.334 242.319H459.277C458.206 242.319 457.337 243.23 457.337 244.354V244.355C457.337 245.479 458.206 246.39 459.277 246.39H493.334C494.405 246.39 495.273 245.479 495.273 244.355V244.354C495.273 243.23 494.405 242.319 493.334 242.319Z" fill="#DFDFF4"/>
<path d="M447.806 188.816H405.557C404.228 188.816 403.15 189.947 403.15 191.342C403.15 192.737 404.228 193.867 405.557 193.867H447.806C449.135 193.867 450.213 192.737 450.213 191.342C450.213 189.947 449.135 188.816 447.806 188.816Z" fill="#DFDFF4"/>
<path d="M442.687 200.809H410.676C406.52 200.809 403.15 204.345 403.15 208.706V242.297C403.15 246.659 406.52 250.194 410.676 250.194H442.687C446.843 250.194 450.213 246.659 450.213 242.297V208.706C450.213 204.345 446.843 200.809 442.687 200.809Z" fill="#DFDFF4"/>
<path d="M408.665 210.274C408.755 210.066 408.891 209.882 409.061 209.738C409.231 209.594 409.43 209.493 409.644 209.444H409.931C410.806 209.663 411.68 209.882 412.552 210.101C413.262 210.279 413.972 210.453 414.679 210.642C414.859 210.684 415.023 210.783 415.149 210.925C415.275 211.067 415.356 211.246 415.383 211.438C415.578 212.516 415.749 213.596 415.913 214.679C415.914 214.719 415.922 214.758 415.937 214.794C415.952 214.83 415.974 214.863 416.001 214.89C416.029 214.917 416.061 214.938 416.096 214.952C416.132 214.966 416.169 214.973 416.207 214.971L418.196 215.202C419.059 215.301 419.916 215.394 420.786 215.495C421.848 215.616 422.911 215.74 423.973 215.865C425.068 215.993 426.172 216.126 427.271 216.253C428.094 216.348 428.919 216.435 429.742 216.53C431.137 216.694 432.53 216.858 433.924 217.022C435.101 217.157 436.279 217.283 437.456 217.419C438.525 217.543 439.593 217.677 440.661 217.802C441.629 217.911 442.598 218.021 443.566 218.13C444.081 218.186 444.436 218.432 444.633 218.891C444.652 218.921 444.674 218.949 444.699 218.974V219.466C444.641 219.63 444.569 219.794 444.525 219.958C443.94 222.212 443.357 224.464 442.775 226.716C442.246 228.753 441.715 230.789 441.181 232.824C440.842 234.123 440.507 235.425 440.157 236.721C440.001 237.319 439.608 237.584 438.969 237.584H415.456C414.987 237.584 414.621 237.402 414.418 236.982C414.318 236.781 414.286 236.551 414.327 236.328C414.369 236.106 414.48 235.905 414.645 235.758C414.939 235.461 415.333 235.449 415.713 235.449C420.279 235.449 424.845 235.449 429.41 235.449C432.25 235.449 435.09 235.449 437.929 235.449C438.145 235.449 438.231 235.389 438.273 235.185C438.367 234.745 438.493 234.312 438.606 233.872C438.654 233.682 438.704 233.49 438.762 233.259H417.747C417.081 233.259 416.64 232.871 416.548 232.235C416.456 231.598 416.343 230.946 416.235 230.302C416.054 229.204 415.866 228.107 415.686 227.01C415.542 226.13 415.409 225.247 415.266 224.366C415.109 223.381 414.931 222.397 414.767 221.402C414.61 220.495 414.474 219.586 414.326 218.677C414.147 217.598 413.964 216.519 413.788 215.439C413.631 214.454 413.475 213.481 413.319 212.493C412.16 212.212 411.02 211.914 409.867 211.663C409.303 211.54 408.876 211.305 408.669 210.768L408.665 210.274ZM425.459 231.094C425.459 230.625 425.473 230.169 425.459 229.712C425.415 228.564 425.357 227.415 425.302 226.266C425.232 224.738 425.158 223.211 425.091 221.683C425.042 220.595 424.998 219.508 424.96 218.42C424.96 218.256 424.95 218.137 424.735 218.114C423.671 218 422.609 217.876 421.546 217.758C421.505 217.764 421.465 217.775 421.426 217.79C422.002 222.227 422.58 226.664 423.158 231.102L425.459 231.094ZM427.179 218.396C427.37 222.644 427.557 226.855 427.747 231.086H430.127C430.321 226.998 430.515 222.923 430.71 218.796L427.179 218.396ZM434.545 231.112C434.721 231.112 434.745 231.025 434.764 230.892C434.889 230.027 435.02 229.164 435.15 228.301C435.376 226.799 435.602 225.297 435.827 223.796C436.038 222.369 436.241 220.941 436.452 219.476C436.013 219.418 435.581 219.356 435.148 219.312C434.493 219.236 433.838 219.177 433.182 219.097C432.982 219.072 432.909 219.116 432.901 219.318C432.828 221.143 432.749 222.967 432.665 224.789C432.591 226.417 432.514 228.045 432.433 229.673C432.411 230.141 432.385 230.608 432.357 231.114C433.126 231.109 433.835 231.104 434.541 231.112H434.545ZM442.19 220.117L438.675 219.712C438.107 223.518 437.546 227.29 436.979 231.086H439.338L442.19 220.117ZM420.628 228.815C420.538 228.103 420.447 227.391 420.353 226.681C420.229 225.753 420.101 224.824 419.979 223.892C419.834 222.779 419.693 221.666 419.549 220.554C419.428 219.614 419.303 218.673 419.185 217.733C419.156 217.518 419.059 217.424 418.819 217.405C418.229 217.36 417.643 217.282 417.055 217.218L416.729 217.186C416.776 217.566 416.815 217.915 416.864 218.263C416.969 219.046 417.078 219.828 417.187 220.611C417.292 221.34 417.396 222.069 417.5 222.799C417.611 223.606 417.719 224.415 417.83 225.224C417.926 225.905 418.024 226.588 418.121 227.269C418.288 228.472 418.454 229.675 418.631 230.879C418.642 230.958 418.744 231.088 418.806 231.089C419.494 231.106 420.184 231.099 420.914 231.099C420.809 230.32 420.719 229.579 420.625 228.823L420.628 228.815Z" fill="#FE8101"/>
<path d="M434.748 244.121C435.217 243.989 435.694 243.873 436.08 243.533C436.431 243.234 436.673 242.817 436.764 242.352C436.854 241.887 436.788 241.404 436.578 240.985C436.16 240.153 435.198 239.691 434.247 239.824C433.096 239.988 432.322 240.909 432.344 241.968C432.365 243.069 433.134 243.879 434.272 244.075C434.317 244.085 434.361 244.1 434.402 244.121H434.748Z" fill="#FE8101"/>
<path d="M420.062 244.121C420.557 244.012 421.033 243.869 421.428 243.533C421.656 243.335 421.839 243.087 421.962 242.805C422.086 242.523 422.148 242.216 422.143 241.906C422.137 241.596 422.066 241.291 421.933 241.013C421.8 240.736 421.609 240.494 421.375 240.305C421.007 240.022 420.571 239.851 420.116 239.811C419.661 239.772 419.204 239.866 418.796 240.082C418.415 240.281 418.103 240.603 417.907 240.999C417.71 241.396 417.638 241.848 417.702 242.291C417.83 243.164 418.64 243.932 419.578 244.073C419.642 244.083 419.703 244.107 419.766 244.124L420.062 244.121Z" fill="#FE8101"/>
<g opacity="0.65">
<path d="M298.067 279.138H219.465C217.1 279.138 215.183 281.15 215.183 283.632V343.851C215.183 346.332 217.1 348.344 219.465 348.344H298.067C300.431 348.344 302.348 346.332 302.348 343.851V283.632C302.348 281.15 300.431 279.138 298.067 279.138Z" fill="#405FE2"/>
</g>
<path d="M292.372 286.986H224.638C223.308 286.986 222.231 288.117 222.231 289.511C222.231 290.906 223.308 292.037 224.638 292.037H292.372C293.702 292.037 294.779 290.906 294.779 289.511C294.779 288.117 293.702 286.986 292.372 286.986Z" fill="#DFDFF4"/>
<path d="M292.372 299.149H224.638C223.308 299.149 222.231 300.28 222.231 301.675C222.231 303.07 223.308 304.2 224.638 304.2H292.372C293.702 304.2 294.779 303.07 294.779 301.675C294.779 300.28 293.702 299.149 292.372 299.149Z" fill="#DFDFF4"/>
<path d="M292.372 311.311H224.638C223.308 311.311 222.231 312.441 222.231 313.836C222.231 315.231 223.308 316.362 224.638 316.362H292.372C293.702 316.362 294.779 315.231 294.779 313.836C294.779 312.441 293.702 311.311 292.372 311.311Z" fill="#DFDFF4"/>
<path d="M292.372 323.474H224.638C223.308 323.474 222.231 324.605 222.231 326C222.231 327.394 223.308 328.525 224.638 328.525H292.372C293.702 328.525 294.779 327.394 294.779 326C294.779 324.605 293.702 323.474 292.372 323.474Z" fill="#DFDFF4"/>
<path d="M292.372 335.636H224.638C223.308 335.636 222.231 336.766 222.231 338.161C222.231 339.556 223.308 340.687 224.638 340.687H292.372C293.702 340.687 294.779 339.556 294.779 338.161C294.779 336.766 293.702 335.636 292.372 335.636Z" fill="#DFDFF4"/>
<path d="M163.489 435.528C165.793 434.939 167.811 433.484 169.162 431.439C166.998 428.685 168.102 426.504 168.102 426.504L157.175 429.089V433.209C158.237 434.509 160.341 436.367 163.489 435.528Z" fill="#FDB2D0"/>
<path d="M177.088 441.391L178.458 437.576C178.172 437.443 177.874 437.302 177.565 437.149L175.954 440.702L177.088 441.391Z" fill="#FCAA23"/>
<path d="M173.938 439.918L175.377 436.003C175.12 435.86 174.859 435.71 174.595 435.556L172.973 439.511L173.938 439.918Z" fill="#FCAA23"/>
<path d="M183.282 439.621C182.433 439.181 180.825 438.679 178.456 437.576L177.086 441.392L175.953 440.702L177.563 437.149C176.888 436.821 176.156 436.437 175.374 436.001L173.935 439.916L172.966 439.509L174.587 435.554C173.987 435.205 173.358 434.826 172.698 434.406L171.1 438.567L169.951 438.128L171.807 433.826C170.815 433.175 169.922 432.37 169.159 431.439C167.808 433.484 165.79 434.939 163.486 435.528C160.338 436.362 158.234 434.504 157.172 433.209V447.229H186.147C186.147 447.229 187.09 441.6 183.282 439.621Z" fill="#090041"/>
<path d="M171.103 438.572L172.701 434.411C172.528 434.302 172.354 434.191 172.177 434.082C172.051 434 171.929 433.918 171.81 433.838L169.954 438.139L171.103 438.572Z" fill="#FCAA23"/>
<path d="M201.064 435.528C203.368 434.939 205.386 433.484 206.736 431.439C204.572 428.685 205.676 426.504 205.676 426.504L194.75 429.089V433.209C195.811 434.509 197.916 436.367 201.064 435.528Z" fill="#FDB2D0"/>
<path d="M214.664 441.391L216.032 437.576C215.746 437.443 215.449 437.302 215.139 437.149L213.528 440.702L214.664 441.391Z" fill="#FCAA23"/>
<path d="M211.512 439.918L212.951 436.003C212.695 435.86 212.434 435.712 212.169 435.556L210.546 439.511L211.512 439.918Z" fill="#FCAA23"/>
<path d="M220.858 439.621C220.009 439.181 218.401 438.679 216.032 437.576L214.664 441.392L213.528 440.702L215.139 437.149C214.463 436.821 213.732 436.437 212.95 436.001L211.511 439.916L210.541 439.509L212.165 435.554C211.562 435.205 210.934 434.826 210.274 434.406L208.676 438.567L207.526 438.128L209.382 433.826C208.39 433.175 207.498 432.37 206.735 431.439C205.384 433.484 203.366 434.939 201.063 435.528C197.915 436.362 195.81 434.504 194.748 433.209V447.229H223.723C223.723 447.229 224.664 441.6 220.858 439.621Z" fill="#090041"/>
<path d="M208.677 438.572L210.275 434.411C210.103 434.302 209.928 434.191 209.752 434.082C209.625 434 209.504 433.918 209.384 433.838L207.521 438.132L208.677 438.572Z" fill="#FCAA23"/>
<path d="M155.415 314.572L151.921 317.955C151.921 317.955 152.859 336.282 153.668 356.725C154.476 377.167 155.415 428.201 155.415 428.201C155.415 428.201 163.251 434.969 172.387 427.074C172.387 427.074 171.491 400.569 172.387 382.525C173.283 364.48 176.508 338.35 176.508 338.35C176.508 338.35 183.858 369.741 184.926 382.712C185.994 395.682 191.555 428.954 191.555 428.954C191.555 428.954 202.658 434.404 209.289 425.571C209.289 425.571 203.914 381.772 201.585 365.606C199.257 349.44 195.854 316.687 195.854 316.687L189.225 314.572H155.415Z" fill="#122FD8"/>
<path d="M151.921 312.315C152.334 312.455 154.249 324.862 154.249 324.862L156.4 386.33L157.182 431.13C157.182 431.13 152.285 431.772 151.927 430.906C151.569 430.039 148.211 316.606 148.748 316.362C149.284 316.117 151.921 312.315 151.921 312.315Z" fill="#4870EF"/>
<path d="M193.547 314.572L208.901 427.779L212.951 422.845C212.951 422.845 197.554 313.758 197.554 313.741C197.554 313.725 193.547 314.572 193.547 314.572Z" fill="#0A2491"/>
<g opacity="0.61">
<path d="M151.96 334.323C151.691 334.323 151.417 334.323 151.142 334.3L151.178 333.565C154.816 333.765 157.773 332.623 159.965 330.171C163.181 326.579 163.683 321.31 163.632 320.858C163.648 320.939 163.69 321.012 163.752 321.064C163.813 321.116 163.89 321.143 163.969 321.142V320.407L164.281 320.601C164.482 320.98 164.047 325.141 161.97 328.63C159.745 332.367 156.295 334.323 151.96 334.323Z" fill="white"/>
</g>
<g opacity="0.61">
<path d="M157.54 332.772L156.838 332.789L159.023 432.291L159.725 432.274L157.54 332.772Z" fill="white"/>
</g>
<g opacity="0.61">
<path d="M193.938 433.876C193.897 433.533 189.864 399.147 186.119 369.602C184.166 354.217 181.584 346.596 179.754 342.914C178.534 340.452 177.512 339.42 176.939 338.995L177.557 344.274L176.861 344.363L176.103 337.887L176.572 337.989C176.834 338.045 183.027 339.701 186.807 369.505C190.56 399.053 194.589 433.442 194.626 433.785L193.938 433.876Z" fill="white"/>
</g>
<path d="M163.923 231.299L161.37 232.144C161.37 232.144 145.606 231.769 142.785 240.274C139.964 248.779 144.397 294.078 149.234 294.385C154.071 294.692 153.099 297.936 152.914 302.869C152.73 307.802 151.921 317.955 151.921 317.955C151.921 317.955 170.062 331.63 195.854 316.687L193.644 281.457C193.644 281.457 196.39 291.42 203.198 291.231C210.005 291.042 229.292 273.06 232.515 269.734L226.008 262.59C226.008 262.59 216.872 270.303 208.751 273.556C200.63 276.808 197.585 259.395 196.397 251.687C195.208 243.979 192.396 233.767 186.903 232.013C181.409 230.259 170.304 231.888 170.304 231.888L163.923 231.299Z" fill="#FCAA23"/>
<g opacity="0.74">
<path d="M148.742 299.149L151.256 294.802C151.256 294.802 168.146 291.875 188.072 281.441C188.072 281.441 178.09 290.138 167.52 294.385C156.95 298.632 151.921 299.144 151.921 299.144L148.742 299.149Z" fill="#E57417"/>
</g>
<g opacity="0.71">
<path d="M155.638 247.652C155.638 247.652 155.102 277.433 158.415 277.44C161.729 277.447 172.298 275.003 172.298 275.003C172.298 275.003 162.535 276.789 160.653 274.158C158.772 271.527 155.638 247.652 155.638 247.652Z" fill="#E57417"/>
</g>
<g opacity="0.74">
<path d="M196.212 290.511L196.056 289.941L193.649 281.457L193.977 258.744C193.977 258.744 236.314 263.78 236.24 263.915C236.167 264.049 236.522 281.966 236.522 281.966L202.929 296.533" fill="#E57417"/>
</g>
<path d="M150.219 295.209C150.178 295.211 150.137 295.204 150.099 295.189C150.06 295.173 150.025 295.151 149.995 295.121C149.965 295.092 149.941 295.056 149.924 295.017C149.907 294.978 149.897 294.935 149.896 294.892C149.894 294.849 149.901 294.806 149.915 294.766C149.93 294.726 149.952 294.688 149.98 294.657C150.008 294.625 150.041 294.6 150.079 294.582C150.116 294.564 150.156 294.554 150.198 294.553L151.209 294.476C152.074 294.27 175.995 288.558 187.913 281.157C187.948 281.13 187.988 281.111 188.031 281.101C188.074 281.092 188.118 281.092 188.161 281.101C188.204 281.111 188.244 281.13 188.28 281.156C188.315 281.183 188.345 281.218 188.367 281.257C188.389 281.297 188.403 281.341 188.408 281.387C188.412 281.433 188.408 281.479 188.394 281.523C188.381 281.566 188.359 281.607 188.33 281.641C188.301 281.675 188.265 281.703 188.225 281.722C176.062 289.27 151.564 295.063 151.319 295.12H151.273L150.238 295.199L150.219 295.209Z" fill="#BF5D13"/>
<g opacity="0.35">
<path d="M190.778 279.139C190.778 279.139 179.434 262.928 185.091 246.738C190.749 230.548 204.99 249.157 204.99 249.157L196.032 305.173L198.63 325.286L176.195 325.998" fill="#E57417"/>
</g>
<path d="M154.484 210.34L154.936 212.439C154.936 212.439 158.559 223.311 160.395 224.911C162.231 226.511 163.754 225.616 163.754 225.616L164.336 214.713L162.277 212.363L154.484 210.34Z" fill="#07013D"/>
<path d="M157.843 193.047C157.843 193.047 157.708 189.005 164.47 187.22C171.232 185.434 175.935 192.341 181.13 192.435C186.325 192.528 188.072 190.838 188.072 190.838C188.072 190.838 187.579 200.66 179.698 202.069C171.816 203.479 166.405 202.069 166.405 202.069L163.315 213.113C163.315 213.113 159.593 215.764 156.637 213.79C153.681 211.815 151.813 209.017 151.312 203.244C150.766 197.041 154.753 193.61 157.843 193.047Z" fill="#060659"/>
<path d="M155.53 214.459C155.53 214.32 153.604 211.405 153.246 206.942C152.887 202.478 152.664 197.542 156.559 195.663C160.455 193.784 159.374 192.844 160.277 191.669C161.179 190.494 164.307 186.969 172.503 188.567L168.382 185.794L159.246 188.802L154.231 194.675C154.231 194.675 149.036 200.926 149.036 201.075C149.036 201.224 152.476 210.99 152.476 211.085C152.476 211.18 155.53 214.459 155.53 214.459Z" fill="#1F1F93"/>
<path d="M159.964 215.541C159.964 215.541 157.754 213.778 158.589 209.052C159.424 204.326 161.277 207.575 162.112 204.457C162.947 201.339 160.799 196.5 160.799 196.5C160.799 196.5 164.263 199.695 172.502 199.757C180.742 199.82 187.504 194.933 187.504 194.933L184.689 201.449L178.958 204.958L166.988 204.147L163.313 213.12L162.119 216.638L159.964 215.541Z" fill="#07013D"/>
<path d="M180.389 201.518C180.389 201.518 182.266 212.716 181.668 220.109C181.071 227.502 176.772 227.628 173.849 227.128C170.926 226.627 170.087 225.498 170.445 229.947C170.803 234.396 170.707 231.89 170.707 231.89C170.707 231.89 167.758 236.073 162.324 232.125C162.324 232.125 162.683 227.755 163.106 224.371C163.528 220.987 162.982 215.536 162.982 215.536C162.982 215.536 160.836 216.476 159.881 212.278C158.925 208.08 160.836 206.451 163.523 208.392C163.523 208.392 164.002 206.169 165.733 200.717C165.725 200.722 171.098 203.738 180.389 201.518Z" fill="#FDB2D0"/>
<path d="M172.89 228.291L171.195 226.626C171.195 226.626 167.703 223.385 165.67 220.894C165.67 220.894 167.848 230.198 171.547 229.555L172.89 228.291Z" fill="#F476AF"/>
<path d="M170.945 215.139C168.587 215.139 166.669 212.598 166.669 209.477C166.669 206.356 168.587 203.815 170.945 203.815C173.303 203.815 175.222 206.354 175.222 209.477C175.222 212.6 173.303 215.139 170.945 215.139ZM170.945 204.472C168.932 204.472 167.295 206.717 167.295 209.477C167.295 212.237 168.932 214.482 170.945 214.482C172.958 214.482 174.597 212.237 174.597 209.477C174.597 206.717 172.961 204.472 170.945 204.472Z" fill="#120974"/>
<path d="M179.788 212.917C177.954 212.917 176.46 210.636 176.46 207.829C176.46 205.023 177.954 202.742 179.788 202.742C181.623 202.742 183.115 205.023 183.115 207.829C183.115 210.636 181.623 212.917 179.788 212.917ZM179.788 203.399C178.298 203.399 177.086 205.386 177.086 207.829C177.086 210.273 178.298 212.26 179.788 212.26C181.279 212.26 182.489 210.273 182.489 207.829C182.489 205.386 181.277 203.4 179.788 203.4V203.399Z" fill="#120974"/>
<path d="M163.625 208.099L163.414 208.716L166.881 210.025L167.092 209.407L163.625 208.099Z" fill="#120974"/>
<path d="M176.784 208.432L174.863 208.643L174.928 209.296L176.849 209.085L176.784 208.432Z" fill="#120974"/>
<path d="M227.382 260.091C227.084 258.713 225.711 254.889 230.308 253.01C234.906 251.131 237.413 253.01 237.712 255.203C238.01 257.395 238.548 264.602 230.785 269.74L226.131 264.533C226.131 264.533 227.863 263.221 227.625 261.655L227.382 260.091Z" fill="#F476AF"/>
<path d="M214.729 208.341C214.729 208.341 207.564 226.012 207.295 232.215C207.026 238.418 213.564 242.082 217.416 236.35C221.268 230.618 231.389 211.632 231.389 211.632L246.189 214.351C246.189 214.351 239.538 228.723 234.345 239.209C229.151 249.695 213.588 272.277 201.227 273.029C188.866 273.78 182.115 260.203 185.195 246.242C188.081 233.154 199.593 203.83 199.593 203.83L214.729 208.341Z" fill="#8CB1F4"/>
<path d="M192.09 215.416L198.599 233.825C198.599 233.825 215.735 235.794 216.093 233.825C216.451 231.856 220.123 211.092 220.123 211.092C220.123 211.092 215.805 203.134 215.322 203.072C214.839 203.01 195.411 201.694 195.411 201.694L192.09 215.416Z" fill="#3268D6"/>
<path d="M223.498 221.43L228.333 238.444L249.771 241.104L256.159 224.627L248.398 210.905L231.389 208.084L223.498 221.43Z" fill="#DD6900"/>
<path d="M202.659 217.859L202.481 216.73L199.593 203.83L214.729 208.341L217.618 221.243L216.722 222.29L202.659 217.859Z" fill="#5480EF"/>
<path d="M234.547 226.192L234.278 224.532L231.389 211.632L246.189 214.351L249.115 227.689L248.757 228.554L234.547 226.192Z" fill="#FE8101"/>
<path d="M217.618 221.243C217.618 221.243 210.452 238.912 210.183 245.115C209.914 251.318 216.453 254.984 220.305 249.25C224.156 243.517 234.277 224.532 234.277 224.532L249.115 227.689C249.115 227.689 242.428 241.625 237.23 252.111C232.032 262.597 221.377 275.943 209.017 276.695C196.656 277.447 189.67 269.458 189.491 260.06C189.311 250.662 202.47 216.737 202.47 216.737L217.618 221.243Z" fill="white"/>
<path d="M197.463 227.509L197.339 230.267L213.854 235.811L220.153 220.93L201.823 215.29L197.463 227.509Z" fill="#C2D9F9"/>
<path d="M228.454 232.52L227.775 236.479L243.59 240.886L251.203 226.506L232.516 221.524L228.454 232.52Z" fill="#FFB471"/>
<path d="M187.209 271.55C187.209 271.55 187.553 277.071 190.778 279.138C190.778 279.138 197.943 277.635 201.526 270.679C205.109 263.723 203.675 260.091 200.275 258.207C196.875 256.323 195.378 262.594 193.826 265.037C192.273 267.481 187.209 271.55 187.209 271.55Z" fill="#FDB2D0"/>
<path d="M383.726 153.29H333.455C331.155 153.29 329.29 155.246 329.29 157.66C329.29 160.073 331.155 162.03 333.455 162.03H383.726C386.026 162.03 387.89 160.073 387.89 157.66C387.89 155.246 386.026 153.29 383.726 153.29Z" fill="white"/>
<path d="M440.018 153.29H397.159C394.859 153.29 392.995 155.246 392.995 157.66C392.995 160.073 394.859 162.03 397.159 162.03H440.018C442.318 162.03 444.182 160.073 444.182 157.66C444.182 155.246 442.318 153.29 440.018 153.29Z" fill="white"/>
<path d="M462.196 162.759C464.88 162.759 467.055 160.476 467.055 157.66C467.055 154.844 464.88 152.561 462.196 152.561C459.513 152.561 457.337 154.844 457.337 157.66C457.337 160.476 459.513 162.759 462.196 162.759Z" fill="#FE8101"/>
<path d="M329.262 328.205V330.649C329.262 330.649 332.532 332.482 337.323 332.575C342.115 332.669 345.34 330.934 345.34 330.934V328.489L329.262 328.205Z" fill="#6565EF"/>
<path d="M324.47 300.332C324.47 300.332 322.422 302.446 322.372 302.794C322.372 302.794 321.156 304.135 321.246 306.437C321.335 308.739 322.411 307.847 322.053 310.713C321.694 313.58 321.022 314.324 320.978 315.6C320.934 316.877 322.229 316.869 321.829 319.312C321.429 321.756 321.605 322.931 322.411 325.657C323.216 328.382 326.821 329.459 338.443 329.692C346.952 329.864 352.64 327.913 352.594 324.201C352.549 320.489 352.192 320.112 352.594 317.801C352.996 315.49 351.518 316.061 351.473 314.37C351.428 312.678 352.504 312.679 351.877 310.234C351.249 307.789 350.084 308.127 350.533 305.915C350.982 303.703 349.682 302.669 349.682 302.669L324.47 300.332Z" fill="#4747EA"/>
<path d="M364.517 254.06C363.371 244.892 359.062 237.719 351.783 232.592C346.481 228.858 340.572 227.244 334.158 227.669C328.774 227.995 323.588 229.912 319.197 233.198C317.955 234.229 316.695 235.235 315.577 236.419C313.496 238.613 311.729 241.111 310.332 243.837C308.649 247.268 307.595 251.001 307.223 254.84C306.613 260.897 307.79 266.554 310.507 271.884C312.446 275.674 315.051 278.991 317.455 282.448C319.419 285.274 321.296 297.592 322.364 302.797C324.176 303.409 329.117 305.828 336.793 305.925C342.87 306 347.271 304.016 350.013 303.322C351.544 298.54 353.064 285.781 354.606 282.757C355.281 281.433 355.979 280.131 356.867 278.924C359.231 275.714 361.363 272.33 362.833 268.562C364.658 263.905 365.14 259.036 364.517 254.06Z" fill="#5480EF"/>
<path d="M337.141 306.749H336.792C330.127 306.665 325.396 304.832 323.122 303.959C322.728 303.806 322.387 303.673 322.132 303.588L321.702 303.442L321.607 302.979C321.377 301.857 321.116 300.442 320.814 298.805C319.802 293.312 318.271 285.01 316.831 282.937C316.276 282.138 315.699 281.331 315.14 280.551C313.273 277.941 311.342 275.241 309.823 272.276C306.971 266.696 305.832 260.805 306.441 254.759C306.828 250.82 307.911 246.991 309.634 243.468C311.069 240.668 312.883 238.101 315.018 235.847C316.057 234.75 317.208 233.8 318.32 232.883L318.744 232.532C323.256 229.166 328.58 227.199 334.107 226.855C340.733 226.419 346.825 228.122 352.216 231.92C359.722 237.207 364.123 244.624 365.29 253.962C365.948 259.234 365.368 264.254 363.569 268.882C362.261 272.238 360.331 275.591 357.497 279.436C356.62 280.625 355.933 281.925 355.308 283.154C354.515 284.71 353.669 289.342 352.852 293.821C352.174 297.544 351.47 301.394 350.766 303.595L350.629 304.023L350.208 304.13C349.607 304.282 348.921 304.501 348.125 304.752C345.438 305.593 341.79 306.749 337.141 306.749ZM323.044 302.174C323.233 302.244 323.44 302.325 323.67 302.411C326.029 303.326 330.422 305.026 336.817 305.106C341.391 305.162 345.024 304.011 347.675 303.173C348.316 302.969 348.888 302.789 349.414 302.641C350.039 300.483 350.691 296.939 351.318 293.504C352.196 288.693 353.024 284.15 353.93 282.373C354.588 281.081 355.311 279.713 356.262 278.423C359.006 274.7 360.869 271.467 362.124 268.249C363.824 263.888 364.372 259.151 363.749 254.164C362.642 245.314 358.471 238.284 351.353 233.27C346.255 229.68 340.49 228.068 334.215 228.482C328.983 228.807 323.944 230.667 319.671 233.849L319.296 234.16C318.171 235.088 317.106 235.965 316.138 236.992C314.112 239.128 312.391 241.56 311.028 244.213C309.396 247.552 308.371 251.181 308.006 254.914C307.431 260.624 308.51 266.201 311.211 271.488C312.67 274.343 314.565 276.992 316.396 279.552C316.958 280.338 317.539 281.149 318.101 281.958C319.622 284.149 320.928 290.736 322.356 298.48C322.611 299.899 322.841 301.145 323.044 302.174Z" fill="white"/>
<path d="M343.507 305.219H343.49C343.428 305.217 343.367 305.202 343.311 305.175C343.255 305.148 343.204 305.109 343.162 305.062C343.12 305.014 343.088 304.958 343.066 304.898C343.045 304.837 343.035 304.772 343.038 304.707C343.047 304.46 343.829 283.477 344.115 274.212C343.468 274.383 342.808 274.498 342.143 274.555C341.231 274.613 340.456 274.078 339.887 273.04C338.962 274.453 337.671 275.249 336.474 275.08C335.872 274.989 335.322 274.672 334.924 274.189C334.266 274.825 333.406 275.181 332.511 275.19C332.097 275.2 331.687 275.107 331.313 274.921C330.938 274.734 330.611 274.458 330.356 274.115C329.973 274.673 329.438 275.094 328.821 275.325C329.087 278.997 329.206 283.235 329.302 287.609L329.335 289.119C329.509 296.968 329.659 303.746 329.615 304.381C329.611 304.445 329.594 304.509 329.567 304.566C329.539 304.624 329.501 304.676 329.454 304.719C329.407 304.761 329.353 304.793 329.295 304.814C329.236 304.834 329.174 304.842 329.112 304.838C329.051 304.833 328.991 304.816 328.935 304.787C328.88 304.758 328.831 304.718 328.791 304.669C328.75 304.62 328.719 304.563 328.7 304.501C328.68 304.44 328.673 304.375 328.677 304.31C328.718 303.718 328.553 296.305 328.395 289.137L328.363 287.628C328.27 283.404 328.15 279.139 327.881 275.428C326.547 275.302 325.251 273.982 324.198 271.654C322.994 268.997 323.368 266.509 324.223 265.323C324.666 264.711 325.247 264.419 325.821 264.522C326.336 264.615 327.052 265.057 327.532 266.64C328.109 268.539 328.485 271.181 328.741 274.283C329.183 274.029 329.554 273.656 329.814 273.203C328.849 271.097 328.941 267.61 330.022 266.074C330.686 265.129 331.242 265.239 331.512 265.39C332.616 266 332.335 269.197 331.425 271.933C331.28 272.374 331.103 272.803 330.896 273.216C331.312 273.872 331.848 274.201 332.497 274.201C333.209 274.195 333.889 273.893 334.388 273.362C334.095 272.741 333.893 272.077 333.789 271.393C333.223 268.094 334.125 265.813 335.286 265.589C335.846 265.48 336.529 265.853 336.771 267.23C337.094 269.035 336.771 271.708 335.555 273.451C335.808 273.803 336.182 274.038 336.598 274.107C337.558 274.243 338.69 273.369 339.422 271.952C339.293 271.556 339.188 271.151 339.109 270.74C338.787 269.056 338.665 265.735 339.822 265.308C340.664 264.998 341.141 265.287 341.394 265.582C342.332 266.683 341.475 269.711 340.44 272.008C340.739 272.765 341.261 273.628 342.081 273.575C342.777 273.514 343.467 273.384 344.14 273.188C344.175 272.074 344.196 271.194 344.207 270.627C344.283 266.539 345.906 265.029 347.273 264.978C348.433 264.935 349.775 265.982 349.981 268.383C350.032 268.946 349.971 269.513 349.802 270.05C349.634 270.587 349.361 271.081 349.001 271.501C348.014 272.704 346.467 273.47 345.057 273.935C344.778 283.046 343.979 304.492 343.962 304.743C343.958 304.869 343.909 304.988 343.824 305.076C343.74 305.164 343.626 305.216 343.507 305.219ZM325.595 265.507C325.316 265.507 325.071 265.802 324.969 265.936C324.256 266.921 324.053 269.066 325.043 271.25C325.884 273.106 326.871 274.237 327.801 274.434C327.551 271.386 327.187 268.774 326.635 266.959C326.38 266.117 326.009 265.575 325.659 265.511C325.637 265.506 325.614 265.502 325.591 265.5L325.595 265.507ZM347.348 265.966H347.312C346.312 266.002 345.21 267.484 345.152 270.649C345.143 271.161 345.122 271.928 345.094 272.888C346.303 272.45 347.538 271.79 348.295 270.868C348.575 270.547 348.786 270.167 348.916 269.754C349.046 269.341 349.091 268.904 349.049 268.472C348.91 266.811 348.094 265.959 347.348 265.959V265.966ZM335.462 266.57H335.455C335.095 266.639 334.188 268.173 334.712 271.232C334.782 271.662 334.891 272.084 335.039 272.492C335.888 270.989 336.105 268.851 335.849 267.415C335.744 266.808 335.548 266.563 335.464 266.563L335.462 266.57ZM331.102 266.319C330.975 266.419 330.865 266.541 330.777 266.68C330.077 267.674 329.839 270.167 330.386 272.054C330.438 271.918 330.489 271.775 330.543 271.629C331.478 268.8 331.367 266.723 331.104 266.312L331.102 266.319ZM340.162 266.232C339.849 266.55 339.647 268.592 340.03 270.556C340.876 268.359 341.059 266.663 340.7 266.242C340.593 266.109 340.354 266.158 340.163 266.225L340.162 266.232Z" fill="#FFBC80"/>
<path d="M314.711 221.33C314.534 221.331 314.361 221.283 314.207 221.191C314.054 221.1 313.926 220.968 313.836 220.808L306.191 207.314C306.123 207.194 306.078 207.06 306.058 206.922C306.039 206.783 306.046 206.642 306.079 206.506C306.112 206.37 306.17 206.242 306.25 206.13C306.33 206.018 306.43 205.923 306.545 205.851C306.66 205.78 306.787 205.732 306.919 205.712C307.051 205.692 307.186 205.7 307.315 205.734C307.445 205.769 307.567 205.829 307.674 205.913C307.781 205.997 307.871 206.102 307.939 206.223L315.583 219.719C315.675 219.88 315.725 220.065 315.727 220.253C315.729 220.442 315.683 220.627 315.595 220.791C315.506 220.955 315.377 221.091 315.222 221.186C315.067 221.281 314.89 221.33 314.711 221.33Z" fill="#FE8101"/>
<path d="M335.349 215.596C335.079 215.596 334.82 215.484 334.63 215.284C334.439 215.084 334.332 214.812 334.332 214.53V201.318C334.332 201.035 334.439 200.763 334.63 200.563C334.82 200.363 335.079 200.251 335.349 200.251C335.618 200.251 335.877 200.363 336.067 200.563C336.258 200.763 336.365 201.035 336.365 201.318V214.53C336.365 214.812 336.258 215.084 336.067 215.284C335.877 215.484 335.618 215.596 335.349 215.596Z" fill="#FE8101"/>
<path d="M355.55 219.113C355.364 219.113 355.182 219.06 355.023 218.959C354.864 218.858 354.734 218.713 354.648 218.54C354.563 218.367 354.524 218.172 354.536 217.978C354.548 217.783 354.611 217.596 354.718 217.436L362.242 206.157C362.317 206.039 362.414 205.938 362.527 205.86C362.64 205.782 362.766 205.728 362.899 205.702C363.032 205.675 363.169 205.677 363.301 205.707C363.433 205.737 363.559 205.795 363.669 205.876C363.78 205.957 363.874 206.061 363.947 206.181C364.019 206.301 364.067 206.435 364.09 206.575C364.112 206.715 364.107 206.859 364.076 206.997C364.044 207.135 363.987 207.265 363.907 207.38L356.384 218.658C356.29 218.799 356.165 218.914 356.02 218.993C355.875 219.072 355.714 219.113 355.55 219.113Z" fill="#FE8101"/>
<path d="M301.452 234.903C301.298 234.903 301.145 234.866 301.007 234.795L288.826 228.559C288.59 228.431 288.411 228.211 288.327 227.947C288.244 227.682 288.262 227.394 288.379 227.143C288.495 226.893 288.701 226.7 288.951 226.606C289.201 226.513 289.476 226.526 289.717 226.642L301.898 232.878C302.104 232.984 302.271 233.16 302.369 233.378C302.468 233.595 302.494 233.841 302.442 234.076C302.39 234.311 302.264 234.521 302.085 234.671C301.905 234.821 301.682 234.903 301.452 234.903Z" fill="#FE8101"/>
<path d="M360.314 241.004L358.886 239.934L368.713 225.492H394.332V227.333H369.615L360.314 241.004Z" fill="#FE8101"/>
<path d="M351.547 300.254L350.355 298.903L367.687 282.104H382.838V283.943H368.374L351.547 300.254Z" fill="#FE8101"/>
<path d="M322.053 309.798H302.348V311.639H322.053V309.798Z" fill="#FE8101"/>
<path d="M302.348 313.945C304.046 313.945 305.423 312.5 305.423 310.718C305.423 308.937 304.046 307.492 302.348 307.492C300.65 307.492 299.274 308.937 299.274 310.718C299.274 312.5 300.65 313.945 302.348 313.945Z" fill="#FE8101"/>
<path d="M394.332 229.639C396.03 229.639 397.406 228.194 397.406 226.412C397.406 224.63 396.03 223.186 394.332 223.186C392.634 223.186 391.257 224.63 391.257 226.412C391.257 228.194 392.634 229.639 394.332 229.639Z" fill="#FE8101"/>
<g opacity="0.65">
<path d="M473.354 267.033H388.122C385.878 267.033 384.059 268.941 384.059 271.296V344.081C384.059 346.435 385.878 348.344 388.122 348.344H473.354C475.598 348.344 477.417 346.435 477.417 344.081V271.296C477.417 268.941 475.598 267.033 473.354 267.033Z" fill="#405FE2"/>
</g>
<path d="M208.774 134.343C216.724 134.343 223.169 127.58 223.169 119.237C223.169 110.894 216.724 104.131 208.774 104.131C200.824 104.131 194.379 110.894 194.379 119.237C194.379 127.58 200.824 134.343 208.774 134.343Z" fill="#1E1ED3"/>
<path d="M270.882 134.343C281.858 134.343 290.755 125.006 290.755 113.488C290.755 101.971 281.858 92.6343 270.882 92.6343C259.906 92.6343 251.009 101.971 251.009 113.488C251.009 125.006 259.906 134.343 270.882 134.343Z" fill="#1E1ED3"/>
<path d="M241.441 191.637C251.533 191.637 259.713 183.053 259.713 172.464C259.713 161.874 251.533 153.29 241.441 153.29C231.35 153.29 223.169 161.874 223.169 172.464C223.169 183.053 231.35 191.637 241.441 191.637Z" fill="#FE8101"/>
<path d="M241.423 167.619C242.796 165.028 245.768 164.698 247.656 165.517C248.795 166.013 249.74 166.9 250.337 168.033C250.933 169.165 251.146 170.477 250.94 171.753C250.615 173.919 249.572 175.692 248.238 177.311C246.377 179.568 244.108 181.299 241.688 182.827C241.617 182.867 241.537 182.889 241.456 182.893C241.375 182.897 241.294 182.881 241.219 182.848C238.206 180.933 235.402 178.762 233.414 175.628C232.384 174.003 231.775 172.241 231.888 170.242C232.061 167.142 235.016 164.662 237.935 165.171C239.465 165.435 240.659 166.165 241.423 167.619Z" fill="white"/>
<path d="M254.937 81.1093C261.678 81.1093 267.143 75.3749 267.143 68.3011C267.143 61.2273 261.678 55.4929 254.937 55.4929C248.196 55.4929 242.731 61.2273 242.731 68.3011C242.731 75.3749 248.196 81.1093 254.937 81.1093Z" fill="#FE8101"/>
<path d="M254.749 64.6711C255.639 62.989 257.564 62.7741 258.794 63.3057C259.532 63.6277 260.145 64.2028 260.531 64.9372C260.918 65.6715 261.057 66.5218 260.924 67.3492C260.712 68.7556 260.035 69.9076 259.17 70.9595C257.963 72.4233 256.49 73.5474 254.922 74.5386C254.875 74.5644 254.823 74.579 254.77 74.5813C254.718 74.5835 254.665 74.5734 254.617 74.5517C252.662 73.3094 250.843 71.9014 249.553 69.8698C248.885 68.8147 248.489 67.6725 248.563 66.3745C248.676 64.3642 250.596 62.756 252.487 63.0842C253.478 63.2532 254.252 63.7275 254.749 64.6711Z" fill="white"/>
<path d="M215.056 123.617C215.128 123.827 215.302 124.132 215.327 124.449C215.389 125.269 215.074 125.597 214.26 125.597C212.071 125.597 209.891 125.597 207.705 125.597C207.1 125.597 206.496 125.597 205.891 125.597C205.565 125.597 205.354 125.455 205.356 125.105C205.356 122.808 205.304 120.51 205.418 118.231C205.515 116.273 206.513 114.686 207.736 113.264C207.843 113.118 207.963 112.983 208.094 112.86C208.931 112.192 209.234 111.317 209.103 110.234C209.042 109.742 209.186 109.287 209.696 109.095C209.95 109.01 210.224 109.019 210.473 109.119C210.722 109.22 210.931 109.406 211.065 109.648C211.78 110.899 211.744 112.213 211.273 113.536C211.05 114.166 210.787 114.78 210.504 115.505C210.724 115.556 210.946 115.59 211.17 115.609C212.262 115.618 213.356 115.618 214.454 115.609C215.1 115.609 215.74 115.632 216.007 116.398C216.138 116.749 216.149 117.136 216.04 117.494C215.93 117.853 215.707 118.161 215.407 118.367C215.64 118.879 215.973 119.352 216.054 119.859C216.156 120.5 215.676 120.876 215.244 121.044C215.427 121.536 215.746 121.991 215.713 122.419C215.68 122.847 215.291 123.213 215.056 123.617Z" fill="white"/>
<path d="M201.448 121.71C201.448 120.647 201.459 119.577 201.448 118.518C201.44 118.044 201.56 117.826 201.964 117.842C202.674 117.87 203.384 117.857 204.094 117.842C204.388 117.842 204.51 117.98 204.506 118.359C204.494 120.471 204.492 122.581 204.485 124.693C204.485 124.795 204.463 124.899 204.464 125C204.464 125.448 204.325 125.627 203.944 125.603C203.304 125.56 202.661 125.591 202.018 125.591C201.482 125.591 201.452 125.555 201.452 124.9C201.448 123.839 201.447 122.776 201.448 121.71Z" fill="white"/>
<path d="M264.771 106.12V120.857C264.771 121.28 264.881 121.695 265.09 122.057C265.299 122.419 265.599 122.715 265.957 122.911C266.314 123.107 266.716 123.196 267.119 123.17C267.521 123.143 267.909 123.002 268.241 122.76L278.676 115.143C278.974 114.926 279.216 114.635 279.381 114.297C279.547 113.959 279.63 113.583 279.625 113.203C279.619 112.823 279.525 112.45 279.349 112.117C279.174 111.784 278.924 111.502 278.62 111.294L268.177 104.176C267.843 103.95 267.458 103.823 267.062 103.808C266.665 103.793 266.273 103.889 265.924 104.088C265.576 104.287 265.285 104.581 265.082 104.938C264.879 105.296 264.771 105.704 264.771 106.12Z" fill="white"/>
<g opacity="0.47">
<path d="M409.11 312.315H400.323V337.269H409.11V312.315Z" fill="#DFDFF4"/>
<path d="M426.872 303.857H418.085V337.27H426.872V303.857Z" fill="#DFDFF4"/>
<path d="M444.995 307.689H436.208V337.27H444.995V307.689Z" fill="#DFDFF4"/>
<path d="M463.353 288.632H454.566V337.27H463.353V288.632Z" fill="#DFDFF4"/>
</g>
<path d="M473.401 337.821H392.48C392.337 337.825 392.198 337.77 392.094 337.666C391.99 337.563 391.929 337.42 391.925 337.27V275.528C391.925 275.374 391.983 275.225 392.087 275.116C392.192 275.007 392.333 274.946 392.48 274.946C392.627 274.946 392.768 275.007 392.873 275.116C392.977 275.225 393.035 275.374 393.035 275.528V336.725H473.401C473.472 336.721 473.544 336.732 473.611 336.758C473.678 336.784 473.74 336.824 473.792 336.876C473.844 336.928 473.885 336.99 473.914 337.059C473.942 337.128 473.957 337.202 473.957 337.277C473.957 337.353 473.942 337.427 473.914 337.496C473.885 337.565 473.844 337.627 473.792 337.679C473.74 337.731 473.678 337.771 473.611 337.797C473.544 337.822 473.472 337.834 473.401 337.83V337.821Z" fill="#DFDFF4"/>
<path d="M392.48 312.868C392.378 312.869 392.277 312.84 392.189 312.785C392.101 312.731 392.029 312.651 391.981 312.556C391.95 312.49 391.932 312.419 391.928 312.345C391.924 312.272 391.934 312.198 391.958 312.129C391.982 312.06 392.02 311.997 392.068 311.944C392.116 311.89 392.175 311.848 392.239 311.819L422.235 297.378C422.363 297.317 422.507 297.305 422.642 297.347C429.787 299.556 441.308 303.025 443.008 303.296C444.002 302.329 449.634 296.471 454.213 291.707C461.542 284.081 462.321 283.284 462.465 283.188C462.588 283.107 462.736 283.078 462.878 283.106C463.021 283.135 463.148 283.218 463.234 283.341C463.311 283.455 463.342 283.596 463.321 283.734C463.299 283.872 463.227 283.995 463.12 284.078C462.793 284.378 458.84 288.492 455.015 292.47C446.018 301.824 443.763 304.156 443.525 304.313C443.213 304.52 443.03 304.642 432.521 301.504C428.031 300.163 423.532 298.778 422.521 298.466L392.722 312.811C392.647 312.848 392.564 312.867 392.48 312.868ZM463.116 284.084L463.081 284.109L463.116 284.084Z" fill="#FF8403"/>
<path d="M382.838 286.249C384.536 286.249 385.912 284.804 385.912 283.023C385.912 281.241 384.536 279.796 382.838 279.796C381.14 279.796 379.763 281.241 379.763 283.023C379.763 284.804 381.14 286.249 382.838 286.249Z" fill="#FE8101"/>
<path d="M591.415 403.19C591.415 403.19 567.342 380.052 583.494 342.075C583.726 341.523 584.072 341.033 584.506 340.639C584.941 340.244 585.453 339.956 586.007 339.795C586.56 339.634 587.141 339.603 587.707 339.706C588.273 339.809 588.81 340.043 589.28 340.39C593.538 343.55 600.15 349.481 602.768 357.358C606.77 369.395 607.184 406.853 591.415 403.19Z" fill="#6C90FE"/>
<path d="M592.453 402.872C592.372 402.872 592.292 402.845 592.226 402.796C592.16 402.747 592.11 402.677 592.083 402.596C587.569 388.789 586.279 375.027 585.984 365.903C585.671 356.022 586.437 349.31 586.453 349.243C586.459 349.189 586.475 349.137 586.501 349.09C586.526 349.043 586.56 349.001 586.601 348.968C586.642 348.934 586.688 348.91 586.738 348.895C586.788 348.88 586.84 348.876 586.891 348.883C586.943 348.889 586.992 348.907 587.037 348.933C587.082 348.96 587.122 348.996 587.154 349.038C587.186 349.081 587.209 349.13 587.223 349.182C587.237 349.235 587.241 349.289 587.235 349.343C587.227 349.409 586.468 356.071 586.781 365.893C587.067 374.951 588.345 388.624 592.83 402.324C592.847 402.375 592.854 402.429 592.851 402.482C592.848 402.536 592.835 402.589 592.812 402.637C592.789 402.686 592.758 402.729 592.72 402.765C592.681 402.801 592.636 402.828 592.588 402.846C592.545 402.862 592.499 402.871 592.453 402.872Z" fill="#07076B"/>
<path d="M596.482 334.508C597.078 333.09 596.66 329.726 604.166 326.249C611.673 322.772 604.564 319.626 611.532 312.464C618.501 305.303 630.411 313.406 629.721 322.146C629.032 330.887 630.989 332.931 636.532 338.248C642.074 343.565 637.939 356.257 631.357 362.501C624.775 368.745 637.367 372.795 634.944 382.771C632.522 392.747 628.046 401.526 613.908 399.066C599.769 396.606 591.567 389.763 594.985 377.152C598.404 364.541 602.504 368.988 598.343 361.152C594.181 353.316 592.158 344.798 596.482 334.508Z" fill="#4153F1"/>
<path d="M609.033 408.858C608.94 408.858 608.85 408.823 608.779 408.759C608.708 408.695 608.661 408.607 608.647 408.51C606.181 392.039 615.514 328.176 615.609 327.532C615.616 327.479 615.634 327.427 615.66 327.38C615.687 327.334 615.722 327.293 615.763 327.261C615.805 327.229 615.852 327.205 615.903 327.192C615.953 327.179 616.005 327.177 616.056 327.185C616.107 327.194 616.156 327.213 616.2 327.241C616.244 327.269 616.283 327.307 616.313 327.351C616.343 327.395 616.365 327.445 616.377 327.497C616.388 327.55 616.39 327.605 616.381 327.659C616.288 328.3 606.972 392.036 609.419 408.384C609.427 408.437 609.425 408.491 609.413 408.544C609.401 408.596 609.379 408.645 609.349 408.689C609.319 408.732 609.281 408.769 609.237 408.797C609.193 408.825 609.145 408.843 609.094 408.852C609.074 408.856 609.053 408.858 609.033 408.858Z" fill="#07076B"/>
<path d="M519.228 440.648C519.228 440.515 519.228 440.381 519.22 440.243C519.212 440.105 519.22 439.975 519.211 439.837C519.201 439.7 519.211 439.57 519.198 439.432C519.186 439.294 519.189 439.165 519.182 439.028C519.176 438.892 519.173 438.759 519.167 438.623C519.161 438.487 519.156 438.356 519.148 438.219C519.14 438.083 519.136 437.952 519.129 437.816C519.123 437.679 519.115 437.547 519.109 437.412L519.085 437.008L519.062 436.605C519.054 436.472 519.046 436.337 519.037 436.201C519.028 436.065 519.021 435.933 519.012 435.797C519.003 435.661 518.995 435.53 518.985 435.395C518.976 435.261 518.968 435.128 518.959 434.991C518.949 434.855 518.94 434.724 518.929 434.589C518.918 434.455 518.91 434.322 518.901 434.186C518.892 434.05 518.881 433.92 518.871 433.784C518.862 433.648 518.851 433.516 518.84 433.382C518.829 433.247 518.82 433.114 518.809 432.98C518.798 432.845 518.788 432.712 518.777 432.578L518.745 432.176L518.712 431.773C518.701 431.639 518.688 431.506 518.677 431.371C518.666 431.237 518.655 431.104 518.643 430.969C518.63 430.835 518.621 430.702 518.608 430.567C518.596 430.433 518.585 430.3 518.573 430.165C518.56 430.031 518.549 429.898 518.538 429.763L518.501 429.361C518.49 429.228 518.477 429.094 518.465 428.961L518.427 428.559L518.39 428.157L518.352 427.756C518.34 427.623 518.327 427.489 518.313 427.354L518.275 426.954C518.263 426.821 518.249 426.686 518.236 426.552C518.224 426.417 518.21 426.284 518.197 426.151C518.185 426.018 518.171 425.884 518.157 425.749C518.142 425.615 518.13 425.482 518.117 425.349C518.105 425.216 518.089 425.081 518.077 424.948C518.064 424.816 518.05 424.681 518.036 424.546C518.022 424.412 518.008 424.279 517.995 424.146L517.953 423.746C517.939 423.611 517.927 423.478 517.913 423.343L517.87 422.943L517.828 422.543L517.786 422.142L517.744 421.74C517.73 421.607 517.714 421.474 517.7 421.34L517.658 420.939C517.642 420.806 517.628 420.672 517.614 420.539C517.6 420.406 517.584 420.271 517.57 420.139C517.556 420.006 517.54 419.871 517.526 419.738C517.512 419.605 517.497 419.471 517.483 419.338C517.468 419.205 517.453 419.07 517.439 418.937C517.425 418.804 517.409 418.67 517.393 418.537C517.378 418.404 517.364 418.269 517.35 418.137C517.336 418.004 517.32 417.869 517.304 417.736C517.289 417.603 517.275 417.469 517.259 417.336C517.243 417.203 517.229 417.068 517.214 416.935C517.198 416.802 517.184 416.668 517.168 416.535C517.153 416.402 517.138 416.267 517.123 416.134C517.107 416.002 517.092 415.867 517.077 415.734L517.031 415.334C517.015 415.201 516.999 415.066 516.985 414.933L516.938 414.533L516.891 414.132L516.844 413.734L516.798 413.333L516.751 412.933L516.704 412.532L516.657 412.132C516.64 411.999 516.624 411.866 516.608 411.733L516.561 411.333C516.546 411.198 516.529 411.065 516.513 410.932C516.497 410.8 516.482 410.665 516.464 410.532L516.418 410.133C516.4 409.999 516.385 409.866 516.369 409.733C516.353 409.6 516.336 409.465 516.321 409.332C516.305 409.2 516.288 409.067 516.272 408.934C516.256 408.801 516.239 408.666 516.222 408.533C516.205 408.4 516.191 408.266 516.174 408.133C516.156 408 516.141 407.867 516.125 407.734C516.109 407.601 516.092 407.467 516.075 407.334C516.058 407.201 516.042 407.066 516.027 406.933C516.011 406.8 515.994 406.667 515.977 406.534C515.959 406.402 515.944 406.267 515.928 406.134C515.912 406.001 515.894 405.868 515.878 405.735C515.862 405.602 515.845 405.468 515.828 405.335C515.811 405.202 515.795 405.067 515.778 404.936C515.761 404.805 515.745 404.669 515.728 404.536C515.711 404.403 515.695 404.268 515.678 404.137C515.661 404.006 515.643 403.869 515.628 403.737L515.576 403.336C515.561 403.203 515.543 403.07 515.526 402.937C515.509 402.804 515.492 402.67 515.476 402.537L515.424 402.138C515.407 402.005 515.39 401.871 515.374 401.739L515.323 401.339C515.306 401.204 515.289 401.071 515.271 400.94L515.22 400.54C515.202 400.407 515.185 400.272 515.17 400.141C515.154 400.01 515.134 399.874 515.118 399.741C515.102 399.608 515.082 399.475 515.066 399.342C515.051 399.209 515.03 399.074 515.013 398.943L514.962 398.543C514.945 398.408 514.928 398.275 514.91 398.144L514.858 397.743C514.84 397.609 514.822 397.476 514.805 397.345C514.788 397.213 514.771 397.077 514.754 396.946C514.736 396.815 514.718 396.678 514.7 396.546C514.683 396.413 514.666 396.278 514.647 396.147L514.596 395.748C514.577 395.612 514.56 395.479 514.542 395.348C514.525 395.216 514.507 395.08 514.489 394.949C514.472 394.818 514.453 394.681 514.436 394.55C514.419 394.419 514.4 394.281 514.383 394.151C514.366 394.022 514.347 393.882 514.33 393.751C514.313 393.62 514.294 393.482 514.277 393.352C514.259 393.222 514.241 393.083 514.223 392.953C514.206 392.824 514.186 392.683 514.169 392.555C514.152 392.427 514.133 392.282 514.116 392.154C514.098 392.026 514.078 391.882 514.061 391.755C514.044 391.629 514.023 391.481 514.006 391.357C513.898 390.554 513.836 390.111 513.836 390.111L509.066 390.982C509.066 390.982 509.113 391.358 509.199 392.041C509.214 392.164 509.232 392.299 509.249 392.441C509.266 392.584 509.282 392.699 509.3 392.84C509.319 392.981 509.333 393.101 509.351 393.241C509.368 393.38 509.383 393.501 509.402 393.639C509.421 393.777 509.435 393.902 509.452 394.04C509.469 394.178 509.487 394.302 509.504 394.438C509.521 394.575 509.537 394.701 509.555 394.839C509.574 394.977 509.588 395.101 509.607 395.238C509.626 395.374 509.64 395.502 509.659 395.636C509.677 395.771 509.691 395.901 509.71 396.037C509.729 396.173 509.743 396.301 509.762 396.436C509.781 396.57 509.796 396.7 509.813 396.836L509.865 397.235C509.882 397.366 509.899 397.499 509.918 397.634C509.937 397.768 509.953 397.899 509.97 398.034L510.021 398.433C510.04 398.564 510.057 398.697 510.075 398.831C510.092 398.966 510.109 399.097 510.128 399.232C510.147 399.366 510.162 399.496 510.179 399.631C510.197 399.765 510.215 399.895 510.233 400.029C510.25 400.164 510.269 400.295 510.286 400.43C510.303 400.564 510.322 400.694 510.339 400.829C510.356 400.963 510.375 401.093 510.392 401.227C510.409 401.362 510.428 401.493 510.445 401.626C510.462 401.759 510.481 401.892 510.5 402.027C510.519 402.161 510.534 402.291 510.553 402.425C510.572 402.56 510.589 402.691 510.606 402.824C510.624 402.957 510.642 403.09 510.661 403.223C510.68 403.356 510.697 403.489 510.714 403.622C510.731 403.755 510.75 403.887 510.769 404.022C510.788 404.157 510.805 404.286 510.822 404.421C510.839 404.555 510.86 404.687 510.877 404.82C510.894 404.953 510.913 405.085 510.932 405.218C510.95 405.351 510.968 405.484 510.986 405.617C511.005 405.75 511.022 405.883 511.041 406.016C511.06 406.149 511.077 406.282 511.096 406.416C511.115 406.551 511.132 406.682 511.151 406.815C511.169 406.948 511.188 407.081 511.205 407.214L511.262 407.613C511.28 407.746 511.298 407.878 511.316 408.011L511.373 408.41C511.391 408.543 511.409 408.676 511.427 408.809L511.484 409.208L511.54 409.606L511.596 410.005L511.653 410.404L511.709 410.803L511.765 411.202L511.821 411.6L511.878 411.999C511.898 412.132 511.917 412.265 511.936 412.398L511.992 412.797C512.012 412.93 512.031 413.062 512.05 413.195C512.069 413.328 512.089 413.461 512.108 413.594C512.126 413.727 512.145 413.86 512.165 413.993C512.186 414.126 512.203 414.257 512.223 414.392C512.244 414.526 512.261 414.656 512.281 414.789C512.302 414.922 512.32 415.055 512.339 415.188C512.358 415.321 512.378 415.453 512.397 415.586C512.416 415.719 512.436 415.852 512.456 415.985C512.477 416.118 512.495 416.251 512.514 416.384C512.533 416.517 512.553 416.65 512.574 416.781C512.594 416.912 512.613 417.047 512.633 417.18C512.653 417.313 512.672 417.446 512.692 417.579C512.713 417.712 512.732 417.844 512.752 417.977C512.772 418.11 512.791 418.243 512.811 418.374C512.832 418.506 512.85 418.64 512.871 418.773C512.891 418.906 512.911 419.039 512.93 419.172L512.991 419.569L513.052 419.968C513.072 420.101 513.093 420.234 513.112 420.367L513.173 420.764C513.193 420.897 513.213 421.03 513.235 421.163L513.296 421.56L513.357 421.958C513.377 422.091 513.399 422.224 513.42 422.356C513.44 422.487 513.46 422.621 513.482 422.754L513.543 423.152C513.565 423.284 513.585 423.417 513.607 423.55C513.629 423.683 513.648 423.816 513.67 423.947C513.692 424.079 513.712 424.213 513.732 424.346C513.753 424.479 513.775 424.61 513.797 424.743C513.818 424.876 513.839 425.009 513.861 425.14C513.883 425.272 513.903 425.406 513.925 425.539C513.947 425.672 513.967 425.803 513.989 425.936C514.011 426.069 514.031 426.202 514.053 426.333L514.119 426.732L514.184 427.129L514.25 427.526L514.316 427.924C514.338 428.057 514.36 428.189 514.383 428.321L514.449 428.718C514.472 428.851 514.494 428.984 514.516 429.115C514.538 429.246 514.561 429.381 514.585 429.512C514.608 429.643 514.63 429.778 514.652 429.909C514.674 430.041 514.697 430.175 514.721 430.306C514.744 430.438 514.768 430.572 514.79 430.704L514.86 431.101L514.93 431.498L515.001 431.895L515.071 432.29C515.095 432.423 515.12 432.556 515.143 432.687C515.166 432.819 515.191 432.952 515.215 433.085C515.238 433.218 515.263 433.349 515.288 433.48C515.313 433.611 515.337 433.746 515.362 433.877C515.387 434.009 515.41 434.141 515.435 434.273L515.51 434.67C515.536 434.803 515.562 434.934 515.587 435.065C515.612 435.197 515.637 435.33 515.664 435.461C515.69 435.592 515.715 435.727 515.74 435.856C515.765 435.986 515.794 436.122 515.819 436.252C515.844 436.381 515.872 436.518 515.898 436.647C515.925 436.777 515.951 436.913 515.978 437.043C516.005 437.172 516.033 437.309 516.061 437.438C516.089 437.568 516.116 437.702 516.142 437.834C516.169 437.965 516.199 438.098 516.227 438.228C516.255 438.357 516.283 438.493 516.313 438.623C516.342 438.753 516.371 438.887 516.399 439.017C516.427 439.147 516.458 439.281 516.488 439.411C516.518 439.54 516.549 439.677 516.579 439.805C516.608 439.933 516.64 440.07 516.671 440.198C516.702 440.326 516.733 440.464 516.766 440.592C516.799 440.72 516.83 440.857 516.863 440.985C516.896 441.113 516.93 441.249 516.963 441.378C516.996 441.508 517.034 441.643 517.068 441.769C517.102 441.895 517.14 442.035 517.176 442.161C517.212 442.287 517.251 442.425 517.289 442.552C517.326 442.678 517.368 442.816 517.407 442.942C517.447 443.069 517.492 443.206 517.534 443.331C517.576 443.456 517.625 443.595 517.67 443.718C517.716 443.842 517.772 443.984 517.827 444.102C517.886 444.245 517.944 444.372 518.002 444.485C518.066 444.616 518.141 444.742 518.227 444.859C518.361 445.041 518.49 445.131 518.61 445.12C518.73 445.108 518.843 444.982 518.923 444.761C518.973 444.622 519.013 444.48 519.042 444.335C519.067 444.211 519.09 444.073 519.11 443.919C519.128 443.791 519.143 443.653 519.156 443.507C519.168 443.361 519.178 443.239 519.187 443.095C519.196 442.95 519.203 442.827 519.209 442.685C519.215 442.542 519.218 442.417 519.221 442.276C519.225 442.135 519.221 442.009 519.229 441.869C519.237 441.73 519.229 441.602 519.229 441.462C519.229 441.323 519.229 441.193 519.229 441.055C519.229 440.917 519.229 440.779 519.228 440.648Z" fill="url(#paint1_linear_1221_2091)"/>
<path d="M481.011 387.433C481.011 387.433 481.011 387.486 480.99 387.586C480.97 387.686 480.954 387.86 480.925 388.078C480.907 388.221 480.885 388.387 480.86 388.57C480.842 388.721 480.82 388.885 480.796 389.063C480.778 389.217 480.756 389.383 480.732 389.555C480.709 389.727 480.691 389.883 480.67 390.047C480.648 390.211 480.627 390.375 480.605 390.54C480.584 390.704 480.565 390.868 480.543 391.032C480.521 391.196 480.501 391.36 480.479 391.524C480.457 391.688 480.438 391.852 480.416 392.017C480.394 392.181 480.376 392.345 480.354 392.509C480.332 392.673 480.313 392.837 480.291 393.001C480.269 393.165 480.251 393.329 480.229 393.493C480.207 393.658 480.188 393.822 480.168 393.986C480.147 394.15 480.125 394.314 480.105 394.478C480.085 394.642 480.064 394.806 480.042 394.97C480.021 395.134 480.002 395.299 479.982 395.463C479.961 395.627 479.941 395.791 479.921 395.955C479.9 396.119 479.88 396.283 479.858 396.447C479.836 396.611 479.817 396.775 479.797 396.94C479.777 397.104 479.756 397.268 479.736 397.432L479.675 397.924C479.656 398.088 479.636 398.252 479.616 398.417C479.595 398.581 479.575 398.745 479.555 398.909L479.494 399.401C479.475 399.565 479.455 399.729 479.434 399.893L479.373 400.386C479.354 400.55 479.334 400.714 479.314 400.878C479.293 401.042 479.275 401.206 479.254 401.37C479.234 401.534 479.215 401.699 479.195 401.863C479.175 402.027 479.156 402.191 479.135 402.355C479.115 402.519 479.096 402.683 479.076 402.847C479.056 403.011 479.037 403.175 479.018 403.34C478.999 403.504 478.979 403.668 478.959 403.832C478.938 403.996 478.92 404.16 478.899 404.324C478.879 404.488 478.862 404.652 478.841 404.817C478.821 404.981 478.802 405.145 478.784 405.309C478.765 405.473 478.745 405.637 478.726 405.801C478.707 405.965 478.687 406.129 478.668 406.293C478.649 406.458 478.629 406.622 478.61 406.786C478.591 406.95 478.571 407.114 478.552 407.278C478.533 407.442 478.515 407.606 478.494 407.77L478.438 408.263L478.382 408.755C478.363 408.919 478.343 409.083 478.324 409.247L478.268 409.74L478.211 410.232L478.155 410.724C478.138 410.888 478.119 411.052 478.1 411.217L478.044 411.709C478.025 411.873 478.008 412.037 477.989 412.201C477.97 412.365 477.952 412.529 477.934 412.693C477.917 412.858 477.897 413.022 477.88 413.186C477.863 413.35 477.842 413.514 477.825 413.678C477.808 413.842 477.787 414.006 477.77 414.17C477.753 414.334 477.734 414.499 477.716 414.663C477.697 414.827 477.68 414.991 477.662 415.155C477.645 415.319 477.626 415.483 477.609 415.647C477.592 415.811 477.573 415.975 477.556 416.14C477.539 416.304 477.52 416.468 477.503 416.632C477.486 416.796 477.467 416.96 477.45 417.124C477.432 417.288 477.415 417.452 477.396 417.617L477.345 418.109L477.293 418.601L477.242 419.093L477.19 419.586C477.173 419.75 477.156 419.914 477.14 420.078L477.088 420.57C477.073 420.734 477.056 420.899 477.038 421.063C477.021 421.227 477.006 421.391 476.988 421.555C476.971 421.719 476.955 421.883 476.94 422.047C476.924 422.211 476.907 422.375 476.89 422.54C476.873 422.704 476.859 422.868 476.841 423.032C476.824 423.196 476.81 423.36 476.793 423.524L476.746 424.017L476.699 424.509C476.682 424.673 476.668 424.837 476.652 425.001L476.605 425.493C476.59 425.661 476.574 425.825 476.558 425.986C476.544 426.15 476.529 426.314 476.513 426.478C476.497 426.642 476.483 426.806 476.469 426.97C476.455 427.134 476.439 427.299 476.424 427.463C476.408 427.627 476.396 427.791 476.38 427.955C476.364 428.119 476.352 428.283 476.338 428.447C476.324 428.611 476.308 428.775 476.294 428.94C476.28 429.104 476.266 429.268 476.253 429.432C476.241 429.596 476.225 429.76 476.211 429.924C476.197 430.088 476.184 430.252 476.17 430.417C476.156 430.581 476.144 430.745 476.131 430.909C476.119 431.073 476.105 431.237 476.092 431.401C476.08 431.565 476.066 431.729 476.053 431.893C476.041 432.058 476.028 432.222 476.017 432.386L475.98 432.878C475.969 433.042 475.956 433.206 475.945 433.37C475.934 433.534 475.922 433.699 475.911 433.863L475.878 434.355L475.845 434.847C475.834 435.011 475.825 435.175 475.815 435.34C475.806 435.504 475.795 435.668 475.786 435.832C475.776 435.996 475.767 436.16 475.758 436.324C475.748 436.488 475.74 436.652 475.733 436.817C475.725 436.981 475.715 437.145 475.708 437.309C475.7 437.473 475.692 437.645 475.686 437.809C475.679 437.973 475.672 438.146 475.665 438.31C475.659 438.474 475.654 438.648 475.648 438.812C475.642 438.976 475.639 439.14 475.634 439.304C475.629 439.468 475.634 439.642 475.623 439.806C475.612 439.971 475.623 440.144 475.615 440.309C475.607 440.473 475.615 440.648 475.615 440.812C475.615 440.976 475.615 441.152 475.615 441.316C475.615 441.48 475.615 441.658 475.623 441.82C475.631 441.982 475.634 442.165 475.642 442.327C475.65 442.49 475.659 442.673 475.67 442.834C475.681 442.995 475.698 443.187 475.715 443.344C475.736 443.533 475.761 443.706 475.787 443.858C475.817 444.036 475.861 444.212 475.92 444.382C476.008 444.616 476.113 444.748 476.233 444.761C476.353 444.774 476.483 444.675 476.618 444.485C476.717 444.339 476.803 444.183 476.876 444.021C476.941 443.881 477.007 443.72 477.073 443.545C477.129 443.399 477.185 443.238 477.243 443.067C477.301 442.896 477.345 442.755 477.4 442.586C477.454 442.417 477.493 442.271 477.542 442.104C477.59 441.937 477.63 441.786 477.675 441.612C477.72 441.438 477.759 441.293 477.802 441.119C477.844 440.945 477.881 440.799 477.922 440.627C477.963 440.455 478 440.307 478.039 440.135C478.078 439.962 478.114 439.806 478.152 439.642L478.261 439.15L478.368 438.658C478.402 438.497 478.436 438.333 478.471 438.165C478.505 438.001 478.54 437.837 478.573 437.673C478.605 437.509 478.64 437.345 478.673 437.181C478.705 437.017 478.738 436.853 478.771 436.689C478.804 436.524 478.835 436.36 478.867 436.196C478.898 436.032 478.931 435.868 478.962 435.704C478.993 435.54 479.023 435.376 479.054 435.212C479.085 435.047 479.115 434.883 479.146 434.719C479.178 434.555 479.207 434.391 479.237 434.227L479.326 433.735L479.415 433.242C479.445 433.078 479.473 432.914 479.503 432.75C479.533 432.586 479.561 432.422 479.589 432.258C479.617 432.094 479.647 431.93 479.675 431.765L479.759 431.273L479.844 430.781C479.871 430.617 479.899 430.453 479.927 430.289C479.955 430.124 479.982 429.96 480.01 429.796C480.038 429.632 480.063 429.468 480.091 429.304C480.119 429.14 480.144 428.976 480.172 428.812L480.252 428.319L480.332 427.827L480.412 427.335C480.438 427.171 480.465 427.006 480.49 426.842C480.515 426.678 480.543 426.514 480.568 426.35C480.593 426.186 480.62 426.022 480.646 425.858C480.673 425.694 480.698 425.53 480.723 425.365C480.748 425.201 480.774 425.037 480.801 424.873C480.828 424.709 480.851 424.545 480.876 424.381C480.901 424.217 480.928 424.053 480.953 423.889C480.978 423.724 481.003 423.56 481.028 423.396C481.053 423.232 481.078 423.068 481.103 422.904L481.178 422.412C481.203 422.247 481.226 422.083 481.251 421.919C481.276 421.755 481.301 421.591 481.325 421.427C481.348 421.263 481.375 421.099 481.398 420.935C481.422 420.771 481.448 420.606 481.472 420.442C481.495 420.278 481.52 420.114 481.545 419.95C481.57 419.786 481.592 419.622 481.617 419.458C481.642 419.294 481.666 419.13 481.689 418.965C481.713 418.801 481.738 418.637 481.761 418.473C481.785 418.309 481.808 418.145 481.833 417.981L481.903 417.489L481.974 416.996C481.999 416.832 482.022 416.668 482.046 416.504L482.116 416.012C482.14 415.847 482.162 415.683 482.185 415.519L482.255 415.027C482.279 414.863 482.302 414.699 482.324 414.535L482.395 414.042C482.416 413.878 482.44 413.714 482.463 413.55C482.487 413.386 482.509 413.222 482.532 413.058C482.556 412.894 482.577 412.73 482.601 412.565C482.624 412.401 482.646 412.237 482.668 412.073C482.69 411.909 482.714 411.745 482.737 411.581C482.76 411.417 482.782 411.253 482.804 411.089C482.826 410.924 482.85 410.76 482.871 410.596C482.893 410.432 482.917 410.268 482.939 410.104C482.961 409.94 482.984 409.776 483.006 409.612C483.028 409.447 483.051 409.283 483.073 409.119C483.095 408.955 483.119 408.791 483.14 408.627L483.206 408.135C483.228 407.971 483.252 407.806 483.273 407.642L483.339 407.15L483.405 406.658L483.47 406.165L483.536 405.673L483.602 405.181C483.624 405.017 483.646 404.853 483.666 404.689L483.732 404.196C483.754 404.032 483.775 403.868 483.796 403.704L483.861 403.212C483.882 403.047 483.904 402.883 483.926 402.719C483.947 402.555 483.968 402.391 483.99 402.227C484.012 402.063 484.032 401.899 484.054 401.735C484.076 401.571 484.096 401.406 484.118 401.242C484.14 401.078 484.16 400.914 484.18 400.75C484.201 400.586 484.224 400.422 484.245 400.258C484.265 400.094 484.287 399.93 484.309 399.765C484.331 399.601 484.351 399.437 484.371 399.273C484.392 399.109 484.413 398.945 484.434 398.781C484.454 398.617 484.476 398.453 484.496 398.289C484.517 398.124 484.539 397.96 484.56 397.796C484.582 397.632 484.601 397.468 484.621 397.304C484.642 397.14 484.664 396.976 484.684 396.812C484.704 396.647 484.726 396.483 484.747 396.319C484.767 396.155 484.789 395.991 484.809 395.827C484.829 395.663 484.85 395.499 484.87 395.335C484.89 395.171 484.912 395.006 484.933 394.842C484.953 394.678 484.973 394.514 484.994 394.35C485.014 394.186 485.034 394.022 485.055 393.858C485.075 393.694 485.097 393.53 485.116 393.365C485.134 393.201 485.158 393.037 485.177 392.873C485.195 392.709 485.219 392.545 485.238 392.381C485.256 392.217 485.28 392.053 485.299 391.889C485.317 391.724 485.339 391.56 485.36 391.396C485.38 391.232 485.4 391.068 485.419 390.904C485.438 390.74 485.461 390.566 485.48 390.412C485.499 390.257 485.521 390.074 485.539 389.919C485.558 389.765 485.58 389.578 485.599 389.427C485.621 389.246 485.641 389.081 485.658 388.935C485.682 388.743 485.7 388.577 485.718 388.442C485.755 388.129 485.774 387.962 485.774 387.962L485.389 387.891L481.011 387.433Z" fill="url(#paint2_linear_1221_2091)"/>
<path d="M549.327 442.365C549.327 442.191 549.327 442.01 549.315 441.825C549.302 441.639 549.304 441.47 549.296 441.285C549.288 441.1 549.279 440.932 549.269 440.748C549.26 440.565 549.249 440.397 549.237 440.213C549.224 440.03 549.213 439.861 549.201 439.678C549.188 439.496 549.174 439.326 549.16 439.145C549.146 438.965 549.13 438.794 549.115 438.613C549.099 438.433 549.083 438.261 549.068 438.08C549.052 437.9 549.035 437.729 549.018 437.548C549 437.368 548.983 437.197 548.964 437.018C548.946 436.839 548.928 436.667 548.91 436.488C548.891 436.309 548.872 436.137 548.853 435.958C548.835 435.779 548.814 435.607 548.794 435.428C548.774 435.249 548.755 435.077 548.734 434.898C548.714 434.719 548.694 434.549 548.672 434.37C548.65 434.191 548.63 434.019 548.609 433.841C548.589 433.664 548.566 433.49 548.544 433.313C548.522 433.136 548.501 432.963 548.478 432.786L548.412 432.258C548.389 432.084 548.367 431.907 548.344 431.731C548.32 431.555 548.298 431.38 548.275 431.202L548.204 430.676C548.181 430.502 548.157 430.326 548.132 430.149C548.107 429.972 548.086 429.799 548.06 429.622C548.035 429.445 548.014 429.273 547.989 429.097C547.964 428.921 547.94 428.746 547.915 428.57C547.89 428.395 547.865 428.221 547.84 428.044L547.765 427.518C547.74 427.343 547.715 427.169 547.69 426.992C547.665 426.814 547.638 426.644 547.613 426.467C547.588 426.289 547.562 426.117 547.537 425.941C547.512 425.766 547.485 425.592 547.458 425.416C547.432 425.241 547.407 425.067 547.38 424.891C547.354 424.716 547.329 424.542 547.302 424.366L547.222 423.841L547.142 423.316C547.116 423.142 547.089 422.966 547.061 422.792L546.981 422.267C546.953 422.093 546.927 421.918 546.9 421.742C546.874 421.566 546.845 421.394 546.817 421.219C546.789 421.043 546.763 420.869 546.736 420.693C546.709 420.518 546.681 420.345 546.653 420.17C546.625 419.994 546.598 419.82 546.57 419.646L546.486 419.121C546.459 418.947 546.431 418.773 546.403 418.598L546.318 418.074L546.234 417.551L546.149 417.027C546.12 416.852 546.092 416.678 546.063 416.504C546.035 416.33 546.006 416.154 545.977 415.98C545.949 415.806 545.921 415.631 545.891 415.457C545.862 415.283 545.834 415.107 545.805 414.933C545.777 414.759 545.748 414.584 545.719 414.41C545.691 414.236 545.662 414.06 545.632 413.886C545.602 413.712 545.574 413.538 545.544 413.363C545.515 413.187 545.486 413.015 545.457 412.839C545.427 412.664 545.399 412.492 545.369 412.318C545.339 412.144 545.31 411.968 545.282 411.794L545.192 411.271L545.103 410.749C545.075 410.575 545.045 410.401 545.016 410.225L544.927 409.703C544.897 409.529 544.866 409.354 544.836 409.18L544.747 408.658C544.717 408.484 544.687 408.31 544.656 408.136L544.567 407.613C544.537 407.439 544.506 407.265 544.476 407.091C544.446 406.917 544.415 406.741 544.385 406.567C544.356 406.393 544.324 406.22 544.295 406.046C544.265 405.872 544.234 405.698 544.204 405.524C544.174 405.35 544.143 405.176 544.112 405.002C544.081 404.828 544.051 404.652 544.021 404.48C543.991 404.308 543.959 404.131 543.929 403.957C543.899 403.783 543.868 403.609 543.837 403.435C543.805 403.261 543.776 403.087 543.744 402.913C543.713 402.739 543.683 402.565 543.652 402.391C543.621 402.217 543.591 402.043 543.56 401.869L543.466 401.347C543.436 401.173 543.405 400.999 543.374 400.825L543.28 400.304C543.249 400.13 543.219 399.956 543.188 399.782L543.094 399.26L543 398.738L542.906 398.216L542.812 397.696C542.779 397.52 542.748 397.347 542.717 397.174C542.686 397.002 542.654 396.825 542.623 396.652C542.592 396.48 542.559 396.304 542.528 396.13L542.434 395.61C542.401 395.435 542.37 395.261 542.338 395.088C542.307 394.916 542.274 394.741 542.243 394.567C542.212 394.393 542.179 394.219 542.148 394.046C542.116 393.874 542.083 393.697 542.052 393.525C542.021 393.352 541.988 393.175 541.957 393.003C541.926 392.83 541.893 392.655 541.86 392.483C541.827 392.31 541.796 392.133 541.764 391.961C541.733 391.788 541.7 391.613 541.667 391.44C541.635 391.268 541.603 391.091 541.572 390.919C541.541 390.746 541.506 390.569 541.475 390.398C541.444 390.228 541.411 390.049 541.378 389.877C541.345 389.704 541.314 389.527 541.281 389.356C541.248 389.186 541.217 389.007 541.184 388.835C541.151 388.662 541.119 388.485 541.087 388.314C541.056 388.144 541.022 387.965 540.99 387.792C540.959 387.62 540.925 387.443 540.892 387.272C540.859 387.102 540.826 386.923 540.795 386.752C540.764 386.581 540.729 386.403 540.696 386.23C540.664 386.058 540.631 385.881 540.598 385.71C540.565 385.539 540.532 385.36 540.501 385.19C540.47 385.019 540.434 384.839 540.402 384.67C540.371 384.501 540.335 384.317 540.304 384.148C540.273 383.979 540.237 383.797 540.204 383.628C540.171 383.459 540.136 383.275 540.105 383.107C540.074 382.94 540.038 382.754 540.007 382.587C539.975 382.42 539.938 382.231 539.907 382.067C539.875 381.903 539.838 381.709 539.807 381.547C539.771 381.36 539.738 381.186 539.706 381.026C539.67 380.831 539.636 380.659 539.606 380.506C539.566 380.291 539.531 380.116 539.506 379.986L539.452 379.704L539.062 380.086L538.34 380.792L537.617 381.497L536.893 382.203L536.171 382.909L535.448 383.614L535.265 383.793L535.342 384.181C535.37 384.318 535.404 384.492 535.447 384.699C535.476 384.853 535.511 385.027 535.55 385.219C535.581 385.383 535.617 385.548 535.653 385.738C535.689 385.928 535.72 386.076 535.758 386.258L535.861 386.777C535.895 386.941 535.93 387.118 535.966 387.297C536.002 387.476 536.035 387.638 536.07 387.815C536.106 387.993 536.139 388.157 536.174 388.336L536.279 388.854C536.313 389.018 536.347 389.197 536.383 389.374L536.488 389.893C536.522 390.057 536.557 390.236 536.593 390.412C536.629 390.587 536.662 390.756 536.698 390.932C536.734 391.107 536.766 391.275 536.802 391.45C536.838 391.626 536.871 391.795 536.907 391.969C536.943 392.143 536.978 392.313 537.012 392.489C537.046 392.665 537.082 392.832 537.118 393.008C537.154 393.183 537.187 393.352 537.223 393.526C537.259 393.7 537.292 393.871 537.328 394.046C537.364 394.222 537.398 394.391 537.433 394.565C537.467 394.739 537.503 394.91 537.539 395.084C537.575 395.257 537.609 395.428 537.644 395.604C537.678 395.779 537.714 395.948 537.75 396.122C537.786 396.296 537.82 396.467 537.855 396.641C537.889 396.815 537.925 396.985 537.961 397.159C537.997 397.333 538.032 397.504 538.068 397.68C538.103 397.855 538.138 398.024 538.172 398.198C538.207 398.372 538.244 398.543 538.279 398.717C538.313 398.891 538.349 399.061 538.385 399.235C538.421 399.409 538.455 399.58 538.491 399.754C538.527 399.928 538.562 400.1 538.598 400.272C538.634 400.445 538.668 400.619 538.704 400.793C538.74 400.967 538.774 401.137 538.81 401.311C538.846 401.485 538.881 401.656 538.917 401.83C538.953 402.004 538.987 402.174 539.023 402.348C539.059 402.522 539.095 402.693 539.129 402.867L539.237 403.385C539.272 403.55 539.308 403.732 539.344 403.904C539.38 404.076 539.416 404.25 539.45 404.423L539.558 404.941C539.594 405.115 539.63 405.287 539.664 405.461L539.772 405.98L539.88 406.499C539.914 406.671 539.95 406.843 539.986 407.017L540.094 407.536L540.202 408.054L540.31 408.573L540.418 409.091L540.526 409.608L540.634 410.127L540.742 410.645L540.85 411.164C540.886 411.328 540.923 411.51 540.959 411.683L541.067 412.201C541.103 412.373 541.139 412.546 541.176 412.72L541.284 413.238C541.32 413.402 541.358 413.583 541.394 413.755L541.502 414.274C541.539 414.446 541.575 414.62 541.611 414.792C541.647 414.965 541.685 415.137 541.721 415.311C541.757 415.485 541.794 415.655 541.83 415.828C541.866 416 541.904 416.174 541.94 416.346C541.976 416.519 542.013 416.693 542.049 416.865C542.085 417.037 542.123 417.209 542.16 417.383C542.198 417.557 542.234 417.728 542.27 417.9C542.306 418.073 542.343 418.247 542.379 418.419C542.415 418.591 542.453 418.764 542.49 418.936C542.528 419.108 542.564 419.282 542.601 419.454C542.639 419.627 542.675 419.801 542.711 419.973C542.747 420.145 542.786 420.318 542.822 420.49C542.858 420.662 542.897 420.836 542.933 421.008C542.969 421.181 543.008 421.353 543.044 421.525L543.156 422.044C543.192 422.216 543.23 422.389 543.267 422.561C543.305 422.733 543.342 422.907 543.378 423.078L543.491 423.596L543.604 424.113C543.641 424.287 543.679 424.46 543.716 424.63L543.829 425.149L543.941 425.666L544.054 426.183C544.093 426.357 544.131 426.529 544.168 426.7C544.206 426.87 544.243 427.046 544.282 427.218L544.395 427.735C544.434 427.899 544.471 428.08 544.511 428.252C544.55 428.424 544.586 428.597 544.625 428.769C544.664 428.941 544.701 429.113 544.739 429.286C544.776 429.458 544.817 429.63 544.855 429.803C544.892 429.975 544.931 430.147 544.97 430.32C545.009 430.492 545.047 430.664 545.086 430.835C545.125 431.006 545.164 431.181 545.202 431.352C545.239 431.523 545.28 431.698 545.319 431.869C545.358 432.039 545.397 432.213 545.436 432.386L545.554 432.901C545.594 433.075 545.633 433.247 545.673 433.418C545.712 433.589 545.751 433.763 545.791 433.933C545.832 434.104 545.871 434.279 545.91 434.45C545.949 434.621 545.99 434.795 546.029 434.965C546.068 435.136 546.11 435.31 546.149 435.481C546.189 435.651 546.231 435.827 546.271 435.996C546.312 436.165 546.353 436.342 546.393 436.511C546.434 436.68 546.475 436.857 546.515 437.026C546.556 437.196 546.598 437.373 546.639 437.542L546.764 438.057C546.806 438.231 546.849 438.402 546.889 438.571C546.93 438.74 546.975 438.917 547.016 439.086L547.144 439.6C547.188 439.774 547.232 439.944 547.274 440.113L547.407 440.625C547.452 440.801 547.496 440.972 547.54 441.139L547.676 441.651C547.724 441.828 547.77 441.997 547.815 442.161C547.86 442.325 547.912 442.509 547.959 442.673C548.006 442.837 548.059 443.021 548.115 443.182C548.172 443.343 548.22 443.532 548.272 443.689C548.331 443.875 548.386 444.044 548.439 444.195C548.508 444.39 548.57 444.557 548.628 444.695C548.785 445.064 548.903 445.217 548.978 445.12C549.087 444.954 549.161 444.765 549.194 444.567C549.233 444.382 549.262 444.194 549.28 444.006C549.297 443.842 549.31 443.653 549.319 443.453C549.329 443.289 549.333 443.1 549.335 442.908C549.337 442.716 549.329 442.553 549.327 442.365Z" fill="url(#paint3_linear_1221_2091)"/>
<path d="M519.821 279.89C519.821 279.89 521.568 271.713 532.047 270.727C542.526 269.74 557.573 274.028 562.679 287.109C567.785 300.19 559.455 322.074 557.439 339.189C555.423 356.303 555.692 377.872 528.688 388.869C501.683 399.865 475.253 388.728 470.13 382.525L466.337 365.325L492.267 363.069L506.911 348.344L505.139 291.169L519.821 279.89Z" fill="#1111BA"/>
<g opacity="0.57">
<path d="M469.448 367.372C469.448 367.372 477.059 381.337 501.547 377.955C526.035 374.572 537.591 375.985 536.92 359.626C536.249 343.267 545.787 330.302 543.771 320.57C541.755 310.837 545.352 284.014 530.605 278.275C515.858 272.537 508.092 293.603 508.092 293.603L469.448 367.372Z" fill="#040472"/>
</g>
<path d="M481.48 305.877C481.345 305.877 476.645 312.128 474.314 312.786C471.984 313.444 460.747 302.024 457.342 299.165C453.938 296.307 447.848 296.44 441.624 297.615C435.4 298.79 438.445 304.569 445.519 304.476C452.594 304.382 453.223 304.007 453.223 304.007C453.223 304.007 464.597 320.031 471.001 322.992C477.405 325.952 486.182 314.11 486.182 314.11L481.48 305.877Z" fill="#FDB2D0"/>
<path d="M460.922 314.713C460.922 314.713 468.178 324.173 474.313 321.182C480.448 318.19 483.314 312.848 483 310.139L486.922 315.464L483.985 320.563L475.867 325.145L470.283 324.958L461.056 316.917L460.922 314.713Z" fill="#F476AF"/>
<path d="M478.196 427.576C480.698 422.438 479.569 420.619 481.48 417.863C481.48 417.863 478.352 407.995 476.644 399.911C474.937 391.828 471.359 376.039 469.294 369.46C469.294 369.46 468.638 369.116 470.847 368.865L473.057 368.52L476.818 363.162L477.525 355.664L458.491 355.118C458.491 355.118 453.923 356.245 452.252 359.818C450.58 363.39 453.775 373.194 455.178 376.077C456.58 378.96 470.642 409.411 472.344 414.674C474.045 419.937 474.583 425.012 471.628 430.088C471.285 430.677 470.904 431.298 470.509 431.934C472.216 431.952 476.249 431.563 478.196 427.576Z" fill="#F476AF"/>
<path d="M485.779 424.63C484.528 419.743 481.48 417.863 481.48 417.863C479.569 420.619 480.698 422.438 478.196 427.576C476.249 431.563 472.216 431.952 470.51 431.928C467.502 436.774 463.658 442.516 469.121 442.018C475.3 441.454 480.047 437.788 481.122 435.72C482.196 433.652 482.287 427.825 482.287 427.825L485.69 433.652L488.467 432.34C488.467 432.34 487.033 429.517 485.779 424.63Z" fill="#090041"/>
<path d="M442.609 421.059C440.529 421.563 439.13 421.579 438.183 421.369C436.75 422.883 435.216 424.287 433.592 425.57C424.991 432.463 434.374 432.149 438.37 431.642C442.365 431.135 446.189 430.452 447.864 427.006C449.539 423.56 450.61 422.182 450.61 422.182L451.392 429.701L454.288 429.67C454.288 429.67 454.885 424.156 455.811 420.052C456.737 415.947 456.349 414.098 454.885 411.655C449.654 413.665 449.057 419.492 442.609 421.059Z" fill="#090041"/>
<path d="M474.313 349.722L471.746 348.344C471.746 348.344 461.054 349.409 458.324 353.326C455.593 357.243 448.877 397.327 446.325 405.363C444.312 411.697 442.901 416.32 438.182 421.369C439.128 421.579 440.527 421.563 442.607 421.059C449.055 419.492 449.652 413.665 454.877 411.659C454.877 411.659 454.341 408.888 457.296 401.744C460.252 394.601 463.117 387.505 464.819 381.819C466.52 376.133 468.134 366.922 469.297 364.667C470.461 362.412 475.03 360.108 475.03 360.108L474.313 349.722Z" fill="#FDB2D0"/>
<path d="M503.812 332.649L502.26 333.745C502.26 333.745 502.26 341.671 500.528 342.298C498.795 342.925 477.66 343.237 467.926 346.747C467.926 346.747 473.713 349.126 473.778 357.148C473.844 365.169 472.704 367.924 470.852 368.865C470.852 368.865 480.645 370.744 495.453 370.998C510.261 371.252 522.8 367.427 528.652 365.233C534.504 363.039 537.841 349.13 524.917 331.305L503.812 332.649Z" fill="#FF8403"/>
<g opacity="0.69">
<path d="M472.982 364.019C472.982 364.019 504.287 366.142 518.751 360.44C533.215 354.737 512.416 356.022 513.999 352.697C515.581 349.373 522.157 342.323 519.216 333.437L531.531 327.009L543.155 337.892L547.607 354.44L546.458 368.225C546.458 368.225 527.965 381.419 527.701 381.419C527.437 381.419 492.827 381.642 492.827 381.642L474.663 379.63L466.337 375.467L472.982 364.019Z" fill="#E06A00"/>
</g>
<path d="M524.917 309.333C524.917 309.333 530.921 321.864 530.742 323.305C530.564 324.746 518.56 343.043 518.56 343.043C518.56 343.043 504.29 345.049 505.186 350.06C506.082 355.072 518.441 351.188 520.95 347.554C520.95 347.554 529.488 339.159 535.518 331.389C541.548 323.618 539.584 322.178 536.654 314.785C533.723 307.392 532.355 305.135 532.355 305.135L524.917 309.333Z" fill="#FDB2D0"/>
<path d="M529.277 308.964C529.277 308.964 532.561 308.964 535.845 316.044C539.129 323.123 538.169 326.321 534.172 332.057C530.175 337.792 527.127 344.115 527.127 344.115L542.89 326.947C542.89 326.947 543.965 318.801 543.905 318.174C543.846 317.547 534.172 304.64 534.172 304.64L528.855 304.702L529.277 308.964Z" fill="#F476AF"/>
<path d="M492.05 288.632L489.929 288.725C489.929 288.725 482.823 298.594 480.495 305.549C480.495 305.549 483.541 314.478 487.302 315.605L493.302 308.744L494.199 294.385L492.05 288.632Z" fill="white"/>
<path d="M488.822 287.508C488.688 287.555 490.973 289.764 490.435 300.572C489.897 311.38 485.646 318.853 486.182 318.43C486.719 318.006 496.301 310.674 496.301 310.674C496.301 310.674 495.362 291.966 495.226 291.738C495.09 291.51 488.822 287.508 488.822 287.508Z" fill="#DEE7FF"/>
<path d="M496.885 284.214L495.826 285.081L489.929 288.725C489.929 288.725 491.87 292.485 492.139 300.098C492.408 307.71 492.228 311.281 495.991 316.45C499.753 321.62 502.438 330.173 502.26 333.745C502.26 333.745 505.761 335.268 511.873 335.093C518.382 334.904 524.917 331.302 524.917 331.302L524.382 307.899L518.74 285.253L499.491 283.65L496.885 284.214Z" fill="white"/>
<path d="M508.079 337.27C508.438 337.316 517.484 336.752 516.857 326.791C516.23 316.83 494.585 318.238 503.124 312.41C511.662 306.583 514.08 301.883 511.841 297.278C509.601 292.674 506.378 288.632 506.378 288.632C506.378 288.632 520.844 282.429 522.3 282.429C523.755 282.429 529.038 289.383 529.038 290.98C529.038 292.577 526.888 316.828 526.71 319.271C526.531 321.715 524.917 333.65 524.917 333.65L508.079 337.27Z" fill="#DEE7FF"/>
<path d="M502.407 336.171C502.136 332.814 501.639 329.482 500.92 326.2C500.04 322.192 497.844 319.071 495.916 316.318C495.251 315.371 494.622 314.478 494.111 313.63C492.131 310.347 492.091 307.079 492.191 300.573C492.285 294.487 490.352 289.523 490.081 289.213C490.115 289.243 490.157 289.261 490.202 289.265C490.246 289.268 490.29 289.257 490.328 289.232L490.09 288.807C490.129 288.783 490.174 288.771 490.219 288.771C490.264 288.771 490.308 288.783 490.347 288.807C490.825 289.099 492.754 294.411 492.66 300.577C492.56 307.154 492.596 310.196 494.507 313.362C495.01 314.196 495.634 315.083 496.294 316.022C498.16 318.676 500.482 321.979 501.384 326.087C502.11 329.394 502.61 332.752 502.883 336.135L502.407 336.171Z" fill="#2E52C6"/>
<path d="M522.773 310.766C520.556 308.13 516.33 291.32 516.152 290.604L516.605 290.479C516.649 290.653 520.984 307.891 523.125 310.439L522.773 310.766Z" fill="#2E52C6"/>
<path d="M516.277 290.133C516.277 290.133 519.092 302.59 522.95 310.6C522.95 310.6 531.01 311.657 533.16 305.359C533.16 305.359 529.308 295.961 525.906 289.569C522.503 283.177 516.143 283.838 516.277 290.133Z" fill="white"/>
<path d="M519.664 288.35C519.664 288.35 522.291 287.096 523.187 289.101C524.083 291.106 531.726 309.84 531.726 309.84L536.144 307.021L526.173 285.842L521.755 284.109L519.664 288.35Z" fill="#DEE7FF"/>
<path d="M485.033 257.385C485.033 257.385 485.705 263.511 486.284 269.529C486.863 275.546 490.494 276.913 493.271 276.672C496.049 276.431 495.509 276.72 495.823 278.175C496.138 279.631 495.823 285.084 495.823 285.084C495.823 285.084 499.81 288.937 503.302 286.024L504.553 256.888L488.566 251.719L484.908 254.631L485.033 257.385Z" fill="#FDB2D0"/>
<path d="M502.884 273.641L494.397 277.023C494.397 277.023 499.301 276.789 500.809 283.463C502.316 290.137 504.249 289.031 504.249 289.031L506.623 284.285L502.884 273.641Z" fill="#F476AF"/>
<path d="M484.658 260.367C484.658 260.367 488.204 254.28 488.128 256.863C488.128 256.981 490.345 261.117 493.525 260.741L495.87 260.085C495.87 260.085 495.848 263.531 498.67 263.186C501.491 262.841 502.432 261.33 502.432 261.33C502.432 261.33 503.148 264.525 502.656 270.164C502.163 275.802 504.617 261.794 504.554 261.588C504.492 261.381 502.23 257.241 502.23 257.241L486.436 253.153C486.436 253.153 484.421 258.65 484.421 258.721C484.421 258.791 484.658 260.367 484.658 260.367Z" fill="#F476AF"/>
<path d="M485.84 249.188C485.84 249.188 481.719 251.443 481.361 254.953C481.003 258.463 483.749 260.905 485.84 259.088C487.931 257.272 488.109 254.446 488.109 254.446C488.109 254.446 489.243 259.069 492.527 259.697C495.811 260.326 496.109 258.893 496.109 258.893C496.109 258.893 497.005 263.28 499.334 262.653C499.995 262.49 500.608 262.159 501.118 261.689C501.628 261.219 502.02 260.625 502.26 259.958C502.26 259.958 503.633 260.272 503.042 264.971C502.451 269.671 500.773 273.242 501.55 277.691C502.327 282.14 501.788 286.902 508.296 290.724C514.805 294.546 521.85 290.662 524.119 284.708C526.388 278.754 523.583 275.497 519.045 273.549C514.506 271.601 514.328 271.92 516.059 265.465C517.79 259.011 518.092 250.051 510.148 244.162C502.204 238.272 489.183 240.917 485.84 249.188Z" fill="#0B0B6D"/>
<g opacity="0.69">
<path d="M488.09 255.836C488.09 255.836 486.683 259.141 484.493 258.045C482.304 256.949 482.46 254.003 483.732 252.629C485.003 251.256 486.478 250.813 487.36 248.479C488.242 246.146 490.286 244.25 493.42 242.997C496.554 241.743 497.853 241.116 504.973 241.415L491.958 241.003L485.21 244.751C485.21 244.751 479.836 252.833 479.656 252.897C479.477 252.961 477.925 258.969 477.925 258.969L481.33 264.482L487.347 260.995L488.09 255.836Z" fill="#5858F4"/>
</g>
<g opacity="0.34">
<path d="M488.173 255.196C488.173 255.196 490.255 259.543 493.099 259.001C495.944 258.46 496.122 256.44 496.973 258.79C497.824 261.14 499.503 263.207 500.801 260.953C502.099 258.698 502.265 258.327 503.123 259.804C503.982 261.281 502.526 279.332 506.287 280.269C510.048 281.206 517.931 281.679 515.781 277.919C513.631 274.16 503.153 275.851 508.168 272.092C513.184 268.332 516.746 257.713 515.323 247.562L520.707 263.445C520.707 263.445 535.576 290.89 534.591 291.361C533.606 291.832 520.08 302.544 513.01 299.443C505.94 296.341 503.963 291.221 500.739 285.087C497.514 278.953 495.454 274.173 492.499 270.83C489.543 267.487 486.678 266.547 487.483 264.102C488.289 261.657 488.021 258.087 488.021 258.087L488.173 255.196Z" fill="#0D0D44"/>
</g>
<path d="M442.251 322.184L441.116 321.182L443.078 320.563L475.092 326.32L472.882 327.26L463.746 327.887L442.251 322.184Z" fill="#2C0F86"/>
<path d="M501.184 353.341L502.737 352.455L472.846 345.398L463.657 351.153L480.166 356.521L481.211 357.194L501.184 353.341Z" fill="#3E30CE"/>
<path d="M480.734 357.68L480.495 358.275L448.833 352.213V350.804L480.166 356.521L481.436 356.631L480.734 357.68Z" fill="#2C0F86"/>
<path d="M472.583 326.508L475.085 326.32L480.16 356.514L478.876 357.187C478.876 357.187 477.354 356.89 477.175 356.766C476.995 356.641 471.562 328.443 471.562 328.443L472.583 326.508Z" fill="#2C0F86"/>
<path d="M441.116 321.182L446.788 351.153L478.882 357.194L473.669 326.925L441.116 321.182Z" fill="white"/>
<path d="M502.737 352.455V354.516L480.494 358.275L480.166 356.521L502.737 352.455Z" fill="#2C0F86"/>
<path d="M458.244 342.231C459.873 341.963 460.906 339.82 460.552 337.444C460.197 335.067 458.59 333.357 456.961 333.625C455.332 333.892 454.298 336.035 454.653 338.412C455.007 340.788 456.615 342.498 458.244 342.231Z" fill="#6C90FE"/>
<path d="M158.622 277.826C158.048 277.826 157.613 277.647 157.275 277.03C156.806 276.185 156.553 274.526 156.055 271.148C154.911 263.362 155.1 247.846 155.101 247.691C155.103 247.604 155.137 247.521 155.196 247.461C155.256 247.4 155.336 247.367 155.419 247.368C155.502 247.37 155.581 247.405 155.639 247.468C155.696 247.53 155.728 247.614 155.727 247.701C155.727 247.856 155.536 263.316 156.673 271.048C157.142 274.253 157.41 275.961 157.816 276.703C158.129 277.266 158.482 277.237 159.677 277.046C160.104 276.979 160.591 276.902 161.179 276.848C164.905 276.519 172.152 274.699 172.224 274.68C172.264 274.67 172.305 274.668 172.346 274.675C172.387 274.681 172.425 274.696 172.461 274.719C172.496 274.741 172.526 274.771 172.55 274.806C172.575 274.84 172.592 274.88 172.602 274.922C172.611 274.964 172.613 275.007 172.607 275.05C172.6 275.092 172.586 275.133 172.564 275.17C172.543 275.207 172.515 275.239 172.482 275.264C172.449 275.29 172.411 275.308 172.371 275.318C172.297 275.338 165.004 277.161 161.232 277.502C160.664 277.553 160.189 277.629 159.77 277.696C159.39 277.768 159.007 277.811 158.622 277.826Z" fill="#BF5D13"/>
<path d="M198.555 184.553C198.509 184.553 198.464 184.55 198.419 184.543C198.293 184.525 198.171 184.48 198.062 184.412C197.952 184.344 197.857 184.255 197.78 184.148C197.704 184.041 197.649 183.92 197.617 183.79C197.586 183.661 197.579 183.526 197.597 183.394L203.384 140.375C203.401 140.243 203.444 140.116 203.508 140.002C203.572 139.887 203.657 139.787 203.759 139.707C203.86 139.627 203.975 139.569 204.098 139.536C204.22 139.502 204.348 139.495 204.474 139.513C204.599 139.532 204.72 139.576 204.829 139.644C204.938 139.711 205.034 139.801 205.11 139.907C205.186 140.013 205.242 140.134 205.273 140.263C205.305 140.391 205.312 140.525 205.295 140.657L199.508 183.677C199.477 183.919 199.363 184.141 199.188 184.302C199.012 184.463 198.788 184.552 198.555 184.553Z" fill="#C0D2FF"/>
<path d="M267.784 177.493C267.655 177.493 267.527 177.466 267.407 177.413C267.291 177.361 267.185 177.285 267.096 177.191C267.008 177.096 266.937 176.983 266.89 176.86C266.843 176.737 266.819 176.605 266.82 176.472C266.822 176.339 266.848 176.208 266.898 176.085L283.083 136.098C283.184 135.851 283.373 135.656 283.611 135.555C283.848 135.455 284.114 135.458 284.349 135.563C284.585 135.668 284.771 135.867 284.867 136.116C284.963 136.365 284.96 136.644 284.86 136.891L268.668 176.876C268.594 177.059 268.471 177.214 268.314 177.324C268.157 177.433 267.973 177.492 267.784 177.493Z" fill="#C0D2FF"/>
<path d="M234.993 125.415C234.9 125.416 234.807 125.401 234.718 125.373C234.597 125.335 234.484 125.272 234.385 125.189C234.287 125.105 234.205 125.002 234.145 124.885C234.085 124.768 234.047 124.64 234.034 124.507C234.021 124.375 234.033 124.241 234.069 124.114L241.332 98.542C241.361 98.4066 241.416 98.2788 241.494 98.1667C241.572 98.0545 241.671 97.9604 241.785 97.8902C241.899 97.8199 242.026 97.7751 242.157 97.7583C242.288 97.7416 242.421 97.7534 242.548 97.793C242.675 97.8326 242.793 97.8991 242.894 97.9884C242.995 98.0777 243.078 98.1879 243.137 98.3122C243.196 98.4365 243.23 98.5721 243.237 98.7107C243.244 98.8494 243.223 98.988 243.177 99.118L235.915 124.69C235.856 124.899 235.734 125.082 235.568 125.213C235.402 125.343 235.201 125.415 234.993 125.415Z" fill="#C0D2FF"/>
<path d="M503.213 269.309C504.417 269.309 505.393 268.284 505.393 267.021C505.393 265.758 504.417 264.733 503.213 264.733C502.009 264.733 501.033 265.758 501.033 267.021C501.033 268.284 502.009 269.309 503.213 269.309Z" fill="#FF8403"/>
<path d="M500.914 268.055C500.914 268.055 505.339 269.939 504.876 264.985L506.753 267.948L504.901 270.818C504.901 270.818 502.897 271.834 502.573 271.175C502.283 270.622 501.966 270.087 501.622 269.57L500.914 268.055Z" fill="#DB6800"/>
<path d="M314.088 434.803C312.013 434.803 309.806 434.114 309.806 432.834C309.806 431.554 312.013 430.865 314.088 430.865C316.163 430.865 318.37 431.552 318.37 432.834C318.37 434.115 316.163 434.803 314.088 434.803ZM314.088 431.521C311.822 431.521 310.432 432.282 310.432 432.834C310.432 433.385 311.822 434.147 314.088 434.147C316.354 434.147 317.744 433.383 317.744 432.834C317.744 432.284 316.352 431.527 314.088 431.527V431.521Z" fill="#18189E"/>
<path d="M326.087 431.534C322.666 431.534 320.085 430.385 320.085 428.857C320.085 427.33 322.666 426.181 326.087 426.181C329.509 426.181 332.088 427.33 332.088 428.857C332.088 430.385 329.509 431.534 326.087 431.534ZM326.087 426.837C322.919 426.837 320.711 427.902 320.711 428.857C320.711 429.813 322.919 430.878 326.087 430.878C329.256 430.878 331.462 429.813 331.462 428.857C331.462 427.902 329.256 426.831 326.087 426.831V426.837Z" fill="#18189E"/>
<path d="M613.659 406.91H587.954L588.802 410.814H612.713L613.659 406.91Z" fill="#4848A3"/>
<path d="M588.802 410.814L591.806 424.647H609.36L612.713 410.814H588.802Z" fill="#5F5FB2"/>
<path d="M615.805 401.224H585.532V407.992H615.805V401.224Z" fill="#5F5FB2"/>
<defs>
<linearGradient id="paint0_linear_1221_2091" x1="189.264" y1="368.108" x2="482.267" y2="172.23" gradientUnits="userSpaceOnUse">
<stop stop-color="white"/>
<stop offset="1" stop-color="#6C82FE"/>
</linearGradient>
<linearGradient id="paint1_linear_1221_2091" x1="520.071" y1="448.77" x2="510.948" y2="394.102" gradientUnits="userSpaceOnUse">
<stop stop-color="#3E50EE"/>
<stop offset="1" stop-color="#0D0D7F"/>
</linearGradient>
<linearGradient id="paint2_linear_1221_2091" x1="475.36" y1="448.835" x2="484.311" y2="387.613" gradientUnits="userSpaceOnUse">
<stop stop-color="#3E50EE"/>
<stop offset="1" stop-color="#0D0D7F"/>
</linearGradient>
<linearGradient id="paint3_linear_1221_2091" x1="552.743" y1="449.534" x2="535.608" y2="383.89" gradientUnits="userSpaceOnUse">
<stop stop-color="#3E50EE"/>
<stop offset="1" stop-color="#0D0D7F"/>
</linearGradient>
</defs>
</svg>
