<svg width="168" height="168" viewBox="0 0 168 168" fill="none" xmlns="http://www.w3.org/2000/svg">
<path d="M6 52.9273C6.59334 52.9273 7.17336 52.7514 7.66671 52.4217C8.16006 52.0921 8.54458 51.6236 8.77164 51.0754C8.9987 50.5272 9.05811 49.924 8.94236 49.3421C8.8266 48.7601 8.54088 48.2256 8.12132 47.806C7.70176 47.3865 7.16721 47.1007 6.58527 46.985C6.00333 46.8692 5.40013 46.9286 4.85195 47.1557C4.30377 47.3828 3.83524 47.7673 3.50559 48.2606C3.17595 48.754 3 49.334 3 49.9273C3.00091 50.7227 3.31727 51.4852 3.87969 52.0476C4.4421 52.6101 5.20463 52.9264 6 52.9273ZM6 48.4273C6.29667 48.4273 6.58668 48.5153 6.83336 48.6801C7.08003 48.8449 7.27229 49.0792 7.38582 49.3533C7.49935 49.6274 7.52906 49.929 7.47118 50.22C7.4133 50.5109 7.27044 50.7782 7.06066 50.988C6.85088 51.1978 6.58361 51.3406 6.29264 51.3985C6.00166 51.4564 5.70006 51.4267 5.42597 51.3132C5.15189 51.1996 4.91762 51.0074 4.7528 50.7607C4.58797 50.514 4.5 50.224 4.5 49.9273C4.50039 49.5296 4.65855 49.1483 4.93977 48.8671C5.22099 48.5859 5.6023 48.4277 6 48.4273ZM132.667 20.5329C132.271 20.5329 131.885 20.6502 131.556 20.8699C131.227 21.0897 130.971 21.4021 130.819 21.7675C130.668 22.133 130.628 22.5351 130.705 22.9231C130.783 23.311 130.973 23.6674 131.253 23.9471C131.532 24.2268 131.889 24.4173 132.277 24.4944C132.665 24.5716 133.067 24.532 133.432 24.3806C133.798 24.2293 134.11 23.9729 134.33 23.644C134.55 23.3151 134.667 22.9284 134.667 22.5329C134.666 22.0026 134.455 21.4943 134.08 21.1193C133.706 20.7444 133.197 20.5335 132.667 20.5329ZM132.667 23.5329C132.469 23.5329 132.276 23.4742 132.111 23.3643C131.947 23.2545 131.819 23.0983 131.743 22.9156C131.667 22.7328 131.648 22.5318 131.686 22.3378C131.725 22.1438 131.82 21.9656 131.96 21.8258C132.1 21.6859 132.278 21.5907 132.472 21.5521C132.666 21.5135 132.867 21.5333 133.05 21.609C133.232 21.6847 133.389 21.8129 133.498 21.9773C133.608 22.1417 133.667 22.3351 133.667 22.5329C133.667 22.798 133.561 23.0522 133.374 23.2397C133.186 23.4272 132.932 23.5326 132.667 23.5329ZM114 48.9273C113.604 48.9273 113.218 49.0446 112.889 49.2644C112.56 49.4842 112.304 49.7965 112.152 50.162C112.001 50.5274 111.961 50.9296 112.038 51.3175C112.116 51.7055 112.306 52.0618 112.586 52.3415C112.865 52.6213 113.222 52.8117 113.61 52.8889C113.998 52.9661 114.4 52.9265 114.765 52.7751C115.131 52.6237 115.443 52.3674 115.663 52.0385C115.883 51.7096 116 51.3229 116 50.9273C115.999 50.3971 115.788 49.8887 115.414 49.5138C115.039 49.1388 114.53 48.9279 114 48.9273ZM114 51.9273C113.802 51.9273 113.609 51.8687 113.444 51.7588C113.28 51.6489 113.152 51.4927 113.076 51.31C113 51.1273 112.981 50.9262 113.019 50.7322C113.058 50.5383 113.153 50.3601 113.293 50.2202C113.433 50.0804 113.611 49.9851 113.805 49.9465C113.999 49.908 114.2 49.9278 114.383 50.0035C114.565 50.0791 114.722 50.2073 114.831 50.3718C114.941 50.5362 115 50.7295 115 50.9273C115 51.1925 114.894 51.4467 114.707 51.6341C114.519 51.8216 114.265 51.9271 114 51.9273ZM158.305 8.73535C157.909 8.73535 157.522 8.85265 157.194 9.07241C156.865 9.29218 156.608 9.60453 156.457 9.96999C156.306 10.3354 156.266 10.7376 156.343 11.1255C156.42 11.5135 156.611 11.8699 156.891 12.1496C157.17 12.4293 157.527 12.6198 157.915 12.6969C158.302 12.7741 158.705 12.7345 159.07 12.5831C159.436 12.4317 159.748 12.1754 159.968 11.8465C160.187 11.5176 160.305 11.1309 160.305 10.7354C160.304 10.2051 160.093 9.69675 159.718 9.32181C159.343 8.94687 158.835 8.73596 158.305 8.73535ZM158.305 11.7354C158.107 11.7354 157.914 11.6767 157.749 11.5668C157.585 11.4569 157.457 11.3008 157.381 11.118C157.305 10.9353 157.285 10.7342 157.324 10.5403C157.363 10.3463 157.458 10.1681 157.598 10.0282C157.737 9.88839 157.916 9.79315 158.11 9.75457C158.304 9.71598 158.505 9.73578 158.687 9.81147C158.87 9.88716 159.026 10.0153 159.136 10.1798C159.246 10.3442 159.305 10.5376 159.305 10.7354C159.304 11.0005 159.199 11.2547 159.012 11.4422C158.824 11.6296 158.57 11.7351 158.305 11.7354ZM42.6939 29.7549C42.6939 29.3593 42.5766 28.9726 42.3568 28.6437C42.1371 28.3148 41.8247 28.0585 41.4593 27.9071C41.0938 27.7557 40.6917 27.7161 40.3037 27.7933C39.9158 27.8705 39.5594 28.061 39.2797 28.3407C39 28.6204 38.8095 28.9767 38.7323 29.3647C38.6552 29.7527 38.6948 30.1548 38.8461 30.5202C38.9975 30.8857 39.2539 31.1981 39.5828 31.4178C39.9117 31.6376 40.2983 31.7549 40.6939 31.7549C41.2241 31.7543 41.7325 31.5434 42.1074 31.1684C42.4824 30.7935 42.6933 30.2851 42.6939 29.7549ZM39.6939 29.7549C39.6939 29.5571 39.7525 29.3638 39.8624 29.1993C39.9723 29.0349 40.1285 28.9067 40.3112 28.831C40.4939 28.7553 40.695 28.7355 40.889 28.7741C41.083 28.8127 41.2612 28.9079 41.401 29.0478C41.5409 29.1876 41.6361 29.3658 41.6747 29.5598C41.7133 29.7538 41.6935 29.9548 41.6178 30.1376C41.5421 30.3203 41.4139 30.4765 41.2495 30.5864C41.085 30.6962 40.8917 30.7549 40.6939 30.7549C40.4288 30.7546 40.1746 30.6492 39.9871 30.4617C39.7996 30.2742 39.6942 30.02 39.6939 29.7549Z" fill="black"/>
<path d="M15.4151 12.7614L16.9021 10.8054L15.9631 10.2734L15.0091 12.4634H14.9771L14.0081 10.2894L13.0521 10.8364L14.5241 12.7454V12.7774L12.2231 12.4794V13.5434L14.5391 13.2464V13.2774L13.0521 15.1864L13.9441 15.7494L14.9621 13.5434H14.9921L15.9311 15.7344L16.9171 15.1704L15.4151 13.2934V13.2614L17.7771 13.5434V12.4794L15.4151 12.7924V12.7614Z" fill="#00CCFF"/>
<path d="M65.1221 7.31203L64.2661 8.41103L64.7801 8.73503L65.3661 7.46403H65.3841L65.9241 8.72603L66.4921 8.40203L65.6271 7.32003V7.30203L66.9871 7.46403V6.85203L65.6271 7.03203V7.01403L66.4831 5.88803L65.9431 5.58203L65.3931 6.84303H65.3751L64.8161 5.59003L64.2661 5.90603L65.1141 7.00503V7.02303L63.7891 6.85203V7.46403L65.1221 7.29403V7.31203Z" fill="#00CCFF"/>
<path d="M55.7339 51.5796L54.8779 52.6786L55.3919 53.0036L55.9779 51.7326H55.9959L56.5359 52.9946L57.1039 52.6706L56.2389 51.5886V51.5706L57.5989 51.7326V51.1206L56.2389 51.3006V51.2826L57.0949 50.1566L56.5549 49.8496L56.0049 51.1116H55.9869L55.4289 49.8586L54.8779 50.1746L55.7259 51.2736V51.2916L54.4009 51.1206V51.7326L55.7339 51.5616V51.5796Z" fill="#00CCFF"/>
<path d="M160.029 56.0683V55.0253L157.712 55.3313V55.3013L159.17 53.3833L158.249 52.8613L157.313 55.0093H157.282L156.331 52.8763L155.394 53.4133L156.837 55.2863V55.3163L154.581 55.0253V56.0683L156.852 55.7773V55.8073L155.394 57.6793L156.269 58.2323L157.267 56.0683H157.297L158.218 58.2173L159.185 57.6643L157.712 55.8223V55.7923L160.029 56.0683Z" fill="#00CCFF"/>
<path d="M106.351 5.36865L107.609 3.71465L106.815 3.26465L106.008 5.11765H105.981L105.16 3.27765L104.352 3.74065L105.597 5.35665V5.38265L103.65 5.13065V6.03065L105.61 5.77965V5.80665L104.352 7.42065L105.106 7.89765L105.968 6.03065H105.994L106.788 7.88465L107.622 7.40765L106.351 5.81865V5.79265L108.35 6.03065V5.13065L106.351 5.39565V5.36865Z" fill="#00CCFF"/>
<path d="M2 150.735C3.10457 150.735 4 149.84 4 148.735C4 147.631 3.10457 146.735 2 146.735C0.89543 146.735 0 147.631 0 148.735C0 149.84 0.89543 150.735 2 150.735Z" fill="black"/>
<path d="M11 146.735H8C7.46957 146.735 6.96086 146.946 6.58579 147.321C6.21071 147.696 6 148.205 6 148.735C6 149.266 6.21071 149.774 6.58579 150.15C6.96086 150.525 7.46957 150.735 8 150.735H11C11.5304 150.735 12.0391 150.525 12.4142 150.15C12.7893 149.774 13 149.266 13 148.735C13 148.205 12.7893 147.696 12.4142 147.321C12.0391 146.946 11.5304 146.735 11 146.735Z" fill="black"/>
<path d="M118.154 154.735H109.846C109.343 154.776 108.874 155.004 108.532 155.374C108.19 155.745 108 156.231 108 156.735C108 157.24 108.19 157.726 108.532 158.096C108.874 158.467 109.343 158.695 109.846 158.735H118.154C118.657 158.695 119.126 158.467 119.468 158.096C119.81 157.726 120 157.24 120 156.735C120 156.231 119.81 155.745 119.468 155.374C119.126 155.004 118.657 154.776 118.154 154.735ZM58.1539 154.735H49.8462C49.3434 154.776 48.8742 155.004 48.5321 155.374C48.19 155.745 48 156.231 48 156.735C48 157.24 48.19 157.726 48.5321 158.096C48.8742 158.467 49.3434 158.695 49.8462 158.735H58.1539C58.6567 158.695 59.1258 158.467 59.468 158.096C59.8101 157.726 60.0001 157.24 60.0001 156.735C60.0001 156.231 59.8101 155.745 59.468 155.374C59.1258 155.004 58.6567 154.776 58.1539 154.735ZM104 154.735H64C63.4696 154.735 62.9609 154.946 62.5858 155.321C62.2107 155.696 62 156.205 62 156.735C62 157.266 62.2107 157.774 62.5858 158.15C62.9609 158.525 63.4696 158.735 64 158.735H79.94V160.735H72C71.4696 160.735 70.9609 160.946 70.5858 161.321C70.2107 161.696 70 162.205 70 162.735C70 163.266 70.2107 163.774 70.5858 164.15C70.9609 164.525 71.4696 164.735 72 164.735H97C97.5305 164.735 98.0392 164.525 98.4142 164.15C98.7893 163.774 99 163.266 99 162.735C99 162.205 98.7893 161.696 98.4142 161.321C98.0392 160.946 97.5305 160.735 97 160.735H88.06V158.735H104C104.53 158.735 105.039 158.525 105.414 158.15C105.789 157.774 106 157.266 106 156.735C106 156.205 105.789 155.696 105.414 155.321C105.039 154.946 104.53 154.735 104 154.735Z" fill="#00CCFF"/>
<path d="M127.375 73.0996H140.088L113.334 93.5376L114.91 97.366L147.214 72.6885C147.546 72.4346 147.791 72.083 147.913 71.683C148.035 71.283 148.029 70.8548 147.895 70.4586C147.761 70.0624 147.506 69.7182 147.166 69.4745C146.826 69.2307 146.418 69.0996 146 69.0996H127.375C126.845 69.0996 126.336 69.3103 125.961 69.6854C125.586 70.0605 125.375 70.5692 125.375 71.0996C125.375 71.63 125.586 72.1388 125.961 72.5138C126.336 72.8889 126.845 73.0996 127.375 73.0996Z" fill="black"/>
<path d="M72.8931 91.6938L71.0891 99.4377C70.9272 100.128 70.9858 100.852 71.2565 101.507L87.7229 141.497C87.8738 141.864 88.1302 142.177 88.4594 142.398C88.7887 142.618 89.1761 142.736 89.5725 142.737C89.8314 142.737 90.0879 142.686 90.3273 142.587L113.489 133.139L113.502 133.135L113.513 133.129L121.756 129.767C121.999 129.667 122.221 129.521 122.408 129.336C122.595 129.15 122.743 128.93 122.845 128.687C122.947 128.444 122.999 128.184 123 127.921C123.001 127.658 122.95 127.397 122.849 127.154L106.384 87.1643C106.116 86.5094 105.649 85.9549 105.05 85.5783L85.5344 73.2629C85.0742 72.9724 84.5513 72.796 84.0092 72.7484C83.4671 72.7009 82.9214 72.7835 82.4177 72.9894L78.3435 74.6506C77.9147 74.8323 77.5279 75.1002 77.2071 75.4377C77.3889 76.4248 77.6712 77.3908 78.0495 78.3205C78.433 79.2674 78.915 80.1713 79.4876 81.0173L80.1345 78.2404L83.653 76.8049L102.757 88.8615L118.387 126.821L113.83 128.68L106.32 110.444C106.22 110.2 106.073 109.979 105.888 109.792C105.703 109.606 105.482 109.457 105.24 109.356C104.997 109.255 104.737 109.202 104.474 109.202C104.211 109.201 103.95 109.252 103.707 109.352C103.464 109.452 103.243 109.6 103.057 109.785C102.87 109.971 102.723 110.192 102.622 110.434C102.521 110.677 102.469 110.938 102.469 111.201C102.469 111.464 102.521 111.724 102.621 111.967L110.127 130.191L97.5102 135.338L89.9992 117.104C89.8996 116.86 89.7529 116.639 89.5676 116.452C89.3823 116.266 89.162 116.118 88.9193 116.016C88.6767 115.915 88.4164 115.862 88.1534 115.862C87.8904 115.861 87.6299 115.912 87.3868 116.012C87.1436 116.113 86.9226 116.26 86.7364 116.445C86.5501 116.631 86.4024 116.852 86.3015 117.095C86.2007 117.337 86.1487 117.598 86.1486 117.861C86.1485 118.124 86.2003 118.384 86.301 118.627L93.8067 136.848L90.6623 138.131L75.028 100.161L76.3785 94.364C75.1235 93.6027 73.9549 92.7074 72.8931 91.6938Z" fill="#00CCFF"/>
<path d="M75.7653 57.1572L83.9998 30.5098L96.7254 71.6904C96.8516 72.0986 97.1051 72.4557 97.449 72.7093C97.7928 72.9628 98.2088 73.0996 98.636 73.0996H113.875C114.405 73.0996 114.914 72.8889 115.289 72.5138C115.664 72.1387 115.875 71.63 115.875 71.0996C115.875 70.5692 115.664 70.0605 115.289 69.6854C114.914 69.3103 114.405 69.0996 113.875 69.0996H100.111L85.9105 23.1445C85.7843 22.7364 85.5307 22.3793 85.1869 22.1258C84.843 21.8722 84.427 21.7354 83.9998 21.7354C83.5726 21.7354 83.1566 21.8722 82.8128 22.1258C82.4689 22.3793 82.2154 22.7364 82.0892 23.1445L70.8133 59.6345C72.2562 58.4461 73.949 57.5993 75.7653 57.1572L75.7653 57.1572ZM57.9949 101.113L54.0149 113.994C53.9369 114.245 53.9092 114.509 53.9333 114.771C53.9574 115.033 54.0328 115.287 54.1553 115.52C54.2778 115.752 54.445 115.958 54.6472 116.126C54.8495 116.294 55.0828 116.421 55.334 116.498C55.5851 116.576 55.8491 116.603 56.1108 116.579C56.3725 116.554 56.6268 116.479 56.8592 116.356C57.0916 116.233 57.2976 116.065 57.4652 115.863C57.6328 115.661 57.7589 115.427 57.8362 115.176L62.2283 100.962C62.3492 100.571 62.3473 100.152 62.2228 99.7626C62.0983 99.3728 61.8572 99.0306 61.532 98.7822L27.9124 73.0996H64.9936C64.9989 71.7568 65.1309 70.4176 65.3878 69.0996H21.9998C21.5816 69.0996 21.1739 69.2307 20.8341 69.4744C20.4943 69.7182 20.2394 70.0624 20.1054 70.4586C19.9714 70.8547 19.965 71.283 20.0871 71.683C20.2092 72.083 20.4536 72.4346 20.7859 72.6885L57.9949 101.113Z" fill="black"/>
<path d="M79.0243 91.2552C79.0815 92.1287 79.2853 92.9864 79.627 93.7924C80.2769 95.2705 81.3455 96.5258 82.7008 97.4035C84.0561 98.2811 85.6388 98.7425 87.2534 98.7309C88.3068 98.7313 89.3508 98.5328 90.3306 98.1459C90.824 97.9512 91.2199 97.5686 91.4311 97.0821C91.6424 96.5955 91.6517 96.045 91.4571 95.5516C91.2624 95.0582 90.8797 94.6624 90.3932 94.4511C89.9067 94.2399 89.3562 94.2305 88.8628 94.4252C87.9169 94.8055 86.8672 94.8401 85.8983 94.5228C84.9294 94.2055 84.1034 93.5568 83.5657 92.6906C83.8599 92.717 84.1535 92.7377 84.4444 92.7377C85.6518 92.7406 86.8478 92.5043 87.9634 92.0424C88.4534 91.8392 88.8426 91.4497 89.0455 90.9595C89.2483 90.4693 89.2481 89.9187 89.0449 89.4286C88.8417 88.9386 88.4522 88.5494 87.962 88.3465C87.4718 88.1437 86.9212 88.1439 86.4311 88.3471C85.5411 88.7051 84.571 88.8161 83.6231 88.6685C84.0944 87.9309 84.7879 87.3622 85.6035 87.0444C86.6344 86.6227 87.7885 86.6162 88.8241 87.0261C89.8597 87.436 90.6966 88.2306 91.1597 89.2436C91.3681 89.7307 91.7612 90.1151 92.2528 90.3126C92.7444 90.5102 93.2942 90.5046 93.7817 90.2971C94.2692 90.0897 94.6544 89.6973 94.8529 89.2061C95.0514 88.7149 95.0469 88.1651 94.8404 87.6772C93.9629 85.7103 92.3588 84.1588 90.3637 83.3474C88.3686 82.536 86.137 82.5275 84.1358 83.3236C82.3124 84.0304 80.8078 85.3753 79.9017 87.1083C77.3896 85.2612 75.4601 82.7323 74.3418 79.8217C71.7905 73.5219 73.0337 66.7904 77.0576 65.1224C77.8108 64.8444 78.6116 64.7185 79.4138 64.7518C80.2159 64.7852 81.0035 64.9772 81.731 65.3168C84.7774 66.5912 87.5493 69.7064 89.1465 73.6478C89.2448 73.8917 89.3902 74.1139 89.5744 74.3016C89.7586 74.4892 89.978 74.6387 90.2201 74.7415C90.4621 74.8442 90.7221 74.8983 90.9851 74.9004C91.248 74.9026 91.5088 74.8529 91.7525 74.7541C91.9963 74.6554 92.2181 74.5095 92.4054 74.3249C92.5927 74.1403 92.7417 73.9206 92.844 73.6783C92.9463 73.4361 92.9997 73.176 93.0014 72.913C93.003 72.6501 92.9528 72.3893 92.8535 72.1458C90.8647 67.2366 87.2842 63.305 83.2754 61.6263C82.0634 61.0735 80.7524 60.7709 79.4207 60.7367C78.089 60.7024 76.7642 60.9373 75.5254 61.4271C69.3081 64.0042 67.1597 72.7445 70.6348 81.3236C72.2244 85.4895 75.1827 88.9915 79.0243 91.2552ZM160 146.735H157C156.47 146.735 155.961 146.945 155.586 147.321C155.211 147.696 155 148.204 155 148.735C155 149.265 155.211 149.774 155.586 150.149C155.961 150.524 156.47 150.735 157 150.735H160C160.53 150.735 161.039 150.524 161.414 150.149C161.789 149.774 162 149.265 162 148.735C162 148.204 161.789 147.696 161.414 147.321C161.039 146.945 160.53 146.735 160 146.735Z" fill="black"/>
<path d="M166 150.735C167.105 150.735 168 149.84 168 148.735C168 147.631 167.105 146.735 166 146.735C164.895 146.735 164 147.631 164 148.735C164 149.84 164.895 150.735 166 150.735Z" fill="black"/>
<path d="M150.721 146.736H124.102L120.369 134.653L116.651 136.17L118.56 142.348L112.623 137.813L108.328 139.565L117.715 146.736H50.2855L77.1145 126.24L75.5379 122.411L49.4406 142.348L53.7008 128.56C53.7788 128.309 53.8065 128.045 53.7825 127.783C53.7584 127.521 53.6829 127.267 53.5604 127.034C53.4379 126.802 53.2707 126.596 53.0685 126.428C52.8663 126.26 52.6329 126.133 52.3818 126.056C52.1307 125.978 51.8667 125.951 51.605 125.975C51.3432 126 51.0889 126.075 50.8565 126.198C50.6241 126.321 50.4182 126.488 50.2505 126.691C50.0829 126.893 49.9568 127.127 49.8795 127.378L43.8981 146.736H17.2788C16.9943 146.698 16.7051 146.722 16.4306 146.806C16.156 146.889 15.9025 147.03 15.6868 147.22C15.4712 147.409 15.2984 147.642 15.1801 147.904C15.0617 148.165 15.0005 148.449 15.0005 148.736C15.0005 149.022 15.0617 149.306 15.1801 149.568C15.2984 149.829 15.4712 150.062 15.6868 150.251C15.9025 150.441 16.156 150.582 16.4306 150.665C16.7051 150.749 16.9943 150.773 17.2788 150.736H150.721C151.006 150.773 151.295 150.749 151.57 150.665C151.844 150.582 152.098 150.441 152.313 150.251C152.529 150.062 152.702 149.829 152.82 149.568C152.939 149.306 153 149.022 153 148.736C153 148.449 152.939 148.165 152.82 147.904C152.702 147.642 152.529 147.409 152.313 147.22C152.098 147.03 151.844 146.889 151.57 146.806C151.295 146.722 151.006 146.698 150.721 146.736V146.736Z" fill="black"/>
</svg>
