<svg width="128" height="128" viewBox="0 0 128 128" fill="none" xmlns="http://www.w3.org/2000/svg">
<path d="M85.0099 4.41406V102.709V4.41406L84.0168 102.709L43.9837 123.586L43.4761 123.344V24.7837L85.0099 4.41406Z" fill="white"/>
<path d="M85.0097 4.41406V102.709V4.41406L123.586 23.7685V123.079L84.0166 102.709L85.0097 4.41406Z" fill="#00CCFF"/>
<path d="M4.41357 4.41406L43.4756 24.7837V123.344L4.43564 103.283L4.41357 4.41406Z" fill="#00CCFF"/>
<path d="M43.9834 126.896C43.4537 126.896 42.9461 126.764 42.4606 126.521L41.9751 126.256C40.8716 125.682 40.1875 124.557 40.1875 123.321V24.7831C40.1875 23.5252 40.9158 22.3776 42.0413 21.8038L83.5751 1.43416C83.7075 1.36795 83.8399 1.30174 83.9944 1.25761C84.3475 1.14726 84.7227 1.10312 85.0537 1.08105C85.3847 1.08105 85.7158 1.14726 86.0468 1.23554C86.2013 1.27968 86.3558 1.34588 86.5103 1.43416L125.065 20.7886C126.19 21.3404 126.896 22.488 126.896 23.7459V123.056C126.896 124.204 126.301 125.285 125.308 125.881C124.314 126.477 123.101 126.521 122.063 125.991L84.0165 106.394L45.4841 126.477C45.0206 126.764 44.491 126.896 43.9834 126.896ZM46.7861 26.8576V118.4L81.6992 100.193V9.73209L46.7861 26.8576ZM88.3199 101.208L120.276 117.649V25.8204L88.3199 9.77623V101.208Z" fill="black"/>
<path d="M43.4759 126.631C42.9683 126.631 42.4387 126.521 41.9532 126.256L2.91317 106.218C1.80972 105.644 1.12558 104.518 1.12558 103.282L1.10352 4.41343C1.10352 3.26584 1.69938 2.18447 2.69248 1.5886C3.68558 0.992741 4.92145 0.948603 5.93662 1.47826L45.0208 21.8479C46.1242 22.4217 46.8083 23.5472 46.8083 24.7831V123.321C46.8083 124.469 46.2125 125.55 45.2194 126.146C44.6677 126.477 44.0718 126.631 43.4759 126.631ZM7.74627 101.252L40.1656 117.914V26.7914L7.72421 9.86446L7.74627 101.252Z" fill="black"/>
</svg>
