<svg width="168" height="168" viewBox="0 0 168 168" fill="none" xmlns="http://www.w3.org/2000/svg">
<path d="M63.3025 105.165L57.4451 104.268L54.8103 98.6504C54.649 98.3066 54.393 98.0158 54.0725 97.8121C53.7519 97.6083 53.38 97.5001 53.0001 97.5C52.6203 97.4999 52.2483 97.6079 51.9277 97.8115C51.607 98.015 51.3509 98.3057 51.1893 98.6494L48.5506 104.268L42.6971 105.165C42.3338 105.221 41.9928 105.376 41.7116 105.612C41.4305 105.849 41.22 106.159 41.1034 106.508C40.9867 106.856 40.9684 107.23 41.0504 107.589C41.1324 107.947 41.3116 108.276 41.5682 108.539L45.8631 112.938L44.8455 119.178C44.785 119.548 44.8299 119.928 44.9751 120.274C45.1203 120.62 45.36 120.918 45.6668 121.135C45.9735 121.351 46.3349 121.477 46.7096 121.497C47.0844 121.518 47.4574 121.432 47.7859 121.251L52.9998 118.372L58.2127 121.251C58.5413 121.432 58.9143 121.518 59.289 121.497C59.6638 121.477 60.0252 121.351 60.3319 121.135C60.6386 120.918 60.8783 120.62 61.0236 120.274C61.1688 119.928 61.2137 119.548 61.1531 119.178L60.1365 112.938L64.4314 108.539C64.6882 108.276 64.8674 107.947 64.9495 107.589C65.0315 107.23 65.0132 106.856 64.8966 106.508C64.7799 106.159 64.5694 105.849 64.2882 105.612C64.007 105.375 63.666 105.221 63.3025 105.165ZM56.5682 110.866C56.3496 111.09 56.1867 111.363 56.0925 111.662C55.9984 111.96 55.9757 112.277 56.0262 112.586L56.5428 115.759L53.9666 114.336C53.6706 114.173 53.338 114.087 52.9998 114.087C52.6617 114.087 52.3291 114.173 52.033 114.336L49.4559 115.759L49.9734 112.586C50.024 112.277 50.0013 111.96 49.9072 111.662C49.813 111.363 49.6501 111.09 49.4314 110.866L47.1492 108.529L50.2107 108.06C50.5352 108.01 50.8424 107.881 51.1054 107.685C51.3683 107.489 51.5789 107.231 51.7186 106.934L52.9988 104.207L54.2771 106.933C54.4166 107.23 54.6271 107.488 54.8901 107.685C55.1531 107.881 55.4605 108.01 55.785 108.06L58.8504 108.529L56.5682 110.866Z" fill="#00CCFF"/>
<path d="M38.3028 91.6367L33.8282 90.9521L31.8106 86.6504C31.6492 86.3066 31.3933 86.0158 31.0727 85.8121C30.7522 85.6083 30.3802 85.5001 30.0004 85.5C29.6206 85.4999 29.2486 85.6079 28.9279 85.8115C28.6073 86.015 28.3512 86.3057 28.1896 86.6494L26.17 90.9521L21.6974 91.6367C21.334 91.6924 20.9929 91.8471 20.7117 92.084C20.4305 92.3208 20.22 92.6306 20.1034 92.9792C19.9867 93.3279 19.9684 93.7019 20.0505 94.0603C20.1325 94.4187 20.3118 94.7475 20.5685 95.0107L23.8634 98.3857L23.0821 103.178C23.0216 103.548 23.0665 103.928 23.2117 104.274C23.3569 104.62 23.5966 104.918 23.9034 105.135C24.2101 105.351 24.5715 105.477 24.9463 105.497C25.3211 105.518 25.694 105.432 26.0226 105.251L30.0001 103.055L33.9767 105.251C34.3062 105.429 34.6786 105.513 35.0527 105.492C35.4267 105.472 35.7878 105.348 36.0958 105.135C36.4024 104.919 36.642 104.621 36.7872 104.275C36.9324 103.929 36.9774 103.549 36.9171 103.179L36.1368 98.3857L39.4317 95.0107C39.6884 94.7475 39.8677 94.4187 39.9497 94.0603C40.0318 93.7019 40.0135 93.3279 39.8968 92.9792C39.7802 92.6306 39.5697 92.3208 39.2885 92.084C39.0073 91.8471 38.6662 91.6924 38.3028 91.6367ZM32.5685 96.3135C32.3499 96.5376 32.187 96.8098 32.0929 97.1083C31.9988 97.4068 31.976 97.7233 32.0265 98.0322L32.3077 99.7588L30.9669 99.0186C30.6709 98.8552 30.3382 98.7695 30.0001 98.7695C29.662 98.7695 29.3293 98.8552 29.0333 99.0186L27.6925 99.7588L27.9737 98.0332C28.0243 97.7241 28.0016 97.4075 27.9074 97.1088C27.8133 96.8101 27.6503 96.5377 27.4317 96.3135L26.1505 95.002L27.8292 94.7441C28.1536 94.6946 28.4609 94.566 28.7238 94.3696C28.9868 94.1733 29.1974 93.9152 29.337 93.6182L29.9991 92.207L30.6603 93.6172C30.7997 93.9144 31.0102 94.1727 31.2732 94.3693C31.5362 94.5658 31.8436 94.6946 32.1681 94.7441L33.8497 95.002L32.5685 96.3135Z" fill="black"/>
<path d="M125.303 105.165L119.449 104.268L116.811 98.6494C116.649 98.3057 116.393 98.015 116.072 97.8115C115.752 97.6079 115.38 97.4999 115 97.5C114.62 97.5001 114.248 97.6083 113.927 97.8121C113.607 98.0158 113.351 98.3066 113.19 98.6504L110.555 104.268L104.697 105.165C104.334 105.221 103.993 105.375 103.712 105.612C103.431 105.849 103.22 106.159 103.103 106.508C102.987 106.856 102.968 107.23 103.05 107.589C103.133 107.947 103.312 108.276 103.569 108.539L107.863 112.938L106.847 119.178C106.786 119.548 106.831 119.928 106.976 120.274C107.122 120.62 107.361 120.918 107.668 121.135C107.975 121.351 108.336 121.477 108.711 121.497C109.086 121.518 109.459 121.432 109.787 121.251L115 118.372L120.214 121.251C120.543 121.432 120.916 121.518 121.29 121.497C121.665 121.477 122.026 121.351 122.333 121.135C122.64 120.918 122.88 120.62 123.025 120.274C123.17 119.928 123.215 119.548 123.154 119.178L122.137 112.938L126.432 108.539C126.688 108.276 126.868 107.947 126.95 107.589C127.032 107.23 127.013 106.856 126.897 106.508C126.78 106.159 126.569 105.849 126.288 105.612C126.007 105.376 125.666 105.221 125.303 105.165ZM118.569 110.866C118.35 111.09 118.187 111.363 118.093 111.662C117.999 111.96 117.976 112.277 118.027 112.586L118.544 115.759L115.967 114.336C115.671 114.173 115.338 114.087 115 114.087C114.662 114.087 114.329 114.173 114.033 114.336L111.457 115.759L111.974 112.586C112.024 112.277 112.002 111.96 111.907 111.662C111.813 111.363 111.65 111.09 111.432 110.866L109.15 108.529L112.215 108.06C112.539 108.01 112.847 107.881 113.11 107.685C113.373 107.488 113.583 107.23 113.723 106.933L115.001 104.207L116.281 106.934C116.421 107.231 116.632 107.489 116.895 107.685C117.158 107.881 117.465 108.01 117.789 108.06L120.851 108.529L118.569 110.866Z" fill="#00CCFF"/>
<path d="M147.896 92.9785C147.78 92.6299 147.57 92.3201 147.288 92.0834C147.007 91.8466 146.666 91.6921 146.303 91.6367L141.83 90.9521L139.81 86.6494C139.649 86.3057 139.393 86.015 139.072 85.8115C138.751 85.6079 138.379 85.4999 138 85.5C137.62 85.5001 137.248 85.6083 136.927 85.8121C136.607 86.0158 136.351 86.3066 136.189 86.6504L134.172 90.9521L129.697 91.6367C129.334 91.6924 128.993 91.8471 128.712 92.084C128.43 92.3208 128.22 92.6306 128.103 92.9792C127.987 93.3279 127.968 93.7019 128.05 94.0603C128.132 94.4187 128.312 94.7475 128.568 95.0107L131.863 98.3857L131.083 103.179C131.023 103.549 131.068 103.929 131.213 104.275C131.358 104.621 131.598 104.919 131.904 105.135C132.212 105.348 132.573 105.472 132.947 105.492C133.321 105.513 133.694 105.429 134.023 105.251L138 103.055L141.977 105.251C142.306 105.432 142.679 105.518 143.054 105.497C143.429 105.477 143.79 105.351 144.097 105.135C144.403 104.918 144.643 104.62 144.788 104.274C144.934 103.928 144.979 103.548 144.918 103.178L144.137 98.3857L147.432 95.0107C147.688 94.7474 147.868 94.4185 147.95 94.0599C148.032 93.7014 148.013 93.3272 147.896 92.9785ZM140.568 96.3135C140.35 96.5377 140.187 96.8101 140.093 97.1088C139.999 97.4075 139.976 97.7241 140.026 98.0332L140.308 99.7588L138.967 99.0186C138.671 98.8552 138.338 98.7695 138 98.7695C137.662 98.7695 137.329 98.8552 137.033 99.0186L135.692 99.7588L135.974 98.0322C136.024 97.7233 136.001 97.4069 135.907 97.1083C135.813 96.8098 135.65 96.5376 135.432 96.3135L134.15 95.002L135.832 94.7441C136.157 94.6946 136.464 94.5658 136.727 94.3693C136.99 94.1727 137.2 93.9144 137.34 93.6172L138.001 92.207L138.663 93.6182C138.803 93.9152 139.013 94.1733 139.276 94.3696C139.539 94.566 139.846 94.6946 140.171 94.7441L141.85 95.002L140.568 96.3135ZM84 101.5C86.5712 101.5 89.0846 100.738 91.2224 99.3091C93.3603 97.8806 95.0265 95.8503 96.0104 93.4749C96.9944 91.0994 97.2518 88.4856 96.7502 85.9638C96.2486 83.4421 95.0105 81.1257 93.1924 79.3076C91.3743 77.4895 89.0579 76.2514 86.5362 75.7498C84.0144 75.2482 81.4006 75.5056 79.0251 76.4896C76.6497 77.4735 74.6194 79.1398 73.1909 81.2776C71.7624 83.4154 71 85.9288 71 88.5C71.004 91.9466 72.3749 95.2509 74.812 97.688C77.2491 100.125 80.5534 101.496 84 101.5ZM84 79.5C85.78 79.5 87.5201 80.0278 89.0001 81.0168C90.4802 82.0057 91.6337 83.4113 92.3149 85.0559C92.9961 86.7004 93.1743 88.51 92.8271 90.2558C92.4798 92.0016 91.6226 93.6053 90.364 94.864C89.1053 96.1226 87.5016 96.9798 85.7558 97.3271C84.01 97.6743 82.2004 97.4961 80.5558 96.8149C78.9113 96.1337 77.5057 94.9802 76.5168 93.5001C75.5278 92.0201 75 90.28 75 88.5C75.0026 86.1139 75.9517 83.8262 77.6389 82.1389C79.3262 80.4517 81.6139 79.5026 84 79.5Z" fill="black"/>
<path d="M81.5195 92.0212C81.8834 92.3267 82.3434 92.494 82.8185 92.4938C83.2936 92.4937 83.7535 92.3259 84.1172 92.0202L88.7988 88.0202C89.202 87.6757 89.4519 87.1852 89.4935 86.6565C89.5351 86.1278 89.3649 85.6042 89.0205 85.2009C88.676 84.7976 88.1855 84.5477 87.6567 84.5062C87.128 84.4646 86.6044 84.6347 86.2012 84.9792L82.8184 87.8698L81.7988 86.9987C81.3952 86.6542 80.8714 86.4842 80.3425 86.5259C79.8136 86.5677 79.3229 86.8179 78.9785 87.2214C78.634 87.6249 78.464 88.1488 78.5057 88.6777C78.5475 89.2066 78.7976 89.6972 79.2012 90.0417L81.5195 92.0212Z" fill="#00CCFF"/>
<path d="M2 140.5C3.10457 140.5 4 139.605 4 138.5C4 137.395 3.10457 136.5 2 136.5C0.89543 136.5 0 137.395 0 138.5C0 139.605 0.89543 140.5 2 140.5Z" fill="black"/>
<path d="M11 136.5H8C7.46957 136.5 6.96086 136.711 6.58579 137.086C6.21071 137.461 6 137.97 6 138.5C6 139.03 6.21071 139.539 6.58579 139.914C6.96086 140.289 7.46957 140.5 8 140.5H11C11.5304 140.5 12.0391 140.289 12.4142 139.914C12.7893 139.539 13 139.03 13 138.5C13 137.97 12.7893 137.461 12.4142 137.086C12.0391 136.711 11.5304 136.5 11 136.5ZM160 136.5H157C156.47 136.5 155.961 136.711 155.586 137.086C155.211 137.461 155 137.97 155 138.5C155 139.03 155.211 139.539 155.586 139.914C155.961 140.289 156.47 140.5 157 140.5H160C160.53 140.5 161.039 140.289 161.414 139.914C161.789 139.539 162 139.03 162 138.5C162 137.97 161.789 137.461 161.414 137.086C161.039 136.711 160.53 136.5 160 136.5Z" fill="black"/>
<path d="M166 140.5C167.105 140.5 168 139.605 168 138.5C168 137.395 167.105 136.5 166 136.5C164.895 136.5 164 137.395 164 138.5C164 139.605 164.895 140.5 166 140.5Z" fill="black"/>
<path d="M118.154 144.5H109.846C109.343 144.54 108.874 144.768 108.532 145.139C108.19 145.51 108 145.996 108 146.5C108 147.004 108.19 147.49 108.532 147.861C108.874 148.232 109.343 148.46 109.846 148.5H118.154C118.657 148.46 119.126 148.232 119.468 147.861C119.81 147.49 120 147.004 120 146.5C120 145.996 119.81 145.51 119.468 145.139C119.126 144.768 118.657 144.54 118.154 144.5ZM58.1539 144.5H49.8462C49.3434 144.54 48.8742 144.768 48.5321 145.139C48.19 145.51 48 145.996 48 146.5C48 147.004 48.19 147.49 48.5321 147.861C48.8742 148.232 49.3434 148.46 49.8462 148.5H58.1539C58.6567 148.46 59.1258 148.232 59.468 147.861C59.8101 147.49 60.0001 147.004 60.0001 146.5C60.0001 145.996 59.8101 145.51 59.468 145.139C59.1258 144.768 58.6567 144.54 58.1539 144.5ZM104 144.5H64C63.4696 144.5 62.9609 144.711 62.5858 145.086C62.2107 145.461 62 145.97 62 146.5C62 147.03 62.2107 147.539 62.5858 147.914C62.9609 148.289 63.4696 148.5 64 148.5H79.94V150.5H72C71.4696 150.5 70.9609 150.711 70.5858 151.086C70.2107 151.461 70 151.97 70 152.5C70 153.03 70.2107 153.539 70.5858 153.914C70.9609 154.289 71.4696 154.5 72 154.5H97C97.5305 154.5 98.0392 154.289 98.4142 153.914C98.7893 153.539 99 153.03 99 152.5C99 151.97 98.7893 151.461 98.4142 151.086C98.0392 150.711 97.5305 150.5 97 150.5H88.06V148.5H104C104.53 148.5 105.039 148.289 105.414 147.914C105.789 147.539 106 147.03 106 146.5C106 145.97 105.789 145.461 105.414 145.086C105.039 144.711 104.53 144.5 104 144.5Z" fill="#00CCFF"/>
<path d="M2 140.5C3.10457 140.5 4 139.605 4 138.5C4 137.395 3.10457 136.5 2 136.5C0.89543 136.5 0 137.395 0 138.5C0 139.605 0.89543 140.5 2 140.5Z" fill="black"/>
<path d="M11 136.5H8C7.46957 136.5 6.96086 136.711 6.58579 137.086C6.21071 137.461 6 137.97 6 138.5C6 139.03 6.21071 139.539 6.58579 139.914C6.96086 140.289 7.46957 140.5 8 140.5H11C11.5304 140.5 12.0391 140.289 12.4142 139.914C12.7893 139.539 13 139.03 13 138.5C13 137.97 12.7893 137.461 12.4142 137.086C12.0391 136.711 11.5304 136.5 11 136.5ZM160 136.5H157C156.47 136.5 155.961 136.711 155.586 137.086C155.211 137.461 155 137.97 155 138.5C155 139.03 155.211 139.539 155.586 139.914C155.961 140.289 156.47 140.5 157 140.5H160C160.53 140.5 161.039 140.289 161.414 139.914C161.789 139.539 162 139.03 162 138.5C162 137.97 161.789 137.461 161.414 137.086C161.039 136.711 160.53 136.5 160 136.5Z" fill="black"/>
<path d="M166 140.5C167.105 140.5 168 139.605 168 138.5C168 137.395 167.105 136.5 166 136.5C164.895 136.5 164 137.395 164 138.5C164 139.605 164.895 140.5 166 140.5Z" fill="black"/>
<path d="M118.154 144.5H109.846C109.343 144.54 108.874 144.768 108.532 145.139C108.19 145.51 108 145.996 108 146.5C108 147.004 108.19 147.49 108.532 147.861C108.874 148.232 109.343 148.46 109.846 148.5H118.154C118.657 148.46 119.126 148.232 119.468 147.861C119.81 147.49 120 147.004 120 146.5C120 145.996 119.81 145.51 119.468 145.139C119.126 144.768 118.657 144.54 118.154 144.5ZM58.1539 144.5H49.8462C49.3434 144.54 48.8742 144.768 48.5321 145.139C48.19 145.51 48 145.996 48 146.5C48 147.004 48.19 147.49 48.5321 147.861C48.8742 148.232 49.3434 148.46 49.8462 148.5H58.1539C58.6567 148.46 59.1258 148.232 59.468 147.861C59.8101 147.49 60.0001 147.004 60.0001 146.5C60.0001 145.996 59.8101 145.51 59.468 145.139C59.1258 144.768 58.6567 144.54 58.1539 144.5ZM104 144.5H64C63.4696 144.5 62.9609 144.711 62.5858 145.086C62.2107 145.461 62 145.97 62 146.5C62 147.03 62.2107 147.539 62.5858 147.914C62.9609 148.289 63.4696 148.5 64 148.5H79.94V150.5H72C71.4696 150.5 70.9609 150.711 70.5858 151.086C70.2107 151.461 70 151.97 70 152.5C70 153.03 70.2107 153.539 70.5858 153.914C70.9609 154.289 71.4696 154.5 72 154.5H97C97.5305 154.5 98.0392 154.289 98.4142 153.914C98.7893 153.539 99 153.03 99 152.5C99 151.97 98.7893 151.461 98.4142 151.086C98.0392 150.711 97.5305 150.5 97 150.5H88.06V148.5H104C104.53 148.5 105.039 148.289 105.414 147.914C105.789 147.539 106 147.03 106 146.5C106 145.97 105.789 145.461 105.414 145.086C105.039 144.711 104.53 144.5 104 144.5Z" fill="#00CCFF"/>
<path d="M2 140.5C3.10457 140.5 4 139.605 4 138.5C4 137.395 3.10457 136.5 2 136.5C0.89543 136.5 0 137.395 0 138.5C0 139.605 0.89543 140.5 2 140.5Z" fill="black"/>
<path d="M11 136.5H8C7.46957 136.5 6.96086 136.711 6.58579 137.086C6.21071 137.461 6 137.97 6 138.5C6 139.03 6.21071 139.539 6.58579 139.914C6.96086 140.289 7.46957 140.5 8 140.5H11C11.5304 140.5 12.0391 140.289 12.4142 139.914C12.7893 139.539 13 139.03 13 138.5C13 137.97 12.7893 137.461 12.4142 137.086C12.0391 136.711 11.5304 136.5 11 136.5ZM160 136.5H157C156.47 136.5 155.961 136.711 155.586 137.086C155.211 137.461 155 137.97 155 138.5C155 139.03 155.211 139.539 155.586 139.914C155.961 140.289 156.47 140.5 157 140.5H160C160.53 140.5 161.039 140.289 161.414 139.914C161.789 139.539 162 139.03 162 138.5C162 137.97 161.789 137.461 161.414 137.086C161.039 136.711 160.53 136.5 160 136.5Z" fill="black"/>
<path d="M166 140.5C167.105 140.5 168 139.605 168 138.5C168 137.395 167.105 136.5 166 136.5C164.895 136.5 164 137.395 164 138.5C164 139.605 164.895 140.5 166 140.5Z" fill="black"/>
<path d="M118.154 144.5H109.846C109.343 144.54 108.874 144.768 108.532 145.139C108.19 145.51 108 145.996 108 146.5C108 147.004 108.19 147.49 108.532 147.861C108.874 148.232 109.343 148.46 109.846 148.5H118.154C118.657 148.46 119.126 148.232 119.468 147.861C119.81 147.49 120 147.004 120 146.5C120 145.996 119.81 145.51 119.468 145.139C119.126 144.768 118.657 144.54 118.154 144.5ZM58.1539 144.5H49.8462C49.3434 144.54 48.8742 144.768 48.5321 145.139C48.19 145.51 48 145.996 48 146.5C48 147.004 48.19 147.49 48.5321 147.861C48.8742 148.232 49.3434 148.46 49.8462 148.5H58.1539C58.6567 148.46 59.1258 148.232 59.468 147.861C59.8101 147.49 60.0001 147.004 60.0001 146.5C60.0001 145.996 59.8101 145.51 59.468 145.139C59.1258 144.768 58.6567 144.54 58.1539 144.5ZM104 144.5H64C63.4696 144.5 62.9609 144.711 62.5858 145.086C62.2107 145.461 62 145.97 62 146.5C62 147.03 62.2107 147.539 62.5858 147.914C62.9609 148.289 63.4696 148.5 64 148.5H79.94V150.5H72C71.4696 150.5 70.9609 150.711 70.5858 151.086C70.2107 151.461 70 151.97 70 152.5C70 153.03 70.2107 153.539 70.5858 153.914C70.9609 154.289 71.4696 154.5 72 154.5H97C97.5305 154.5 98.0392 154.289 98.4142 153.914C98.7893 153.539 99 153.03 99 152.5C99 151.97 98.7893 151.461 98.4142 151.086C98.0392 150.711 97.5305 150.5 97 150.5H88.06V148.5H104C104.53 148.5 105.039 148.289 105.414 147.914C105.789 147.539 106 147.03 106 146.5C106 145.97 105.789 145.461 105.414 145.086C105.039 144.711 104.53 144.5 104 144.5Z" fill="#00CCFF"/>
<path d="M150.721 136.5H95.1307L93.6338 127.32L100.431 120.356C100.688 120.093 100.867 119.765 100.949 119.406C101.031 119.048 101.013 118.674 100.897 118.325C100.78 117.977 100.569 117.667 100.288 117.43C100.007 117.194 99.666 117.039 99.3027 116.983L89.9912 115.558L85.8105 106.649C85.6489 106.306 85.3928 106.015 85.0722 105.812C84.7516 105.608 84.3797 105.5 84 105.5C83.6202 105.5 83.2483 105.608 82.9277 105.812C82.6071 106.015 82.351 106.306 82.1895 106.649L78.0068 115.558L68.6973 116.983C68.3339 117.039 67.9929 117.194 67.7117 117.43C67.4305 117.667 67.2201 117.977 67.1034 118.325C66.9867 118.674 66.9684 119.048 67.0504 119.406C67.1325 119.765 67.3117 120.093 67.5684 120.356L74.3623 127.319L72.8653 136.5H17.2787C16.9941 136.463 16.705 136.487 16.4304 136.57C16.1559 136.654 15.9024 136.795 15.6867 136.984C15.4711 137.173 15.2983 137.407 15.1799 137.668C15.0616 137.929 15.0003 138.213 15.0003 138.5C15.0003 138.787 15.0616 139.071 15.1799 139.332C15.2983 139.593 15.4711 139.827 15.6867 140.016C15.9024 140.205 16.1559 140.346 16.4304 140.43C16.705 140.513 16.9941 140.537 17.2787 140.5H150.721C151.006 140.537 151.295 140.513 151.57 140.43C151.844 140.346 152.098 140.205 152.313 140.016C152.529 139.827 152.702 139.593 152.82 139.332C152.938 139.071 153 138.787 153 138.5C153 138.213 152.938 137.929 152.82 137.668C152.702 137.407 152.529 137.173 152.313 136.984C152.098 136.795 151.844 136.654 151.57 136.57C151.295 136.487 151.006 136.463 150.721 136.5ZM73.1484 120.348L79.667 119.35C79.9915 119.3 80.2989 119.171 80.5619 118.975C80.8248 118.778 81.0353 118.52 81.1748 118.223L84 112.206L86.8232 118.223C86.9626 118.52 87.1731 118.778 87.4361 118.975C87.6991 119.171 88.0065 119.3 88.331 119.35L94.8496 120.348L90.0664 125.248C89.8474 125.472 89.6842 125.745 89.5899 126.044C89.4956 126.343 89.4728 126.659 89.5234 126.969L90.6309 133.757L84.9678 130.627C84.6718 130.463 84.339 130.377 84.0006 130.377C83.6622 130.377 83.3293 130.462 83.0332 130.626L77.3652 133.758L78.4727 126.969C78.5233 126.66 78.5006 126.343 78.4065 126.044C78.3123 125.746 78.1493 125.473 77.9307 125.249L73.1484 120.348ZM84 134.663C84 134.663 85.558 135.524 87.3232 136.5H80.6757L84 134.663ZM68.3047 19.5C68.898 19.5 69.4781 19.3241 69.9714 18.9944C70.4647 18.6648 70.8493 18.1962 71.0763 17.6481C71.3034 17.0999 71.3628 16.4967 71.247 15.9147C71.1313 15.3328 70.8456 14.7982 70.426 14.3787C70.0065 13.9591 69.4719 13.6734 68.89 13.5576C68.308 13.4419 67.7048 13.5013 67.1566 13.7284C66.6085 13.9554 66.1399 14.3399 65.8103 14.8333C65.4806 15.3266 65.3047 15.9067 65.3047 16.5C65.3056 17.2954 65.622 18.0579 66.1844 18.6203C66.7468 19.1827 67.5093 19.4991 68.3047 19.5ZM68.3047 15C68.6014 15 68.8914 15.088 69.138 15.2528C69.3847 15.4176 69.577 15.6519 69.6905 15.926C69.804 16.2001 69.8337 16.5017 69.7759 16.7926C69.718 17.0836 69.5751 17.3509 69.3653 17.5607C69.1556 17.7704 68.8883 17.9133 68.5973 17.9712C68.3064 18.0291 68.0047 17.9994 67.7307 17.8858C67.4566 17.7723 67.2223 17.58 67.0575 17.3334C66.8927 17.0867 66.8047 16.7967 66.8047 16.5C66.8051 16.1023 66.9632 15.721 67.2445 15.4398C67.5257 15.1586 67.907 15.0004 68.3047 15ZM158.305 80.5C157.909 80.5 157.522 80.6173 157.194 80.8371C156.865 81.0568 156.608 81.3692 156.457 81.7346C156.306 82.1001 156.266 82.5022 156.343 82.8902C156.42 83.2781 156.611 83.6345 156.89 83.9142C157.17 84.1939 157.527 84.3844 157.915 84.4616C158.302 84.5387 158.705 84.4991 159.07 84.3478C159.436 84.1964 159.748 83.94 159.968 83.6111C160.187 83.2822 160.305 82.8956 160.305 82.5C160.304 81.9697 160.093 81.4614 159.718 81.0865C159.343 80.7115 158.835 80.5006 158.305 80.5ZM158.305 83.5C158.107 83.5 157.914 83.4413 157.749 83.3315C157.585 83.2216 157.456 83.0654 157.381 82.8827C157.305 82.7 157.285 82.4989 157.324 82.3049C157.363 82.1109 157.458 81.9327 157.598 81.7929C157.737 81.653 157.916 81.5578 158.11 81.5192C158.304 81.4806 158.505 81.5004 158.687 81.5761C158.87 81.6518 159.026 81.78 159.136 81.9444C159.246 82.1089 159.305 82.3022 159.305 82.5C159.304 82.7651 159.199 83.0193 159.012 83.2068C158.824 83.3943 158.57 83.4997 158.305 83.5ZM98.3047 51.5C97.9091 51.5 97.5224 51.6173 97.1936 51.8371C96.8647 52.0568 96.6083 52.3692 96.4569 52.7346C96.3055 53.1001 96.2659 53.5022 96.3431 53.8902C96.4203 54.2781 96.6108 54.6345 96.8905 54.9142C97.1702 55.1939 97.5265 55.3844 97.9145 55.4616C98.3025 55.5387 98.7046 55.4991 99.0701 55.3478C99.4355 55.1964 99.7479 54.94 99.9676 54.6111C100.187 54.2822 100.305 53.8956 100.305 53.5C100.304 52.9698 100.093 52.4614 99.7182 52.0865C99.3433 51.7115 98.8349 51.5006 98.3047 51.5ZM98.3047 54.5C98.1069 54.5 97.9136 54.4414 97.7491 54.3315C97.5847 54.2216 97.4565 54.0654 97.3808 53.8827C97.3051 53.7 97.2853 53.4989 97.3239 53.3049C97.3625 53.1109 97.4577 52.9327 97.5976 52.7929C97.7374 52.653 97.9156 52.5578 98.1096 52.5192C98.3036 52.4806 98.5046 52.5004 98.6874 52.5761C98.8701 52.6518 99.0263 52.78 99.1362 52.9444C99.246 53.1089 99.3047 53.3022 99.3047 53.5C99.3044 53.7651 99.199 54.0193 99.0115 54.2068C98.824 54.3943 98.5698 54.4997 98.3047 54.5ZM158.305 21.5C157.909 21.5 157.522 21.6173 157.194 21.8371C156.865 22.0568 156.608 22.3692 156.457 22.7346C156.306 23.1001 156.266 23.5022 156.343 23.8902C156.42 24.2781 156.611 24.6345 156.89 24.9142C157.17 25.1939 157.527 25.3844 157.915 25.4616C158.302 25.5387 158.705 25.4991 159.07 25.3478C159.436 25.1964 159.748 24.94 159.968 24.6111C160.187 24.2822 160.305 23.8956 160.305 23.5C160.304 22.9698 160.093 22.4614 159.718 22.0865C159.343 21.7115 158.835 21.5006 158.305 21.5ZM158.305 24.5C158.107 24.5 157.914 24.4414 157.749 24.3315C157.585 24.2216 157.456 24.0654 157.381 23.8827C157.305 23.7 157.285 23.4989 157.324 23.3049C157.363 23.1109 157.458 22.9327 157.598 22.7929C157.737 22.653 157.916 22.5578 158.11 22.5192C158.304 22.4806 158.505 22.5004 158.687 22.5761C158.87 22.6518 159.026 22.78 159.136 22.9444C159.246 23.1089 159.305 23.3022 159.305 23.5C159.304 23.7651 159.199 24.0193 159.012 24.2068C158.824 24.3943 158.57 24.4997 158.305 24.5ZM17.3047 39.5C17.3047 39.1044 17.1874 38.7178 16.9676 38.3889C16.7479 38.06 16.4355 37.8036 16.0701 37.6522C15.7046 37.5009 15.3025 37.4613 14.9145 37.5384C14.5265 37.6156 14.1702 37.8061 13.8905 38.0858C13.6108 38.3655 13.4203 38.7219 13.3431 39.1098C13.2659 39.4978 13.3056 39.8999 13.4569 40.2654C13.6083 40.6308 13.8646 40.9432 14.1935 41.1629C14.5224 41.3827 14.9091 41.5 15.3047 41.5C15.8349 41.4994 16.3433 41.2885 16.7182 40.9135C17.0932 40.5386 17.3041 40.0302 17.3047 39.5ZM14.3047 39.5C14.3047 39.3022 14.3633 39.1089 14.4732 38.9444C14.5831 38.78 14.7393 38.6518 14.922 38.5761C15.1047 38.5004 15.3058 38.4806 15.4998 38.5192C15.6938 38.5578 15.8719 38.653 16.0118 38.7929C16.1516 38.9327 16.2469 39.1109 16.2855 39.3049C16.3241 39.4989 16.3043 39.7 16.2286 39.8827C16.1529 40.0654 16.0247 40.2216 15.8603 40.3315C15.6958 40.4414 15.5025 40.5 15.3047 40.5C15.0396 40.4997 14.7854 40.3943 14.5979 40.2068C14.4104 40.0193 14.305 39.7651 14.3047 39.5Z" fill="black"/>
<path d="M10.8878 80.5114L12.3748 78.5564L11.4358 78.0244L10.4808 80.2144H10.4498L9.47982 78.0394L8.52482 78.5874L9.99582 80.4964V80.5274L7.69482 80.2304V81.2944L10.0108 80.9974V81.0284L8.52482 82.9364L9.41582 83.5004L10.4338 81.2944H10.4648L11.4038 83.4844L12.3898 82.9214L10.8878 81.0434V81.0124L13.2498 81.2944V80.2304L10.8878 80.5424V80.5114Z" fill="#00CCFF"/>
<path d="M52.0811 45.5669L51.2251 46.6659L51.7391 46.9899L52.3251 45.7199H52.3421L52.8831 46.9809L53.4511 46.6569L52.5861 45.5749V45.5569L53.9461 45.7199V45.1069L52.5861 45.2869V45.2689L53.4421 44.1429L52.9021 43.8369L52.3521 45.0979H52.3341L51.7751 43.8449L51.2251 44.1609L52.0721 45.2599V45.2779L50.7471 45.1069V45.7199L52.0811 45.5489V45.5669Z" fill="#00CCFF"/>
<path d="M155.305 59.2129V58.1699L152.988 58.4769V58.4459L154.446 56.5279L153.525 56.0059L152.589 58.1539H152.558L151.607 56.0209L150.67 56.5589L152.113 58.4309V58.4619L149.856 58.1699V59.2129L152.128 58.9219V58.9529L150.67 60.8249L151.545 61.3779L152.543 59.2129H152.573L153.494 61.3619L154.461 60.8099L152.988 58.9679V58.9369L155.305 59.2129Z" fill="#00CCFF"/>
<path d="M116.748 31.0864L118.006 29.4314L117.211 28.9814L116.404 30.8344H116.377L115.557 28.9944L114.748 29.4584L115.993 31.0734V31.0994L114.047 30.8484V31.7484L116.006 31.4964V31.5234L114.748 33.1384L115.503 33.6154L116.364 31.7484H116.39L117.185 33.6014L118.019 33.1254L116.748 31.5364V31.5094L118.746 31.7484V30.8484L116.748 31.1124V31.0864Z" fill="#00CCFF"/>
</svg>
