<svg width="21" height="24" viewBox="0 0 21 24" fill="none" xmlns="http://www.w3.org/2000/svg">
<g clip-path="url(#clip0_1320_1238)">
<path d="M1.07494 22.6821C0.648047 22.6821 0.523934 22.4428 0.523934 22.0844C0.523934 21.965 0.53952 21.8302 0.558715 21.6883C0.65223 21.0684 0.880523 20.7138 1.43153 20.7138C1.8042 20.7138 1.98589 20.8742 1.98589 21.1656V21.3076H2.35561C2.35971 21.3076 2.35971 21.1768 2.35971 21.1471C2.35971 20.7214 2.09188 20.3177 1.4321 20.3177C0.535582 20.3177 0.166934 20.7864 0.0310898 21.7052C0.0116484 21.8286 0 21.9437 0 22.0665C0 22.6081 0.221402 23.1007 1.013 23.1007C1.61446 23.1007 1.9717 22.8185 2.18113 22.4711L1.8279 22.2422C1.59904 22.5896 1.35048 22.6821 1.07494 22.6821V22.6821ZM3.5006 20.9714C2.7825 20.9714 2.47226 21.3261 2.3675 22.0318C2.35521 22.1135 2.34863 22.1959 2.34782 22.2785C2.34782 22.734 2.56905 23.0965 3.18207 23.0965C3.90018 23.0965 4.2146 22.7267 4.31936 22.0318C4.331 21.9423 4.3388 21.8601 4.3388 21.778C4.33896 21.315 4.11009 20.9714 3.5006 20.9714V20.9714ZM3.79944 22.0321C3.72176 22.5439 3.55507 22.7008 3.24048 22.7008C2.9884 22.7008 2.86429 22.5999 2.86429 22.2973C2.86429 22.2226 2.87216 22.1331 2.88758 22.0321C2.96527 21.5242 3.12047 21.3673 3.43867 21.3673C3.69485 21.3673 3.82274 21.4682 3.82274 21.7744C3.82274 21.8491 3.81486 21.9351 3.79944 22.0321ZM6.14389 20.3548L6.02372 21.0404C6.01601 21.1 6.01995 21.0802 6.04341 21.1363C5.93086 21.0542 5.7289 20.9998 5.59305 20.9998C4.94878 20.9998 4.58801 21.2805 4.47169 22.0648C4.45811 22.1476 4.4516 22.2314 4.45225 22.3152C4.45225 22.8868 4.80145 23.0999 5.27092 23.0999C5.46911 23.0999 5.66303 23.1039 5.81421 22.9808L5.85285 23.2131H6.22552L6.66012 20.3548H6.14389V20.3548ZM5.77525 22.5923C5.60077 22.6929 5.43014 22.7156 5.32539 22.7156C5.04205 22.7156 4.96445 22.5736 4.96445 22.3459C4.96445 22.2599 4.9761 22.1593 4.99177 22.0507C5.08085 21.4569 5.27887 21.3522 5.53506 21.3522C5.70175 21.3522 5.82972 21.3785 5.9503 21.4421L5.77525 22.5923V22.5923ZM7.79346 20.9714C7.08307 20.9714 6.74961 21.2961 6.6369 22.0318C6.62509 22.1216 6.6173 22.2076 6.6173 22.2897C6.6173 22.7939 6.88521 23.0965 7.47485 23.0965C7.93283 23.0965 8.27466 22.9134 8.45693 22.5772L8.0649 22.4241C7.95252 22.5883 7.80117 22.7004 7.53334 22.7004C7.24623 22.7004 7.12975 22.626 7.12975 22.3794C7.12975 22.3308 7.13368 22.2602 7.14148 22.2602H8.54224C8.56193 22.0696 8.5849 21.9349 8.5849 21.8232C8.5849 21.4499 8.43757 20.9713 7.79346 20.9713V20.9714ZM8.06113 21.8792H7.20735C7.29291 21.6887 7.43621 21.3937 7.73128 21.3937C7.96015 21.3937 8.07286 21.5225 8.07286 21.7428C8.07261 21.7802 8.06909 21.8792 8.06113 21.8792V21.8792ZM10.0784 20.9264L10.1249 20.5453H9.03033L8.98398 20.9264H9.27109L8.96085 22.832H8.67333L8.62706 23.2131H9.72136L9.76812 22.832H9.48076L9.79109 20.9264H10.0784ZM12.3022 21.4981L12.4421 21.117H12.0656L11.7942 21.1709C11.6428 21.0778 11.437 21.0078 11.2432 21.0078C10.688 21.0078 10.2148 21.2658 10.2148 21.8523C10.2148 22.0168 10.2768 22.1496 10.3504 22.2394C10.2342 22.299 10.1332 22.3989 10.1332 22.5336C10.1332 22.5932 10.1564 22.6543 10.2031 22.7102C9.97008 22.8449 9.82693 23.0681 9.82693 23.3293C9.82693 23.8338 10.374 23.9414 10.7931 23.9414C11.3208 23.9414 11.9497 23.8254 11.9497 23.1792C11.9497 22.9589 11.8061 22.7868 11.3909 22.7121L10.6419 22.5774C10.5566 22.5624 10.5372 22.5362 10.5372 22.4989C10.5372 22.4428 10.5724 22.4132 10.6303 22.4132L10.6809 22.4206C10.7818 22.4429 10.8983 22.4543 11.0184 22.4543C11.558 22.4543 12.0392 22.2301 12.0392 21.6474C12.0392 21.5652 12.0237 21.5095 11.9849 21.4198C12.0508 21.4498 12.1364 21.4983 12.171 21.4983H12.3022V21.4981V21.4981ZM11.2352 23.0441C11.3826 23.0704 11.4329 23.1226 11.4329 23.216C11.4329 23.5186 11.0953 23.5559 10.8509 23.5559C10.4783 23.5559 10.3387 23.4702 10.3387 23.2794C10.3387 23.1113 10.389 23.0331 10.5057 22.9134L11.2352 23.0441ZM11.0759 22.0658C10.8508 22.0658 10.7266 21.9875 10.7266 21.8005C10.7266 21.5242 10.8935 21.3636 11.1846 21.3636C11.4174 21.3636 11.5301 21.4569 11.5301 21.6397C11.5301 21.9162 11.3669 22.0658 11.0759 22.0658V22.0658ZM13.6809 20.9714C13.4635 20.9714 13.2697 21.0741 13.0289 21.2569L12.9941 21.117H12.567L12.2683 23.2131H12.7844L13.0096 21.6235C13.161 21.5339 13.3471 21.4038 13.5063 21.4038C13.7002 21.4038 13.7703 21.4939 13.7703 21.6656C13.7703 21.7067 13.7662 21.8286 13.7584 21.8733L13.5685 23.2131H14.0847L14.2746 21.8624C14.2825 21.7993 14.2902 21.6951 14.2902 21.6355C14.2904 21.2803 14.1155 20.9714 13.6809 20.9714V20.9714ZM15.2707 22.688L15.2746 22.6367L15.4996 21.117H14.6418L14.5878 21.4981H14.964C14.9329 21.4981 14.9135 21.5315 14.9098 21.5616L14.7545 22.5737C14.7468 22.6224 14.743 22.7237 14.743 22.7646C14.743 23.0259 14.8903 23.2131 15.1928 23.2131H15.4568L15.5151 22.832H15.3483C15.2899 22.832 15.2707 22.7327 15.2707 22.688V22.688ZM15.6043 20.3548H15.0998C15.0687 20.3548 15.0687 20.2448 15.065 20.2821L14.9949 20.8191C14.9909 20.8529 14.9909 20.9265 15.022 20.9265H15.5267C15.5578 20.9265 15.5578 20.7959 15.5616 20.762L15.6316 20.3475C15.6356 20.3102 15.6356 20.3548 15.6043 20.3548ZM16.6569 22.7007C16.529 22.7007 16.4668 22.6483 16.4668 22.5365L16.4707 22.5288L16.6337 21.4981H17.2235L17.4019 21.117H16.6879L16.8081 20.2783L16.2651 20.4455L16.1679 21.117H15.8536L15.7994 21.4981H16.1641C16.1292 21.6887 16.0942 21.565 16.0904 21.6025L15.9506 22.5063C15.9429 22.5475 15.9429 22.5774 15.9429 22.6146C15.9429 22.9694 16.2145 23.1022 16.5409 23.1022C16.8434 23.1022 17.0879 23.0172 17.2782 22.8638L17.0375 22.5788C16.9169 22.6496 16.8355 22.7007 16.6569 22.7007V22.7007ZM18.5507 20.9714C17.8406 20.9714 17.5069 21.2961 17.3942 22.0318C17.3826 22.1216 17.3748 22.2076 17.3748 22.2897C17.3748 22.7939 17.6425 23.0965 18.2323 23.0965C18.6903 23.0965 19.0322 22.9134 19.2143 22.5772L18.8224 22.4241C18.71 22.5883 18.5585 22.7004 18.2906 22.7004C18.0036 22.7004 17.887 22.626 17.887 22.3794C17.887 22.3308 17.8912 22.2602 17.899 22.2602H19.2998C19.3192 22.0696 19.3425 21.9349 19.3425 21.8232C19.3425 21.4499 19.1951 20.9713 18.5507 20.9713V20.9714ZM18.8186 21.8792H17.9648C18.0502 21.6887 18.1935 21.3937 18.4888 21.3937C18.7176 21.3937 18.8304 21.5225 18.8304 21.7428C18.8301 21.7802 18.8263 21.8792 18.8186 21.8792V21.8792ZM20.7707 20.9713C20.5844 20.9713 20.4098 21.0741 20.2351 21.2344L20.2041 21.117H19.7773L19.4784 23.2131H19.9985L20.2273 21.5899C20.3633 21.5117 20.5185 21.4448 20.666 21.4448C20.7592 21.4448 20.8483 21.4305 20.9336 21.4416L21 21.0086C20.922 20.9937 20.8444 20.9714 20.7707 20.9714V20.9713ZM7.59117 18.8534C6.41648 18.3647 5.31727 17.1227 5.31464 15.8519C5.31144 14.4664 6.22379 13.2901 7.35853 12.517C7.22211 13.0131 7.14771 13.4668 7.48568 13.9104C7.79986 14.3229 8.35012 14.5234 8.86971 14.4146C10.0838 14.1588 10.1395 12.8743 9.41973 12.126C8.70811 11.3849 8.0197 10.5478 8.29057 9.47313C8.42617 8.93439 8.76988 8.42976 9.2053 8.06905C8.87061 8.91553 9.82168 9.75032 10.4483 10.1661C11.5353 10.8876 12.728 11.4328 13.7274 12.2784C14.7787 13.1672 15.5551 14.369 15.3983 15.7628C15.2284 17.2735 13.9811 18.3242 12.582 18.8547C15.5385 18.2267 18.5934 16.0183 18.656 12.8626C18.7079 10.2664 16.8573 8.2684 14.565 7.12453L14.4452 7.06161C14.5081 7.20853 14.5287 7.3335 14.5263 7.44537C14.5476 7.36183 14.5604 7.27651 14.5647 7.19061C14.5642 7.29452 14.5501 7.39796 14.5227 7.4985L14.5263 7.44537C14.4923 7.5832 14.435 7.71472 14.3566 7.83466L14.3902 7.79984C13.9329 8.52987 12.6948 8.68839 12.0832 7.93247C11.1 6.71653 12.1038 5.40553 12.2442 4.11789C12.42 2.50413 11.3685 0.9375 10.0647 0C10.7828 1.11797 9.8367 2.59705 9.07979 3.42395C8.34586 4.2255 7.45328 4.89474 6.64305 5.62303C5.7727 6.40524 4.93598 7.22921 4.22059 8.14729C2.7898 9.98487 1.91387 12.296 2.55757 14.5884C3.20086 16.8793 5.2628 18.3377 7.59125 18.8533L7.59117 18.8534Z" fill="#EE4323"/>
</g>
<defs>
<clipPath id="clip0_1320_1238">
<rect width="21" height="24" fill="white"/>
</clipPath>
</defs>
</svg>
