<svg width="60" height="60" viewBox="0 0 60 60" fill="none" xmlns="http://www.w3.org/2000/svg">
<g clip-path="url(#clip0_1249_1370)">
<path d="M46.987 41.323C50.8549 36.028 52.5824 29.4685 51.824 22.9552C51.0656 16.442 47.8773 10.4547 42.8963 6.19013C37.9152 1.92552 31.5083 -0.302372 24.956 -0.0483052C18.4036 0.205761 12.1885 2.92307 7.55261 7.56058C2.91674 12.1981 0.201626 18.4142 -0.0501252 24.9666C-0.301876 31.5191 1.92828 37.9252 6.19465 42.9047C10.461 47.8843 16.4494 51.0704 22.9629 51.8265C29.4764 52.5826 36.0354 50.8528 41.329 46.983L53.169 58.821C53.5353 59.2122 53.9766 59.5258 54.4665 59.7432C54.9564 59.9605 55.485 60.0772 56.0209 60.0863C56.5568 60.0954 57.0891 59.9967 57.5861 59.796C58.0831 59.5954 58.5347 59.2969 58.9141 58.9183C59.2935 58.5397 59.5929 58.0887 59.7946 57.5922C59.9963 57.0956 60.0962 56.5635 60.0882 56.0276C60.0803 55.4917 59.9647 54.9629 59.7484 54.4725C59.5321 53.9821 59.2194 53.5402 58.829 53.173L46.987 41.323ZM1.99996 26C1.99996 21.2532 3.40754 16.6131 6.04469 12.6663C8.68184 8.71953 12.4301 5.64339 16.8156 3.82689C21.201 2.01039 26.0266 1.53511 30.6821 2.46115C35.3377 3.3872 39.6141 5.67297 42.9705 9.02943C46.327 12.3859 48.6128 16.6623 49.5388 21.3178C50.4649 25.9734 49.9896 30.799 48.1731 35.1844C46.3566 39.5698 43.2804 43.3181 39.3336 45.9553C35.3869 48.5924 30.7467 50 26 50C19.637 49.9926 13.5368 47.4616 9.03758 42.9624C4.53831 38.4631 2.00737 32.3629 1.99996 26ZM57.409 57.419C57.0289 57.782 56.5233 57.984 55.9978 57.9829C55.4722 57.9818 54.9675 57.7776 54.589 57.413L42.9 45.73C43.9161 44.8607 44.8639 43.9146 45.735 42.9L57.415 54.588C57.6008 54.7742 57.7481 54.9952 57.8484 55.2384C57.9487 55.4816 58.0001 55.7422 57.9995 56.0052C57.999 56.2683 57.9465 56.5287 57.8452 56.7715C57.7438 57.0142 57.5956 57.2346 57.409 57.42V57.419Z" fill="black"/>
<path d="M25.9998 4C25.7346 4 25.4802 4.10536 25.2927 4.29289C25.1051 4.48043 24.9998 4.73478 24.9998 5C24.9998 5.26522 25.1051 5.51957 25.2927 5.70711C25.4802 5.89464 25.7346 6 25.9998 6C31.2333 6.00733 36.2558 8.06458 39.9906 11.7308C43.7254 15.397 45.8754 20.3805 45.9798 25.613L42.5798 23.187C42.4147 23.0689 42.2176 23.0039 42.0147 23.0005C41.8118 22.9971 41.6127 23.0555 41.4438 23.168L39.8718 24.216C39.4419 20.8401 37.7959 17.7368 35.2421 15.4875C32.6883 13.2383 29.4019 11.9974 25.9988 11.9974C22.5957 11.9974 19.3093 13.2383 16.7555 15.4875C14.2016 17.7368 12.5556 20.8401 12.1258 24.216L10.5538 23.168C10.3849 23.0555 10.1857 22.9971 9.98282 23.0005C9.77991 23.0039 9.58284 23.0689 9.41778 23.187L6.01778 25.616C6.09186 21.2049 7.62634 16.9429 10.3811 13.4969C13.1358 10.051 16.9553 7.61563 21.2418 6.572C21.4994 6.50888 21.7215 6.34599 21.859 6.11916C21.9966 5.89234 22.0384 5.62016 21.9753 5.3625C21.9122 5.10484 21.7493 4.88281 21.5224 4.74525C21.2956 4.6077 21.0234 4.56588 20.7658 4.629C15.3172 5.96031 10.5824 9.32152 7.52857 14.0261C4.47468 18.7307 3.3321 24.4237 4.33417 29.9423C5.33625 35.4609 8.40739 40.3888 12.9203 43.7194C17.4332 47.05 23.0474 48.532 28.6162 47.8628C34.185 47.1935 39.2882 44.4235 42.8835 40.1185C46.4788 35.8135 48.295 30.2983 47.961 24.6994C47.627 19.1005 45.1681 13.8403 41.0865 9.99325C37.005 6.14618 31.6086 4.00248 25.9998 4ZM25.9998 14C28.3732 14 30.6932 14.7038 32.6666 16.0224C34.64 17.3409 36.1781 19.2151 37.0863 21.4078C37.9946 23.6005 38.2322 26.0133 37.7692 28.3411C37.3062 30.6689 36.1633 32.8071 34.4851 34.4853C32.8068 36.1635 30.6686 37.3064 28.3409 37.7694C26.0131 38.2324 23.6003 37.9948 21.4076 37.0866C19.2149 36.1783 17.3407 34.6402 16.0221 32.6668C14.7036 30.6935 13.9998 28.3734 13.9998 26C14.0032 22.8185 15.2686 19.7682 17.5183 17.5185C19.768 15.2688 22.8182 14.0034 25.9998 14ZM25.9998 46C21.0451 45.9943 16.2684 44.1522 12.5929 40.8296C8.91739 37.507 6.60398 32.94 6.09978 28.011L10.0178 25.211L12.0258 26.55C12.1625 30.1641 13.6944 33.5847 16.2997 36.0932C18.9051 38.6018 22.3811 40.0033 25.9978 40.0033C29.6145 40.0033 33.0905 38.6018 35.6958 36.0932C38.3011 33.5847 39.833 30.1641 39.9698 26.55L41.9778 25.211L45.8958 28.011C45.3917 32.9393 43.0788 37.5058 39.4041 40.8283C35.7295 44.1507 30.9538 45.9933 25.9998 46Z" fill="black"/>
<path d="M23.0001 30C23.0001 29.7348 22.8948 29.4804 22.7072 29.2929C22.5197 29.1054 22.2653 29 22.0001 29C21.7349 29 21.4806 29.1054 21.293 29.2929C21.1055 29.4804 21.0001 29.7348 21.0001 30C21.0016 31.1522 21.4002 32.2687 22.1288 33.1613C22.8575 34.0538 23.8715 34.6679 25.0001 34.9V35C25.0001 35.2652 25.1055 35.5196 25.293 35.7071C25.4806 35.8946 25.7349 36 26.0001 36C26.2653 36 26.5197 35.8946 26.7072 35.7071C26.8948 35.5196 27.0001 35.2652 27.0001 35V34.9C28.1304 34.6705 29.1466 34.0573 29.8765 33.1643C30.6064 32.2712 31.0051 31.1534 31.0051 30C31.0051 28.8466 30.6064 27.7288 29.8765 26.8357C29.1466 25.9427 28.1304 25.3295 27.0001 25.1V19.184C27.583 19.3901 28.088 19.7712 28.446 20.2753C28.804 20.7794 28.9976 21.3817 29.0001 22C29.0001 22.2652 29.1055 22.5196 29.293 22.7071C29.4806 22.8946 29.7349 23 30.0001 23C30.2653 23 30.5197 22.8946 30.7072 22.7071C30.8948 22.5196 31.0001 22.2652 31.0001 22C30.9987 20.8478 30.6 19.7313 29.8714 18.8387C29.1428 17.9462 28.1287 17.3321 27.0001 17.1V17C27.0001 16.7348 26.8948 16.4804 26.7072 16.2929C26.5197 16.1054 26.2653 16 26.0001 16C25.7349 16 25.4806 16.1054 25.293 16.2929C25.1055 16.4804 25.0001 16.7348 25.0001 17V17.1C23.8698 17.3295 22.8537 17.9427 22.1238 18.8357C21.3938 19.7288 20.9951 20.8466 20.9951 22C20.9951 23.1534 21.3938 24.2712 22.1238 25.1643C22.8537 26.0573 23.8698 26.6705 25.0001 26.9V32.817C24.4171 32.6109 23.9119 32.2296 23.5539 31.7253C23.1959 31.221 23.0025 30.6184 23.0001 30ZM29.0001 30C28.9976 30.6183 28.804 31.2206 28.446 31.7247C28.088 32.2288 27.583 32.6099 27.0001 32.816V27.184C27.583 27.3901 28.088 27.7712 28.446 28.2753C28.804 28.7794 28.9976 29.3817 29.0001 30ZM23.0001 22C23.0027 21.3817 23.1962 20.7794 23.5542 20.2753C23.9122 19.7712 24.4172 19.3901 25.0001 19.184V24.816C24.4172 24.6099 23.9122 24.2288 23.5542 23.7247C23.1962 23.2206 23.0027 22.6183 23.0001 22Z" fill="black"/>
</g>
<defs>
<clipPath id="clip0_1249_1370">
<rect width="60" height="60" fill="white"/>
</clipPath>
</defs>
</svg>
