<svg width="32" height="32" viewBox="0 0 32 32" fill="none" xmlns="http://www.w3.org/2000/svg">
<g clip-path="url(#clip0_1250_2275)">
<path d="M28.1899 31.2797L27.3199 29.4797L26.6899 28.2097C26.4599 27.6197 26.1499 26.8397 25.7999 25.9897L25.2099 24.4997C24.7595 23.3074 24.5779 22.0304 24.6782 20.7598C24.7784 19.4893 25.158 18.2565 25.7899 17.1497C27.0323 14.8769 27.4291 12.2373 26.9099 9.69969C26.885 9.58769 26.8231 9.48732 26.7343 9.41477C26.6454 9.34221 26.5347 9.30167 26.4199 9.29969H24.5699L22.8599 2.52969C22.8345 2.43389 22.7825 2.34723 22.7099 2.27969L20.8999 0.639693C20.8383 0.584819 20.764 0.546056 20.6838 0.526862C20.6035 0.507669 20.5197 0.508641 20.4399 0.529692C20.36 0.550697 20.2864 0.590795 20.2255 0.646536C20.1645 0.702278 20.118 0.771996 20.0899 0.849693L19.2799 3.13969C19.2468 3.23302 19.2433 3.3343 19.2699 3.42969L20.7499 9.29969H18.5799C18.3642 8.60909 18.0933 7.93693 17.7699 7.28969C17.6598 7.06256 17.5362 6.84217 17.3999 6.62969V6.61969C17.4491 6.54648 17.4926 6.46958 17.5299 6.38969C17.8738 5.84128 17.9998 5.184 17.8832 4.54731C17.7666 3.91061 17.4158 3.34065 16.8999 2.94969C16.7629 2.84393 16.6193 2.74706 16.4699 2.65969C16.3086 2.56496 16.1548 2.45798 16.0099 2.33969C15.7399 2.06969 15.5799 1.53969 15.7899 1.30969C15.8343 1.26197 15.8688 1.20591 15.8914 1.14474C15.914 1.08358 15.9241 1.01855 15.9213 0.953418C15.9186 0.888288 15.9028 0.824362 15.8751 0.765355C15.8474 0.706348 15.8083 0.653435 15.7599 0.609693C15.7127 0.564257 15.6568 0.528874 15.5956 0.505686C15.5343 0.482498 15.469 0.471988 15.4035 0.474793C15.3381 0.477598 15.2739 0.493659 15.2148 0.522003C15.1558 0.550348 15.1031 0.590386 15.0599 0.639693H15.0499C14.3906 1.38049 13.9265 2.27417 13.6999 3.23969C13.5299 3.98448 13.5845 4.76296 13.8568 5.47673C14.1291 6.19049 14.607 6.80748 15.2299 7.24969C15.2099 7.47969 15.2099 7.69969 15.2099 7.90969C15.2199 8.32969 15.2499 8.79969 15.3099 9.29969H13.4999L12.3699 2.49969C12.2598 1.84597 11.8945 1.26276 11.3544 0.87833C10.8143 0.493895 10.1437 0.339713 9.48993 0.449692L8.49993 0.609693C8.17595 0.663611 7.8658 0.780965 7.58728 0.955023C7.30876 1.12908 7.06734 1.35642 6.87688 1.62399C6.68642 1.89157 6.55066 2.19411 6.47739 2.51428C6.40413 2.83444 6.3948 3.16592 6.44993 3.48969L6.59993 4.38969C6.59993 4.41969 6.60993 4.43969 6.60993 4.46969C6.60993 4.47969 6.61993 4.49969 6.61993 4.50969L7.09993 7.33969C7.10025 7.36219 7.10259 7.38462 7.10693 7.40669C7.10693 7.41669 7.10693 7.42469 7.10693 7.43469C7.10693 7.44469 7.11293 7.44869 7.11493 7.45669L7.41993 9.29969H5.82993C5.71521 9.30167 5.60449 9.34221 5.5156 9.41477C5.42672 9.48732 5.36484 9.58769 5.33993 9.69969C5.19549 10.4242 5.12181 11.161 5.11993 11.8997C5.11994 12.0901 5.12996 12.2803 5.14993 12.4697C5.18582 13.3353 5.06036 14.2 4.77993 15.0197L3.82993 17.9297C3.7557 18.1547 3.73581 18.394 3.7719 18.6282C3.80799 18.8623 3.89903 19.0846 4.03756 19.2768C4.1761 19.469 4.35818 19.6256 4.56891 19.7339C4.77964 19.8422 5.01302 19.899 5.24993 19.8997H6.87993V22.1497C6.87993 23.3432 7.35404 24.4878 8.19795 25.3317C9.04186 26.1756 10.1865 26.6497 11.3799 26.6497H13.9499C14.3075 26.6502 14.6531 26.7785 14.9245 27.0113C15.1959 27.2442 15.3751 27.5663 15.4299 27.9197L15.9599 31.3097C15.9728 31.465 16.0206 31.6155 16.0999 31.7497C16.146 31.8253 16.2106 31.888 16.2875 31.9317C16.3645 31.9754 16.4514 31.9988 16.5399 31.9997H27.7499C27.8347 31.9993 27.9179 31.9771 27.9915 31.935C28.0651 31.8929 28.1266 31.8326 28.1699 31.7597C28.2148 31.6883 28.2402 31.6065 28.2437 31.5224C28.2472 31.4382 28.2287 31.3545 28.1899 31.2797ZM20.2699 3.32969L20.7899 1.88969L21.9199 2.91969L22.0299 3.33969L20.3799 3.75969L20.2699 3.32969ZM20.6299 4.72969L22.2699 4.31969L23.5399 9.29969H21.7799L20.6299 4.72969ZM17.5199 9.29969H16.3199C16.2183 8.60796 16.1882 7.9076 16.2299 7.20969C16.3499 7.17969 16.4599 7.15969 16.5399 7.13969H16.5499C16.9516 7.82188 17.2769 8.54625 17.5199 9.29969ZM14.6699 3.45969C14.744 3.1659 14.841 2.87835 14.9599 2.59969C15.0573 2.76645 15.1786 2.91806 15.3199 3.04969C15.51 3.22858 15.7217 3.3831 15.9499 3.50969C16.0599 3.57969 16.1799 3.65969 16.2899 3.73969C16.6019 3.98523 16.8129 4.3367 16.8829 4.72746C16.953 5.11822 16.8772 5.5211 16.6699 5.85969C16.6575 5.89813 16.6407 5.93503 16.6199 5.96969C16.5999 5.99969 16.5699 6.05969 16.5399 6.10969L15.6799 6.31969C15.6186 6.2716 15.5617 6.21805 15.5099 6.15969C15.1447 5.82337 14.8747 5.39662 14.7272 4.92254C14.5797 4.44846 14.56 3.94385 14.6699 3.45969ZM7.68993 2.20969C7.80388 2.04735 7.9494 1.90965 8.11778 1.80484C8.28617 1.70003 8.47396 1.63026 8.66993 1.59969L9.65993 1.42969C9.73944 1.41806 9.81959 1.41138 9.89993 1.40969C10.256 1.40985 10.6005 1.5367 10.8716 1.76755C11.1428 1.99839 11.323 2.31817 11.3799 2.66969L12.4799 9.29969H8.42993L8.17993 7.76169L8.66793 7.68069C8.73274 7.66966 8.79474 7.64597 8.85039 7.61098C8.90604 7.57599 8.95426 7.53038 8.99229 7.47675C9.03031 7.42313 9.0574 7.36254 9.07201 7.29844C9.08662 7.23435 9.08846 7.168 9.07743 7.10319C9.0664 7.03838 9.04271 6.97639 9.00772 6.92073C8.97273 6.86508 8.92712 6.81686 8.87349 6.77884C8.81987 6.74081 8.75928 6.71372 8.69518 6.69911C8.63109 6.6845 8.56474 6.68266 8.49993 6.69369L8.00693 6.77569V6.76969L7.68993 4.80969V4.79969L9.16193 4.55469C9.28458 4.52502 9.39148 4.45006 9.46117 4.34486C9.53086 4.23967 9.5582 4.11201 9.5377 3.98749C9.5172 3.86298 9.45038 3.75082 9.35064 3.67352C9.2509 3.59622 9.12562 3.55948 8.99993 3.57069L7.51993 3.81669L7.43993 3.31669C7.40554 3.12483 7.40995 2.92802 7.45289 2.73789C7.49583 2.54776 7.57643 2.36816 7.68993 2.20969ZM16.9199 30.9997L16.4199 27.7697C16.3545 27.3251 16.1691 26.9067 15.8836 26.5596C15.5982 26.2125 15.2235 25.9498 14.7999 25.7997C14.5281 25.6982 14.24 25.6474 13.9499 25.6497H11.3799C10.4517 25.6497 9.56144 25.2809 8.90506 24.6246C8.24868 23.9682 7.87993 23.0779 7.87993 22.1497V19.3997C7.87993 19.2671 7.82725 19.1399 7.73349 19.0461C7.63972 18.9524 7.51254 18.8997 7.37993 18.8997H5.24993C5.17146 18.8985 5.09435 18.8789 5.02486 18.8424C4.95537 18.806 4.89544 18.7536 4.84993 18.6897C4.80462 18.627 4.77467 18.5545 4.76251 18.478C4.75035 18.4016 4.75632 18.3234 4.77993 18.2497L5.72993 15.3397C6.05395 14.3985 6.19316 13.4036 6.13993 12.4097C6.12993 12.2397 6.11993 12.0697 6.11993 11.8997C6.12265 11.3638 6.16611 10.829 6.24993 10.2997H7.57993L7.59993 10.3897C7.59172 10.3604 7.58834 10.33 7.58993 10.2997H25.9999C26.3591 12.484 25.9791 14.7258 24.9199 16.6697C24.2144 17.9063 23.7912 19.2836 23.6805 20.703C23.5699 22.1224 23.7746 23.5487 24.2799 24.8797L24.8799 26.3597C25.2199 27.2097 25.5299 27.9897 25.7799 28.6097L26.4199 29.9197C26.5899 30.2797 26.7699 30.6397 26.9399 30.9997H16.9199Z" fill="black"/>
</g>
<defs>
<clipPath id="clip0_1250_2275">
<rect width="32" height="32" fill="white"/>
</clipPath>
</defs>
</svg>
