<svg width="188" height="188" viewBox="0 0 188 188" fill="none" xmlns="http://www.w3.org/2000/svg">
<path d="M111.574 33.0793L120.977 52.1312C123.831 57.9144 129.349 61.9234 135.731 62.8509L156.756 65.9059C172.829 68.2412 179.247 87.993 167.616 99.3303L152.402 114.16C147.784 118.662 145.676 125.148 146.767 131.505L150.358 152.445C153.104 168.453 136.302 180.659 121.926 173.102L103.121 163.216C97.413 160.214 90.5929 160.214 84.8838 163.216L66.0787 173.102C51.7026 180.66 34.9008 168.453 37.6466 152.445L41.2385 131.505C42.329 125.148 40.2213 118.662 35.6029 114.16L20.3888 99.3303C8.75778 87.993 15.1755 68.2412 31.248 65.9059L52.2732 62.8509C58.6556 61.9234 64.173 57.9152 67.0275 52.1312L76.4304 33.0793C83.6178 18.5152 104.386 18.5152 111.574 33.0793Z" fill="#F9D335"/>
<path d="M167.616 99.3277L152.402 114.159C147.784 118.659 145.678 125.145 146.765 131.504L150.356 152.448C152.929 167.441 138.343 179.097 124.675 174.301C133.156 171.346 139.38 162.67 137.622 152.448L134.031 131.504C132.944 125.145 135.05 118.659 139.668 114.159L154.881 99.3277C166.513 87.9941 160.094 68.2387 144.023 65.9041L122.994 62.8476C116.61 61.9223 111.1 57.9155 108.239 52.1338L98.8413 33.0827C96.354 28.0478 92.2444 24.7541 87.6348 23.2002C96.354 20.2546 106.872 23.5483 111.576 33.0827L120.973 52.1331C123.834 57.9148 129.344 61.9216 135.728 62.8469L156.757 65.9033C172.828 68.2379 179.247 87.9941 167.616 99.3277Z" fill="#F2C300"/>
<path d="M100.37 23.2002C95.7605 24.7541 91.651 28.0478 89.1636 33.0827L79.7651 52.1331C76.904 57.9148 71.394 61.9216 65.01 62.8469L43.9812 65.9034C27.9101 68.2379 21.4917 87.9934 33.1227 99.327L48.336 114.158C52.9545 118.658 55.06 125.144 53.9731 131.503L50.382 152.447C48.6246 162.669 54.8477 171.346 63.329 174.3C49.6609 179.097 35.0754 167.44 37.648 152.447L41.239 131.503C42.3259 125.144 40.2205 118.658 35.602 114.158L20.3887 99.327C8.75764 87.9934 15.1761 68.2379 31.2471 65.9034L52.276 62.8469C58.6606 61.9216 64.1699 57.9148 67.031 52.1331L76.4288 33.0819C81.1325 23.5483 91.651 20.2546 100.37 23.2002Z" fill="#F9E27D"/>
<path d="M180.191 38.2241L140.359 76.2339L132.296 84.0675C131.886 88.3548 130.634 92.5701 128.538 96.4476C127.009 99.2955 125.016 101.963 122.571 104.336L116.501 110.231L116.513 110.249L101.766 124.677L101.561 124.882L92.6554 133.595L86.5315 139.587C84.0324 142.013 79.6306 142.477 77.0411 140.141C74.3739 137.726 74.1866 133.704 76.4272 131.06L81.443 126.249L75.3734 132.054C72.8082 134.547 68.6472 134.745 66.0821 132.259C63.4207 129.681 63.4324 125.436 66.0703 122.877L64.1558 124.671C61.446 126.839 57.4297 126.532 55.0995 123.798C52.8354 121.142 53.2026 117.132 55.7017 114.706L60.5008 110.111C57.9055 112.189 54.1059 111.997 51.7397 109.558C49.223 106.968 49.2832 102.837 51.8719 100.321C51.9263 100.272 53.6183 98.755 56.1893 96.4491C62.3918 90.8972 73.6997 80.7687 79.4389 75.6266C81.6068 73.6878 82.9793 72.4592 82.9793 72.4592C86.8091 69.0268 89.7054 66.209 92.3191 63.9992C96.3236 60.6152 99.6893 58.6398 104.802 57.9957C107.006 57.7189 109.228 57.6645 111.438 57.8334L117.315 52.1251L156.948 14.3085C159.333 11.9901 163.151 12.0444 165.463 14.4289L171.346 20.4809L171.424 20.5587L180.313 29.7113C182.63 32.0943 182.576 35.9057 180.191 38.2241Z" fill="#FFBB98"/>
<path d="M134.736 128.549C132.423 131.422 128.311 131.777 125.559 129.573L118.664 122.871C121.392 125.521 121.314 129.97 118.369 132.512C115.78 134.752 111.859 134.481 109.403 132.096L101.768 124.678L100.804 123.744C101.105 124.1 101.358 124.485 101.563 124.883C102.935 127.49 102.43 130.838 100.009 132.904C97.9313 134.68 94.9931 134.836 92.6563 133.596C92.0783 133.295 91.5422 132.909 91.0605 132.44L68.2207 110.251L68.2324 110.233L62.1628 104.331C59.7181 101.958 57.725 99.2971 56.1894 96.4492C54.1001 92.5717 52.8473 88.3564 52.4382 84.0691L44.3631 76.223L7.8088 41.7691C5.42429 39.4565 5.36994 35.6451 7.68837 33.2548L22.5374 17.9775C24.85 15.593 28.6673 15.5387 31.0518 17.8512L67.1984 51.9013L73.2982 57.8328C75.5079 57.6639 77.7301 57.7183 79.934 57.9951C84.2756 58.543 88.3338 60.434 91.5915 63.348L92.3199 63.9986L128.539 96.4485L132.863 100.32C135.452 102.831 135.512 106.968 132.995 109.557C130.629 111.99 126.829 112.188 124.234 110.105L134.019 119.619C136.464 121.992 136.874 125.894 134.736 128.549Z" fill="#FFBB98"/>
<path d="M77.8028 107.278L77.8219 107.259L70.9907 100.622C64.4893 94.3056 60.8409 86.1738 60.0456 77.81L51.0605 69.0967L44.5106 76.0923L44.3652 76.2187L52.4382 84.0684C53.1469 91.501 56.3877 98.7206 62.1606 104.339L68.2346 110.228L68.2251 110.247L91.0568 132.439C93.5023 134.816 97.4224 135.117 100.013 132.904C100.615 132.39 101.1 131.789 101.459 131.148L77.8028 107.278Z" fill="#FFCAA6"/>
<path d="M67.1985 51.9013L66.9635 52.1304L51.0665 69.093L44.5093 76.0901L44.3646 76.2223L7.80891 41.7691C5.37886 39.4191 5.42439 35.5607 7.68847 33.2606V33.2548L22.5375 17.9775C24.8501 15.593 28.6674 15.5387 31.0519 17.8512L67.1985 51.9013Z" fill="#87828E"/>
<path d="M171.346 20.479C133.507 58.3367 118.02 72.9522 113.919 76.5228C109.571 80.3166 103.014 80.0691 98.967 75.9507C98.323 75.3008 97.2809 75.2707 96.6068 75.8905L91.2539 80.8101C88.8275 82.9721 85.1057 82.7613 82.9445 80.3342C82.7866 80.1565 82.5868 79.9127 82.3496 79.6101C80.6451 77.4334 80.919 74.302 82.9797 72.458L82.9804 72.4573C86.8102 69.0248 89.7066 66.207 92.3202 63.9973C96.3248 60.6133 99.6904 58.6378 104.803 57.9938C107.007 57.7169 109.229 57.6626 111.439 57.8315L117.316 52.1232L156.95 14.3065C159.334 11.9881 163.152 12.0425 165.464 14.427L171.346 20.479Z" fill="#FFAA80"/>
<path d="M51.0662 69.0935L44.5089 76.0907L44.3643 76.2228L7.80855 41.7755C5.48866 39.6267 5.31902 35.6685 7.68811 33.2612V33.2553L10.4339 30.4375C10.9634 31.2681 21.5303 40.3949 51.0662 69.0935Z" fill="#A4A4A5"/>
<path d="M180.189 38.2251L140.36 76.2385L127.95 62.9933C127.92 62.964 127.892 62.925 127.862 62.8964C121.186 55.7656 122.462 57.1389 117.314 52.126L156.949 14.3057C159.336 11.9873 163.15 12.0446 165.459 14.432L171.349 20.4774L171.427 20.5553L180.315 29.7151C182.634 32.0923 182.576 35.9052 180.189 38.2251Z" fill="#5FCDFF"/>
<path d="M169.274 18.571C155.903 31.9418 131.502 55.2457 125.787 60.99C119.11 53.8584 122.446 57.1235 117.314 52.126L156.949 14.3057C159.336 11.9873 163.15 12.0446 165.459 14.432L169.274 18.571Z" fill="#73D7F9"/>
<path d="M182.419 27.6635L167.57 12.3812C164.091 8.77908 158.393 8.80478 154.924 12.1829L120.666 44.8699L114.203 31.776C105.954 15.0396 82.0464 15.0404 73.7979 31.776L66.2852 46.9996C66.2705 46.9857 33.0804 15.7241 33.0621 15.7153C29.4864 12.2622 23.8288 12.4245 20.4308 15.9282C20.3853 15.9752 5.46426 31.3281 5.46426 31.3281C2.36373 34.6328 2.00829 40.1207 5.79473 43.9006C5.79473 43.9123 26.9954 63.8822 27.0035 63.8903C11.1123 69.0955 6.11712 89.5295 18.3379 101.432L33.5468 116.266C37.4757 120.092 39.2675 125.6 38.3422 131.005L34.7511 151.949C31.5926 170.347 50.9324 184.374 67.4455 175.699L86.2455 165.814C91.0997 163.266 96.9013 163.259 101.756 165.814L120.556 175.699C137.069 184.383 156.41 170.356 153.25 151.949L149.659 131.005C148.733 125.6 150.525 120.092 154.454 116.266L169.663 101.432C182.714 88.7217 176.027 66.6449 158.28 63.1926C183.063 39.5354 182.243 40.3315 182.243 40.3315C185.783 36.8873 185.863 31.2032 182.419 27.6635ZM96.9395 97.6495C95.7762 96.5193 93.9168 96.5428 92.7851 97.7068C91.6534 98.8693 91.6799 100.729 92.8424 101.86C92.8468 101.865 116.778 125.147 116.782 125.152C118.085 126.593 118.053 128.894 116.451 130.285C115.063 131.489 112.867 131.357 111.457 129.991C101.943 120.751 108.026 126.74 88.0778 106.825C86.9292 105.678 85.069 105.68 83.9234 106.828C82.777 107.976 82.7785 109.836 83.9263 110.983C84.3787 111.434 98.1409 125.142 98.5463 125.637C99.7866 127.084 99.6464 129.352 98.113 130.667C96.6156 131.934 94.414 131.603 93.1046 130.329C72.111 109.939 75.531 113.248 64.2069 102.217C59.2124 97.3939 56.0326 90.869 55.365 83.7918C55.2989 83.0942 54.9832 82.4479 54.4838 81.9632L48.4913 76.1396C63.3756 60.2558 59.2785 64.6268 67.2913 56.0839C68.0257 56.7969 67.2788 56.0706 71.2569 59.9393C71.8591 60.5195 72.6743 60.8132 73.5188 60.7618C75.553 60.6076 77.5872 60.659 79.57 60.9087C84.4566 61.5285 87.0482 63.7155 87.7826 64.0827C85.6749 65.9964 83.615 67.9447 81.0204 70.2698C77.8164 73.1368 77.3845 78.0351 80.0371 81.422C80.3191 81.7826 80.5585 82.0726 80.7509 82.2893C83.9873 85.9215 89.5752 86.2395 93.2419 82.9737L97.7502 78.8296C100.682 81.339 104.44 82.4303 108.095 82.0763L108.101 82.0815C110.848 84.5431 127.945 99.8658 130.851 102.468C132.239 103.848 132.254 106.103 130.888 107.513C129.62 108.818 127.605 108.965 126.166 107.884L105.997 88.3207C104.832 87.1905 102.972 87.2191 101.843 88.3839C100.713 89.5486 100.741 91.408 101.906 92.5375C127.781 117.635 119.916 109.994 131.968 121.73C133.385 123.096 133.591 125.284 132.445 126.709C131.226 128.229 129.03 128.508 127.495 127.355C112.759 113.049 126.459 126.369 96.9395 97.6495ZM79.0178 137.966C77.6687 136.744 77.3772 134.595 78.5874 133.06C83.1912 128.644 82.8799 128.943 83.0657 128.765C88.9598 134.5 88.1674 133.728 88.2437 133.803L84.4859 137.48C82.9761 138.948 80.3162 139.137 79.0178 137.966ZM73.3323 129.943C71.8393 131.39 69.5047 131.482 68.1241 130.143C66.6583 128.725 66.7104 126.383 68.0903 125.022L73.6451 119.615L78.8188 124.642C77.2523 126.206 78.3436 125.147 73.3323 129.943ZM62.2498 122.432C60.726 123.588 58.5853 123.359 57.3324 121.887C56.1391 120.489 56.3131 118.209 57.7341 116.829C63.1369 111.657 64.3031 110.508 64.3031 110.508C64.5433 110.741 69.4188 115.507 69.4313 115.519C63.6422 121.153 64.7797 120.068 62.2498 122.432ZM58.5757 107.878C57.0871 108.993 55.0566 108.76 53.8486 107.512C52.4826 106.103 52.5002 103.856 53.9014 102.449C53.9587 102.397 55.4451 101.066 55.5317 100.988C55.5317 100.988 56.4938 102.676 60.0915 106.407L58.5757 107.878ZM129.375 83.7918C129.118 86.4943 128.501 89.1087 127.539 91.6129L114.394 79.8335L114.392 79.8313C114.893 79.4979 115.386 79.1418 115.85 78.7356C117.073 77.6693 117.199 75.8136 116.132 74.5908C115.065 73.3681 113.21 73.2418 111.988 74.3088C108.814 77.0782 104.015 76.8946 101.054 73.8822C99.288 72.1006 96.4607 72.0323 94.6188 73.7265L89.2998 78.6152C88.0851 79.6977 86.2176 79.5919 85.141 78.3846C85.014 78.2407 84.8531 78.0424 84.6615 77.7979C83.9117 76.8402 84.0336 75.4567 84.9405 74.6444C88.782 71.2017 91.6703 68.3927 94.215 66.241C98.4178 62.6895 102.487 60.0928 111.213 60.7603C112.058 60.8257 112.88 60.5253 113.484 59.9386L117.317 56.216C121.538 60.3623 117.322 55.9384 136.249 76.1323L130.249 81.9632C129.75 82.4479 129.441 83.0942 129.375 83.7918ZM79.0633 34.3757C85.1924 21.9765 102.805 21.9692 108.938 34.3757L116.208 49.122C114.885 50.3807 116.185 49.1264 110.317 54.8251C102.191 54.513 97.1598 56.5428 92.3819 60.1795C88.865 57.3896 84.7165 55.6278 80.3044 55.0778C78.373 54.8354 76.4049 54.7473 74.4221 54.8281L70.7429 51.2443L79.0633 34.3757ZM9.78239 35.3231C9.81837 35.2797 24.6072 20.0591 24.6461 20.0187C25.8241 18.8106 27.7188 18.7974 28.9422 19.9012C28.9422 19.9012 63.0128 51.9978 63.0393 52.0228C49.9542 65.9773 57.2201 58.2348 44.2466 72.0712C44.1915 72.019 9.74347 39.5509 9.79707 39.6045C8.60298 38.4096 8.66907 36.4371 9.78239 35.3231ZM165.565 97.2235L150.349 112.058C145.04 117.235 142.616 124.689 143.872 132.004L147.463 152.941C149.801 166.596 135.521 176.933 123.295 170.499L104.487 160.615C97.9221 157.163 90.0789 157.163 83.5136 160.615L64.7063 170.499C52.4907 176.927 38.1976 166.607 40.538 152.941L44.1291 132.004C45.3849 124.689 42.9614 117.235 37.6519 112.058L22.4357 97.2235C12.8043 87.836 17.439 70.7824 32.1441 68.7445C44.5741 80.4504 40.6878 76.7403 49.6369 85.4368C50.0849 89.0279 51.0689 92.4861 52.5744 95.7467C52.4878 95.8245 49.9028 98.14 49.8256 98.2149C46.0715 101.863 45.9827 107.849 49.6325 111.604C50.5255 112.524 51.558 113.227 52.6647 113.709C49.9505 117.277 49.9534 122.29 52.8652 125.704C55.0258 128.239 58.199 129.372 61.2577 128.979C61.5632 131.031 62.5296 132.905 64.0395 134.368C66.2007 136.464 69.1985 137.282 72.0589 136.837C72.4011 138.872 73.4108 140.816 75.0757 142.322C78.796 145.68 84.9978 145.172 88.5918 141.688L93.3667 137.011C94.1011 137.011 98.0704 138.416 101.925 135.139C103.122 134.11 104.003 132.862 104.569 131.489L107.367 134.206C110.943 137.672 116.62 137.907 120.292 134.735C121.452 133.736 122.341 132.473 122.899 131.085L123.516 131.68C126.471 134.629 133.198 135.135 137.021 130.395C140.054 126.627 139.635 120.972 136.066 117.514L132.123 113.68C133.21 113.203 134.223 112.505 135.104 111.602C138.739 107.857 138.651 101.849 134.906 98.2142C134.874 98.1826 132.2 95.7908 132.167 95.7614C133.665 92.4861 134.649 89.0345 135.104 85.4361C144.059 76.7433 140.207 80.4467 152.92 68.3105C172.794 71.2171 174.359 88.6534 165.565 97.2235ZM140.479 72.0638C122.781 53.1845 125.567 56.053 121.547 52.1403C124.086 49.7227 118.659 54.9 158.993 16.4129C160.204 15.232 162.157 15.2431 163.355 16.4717L178.204 31.754C179.386 32.9731 179.364 34.9192 178.16 36.1015C178.16 36.1015 144.761 67.9763 140.479 72.0638Z" fill="#5F266D"/>
<path d="M149.594 49.1659L148.72 49.981C147.537 51.0899 147.479 52.9479 148.588 54.1302C149.722 55.3368 151.582 55.364 152.744 54.2624L153.611 53.4473C154.793 52.3384 154.852 50.4804 153.743 49.2981C152.634 48.1157 150.776 48.057 149.594 49.1659ZM167.263 32.5837L157.628 41.6312C156.438 42.7401 156.379 44.5981 157.496 45.7804C158.598 46.9679 160.484 47.0127 161.645 45.9126L171.287 36.8724C172.469 35.7562 172.528 33.8982 171.419 32.7159C170.31 31.5335 168.445 31.4748 167.263 32.5837Z" fill="#5F266D"/>
</svg>
