<svg width="35" height="39" xmlns="http://www.w3.org/2000/svg"><g fill="none" fill-rule="evenodd"><path fill="#00ccff" d="M16 27h16v11H16z"/><path d="M34.327 37.254h-2.02v-9.88a.6.6 0 00-.6-.6h-12.73v-1.946a.605.605 0 00-.007-.093c.42-.174.805-.373 1.16-.59h.001a7.103 7.103 0 003.262.798c2.385 0 4.12-1.195 4.222-1.266a.6.6 0 00.254-.49V11.264c0-3.933-1.345-6.927-3.998-8.9C21.821.84 18.977 0 15.866 0 12.754 0 9.91.84 7.86 2.365c-2.652 1.973-3.997 4.967-3.997 8.9v11.921a.6.6 0 00.254.49c.102.072 1.837 1.268 4.221 1.267a7.1 7.1 0 003.175-.754c.335.2.697.384 1.089.546a.605.605 0 00-.008.093v2.86H9.592c-.102 0-2.468.003-4.356 1.878-1.481 1.47-2.232 3.643-2.232 6.458v1.23H.607a.6.6 0 100 1.2h33.72a.6.6 0 100-1.2zm-22.459-8.357a4.114 4.114 0 003.333 3.564c-.155.246-.417.377-.652.445-.863.25-2.166-.09-2.881-1.215-.963-1.514-.085-2.525.2-2.794zm19.238 8.064H16.68v-8.987h14.426v8.987zM9.753 20.85a8.989 8.989 0 01-1.265-3.114V15.98c.532.443 1.3.618 2.385.618.314 0 .675-.012 1.17-.038 1.013-.053 1.76-.42 2.22-1.092.175-.255.29-.535.363-.818a3.61 3.61 0 012.292.012c.073.28.187.554.36.806.46.671 1.207 1.039 2.219 1.092.495.026.856.038 1.17.038 1.106 0 1.883-.18 2.416-.643v1.783c-.042.245-.315 1.638-1.24 3.075-1.345 2.088-3.364 3.235-6.002 3.41h-.111c-2.621-.174-4.632-1.309-5.977-3.373zm13.33-9.088a10.151 10.151 0 00-2.583-.325c-1.034 0-2.068.15-3.074.444a.6.6 0 00-.402.389 5.138 5.138 0 00-.206 1.12 4.849 4.849 0 00-2.096-.008 5.138 5.138 0 00-.206-1.112.6.6 0 00-.402-.39 10.942 10.942 0 00-3.074-.443c-1.1 0-1.985.169-2.552.317v-.582c.224.01.497.018.812.018 1.21 0 3.067-.119 5.033-.687 2.024-.584 3.74-1.516 5.114-2.776a6.847 6.847 0 003.636 3.224v.811zm-.19 1.193c-.14 2.325-.69 2.442-2.226 2.442-.292 0-.633-.011-1.107-.036-.627-.033-1.05-.22-1.29-.57-.358-.518-.287-1.346-.182-1.848a9.715 9.715 0 012.412-.306 8.9 8.9 0 012.394.318zm-9.622 1.836c-.241.35-.664.537-1.29.57a21.15 21.15 0 01-1.108.036c-1.536 0-2.086-.117-2.227-2.443a8.834 8.834 0 012.394-.317c.81 0 1.62.103 2.412.306.105.503.176 1.33-.18 1.848zm-8.208 8.062V11.265c0-3.533 1.182-6.203 3.513-7.937C10.422 1.956 13.01 1.2 15.866 1.2c2.855 0 5.444.756 7.29 2.128 2.33 1.734 3.513 4.404 3.513 7.938v11.586c-.73.416-2.937 1.45-5.426.478a8.762 8.762 0 001.608-1.867c1.155-1.793 1.415-3.518 1.426-3.59a.597.597 0 00.006-.087v-7.258a.6.6 0 00-.417-.572c-2.86-.916-3.61-3.342-3.64-3.442a.6.6 0 00-1.017-.241C17.926 7.66 14.933 9.99 9.299 9.99c-.82 0-1.336-.059-1.34-.06a.597.597 0 00-.67.597v7.258c0 .029.001.058.005.086.011.073.271 1.798 1.426 3.591.4.622.941 1.296 1.657 1.91-2.459.91-4.595-.103-5.314-.519zm10.608 2.569h.229c.68-.045 1.304-.147 1.878-.294v1.645H16.08a.6.6 0 00-.6.6v3.918a2.912 2.912 0 01-2.402-2.404h.116a.6.6 0 00.6-.6v-3.159c.574.147 1.198.25 1.877.294zM4.204 36.024c0-7.054 5.162-7.136 5.384-7.136h.804c-.442.845-.618 2.061.263 3.447a3.942 3.942 0 003.314 1.848c.322 0 .632-.043.916-.125a2.66 2.66 0 00.595-.253v3.449H4.204v-1.23z" fill="#333" fill-rule="nonzero"/><circle fill="#333" fill-rule="nonzero" cx="11.527" cy="13.92" r="1"/><circle fill="#333" fill-rule="nonzero" cx="20.045" cy="13.92" r="1"/><path d="M15.682 17.79h.208c.642 0 1.164-.522 1.164-1.164a.6.6 0 00-1.199-.036h-.139a.6.6 0 00-1.199.036c0 .642.523 1.164 1.165 1.164zm3.823 2.508a.6.6 0 10-.934-.754c-.006.008-.727.795-2.637.795-1.984 0-2.952-.822-3-.864a.6.6 0 00-.805.89c.053.047 1.317 1.174 3.805 1.174 2.498 0 3.469-1.114 3.571-1.241z" fill="#00ccff" fill-rule="nonzero"/></g></svg>