<svg width="188" height="188" viewBox="0 0 188 188" fill="none" xmlns="http://www.w3.org/2000/svg">
<g clip-path="url(#clip0_1393_1440)">
<path opacity="0.3" d="M114.562 39.6561H155.688C156.467 39.6561 157.214 39.3466 157.765 38.7957C158.316 38.2448 158.625 37.4977 158.625 36.7186C158.625 35.9395 158.316 35.1924 157.765 34.6415C157.214 34.0906 156.467 33.7811 155.688 33.7811H114.562C113.783 33.7811 113.036 34.0906 112.485 34.6415C111.934 35.1924 111.625 35.9395 111.625 36.7186C111.625 37.4977 111.934 38.2448 112.485 38.7957C113.036 39.3466 113.783 39.6561 114.562 39.6561ZM114.562 54.3436H170.375C171.154 54.3436 171.901 54.0341 172.452 53.4832C173.003 52.9324 173.312 52.1852 173.312 51.4061C173.312 50.627 173.003 49.8799 172.452 49.329C171.901 48.7781 171.154 48.4686 170.375 48.4686H114.562C113.783 48.4686 113.036 48.7781 112.485 49.329C111.934 49.8799 111.625 50.627 111.625 51.4061C111.625 52.1852 111.934 52.9324 112.485 53.4832C113.036 54.0341 113.783 54.3436 114.562 54.3436ZM114.562 69.0311H155.688C156.467 69.0311 157.214 68.7216 157.765 68.1707C158.316 67.6199 158.625 66.8727 158.625 66.0936C158.625 65.3145 158.316 64.5674 157.765 64.0165C157.214 63.4656 156.467 63.1561 155.688 63.1561H114.562C113.783 63.1561 113.036 63.4656 112.485 64.0165C111.934 64.5674 111.625 65.3145 111.625 66.0936C111.625 66.8727 111.934 67.6199 112.485 68.1707C113.036 68.7216 113.783 69.0311 114.562 69.0311ZM114.562 83.7186H170.375C171.154 83.7186 171.901 83.4091 172.452 82.8582C173.003 82.3074 173.312 81.5602 173.312 80.7811C173.312 80.002 173.003 79.2549 172.452 78.704C171.901 78.1531 171.154 77.8436 170.375 77.8436H114.562C113.783 77.8436 113.036 78.1531 112.485 78.704C111.934 79.2549 111.625 80.002 111.625 80.7811C111.625 81.5602 111.934 82.3074 112.485 82.8582C113.036 83.4091 113.783 83.7186 114.562 83.7186ZM185.062 92.5311H114.562C113.783 92.5311 113.036 92.8406 112.485 93.3915C111.934 93.9424 111.625 94.6895 111.625 95.4686C111.625 96.2477 111.934 96.9949 112.485 97.5457C113.036 98.0966 113.783 98.4061 114.562 98.4061H185.062C185.842 98.4061 186.589 98.0966 187.14 97.5457C187.691 96.9949 188 96.2477 188 95.4686C188 94.6895 187.691 93.9424 187.14 93.3915C186.589 92.8406 185.842 92.5311 185.062 92.5311ZM185.062 107.219H114.562C113.783 107.219 113.036 107.528 112.485 108.079C111.934 108.63 111.625 109.377 111.625 110.156C111.625 110.935 111.934 111.682 112.485 112.233C113.036 112.784 113.783 113.094 114.562 113.094H185.062C185.842 113.094 186.589 112.784 187.14 112.233C187.691 111.682 188 110.935 188 110.156C188 109.377 187.691 108.63 187.14 108.079C186.589 107.528 185.842 107.219 185.062 107.219ZM185.062 121.906H114.562C113.783 121.906 113.036 122.216 112.485 122.766C111.934 123.317 111.625 124.065 111.625 124.844C111.625 125.623 111.934 126.37 112.485 126.921C113.036 127.472 113.783 127.781 114.562 127.781H185.062C185.842 127.781 186.589 127.472 187.14 126.921C187.691 126.37 188 125.623 188 124.844C188 124.065 187.691 123.317 187.14 122.766C186.589 122.216 185.842 121.906 185.062 121.906ZM125.852 28.6559C126.443 29.1586 127.208 29.4109 127.982 29.3592C128.756 29.3075 129.48 28.9558 129.999 28.379C130.253 28.0887 130.448 27.7511 130.572 27.3856C130.695 27.0201 130.746 26.6339 130.72 26.2488C130.695 25.8638 130.594 25.4876 130.423 25.1417C130.252 24.7958 130.014 24.4869 129.724 24.2328L120.495 16.1605L129.724 8.0883C130.31 7.57489 130.669 6.8495 130.721 6.07172C130.772 5.29394 130.513 4.52748 130 3.94094C129.486 3.3544 128.761 2.99583 127.983 2.94412C127.205 2.89241 126.439 3.15179 125.852 3.6652L114.097 13.949C113.782 14.2249 113.529 14.565 113.356 14.9464C113.183 15.3278 113.094 15.7418 113.094 16.1606C113.094 16.5794 113.183 16.9934 113.356 17.3748C113.529 17.7562 113.782 18.0962 114.097 18.3721C114.097 18.3721 125.846 28.6508 125.852 28.6559ZM157.904 28.379C158.423 28.956 159.147 29.3077 159.921 29.3594C160.696 29.4112 161.46 29.1588 162.051 28.656C162.051 28.656 173.79 18.3862 173.806 18.3722C174.113 18.0915 174.359 17.7499 174.527 17.3691C174.695 16.9883 174.781 16.5768 174.781 16.1607C174.781 15.7445 174.695 15.333 174.527 14.9522C174.359 14.5714 174.113 14.2298 173.806 13.9491L162.051 3.66535C161.464 3.15194 160.698 2.89256 159.92 2.94427C159.142 2.99598 158.417 3.35454 157.904 3.94108C157.39 4.52762 157.131 5.29409 157.182 6.07187C157.234 6.84965 157.593 7.57504 158.179 8.08844L167.408 16.1607L158.179 24.2329C157.889 24.4871 157.652 24.7959 157.481 25.1418C157.31 25.4877 157.208 25.8639 157.183 26.2489C157.157 26.634 157.208 27.0202 157.331 27.3857C157.455 27.7512 157.65 28.0887 157.904 28.379V28.379ZM138.385 29.1451C139.103 29.4429 139.908 29.4481 140.629 29.1596C141.35 28.8711 141.93 28.3118 142.244 27.6014L151.06 7.03393C151.213 6.67916 151.294 6.29777 151.299 5.91159C151.305 5.5254 151.234 5.14199 151.09 4.7833C150.947 4.42461 150.735 4.09767 150.465 3.82118C150.195 3.5447 149.874 3.3241 149.519 3.172C149.164 3.0199 148.782 2.93928 148.396 2.93477C148.01 2.93026 147.627 3.00193 147.268 3.14569C146.91 3.28945 146.583 3.50248 146.307 3.77258C146.031 4.04269 145.811 4.36457 145.659 4.71982L136.843 25.2873C136.691 25.6419 136.61 26.023 136.605 26.4088C136.6 26.7946 136.672 27.1775 136.815 27.5358C136.958 27.894 137.171 28.2205 137.44 28.4966C137.709 28.7728 138.031 28.9931 138.385 29.1451V29.1451Z" fill="#1C2A35"/>
<path d="M3.59626 188H116.713V155.688C116.713 155.688 109.239 134.758 89.4106 132.922L81.1488 125.945L77.477 118.969C77.477 118.969 72.7035 125.578 62.0551 125.762C51.4067 125.945 43.1449 118.969 43.1449 118.969L37.6371 127.598L24.0512 134.574C24.0512 134.574 1.18381 143.769 3.59626 159.727C5.06423 169.094 5.06423 178.633 3.59626 188V188Z" fill="#FC785E"/>
<path d="M114.562 36.7186H155.688C156.467 36.7186 157.214 36.4091 157.765 35.8582C158.316 35.3073 158.625 34.5602 158.625 33.7811C158.625 33.002 158.316 32.2549 157.765 31.704C157.214 31.1531 156.467 30.8436 155.688 30.8436H114.562C113.783 30.8436 113.036 31.1531 112.485 31.704C111.934 32.2549 111.625 33.002 111.625 33.7811C111.625 34.5602 111.934 35.3073 112.485 35.8582C113.036 36.4091 113.783 36.7186 114.562 36.7186ZM114.562 51.4061H170.375C171.154 51.4061 171.901 51.0966 172.452 50.5457C173.003 49.9949 173.312 49.2477 173.312 48.4686C173.312 47.6895 173.003 46.9424 172.452 46.3915C171.901 45.8406 171.154 45.5311 170.375 45.5311H114.562C113.783 45.5311 113.036 45.8406 112.485 46.3915C111.934 46.9424 111.625 47.6895 111.625 48.4686C111.625 49.2477 111.934 49.9949 112.485 50.5457C113.036 51.0966 113.783 51.4061 114.562 51.4061ZM114.562 66.0936H155.688C156.467 66.0936 157.214 65.7841 157.765 65.2332C158.316 64.6824 158.625 63.9352 158.625 63.1561C158.625 62.377 158.316 61.6299 157.765 61.079C157.214 60.5281 156.467 60.2186 155.688 60.2186H114.562C113.783 60.2186 113.036 60.5281 112.485 61.079C111.934 61.6299 111.625 62.377 111.625 63.1561C111.625 63.9352 111.934 64.6824 112.485 65.2332C113.036 65.7841 113.783 66.0936 114.562 66.0936ZM114.562 80.7811H170.375C171.154 80.7811 171.901 80.4716 172.452 79.9207C173.003 79.3699 173.312 78.6227 173.312 77.8436C173.312 77.0645 173.003 76.3174 172.452 75.7665C171.901 75.2156 171.154 74.9061 170.375 74.9061H114.562C113.783 74.9061 113.036 75.2156 112.485 75.7665C111.934 76.3174 111.625 77.0645 111.625 77.8436C111.625 78.6227 111.934 79.3699 112.485 79.9207C113.036 80.4716 113.783 80.7811 114.562 80.7811ZM185.062 89.5936H114.562C113.783 89.5936 113.036 89.9031 112.485 90.454C111.934 91.0049 111.625 91.752 111.625 92.5311C111.625 93.3102 111.934 94.0574 112.485 94.6082C113.036 95.1591 113.783 95.4686 114.562 95.4686H185.062C185.842 95.4686 186.589 95.1591 187.14 94.6082C187.691 94.0574 188 93.3102 188 92.5311C188 91.752 187.691 91.0049 187.14 90.454C186.589 89.9031 185.842 89.5936 185.062 89.5936ZM185.062 104.281H114.562C113.783 104.281 113.036 104.591 112.485 105.141C111.934 105.692 111.625 106.44 111.625 107.219C111.625 107.998 111.934 108.745 112.485 109.296C113.036 109.847 113.783 110.156 114.562 110.156H185.062C185.842 110.156 186.589 109.847 187.14 109.296C187.691 108.745 188 107.998 188 107.219C188 106.44 187.691 105.692 187.14 105.141C186.589 104.591 185.842 104.281 185.062 104.281ZM185.062 118.969H114.562C113.783 118.969 113.036 119.278 112.485 119.829C111.934 120.38 111.625 121.127 111.625 121.906C111.625 122.685 111.934 123.432 112.485 123.983C113.036 124.534 113.783 124.844 114.562 124.844H185.062C185.842 124.844 186.589 124.534 187.14 123.983C187.691 123.432 188 122.685 188 121.906C188 121.127 187.691 120.38 187.14 119.829C186.589 119.278 185.842 118.969 185.062 118.969ZM125.852 25.7184C126.443 26.2211 127.208 26.4734 127.982 26.4217C128.756 26.37 129.48 26.0183 129.999 25.4415C130.253 25.1512 130.448 24.8136 130.572 24.4481C130.695 24.0826 130.746 23.6964 130.72 23.3113C130.695 22.9263 130.594 22.5501 130.423 22.2042C130.252 21.8583 130.014 21.5494 129.724 21.2953L120.495 13.223L129.724 5.1508C130.31 4.63739 130.669 3.912 130.721 3.13422C130.772 2.35644 130.513 1.58998 130 1.00344C129.486 0.416898 128.761 0.0583327 127.983 0.00662221C127.205 -0.0450883 126.439 0.214291 125.852 0.727701L114.097 11.0115C113.782 11.2874 113.529 11.6275 113.356 12.0089C113.183 12.3903 113.094 12.8043 113.094 13.2231C113.094 13.6419 113.183 14.0559 113.356 14.4373C113.529 14.8187 113.782 15.1587 114.097 15.4346C114.097 15.4346 125.846 25.7133 125.852 25.7184ZM157.904 25.4415C158.423 26.0185 159.147 26.3702 159.921 26.4219C160.696 26.4737 161.46 26.2213 162.051 25.7185C162.051 25.7185 173.79 15.4487 173.806 15.4347C174.113 15.154 174.359 14.8124 174.527 14.4316C174.695 14.0508 174.781 13.6393 174.781 13.2232C174.781 12.807 174.695 12.3955 174.527 12.0147C174.359 11.6339 174.113 11.2923 173.806 11.0116L162.051 0.727789C161.761 0.473574 161.423 0.279052 161.057 0.15533C160.692 0.0316067 160.305 -0.0188942 159.92 0.00671024C159.142 0.0584207 158.417 0.416986 157.904 1.00352C157.39 1.59006 157.131 2.35653 157.183 3.13431C157.234 3.91209 157.593 4.63748 158.179 5.15089L167.408 13.2231L158.179 21.2954C157.889 21.5495 157.652 21.8584 157.481 22.2043C157.31 22.5502 157.208 22.9264 157.183 23.3114C157.157 23.6964 157.208 24.0827 157.331 24.4482C157.455 24.8137 157.65 25.1512 157.904 25.4415V25.4415ZM138.385 26.2076C139.103 26.5054 139.908 26.5106 140.629 26.2221C141.35 25.9336 141.93 25.3743 142.244 24.6639L151.06 4.09643C151.213 3.74166 151.294 3.36027 151.299 2.97409C151.305 2.5879 151.234 2.20449 151.09 1.8458C150.947 1.48711 150.735 1.16017 150.465 0.883684C150.195 0.6072 149.874 0.386598 149.519 0.234498C149.164 0.0823978 148.782 0.00178492 148.396 -0.002729C148.01 -0.00724293 147.627 0.0644306 147.268 0.208191C146.91 0.351952 146.583 0.564979 146.307 0.835084C146.031 1.10519 145.811 1.42707 145.659 1.78232L136.843 22.3498C136.691 22.7044 136.61 23.0855 136.605 23.4713C136.6 23.8571 136.672 24.24 136.815 24.5983C136.958 24.9565 137.171 25.283 137.44 25.5591C137.709 25.8353 138.031 26.0556 138.385 26.2076V26.2076Z" fill="#2D4356"/>
<path d="M119.761 161.357C118.484 138.738 97.2455 130.983 90.4892 129.088L86.9789 127.135L80.9423 121.422C80.6339 120.717 80.3548 120.012 80.1345 119.336C85.3879 113.82 89.5448 107.355 92.3839 100.286C95.1909 93.7722 96.7359 86.7846 96.937 79.6943C96.937 69.9559 93.0685 60.6164 86.1824 53.7303C79.2963 46.8442 69.9567 42.9756 60.2183 42.9756C50.4799 42.9756 41.1403 46.8442 34.2542 53.7303C27.3681 60.6164 23.4995 69.9559 23.4995 79.6943C23.4995 92.2375 30.1236 109.172 40.493 119.542C40.3314 120.041 40.1405 120.555 39.9348 121.069L39.8908 121.04L33.4577 127.135L29.6389 129.265C22.2952 131.424 2.24672 139.326 0.939531 161.254C0.675156 162.737 -0.632032 170.83 0.675156 185.327C0.738526 186.058 1.07413 186.738 1.61547 187.233C2.15681 187.728 2.86437 188.002 3.59797 188C3.68635 188.002 3.77478 187.997 3.86234 187.985C4.24626 187.951 4.61962 187.841 4.96106 187.662C5.30251 187.483 5.60534 187.239 5.85224 186.943C6.09914 186.647 6.28527 186.305 6.39999 185.937C6.5147 185.569 6.55575 185.182 6.52078 184.798C5.19891 169.993 6.72641 162.297 6.74109 162.223C6.77047 162.077 6.78516 161.93 6.79984 161.783C7.66641 145.715 20.5767 138.65 28.1261 135.889L42.7989 153.866C43.2792 154.723 43.9479 155.459 44.7545 156.018C45.5612 156.578 46.4846 156.947 47.4548 157.097C47.7319 157.139 48.0119 157.159 48.292 157.156C48.9782 157.144 49.6579 157.02 50.3042 156.789L51.2736 158.698L47.1758 176.367C46.9039 177.634 47.0336 178.955 47.5469 180.145C48.0603 181.334 48.9316 182.335 50.0398 183.006L56.5905 187.031C57.7073 187.666 58.9701 188 60.255 188C61.5399 188 62.8027 187.666 63.9195 187.031L70.4702 183.006C71.5828 182.351 72.4532 181.353 72.951 180.161C73.4487 178.97 73.5471 177.649 73.2314 176.397L68.7958 159.962C68.8104 159.947 68.8104 159.932 68.8252 159.932L70.338 156.862C70.9226 157.048 71.5312 157.147 72.1445 157.156C72.4247 157.159 72.7046 157.139 72.9817 157.097C73.952 156.947 74.8754 156.578 75.682 156.018C76.4887 155.459 77.1574 154.723 77.6377 153.866L92.3398 135.845C99.8158 138.591 113.035 145.715 113.901 161.783C113.901 161.842 113.916 161.915 113.916 161.988C114.64 169.578 114.67 177.218 114.004 184.813C113.947 185.589 114.199 186.357 114.705 186.948C115.211 187.539 115.931 187.907 116.706 187.971C117.092 188.004 117.48 187.96 117.848 187.841C118.216 187.723 118.557 187.532 118.851 187.281C119.145 187.029 119.386 186.722 119.56 186.376C119.734 186.031 119.837 185.654 119.864 185.268C120.559 177.311 120.525 169.307 119.761 161.357V161.357ZM60.2183 48.8506C68.2962 48.8617 76.0478 52.0396 81.809 57.7019C87.5702 63.3642 90.8817 71.0597 91.0327 79.1362L85.4073 81.9562C85.1673 80.5992 84.4574 79.37 83.402 78.4838C82.3467 77.5977 81.0132 77.1111 79.6352 77.1093H69.3539C67.9232 77.1111 66.5422 77.6339 65.469 78.58C64.3958 79.5261 63.704 80.8308 63.523 82.25H63.5523C63.5377 82.3675 63.523 82.4996 63.5083 82.6171C63.4982 82.4946 63.5031 82.3713 63.523 82.25H57.5598C57.5797 82.3713 57.5846 82.4946 57.5745 82.6171C57.5598 82.4996 57.5452 82.3675 57.5305 82.25H57.5598C57.3788 80.8308 56.687 79.5262 55.6138 78.58C54.5406 77.6339 53.1596 77.1111 51.7289 77.1093H41.4477C40.0524 77.1127 38.7039 77.6126 37.6436 78.5195C36.5833 79.4264 35.8804 80.6812 35.6608 82.059L29.4039 79.0921C29.5689 71.0242 32.8863 63.3415 38.6457 57.6892C44.4051 52.0369 52.1486 48.8642 60.2183 48.8506V48.8506ZM79.6352 82.9843V90.3281H69.3539V82.9843H79.6352ZM51.7289 82.9843V90.3281H41.4477V82.9843H51.7289ZM29.9033 85.819L35.5727 88.5215V90.3281C35.5725 91.0997 35.7243 91.8637 36.0195 92.5766C36.3146 93.2895 36.7474 93.9372 37.293 94.4828C37.8386 95.0283 38.4863 95.4611 39.1992 95.7563C39.912 96.0514 40.6761 96.2033 41.4477 96.2031H51.7289C52.5005 96.2033 53.2645 96.0515 53.9774 95.7563C54.6903 95.4611 55.338 95.0284 55.8836 94.4828C56.4292 93.9372 56.862 93.2895 57.1571 92.5766C57.4523 91.8637 57.6041 91.0997 57.6039 90.3281V88.125H63.4789V90.3281C63.4787 91.0997 63.6305 91.8637 63.9257 92.5766C64.2209 93.2895 64.6536 93.9372 65.1992 94.4828C65.7448 95.0283 66.3925 95.4611 67.1054 95.7563C67.8183 96.0514 68.5823 96.2033 69.3539 96.2031H79.6352C80.4067 96.2033 81.1708 96.0515 81.8837 95.7563C82.5966 95.4611 83.2443 95.0284 83.7899 94.4828C84.3355 93.9372 84.7682 93.2895 85.0634 92.5766C85.3585 91.8637 85.5104 91.0997 85.5102 90.3281V88.4775L90.5186 85.9659C87.8014 102.533 75.273 122.993 60.2183 122.993C45.1195 122.993 32.5617 102.401 29.9033 85.819ZM61.217 134.905C60.8484 135.264 60.514 135.658 60.2183 136.08C59.9225 135.658 59.5882 135.264 59.2195 134.905L44.7817 124.55C44.9433 124.242 45.1048 123.918 45.237 123.595C49.5418 126.903 54.7904 128.751 60.2183 128.868C65.7318 128.742 71.0577 126.842 75.4052 123.448C75.5373 123.772 75.6842 124.095 75.8311 124.403L61.5402 134.626L61.217 134.905ZM65.7114 152.956L64.3602 155.687H56.3261L54.828 152.75L59.572 146.126C59.8082 145.858 60.0242 145.574 60.2183 145.274C60.4124 145.574 60.6284 145.858 60.8645 146.126L65.7114 152.956ZM48.9383 150.958C48.7646 151.143 48.5296 151.257 48.2773 151.281C48.1745 151.267 47.9983 151.134 47.822 150.811L34.2508 134.097C37.1057 133.331 39.6644 131.724 41.5945 129.485L55.2539 139.252C55.6089 139.642 55.8076 140.149 55.812 140.677C55.8191 140.958 55.7679 141.237 55.6617 141.498C55.5556 141.758 55.3967 141.994 55.1952 142.19L48.9383 150.958ZM67.4005 177.998L60.8498 182.022C60.4643 182.154 60.0457 182.154 59.6602 182.022L53.1095 177.998C53.013 177.926 52.9371 177.829 52.8892 177.719L56.6345 161.562H63.1558L67.5473 177.836C67.506 177.896 67.4566 177.951 67.4005 177.998V177.998ZM72.923 150.341L72.6145 150.811C72.4383 151.134 72.262 151.267 72.1592 151.281C71.9077 151.255 71.6737 151.14 71.4983 150.958L65.5352 142.557L65.2414 142.19C65.0398 141.994 64.881 141.758 64.7748 141.498C64.6687 141.237 64.6175 140.958 64.6245 140.677C64.629 140.149 64.8277 139.642 65.1827 139.252L78.9889 129.382C80.8866 131.618 83.3994 133.247 86.2152 134.067L72.923 150.341Z" fill="#2D4356"/>
<path d="M79.6348 82.9844H69.3535V90.3281H79.6348V82.9844Z" fill="#81D9E3"/>
<path d="M51.7285 82.9844H41.4473V90.3281H51.7285V82.9844Z" fill="#81D9E3"/>
<path d="M90.519 85.9663C87.8018 102.534 75.2734 122.994 60.2187 122.994C45.1199 122.994 32.5621 102.402 29.9037 85.8195L35.573 88.522V90.3285C35.5729 91.1001 35.7247 91.8642 36.0199 92.577C36.315 93.2899 36.7478 93.9376 37.2934 94.4832C37.8389 95.0288 38.4867 95.4615 39.1996 95.7567C39.9124 96.0519 40.6765 96.2037 41.448 96.2035H51.7293C52.5009 96.2037 53.2649 96.0519 53.9778 95.7568C54.6907 95.4616 55.3384 95.0288 55.884 94.4833C56.4296 93.9377 56.8623 93.2899 57.1575 92.5771C57.4527 91.8642 57.6045 91.1001 57.6043 90.3285V88.1254H63.4793V90.3285C63.4791 91.1001 63.6309 91.8642 63.9261 92.577C64.2213 93.2899 64.654 93.9376 65.1996 94.4832C65.7452 95.0288 66.3929 95.4615 67.1058 95.7567C67.8187 96.0519 68.5827 96.2037 69.3543 96.2035H79.6355C80.4071 96.2037 81.1712 96.0519 81.8841 95.7568C82.5969 95.4616 83.2447 95.0288 83.7903 94.4833C84.3359 93.9377 84.7686 93.2899 85.0638 92.5771C85.3589 91.8642 85.5108 91.1001 85.5105 90.3285V88.4779L90.519 85.9663ZM91.033 79.1367L85.4077 81.9567C85.1676 80.5997 84.4578 79.3705 83.4024 78.4843C82.3471 77.5981 81.0136 77.1116 79.6355 77.1098H69.3543C67.9236 77.1115 66.5426 77.6343 65.4694 78.5805C64.3962 79.5266 63.7044 80.8312 63.5234 82.2504H57.5602C57.3792 80.8312 56.6874 79.5266 55.6142 78.5805C54.541 77.6344 53.16 77.1115 51.7293 77.1098H41.448C40.0528 77.1132 38.7043 77.6131 37.644 78.52C36.5837 79.4269 35.8808 80.6816 35.6612 82.0595L29.4043 79.0926C29.5554 71.0162 32.8712 63.322 38.6383 57.6658C44.4053 52.0097 52.1625 48.8438 60.2403 48.8496C68.3181 48.8554 76.0707 52.0323 81.8297 57.6967C87.5887 63.3611 90.8935 71.0601 91.033 79.1367V79.1367ZM75.8315 124.404L61.5405 134.626L61.2174 134.905C60.8488 135.265 60.5144 135.658 60.2187 136.08C59.9229 135.658 59.5886 135.265 59.2199 134.905L44.7821 124.55C44.9437 124.242 45.1052 123.919 45.2374 123.596C49.5422 126.904 54.7908 128.751 60.2187 128.869C65.7322 128.743 71.0581 126.842 75.4055 123.449C75.5377 123.772 75.6846 124.095 75.8315 124.404Z" fill="#E1EBF4"/>
<path d="M67.5485 177.836C67.5071 177.896 67.4577 177.951 67.4016 177.997L60.851 182.022C60.4655 182.154 60.0469 182.154 59.6613 182.022L53.1107 177.997C53.0142 177.925 52.9383 177.829 52.8904 177.718L56.6357 161.562H63.157L67.5485 177.836ZM65.7126 152.955L64.3613 155.687H56.3273L54.8291 152.75L59.5732 146.126C59.8094 145.858 60.0254 145.573 60.2195 145.274C60.4135 145.573 60.6295 145.858 60.8657 146.126L65.7126 152.955ZM86.2163 134.067L72.9241 150.341L72.6157 150.811C72.4395 151.134 72.2632 151.266 72.1604 151.281C71.9089 151.254 71.6748 151.14 71.4995 150.958L65.5363 142.557L65.2426 142.189C65.041 141.993 64.8822 141.758 64.776 141.497C64.6699 141.237 64.6187 140.958 64.6257 140.677C64.6302 140.149 64.8289 139.642 65.1838 139.252L78.9901 129.382C80.8877 131.618 83.4005 133.247 86.2163 134.067V134.067ZM55.8132 140.677C55.8202 140.958 55.769 141.237 55.6629 141.497C55.5567 141.758 55.3979 141.993 55.1963 142.189L48.9395 150.958C48.7658 151.142 48.5308 151.257 48.2785 151.281C48.1757 151.266 47.9995 151.134 47.8232 150.811L34.252 134.097C37.1069 133.33 39.6656 131.724 41.5957 129.485L55.2551 139.252C55.61 139.642 55.8088 140.149 55.8132 140.677Z" fill="#FFDB80"/>
<path opacity="0.3" d="M114.446 174.664C114.437 171.411 114.26 168.161 113.917 164.926C113.917 164.853 113.902 164.779 113.902 164.72C113.036 148.652 99.8168 141.529 92.3409 138.782L90.4609 138.151L92.3409 135.845C99.8168 138.591 113.036 145.715 113.902 161.783C113.902 161.842 113.917 161.915 113.917 161.988C114.35 166.199 114.526 170.432 114.446 174.664V174.664ZM28.1271 135.889L29.9337 138.107L28.1271 138.826C20.5778 141.588 7.66744 148.652 6.80088 164.72C6.78619 164.867 6.7715 165.014 6.74213 165.161C6.23235 168.273 5.9818 171.422 5.99306 174.576C5.85672 170.444 6.1075 166.308 6.74213 162.223C6.7715 162.077 6.78619 161.93 6.80088 161.783C7.66744 145.715 20.5778 138.65 28.1271 135.889Z" fill="#F9DBD7"/>
<path opacity="0.45" d="M67.5488 177.836C67.5074 177.896 67.4579 177.951 67.4019 177.998L60.8513 182.022C60.4657 182.154 60.0471 182.154 59.6616 182.022L53.1109 177.998C53.0145 177.925 52.9385 177.829 52.8906 177.718L53.4634 175.266L59.6616 179.084C60.0471 179.217 60.4657 179.217 60.8513 179.084L66.8878 175.383L67.5488 177.836Z" fill="#AD9359"/>
<path opacity="0.5" d="M75.8306 124.403L66.9447 130.763C62.5378 132.163 57.8036 132.153 53.4028 130.733L44.7812 124.55C44.9428 124.241 45.1044 123.918 45.2366 123.595C49.5414 126.903 54.79 128.751 60.2178 128.868C65.7313 128.742 71.0573 126.842 75.4047 123.448C75.5369 123.771 75.6837 124.094 75.8306 124.403Z" fill="#9FA5AA"/>
<path opacity="0.3" d="M86.2163 134.067L84.3657 136.329C82.2976 135.409 80.461 134.04 78.9901 132.319L65.2279 142.16C65.0299 141.968 64.8741 141.737 64.7705 141.482C64.6668 141.226 64.6175 140.952 64.6257 140.677C64.6302 140.149 64.8289 139.642 65.1838 139.252L78.9901 129.382C80.8878 131.618 83.4006 133.247 86.2163 134.067V134.067ZM55.8132 140.677C55.8214 140.952 55.7721 141.226 55.6685 141.482C55.5648 141.737 55.409 141.968 55.211 142.16L41.5957 132.422C40.1028 134.152 38.227 135.51 36.1173 136.388L34.252 134.097C37.1069 133.33 39.6656 131.724 41.5957 129.485L55.2551 139.252C55.61 139.642 55.8087 140.149 55.8132 140.677V140.677Z" fill="#F9DBD7"/>
<path opacity="0.3" d="M51.7285 87.3906H41.4473V90.3281H51.7285V87.3906Z" fill="#0F423C"/>
<path opacity="0.3" d="M79.6348 87.3906H69.3535V90.3281H79.6348V87.3906Z" fill="#0F423C"/>
<path opacity="0.5" d="M91.033 79.1367L90.8421 79.2248C90.0115 71.6869 86.4302 64.7201 80.7836 59.6579C75.137 54.5957 67.8219 51.7937 60.2384 51.7882C52.6549 51.7827 45.3357 54.5742 39.6819 59.6283C34.028 64.6824 30.4367 71.644 29.5952 79.1807L29.4043 79.0926C29.5554 71.0162 32.8712 63.322 38.6383 57.6658C44.4053 52.0097 52.1625 48.8438 60.2403 48.8496C68.3181 48.8554 76.0707 52.0323 81.8297 57.6967C87.5887 63.3611 90.8935 71.0601 91.033 79.1367V79.1367Z" fill="white"/>
<path opacity="0.5" d="M90.5196 85.9662C87.8024 102.534 75.274 122.993 60.2193 122.993C45.1205 122.993 32.5627 102.402 29.9043 85.8193L30.5359 86.1278C34.193 102.02 46.0899 120.056 60.2193 120.056C74.2899 120.056 86.1574 102.167 89.8587 86.304L90.5196 85.9662Z" fill="#9FA5AA"/>
<path opacity="0.45" d="M65.7116 152.956L64.3603 155.688H56.3262L54.8281 152.75L55.7094 151.531L56.3262 152.75H64.3603L64.8597 151.752L65.7116 152.956Z" fill="#AD9359"/>
<path opacity="0.45" d="M86.2163 134.067L72.9241 150.341L72.6157 150.811C72.4395 151.134 72.2632 151.266 72.1604 151.281C71.9089 151.254 71.6748 151.14 71.4995 150.958L65.5363 142.557L65.2426 142.189C65.041 141.993 64.8822 141.758 64.776 141.497C64.6698 141.237 64.6187 140.958 64.6257 140.677C64.6302 140.149 64.8289 139.642 65.1838 139.252L65.2279 139.223C65.2279 139.237 65.2279 139.237 65.2426 139.252L65.5363 139.619L71.4995 148.02C71.6748 148.203 71.9089 148.317 72.1604 148.343C72.2632 148.329 72.4395 148.197 72.6157 147.873L72.9241 147.403L84.3657 133.392C84.9666 133.658 85.5849 133.884 86.2163 134.067V134.067ZM55.8132 140.677C55.8202 140.958 55.7691 141.237 55.6629 141.497C55.5567 141.758 55.3979 141.993 55.1963 142.189L48.9395 150.958C48.7657 151.142 48.5308 151.257 48.2785 151.281C48.1757 151.266 47.9995 151.134 47.8232 150.811L34.252 134.097C34.8896 133.93 35.5132 133.714 36.1173 133.45L47.8232 147.873C47.9995 148.197 48.1757 148.329 48.2785 148.343C48.5308 148.32 48.7657 148.205 48.9395 148.02L55.1963 139.252C55.211 139.237 55.211 139.237 55.211 139.223L55.2551 139.252C55.61 139.642 55.8087 140.149 55.8132 140.677V140.677Z" fill="#AD9359"/>
</g>
<defs>
<clipPath id="clip0_1393_1440">
<rect width="188" height="188" fill="white"/>
</clipPath>
</defs>
</svg>
