<svg width="24" height="24" viewBox="0 0 24 24" fill="none" xmlns="http://www.w3.org/2000/svg">
<path d="M7.125 17.625C4.02338 17.625 1.5 15.1016 1.5 12C1.5 11.586 1.836 11.25 2.25 11.25C2.664 11.25 3 11.586 3 12C3 14.2744 4.85063 16.125 7.125 16.125C9.39937 16.125 11.25 14.2744 11.25 12C11.25 11.586 11.586 11.25 12 11.25C12.414 11.25 12.75 11.586 12.75 12C12.75 15.1016 10.2266 17.625 7.125 17.625Z" fill="#FAB400"/>
<path d="M12.7425 12.2813C12.7462 12.285 12.7462 12.285 12.7425 12.2888C12.6937 13.275 12.39 14.19 11.895 14.9775C11.4825 14.2012 11.25 13.3163 11.25 12.375C11.25 11.9625 11.5875 11.625 12 11.625C12.3787 11.625 12.6975 11.91 12.7425 12.2813Z" fill="#DC9600"/>
<path d="M7.125 14.8125C8.6783 14.8125 9.9375 13.5533 9.9375 12C9.9375 10.4467 8.6783 9.1875 7.125 9.1875C5.5717 9.1875 4.3125 10.4467 4.3125 12C4.3125 13.5533 5.5717 14.8125 7.125 14.8125Z" fill="#C80A50"/>
<path d="M7.875 15V9C7.875 8.793 7.707 8.625 7.5 8.625H6.75C6.543 8.625 6.375 8.793 6.375 9V15C6.375 15.207 6.543 15.375 6.75 15.375H7.5C7.707 15.375 7.875 15.207 7.875 15Z" fill="#C80A50"/>
<path d="M9.34786 9.85055L4.15186 12.8506C3.97261 12.9541 3.91111 13.1836 4.01461 13.3628L4.38961 14.0123C4.49311 14.1916 4.72261 14.2531 4.90186 14.1496L10.0979 11.1496C10.2771 11.0461 10.3386 10.8166 10.2351 10.6373L9.86011 9.9878C9.75661 9.80855 9.52711 9.74705 9.34786 9.85055Z" fill="#C80A50"/>
<path d="M9.34786 14.1496L4.15186 11.1496C3.97261 11.0461 3.91111 10.8166 4.01461 10.6373L4.38961 9.9878C4.49311 9.80855 4.72261 9.74705 4.90186 9.85055L10.0979 12.8506C10.2771 12.9541 10.3386 13.1836 10.2351 13.3628L9.86011 14.0123C9.75661 14.1916 9.52711 14.2531 9.34786 14.1496Z" fill="#C80A50"/>
<path d="M7.125 13.6875C8.05698 13.6875 8.8125 12.932 8.8125 12C8.8125 11.068 8.05698 10.3125 7.125 10.3125C6.19302 10.3125 5.4375 11.068 5.4375 12C5.4375 12.932 6.19302 13.6875 7.125 13.6875Z" fill="#F0F0F0"/>
<path d="M6.60984 13.2028L6.10997 12.7026C5.96334 12.556 5.96334 12.3186 6.10997 12.1723C6.25659 12.0257 6.49359 12.0257 6.64022 12.1723L6.87497 12.4075L7.60997 11.6725C7.75659 11.5258 7.99359 11.5258 8.14022 11.6725C8.28684 11.8191 8.28684 12.0561 8.14022 12.2027L7.14009 13.2028C6.99347 13.3495 6.75609 13.3491 6.60984 13.2028Z" fill="#D2D2D2"/>
<path d="M6.87497 12.9377C6.77559 12.9377 6.67997 12.8983 6.60984 12.8278L6.10997 12.3276C5.96334 12.181 5.96334 11.944 6.10997 11.7973C6.25659 11.6507 6.49359 11.6507 6.64022 11.7973L6.87497 12.0325L7.60959 11.2975C7.75622 11.1508 7.99322 11.1508 8.13984 11.2975C8.28647 11.4441 8.28647 11.6811 8.13984 11.8277L7.13972 12.8278C7.06997 12.8983 6.97472 12.9377 6.87497 12.9377Z" fill="#0A5078"/>
<path d="M16.875 14.8125C18.4283 14.8125 19.6875 13.5533 19.6875 12C19.6875 10.4467 18.4283 9.1875 16.875 9.1875C15.3217 9.1875 14.0625 10.4467 14.0625 12C14.0625 13.5533 15.3217 14.8125 16.875 14.8125Z" fill="#00A0C8"/>
<path d="M17.625 15V9C17.625 8.793 17.457 8.625 17.25 8.625H16.5C16.293 8.625 16.125 8.793 16.125 9V15C16.125 15.207 16.293 15.375 16.5 15.375H17.25C17.457 15.375 17.625 15.207 17.625 15Z" fill="#00A0C8"/>
<path d="M19.0979 9.85055L13.9019 12.8506C13.7226 12.9541 13.6611 13.1836 13.7646 13.3628L14.1396 14.0123C14.2431 14.1916 14.4726 14.2531 14.6519 14.1496L19.8479 11.1496C20.0271 11.0461 20.0886 10.8166 19.9851 10.6373L19.6101 9.9878C19.5066 9.80855 19.2771 9.74705 19.0979 9.85055Z" fill="#00A0C8"/>
<path d="M19.0979 14.1496L13.9019 11.1496C13.7226 11.0461 13.6611 10.8166 13.7646 10.6373L14.1396 9.9878C14.2431 9.80855 14.4726 9.74705 14.6519 9.85055L19.8479 12.8506C20.0271 12.9541 20.0886 13.1836 19.9851 13.3628L19.6101 14.0123C19.5066 14.1916 19.2771 14.2531 19.0979 14.1496Z" fill="#00A0C8"/>
<path d="M16.875 13.6875C17.807 13.6875 18.5625 12.932 18.5625 12C18.5625 11.068 17.807 10.3125 16.875 10.3125C15.943 10.3125 15.1875 11.068 15.1875 12C15.1875 12.932 15.943 13.6875 16.875 13.6875Z" fill="#F0F0F0"/>
<path d="M16.3598 13.2028L15.86 12.7026C15.7133 12.556 15.7133 12.3186 15.86 12.1723C16.0066 12.0257 16.2436 12.0257 16.3902 12.1723L16.625 12.4075L17.36 11.6725C17.5066 11.5258 17.7436 11.5258 17.8902 11.6725C18.0368 11.8191 18.0368 12.0561 17.8902 12.2027L16.8901 13.2028C16.7435 13.3495 16.5061 13.3491 16.3598 13.2028Z" fill="#D2D2D2"/>
<path d="M16.625 12.9377C16.5252 12.9377 16.43 12.8983 16.3598 12.8278L15.86 12.3276C15.7133 12.181 15.7133 11.9436 15.86 11.7973C16.0066 11.6507 16.2436 11.6507 16.3902 11.7973L16.625 12.0325L17.36 11.2975C17.5066 11.1508 17.7436 11.1508 17.8902 11.2975C18.0368 11.4441 18.0368 11.6811 17.8902 11.8277L16.8901 12.8278C16.82 12.8983 16.7247 12.9377 16.625 12.9377Z" fill="#0A5078"/>
<path d="M11.625 5.625V4.875C11.625 4.668 11.793 4.5 12 4.5C12.207 4.5 12.375 4.668 12.375 4.875V5.625C12.375 5.832 12.207 6 12 6C11.793 6 11.625 5.832 11.625 5.625Z" fill="#C80A50"/>
<path d="M13.4547 5.89022L13.9849 5.35997C14.1316 5.21334 14.3689 5.21334 14.5152 5.35997C14.6618 5.50659 14.6618 5.74397 14.5152 5.89022L13.9849 6.42047C13.8383 6.56709 13.6009 6.56709 13.4547 6.42047C13.3081 6.27422 13.3081 6.03684 13.4547 5.89022Z" fill="#FAB400"/>
<path d="M10.0152 6.42047L9.48497 5.89022C9.33834 5.74359 9.33834 5.50622 9.48497 5.35997C9.63159 5.21334 9.86897 5.21334 10.0152 5.35997L10.5455 5.89022C10.6921 6.03684 10.6921 6.27422 10.5455 6.42047C10.3992 6.56709 10.1618 6.56709 10.0152 6.42047Z" fill="#00A0C8"/>
<path d="M11.625 18.375V19.125C11.625 19.332 11.793 19.5 12 19.5C12.207 19.5 12.375 19.332 12.375 19.125V18.375C12.375 18.168 12.207 18 12 18C11.793 18 11.625 18.168 11.625 18.375Z" fill="#C80A50"/>
<path d="M13.4547 18.1099L13.9849 18.6402C14.1316 18.7868 14.3689 18.7868 14.5152 18.6402C14.6618 18.4936 14.6618 18.2562 14.5152 18.1099L13.9849 17.5797C13.8383 17.4331 13.6009 17.4331 13.4547 17.5797C13.3081 17.7259 13.3081 17.9633 13.4547 18.1099Z" fill="#FAB400"/>
<path d="M10.0152 17.5797L9.48497 18.1099C9.33834 18.2566 9.33834 18.4939 9.48497 18.6402C9.63159 18.7868 9.86897 18.7868 10.0152 18.6402L10.5455 18.1099C10.6921 17.9633 10.6921 17.7259 10.5455 17.5797C10.3992 17.4331 10.1618 17.4331 10.0152 17.5797Z" fill="#00A0C8"/>
<path d="M16.875 17.625C13.7734 17.625 11.25 15.1016 11.25 12C11.25 11.586 11.586 11.25 12 11.25C12.414 11.25 12.75 11.586 12.75 12C12.75 14.2744 14.6006 16.125 16.875 16.125C19.1494 16.125 21 14.2744 21 12C21 11.586 21.336 11.25 21.75 11.25C22.164 11.25 22.5 11.586 22.5 12C22.5 15.1016 19.9766 17.625 16.875 17.625Z" fill="#0A5078"/>
<path d="M21.75 12.75C21.336 12.75 21 12.414 21 12C21 9.72563 19.1494 7.875 16.875 7.875C14.6006 7.875 12.75 9.72563 12.75 12C12.75 12.414 12.414 12.75 12 12.75C11.586 12.75 11.25 12.414 11.25 12C11.25 8.89838 13.7734 6.375 16.875 6.375C19.9766 6.375 22.5 8.89838 22.5 12C22.5 12.414 22.164 12.75 21.75 12.75Z" fill="#FAB400"/>
<path d="M12 12.75C11.586 12.75 11.25 12.414 11.25 12C11.25 9.72563 9.39937 7.875 7.125 7.875C4.85063 7.875 3 9.72563 3 12C3 12.414 2.664 12.75 2.25 12.75C1.836 12.75 1.5 12.414 1.5 12C1.5 8.89838 4.02338 6.375 7.125 6.375C10.2266 6.375 12.75 8.89838 12.75 12C12.75 12.414 12.414 12.75 12 12.75Z" fill="#0A5078"/>
</svg>
