<svg width="64" height="64" viewBox="0 0 64 64" fill="none" xmlns="http://www.w3.org/2000/svg">
<path d="M14 45C13.2089 45 12.4355 45.2346 11.7777 45.6741C11.1199 46.1136 10.6072 46.7384 10.3045 47.4693C10.0017 48.2002 9.92252 49.0044 10.0769 49.7804C10.2312 50.5563 10.6122 51.269 11.1716 51.8284C11.731 52.3878 12.4437 52.7688 13.2196 52.9231C13.9956 53.0775 14.7998 52.9983 15.5307 52.6955C16.2616 52.3928 16.8864 51.8801 17.3259 51.2223C17.7654 50.5645 18 49.7911 18 49C18 47.9391 17.5786 46.9217 16.8284 46.1716C16.0783 45.4214 15.0609 45 14 45ZM14 51C13.6044 51 13.2178 50.8827 12.8889 50.6629C12.56 50.4432 12.3036 50.1308 12.1522 49.7654C12.0009 49.3999 11.9613 48.9978 12.0384 48.6098C12.1156 48.2219 12.3061 47.8655 12.5858 47.5858C12.8655 47.3061 13.2219 47.1156 13.6098 47.0384C13.9978 46.9613 14.3999 47.0009 14.7654 47.1522C15.1308 47.3036 15.4432 47.56 15.6629 47.8889C15.8827 48.2178 16 48.6044 16 49C16 49.5304 15.7893 50.0391 15.4142 50.4142C15.0391 50.7893 14.5304 51 14 51ZM32 45C31.2089 45 30.4355 45.2346 29.7777 45.6741C29.1199 46.1136 28.6072 46.7384 28.3045 47.4693C28.0017 48.2002 27.9225 49.0044 28.0769 49.7804C28.2312 50.5563 28.6122 51.269 29.1716 51.8284C29.731 52.3878 30.4437 52.7688 31.2196 52.9231C31.9956 53.0775 32.7998 52.9983 33.5307 52.6955C34.2616 52.3928 34.8864 51.8801 35.3259 51.2223C35.7654 50.5645 36 49.7911 36 49C36 47.9391 35.5786 46.9217 34.8284 46.1716C34.0783 45.4214 33.0609 45 32 45ZM32 51C31.6044 51 31.2178 50.8827 30.8889 50.6629C30.56 50.4432 30.3036 50.1308 30.1522 49.7654C30.0009 49.3999 29.9613 48.9978 30.0384 48.6098C30.1156 48.2219 30.3061 47.8655 30.5858 47.5858C30.8655 47.3061 31.2219 47.1156 31.6098 47.0384C31.9978 46.9613 32.3999 47.0009 32.7654 47.1522C33.1308 47.3036 33.4432 47.56 33.6629 47.8889C33.8827 48.2178 34 48.6044 34 49C34 49.5304 33.7893 50.0391 33.4142 50.4142C33.0391 50.7893 32.5304 51 32 51ZM46 49C46 49.7911 46.2346 50.5645 46.6741 51.2223C47.1137 51.8801 47.7384 52.3928 48.4693 52.6955C49.2002 52.9983 50.0044 53.0775 50.7804 52.9231C51.5563 52.7688 52.269 52.3878 52.8284 51.8284C53.3878 51.269 53.7688 50.5563 53.9231 49.7804C54.0775 49.0044 53.9983 48.2002 53.6955 47.4693C53.3928 46.7384 52.8801 46.1136 52.2223 45.6741C51.5645 45.2346 50.7911 45 50 45C48.9391 45 47.9217 45.4214 47.1716 46.1716C46.4214 46.9217 46 47.9391 46 49ZM52 49C52 49.3956 51.8827 49.7822 51.6629 50.1111C51.4432 50.44 51.1308 50.6964 50.7654 50.8478C50.3999 50.9991 49.9978 51.0387 49.6098 50.9616C49.2219 50.8844 48.8655 50.6939 48.5858 50.4142C48.3061 50.1345 48.1156 49.7781 48.0384 49.3902C47.9613 49.0022 48.0009 48.6001 48.1522 48.2346C48.3036 47.8692 48.56 47.5568 48.8889 47.3371C49.2178 47.1173 49.6044 47 50 47C50.5304 47 51.0391 47.2107 51.4142 47.5858C51.7893 47.9609 52 48.4696 52 49Z" fill="black"/>
<path d="M53 54H47C47 53.2043 46.6839 52.4413 46.1213 51.8787C45.5587 51.3161 44.7957 51 44 51H38C37.2043 51 36.4413 51.3161 35.8787 51.8787C35.3161 52.4413 35 53.2043 35 54H29C29 53.2043 28.6839 52.4413 28.1213 51.8787C27.5587 51.3161 26.7956 51 26 51H20C19.2044 51 18.4413 51.3161 17.8787 51.8787C17.3161 52.4413 17 53.2043 17 54H11C10.2044 54 9.44129 54.3161 8.87868 54.8787C8.31607 55.4413 8 56.2043 8 57V62C8 62.2652 8.10536 62.5196 8.29289 62.7071C8.48043 62.8946 8.73478 63 9 63H19C19.2652 63 19.5196 62.8946 19.7071 62.7071C19.8946 62.5196 20 62.2652 20 62V60H26V62C26 62.2652 26.1054 62.5196 26.2929 62.7071C26.4804 62.8946 26.7348 63 27 63H37C37.2652 63 37.5196 62.8946 37.7071 62.7071C37.8946 62.5196 38 62.2652 38 62V60H44V62C44 62.2652 44.1054 62.5196 44.2929 62.7071C44.4804 62.8946 44.7348 63 45 63H55C55.2652 63 55.5196 62.8946 55.7071 62.7071C55.8946 62.5196 56 62.2652 56 62V57C56 56.2043 55.6839 55.4413 55.1213 54.8787C54.5587 54.3161 53.7957 54 53 54ZM18 61H10V57C10 56.7348 10.1054 56.4804 10.2929 56.2929C10.4804 56.1054 10.7348 56 11 56H17C17.2652 56 17.5196 56.1054 17.7071 56.2929C17.8946 56.4804 18 56.7348 18 57V61ZM27 54.78C26.6874 55.0596 26.4369 55.4016 26.2647 55.784C26.0924 56.1664 26.0023 56.5806 26 57V58H20V57C19.9977 56.5806 19.9076 56.1664 19.7353 55.784C19.5631 55.4016 19.3126 55.0596 19 54.78V54C19 53.7348 19.1054 53.4804 19.2929 53.2929C19.4804 53.1054 19.7348 53 20 53H26C26.2652 53 26.5196 53.1054 26.7071 53.2929C26.8946 53.4804 27 53.7348 27 54V54.78ZM36 61H28V57C28 56.7348 28.1054 56.4804 28.2929 56.2929C28.4804 56.1054 28.7348 56 29 56H35C35.2652 56 35.5196 56.1054 35.7071 56.2929C35.8946 56.4804 36 56.7348 36 57V61ZM45 54.78C44.6874 55.0596 44.4369 55.4016 44.2647 55.784C44.0924 56.1664 44.0023 56.5806 44 57V58H38V57C37.9977 56.5806 37.9076 56.1664 37.7353 55.784C37.5631 55.4016 37.3126 55.0596 37 54.78V54C37 53.7348 37.1054 53.4804 37.2929 53.2929C37.4804 53.1054 37.7348 53 38 53H44C44.2652 53 44.5196 53.1054 44.7071 53.2929C44.8946 53.4804 45 53.7348 45 54V54.78ZM54 61H46V57C46 56.7348 46.1054 56.4804 46.2929 56.2929C46.4804 56.1054 46.7348 56 47 56H53C53.2652 56 53.5196 56.1054 53.7071 56.2929C53.8946 56.4804 54 56.7348 54 57V61ZM41 50C41.7911 50 42.5645 49.7654 43.2223 49.3259C43.8801 48.8864 44.3928 48.2616 44.6955 47.5307C44.9983 46.7998 45.0775 45.9956 44.9231 45.2196C44.7688 44.4437 44.3878 43.731 43.8284 43.1716C43.269 42.6122 42.5563 42.2312 41.7804 42.0769C41.0044 41.9225 40.2002 42.0017 39.4693 42.3045C38.7384 42.6072 38.1136 43.1199 37.6741 43.7777C37.2346 44.4355 37 45.2089 37 46C37 47.0609 37.4214 48.0783 38.1716 48.8284C38.9217 49.5786 39.9391 50 41 50ZM41 44C41.3956 44 41.7822 44.1173 42.1111 44.3371C42.44 44.5568 42.6964 44.8692 42.8478 45.2346C42.9991 45.6001 43.0387 46.0022 42.9616 46.3902C42.8844 46.7781 42.6939 47.1345 42.4142 47.4142C42.1345 47.6939 41.7781 47.8844 41.3902 47.9616C41.0022 48.0387 40.6001 47.9991 40.2346 47.8478C39.8692 47.6964 39.5568 47.44 39.3371 47.1111C39.1173 46.7822 39 46.3956 39 46C39 45.4696 39.2107 44.9609 39.5858 44.5858C39.9609 44.2107 40.4696 44 41 44ZM23 50C23.7911 50 24.5645 49.7654 25.2223 49.3259C25.8801 48.8864 26.3928 48.2616 26.6955 47.5307C26.9983 46.7998 27.0775 45.9956 26.9231 45.2196C26.7688 44.4437 26.3878 43.731 25.8284 43.1716C25.269 42.6122 24.5563 42.2312 23.7804 42.0769C23.0044 41.9225 22.2002 42.0017 21.4693 42.3045C20.7384 42.6072 20.1136 43.1199 19.6741 43.7777C19.2346 44.4355 19 45.2089 19 46C19 47.0609 19.4214 48.0783 20.1716 48.8284C20.9217 49.5786 21.9391 50 23 50ZM23 44C23.3956 44 23.7822 44.1173 24.1111 44.3371C24.44 44.5568 24.6964 44.8692 24.8478 45.2346C24.9991 45.6001 25.0387 46.0022 24.9616 46.3902C24.8844 46.7781 24.6939 47.1345 24.4142 47.4142C24.1345 47.6939 23.7781 47.8844 23.3902 47.9616C23.0022 48.0387 22.6001 47.9991 22.2346 47.8478C21.8692 47.6964 21.5568 47.44 21.3371 47.1111C21.1173 46.7822 21 46.3956 21 46C21 45.4696 21.2107 44.9609 21.5858 44.5858C21.9609 44.2107 22.4696 44 23 44ZM32 9C32.7911 9 33.5645 8.76541 34.2223 8.32588C34.8801 7.88635 35.3928 7.26164 35.6955 6.53074C35.9983 5.79983 36.0775 4.99556 35.9231 4.21964C35.7688 3.44372 35.3878 2.73098 34.8284 2.17157C34.269 1.61216 33.5563 1.2312 32.7804 1.07686C32.0044 0.92252 31.2002 1.00173 30.4693 1.30448C29.7384 1.60723 29.1136 2.11992 28.6741 2.77772C28.2346 3.43552 28 4.20888 28 5C28 6.06087 28.4214 7.07828 29.1716 7.82843C29.9217 8.57857 30.9391 9 32 9ZM32 3C32.3956 3 32.7822 3.1173 33.1111 3.33706C33.44 3.55683 33.6964 3.86918 33.8478 4.23463C33.9991 4.60009 34.0387 5.00222 33.9616 5.39018C33.8844 5.77814 33.6939 6.13451 33.4142 6.41422C33.1345 6.69392 32.7781 6.8844 32.3902 6.96157C32.0022 7.03874 31.6001 6.99914 31.2346 6.84776C30.8692 6.69639 30.5568 6.44004 30.3371 6.11114C30.1173 5.78224 30 5.39556 30 5C30 4.46957 30.2107 3.96086 30.5858 3.58579C30.9609 3.21072 31.4696 3 32 3ZM37.89 22.45C37.9742 22.284 38.0104 22.0977 37.9945 21.9122C37.9786 21.7267 37.9113 21.5493 37.8 21.4L35.43 18.25L37.55 16.83C37.6876 16.7394 37.8006 16.6163 37.8791 16.4715C37.9576 16.3267 37.9991 16.1647 38 16V13C38 12.2044 37.6839 11.4413 37.1213 10.8787C36.5587 10.3161 35.7957 10 35 10H29C28.2044 10 27.4413 10.3161 26.8787 10.8787C26.3161 11.4413 26 12.2044 26 13V16C26.0009 16.1647 26.0424 16.3267 26.1209 16.4715C26.1994 16.6163 26.3124 16.7394 26.45 16.83L28.57 18.25L26.2 21.4C26.0886 21.5486 26.0207 21.7252 26.004 21.9102C25.9874 22.0952 26.0225 22.2811 26.1056 22.4472C26.1886 22.6133 26.3163 22.753 26.4743 22.8507C26.6322 22.9483 26.8143 23 27 23H29V26C29 26.2652 29.1054 26.5196 29.2929 26.7071C29.4804 26.8946 29.7348 27 30 27H34C34.2652 27 34.5196 26.8946 34.7071 26.7071C34.8946 26.5196 35 26.2652 35 26V23H37C37.1847 22.9994 37.3656 22.9478 37.5227 22.8507C37.6798 22.7536 37.8069 22.6149 37.89 22.45ZM33 25H31V23H33V25ZM29 21L30.8 18.6C30.9606 18.3776 31.0287 18.1016 30.99 17.83C30.9656 17.6958 30.9139 17.568 30.8382 17.4545C30.7626 17.341 30.6645 17.2442 30.55 17.17L28 15.46V13C28 12.7348 28.1054 12.4804 28.2929 12.2929C28.4804 12.1054 28.7348 12 29 12H35C35.2652 12 35.5196 12.1054 35.7071 12.2929C35.8946 12.4804 36 12.7348 36 13V15.46L33.45 17.17C33.3355 17.2442 33.2374 17.341 33.1618 17.4545C33.0861 17.568 33.0344 17.6958 33.01 17.83C32.9713 18.1016 33.0394 18.3776 33.2 18.6L35 21H29ZM3 14C3 14.7911 3.2346 15.5645 3.67412 16.2223C4.11365 16.8801 4.73836 17.3928 5.46927 17.6955C6.20017 17.9983 7.00444 18.0775 7.78036 17.9231C8.55629 17.7688 9.26902 17.3878 9.82843 16.8284C10.3878 16.269 10.7688 15.5563 10.9231 14.7804C11.0775 14.0044 10.9983 13.2002 10.6955 12.4693C10.3928 11.7384 9.88008 11.1136 9.22228 10.6741C8.56448 10.2346 7.79113 10 7 10C5.93913 10 4.92172 10.4214 4.17157 11.1716C3.42143 11.9217 3 12.9391 3 14ZM9 14C9 14.3956 8.8827 14.7822 8.66294 15.1111C8.44318 15.44 8.13082 15.6964 7.76537 15.8478C7.39992 15.9991 6.99778 16.0387 6.60982 15.9616C6.22186 15.8844 5.86549 15.6939 5.58579 15.4142C5.30608 15.1345 5.1156 14.7781 5.03843 14.3902C4.96126 14.0022 5.00087 13.6001 5.15224 13.2346C5.30362 12.8692 5.55996 12.5568 5.88886 12.3371C6.21776 12.1173 6.60444 12 7 12C7.53043 12 8.03914 12.2107 8.41421 12.5858C8.78929 12.9609 9 13.4696 9 14ZM10 35V32H12C12.1857 32 12.3678 31.9483 12.5257 31.8507C12.6837 31.753 12.8114 31.6133 12.8944 31.4472C12.9775 31.2811 13.0126 31.0952 12.996 30.9102C12.9793 30.7252 12.9114 30.5486 12.8 30.4L10.43 27.25L12.55 25.83C12.6876 25.7394 12.8006 25.6162 12.8791 25.4715C12.9576 25.3267 12.9991 25.1647 13 25V22C13 21.2044 12.6839 20.4413 12.1213 19.8787C11.5587 19.3161 10.7956 19 10 19H4C3.20435 19 2.44129 19.3161 1.87868 19.8787C1.31607 20.4413 1 21.2044 1 22V25C1.00085 25.1647 1.04238 25.3267 1.12088 25.4715C1.19938 25.6162 1.31244 25.7394 1.45 25.83L3.57 27.25L1.2 30.4C1.08857 30.5486 1.02072 30.7252 1.00404 30.9102C0.987363 31.0952 1.02252 31.2811 1.10557 31.4472C1.18863 31.6133 1.31629 31.753 1.47427 31.8507C1.63225 31.9483 1.81429 32 2 32H4V35C4 35.2652 4.10536 35.5196 4.29289 35.7071C4.48043 35.8946 4.73478 36 5 36H9C9.26522 36 9.51957 35.8946 9.70711 35.7071C9.89464 35.5196 10 35.2652 10 35ZM4 30L5.8 27.6C5.96411 27.379 6.03583 27.1029 6 26.83C5.97555 26.6958 5.92391 26.568 5.84824 26.4545C5.77257 26.341 5.67448 26.2442 5.56 26.17L3 24.46V22C3 21.7348 3.10536 21.4804 3.29289 21.2929C3.48043 21.1054 3.73478 21 4 21H10C10.2652 21 10.5196 21.1054 10.7071 21.2929C10.8946 21.4804 11 21.7348 11 22V24.46L8.45 26.17C8.33552 26.2442 8.23743 26.341 8.16176 26.4545C8.08609 26.568 8.03445 26.6958 8.01 26.83C7.97131 27.1016 8.03942 27.3776 8.2 27.6L10 30H4ZM8 34H6V32H8V34ZM57 18C57.7911 18 58.5645 17.7654 59.2223 17.3259C59.8801 16.8864 60.3928 16.2616 60.6955 15.5307C60.9983 14.7998 61.0775 13.9956 60.9231 13.2196C60.7688 12.4437 60.3878 11.731 59.8284 11.1716C59.269 10.6122 58.5563 10.2312 57.7804 10.0769C57.0044 9.92252 56.2002 10.0017 55.4693 10.3045C54.7384 10.6072 54.1136 11.1199 53.6741 11.7777C53.2346 12.4355 53 13.2089 53 14C53 15.0609 53.4214 16.0783 54.1716 16.8284C54.9217 17.5786 55.9391 18 57 18ZM57 12C57.3956 12 57.7822 12.1173 58.1111 12.3371C58.44 12.5568 58.6964 12.8692 58.8478 13.2346C58.9991 13.6001 59.0387 14.0022 58.9616 14.3902C58.8844 14.7781 58.6939 15.1345 58.4142 15.4142C58.1345 15.6939 57.7781 15.8844 57.3902 15.9616C57.0022 16.0387 56.6001 15.9991 56.2346 15.8478C55.8692 15.6964 55.5568 15.44 55.3371 15.1111C55.1173 14.7822 55 14.3956 55 14C55 13.4696 55.2107 12.9609 55.5858 12.5858C55.9609 12.2107 56.4696 12 57 12ZM60 19H54C53.2043 19 52.4413 19.3161 51.8787 19.8787C51.3161 20.4413 51 21.2044 51 22V25C51.0009 25.1647 51.0424 25.3267 51.1209 25.4715C51.1994 25.6162 51.3124 25.7394 51.45 25.83L53.57 27.25L51.2 30.4C51.0886 30.5486 51.0207 30.7252 51.004 30.9102C50.9874 31.0952 51.0225 31.2811 51.1056 31.4472C51.1886 31.6133 51.3163 31.753 51.4743 31.8507C51.6322 31.9483 51.8143 32 52 32H54V35C54 35.2652 54.1054 35.5196 54.2929 35.7071C54.4804 35.8946 54.7348 36 55 36H59C59.2652 36 59.5196 35.8946 59.7071 35.7071C59.8946 35.5196 60 35.2652 60 35V32H62C62.1857 32 62.3678 31.9483 62.5257 31.8507C62.6837 31.753 62.8114 31.6133 62.8944 31.4472C62.9775 31.2811 63.0126 31.0952 62.996 30.9102C62.9793 30.7252 62.9114 30.5486 62.8 30.4L60.43 27.25L62.55 25.83C62.6876 25.7394 62.8006 25.6162 62.8791 25.4715C62.9576 25.3267 62.9991 25.1647 63 25V22C63 21.2044 62.6839 20.4413 62.1213 19.8787C61.5587 19.3161 60.7957 19 60 19ZM58 34H56V32H58V34ZM61 24.46L58.45 26.17C58.3355 26.2442 58.2374 26.341 58.1618 26.4545C58.0861 26.568 58.0344 26.6958 58.01 26.83C57.9713 27.1016 58.0394 27.3776 58.2 27.6L60 30H54L55.8 27.6C55.9606 27.3776 56.0287 27.1016 55.99 26.83C55.9656 26.6958 55.9139 26.568 55.8382 26.4545C55.7626 26.341 55.6645 26.2442 55.55 26.17L53 24.46V22C53 21.7348 53.1054 21.4804 53.2929 21.2929C53.4804 21.1054 53.7348 21 54 21H60C60.2652 21 60.5196 21.1054 60.7071 21.2929C60.8946 21.4804 61 21.7348 61 22V24.46ZM44 22C44.7911 22 45.5645 21.7654 46.2223 21.3259C46.8801 20.8864 47.3928 20.2616 47.6955 19.5307C47.9983 18.7998 48.0775 17.9956 47.9231 17.2196C47.7688 16.4437 47.3878 15.731 46.8284 15.1716C46.269 14.6122 45.5563 14.2312 44.7804 14.0769C44.0044 13.9225 43.2002 14.0017 42.4693 14.3045C41.7384 14.6072 41.1136 15.1199 40.6741 15.7777C40.2346 16.4355 40 17.2089 40 18C40 19.0609 40.4214 20.0783 41.1716 20.8284C41.9217 21.5786 42.9391 22 44 22ZM44 16C44.3956 16 44.7822 16.1173 45.1111 16.3371C45.44 16.5568 45.6964 16.8692 45.8478 17.2346C45.9991 17.6001 46.0387 18.0022 45.9616 18.3902C45.8844 18.7781 45.6939 19.1345 45.4142 19.4142C45.1345 19.6939 44.7781 19.8844 44.3902 19.9616C44.0022 20.0387 43.6001 19.9991 43.2346 19.8478C42.8692 19.6964 42.5568 19.44 42.3371 19.1111C42.1173 18.7822 42 18.3956 42 18C42 17.4696 42.2107 16.9609 42.5858 16.5858C42.9609 16.2107 43.4696 16 44 16ZM47 23H41C40.2043 23 39.4413 23.3161 38.8787 23.8787C38.3161 24.4413 38 25.2044 38 26V29C38.0009 29.1647 38.0424 29.3267 38.1209 29.4715C38.1994 29.6162 38.3124 29.7394 38.45 29.83L40.57 31.25L38.2 34.4C38.0886 34.5486 38.0207 34.7252 38.004 34.9102C37.9874 35.0952 38.0225 35.2811 38.1056 35.4472C38.1886 35.6133 38.3163 35.753 38.4743 35.8507C38.6322 35.9483 38.8143 36 39 36H41V39C41 39.2652 41.1054 39.5196 41.2929 39.7071C41.4804 39.8946 41.7348 40 42 40H46C46.2652 40 46.5196 39.8946 46.7071 39.7071C46.8946 39.5196 47 39.2652 47 39V36H49C49.1857 36 49.3678 35.9483 49.5257 35.8507C49.6837 35.753 49.8114 35.6133 49.8944 35.4472C49.9775 35.2811 50.0126 35.0952 49.996 34.9102C49.9793 34.7252 49.9114 34.5486 49.8 34.4L47.43 31.25L49.55 29.83C49.6876 29.7394 49.8006 29.6162 49.8791 29.4715C49.9576 29.3267 49.9991 29.1647 50 29V26C50 25.2044 49.6839 24.4413 49.1213 23.8787C48.5587 23.3161 47.7957 23 47 23ZM45 38H43V36H45V38ZM48 28.46L45.45 30.17C45.3355 30.2442 45.2374 30.341 45.1618 30.4545C45.0861 30.568 45.0344 30.6958 45.01 30.83C44.9713 31.1016 45.0394 31.3776 45.2 31.6L47 34H41L42.8 31.6C42.9606 31.3776 43.0287 31.1016 42.99 30.83C42.9656 30.6958 42.9139 30.568 42.8382 30.4545C42.7626 30.341 42.6645 30.2442 42.55 30.17L40 28.46V26C40 25.7348 40.1054 25.4804 40.2929 25.2929C40.4804 25.1054 40.7348 25 41 25H47C47.2652 25 47.5196 25.1054 47.7071 25.2929C47.8946 25.4804 48 25.7348 48 26V28.46ZM20 22C20.7911 22 21.5645 21.7654 22.2223 21.3259C22.8801 20.8864 23.3928 20.2616 23.6955 19.5307C23.9983 18.7998 24.0775 17.9956 23.9231 17.2196C23.7688 16.4437 23.3878 15.731 22.8284 15.1716C22.269 14.6122 21.5563 14.2312 20.7804 14.0769C20.0044 13.9225 19.2002 14.0017 18.4693 14.3045C17.7384 14.6072 17.1136 15.1199 16.6741 15.7777C16.2346 16.4355 16 17.2089 16 18C16 19.0609 16.4214 20.0783 17.1716 20.8284C17.9217 21.5786 18.9391 22 20 22ZM20 16C20.3956 16 20.7822 16.1173 21.1111 16.3371C21.44 16.5568 21.6964 16.8692 21.8478 17.2346C21.9991 17.6001 22.0387 18.0022 21.9616 18.3902C21.8844 18.7781 21.6939 19.1345 21.4142 19.4142C21.1345 19.6939 20.7781 19.8844 20.3902 19.9616C20.0022 20.0387 19.6001 19.9991 19.2346 19.8478C18.8692 19.6964 18.5568 19.44 18.3371 19.1111C18.1173 18.7822 18 18.3956 18 18C18 17.4696 18.2107 16.9609 18.5858 16.5858C18.9609 16.2107 19.4696 16 20 16ZM22 40C22.2652 40 22.5196 39.8946 22.7071 39.7071C22.8946 39.5196 23 39.2652 23 39V36H25C25.1857 36 25.3678 35.9483 25.5257 35.8507C25.6837 35.753 25.8114 35.6133 25.8944 35.4472C25.9775 35.2811 26.0126 35.0952 25.996 34.9102C25.9793 34.7252 25.9114 34.5486 25.8 34.4L23.43 31.25L25.55 29.83C25.6876 29.7394 25.8006 29.6162 25.8791 29.4715C25.9576 29.3267 25.9991 29.1647 26 29V26C26 25.2044 25.6839 24.4413 25.1213 23.8787C24.5587 23.3161 23.7956 23 23 23H17C16.2044 23 15.4413 23.3161 14.8787 23.8787C14.3161 24.4413 14 25.2044 14 26V29C14.0009 29.1647 14.0424 29.3267 14.1209 29.4715C14.1994 29.6162 14.3124 29.7394 14.45 29.83L16.57 31.25L14.2 34.4C14.0886 34.5486 14.0207 34.7252 14.004 34.9102C13.9874 35.0952 14.0225 35.2811 14.1056 35.4472C14.1886 35.6133 14.3163 35.753 14.4743 35.8507C14.6322 35.9483 14.8143 36 15 36H17V39C17 39.2652 17.1054 39.5196 17.2929 39.7071C17.4804 39.8946 17.7348 40 18 40H22ZM21 38H19V36H21V38ZM17 34L18.8 31.6C18.9606 31.3776 19.0287 31.1016 18.99 30.83C18.9656 30.6958 18.9139 30.568 18.8382 30.4545C18.7626 30.341 18.6645 30.2442 18.55 30.17L16 28.46V26C16 25.7348 16.1054 25.4804 16.2929 25.2929C16.4804 25.1054 16.7348 25 17 25H23C23.2652 25 23.5196 25.1054 23.7071 25.2929C23.8946 25.4804 24 25.7348 24 26V28.46L21.45 30.17C21.3355 30.2442 21.2374 30.341 21.1618 30.4545C21.0861 30.568 21.0344 30.6958 21.01 30.83C20.9713 31.1016 21.0394 31.3776 21.2 31.6L23 34H17Z" fill="black"/>
</svg>
