<svg width="70" height="70" viewBox="0 0 70 70" fill="none" xmlns="http://www.w3.org/2000/svg">
<path d="M61.25 44.4916V39.375C61.25 36.3595 58.7967 33.9062 55.7812 33.9062H53.0348C54.0017 32.8606 54.8351 31.7013 55.5297 30.4434C55.9715 30.5594 56.4211 30.625 56.875 30.625C59.8904 30.625 62.3437 28.1717 62.3437 25.1562C62.3437 22.5006 60.4384 20.2858 57.925 19.7936C57.4984 10.3316 51.0332 3.14781 42.2712 2.27828C41.6806 2.21812 41.079 2.1875 40.4687 2.1875C39.8551 2.1875 39.2503 2.21812 38.6564 2.27828C29.8998 3.15219 23.439 10.3348 23.0125 19.7936C20.499 20.2858 18.5937 22.5006 18.5937 25.1562C18.5937 28.1717 21.047 30.625 24.0625 30.625C24.5164 30.625 24.9659 30.5594 25.4078 30.4434C26.1023 31.7002 26.9358 32.8595 27.9026 33.9062H25.1562C22.1408 33.9062 19.6875 36.3595 19.6875 39.375V44.4927C16.3778 46.002 14.0656 49.012 13.3678 52.5H3.28122C2.95966 52.5 2.6545 52.6411 2.44669 52.8872C2.23888 53.1333 2.15028 53.457 2.20278 53.7742L4.39028 66.8992C4.47778 67.4253 4.93388 67.8125 5.46872 67.8125H12.0312C12.5661 67.8125 13.0222 67.4253 13.1097 66.8981L14.432 58.9619C15.6143 60.713 17.5054 61.9412 19.6864 62.2562V62.3438C19.6864 65.3592 22.1397 67.8125 25.1551 67.8125H55.7801C58.7956 67.8125 61.2489 65.3592 61.2489 62.3438V62.2562C64.9534 61.7225 67.8114 58.5364 67.8114 54.6875C67.8125 50.2994 65.2367 46.3094 61.25 44.4916ZM11.1048 65.625H6.39513L4.57294 54.6875H12.9281L11.1048 65.625ZM60.1562 25.1562C60.1562 27.0834 58.4412 28.6442 56.5228 28.4167C56.6081 28.2045 56.6748 27.9836 56.7525 27.767C56.8334 27.5428 56.9176 27.3219 56.9898 27.0944C57.1637 26.5508 57.3179 25.9973 57.4459 25.4352C57.494 25.2252 57.529 25.0108 57.5706 24.7975C57.6636 24.3195 57.7434 23.8372 57.8025 23.3505C57.8298 23.1208 57.8506 22.89 57.8714 22.657C57.8889 22.4536 57.9195 22.2534 57.9315 22.0489C59.2233 22.4897 60.1562 23.7169 60.1562 25.1562ZM25.212 19.5103C25.2437 19.0302 25.2951 18.5577 25.3618 18.0928C25.3706 18.0327 25.3772 17.9725 25.3859 17.9123C25.4614 17.4223 25.5543 16.9411 25.667 16.4697C25.6736 16.4434 25.679 16.4183 25.6845 16.392C27.0298 10.8434 30.9017 6.60516 36.0084 5.03562C36.0697 5.01703 36.1331 5.005 36.1943 4.98641C36.5968 4.86828 37.0048 4.76109 37.4226 4.67688C37.6075 4.63969 37.8 4.62 37.9881 4.58938C38.2933 4.54016 38.5962 4.48438 38.909 4.45266C39.4198 4.40344 39.9404 4.375 40.4687 4.375C41.0123 4.375 41.5483 4.40234 42.0743 4.45594C42.0918 4.45812 42.1093 4.46141 42.1268 4.46359C47.8712 5.06953 52.4847 8.80469 54.5704 14.1673C54.5956 14.2341 54.6229 14.3008 54.6481 14.3686C54.7793 14.7186 54.892 15.0806 55.0014 15.4448C55.0615 15.6494 55.1239 15.8528 55.1775 16.0617C55.2365 16.2892 55.2847 16.5222 55.3361 16.7541C55.4082 17.092 55.4804 17.4311 55.534 17.7789C55.5515 17.8894 55.5636 18.0031 55.5789 18.1147C55.6412 18.5675 55.6937 19.0247 55.7243 19.4917C55.7243 19.4994 55.7243 19.5059 55.7254 19.5136C52.1172 20.2442 47.5398 18.5052 44.0475 15.0139C42.9515 13.9169 42.0076 12.6864 41.2431 11.3542C40.8537 10.675 39.7359 10.675 39.3465 11.3542C38.582 12.6864 37.6381 13.9169 36.5422 15.0139C33.192 18.363 28.7558 20.1272 25.2098 19.5803C25.2109 19.5573 25.2109 19.5344 25.212 19.5103ZM24.4147 28.4167C22.4951 28.6442 20.7812 27.0834 20.7812 25.1562C20.7812 23.7169 21.7142 22.4897 23.007 22.0489C23.019 22.2534 23.0497 22.4536 23.0672 22.657C23.0879 22.8889 23.1087 23.1208 23.1361 23.3505C23.1951 23.8372 23.275 24.3195 23.3679 24.7975C23.4095 25.0108 23.4445 25.2252 23.4926 25.4352C23.6206 25.9973 23.7748 26.5508 23.9487 27.0944C24.022 27.3219 24.1051 27.5439 24.1861 27.767C24.2637 27.9836 24.3304 28.2056 24.4147 28.4167ZM26.8089 28.4134C26.6415 28.0536 26.4961 27.6806 26.3539 27.3066C26.2718 27.0933 26.1822 26.8855 26.1089 26.6689C25.9514 26.1986 25.8223 25.7152 25.7031 25.2284C25.6681 25.0841 25.6211 24.9452 25.5893 24.7997C25.4679 24.2463 25.3815 23.6819 25.3115 23.1131C25.2995 23.0136 25.2765 22.9184 25.2656 22.8189C25.2284 22.4766 25.2273 22.1277 25.2098 21.782C29.4022 22.2939 34.3011 20.3481 38.0876 16.5605C38.9003 15.7478 39.6386 14.8684 40.2937 13.9355C40.9489 14.8695 41.6872 15.7478 42.5009 16.5605C45.9079 19.9675 50.1462 21.8717 53.9962 21.8717C54.5847 21.8717 55.1632 21.8236 55.7298 21.7328C55.7112 22.0948 55.709 22.4591 55.6707 22.8178C55.6598 22.9173 55.6379 23.0125 55.6248 23.112C55.5548 23.6808 55.4684 24.2452 55.347 24.7986C55.3153 24.9441 55.2683 25.083 55.2333 25.2273C55.114 25.7141 54.985 26.1975 54.8275 26.6678C54.7542 26.8855 54.6634 27.0933 54.5825 27.3055C54.4403 27.6795 54.2948 28.0525 54.1275 28.4123C53.1267 30.5539 51.7004 32.433 49.8881 33.9052H31.0483C29.237 32.4341 27.8097 30.5561 26.8089 28.4134ZM15.3125 54.6875C15.3125 51.5003 16.999 48.5702 19.6875 46.9536V60.0469C17.1948 59.5383 15.3125 57.3289 15.3125 54.6875ZM59.0625 62.3438C59.0625 64.1528 57.5903 65.625 55.7812 65.625H25.1562C23.3472 65.625 21.875 64.1528 21.875 62.3438V61.25V45.1937V39.375C21.875 37.5659 23.3472 36.0938 25.1562 36.0938H55.7812C57.5903 36.0938 59.0625 37.5659 59.0625 39.375V45.1937V61.25V62.3438ZM61.25 60.0458V46.9536C63.9384 48.5713 65.625 51.5003 65.625 54.6875C65.625 57.3289 63.7426 59.5383 61.25 60.0458Z" fill="black"/>
<path d="M33.9062 24.0625C32.0972 24.0625 30.625 25.5347 30.625 27.3438H32.8125C32.8125 26.74 33.3036 26.25 33.9062 26.25C34.5089 26.25 35 26.74 35 27.3438H37.1875C37.1875 25.5347 35.7153 24.0625 33.9062 24.0625Z" fill="black"/>
<path d="M47.0312 24.0625C45.2222 24.0625 43.75 25.5347 43.75 27.3438H45.9375C45.9375 26.74 46.4286 26.25 47.0312 26.25C47.6339 26.25 48.125 26.74 48.125 27.3438H50.3125C50.3125 25.5347 48.8403 24.0625 47.0312 24.0625Z" fill="black"/>
<path d="M3.28125 17.5H12.8669L17.0111 19.5727C17.1653 19.6492 17.3327 19.6875 17.5 19.6875C17.7002 19.6875 17.8992 19.6328 18.0753 19.5245C18.3969 19.3244 18.5938 18.9733 18.5938 18.5938V16.4062H19.6875C20.2913 16.4062 20.7812 15.9173 20.7812 15.3125V3.28125C20.7812 2.67641 20.2913 2.1875 19.6875 2.1875H3.28125C2.6775 2.1875 2.1875 2.67641 2.1875 3.28125V16.4062C2.1875 17.0111 2.6775 17.5 3.28125 17.5ZM4.375 4.375H18.5938V14.2188H17.5C16.8962 14.2188 16.4062 14.7077 16.4062 15.3125V16.8241L13.6139 15.4284C13.463 15.3519 13.2945 15.3125 13.125 15.3125H4.375V4.375Z" fill="black"/>
<path d="M8.75 6.5625H6.5625V8.75H8.75V6.5625Z" fill="black"/>
<path d="M16.4062 6.5625H10.9375V8.75H16.4062V6.5625Z" fill="black"/>
<path d="M16.4062 10.9375H6.5625V13.125H16.4062V10.9375Z" fill="black"/>
<path d="M52.1128 42.1652C51.7563 42.0952 51.3975 42.2134 51.1427 42.4671L47.5781 46.0316L45.8434 44.2969L49.408 40.7324C49.6617 40.4787 49.7744 40.1166 49.7109 39.7623C49.6464 39.409 49.4123 39.1093 49.0853 38.9627C47.5552 38.2704 45.8697 38.1008 44.217 38.4749C41.3689 39.1148 39.1147 41.369 38.4748 44.216C38.1598 45.616 38.232 47.0368 38.6805 48.3679L30.5309 56.5163C29.8955 57.1518 29.5312 58.0312 29.5312 58.9302C29.5312 60.8126 31.0625 62.3438 32.9448 62.3438C33.857 62.3438 34.7145 61.9894 35.3587 61.3441L43.5083 53.1957C44.8405 53.6441 46.2613 53.7185 47.658 53.4013C50.5061 52.7615 52.7603 50.5073 53.4002 47.6602C53.772 46.0043 53.6036 44.321 52.9123 42.7909C52.7647 42.4627 52.465 42.2287 52.1128 42.1652ZM51.2663 47.179C50.8178 49.1751 49.175 50.8179 47.1778 51.2663C45.99 51.5343 44.7847 51.414 43.6909 50.9196C43.2753 50.7315 42.7886 50.8223 42.467 51.1427L33.8122 59.7976C33.5803 60.0294 33.273 60.1563 32.9448 60.1563C32.2689 60.1563 31.7188 59.6062 31.7188 58.9302C31.7188 58.6076 31.85 58.2915 32.0775 58.0629L40.7323 49.408C41.0539 49.0865 41.1425 48.5987 40.9555 48.1841C40.4611 47.0904 40.3408 45.884 40.6087 44.6973C41.0572 42.7012 42.7 41.0584 44.6972 40.6099C45.1084 40.5169 45.523 40.471 45.9342 40.471C46.1388 40.471 46.3422 40.483 46.5434 40.5049L43.5236 43.5248C43.0959 43.9524 43.0959 44.6437 43.5236 45.0713L46.8048 48.3526C47.2325 48.7802 47.9237 48.7802 48.3514 48.3526L51.3712 45.3327C51.4391 45.9409 51.4052 46.5621 51.2663 47.179Z" fill="black"/>
</svg>
