<svg width="70" height="70" viewBox="0 0 70 70" fill="none" xmlns="http://www.w3.org/2000/svg">
<g clip-path="url(#clip0_1220_1845)">
<path d="M49.9919 0.319434C49.5642 -0.107129 48.873 -0.107129 48.4453 0.319434L18.9141 29.8507C18.7084 30.0563 18.5936 30.3352 18.5936 30.6251V49.8597L18.3705 50.0829C17.2877 51.1657 15.5245 51.1657 14.4417 50.0829L10.6562 46.2974C9.71891 45.3601 8.47312 44.8438 7.14859 44.8438C4.41312 44.8438 2.18734 47.0696 2.18734 49.8051C2.18734 51.1296 2.70359 52.3765 3.64094 53.3127L13.407 63.0788C13.9298 63.6016 14.2186 64.2983 14.2186 65.0388C14.2186 66.5679 12.9739 67.8126 11.4448 67.8126C10.7044 67.8126 10.0077 67.5238 9.48375 66.9999L1.86688 59.383L0.320312 60.9296L7.93719 68.5465C8.87453 69.4838 10.1203 70.0001 11.4448 70.0001C14.1803 70.0001 16.4061 67.7743 16.4061 65.0388C16.4061 63.7143 15.8898 62.4674 14.9525 61.5312L5.18641 51.7651C4.66359 51.2422 4.37484 50.5455 4.37484 49.8051C4.37484 48.276 5.61953 47.0313 7.14859 47.0313C7.88906 47.0313 8.58578 47.3201 9.10969 47.844L12.8952 51.6294C14.8311 53.5665 17.9811 53.5665 19.917 51.6294L20.1402 51.4063H39.3748C39.6658 51.4063 39.9436 51.2915 40.1492 51.0858L69.6805 21.5229C69.885 21.3172 69.9998 21.0383 69.9998 20.7485C69.9998 20.4576 69.8839 20.1797 69.6794 19.9752L49.9919 0.319434ZM55.8752 9.29693L51.4061 13.766L48.9528 11.3127L53.4219 6.84365L55.8752 9.29693ZM57.4217 10.8435L59.1564 12.5782L54.6873 17.0472L52.9527 15.3126L57.4217 10.8435ZM60.703 14.1247L63.5314 16.9532L59.0623 21.4222L56.2339 18.5938L60.703 14.1247ZM38.9209 49.2188H20.7811V31.0779L49.2186 2.64037L51.8775 5.2949L46.633 10.5394C46.2053 10.9671 46.2053 11.6583 46.633 12.086L58.2891 23.7421C58.5023 23.9554 58.7823 24.0626 59.0623 24.0626C59.3423 24.0626 59.6223 23.9554 59.8356 23.7421L65.0911 18.4866L67.3584 20.7507L38.9209 49.2188Z" fill="black"/>
<path d="M37.1327 38.2812L36.3594 37.5068C34.8665 36.0149 32.4383 36.0149 30.9454 37.5068C30.3055 38.1466 29.2643 38.1455 28.6244 37.5068L27.8512 36.7335C27.2113 36.0937 27.2113 35.0524 27.8512 34.4137C28.491 33.7749 29.5322 33.7738 30.1721 34.4137L30.5593 34.8008L32.1058 33.2543L31.7187 32.8671C30.4958 31.6465 28.654 31.4419 27.2047 32.2207L25.5324 30.5483L23.9858 32.0949L25.6582 33.7672C24.8794 35.2165 25.084 37.0594 26.3057 38.2812L27.079 39.0555C28.5719 40.5474 31.0001 40.5474 32.493 39.0555C33.1329 38.4157 34.1741 38.4168 34.814 39.0555L35.5872 39.8288C36.2271 40.4687 36.2271 41.5099 35.5872 42.1487C34.9485 42.7885 33.9072 42.7874 33.2663 42.1487L32.8791 41.7615L31.3326 43.308L31.7187 43.6952C32.4657 44.4412 33.4457 44.813 34.4257 44.813C35.0502 44.813 35.6693 44.6446 36.2337 44.3416L37.906 46.014L39.4526 44.4674L37.7802 42.7951C38.5579 41.3458 38.3544 39.5029 37.1327 38.2812Z" fill="black"/>
<path d="M44.789 30.6249L44.0157 29.8505C42.5227 28.3587 40.0946 28.3587 38.6016 29.8505C37.9618 30.4904 36.9205 30.4893 36.2807 29.8505L35.5074 29.0772C34.8676 28.4374 34.8676 27.3962 35.5074 26.7574C36.1462 26.1176 37.1874 26.1187 37.8283 26.7574L38.2155 27.1446L39.7621 25.598L39.3749 25.2108C38.1521 23.9902 36.3102 23.7857 34.861 24.5644L33.1887 22.8921L31.6421 24.4387L33.3144 26.111C32.5357 27.5602 32.7402 29.4032 33.9619 30.6249L34.7352 31.3993C36.2282 32.8912 38.6563 32.8912 40.1493 31.3993C40.7891 30.7594 41.8304 30.7605 42.4702 31.3993L43.2435 32.1726C43.8833 32.8124 43.8833 33.8537 43.2435 34.4924C42.6047 35.1322 41.5635 35.1312 40.9226 34.4924L40.5354 34.1052L38.9888 35.6518L39.3749 36.039C40.1219 36.7849 41.1019 37.1568 42.0819 37.1568C42.7065 37.1568 43.3255 36.9883 43.8899 36.6854L45.5622 38.3577L47.1088 36.8111L45.4365 35.1388C46.2141 33.6896 46.0107 31.8466 44.789 30.6249Z" fill="black"/>
<path d="M52.4452 22.9687L51.6719 22.1943C50.179 20.7024 47.7508 20.7024 46.2579 22.1943C45.618 22.8341 44.5768 22.833 43.9369 22.1943L43.1637 21.421C42.5238 20.7812 42.5238 19.7399 43.1637 19.1012C43.8024 18.4613 44.8437 18.4624 45.4846 19.1012L45.8718 19.4883L47.4183 17.9418L47.0312 17.5546C45.8083 16.334 43.9665 16.1294 42.5172 16.9082L40.8449 15.2358L39.2983 16.7824L40.9707 18.4547C40.1919 19.904 40.3965 21.7469 41.6182 22.9687L42.3915 23.743C43.8844 25.2349 46.3126 25.2349 47.8055 23.743C48.4454 23.1032 49.4866 23.1043 50.1265 23.743L50.8997 24.5163C51.5396 25.1562 51.5396 26.1974 50.8997 26.8362C50.2599 27.4749 49.2197 27.476 48.5788 26.8362L48.1916 26.449L46.6451 27.9955L47.0312 28.3827C47.7782 29.1287 48.7582 29.5005 49.7382 29.5005C50.3627 29.5005 50.9818 29.3321 51.5462 29.0291L53.2185 30.7015L54.7651 29.1549L53.0927 27.4826C53.8704 26.0333 53.6669 24.1904 52.4452 22.9687Z" fill="black"/>
<path d="M6.5625 13.125H4.375V15.3125H6.5625V13.125Z" fill="black"/>
<path d="M10.9375 13.125H8.75V15.3125H10.9375V13.125Z" fill="black"/>
<path d="M10.9375 8.75H8.75V10.9375H10.9375V8.75Z" fill="black"/>
<path d="M10.9375 17.5H8.75V19.6875H10.9375V17.5Z" fill="black"/>
<path d="M15.3125 13.125H13.125V15.3125H15.3125V13.125Z" fill="black"/>
<path d="M15.3125 8.75H13.125V10.9375H15.3125V8.75Z" fill="black"/>
<path d="M15.3125 4.375H13.125V6.5625H15.3125V4.375Z" fill="black"/>
<path d="M15.3125 17.5H13.125V19.6875H15.3125V17.5Z" fill="black"/>
<path d="M19.6875 8.75H17.5V10.9375H19.6875V8.75Z" fill="black"/>
<path d="M19.6875 4.375H17.5V6.5625H19.6875V4.375Z" fill="black"/>
<path d="M19.6875 0H17.5V2.1875H19.6875V0Z" fill="black"/>
<path d="M19.6875 13.125H17.5V15.3125H19.6875V13.125Z" fill="black"/>
<path d="M19.6875 17.5H17.5V19.6875H19.6875V17.5Z" fill="black"/>
<path d="M6.5625 17.5H4.375V19.6875H6.5625V17.5Z" fill="black"/>
<path d="M2.1875 17.5H0V19.6875H2.1875V17.5Z" fill="black"/>
<path d="M65.625 54.6875H63.4375V56.875H65.625V54.6875Z" fill="black"/>
<path d="M61.25 54.6875H59.0625V56.875H61.25V54.6875Z" fill="black"/>
<path d="M61.25 59.0625H59.0625V61.25H61.25V59.0625Z" fill="black"/>
<path d="M61.25 50.3125H59.0625V52.5H61.25V50.3125Z" fill="black"/>
<path d="M56.875 54.6875H54.6875V56.875H56.875V54.6875Z" fill="black"/>
<path d="M56.875 59.0625H54.6875V61.25H56.875V59.0625Z" fill="black"/>
<path d="M56.875 63.4375H54.6875V65.625H56.875V63.4375Z" fill="black"/>
<path d="M56.875 50.3125H54.6875V52.5H56.875V50.3125Z" fill="black"/>
<path d="M52.5 59.0625H50.3125V61.25H52.5V59.0625Z" fill="black"/>
<path d="M52.5 63.4375H50.3125V65.625H52.5V63.4375Z" fill="black"/>
<path d="M52.5 67.8125H50.3125V70H52.5V67.8125Z" fill="black"/>
<path d="M52.5 54.6875H50.3125V56.875H52.5V54.6875Z" fill="black"/>
<path d="M52.5 50.3125H50.3125V52.5H52.5V50.3125Z" fill="black"/>
<path d="M65.625 50.3125H63.4375V52.5H65.625V50.3125Z" fill="black"/>
<path d="M70 50.3125H67.8125V52.5H70V50.3125Z" fill="black"/>
</g>
<defs>
<clipPath id="clip0_1220_1845">
<rect width="70" height="70" fill="white"/>
</clipPath>
</defs>
</svg>
