<svg width="168" height="168" viewBox="0 0 168 168" fill="none" xmlns="http://www.w3.org/2000/svg">
<path d="M2 152C3.10457 152 4 151.105 4 150C4 148.895 3.10457 148 2 148C0.89543 148 0 148.895 0 150C0 151.105 0.89543 152 2 152Z" fill="black"/>
<path d="M11 148H8C7.46957 148 6.96086 148.211 6.58579 148.586C6.21071 148.961 6 149.47 6 150C6 150.53 6.21071 151.039 6.58579 151.414C6.96086 151.789 7.46957 152 8 152H11C11.5304 152 12.0391 151.789 12.4142 151.414C12.7893 151.039 13 150.53 13 150C13 149.47 12.7893 148.961 12.4142 148.586C12.0391 148.211 11.5304 148 11 148Z" fill="black"/>
<path d="M118.154 156H109.846C109.343 156.04 108.874 156.268 108.532 156.639C108.19 157.01 108 157.496 108 158C108 158.504 108.19 158.99 108.532 159.361C108.874 159.732 109.343 159.96 109.846 160H118.154C118.657 159.96 119.126 159.732 119.468 159.361C119.81 158.99 120 158.504 120 158C120 157.496 119.81 157.01 119.468 156.639C119.126 156.268 118.657 156.04 118.154 156ZM58.1539 156H49.8462C49.3434 156.04 48.8742 156.268 48.5321 156.639C48.19 157.01 48 157.496 48 158C48 158.504 48.19 158.99 48.5321 159.361C48.8742 159.732 49.3434 159.96 49.8462 160H58.1539C58.6567 159.96 59.1258 159.732 59.468 159.361C59.8101 158.99 60.0001 158.504 60.0001 158C60.0001 157.496 59.8101 157.01 59.468 156.639C59.1258 156.268 58.6567 156.04 58.1539 156V156ZM104 156H64C63.4696 156 62.9609 156.211 62.5858 156.586C62.2107 156.961 62 157.47 62 158C62 158.53 62.2107 159.039 62.5858 159.414C62.9609 159.789 63.4696 160 64 160H79.94V162H72C71.4696 162 70.9609 162.211 70.5858 162.586C70.2107 162.961 70 163.47 70 164C70 164.53 70.2107 165.039 70.5858 165.414C70.9609 165.789 71.4696 166 72 166H97C97.5305 166 98.0392 165.789 98.4142 165.414C98.7893 165.039 99 164.53 99 164C99 163.47 98.7893 162.961 98.4142 162.586C98.0392 162.211 97.5305 162 97 162H88.06V160H104C104.53 160 105.039 159.789 105.414 159.414C105.789 159.039 106 158.53 106 158C106 157.47 105.789 156.961 105.414 156.586C105.039 156.211 104.53 156 104 156Z" fill="#00CCFF"/>
<path d="M22.3386 50.4943C22.7284 51.8187 23.2584 53.0977 23.9197 54.3095C23.6515 55.0283 23.5955 55.8091 23.7586 56.5588C23.9216 57.3085 24.2968 57.9955 24.8394 58.5379L27.4622 61.1606C28.0045 61.7029 28.6913 62.0779 29.4408 62.2408C30.1903 62.4038 30.9708 62.3478 31.6893 62.0796C32.9015 62.7412 34.1809 63.2715 35.5057 63.6614C35.8244 64.3591 36.3369 64.9505 36.9822 65.3651C37.6275 65.7797 38.3784 66.0001 39.1455 66H42.8546C43.6216 66.0001 44.3725 65.7798 45.0178 65.3651C45.6632 64.9505 46.1757 64.3591 46.4943 63.6614C47.8191 63.2715 49.0985 62.7412 50.3107 62.0796C51.0292 62.3478 51.8098 62.4038 52.5592 62.2408C53.3087 62.0779 53.9956 61.7029 54.5379 61.1606L57.1606 58.5379C57.7032 57.9955 58.0784 57.3085 58.2415 56.5588C58.4045 55.8091 58.3486 55.0283 58.0803 54.3095C58.7416 53.0977 59.2717 51.8187 59.6614 50.4943C60.3591 50.1756 60.9505 49.6631 61.3651 49.0178C61.7798 48.3725 62.0001 47.6216 62 46.8545V43.1455C62.0001 42.3784 61.7797 41.6275 61.3651 40.9822C60.9505 40.3369 60.3591 39.8244 59.6614 39.5057C59.2717 38.1813 58.7416 36.9023 58.0803 35.6905C58.3486 34.9717 58.4045 34.1909 58.2415 33.4412C58.0784 32.6915 57.7032 32.0045 57.1606 31.4621L54.5379 28.8394C53.9952 28.2972 53.3082 27.9223 52.5586 27.7593C51.809 27.5962 51.0284 27.6519 50.3095 27.9197C49.0977 27.2584 47.8187 26.7284 46.4943 26.3386C46.1757 25.6409 45.6631 25.0495 45.0178 24.6349C44.3725 24.2202 43.6216 23.9999 42.8545 24H39.1455C38.3784 23.9999 37.6275 24.2203 36.9822 24.6349C36.3369 25.0495 35.8244 25.6409 35.5057 26.3386C34.1813 26.7284 32.9023 27.2584 31.6905 27.9197C30.9716 27.6519 30.191 27.5962 29.4414 27.7593C28.6918 27.9223 28.0048 28.2972 27.4622 28.8394L24.8394 31.4621C24.2968 32.0045 23.9216 32.6915 23.7586 33.4412C23.5955 34.1909 23.6515 34.9717 23.9198 35.6905C23.2584 36.9023 22.7284 38.1813 22.3386 39.5057C21.6409 39.8244 21.0495 40.3369 20.6349 40.9822C20.2203 41.6275 19.9999 42.3784 20 43.1455V46.8546C19.9999 47.6216 20.2203 48.3725 20.6349 49.0178C21.0495 49.6631 21.6409 50.1756 22.3386 50.4943V50.4943ZM24 43.1455H25.6602C25.9954 40.3416 27.0963 37.6843 28.8423 35.465L27.6679 34.2905L30.2906 31.6678L31.465 32.8422C33.6843 31.0963 36.3416 29.9953 39.1454 29.6601V28H42.8545V29.6601C45.6583 29.9953 48.3157 31.0963 50.535 32.8422L51.7094 31.6678L54.3322 34.2905L53.1577 35.465C54.9036 37.6843 56.0046 40.3416 56.3399 43.1454H58V46.8545H56.3399C56.0047 49.6584 54.9037 52.3157 53.1578 54.535L54.3322 55.7094L51.7095 58.3322L50.535 57.1577C48.3157 58.9036 45.6583 60.0046 42.8545 60.3398V62H39.1455V60.3398C36.3416 60.0046 33.6843 58.9037 31.465 57.1577L30.2906 58.3321L27.6678 55.7094L28.8423 54.535C27.0963 52.3157 25.9954 49.6584 25.6602 46.8546H24V43.1455Z" fill="black"/>
<path d="M41 55C42.9778 55 44.9112 54.4135 46.5557 53.3147C48.2002 52.2159 49.4819 50.6541 50.2388 48.8268C50.9957 46.9996 51.1937 44.9889 50.8079 43.0491C50.422 41.1093 49.4696 39.3275 48.0711 37.9289C46.6725 36.5304 44.8907 35.578 42.9509 35.1922C41.0111 34.8063 39.0004 35.0043 37.1732 35.7612C35.3459 36.5181 33.7841 37.7998 32.6853 39.4443C31.5865 41.0888 31 43.0222 31 45C31.003 47.6513 32.0575 50.1931 33.9322 52.0678C35.807 53.9425 38.3488 54.997 41 55ZM41 39C42.1867 39 43.3467 39.3519 44.3334 40.0112C45.3201 40.6705 46.0892 41.6075 46.5433 42.7039C46.9974 43.8003 47.1162 45.0067 46.8847 46.1705C46.6532 47.3344 46.0818 48.4035 45.2426 49.2426C44.4035 50.0818 43.3344 50.6532 42.1705 50.8847C41.0067 51.1162 39.8003 50.9974 38.7039 50.5433C37.6075 50.0892 36.6705 49.3201 36.0112 48.3334C35.3519 47.3467 35 46.1867 35 45C35 43.4087 35.6321 41.8826 36.7574 40.7574C37.8826 39.6321 39.4087 39 41 39Z" fill="#00CCFF"/>
<path d="M108.339 50.4943C108.728 51.8187 109.258 53.0977 109.92 54.3095C109.651 55.0283 109.596 55.8091 109.759 56.5588C109.922 57.3085 110.297 57.9955 110.839 58.5379L113.462 61.1606C114.004 61.7029 114.691 62.0779 115.441 62.2408C116.19 62.4038 116.971 62.3478 117.689 62.0796C118.902 62.7412 120.181 63.2715 121.506 63.6614C121.824 64.3591 122.337 64.9505 122.982 65.3651C123.628 65.7797 124.378 66.0001 125.145 66H128.855C129.622 66.0001 130.373 65.7798 131.018 65.3651C131.663 64.9505 132.176 64.3591 132.494 63.6614C133.819 63.2715 135.099 62.7412 136.311 62.0796C137.029 62.3478 137.81 62.4038 138.559 62.2408C139.309 62.0779 139.996 61.7029 140.538 61.1606L143.161 58.5379C143.703 57.9955 144.078 57.3085 144.241 56.5588C144.405 55.8091 144.349 55.0283 144.08 54.3095C144.742 53.0977 145.272 51.8187 145.661 50.4943C146.359 50.1756 146.951 49.6631 147.365 49.0178C147.78 48.3725 148 47.6216 148 46.8545V43.1455C148 42.3784 147.78 41.6275 147.365 40.9822C146.95 40.3369 146.359 39.8244 145.661 39.5057C145.272 38.1813 144.742 36.9023 144.08 35.6905C144.349 34.9717 144.405 34.1909 144.241 33.4412C144.078 32.6915 143.703 32.0045 143.161 31.4621L140.538 28.8394C139.995 28.2972 139.308 27.9223 138.559 27.7593C137.809 27.5962 137.028 27.6519 136.31 27.9197C135.098 27.2584 133.819 26.7284 132.494 26.3386C132.176 25.6409 131.663 25.0495 131.018 24.6349C130.373 24.2202 129.622 23.9999 128.855 24H125.145C124.378 23.9999 123.628 24.2203 122.982 24.6349C122.337 25.0495 121.824 25.6409 121.506 26.3386C120.181 26.7284 118.902 27.2584 117.69 27.9197C116.972 27.6519 116.191 27.5962 115.441 27.7593C114.692 27.9223 114.005 28.2972 113.462 28.8394L110.839 31.4621C110.297 32.0045 109.922 32.6915 109.759 33.4412C109.596 34.1909 109.651 34.9717 109.92 35.6905C109.258 36.9023 108.728 38.1813 108.339 39.5057C107.641 39.8244 107.05 40.3369 106.635 40.9822C106.22 41.6275 106 42.3784 106 43.1455V46.8546C106 47.6216 106.22 48.3725 106.635 49.0178C107.05 49.6631 107.641 50.1756 108.339 50.4943ZM110 43.1455H111.66C111.995 40.3417 113.096 37.6843 114.842 35.465L113.668 34.2905L116.291 31.6678L117.465 32.8422C119.684 31.0963 122.342 29.9953 125.145 29.6601V28H128.855V29.6601C131.658 29.9953 134.316 31.0963 136.535 32.8422L137.709 31.6678L140.332 34.2905L139.158 35.465C140.904 37.6843 142.005 40.3416 142.34 43.1455H144V46.8546H142.34C142.005 49.6584 140.904 52.3157 139.158 54.535L140.332 55.7094L137.709 58.3322L136.535 57.1577C134.316 58.9036 131.658 60.0046 128.855 60.3398V62H125.145V60.3398C122.342 60.0046 119.684 58.9037 117.465 57.1577L116.291 58.3321L113.668 55.7094L114.842 54.535C113.096 52.3157 111.995 49.6583 111.66 46.8545H110V43.1455Z" fill="black"/>
<path d="M127 55C128.978 55 130.911 54.4135 132.556 53.3147C134.2 52.2159 135.482 50.6541 136.239 48.8268C136.996 46.9996 137.194 44.9889 136.808 43.0491C136.422 41.1093 135.47 39.3275 134.071 37.9289C132.673 36.5304 130.891 35.578 128.951 35.1922C127.011 34.8063 125 35.0043 123.173 35.7612C121.346 36.5181 119.784 37.7998 118.685 39.4443C117.587 41.0888 117 43.0222 117 45C117.003 47.6513 118.058 50.1931 119.932 52.0678C121.807 53.9425 124.349 54.997 127 55ZM127 39C128.187 39 129.347 39.3519 130.333 40.0112C131.32 40.6705 132.089 41.6075 132.543 42.7039C132.997 43.8003 133.116 45.0067 132.885 46.1705C132.653 47.3344 132.082 48.4035 131.243 49.2426C130.404 50.0818 129.334 50.6532 128.171 50.8847C127.007 51.1162 125.8 50.9974 124.704 50.5433C123.608 50.0892 122.67 49.3201 122.011 48.3334C121.352 47.3467 121 46.1867 121 45C121 43.4087 121.632 41.8826 122.757 40.7574C123.883 39.6321 125.409 39 127 39V39ZM84 70C76.8799 70 69.9197 72.1114 63.9995 76.0671C58.0793 80.0228 53.4651 85.6453 50.7404 92.2234C48.0156 98.8015 47.3027 106.04 48.6917 113.023C50.0808 120.007 53.5095 126.421 58.5442 131.456C63.5789 136.491 69.9934 139.919 76.9768 141.308C83.9601 142.697 91.1985 141.984 97.7766 139.26C104.355 136.535 109.977 131.921 113.933 126.001C117.889 120.08 120 113.12 120 106C119.989 96.4555 116.193 87.3051 109.444 80.5561C102.695 73.8071 93.5445 70.0108 84 70V70ZM84 138C77.671 138 71.4841 136.123 66.2218 132.607C60.9594 129.091 56.8579 124.093 54.4359 118.246C52.0139 112.399 51.3802 105.965 52.6149 99.7571C53.8496 93.5497 56.8973 87.8479 61.3726 83.3726C65.8479 78.8973 71.5497 75.8496 77.7571 74.6149C83.9645 73.3801 90.3987 74.0139 96.2459 76.4359C102.093 78.8579 107.091 82.9594 110.607 88.2218C114.123 93.4841 116 99.671 116 106C116 114.487 112.629 122.626 106.627 128.627C100.626 134.629 92.4869 138 84 138Z" fill="#00CCFF"/>
<path d="M84.0593 88H84.0472C83.2263 88 82.4253 88.2526 81.7529 88.7234C81.0804 89.1943 80.5692 89.8607 80.2885 90.6321C75 105.164 75 106.225 75 107C75 109.387 75.9482 111.676 77.636 113.364C79.3239 115.052 81.6131 116 84 116C86.3869 116 88.6761 115.052 90.364 113.364C92.0518 111.676 93 109.387 93 107C93 106.274 93 105.176 87.8143 90.6548C87.5375 89.8798 87.0284 89.2089 86.3564 88.7338C85.6845 88.2587 84.8823 88.0025 84.0593 88ZM84 112C82.6739 112 81.4021 111.473 80.4645 110.536C79.5268 109.598 79 108.326 79 107C79 105.869 84.0472 92 84.0472 92C84.0472 92 89 105.869 89 107C89 108.326 88.4732 109.598 87.5355 110.536C86.5979 111.473 85.3261 112 84 112V112ZM160 148H157C156.47 148 155.961 148.211 155.586 148.586C155.211 148.961 155 149.47 155 150C155 150.53 155.211 151.039 155.586 151.414C155.961 151.789 156.47 152 157 152H160C160.53 152 161.039 151.789 161.414 151.414C161.789 151.039 162 150.53 162 150C162 149.47 161.789 148.961 161.414 148.586C161.039 148.211 160.53 148 160 148Z" fill="black"/>
<path d="M166 152C167.105 152 168 151.105 168 150C168 148.895 167.105 148 166 148C164.895 148 164 148.895 164 150C164 151.105 164.895 152 166 152Z" fill="black"/>
<path d="M150.721 148H102.726C111.88 143.922 119.451 136.965 124.288 128.189C129.125 119.412 130.963 109.296 129.522 99.3789C128.082 89.4618 123.442 80.2866 116.308 73.249C109.173 66.2114 99.9359 61.6965 90.0001 60.3912V56H96.0001C97.061 56 98.0784 55.5786 98.8286 54.8284C99.5787 54.0783 100 53.0609 100 52V48C100 46.9391 99.5787 45.9217 98.8286 45.1716C98.0784 44.4214 97.061 44 96.0001 44H72.0001C70.9393 44 69.9218 44.4214 69.1717 45.1716C68.4215 45.9217 68.0001 46.9391 68.0001 48V52C68.0001 53.0609 68.4215 54.0783 69.1717 54.8284C69.9218 55.5786 70.9393 56 72.0001 56H78.0001V60.3912C68.0643 61.6965 58.8268 66.2114 51.6927 73.249C44.5586 80.2866 39.9183 89.4618 38.4778 99.3789C37.0372 109.296 38.8752 119.412 43.7122 128.189C48.5492 136.965 56.1204 143.922 65.2741 148H17.2788C16.9943 147.963 16.7051 147.987 16.4306 148.07C16.156 148.154 15.9025 148.295 15.6868 148.484C15.4712 148.673 15.2984 148.907 15.1801 149.168C15.0617 149.429 15.0005 149.713 15.0005 150C15.0005 150.287 15.0617 150.571 15.1801 150.832C15.2984 151.093 15.4712 151.327 15.6868 151.516C15.9025 151.705 16.156 151.846 16.4306 151.93C16.7051 152.013 16.9943 152.037 17.2788 152H150.721C151.006 152.037 151.295 152.013 151.57 151.93C151.844 151.846 152.098 151.705 152.313 151.516C152.529 151.327 152.702 151.093 152.82 150.832C152.939 150.571 153 150.287 153 150C153 149.713 152.939 149.429 152.82 149.168C152.702 148.907 152.529 148.673 152.313 148.484C152.098 148.295 151.844 148.154 151.57 148.07C151.295 147.987 151.006 147.963 150.721 148ZM42.0001 106C42.0131 95.2113 46.1724 84.8403 53.6176 77.0323C61.0628 69.2243 71.2242 64.5767 82.0001 64.0507V52H72.0001V48H96.0001V52H86.0001V64.0507C94.2121 64.4425 102.129 67.2359 108.768 72.0846C115.407 76.9332 120.477 83.6239 123.35 91.3271C126.223 99.0302 126.771 107.407 124.928 115.419C123.084 123.431 118.93 130.726 112.979 136.399C107.029 142.072 99.5443 145.874 91.4535 147.333C83.3627 148.792 75.0216 147.845 67.4641 144.608C59.9067 141.372 53.4655 135.988 48.939 129.125C44.4125 122.262 41.9998 114.221 42.0001 106V106ZM68.3048 8C68.8982 8 69.4782 7.82405 69.9715 7.49441C70.4649 7.16477 70.8494 6.69623 71.0765 6.14805C71.3035 5.59987 71.3629 4.99667 71.2472 4.41473C71.1314 3.83279 70.8457 3.29824 70.4262 2.87868C70.0066 2.45912 69.472 2.1734 68.8901 2.05765C68.3082 1.94189 67.705 2.0013 67.1568 2.22836C66.6086 2.45543 66.1401 2.83994 65.8104 3.33329C65.4808 3.82664 65.3048 4.40666 65.3048 5C65.3057 5.79537 65.6221 6.5579 66.1845 7.12032C66.7469 7.68273 67.5095 7.99909 68.3048 8ZM68.3048 3.5C68.6015 3.5 68.8915 3.58798 69.1382 3.7528C69.3849 3.91762 69.5771 4.15189 69.6907 4.42598C69.8042 4.70007 69.8339 5.00167 69.776 5.29264C69.7181 5.58361 69.5753 5.85088 69.3655 6.06066C69.1557 6.27044 68.8884 6.4133 68.5975 6.47118C68.3065 6.52906 68.0049 6.49935 67.7308 6.38582C67.4567 6.27229 67.2224 6.08003 67.0576 5.83336C66.8928 5.58668 66.8048 5.29667 66.8048 5C66.8052 4.6023 66.9634 4.22099 67.2446 3.93977C67.5258 3.65855 67.9071 3.50039 68.3048 3.5ZM149.857 22C149.461 22 149.074 22.1173 148.745 22.3371C148.416 22.5568 148.16 22.8692 148.009 23.2346C147.857 23.6001 147.818 24.0022 147.895 24.3902C147.972 24.7781 148.163 25.1345 148.442 25.4142C148.722 25.6939 149.078 25.8844 149.466 25.9616C149.854 26.0387 150.256 25.9991 150.622 25.8478C150.987 25.6964 151.3 25.44 151.519 25.1111C151.739 24.7822 151.857 24.3956 151.857 24C151.856 23.4698 151.645 22.9614 151.27 22.5865C150.895 22.2115 150.387 22.0006 149.857 22ZM149.857 25C149.659 25 149.465 24.9414 149.301 24.8315C149.136 24.7216 149.008 24.5654 148.933 24.3827C148.857 24.2 148.837 23.9989 148.876 23.8049C148.914 23.6109 149.01 23.4327 149.149 23.2929C149.289 23.153 149.467 23.0578 149.661 23.0192C149.855 22.9806 150.056 23.0004 150.239 23.0761C150.422 23.1518 150.578 23.28 150.688 23.4444C150.798 23.6089 150.857 23.8022 150.857 24C150.856 24.2651 150.751 24.5193 150.563 24.7068C150.376 24.8943 150.122 24.9997 149.857 25V25ZM108 10C107.605 10 107.218 10.1173 106.889 10.3371C106.56 10.5568 106.304 10.8692 106.152 11.2346C106.001 11.6001 105.961 12.0022 106.039 12.3902C106.116 12.7781 106.306 13.1345 106.586 13.4142C106.866 13.6939 107.222 13.8844 107.61 13.9616C107.998 14.0387 108.4 13.9991 108.765 13.8478C109.131 13.6964 109.443 13.44 109.663 13.1111C109.883 12.7822 110 12.3956 110 12C110 11.4698 109.789 10.9614 109.414 10.5865C109.039 10.2115 108.53 10.0006 108 10V10ZM108 13C107.802 13 107.609 12.9414 107.445 12.8315C107.28 12.7216 107.152 12.5654 107.076 12.3827C107.001 12.2 106.981 11.9989 107.019 11.8049C107.058 11.6109 107.153 11.4327 107.293 11.2929C107.433 11.153 107.611 11.0578 107.805 11.0192C107.999 10.9806 108.2 11.0004 108.383 11.0761C108.566 11.1518 108.722 11.28 108.832 11.4444C108.941 11.6089 109 11.8022 109 12C109 12.2651 108.894 12.5193 108.707 12.7068C108.519 12.8943 108.265 12.9997 108 13V13ZM160.305 3C159.909 3 159.523 3.1173 159.194 3.33706C158.865 3.55682 158.608 3.86918 158.457 4.23463C158.306 4.60009 158.266 5.00222 158.343 5.39018C158.42 5.77814 158.611 6.13451 158.891 6.41422C159.17 6.69392 159.527 6.8844 159.915 6.96157C160.303 7.03874 160.705 6.99914 161.07 6.84776C161.436 6.69639 161.748 6.44004 161.968 6.11114C162.188 5.78224 162.305 5.39556 162.305 5C162.304 4.46975 162.093 3.9614 161.718 3.58646C161.343 3.21152 160.835 3.00061 160.305 3V3ZM160.305 6C160.107 6 159.914 5.94135 159.749 5.83147C159.585 5.72159 159.457 5.56541 159.381 5.38268C159.305 5.19996 159.285 4.99889 159.324 4.80491C159.363 4.61093 159.458 4.43275 159.598 4.29289C159.738 4.15304 159.916 4.0578 160.11 4.01922C160.304 3.98063 160.505 4.00043 160.688 4.07612C160.87 4.15181 161.026 4.27998 161.136 4.44443C161.246 4.60888 161.305 4.80222 161.305 5C161.305 5.26514 161.199 5.51934 161.012 5.70682C160.824 5.89429 160.57 5.99974 160.305 6ZM39.0001 17.4812C39.0001 17.0856 38.8828 16.6989 38.6631 16.37C38.4433 16.0411 38.1309 15.7848 37.7655 15.6334C37.4 15.482 36.9979 15.4424 36.6099 15.5196C36.222 15.5968 35.8656 15.7872 35.5859 16.0669C35.3062 16.3467 35.1157 16.703 35.0385 17.091C34.9614 17.4789 35.001 17.8811 35.1524 18.2465C35.3037 18.612 35.5601 18.9243 35.889 19.1441C36.2179 19.3639 36.6046 19.4812 37.0001 19.4812C37.5304 19.4806 38.0387 19.2696 38.4137 18.8947C38.7886 18.5198 38.9995 18.0114 39.0001 17.4812V17.4812ZM36.0001 17.4812C36.0001 17.2834 36.0588 17.09 36.1686 16.9256C36.2785 16.7611 36.4347 16.633 36.6174 16.5573C36.8002 16.4816 37.0012 16.4618 37.1952 16.5004C37.3892 16.539 37.5674 16.6342 37.7072 16.7741C37.8471 16.9139 37.9423 17.0921 37.9809 17.2861C38.0195 17.4801 37.9997 17.6811 37.924 17.8638C37.8483 18.0466 37.7201 18.2028 37.5557 18.3126C37.3912 18.4225 37.1979 18.4812 37.0001 18.4812C36.735 18.4809 36.4808 18.3755 36.2933 18.188C36.1058 18.0005 36.0004 17.7463 36.0001 17.4812V17.4812Z" fill="black"/>
<path d="M10.8878 40.7487L12.3748 38.7937L11.4358 38.2617L10.4808 40.4517H10.4498L9.47982 38.2767L8.52482 38.8247L9.99582 40.7337V40.7647L7.69482 40.4677V41.5317L10.0108 41.2347V41.2657L8.52482 43.1737L9.41582 43.7377L10.4338 41.5317H10.4648L11.4038 43.7217L12.3898 43.1587L10.8878 41.2807V41.2497L13.2498 41.5317V40.4677L10.8878 40.7807V40.7487Z" fill="#00CCFF"/>
<path d="M9.23388 11.1529L8.37788 12.2519L8.89188 12.5769L9.47788 11.3059H9.49588L10.0359 12.5679L10.6039 12.2429L9.73888 11.1619V11.1439L11.0989 11.3059V10.6939L9.73888 10.8739V10.8559L10.5949 9.72985L10.0549 9.42285L9.50488 10.6839H9.48688L8.92888 9.43185L8.37788 9.74685L9.22588 10.8469V10.8649L7.90088 10.6939V11.3059L9.23388 11.1349V11.1529Z" fill="#00CCFF"/>
<path d="M164.029 55.5215V54.4785L161.712 54.7855V54.7545L163.17 52.8365L162.249 52.3145L161.313 54.4625H161.282L160.331 52.3295L159.394 52.8675L160.837 54.7395V54.7705L158.581 54.4785V55.5215L160.852 55.2305V55.2615L159.394 57.1335L160.269 57.6865L161.267 55.5215H161.297L162.218 57.6705L163.185 57.1185L161.712 55.2765V55.2455L164.029 55.5215Z" fill="#00CCFF"/>
<path d="M90.3509 30.105L91.6089 28.45L90.8149 28L90.0079 29.853H89.9809L89.1599 28.013L88.3519 28.476L89.5969 30.092V30.118L87.6499 29.866V30.767L89.6099 30.515V30.542L88.3519 32.156L89.1059 32.633L89.9679 30.767H89.9939L90.7879 32.62L91.6219 32.143L90.3509 30.555V30.528L92.3499 30.767V29.866L90.3509 30.131V30.105Z" fill="#00CCFF"/>
</svg>
