<?xml version="1.0" encoding="utf-8"?>
<!-- Generator: Adobe Illustrator 22.0.1, SVG Export Plug-In . SVG Version: 6.00 Build 0)  -->
<svg version="1.1" id="Layer_1" xmlns="http://www.w3.org/2000/svg" xmlns:xlink="http://www.w3.org/1999/xlink" x="0px" y="0px"
	 width="120.7px" height="23.4px" viewBox="0 0 120.7 23.4" style="enable-background:new 0 0 120.7 23.4;" xml:space="preserve">
<style type="text/css">
	.st0{fill:#1877F2;}
</style>
<g>
	<path class="st0" d="M9.5,3.7c-1.4,0-1.8,0.6-1.8,2V8h3.8L11,11.7H7.6V23H3.1V11.7H0V8h3.1V5.8C3.1,2,4.6,0,8.8,0
		c0.9,0,1.8,0.1,2.7,0.2v3.5"/>
	<path class="st0" d="M11.7,15c0-4.2,2-7.4,6.2-7.4c2.3,0,3.7,1.2,4.3,2.6V8h4.4v15h-4.4v-2.3c-0.6,1.4-2.1,2.6-4.3,2.6
		c-4.2,0-6.2-3.1-6.2-7.4 M16.3,16c0,2.2,0.8,3.7,2.9,3.7c1.9,0,2.8-1.4,2.8-3.5v-1.5c0-2.2-1-3.5-2.8-3.5c-2.1,0-2.9,1.5-2.9,3.7
		V16z"/>
	<path class="st0" d="M36,7.7c1.8,0,3.5,0.4,4.4,1l-1,3.2c-0.9-0.5-2-0.7-3-0.7c-2.5,0-3.5,1.4-3.5,3.8V16c0,2.4,1.1,3.8,3.5,3.8
		c1,0,2.1-0.3,3-0.7l1,3.2c-0.9,0.6-2.6,1-4.4,1c-5.4,0-7.8-2.9-7.8-7.5v-0.7C28.3,10.6,30.7,7.7,36,7.7"/>
	<path class="st0" d="M41,16.1v-1.3c0-4.3,2.4-7.1,7.4-7.1c4.7,0,6.7,2.8,6.7,7v2.4h-9.6c0.1,2.1,1,3,3.5,3c1.6,0,3.3-0.3,4.8-0.9
		l0.8,3.1c-1.2,0.6-3.7,1.1-5.8,1.1C43.1,23.3,41,20.5,41,16.1 M45.5,14.1H51v-0.4c0-1.6-0.7-2.9-2.7-2.9
		C46.3,10.8,45.5,12.1,45.5,14.1"/>
	<path class="st0" d="M72,16c0,4.2-2,7.4-6.2,7.4c-2.3,0-3.8-1.1-4.5-2.6V23H57V0.5l4.6-0.4v10c0.7-1.3,2.1-2.4,4.2-2.4
		c4.2,0,6.2,3.1,6.2,7.4 M67.4,14.9c0-2.1-0.8-3.7-3-3.7c-1.9,0-2.9,1.3-2.9,3.5v1.6c0,2.2,1,3.5,2.9,3.5c2.2,0,3-1.6,3-3.7V14.9z"
		/>
	<path class="st0" d="M73.5,15.9v-0.8c0-4.3,2.5-7.4,7.5-7.4c5,0,7.5,3.1,7.5,7.4v0.8c0,4.3-2.5,7.4-7.5,7.4
		C75.9,23.3,73.5,20.2,73.5,15.9 M83.9,14.8c0-2-0.8-3.6-2.9-3.6c-2.1,0-2.9,1.6-2.9,3.6v1.4c0,2,0.8,3.6,2.9,3.6
		c2.1,0,2.9-1.6,2.9-3.6V14.8z"/>
	<path class="st0" d="M90,15.9v-0.8c0-4.3,2.5-7.4,7.5-7.4c5,0,7.5,3.1,7.5,7.4v0.8c0,4.3-2.5,7.4-7.5,7.4
		C92.4,23.3,90,20.2,90,15.9 M100.4,14.8c0-2-0.8-3.6-2.9-3.6c-2.1,0-2.9,1.6-2.9,3.6v1.4c0,2,0.8,3.6,2.9,3.6
		c2.1,0,2.9-1.6,2.9-3.6V14.8z"/>
	<polyline class="st0" points="111.2,15.2 115.7,8 120.5,8 115.8,15.4 120.7,23 115.8,23 111.2,15.7 111.2,23 106.6,23 106.6,0.5 
		111.2,0 	"/>
</g>
</svg>
