<svg width="100" height="100" viewBox="0 0 100 100" fill="none" xmlns="http://www.w3.org/2000/svg">
<path d="M83.611 19.75H76.889C75.961 19.75 75.208 20.502 75.208 21.43C75.208 22.358 75.96 23.111 76.889 23.111H83.611C85.465 23.111 86.972 24.619 86.972 26.472V66.805H13.028V26.472C13.028 24.618 14.535 23.111 16.389 23.111H23.111C24.039 23.111 24.791 22.359 24.791 21.43C24.791 20.502 24.039 19.75 23.111 19.75H16.389C12.683 19.75 9.66602 22.766 9.66602 26.472V68.486V76.889C9.66602 80.586 12.691 83.611 16.389 83.611H41.597V86.972H34.875C33.947 86.972 33.194 87.724 33.194 88.653C33.194 89.581 33.946 90.333 34.875 90.333H43.278H56.722H65.125C66.053 90.333 66.805 89.581 66.805 88.653C66.805 87.725 66.053 86.972 65.125 86.972H58.403V83.611H79.763C80.704 83.611 81.443 82.854 81.443 81.93C81.443 81.006 80.704 80.25 79.763 80.25H56.722H43.278H16.389C14.54 80.25 13.028 78.737 13.028 76.889V70.166H86.972V75.208C86.972 76.132 87.728 76.889 88.653 76.889C89.577 76.889 90.333 76.132 90.333 75.208V68.486V26.472C90.333 22.766 87.318 19.75 83.611 19.75ZM55.042 86.972H44.958V83.611H55.041V86.972H55.042ZM87.745 80.217C88.249 81.006 88.031 82.049 87.241 82.536C86.973 82.721 86.654 82.805 86.333 82.805C85.762 82.805 85.224 82.519 84.922 82.032C84.87 81.953 84.831 81.869 84.795 81.786C84.477 81.05 84.732 80.166 85.426 79.712C86.104 79.275 87.035 79.423 87.573 80.002C87.635 80.069 87.695 80.138 87.745 80.217ZM51.681 73.528C52.609 73.528 53.362 74.28 53.362 75.208C53.362 76.136 52.61 76.889 51.681 76.889H48.32C47.392 76.889 46.64 76.137 46.64 75.208C46.64 74.28 47.392 73.528 48.32 73.528H51.681ZM34.875 51.681C34.847 51.681 34.822 51.688 34.795 51.689C34.747 51.691 34.701 51.697 34.655 51.703C34.575 51.713 34.497 51.729 34.419 51.751C34.394 51.758 34.368 51.758 34.344 51.766L24.26 55.128C23.574 55.357 23.111 55.999 23.111 56.723C23.111 57.447 23.574 58.089 24.26 58.317L34.343 61.678C34.383 61.691 34.423 61.697 34.464 61.708C34.499 61.717 34.534 61.727 34.57 61.734C34.669 61.752 34.771 61.765 34.876 61.765H71.848C74.628 61.765 76.89 59.503 76.89 56.723C76.89 53.943 74.628 51.681 71.848 51.681H34.875ZM71.847 58.403H36.556V55.041H71.848C72.774 55.041 73.529 55.796 73.529 56.722C73.529 57.648 72.774 58.403 71.847 58.403ZM33.194 55.693V57.752L30.105 56.722L33.194 55.693ZM18.069 43.278C18.069 46.748 24.515 48.319 26.472 48.319C27.249 48.319 27.983 48.137 28.641 47.822C28.946 48.129 29.367 48.319 29.833 48.319H38.236H75.208C77.988 48.319 80.25 46.057 80.25 43.278C80.25 40.498 77.988 38.236 75.208 38.236H38.236H29.833C29.367 38.236 28.945 38.426 28.641 38.733C27.983 38.418 27.249 38.236 26.472 38.236C24.515 38.236 18.069 39.808 18.069 43.278ZM26.472 41.597C27.398 41.597 28.153 42.351 28.153 43.278C28.153 44.204 27.398 44.958 26.472 44.958C25.084 44.958 22.378 43.998 21.573 43.278C22.379 42.558 25.085 41.597 26.472 41.597ZM31.514 41.597H36.555V44.958H31.514V43.278V41.597ZM76.889 43.278C76.889 44.204 76.135 44.958 75.208 44.958H39.917V41.597H75.209C76.135 41.597 76.889 42.351 76.889 43.278ZM33.194 19.75V18.069C33.194 17.141 33.946 16.389 34.875 16.389C35.803 16.389 36.555 17.141 36.555 18.069V19.75C36.555 20.678 35.803 21.43 34.875 21.43C33.947 21.431 33.194 20.678 33.194 19.75ZM28.153 23.111C28.153 22.183 28.905 21.43 29.833 21.43H31.514C32.442 21.43 33.194 22.183 33.194 23.111C33.194 24.039 32.442 24.791 31.514 24.791H29.833C28.906 24.792 28.153 24.039 28.153 23.111ZM36.556 26.472V28.153C36.556 29.081 35.804 29.833 34.876 29.833C33.948 29.833 33.195 29.081 33.195 28.153V26.472C33.195 25.544 33.947 24.791 34.876 24.791C35.803 24.792 36.556 25.545 36.556 26.472ZM36.556 23.111C36.556 22.183 37.309 21.43 38.237 21.43H39.917C40.845 21.43 41.598 22.183 41.598 23.111C41.598 24.039 40.846 24.791 39.917 24.791H38.237C37.308 24.792 36.556 24.039 36.556 23.111ZM51.681 13.028V11.347C51.681 10.419 52.434 9.66602 53.362 9.66602C54.29 9.66602 55.042 10.419 55.042 11.347V13.028C55.042 13.956 54.29 14.708 53.362 14.708C52.433 14.708 51.681 13.956 51.681 13.028ZM46.639 16.389C46.639 15.461 47.391 14.708 48.319 14.708H50C50.928 14.708 51.68 15.46 51.68 16.389C51.68 17.317 50.928 18.069 50 18.069H48.319C47.392 18.069 46.639 17.317 46.639 16.389ZM55.042 19.75V21.43C55.042 22.358 54.29 23.111 53.362 23.111C52.434 23.111 51.681 22.359 51.681 21.43V19.75C51.681 18.822 52.434 18.069 53.362 18.069C54.289 18.069 55.042 18.822 55.042 19.75ZM55.042 16.389C55.042 15.461 55.795 14.708 56.723 14.708H58.404C59.332 14.708 60.084 15.46 60.084 16.389C60.084 17.317 59.332 18.069 58.404 18.069H56.723C55.794 18.069 55.042 17.317 55.042 16.389ZM66.805 24.792V23.112C66.805 22.184 67.558 21.431 68.486 21.431C69.414 21.431 70.166 22.184 70.166 23.112V24.792C70.166 25.72 69.414 26.473 68.486 26.473C67.559 26.472 66.805 25.72 66.805 24.792ZM61.764 28.153C61.764 27.225 62.516 26.472 63.444 26.472H65.125C66.053 26.472 66.805 27.224 66.805 28.153C66.805 29.081 66.053 29.833 65.125 29.833H63.444C62.517 29.833 61.764 29.081 61.764 28.153ZM70.167 31.514V33.194C70.167 34.122 69.415 34.875 68.487 34.875C67.559 34.875 66.806 34.123 66.806 33.194V31.514C66.806 30.586 67.559 29.833 68.487 29.833C69.414 29.833 70.167 30.586 70.167 31.514ZM70.167 28.153C70.167 27.225 70.92 26.472 71.848 26.472H73.529C74.457 26.472 75.209 27.224 75.209 28.153C75.209 29.081 74.457 29.833 73.529 29.833H71.848C70.92 29.833 70.167 29.081 70.167 28.153Z" fill="black"/>
</svg>
