<svg width="100" height="100" viewBox="0 0 100 100" fill="none" xmlns="http://www.w3.org/2000/svg">
<path d="M51.3237 17.7939C51.0296 17.3527 50.5884 17.0586 50.0002 17.0586C49.412 17.0586 48.9708 17.3527 48.6767 17.7939C37.9414 38.9704 38.8237 37.3527 38.8237 37.6468V93.3821C38.8237 96.1762 41.1767 98.5292 43.9708 98.5292H56.0296C58.8237 98.5292 61.1767 96.1762 61.1767 93.3821C61.1767 33.8233 61.3237 37.3527 60.8826 36.7645L51.3237 17.7939ZM50.0002 21.7645L53.2355 28.088C51.1767 28.8233 48.8237 28.8233 46.7649 28.088L50.0002 21.7645ZM45.4414 30.7351C48.3826 31.7645 51.6179 31.7645 54.559 30.7351L57.3531 36.1762H42.6473L45.4414 30.7351ZM41.7649 39.1174H48.5296V81.6174H41.7649V39.1174ZM58.2355 93.3821C58.2355 94.5586 57.2061 95.588 56.0296 95.588H43.9708C42.7943 95.588 41.7649 94.5586 41.7649 93.3821V84.5586H58.2355V93.3821ZM58.2355 81.6174H51.4708V39.1174H58.2355V81.6174Z" fill="black"/>
<path d="M82.2058 13.5295C85.5882 13.5295 88.2352 10.8825 88.2352 7.50011C88.2352 4.11776 85.5882 1.4707 82.2058 1.4707C79.4117 1.4707 77.2058 3.38247 76.4705 6.02953H56.0294V2.94129C56.0294 2.05894 55.4411 1.4707 54.5588 1.4707H45.5882C44.7058 1.4707 44.1176 2.05894 44.1176 2.94129V6.02953H23.5294C22.7941 3.38247 20.5882 1.4707 17.647 1.4707C14.4117 1.4707 11.7646 4.11776 11.7646 7.50011C11.7646 10.7354 14.4117 13.5295 17.647 13.5295C20.4411 13.5295 22.7941 11.6178 23.3823 8.9707H36.1764C26.1764 13.3825 18.6764 22.6472 16.6176 33.8236H13.2352C12.3529 33.8236 11.7646 34.4119 11.7646 35.2942V44.2648C11.7646 45.1472 12.3529 45.7354 13.2352 45.7354H22.3529C23.2352 45.7354 23.8235 45.1472 23.8235 44.2648V35.2942C23.8235 34.4119 23.2352 33.8236 22.3529 33.8236H19.8529C22.2058 21.6178 31.9117 12.0589 44.1176 9.55894V12.0589C44.1176 12.9413 44.7058 13.5295 45.5882 13.5295H54.5588C55.4411 13.5295 56.0294 12.9413 56.0294 12.0589V9.55894C68.2352 11.9119 77.7941 21.6178 80.2941 33.8236H77.7941C76.9117 33.8236 76.3235 34.4119 76.3235 35.2942V44.2648C76.3235 45.1472 76.9117 45.7354 77.7941 45.7354H86.7646C87.647 45.7354 88.2352 45.1472 88.2352 44.2648V35.2942C88.2352 34.4119 87.647 33.8236 86.7646 33.8236H83.0882C81.0294 22.6472 73.6764 13.5295 63.5294 8.9707H76.4705C77.2058 11.4707 79.4117 13.5295 82.2058 13.5295ZM82.3529 4.41188C83.9705 4.41188 85.2941 5.73541 85.2941 7.50011C85.2941 9.11776 83.9705 10.5883 82.2058 10.5883C80.5882 10.5883 79.1176 9.26482 79.1176 7.50011C79.2646 5.73541 80.5882 4.41188 82.3529 4.41188ZM17.7941 10.5883C16.0294 10.5883 14.7058 9.26482 14.7058 7.50011C14.7058 5.73541 16.0294 4.41188 17.7941 4.41188C19.4117 4.41188 20.8823 5.73541 20.8823 7.50011C20.7352 9.11776 19.4117 10.5883 17.7941 10.5883ZM20.7352 36.7648V42.7942H14.7058V36.7648H20.7352ZM53.0882 10.5883H47.0588V4.41188H53.0882V10.5883ZM85.2941 36.7648V42.7942H79.1176V36.7648H85.2941Z" fill="black"/>
</svg>
