<svg width="168" height="168" viewBox="0 0 168 168" fill="none" xmlns="http://www.w3.org/2000/svg">
<path d="M7.69531 29.8597C8.28866 29.8597 8.86868 29.6838 9.36202 29.3541C9.85537 29.0245 10.2399 28.556 10.467 28.0078C10.694 27.4596 10.7534 26.8564 10.6377 26.2745C10.5219 25.6925 10.2362 25.158 9.81663 24.7384C9.39708 24.3188 8.86253 24.0331 8.28058 23.9174C7.69864 23.8016 7.09544 23.861 6.54726 24.0881C5.99908 24.3151 5.53055 24.6997 5.2009 25.193C4.87126 25.6864 4.69531 26.2664 4.69531 26.8597C4.69622 27.6551 5.01259 28.4176 5.575 28.98C6.13741 29.5425 6.89994 29.8588 7.69531 29.8597V29.8597ZM7.69531 25.3597C7.99198 25.3597 8.28199 25.4477 8.52867 25.6125C8.77534 25.7773 8.9676 26.0116 9.08113 26.2857C9.19466 26.5598 9.22437 26.8614 9.16649 27.1524C9.10861 27.4433 8.96575 27.7106 8.75597 27.9204C8.54619 28.1302 8.27892 28.273 7.98795 28.3309C7.69698 28.3888 7.39538 28.3591 7.12129 28.2455C6.8472 28.132 6.61293 27.9398 6.44811 27.6931C6.28329 27.4464 6.19531 27.1564 6.19531 26.8597C6.1957 26.462 6.35387 26.0807 6.63509 25.7995C6.9163 25.5183 7.29761 25.3601 7.69531 25.3597V25.3597ZM162 46.6286C161.604 46.6286 161.218 46.7459 160.889 46.9656C160.56 47.1854 160.304 47.4978 160.152 47.8632C160.001 48.2287 159.961 48.6308 160.038 49.0188C160.116 49.4067 160.306 49.7631 160.586 50.0428C160.866 50.3225 161.222 50.513 161.61 50.5901C161.998 50.6673 162.4 50.6277 162.765 50.4763C163.131 50.325 163.443 50.0686 163.663 49.7397C163.883 49.4108 164 49.0241 164 48.6286C163.999 48.0983 163.789 47.59 163.414 47.215C163.039 46.8401 162.53 46.6292 162 46.6286V46.6286ZM162 49.6286C161.802 49.6286 161.609 49.5699 161.444 49.46C161.28 49.3502 161.152 49.194 161.076 49.0113C161 48.8285 160.981 48.6275 161.019 48.4335C161.058 48.2395 161.153 48.0613 161.293 47.9215C161.433 47.7816 161.611 47.6864 161.805 47.6478C161.999 47.6092 162.2 47.629 162.383 47.7047C162.565 47.7804 162.722 47.9086 162.831 48.073C162.941 48.2375 163 48.4308 163 48.6286C163 48.8937 162.894 49.1479 162.707 49.3354C162.519 49.5229 162.265 49.6283 162 49.6286ZM52.541 23.3597C52.1454 23.3597 51.7587 23.477 51.4298 23.6968C51.1009 23.9165 50.8446 24.2289 50.6932 24.5944C50.5418 24.9598 50.5022 25.3619 50.5794 25.7499C50.6566 26.1379 50.847 26.4942 51.1268 26.7739C51.4065 27.0536 51.7628 27.2441 52.1508 27.3213C52.5387 27.3985 52.9409 27.3589 53.3063 27.2075C53.6718 27.0561 53.9841 26.7998 54.2039 26.4709C54.4237 26.142 54.541 25.7553 54.541 25.3597C54.5404 24.8295 54.3294 24.3211 53.9545 23.9462C53.5796 23.5712 53.0712 23.3603 52.541 23.3597V23.3597ZM52.541 26.3597C52.3432 26.3597 52.1498 26.3011 51.9854 26.1912C51.8209 26.0813 51.6928 25.9251 51.6171 25.7424C51.5414 25.5597 51.5216 25.3586 51.5602 25.1646C51.5988 24.9707 51.694 24.7925 51.8339 24.6526C51.9737 24.5128 52.1519 24.4175 52.3459 24.3789C52.5399 24.3404 52.7409 24.3602 52.9236 24.4358C53.1064 24.5115 53.2626 24.6397 53.3724 24.8042C53.4823 24.9686 53.541 25.1619 53.541 25.3597C53.5407 25.6249 53.4353 25.8791 53.2478 26.0665C53.0603 26.254 52.8061 26.3595 52.541 26.3597ZM134 8.37109C133.604 8.37109 133.218 8.48839 132.889 8.70816C132.56 8.92792 132.304 9.24028 132.152 9.60573C132.001 9.97118 131.961 10.3733 132.038 10.7613C132.116 11.1492 132.306 11.5056 132.586 11.7853C132.866 12.065 133.222 12.2555 133.61 12.3327C133.998 12.4098 134.4 12.3702 134.765 12.2189C135.131 12.0675 135.443 11.8111 135.663 11.4822C135.883 11.1533 136 10.7667 136 10.3711C135.999 9.84085 135.789 9.33249 135.414 8.95755C135.039 8.58261 134.53 8.3717 134 8.37109ZM134 11.3711C133.802 11.3711 133.609 11.3124 133.444 11.2026C133.28 11.0927 133.152 10.9365 133.076 10.7538C133 10.5711 132.981 10.37 133.019 10.176C133.058 9.98202 133.153 9.80384 133.293 9.66399C133.433 9.52414 133.611 9.42889 133.805 9.39031C133.999 9.35172 134.2 9.37153 134.383 9.44721C134.565 9.5229 134.722 9.65108 134.831 9.81552C134.941 9.97997 135 10.1733 135 10.3711C135 10.6362 134.894 10.8904 134.707 11.0779C134.519 11.2654 134.265 11.3708 134 11.3711ZM31.4493 5.37109C31.4493 4.97553 31.332 4.58885 31.1123 4.25995C30.8925 3.93106 30.5801 3.67471 30.2147 3.52334C29.8492 3.37196 29.4471 3.33235 29.0591 3.40952C28.6712 3.48669 28.3148 3.67718 28.0351 3.95688C27.7554 4.23659 27.5649 4.59295 27.4877 4.98091C27.4106 5.36888 27.4502 5.77101 27.6016 6.13646C27.7529 6.50191 28.0093 6.81427 28.3382 7.03403C28.6671 7.2538 29.0537 7.37109 29.4493 7.37109C29.9796 7.37049 30.4879 7.15958 30.8629 6.78464C31.2378 6.4097 31.4487 5.90134 31.4493 5.37109V5.37109ZM28.4493 5.37109C28.4493 5.17331 28.508 4.97997 28.6178 4.81552C28.7277 4.65108 28.8839 4.5229 29.0666 4.44722C29.2494 4.37153 29.4504 4.35172 29.6444 4.39031C29.8384 4.42889 30.0166 4.52414 30.1564 4.66399C30.2963 4.80384 30.3915 4.98202 30.4301 5.176C30.4687 5.36999 30.4489 5.57105 30.3732 5.75378C30.2975 5.9365 30.1693 6.09268 30.0049 6.20256C29.8404 6.31245 29.6471 6.37109 29.4493 6.37109C29.1842 6.37083 28.93 6.26539 28.7425 6.07791C28.555 5.89043 28.4496 5.63623 28.4493 5.37109V5.37109Z" fill="black"/>
<path d="M10.8878 53.6276L12.3748 51.6726L11.4358 51.1406L10.4808 53.3306H10.4498L9.47982 51.1556L8.52482 51.7036L9.99582 53.6126V53.6436L7.69482 53.3466V54.4096L10.0108 54.1126V54.1446L8.52482 56.0526L9.41582 56.6166L10.4338 54.4096H10.4648L11.4038 56.6006L12.3898 56.0376L10.8878 54.1596V54.1286L13.2498 54.4096V53.3466L10.8878 53.6586V53.6276Z" fill="#00CCFF"/>
<path d="M82.6851 6.52395L81.8291 7.62295L82.3431 7.94795L82.9291 6.67695H82.9461L83.4871 7.93895L84.0551 7.61494L83.1901 6.53295V6.51495L84.5501 6.67695V6.06495L83.1901 6.24495V6.22695L84.0461 5.10094L83.5051 4.79395L82.9561 6.05595H82.9371L82.3791 4.80295L81.8291 5.11895L82.6761 6.21795V6.23595L81.3511 6.06495V6.67695L82.6851 6.50595V6.52395Z" fill="#00CCFF"/>
<path d="M163.724 19.9004V18.8574L161.407 19.1634V19.1334L162.866 17.2154L161.945 16.6934L161.009 18.8414H160.977L160.027 16.7084L159.089 17.2454L160.533 19.1184V19.1484L158.276 18.8574V19.9004L160.548 19.6094V19.6404L159.089 21.5114L159.964 22.0644L160.963 19.9004H160.992L161.913 22.0494L162.881 21.4964L161.407 19.6554V19.6244L163.724 19.9004Z" fill="#00CCFF"/>
<path d="M108.979 25.6001L110.237 23.9451L109.442 23.4951L108.635 25.3481H108.608L107.788 23.5081L106.979 23.9721L108.224 25.5871V25.6131L106.278 25.3621V26.2621L108.237 26.0111V26.0371L106.979 27.6521L107.734 28.1291L108.595 26.2621H108.621L109.415 28.1151L110.25 27.6391L108.979 26.0501V26.0241L110.977 26.2621V25.3621L108.979 25.6261V25.6001Z" fill="#00CCFF"/>
<path d="M2 150.629C3.10457 150.629 4 149.733 4 148.629C4 147.524 3.10457 146.629 2 146.629C0.89543 146.629 0 147.524 0 148.629C0 149.733 0.89543 150.629 2 150.629Z" fill="black"/>
<path d="M11 146.629H8C7.46957 146.629 6.96086 146.84 6.58579 147.215C6.21071 147.59 6 148.098 6 148.629C6 149.159 6.21071 149.668 6.58579 150.043C6.96086 150.418 7.46957 150.629 8 150.629H11C11.5304 150.629 12.0391 150.418 12.4142 150.043C12.7893 149.668 13 149.159 13 148.629C13 148.098 12.7893 147.59 12.4142 147.215C12.0391 146.84 11.5304 146.629 11 146.629ZM160 146.629H157C156.47 146.629 155.961 146.84 155.586 147.215C155.211 147.59 155 148.098 155 148.629C155 149.159 155.211 149.668 155.586 150.043C155.961 150.418 156.47 150.629 157 150.629H160C160.53 150.629 161.039 150.418 161.414 150.043C161.789 149.668 162 149.159 162 148.629C162 148.098 161.789 147.59 161.414 147.215C161.039 146.84 160.53 146.629 160 146.629Z" fill="black"/>
<path d="M166 150.629C167.105 150.629 168 149.733 168 148.629C168 147.524 167.105 146.629 166 146.629C164.895 146.629 164 147.524 164 148.629C164 149.733 164.895 150.629 166 150.629Z" fill="black"/>
<path d="M118.154 154.629H109.846C109.343 154.669 108.874 154.897 108.532 155.268C108.19 155.639 108 156.125 108 156.629C108 157.133 108.19 157.619 108.532 157.99C108.874 158.36 109.343 158.589 109.846 158.629H118.154C118.657 158.589 119.126 158.36 119.468 157.99C119.81 157.619 120 157.133 120 156.629C120 156.125 119.81 155.639 119.468 155.268C119.126 154.897 118.657 154.669 118.154 154.629ZM58.1539 154.629H49.8462C49.3434 154.669 48.8742 154.897 48.5321 155.268C48.19 155.639 48 156.125 48 156.629C48 157.133 48.19 157.619 48.5321 157.99C48.8742 158.36 49.3434 158.589 49.8462 158.629H58.1539C58.6567 158.589 59.1258 158.36 59.468 157.99C59.8101 157.619 60.0001 157.133 60.0001 156.629C60.0001 156.125 59.8101 155.639 59.468 155.268C59.1258 154.897 58.6567 154.669 58.1539 154.629V154.629ZM104 154.629H64C63.4696 154.629 62.9609 154.84 62.5858 155.215C62.2107 155.59 62 156.098 62 156.629C62 157.159 62.2107 157.668 62.5858 158.043C62.9609 158.418 63.4696 158.629 64 158.629H79.94V160.629H72C71.4696 160.629 70.9609 160.84 70.5858 161.215C70.2107 161.59 70 162.098 70 162.629C70 163.159 70.2107 163.668 70.5858 164.043C70.9609 164.418 71.4696 164.629 72 164.629H97C97.5305 164.629 98.0392 164.418 98.4142 164.043C98.7893 163.668 99 163.159 99 162.629C99 162.098 98.7893 161.59 98.4142 161.215C98.0392 160.84 97.5305 160.629 97 160.629H88.06V158.629H104C104.53 158.629 105.039 158.418 105.414 158.043C105.789 157.668 106 157.159 106 156.629C106 156.098 105.789 155.59 105.414 155.215C105.039 154.84 104.53 154.629 104 154.629ZM84 88.6289C82.4093 88.6272 80.8841 87.9945 79.7593 86.8696C78.6345 85.7448 78.0018 84.2197 78 82.6289C78 82.0985 77.7893 81.5898 77.4142 81.2147C77.0392 80.8396 76.5305 80.6289 76 80.6289C75.4696 80.6289 74.9609 80.8396 74.5858 81.2147C74.2107 81.5898 74 82.0985 74 82.6289C74 84.6067 74.5865 86.5401 75.6853 88.1846C76.7841 89.8291 78.3459 91.1108 80.1732 91.8677C82.0005 92.6246 84.0111 92.8226 85.9509 92.4368C87.8907 92.0509 89.6726 91.0985 91.0711 89.7C92.4696 88.3014 93.422 86.5196 93.8079 84.5798C94.1937 82.64 93.9957 80.6293 93.2388 78.8021C92.4819 76.9748 91.2002 75.413 89.5557 74.3142C87.9112 73.2154 85.9778 72.6289 84 72.6289C83.4696 72.6289 82.9609 72.8396 82.5858 73.2147C82.2107 73.5898 82 74.0985 82 74.6289C82 75.1593 82.2107 75.668 82.5858 76.0431C82.9609 76.4182 83.4696 76.6289 84 76.6289C85.5913 76.6289 87.1174 77.2611 88.2427 78.3863C89.3679 79.5115 90 81.0376 90 82.6289C90 84.2202 89.3679 85.7463 88.2427 86.8716C87.1174 87.9968 85.5913 88.6289 84 88.6289Z" fill="#00CCFF"/>
<path d="M102 82.6284C102 79.0684 100.944 75.5882 98.9665 72.6282C96.9886 69.6681 94.1774 67.361 90.8883 65.9986C87.5992 64.6362 83.98 64.2797 80.4884 64.9743C76.9967 65.6688 73.7894 67.3831 71.2721 69.9005C68.7547 72.4178 67.0404 75.6251 66.3459 79.1168C65.6513 82.6084 66.0078 86.2276 67.3702 89.5167C68.7326 92.8058 71.0397 95.617 73.9997 97.5949C76.9598 99.5727 80.4399 100.628 84 100.628C84.5304 100.628 85.0392 100.418 85.4142 100.043C85.7893 99.6676 86 99.1588 86 98.6284C86 98.098 85.7893 97.5893 85.4142 97.2142C85.0392 96.8391 84.5304 96.6284 84 96.6284C81.2311 96.6284 78.5243 95.8073 76.222 94.269C73.9197 92.7307 72.1253 90.5441 71.0657 87.986C70.0061 85.4278 69.7288 82.6129 70.269 79.8972C70.8092 77.1814 72.1426 74.6869 74.1005 72.7289C76.0584 70.771 78.553 69.4376 81.2687 68.8974C83.9845 68.3572 86.7994 68.6345 89.3576 69.6941C91.9157 70.7537 94.1022 72.5481 95.6406 74.8504C97.1789 77.1527 98 79.8595 98 82.6284C98 83.1588 98.2107 83.6676 98.5858 84.0426C98.9609 84.4177 99.4696 84.6284 100 84.6284C100.53 84.6284 101.039 84.4177 101.414 84.0426C101.789 83.6676 102 83.1588 102 82.6284ZM129.891 96.707L117.275 100.351C116.938 100.448 116.632 100.633 116.389 100.886C116.146 101.139 115.973 101.451 115.889 101.792C115.804 102.133 115.811 102.49 115.909 102.827C116.006 103.165 116.19 103.47 116.443 103.714L125.907 112.817C126.16 113.06 126.473 113.233 126.814 113.317C127.155 113.401 127.512 113.394 127.849 113.297C128.186 113.199 128.492 113.015 128.735 112.762C128.979 112.509 129.151 112.196 129.235 111.855L132.387 99.1083C132.471 98.7675 132.464 98.4106 132.367 98.0733C132.27 97.736 132.085 97.4303 131.832 97.1869C131.579 96.9435 131.267 96.771 130.926 96.6868C130.585 96.6025 130.228 96.6095 129.891 96.7069L129.891 96.707ZM126.184 107.533L121.713 103.232L127.673 101.511L126.184 107.533ZM131.958 45.4448C131.741 45.169 131.455 44.9551 131.129 44.8247C130.803 44.6943 130.449 44.652 130.101 44.7021C129.754 44.7521 129.426 44.8927 129.15 45.1097C128.874 45.3267 128.66 45.6126 128.529 45.9385L123.651 58.1304C123.521 58.4563 123.478 58.8109 123.528 59.1584C123.578 59.506 123.719 59.8342 123.936 60.1102C124.153 60.3862 124.439 60.6001 124.765 60.7305C125.091 60.8609 125.445 60.9032 125.793 60.853L138.79 58.981C139.137 58.9307 139.465 58.79 139.741 58.5729C140.017 58.3558 140.231 58.07 140.361 57.7441C140.492 57.4182 140.534 57.0637 140.484 56.7163C140.434 56.3689 140.294 56.0407 140.077 55.7646L131.958 45.4448ZM128.651 56.3999L130.956 50.6406L134.791 55.5156L128.651 56.3999Z" fill="black"/>
<path d="M44.172 81.8739C44.2772 81.5389 44.2922 81.1822 44.2156 80.8395C44.1389 80.4969 43.9734 80.1805 43.7355 79.9223L34.8449 70.2582C34.6073 69.9998 34.3058 69.8086 33.9708 69.7037C33.6358 69.5988 33.2791 69.5839 32.9366 69.6606C32.594 69.7372 32.2777 69.9027 32.0194 70.1404C31.7611 70.3781 31.5699 70.6795 31.465 71.0145L27.5411 83.5453C27.4473 83.8447 27.4253 84.1621 27.4769 84.4716C27.5284 84.7811 27.6521 85.0742 27.8378 85.3271C28.0236 85.5799 28.2663 85.7856 28.5462 85.9273C28.8262 86.0691 29.1356 86.1429 29.4493 86.143C29.5962 86.1431 29.7426 86.1269 29.8859 86.0946L42.7003 83.2279C43.043 83.1515 43.3594 82.986 43.6178 82.7483C43.8762 82.5106 44.0673 82.209 44.172 81.8739V81.8739ZM32.3927 81.4349L34.2462 75.5155L38.4464 80.0809L32.3927 81.4349Z" fill="#00CCFF"/>
<path d="M45.5128 97.1123C45.2752 96.854 44.9737 96.6627 44.6387 96.5578C44.3038 96.4529 43.9471 96.438 43.6045 96.5147C43.262 96.5913 42.9456 96.7568 42.6873 96.9945C42.429 97.2322 42.2378 97.5337 42.1329 97.8687L39.2628 107.031C39.169 107.331 39.147 107.648 39.1985 107.958C39.2501 108.267 39.3737 108.56 39.5595 108.813C39.7453 109.066 39.988 109.272 40.2679 109.413C40.5479 109.555 40.8572 109.629 41.171 109.629C41.3179 109.629 41.4643 109.613 41.6075 109.581L50.9777 107.484C51.3202 107.408 51.6366 107.242 51.8949 107.005C52.1532 106.767 52.3445 106.465 52.4494 106.13C52.5543 105.795 52.5691 105.439 52.4925 105.096C52.4159 104.753 52.2505 104.437 52.0128 104.179L45.5128 97.1123ZM44.1154 104.921L44.9142 102.37L46.7238 104.337L44.1154 104.921ZM51.0001 58.6289C52.1868 58.6289 53.3468 58.277 54.3335 57.6177C55.3202 56.9584 56.0893 56.0214 56.5434 54.925C56.9975 53.8286 57.1163 52.6223 56.8848 51.4584C56.6533 50.2945 56.0819 49.2254 55.2428 48.3863C54.4037 47.5472 53.3346 46.9757 52.1707 46.7442C51.0068 46.5127 49.8004 46.6315 48.704 47.0856C47.6077 47.5398 46.6706 48.3088 46.0113 49.2955C45.352 50.2822 45.0001 51.4422 45.0001 52.6289C45.0019 54.2197 45.6346 55.7448 46.7594 56.8696C47.8842 57.9945 49.4094 58.6272 51.0001 58.6289V58.6289ZM51.0001 50.6289C51.3957 50.6289 51.7824 50.7462 52.1113 50.966C52.4402 51.1857 52.6965 51.4981 52.8479 51.8635C52.9993 52.229 53.0389 52.6311 52.9617 53.0191C52.8845 53.4071 52.694 53.7634 52.4143 54.0431C52.1346 54.3228 51.7783 54.5133 51.3903 54.5905C51.0023 54.6676 50.6002 54.628 50.2348 54.4767C49.8693 54.3253 49.5569 54.0689 49.3372 53.74C49.1174 53.4111 49.0001 53.0245 49.0001 52.6289C49.0007 52.0987 49.2116 51.5903 49.5866 51.2154C49.9615 50.8404 50.4699 50.6295 51.0001 50.6289V50.6289Z" fill="black"/>
<path d="M134 76.6289C132.813 76.6289 131.653 76.9808 130.667 77.6401C129.68 78.2994 128.911 79.2365 128.457 80.3328C128.003 81.4292 127.884 82.6356 128.115 83.7994C128.347 84.9633 128.918 86.0324 129.757 86.8716C130.596 87.7107 131.666 88.2821 132.829 88.5136C133.993 88.7451 135.2 88.6263 136.296 88.1722C137.392 87.7181 138.33 86.949 138.989 85.9623C139.648 84.9756 140 83.8156 140 82.6289C139.998 81.0381 139.366 79.513 138.241 78.3882C137.116 77.2633 135.591 76.6306 134 76.6289V76.6289ZM134 84.6289C133.604 84.6289 133.218 84.5116 132.889 84.2918C132.56 84.0721 132.304 83.7597 132.152 83.3943C132.001 83.0288 131.961 82.6267 132.038 82.2387C132.116 81.8508 132.306 81.4944 132.586 81.2147C132.865 80.935 133.222 80.7445 133.61 80.6673C133.998 80.5902 134.4 80.6298 134.765 80.7812C135.131 80.9325 135.443 81.1889 135.663 81.5178C135.883 81.8467 136 82.2333 136 82.6289C135.999 83.1592 135.788 83.6675 135.414 84.0424C135.039 84.4174 134.53 84.6283 134 84.6289Z" fill="#00CCFF"/>
<path d="M84.0001 52.629C90.0736 52.6233 96.0042 54.4721 100.999 57.9281C101.325 57.0375 101.859 56.2376 102.556 55.5945C102.865 55.3111 103.203 55.0605 103.564 54.8469C97.0206 50.2284 89.0565 48.07 81.0769 48.7526C73.0973 49.4352 65.6154 52.9149 59.952 58.5776C54.2885 64.2402 50.8078 71.7216 50.1241 79.7011C49.4404 87.6806 51.5977 95.6451 56.2153 102.189C56.9202 101.008 58.007 100.103 59.2959 99.6229C56.1929 95.1212 54.3801 89.8567 54.0536 84.399C53.727 78.9413 54.8992 73.4982 57.4433 68.6587C59.9874 63.8192 63.8065 59.7675 68.4873 56.9421C73.1682 54.1168 78.5326 52.6252 84.0001 52.629V52.629ZM111.785 63.0692C111.08 64.2502 109.993 65.1553 108.704 65.635C112.683 71.4073 114.513 78.3917 113.876 85.3735C113.239 92.3554 110.175 98.8932 105.217 103.85C100.26 108.807 93.7211 111.87 86.7391 112.506C79.7571 113.141 72.7731 111.31 67.0015 107.33C66.6751 108.22 66.1412 109.02 65.444 109.663C65.135 109.947 64.7974 110.197 64.4365 110.411C70.9794 115.03 78.9436 117.188 86.9232 116.505C94.9029 115.823 102.385 112.343 108.048 106.68C113.712 101.018 117.192 93.5363 117.876 85.5568C118.56 77.5773 116.402 69.6128 111.785 63.0692Z" fill="black"/>
<path d="M106.827 95.0642C109.515 90.1362 110.535 84.4707 109.734 78.9149C108.934 73.3591 106.357 68.2116 102.388 64.2424C98.4192 60.2731 93.272 57.6954 87.7163 56.8947C82.1605 56.094 76.4949 57.1135 71.5667 59.8005C72.6781 60.6211 73.4705 61.8016 73.8089 63.141C77.9593 60.966 82.696 60.1738 87.3282 60.8801C91.9604 61.5864 96.2458 63.7542 99.5594 67.0673C102.873 70.3804 105.041 74.6655 105.748 79.2976C106.455 83.9297 105.664 88.6665 103.489 92.8172C104.829 93.1571 106.008 93.9513 106.827 95.0642V95.0642ZM62.7944 67.6131C59.2428 72.6165 57.5768 78.7156 58.0916 84.8298C58.6064 90.944 61.2688 96.6787 65.607 101.018C69.9452 105.357 75.6792 108.021 81.7933 108.537C87.9074 109.053 94.0068 107.388 99.0111 103.838C97.8159 103.152 96.8942 102.075 96.4019 100.788C92.1694 103.684 87.0577 105.009 81.9514 104.535C76.845 104.06 72.0653 101.815 68.4391 98.1886C64.813 94.5622 62.5686 89.7823 62.0942 84.6759C61.6199 79.5695 62.9455 74.458 65.8417 70.2257C64.5549 69.7325 63.4783 68.8095 62.7944 67.6131V67.6131Z" fill="#00CCFF"/>
<path d="M107.985 61.4697C108.796 60.7198 108.845 59.4545 108.095 58.6435C107.346 57.8325 106.08 57.7829 105.269 58.5328C104.458 59.2827 104.409 60.5481 105.159 61.3591C105.908 62.1701 107.174 62.2196 107.985 61.4697Z" fill="#00CCFF"/>
<path d="M62.731 106.725C63.542 105.975 63.5915 104.709 62.8416 103.898C62.0917 103.087 60.8263 103.038 60.0153 103.788C59.2043 104.538 59.1548 105.803 59.9047 106.614C60.6546 107.425 61.92 107.474 62.731 106.725Z" fill="#00CCFF"/>
<path d="M103.999 98.7067C104.043 97.603 103.183 96.6732 102.079 96.6301C100.975 96.5869 100.046 97.4466 100.002 98.5504C99.9593 99.6541 100.819 100.584 101.923 100.627C103.027 100.67 103.956 99.8104 103.999 98.7067Z" fill="black"/>
<path d="M69.9994 64.7067C70.0426 63.603 69.1829 62.6732 68.0791 62.6301C66.9754 62.5869 66.0457 63.4466 66.0025 64.5504C65.9593 65.6541 66.8191 66.5838 67.9228 66.627C69.0265 66.6702 69.9563 65.8104 69.9994 64.7067Z" fill="black"/>
<path d="M150.721 146.629H92.0001V135.629H144C145.061 135.628 146.077 135.206 146.827 134.456C147.577 133.706 147.999 132.689 148 131.629V39.6289C147.999 38.5684 147.577 37.5516 146.827 36.8017C146.077 36.0518 145.061 35.63 144 35.6289H24.0001C22.9396 35.63 21.9228 36.0518 21.1729 36.8017C20.423 37.5516 20.0013 38.5684 20.0001 39.6289V131.629C20.0013 132.689 20.423 133.706 21.1729 134.456C21.9228 135.206 22.9396 135.628 24.0001 135.629H76.0001V146.629H17.2788C16.9943 146.592 16.7051 146.616 16.4306 146.699C16.156 146.783 15.9025 146.924 15.6868 147.113C15.4712 147.302 15.2984 147.536 15.1801 147.797C15.0617 148.058 15.0005 148.342 15.0005 148.629C15.0005 148.916 15.0617 149.199 15.1801 149.461C15.2984 149.722 15.4712 149.955 15.6868 150.145C15.9025 150.334 16.156 150.475 16.4306 150.559C16.7051 150.642 16.9943 150.666 17.2788 150.629H150.721C151.006 150.666 151.295 150.642 151.57 150.559C151.844 150.475 152.098 150.334 152.313 150.145C152.529 149.955 152.702 149.722 152.82 149.461C152.939 149.199 153 148.916 153 148.629C153 148.342 152.939 148.058 152.82 147.797C152.702 147.536 152.529 147.302 152.313 147.113C152.098 146.924 151.844 146.783 151.57 146.699C151.295 146.616 151.006 146.592 150.721 146.629ZM24.0001 39.6289H144L144.003 121.629L144 121.629H24.0001V39.6289ZM24.0001 131.629V125.629H144L144.003 125.629L144.003 131.629H24.0001ZM80.0001 146.629V135.629H88.0001V146.629H80.0001Z" fill="black"/>
</svg>
