<svg width="83" height="83" viewBox="0 0 100 100" fill="none" xmlns="http://www.w3.org/2000/svg">
<path d="M67.7691 6.86126V93.1393C67.7691 95.6923 65.7001 97.7613 63.1471 97.7613H18.0551C15.5021 97.7613 13.4331 95.6923 13.4331 93.1393V6.86126C13.4331 4.30826 15.5021 2.23926 18.0551 2.23926H63.1471C65.7001 2.23926 67.7691 4.30826 67.7691 6.86126Z" fill="black"/>
<path d="M18.0552 94.6803C17.2052 94.6803 16.5142 93.9893 16.5142 93.1393V6.86131C16.5142 6.01131 17.2052 5.32031 18.0552 5.32031H63.1472C63.9972 5.32031 64.6882 6.01131 64.6882 6.86131V93.1393C64.6882 93.9893 63.9972 94.6803 63.1472 94.6803H18.0552Z" fill="white"/>
<path d="M86.5672 49.993C86.5672 60.38 78.1432 68.791 67.7692 68.791C57.3822 68.791 48.9712 60.38 48.9712 49.993C48.9712 39.62 57.3822 31.209 67.7692 31.209C78.1432 31.209 86.5672 39.62 86.5672 49.993Z" fill="#00CCFF"/>
<path d="M45.797 90.4431H35.405C34.767 90.4431 34.249 90.9611 34.249 91.5991C34.249 92.2371 34.767 92.7551 35.405 92.7551H45.797C46.435 92.7551 46.953 92.2371 46.953 91.5991C46.953 90.9611 46.435 90.4431 45.797 90.4431ZM38.718 9.55712H51.711C52.349 9.55712 52.867 9.03912 52.867 8.40112C52.867 7.76312 52.349 7.24512 51.711 7.24512H38.718C38.08 7.24512 37.562 7.76312 37.562 8.40112C37.563 9.04012 38.08 9.55712 38.718 9.55712ZM31.852 7.24612H29.491C28.853 7.24612 28.335 7.76412 28.335 8.40212C28.335 9.04012 28.853 9.55812 29.491 9.55812H31.852C32.49 9.55812 33.008 9.04012 33.008 8.40212C33.007 7.76412 32.489 7.24612 31.852 7.24612ZM60.995 42.6791C58.187 42.6791 55.902 44.9641 55.902 47.7721V56.1661C55.902 56.8041 56.42 57.3221 57.058 57.3221C57.696 57.3221 58.214 56.8041 58.214 56.1661V52.3641H63.778V56.1661C63.778 56.8041 64.296 57.3221 64.934 57.3221C65.572 57.3221 66.09 56.8041 66.09 56.1661V47.7721C66.088 44.9651 63.803 42.6791 60.995 42.6791ZM58.213 50.0531V47.7721C58.213 46.2371 59.46 44.9901 60.995 44.9901C62.53 44.9901 63.777 46.2371 63.777 47.7721V50.0531H58.213ZM69.449 57.3221H72.315C76.352 57.3221 79.636 54.0381 79.636 50.0011C79.636 45.9641 76.352 42.6801 72.315 42.6801H69.449C68.811 42.6801 68.293 43.1981 68.293 43.8361V56.1671C68.294 56.8041 68.811 57.3221 69.449 57.3221ZM70.605 44.9901H72.316C75.078 44.9901 77.326 47.2381 77.326 50.0001C77.326 52.7621 75.078 55.0101 72.316 55.0101H70.605V44.9901Z" fill="black"/>
</svg>
