<svg width="64" height="64" viewBox="0 0 64 64" fill="none" xmlns="http://www.w3.org/2000/svg">
<path d="M20.1049 28.713C20.3519 29.207 20.9509 29.407 21.4469 29.16L23.5549 28.105C23.8979 27.934 24.3139 27.975 24.6179 28.21L32.2239 34.126C32.4049 34.267 32.6219 34.336 32.8369 34.336C33.0939 34.336 33.3509 34.237 33.5449 34.043L41.8819 25.706C42.2729 25.315 42.2729 24.683 41.8819 24.292C41.4909 23.901 40.8589 23.901 40.4679 24.292L32.7549 32.005L25.8459 26.631C24.9399 25.927 23.6899 25.802 22.6619 26.316L20.5529 27.371C20.0589 27.618 19.8579 28.219 20.1049 28.713ZM61.0039 7H46.4599C45.6429 7 44.9159 7.489 44.6069 8.246C44.2979 9.003 44.4779 9.861 45.0629 10.432L49.7519 15.009L47.2919 17.469C46.9009 17.86 46.9009 18.492 47.2919 18.883C47.6829 19.274 48.3149 19.274 48.7059 18.883L51.8819 15.707C52.0709 15.518 52.1759 15.261 52.1749 14.994C52.1739 14.726 52.0649 14.471 51.8729 14.284L46.4599 9H60.0039V22.544L54.7199 17.13C54.5329 16.939 54.2779 16.83 54.0099 16.828C53.7519 16.827 53.4859 16.932 53.2969 17.121L50.1249 20.293C49.7339 20.684 49.7339 21.316 50.1249 21.707C50.5159 22.098 51.1479 22.098 51.5389 21.707L53.9949 19.251L58.5729 23.941C58.9579 24.336 59.4739 24.545 60.0009 24.545C60.2549 24.545 60.5119 24.496 60.7579 24.396C61.5149 24.088 62.0039 23.361 62.0039 22.544V8C62.0039 7.448 61.5559 7 61.0039 7ZM2.99989 42.614C3.14689 42.614 3.29589 42.582 3.43789 42.513L12.9149 37.899C13.4119 37.657 13.6179 37.059 13.3759 36.562C13.1339 36.066 12.5349 35.858 12.0389 36.101L2.56189 40.715C2.06489 40.957 1.85889 41.555 2.10089 42.052C2.27389 42.408 2.62989 42.614 2.99989 42.614ZM3.00089 38.158C3.14789 38.158 3.29689 38.126 3.43889 38.057L12.4389 33.665C12.9359 33.422 13.1419 32.824 12.8989 32.328C12.6559 31.831 12.0579 31.625 11.5619 31.868L2.56189 36.26C2.06489 36.503 1.85889 37.101 2.10189 37.597C2.27389 37.952 2.62989 38.158 3.00089 38.158ZM2.99989 6C2.44789 6 1.99989 6.448 1.99989 7C1.99989 7.552 2.44789 8 2.99989 8H6.99989C7.55189 8 7.99989 7.552 7.99989 7C7.99989 6.448 7.55189 6 6.99989 6H2.99989ZM16.4849 6.857C16.6409 6.951 16.8189 7 16.9999 7H22.1839C22.5979 8.161 23.6979 9 24.9999 9C26.6539 9 27.9999 7.654 27.9999 6C27.9999 4.346 26.6539 3 24.9999 3C23.6979 3 22.5979 3.839 22.1839 5H17.2769L12.5149 2.143C12.3589 2.049 12.1809 2 11.9999 2H2.99989C2.44789 2 1.99989 2.448 1.99989 3C1.99989 3.552 2.44789 4 2.99989 4H11.7229L16.4849 6.857ZM24.9999 5C25.5509 5 25.9999 5.449 25.9999 6C25.9999 6.551 25.5509 7 24.9999 7C24.4489 7 23.9999 6.551 23.9999 6C23.9999 5.449 24.4489 5 24.9999 5Z" fill="black"/>
<path d="M59 56C57.698 56 56.598 56.839 56.184 58H50.277L45.515 55.143C45.359 55.049 45.181 55 45 55H39.816C39.402 53.839 38.302 53 37 53C35.698 53 34.598 53.839 34.184 55H32V50.522C32.153 50.526 32.303 50.544 32.456 50.544C35.03 50.544 37.524 50.031 39.827 49.062L44.486 51.857C44.641 51.951 44.819 52 45 52H50.184C50.598 53.161 51.698 54 53 54C54.654 54 56 52.654 56 51C56 49.346 54.654 48 53 48C51.698 48 50.598 48.839 50.184 50H45.277L41.937 47.996C43.361 47.172 44.697 46.174 45.891 44.979C49.48 41.391 51.456 36.619 51.456 31.544C51.456 26.469 49.479 21.698 45.891 18.109C42.728 14.946 38.536 12.994 34.086 12.613C33.94 12.6 33.802 12.621 33.674 12.665C33.18 11.683 32.173 11 31 11C29.698 11 28.598 11.839 28.184 13H22.277L17.515 10.143C17.359 10.049 17.181 10 17 10H11.816C11.402 8.839 10.302 8 9 8C7.698 8 6.598 8.839 6.184 10H3C2.448 10 2 10.448 2 11C2 11.552 2.448 12 3 12H6.184C6.598 13.161 7.698 14 9 14C10.302 14 11.402 13.161 11.816 12H16.723L21.485 14.857C21.641 14.951 21.819 15 22 15H28.184C28.474 15.813 29.097 16.466 29.897 16.784C27.592 17.177 25.355 18.099 23.395 19.588C22.955 19.922 22.87 20.549 23.204 20.989C23.538 21.427 24.165 21.515 24.605 21.18C29.748 17.273 37.074 17.778 41.648 22.351C43.032 23.735 44.024 25.36 44.652 27.088C44.259 26.744 43.667 26.75 43.292 27.124L33.71 36.706C33.354 37.062 32.786 37.098 32.389 36.788L24.384 30.562C24.081 30.326 23.667 30.284 23.323 30.457L20.552 31.843C20.058 32.09 19.858 32.691 20.105 33.185C20.352 33.679 20.951 33.88 21.447 33.632L23.655 32.528L31.162 38.367C31.705 38.79 32.354 38.998 33.002 38.998C33.775 38.998 34.544 38.702 35.125 38.121L44.707 28.539C44.851 28.395 44.923 28.216 44.961 28.03C46.182 32.407 45.083 37.301 41.648 40.736C36.58 45.805 28.332 45.804 23.263 40.736C18.975 36.448 18.234 29.636 21.5 24.539C21.798 24.074 21.663 23.456 21.198 23.158C20.733 22.859 20.114 22.996 19.817 23.46C16.047 29.342 16.902 37.203 21.849 42.15C24.773 45.074 28.615 46.536 32.456 46.536C36.297 46.536 40.138 45.074 43.062 42.15C48.911 36.301 48.911 26.785 43.062 20.937C40.186 18.061 36.366 16.591 32.525 16.569C33.236 16.145 33.764 15.445 33.937 14.61C37.91 14.955 41.652 16.699 44.476 19.524C47.687 22.735 49.455 27.004 49.455 31.545C49.455 36.086 47.686 40.355 44.476 43.566C41.266 46.777 36.996 48.545 32.455 48.545C27.914 48.545 23.645 46.776 20.434 43.566C17.223 40.356 15.455 36.086 15.455 31.545C15.455 27.004 17.224 22.735 20.434 19.524C21.37 18.588 22.41 17.764 23.525 17.074C23.995 16.783 24.14 16.167 23.85 15.698C23.559 15.228 22.942 15.084 22.474 15.373C21.227 16.144 20.066 17.065 19.021 18.11C15.432 21.698 13.456 26.47 13.456 31.545C13.456 34.906 14.34 38.124 15.967 40.963L12.657 44.273C11.486 43.103 9.584 43.105 8.414 44.273C7.245 45.443 7.245 47.346 8.414 48.516L3.464 53.466C1.515 55.416 1.515 58.588 3.464 60.537C4.439 61.51 5.72 61.998 7 61.998C8.28 61.998 9.561 61.511 10.536 60.536L15.486 55.586C16.071 56.17 16.839 56.462 17.607 56.462C18.376 56.462 19.144 56.17 19.729 55.585C20.898 54.415 20.898 52.512 19.729 51.342L23.039 48.032C25.177 49.258 27.531 50.05 30.001 50.367V56C30.001 56.552 30.449 57 31.001 57H34.185C34.599 58.161 35.699 59 37.001 59C38.303 59 39.403 58.161 39.817 57H44.724L49.486 59.857C49.641 59.951 49.819 60 50 60H56.184C56.598 61.161 57.698 62 59 62C60.654 62 62 60.654 62 59C62 57.346 60.654 56 59 56ZM53 50C53.551 50 54 50.449 54 51C54 51.551 53.551 52 53 52C52.449 52 52 51.551 52 51C52 50.449 52.449 50 53 50ZM9 12C8.449 12 8 11.551 8 11C8 10.449 8.449 10 9 10C9.551 10 10 10.449 10 11C10 11.551 9.551 12 9 12ZM31 13C31.551 13 32 13.449 32 14C32 14.551 31.551 15 31 15C30.449 15 30 14.551 30 14C30 13.449 30.449 13 31 13ZM9.122 59.122C7.952 60.29 6.049 60.291 4.879 59.122C3.71 57.952 3.71 56.049 4.879 54.879L9.829 49.929L14.072 54.172L9.122 59.122ZM18.314 54.171C17.925 54.562 17.29 54.562 16.899 54.171L9.828 47.1C9.438 46.71 9.438 46.076 9.828 45.686C10.217 45.296 10.852 45.295 11.243 45.686L11.949 46.392C11.949 46.392 11.949 46.393 11.95 46.393C11.951 46.393 11.951 46.393 11.951 46.394L17.606 52.05L18.313 52.757C18.704 53.147 18.704 53.782 18.314 54.171ZM18.314 49.929L14.071 45.686L17.08 42.676C17.666 43.483 18.302 44.26 19.02 44.979C19.739 45.698 20.516 46.333 21.323 46.919L18.314 49.929ZM37 57C36.449 57 36 56.551 36 56C36 55.449 36.449 55 37 55C37.551 55 38 55.449 38 56C38 56.551 37.551 57 37 57ZM59 60C58.449 60 58 59.551 58 59C58 58.449 58.449 58 59 58C59.551 58 60 58.449 60 59C60 59.551 59.551 60 59 60Z" fill="black"/>
</svg>
