<svg width="32" height="32" viewBox="0 0 32 32" fill="none" xmlns="http://www.w3.org/2000/svg">
<path d="M10.0527 14.3565C10.1762 14.6035 10.4757 14.7035 10.7237 14.58L11.7777 14.0525C11.9492 13.967 12.1572 13.9875 12.3092 14.105L16.1122 17.063C16.2027 17.1335 16.3112 17.168 16.4187 17.168C16.5472 17.168 16.6757 17.1185 16.7727 17.0215L20.9412 12.853C21.1367 12.6575 21.1367 12.3415 20.9412 12.146C20.7457 11.9505 20.4297 11.9505 20.2342 12.146L16.3777 16.0025L12.9232 13.3155C12.4702 12.9635 11.8452 12.901 11.3312 13.158L10.2767 13.6855C10.0297 13.809 9.92919 14.1095 10.0527 14.3565ZM30.5022 3.5H23.2302C22.8217 3.5 22.4582 3.7445 22.3037 4.123C22.1492 4.5015 22.2392 4.9305 22.5317 5.216L24.8762 7.5045L23.6462 8.7345C23.4507 8.93 23.4507 9.246 23.6462 9.4415C23.8417 9.637 24.1577 9.637 24.3532 9.4415L25.9412 7.8535C26.0357 7.759 26.0882 7.6305 26.0877 7.497C26.0872 7.363 26.0327 7.2355 25.9367 7.142L23.2302 4.5H30.0022V11.272L27.3602 8.565C27.2667 8.4695 27.1392 8.415 27.0052 8.414C26.8762 8.4135 26.7432 8.466 26.6487 8.5605L25.0627 10.1465C24.8672 10.342 24.8672 10.658 25.0627 10.8535C25.2582 11.049 25.5742 11.049 25.7697 10.8535L26.9977 9.6255L29.2867 11.9705C29.4792 12.168 29.7372 12.2725 30.0007 12.2725C30.1277 12.2725 30.2562 12.248 30.3792 12.198C30.7577 12.044 31.0022 11.6805 31.0022 11.272V4C31.0022 3.724 30.7782 3.5 30.5022 3.5ZM1.50019 21.307C1.57369 21.307 1.64819 21.291 1.71919 21.2565L6.45769 18.9495C6.70619 18.8285 6.80919 18.5295 6.68819 18.281C6.56719 18.033 6.26769 17.929 6.01969 18.0505L1.28119 20.3575C1.03269 20.4785 0.929689 20.7775 1.05069 21.026C1.13719 21.204 1.31519 21.307 1.50019 21.307ZM1.50069 19.079C1.57419 19.079 1.64869 19.063 1.71969 19.0285L6.21969 16.8325C6.46819 16.711 6.57119 16.412 6.44969 16.164C6.32819 15.9155 6.02919 15.8125 5.78119 15.934L1.28119 18.13C1.03269 18.2515 0.929689 18.5505 1.05119 18.7985C1.13719 18.976 1.31519 19.079 1.50069 19.079ZM1.50019 3C1.22419 3 1.00019 3.224 1.00019 3.5C1.00019 3.776 1.22419 4 1.50019 4H3.50019C3.77619 4 4.00019 3.776 4.00019 3.5C4.00019 3.224 3.77619 3 3.50019 3H1.50019ZM8.24269 3.4285C8.32069 3.4755 8.40969 3.5 8.50019 3.5H11.0922C11.2992 4.0805 11.8492 4.5 12.5002 4.5C13.3272 4.5 14.0002 3.827 14.0002 3C14.0002 2.173 13.3272 1.5 12.5002 1.5C11.8492 1.5 11.2992 1.9195 11.0922 2.5H8.63869L6.25769 1.0715C6.17969 1.0245 6.09069 1 6.00019 1H1.50019C1.22419 1 1.00019 1.224 1.00019 1.5C1.00019 1.776 1.22419 2 1.50019 2H5.86169L8.24269 3.4285ZM12.5002 2.5C12.7757 2.5 13.0002 2.7245 13.0002 3C13.0002 3.2755 12.7757 3.5 12.5002 3.5C12.2247 3.5 12.0002 3.2755 12.0002 3C12.0002 2.7245 12.2247 2.5 12.5002 2.5Z" fill="black"/>
<path d="M29.5 28C28.849 28 28.299 28.4195 28.092 29H25.1385L22.7575 27.5715C22.6795 27.5245 22.5905 27.5 22.5 27.5H19.908C19.701 26.9195 19.151 26.5 18.5 26.5C17.849 26.5 17.299 26.9195 17.092 27.5H16V25.261C16.0765 25.263 16.1515 25.272 16.228 25.272C17.515 25.272 18.762 25.0155 19.9135 24.531L22.243 25.9285C22.3205 25.9755 22.4095 26 22.5 26H25.092C25.299 26.5805 25.849 27 26.5 27C27.327 27 28 26.327 28 25.5C28 24.673 27.327 24 26.5 24C25.849 24 25.299 24.4195 25.092 25H22.6385L20.9685 23.998C21.6805 23.586 22.3485 23.087 22.9455 22.4895C24.74 20.6955 25.728 18.3095 25.728 15.772C25.728 13.2345 24.7395 10.849 22.9455 9.0545C21.364 7.473 19.268 6.497 17.043 6.3065C16.97 6.3 16.901 6.3105 16.837 6.3325C16.59 5.8415 16.0865 5.5 15.5 5.5C14.849 5.5 14.299 5.9195 14.092 6.5H11.1385L8.7575 5.0715C8.6795 5.0245 8.5905 5 8.5 5H5.908C5.701 4.4195 5.151 4 4.5 4C3.849 4 3.299 4.4195 3.092 5H1.5C1.224 5 1 5.224 1 5.5C1 5.776 1.224 6 1.5 6H3.092C3.299 6.5805 3.849 7 4.5 7C5.151 7 5.701 6.5805 5.908 6H8.3615L10.7425 7.4285C10.8205 7.4755 10.9095 7.5 11 7.5H14.092C14.237 7.9065 14.5485 8.233 14.9485 8.392C13.796 8.5885 12.6775 9.0495 11.6975 9.794C11.4775 9.961 11.435 10.2745 11.602 10.4945C11.769 10.7135 12.0825 10.7575 12.3025 10.59C14.874 8.6365 18.537 8.889 20.824 11.1755C21.516 11.8675 22.012 12.68 22.326 13.544C22.1295 13.372 21.8335 13.375 21.646 13.562L16.855 18.353C16.677 18.531 16.393 18.549 16.1945 18.394L12.192 15.281C12.0405 15.163 11.8335 15.142 11.6615 15.2285L10.276 15.9215C10.029 16.045 9.929 16.3455 10.0525 16.5925C10.176 16.8395 10.4755 16.94 10.7235 16.816L11.8275 16.264L15.581 19.1835C15.8525 19.395 16.177 19.499 16.501 19.499C16.8875 19.499 17.272 19.351 17.5625 19.0605L22.3535 14.2695C22.4255 14.1975 22.4615 14.108 22.4805 14.015C23.091 16.2035 22.5415 18.6505 20.824 20.368C18.29 22.9025 14.166 22.902 11.6315 20.368C9.4875 18.224 9.117 14.818 10.75 12.2695C10.899 12.037 10.8315 11.728 10.599 11.579C10.3665 11.4295 10.057 11.498 9.9085 11.73C8.0235 14.671 8.451 18.6015 10.9245 21.075C12.3865 22.537 14.3075 23.268 16.228 23.268C18.1485 23.268 20.069 22.537 21.531 21.075C24.4555 18.1505 24.4555 13.3925 21.531 10.4685C20.093 9.0305 18.183 8.2955 16.2625 8.2845C16.618 8.0725 16.882 7.7225 16.9685 7.305C18.955 7.4775 20.826 8.3495 22.238 9.762C23.8435 11.3675 24.7275 13.502 24.7275 15.7725C24.7275 18.043 23.843 20.1775 22.238 21.783C20.633 23.3885 18.498 24.2725 16.2275 24.2725C13.957 24.2725 11.8225 23.388 10.217 21.783C8.6115 20.178 7.7275 18.043 7.7275 15.7725C7.7275 13.502 8.612 11.3675 10.217 9.762C10.685 9.294 11.205 8.882 11.7625 8.537C11.9975 8.3915 12.07 8.0835 11.925 7.849C11.7795 7.614 11.471 7.542 11.237 7.6865C10.6135 8.072 10.033 8.5325 9.5105 9.055C7.716 10.849 6.728 13.235 6.728 15.7725C6.728 17.453 7.17 19.062 7.9835 20.4815L6.3285 22.1365C5.743 21.5515 4.792 21.5525 4.207 22.1365C3.6225 22.7215 3.6225 23.673 4.207 24.258L1.732 26.733C0.7575 27.708 0.7575 29.294 1.732 30.2685C2.2195 30.755 2.86 30.999 3.5 30.999C4.14 30.999 4.7805 30.7555 5.268 30.268L7.743 27.793C8.0355 28.085 8.4195 28.231 8.8035 28.231C9.188 28.231 9.572 28.085 9.8645 27.7925C10.449 27.2075 10.449 26.256 9.8645 25.671L11.5195 24.016C12.5885 24.629 13.7655 25.025 15.0005 25.1835V28C15.0005 28.276 15.2245 28.5 15.5005 28.5H17.0925C17.2995 29.0805 17.8495 29.5 18.5005 29.5C19.1515 29.5 19.7015 29.0805 19.9085 28.5H22.362L24.743 29.9285C24.8205 29.9755 24.9095 30 25 30H28.092C28.299 30.5805 28.849 31 29.5 31C30.327 31 31 30.327 31 29.5C31 28.673 30.327 28 29.5 28ZM26.5 25C26.7755 25 27 25.2245 27 25.5C27 25.7755 26.7755 26 26.5 26C26.2245 26 26 25.7755 26 25.5C26 25.2245 26.2245 25 26.5 25ZM4.5 6C4.2245 6 4 5.7755 4 5.5C4 5.2245 4.2245 5 4.5 5C4.7755 5 5 5.2245 5 5.5C5 5.7755 4.7755 6 4.5 6ZM15.5 6.5C15.7755 6.5 16 6.7245 16 7C16 7.2755 15.7755 7.5 15.5 7.5C15.2245 7.5 15 7.2755 15 7C15 6.7245 15.2245 6.5 15.5 6.5ZM4.561 29.561C3.976 30.145 3.0245 30.1455 2.4395 29.561C1.855 28.976 1.855 28.0245 2.4395 27.4395L4.9145 24.9645L7.036 27.086L4.561 29.561ZM9.157 27.0855C8.9625 27.281 8.645 27.281 8.4495 27.0855L4.914 23.55C4.719 23.355 4.719 23.038 4.914 22.843C5.1085 22.648 5.426 22.6475 5.6215 22.843L5.9745 23.196C5.9745 23.196 5.9745 23.1965 5.975 23.1965C5.9755 23.1965 5.9755 23.1965 5.9755 23.197L8.803 26.025L9.1565 26.3785C9.352 26.5735 9.352 26.891 9.157 27.0855ZM9.157 24.9645L7.0355 22.843L8.54 21.338C8.833 21.7415 9.151 22.13 9.51 22.4895C9.8695 22.849 10.258 23.1665 10.6615 23.4595L9.157 24.9645ZM18.5 28.5C18.2245 28.5 18 28.2755 18 28C18 27.7245 18.2245 27.5 18.5 27.5C18.7755 27.5 19 27.7245 19 28C19 28.2755 18.7755 28.5 18.5 28.5ZM29.5 30C29.2245 30 29 29.7755 29 29.5C29 29.2245 29.2245 29 29.5 29C29.7755 29 30 29.2245 30 29.5C30 29.7755 29.7755 30 29.5 30Z" fill="black"/>
</svg>
