<svg width="168" height="168" viewBox="0 0 168 168" fill="none" xmlns="http://www.w3.org/2000/svg">
<path d="M2 151.705C3.10457 151.705 4 150.81 4 149.705C4 148.601 3.10457 147.705 2 147.705C0.89543 147.705 0 148.601 0 149.705C0 150.81 0.89543 151.705 2 151.705Z" fill="black"/>
<path d="M11 147.705H8C7.46957 147.705 6.96086 147.916 6.58579 148.291C6.21071 148.666 6 149.175 6 149.705C6 150.236 6.21071 150.744 6.58579 151.119C6.96086 151.494 7.46957 151.705 8 151.705H11C11.5304 151.705 12.0391 151.494 12.4142 151.119C12.7893 150.744 13 150.236 13 149.705C13 149.175 12.7893 148.666 12.4142 148.291C12.0391 147.916 11.5304 147.705 11 147.705ZM160 147.705H157C156.47 147.705 155.961 147.916 155.586 148.291C155.211 148.666 155 149.175 155 149.705C155 150.236 155.211 150.744 155.586 151.119C155.961 151.494 156.47 151.705 157 151.705H160C160.53 151.705 161.039 151.494 161.414 151.119C161.789 150.744 162 150.236 162 149.705C162 149.175 161.789 148.666 161.414 148.291C161.039 147.916 160.53 147.705 160 147.705Z" fill="black"/>
<path d="M166 151.705C167.105 151.705 168 150.81 168 149.705C168 148.601 167.105 147.705 166 147.705C164.895 147.705 164 148.601 164 149.705C164 150.81 164.895 151.705 166 151.705Z" fill="black"/>
<path d="M118.154 155.705H109.846C109.343 155.745 108.874 155.974 108.532 156.344C108.19 156.715 108 157.201 108 157.705C108 158.209 108.19 158.695 108.532 159.066C108.874 159.437 109.343 159.665 109.846 159.705H118.154C118.657 159.665 119.126 159.437 119.468 159.066C119.81 158.695 120 158.209 120 157.705C120 157.201 119.81 156.715 119.468 156.344C119.126 155.974 118.657 155.745 118.154 155.705ZM58.1539 155.705H49.8462C49.3434 155.745 48.8742 155.974 48.5321 156.344C48.19 156.715 48 157.201 48 157.705C48 158.209 48.19 158.695 48.5321 159.066C48.8742 159.437 49.3434 159.665 49.8462 159.705H58.1539C58.6567 159.665 59.1258 159.437 59.468 159.066C59.8101 158.695 60.0001 158.209 60.0001 157.705C60.0001 157.201 59.8101 156.715 59.468 156.344C59.1258 155.974 58.6567 155.745 58.1539 155.705ZM104 155.705H64C63.4696 155.705 62.9609 155.916 62.5858 156.291C62.2107 156.666 62 157.175 62 157.705C62 158.236 62.2107 158.744 62.5858 159.119C62.9609 159.494 63.4696 159.705 64 159.705H79.94V161.705H72C71.4696 161.705 70.9609 161.916 70.5858 162.291C70.2107 162.666 70 163.175 70 163.705C70 164.236 70.2107 164.744 70.5858 165.119C70.9609 165.494 71.4696 165.705 72 165.705H97C97.5305 165.705 98.0392 165.494 98.4142 165.119C98.7893 164.744 99 164.236 99 163.705C99 163.175 98.7893 162.666 98.4142 162.291C98.0392 161.916 97.5305 161.705 97 161.705H88.06V159.705H104C104.53 159.705 105.039 159.494 105.414 159.119C105.789 158.744 106 158.236 106 157.705C106 157.175 105.789 156.666 105.414 156.291C105.039 155.916 104.53 155.705 104 155.705Z" fill="#00CCFF"/>
<path d="M2 151.705C3.10457 151.705 4 150.81 4 149.705C4 148.601 3.10457 147.705 2 147.705C0.89543 147.705 0 148.601 0 149.705C0 150.81 0.89543 151.705 2 151.705Z" fill="black"/>
<path d="M11 147.705H8C7.46957 147.705 6.96086 147.916 6.58579 148.291C6.21071 148.666 6 149.175 6 149.705C6 150.236 6.21071 150.744 6.58579 151.119C6.96086 151.494 7.46957 151.705 8 151.705H11C11.5304 151.705 12.0391 151.494 12.4142 151.119C12.7893 150.744 13 150.236 13 149.705C13 149.175 12.7893 148.666 12.4142 148.291C12.0391 147.916 11.5304 147.705 11 147.705ZM160 147.705H157C156.47 147.705 155.961 147.916 155.586 148.291C155.211 148.666 155 149.175 155 149.705C155 150.236 155.211 150.744 155.586 151.119C155.961 151.494 156.47 151.705 157 151.705H160C160.53 151.705 161.039 151.494 161.414 151.119C161.789 150.744 162 150.236 162 149.705C162 149.175 161.789 148.666 161.414 148.291C161.039 147.916 160.53 147.705 160 147.705Z" fill="black"/>
<path d="M166 151.705C167.105 151.705 168 150.81 168 149.705C168 148.601 167.105 147.705 166 147.705C164.895 147.705 164 148.601 164 149.705C164 150.81 164.895 151.705 166 151.705Z" fill="black"/>
<path d="M118.154 155.705H109.846C109.343 155.745 108.874 155.974 108.532 156.344C108.19 156.715 108 157.201 108 157.705C108 158.209 108.19 158.695 108.532 159.066C108.874 159.437 109.343 159.665 109.846 159.705H118.154C118.657 159.665 119.126 159.437 119.468 159.066C119.81 158.695 120 158.209 120 157.705C120 157.201 119.81 156.715 119.468 156.344C119.126 155.974 118.657 155.745 118.154 155.705ZM58.1539 155.705H49.8461C49.3433 155.745 48.8742 155.974 48.5321 156.344C48.1899 156.715 48 157.201 48 157.705C48 158.209 48.1899 158.695 48.5321 159.066C48.8742 159.437 49.3433 159.665 49.8461 159.705H58.1539C58.6567 159.665 59.1258 159.437 59.4679 159.066C59.8101 158.695 60 158.209 60 157.705C60 157.201 59.8101 156.715 59.4679 156.344C59.1258 155.974 58.6567 155.745 58.1539 155.705ZM104 155.705H64C63.4696 155.705 62.9609 155.916 62.5858 156.291C62.2107 156.666 62 157.175 62 157.705C62 158.236 62.2107 158.744 62.5858 159.119C62.9609 159.494 63.4696 159.705 64 159.705H79.94V161.705H72C71.4696 161.705 70.9609 161.916 70.5858 162.291C70.2107 162.666 70 163.175 70 163.705C70 164.236 70.2107 164.744 70.5858 165.119C70.9609 165.494 71.4696 165.705 72 165.705H97C97.5304 165.705 98.0391 165.494 98.4142 165.119C98.7893 164.744 99 164.236 99 163.705C99 163.175 98.7893 162.666 98.4142 162.291C98.0391 161.916 97.5304 161.705 97 161.705H88.06V159.705H104C104.53 159.705 105.039 159.494 105.414 159.119C105.789 158.744 106 158.236 106 157.705C106 157.175 105.789 156.666 105.414 156.291C105.039 155.916 104.53 155.705 104 155.705ZM128 31.7051H124C123.47 31.7051 122.961 31.9158 122.586 32.2909C122.211 32.6659 122 33.1746 122 33.7051C122 34.2355 122.211 34.7442 122.586 35.1193C122.961 35.4944 123.47 35.7051 124 35.7051H128C128.53 35.7051 129.039 35.4944 129.414 35.1193C129.789 34.7442 130 34.2355 130 33.7051C130 33.1746 129.789 32.6659 129.414 32.2909C129.039 31.9158 128.53 31.7051 128 31.7051ZM116 31.7051H112C111.47 31.7051 110.961 31.9158 110.586 32.2909C110.211 32.6659 110 33.1746 110 33.7051C110 34.2355 110.211 34.7442 110.586 35.1193C110.961 35.4944 111.47 35.7051 112 35.7051H116C116.53 35.7051 117.039 35.4944 117.414 35.1193C117.789 34.7442 118 34.2355 118 33.7051C118 33.1746 117.789 32.6659 117.414 32.2909C117.039 31.9158 116.53 31.7051 116 31.7051ZM84 75.7051V51.7051C84 50.6442 83.5786 49.6268 82.8284 48.8766C82.0783 48.1265 81.0609 47.7051 80 47.7051H42C40.9391 47.7051 39.9217 48.1265 39.1716 48.8766C38.4214 49.6268 38 50.6442 38 51.7051V75.7051C38 76.7659 38.4214 77.7834 39.1716 78.5335C39.9217 79.2837 40.9391 79.7051 42 79.7051H80C81.0609 79.7051 82.0783 79.2837 82.8284 78.5335C83.5786 77.7834 84 76.7659 84 75.7051ZM42 51.7051H80V75.7051H42V51.7051ZM94 53.7051H128C128.53 53.7051 129.039 53.4944 129.414 53.1193C129.789 52.7442 130 52.2355 130 51.7051C130 51.1746 129.789 50.6659 129.414 50.2909C129.039 49.9158 128.53 49.7051 128 49.7051H94C93.4696 49.7051 92.9609 49.9158 92.5858 50.2909C92.2107 50.6659 92 51.1746 92 51.7051C92 52.2355 92.2107 52.7442 92.5858 53.1193C92.9609 53.4944 93.4696 53.7051 94 53.7051Z" fill="#00CCFF"/>
<path d="M94 61.7051H128C128.53 61.7051 129.039 61.4944 129.414 61.1193C129.789 60.7442 130 60.2355 130 59.7051C130 59.1746 129.789 58.6659 129.414 58.2909C129.039 57.9158 128.53 57.7051 128 57.7051H94C93.4696 57.7051 92.9609 57.9158 92.5858 58.2909C92.2107 58.6659 92 59.1746 92 59.7051C92 60.2355 92.2107 60.7442 92.5858 61.1193C92.9609 61.4944 93.4696 61.7051 94 61.7051Z" fill="black"/>
<path d="M94 69.7051H128C128.53 69.7051 129.039 69.4944 129.414 69.1193C129.789 68.7442 130 68.2355 130 67.7051C130 67.1746 129.789 66.6659 129.414 66.2909C129.039 65.9158 128.53 65.7051 128 65.7051H94C93.4696 65.7051 92.9609 65.9158 92.5858 66.2909C92.2107 66.6659 92 67.1746 92 67.7051C92 68.2355 92.2107 68.7442 92.5858 69.1193C92.9609 69.4944 93.4696 69.7051 94 69.7051Z" fill="#00CCFF"/>
<path d="M130 75.7051C130 75.1747 129.789 74.666 129.414 74.2909C129.039 73.9158 128.53 73.7051 128 73.7051H94C93.4696 73.7051 92.9609 73.9158 92.5858 74.2909C92.2107 74.6659 92 75.1746 92 75.7051C92 76.2355 92.2107 76.7442 92.5858 77.1193C92.9609 77.4944 93.4696 77.7051 94 77.7051H128C128.53 77.7051 129.039 77.4943 129.414 77.1193C129.789 76.7442 130 76.2355 130 75.7051Z" fill="black"/>
<path d="M32 123.705H66.4973C65.6612 122.527 65.1603 121.145 65.0479 119.705H34V43.7051H134V119.705H102.952C102.84 121.145 102.339 122.527 101.503 123.705H136C137.104 123.705 138 122.81 138 120.705V28.7051C138 26.3965 135.309 23.7051 132 23.7051H36C32.6914 23.7051 30 26.3965 30 28.7051V120.705C30 122.81 30.8955 123.705 32 123.705ZM34 29.7051C34.0007 29.1749 34.2116 28.6666 34.5865 28.2916C34.9615 27.9167 35.4698 27.7058 36 27.7051H132C132.53 27.7058 133.039 27.9167 133.413 28.2916C133.788 28.6666 133.999 29.1749 134 29.7051V39.7051H34V29.7051Z" fill="black"/>
<path d="M80.9839 134.332C81.3594 134.763 81.8228 135.109 82.3431 135.346C82.8634 135.583 83.4284 135.705 84 135.705C84.5716 135.705 85.1366 135.583 85.6569 135.346C86.1772 135.109 86.6407 134.763 87.0161 134.332L97.9564 121.773C98.4793 121.201 98.8245 120.489 98.9499 119.724C99.0753 118.958 98.9755 118.173 98.6628 117.464C98.35 116.754 97.8378 116.151 97.1884 115.727C96.539 115.304 95.7804 115.078 95.005 115.078H91V95.7051C91 94.6442 90.5786 93.6268 89.8284 92.8767C89.0783 92.1265 88.0609 91.7051 87 91.7051H81C79.9391 91.7051 78.9217 92.1265 78.1716 92.8767C77.4214 93.6268 77 94.6442 77 95.7051V115.078H73C72.2323 115.078 71.4808 115.299 70.8352 115.714C70.1897 116.13 69.6773 116.722 69.3593 117.421C69.0413 118.12 68.9311 118.895 69.0418 119.655C69.1526 120.414 69.4796 121.126 69.9839 121.705L80.9839 134.332ZM81 119.078V95.7051H87V119.078H95L84 131.705L73 119.078H81Z" fill="#00CCFF"/>
<path d="M150.721 147.705H101V143.705H140C142.121 143.702 144.154 142.859 145.654 141.359C147.154 139.859 147.998 137.826 148 135.705V57.7048C147.997 55.9331 147.406 54.2126 146.32 52.8125C145.235 51.4125 143.715 50.4122 142 49.9681V54.2596C142.606 54.6077 143.111 55.1094 143.462 55.7142C143.813 56.319 143.998 57.0055 144 57.7048V135.705C144 136.766 143.579 137.783 142.828 138.533C142.078 139.283 141.061 139.705 140 139.705H28C26.9391 139.705 25.9217 139.283 25.1716 138.533C24.4214 137.783 24 136.766 24 135.705V57.7048C24.0016 57.0055 24.1873 56.319 24.5383 55.7142C24.8894 55.1094 25.3935 54.6077 26 54.2596V49.9681C24.2849 50.4122 22.7654 51.4125 21.6797 52.8125C20.594 54.2126 20.0032 55.9331 20 57.7048V135.705C20.0024 137.826 20.846 139.859 22.3458 141.359C23.8456 142.859 25.879 143.702 28 143.705H67V147.705H17.2787C16.9942 147.668 16.705 147.692 16.4305 147.775C16.1559 147.859 15.9024 148 15.6867 148.189C15.4711 148.378 15.2983 148.611 15.18 148.873C15.0616 149.134 15.0004 149.418 15.0004 149.705C15.0004 149.992 15.0616 150.275 15.18 150.537C15.2983 150.798 15.4711 151.031 15.6867 151.221C15.9024 151.41 16.1559 151.551 16.4305 151.635C16.705 151.718 16.9942 151.742 17.2787 151.705H150.721C151.006 151.742 151.295 151.718 151.57 151.635C151.844 151.551 152.098 151.41 152.313 151.221C152.529 151.031 152.702 150.798 152.82 150.537C152.938 150.275 153 149.992 153 149.705C153 149.418 152.938 149.134 152.82 148.873C152.702 148.611 152.529 148.378 152.313 148.189C152.098 148 151.844 147.859 151.57 147.775C151.295 147.692 151.006 147.668 150.721 147.705ZM71 147.705V143.705H97V147.705H71ZM108 20.186C108.593 20.186 109.173 20.01 109.667 19.6804C110.16 19.3507 110.545 18.8822 110.772 18.334C110.999 17.7858 111.058 17.1827 110.942 16.6007C110.827 16.0188 110.541 15.4842 110.121 15.0647C109.702 14.6451 109.167 14.3594 108.585 14.2436C108.003 14.1279 107.4 14.1873 106.852 14.4143C106.304 14.6414 105.835 15.0259 105.506 15.5193C105.176 16.0126 105 16.5926 105 17.186C105.001 17.9813 105.317 18.7439 105.88 19.3063C106.442 19.8687 107.205 20.1851 108 20.186ZM108 15.686C108.297 15.686 108.587 15.774 108.833 15.9388C109.08 16.1036 109.272 16.3379 109.386 16.612C109.499 16.886 109.529 17.1876 109.471 17.4786C109.413 17.7696 109.27 18.0369 109.061 18.2466C108.851 18.4564 108.584 18.5993 108.293 18.6572C108.002 18.715 107.7 18.6853 107.426 18.5718C107.152 18.4583 106.918 18.266 106.753 18.0193C106.588 17.7727 106.5 17.4826 106.5 17.186C106.5 16.7883 106.659 16.407 106.94 16.1258C107.221 15.8445 107.602 15.6864 108 15.686ZM158.305 68.7048C157.909 68.7048 157.522 68.8221 157.194 69.0419C156.865 69.2616 156.608 69.574 156.457 69.9395C156.306 70.3049 156.266 70.707 156.343 71.095C156.42 71.483 156.611 71.8393 156.891 72.119C157.17 72.3987 157.527 72.5892 157.915 72.6664C158.302 72.7436 158.705 72.704 159.07 72.5526C159.436 72.4012 159.748 72.1449 159.968 71.816C160.187 71.4871 160.305 71.1004 160.305 70.7048C160.304 70.1746 160.093 69.6662 159.718 69.2913C159.343 68.9163 158.835 68.7054 158.305 68.7048ZM158.305 71.7048C158.107 71.7048 157.914 71.6462 157.749 71.5363C157.585 71.4264 157.457 71.2702 157.381 71.0875C157.305 70.9048 157.285 70.7037 157.324 70.5097C157.363 70.3157 157.458 70.1376 157.598 69.9977C157.737 69.8579 157.916 69.7626 158.11 69.724C158.304 69.6855 158.505 69.7052 158.687 69.7809C158.87 69.8566 159.026 69.9848 159.136 70.1493C159.246 70.3137 159.305 70.507 159.305 70.7048C159.304 70.97 159.199 71.2242 159.012 71.4116C158.824 71.5991 158.57 71.7046 158.305 71.7048ZM6 7.9834C5.60444 7.9834 5.21776 8.1007 4.88886 8.32046C4.55996 8.54022 4.30362 8.85258 4.15224 9.21803C4.00087 9.58348 3.96126 9.98562 4.03843 10.3736C4.1156 10.7615 4.30608 11.1179 4.58579 11.3976C4.86549 11.6773 5.22186 11.8678 5.60982 11.945C5.99778 12.0221 6.39992 11.9825 6.76537 11.8312C7.13082 11.6798 7.44318 11.4234 7.66294 11.0945C7.8827 10.7656 8 10.379 8 9.9834C7.99939 9.45315 7.78849 8.9448 7.41355 8.56985C7.0386 8.19491 6.53025 7.984 6 7.9834ZM6 10.9834C5.80222 10.9834 5.60888 10.9247 5.44443 10.8149C5.27998 10.705 5.15181 10.5488 5.07612 10.3661C5.00043 10.1834 4.98063 9.98229 5.01922 9.78831C5.0578 9.59433 5.15304 9.41614 5.29289 9.27629C5.43275 9.13644 5.61093 9.0412 5.80491 9.00261C5.99889 8.96403 6.19996 8.98383 6.38268 9.05952C6.56541 9.13521 6.72159 9.26338 6.83147 9.42783C6.94135 9.59228 7 9.78562 7 9.9834C6.99974 10.2485 6.89429 10.5027 6.70682 10.6902C6.51934 10.8777 6.26514 10.9831 6 10.9834ZM147.856 29.7048C147.461 29.7048 147.074 29.8221 146.745 30.0419C146.416 30.2616 146.16 30.574 146.009 30.9395C145.857 31.3049 145.818 31.707 145.895 32.095C145.972 32.483 146.162 32.8393 146.442 33.119C146.722 33.3987 147.078 33.5892 147.466 33.6664C147.854 33.7436 148.256 33.704 148.622 33.5526C148.987 33.4012 149.3 33.1449 149.519 32.816C149.739 32.4871 149.856 32.1004 149.856 31.7048C149.856 31.1746 149.645 30.6662 149.27 30.2913C148.895 29.9163 148.387 29.7054 147.856 29.7048ZM147.856 32.7048C147.659 32.7048 147.465 32.6462 147.301 32.5363C147.136 32.4264 147.008 32.2702 146.933 32.0875C146.857 31.9048 146.837 31.7037 146.876 31.5097C146.914 31.3157 147.009 31.1376 147.149 30.9977C147.289 30.8579 147.467 30.7626 147.661 30.724C147.855 30.6854 148.056 30.7053 148.239 30.7809C148.422 30.8566 148.578 30.9848 148.688 31.1492C148.798 31.3137 148.856 31.507 148.856 31.7048C148.856 31.97 148.751 32.2242 148.563 32.4116C148.376 32.5991 148.122 32.7046 147.856 32.7048ZM32 17.186C32 16.7904 31.8827 16.4037 31.6629 16.0748C31.4432 15.7459 31.1308 15.4896 30.7654 15.3382C30.3999 15.1868 29.9978 15.1472 29.6098 15.2244C29.2219 15.3016 28.8655 15.4921 28.5858 15.7718C28.3061 16.0515 28.1156 16.4078 28.0384 16.7958C27.9613 17.1838 28.0009 17.5859 28.1522 17.9513C28.3036 18.3168 28.56 18.6292 28.8889 18.8489C29.2178 19.0687 29.6044 19.186 30 19.186C30.5302 19.1854 31.0386 18.9745 31.4135 18.5995C31.7885 18.2246 31.9994 17.7162 32 17.186ZM29 17.186C29 16.9882 29.0586 16.7949 29.1685 16.6304C29.2784 16.466 29.4346 16.3378 29.6173 16.2621C29.8 16.1864 30.0011 16.1666 30.1951 16.2052C30.3891 16.2438 30.5673 16.339 30.7071 16.4789C30.847 16.6187 30.9422 16.7969 30.9808 16.9909C31.0194 17.1849 30.9996 17.3859 30.9239 17.5687C30.8482 17.7514 30.72 17.9076 30.5556 18.0174C30.3911 18.1273 30.1978 18.186 30 18.186C29.7349 18.1857 29.4807 18.0803 29.2932 17.8928C29.1057 17.7053 29.0003 17.4511 29 17.186Z" fill="black"/>
<path d="M10.8878 68.7155L12.3748 66.7605L11.4358 66.2285L10.4808 68.4185H10.4498L9.47982 66.2435L8.52482 66.7915L9.99582 68.7005V68.7315L7.69482 68.4345V69.4975L10.0108 69.2005V69.2325L8.52482 71.1405L9.41582 71.7045L10.4338 69.4975H10.4648L11.4038 71.6885L12.3898 71.1255L10.8878 69.2475V69.2165L13.2498 69.4975V68.4345L10.8878 68.7465V68.7155Z" fill="#00CCFF"/>
<path d="M156.039 4.76516L155.183 5.86416L155.697 6.18916L156.283 4.91816H156.3L156.841 6.18016L157.409 5.85516L156.544 4.77416V4.75616L157.904 4.91816V4.30516L156.544 4.48616V4.46816L157.4 3.34116L156.859 3.03516L156.31 4.29616H156.292L155.733 3.04416L155.183 3.35916L156.03 4.45916V4.47716L154.705 4.30516V4.91816L156.039 4.74716V4.76516Z" fill="#00CCFF"/>
<path d="M166.724 46.3193V45.2763L164.407 45.5823V45.5523L165.866 43.6343L164.945 43.1123L164.009 45.2603H163.977L163.027 43.1273L162.089 43.6643L163.533 45.5373V45.5673L161.276 45.2763V46.3193L163.548 46.0283V46.0583L162.089 47.9303L162.964 48.4833L163.963 46.3193H163.992L164.913 48.4683L165.881 47.9153L164.407 46.0743V46.0433L166.724 46.3193Z" fill="#00CCFF"/>
<path d="M73.3509 4.39992L74.6089 2.74492L73.8149 2.29492L73.0079 4.14792H72.9809L72.1599 2.30792L71.3519 2.77192L72.5969 4.38692V4.41292L70.6499 4.16192V5.06192L72.6099 4.81092V4.83692L71.3519 6.45192L72.1059 6.92892L72.9679 5.06192H72.9939L73.7879 6.91492L74.6219 6.43892L73.3509 4.84992V4.82392L75.3499 5.06192V4.16192L73.3509 4.42592V4.39992Z" fill="#00CCFF"/>
</svg>
