<svg width="32" height="32" viewBox="0 0 86 59" fill="none" xmlns="http://www.w3.org/2000/svg">
<path d="M85.8999 27.6193H85.7648C86.4823 28.2487 86.3029 28.6977 85.2267 28.9665L73.5159 32.0616L84.1455 46.4723C84.5043 47.0115 84.5944 47.395 84.4158 47.6228C84.0297 47.9809 83.5839 48.2687 83.0988 48.4734L83.0693 48.4857L69.3412 53.4761C60.6364 56.5293 55.8802 58.1912 55.0726 58.4616H54.9375C54.2146 58.8181 53.419 59.0024 52.613 59H52.5123H52.5172C52.1 58.9082 51.7065 58.7306 51.3617 58.4783C51.0169 58.2261 50.7285 57.9047 50.5146 57.5348L50.5072 57.5201C49.6096 56.3532 46.3342 50.6523 40.6811 40.4174C31.0737 42.9298 25.0586 44.4565 22.6359 44.9973C21.7839 45.3184 20.8396 45.2895 20.0088 44.917C19.178 44.5444 18.5281 43.8584 18.2007 43.0085L18.1934 42.9839L14.6919 35.2967C5.62834 15.8136 0.872131 5.48861 0.423293 4.32172C-0.384288 2.5255 -0.0255455 1.53725 1.49952 1.35697L3.24901 1.22177C12.5911 0.505571 17.7961 0.102404 18.8642 0.0122655C19.4476 -0.031522 20.033 0.0645533 20.5719 0.292515L20.5473 0.282682C20.9601 0.56539 21.2967 0.926765 21.5473 1.34468L21.5547 1.35943L42.4208 36.2432L68.5353 30.0482L59.9156 17.7909C59.2866 16.8928 59.6904 16.3544 61.127 16.1758L73.2432 14.1624C73.6966 14.0615 74.1689 14.0862 74.6094 14.2337L74.5897 14.2288C75.1303 14.5115 75.5824 14.8999 75.9288 15.3695L75.9362 15.3793L81.1847 21.8447C84.0563 25.4257 85.6272 27.3514 85.8975 27.6218L85.8999 27.6193ZM38.3812 37.315C38.8301 37.2249 38.8751 36.9553 38.5164 36.5062L18.9846 2.70168C18.9311 2.60832 18.8513 2.53284 18.7551 2.48473C18.6589 2.43661 18.5507 2.41801 18.444 2.43127H18.4464L4.17781 3.64322C4.08771 3.64322 4.04266 3.73336 4.04266 3.91364C4.04512 4.11031 4.09426 4.29468 4.18026 4.45693L4.17781 4.44956L21.8127 40.8132C21.9028 40.9935 21.9929 41.0836 22.083 41.0836H22.7563L32.3121 38.7851C36.2599 37.8034 38.283 37.3126 38.3812 37.3126V37.315ZM79.5728 44.9924L70.9531 33.1408C70.8466 32.9429 70.6854 32.7799 70.4887 32.6712L70.4838 32.6688C70.2777 32.6259 70.0634 32.65 69.872 32.7376L69.8794 32.7351L44.3079 39.471L52.7899 53.7465C53.0602 54.1956 53.2846 54.443 53.4632 54.4889C53.692 54.5306 53.928 54.5068 54.1438 54.4201L54.1364 54.4226L79.3074 45.7987C79.6662 45.7086 79.8455 45.6184 79.8455 45.5283C79.8339 45.4053 79.787 45.2883 79.7104 45.1915V45.194L79.5728 44.9924ZM81.1871 26.9458C81.9046 26.7655 82.1741 26.541 81.9955 26.2722C77.5907 20.795 75.1229 17.6975 74.5922 16.9797C74.4995 16.7802 74.3417 16.6181 74.1448 16.5203C73.9478 16.4224 73.7234 16.3946 73.5086 16.4413H73.5159L63.825 18.1916C63.4662 18.2818 63.4212 18.5063 63.6898 18.8652L71.3635 29.3697C74.6823 28.5617 77.9576 27.7529 81.1896 26.9433L81.1871 26.9458Z" fill="#fb503b"/>
</svg>
