<svg width="188" height="188" viewBox="0 0 188 188" fill="none" xmlns="http://www.w3.org/2000/svg">
<path d="M92.4924 134.861L53.1348 95.5033C60.1343 76.6945 71.1028 59.8213 85.0236 45.9006C109.972 20.9526 144.363 5.52626 182.45 5.52637C182.45 5.95644 182.43 6.4061 182.43 6.83617C181.922 65.6087 144.598 115.446 92.4924 134.861Z" fill="white"/>
<path d="M92.4924 134.861L53.1348 95.5031C126.766 136.874 175.626 23.7286 182.43 6.83594C181.922 65.6084 144.598 115.446 92.4924 134.861Z" fill="#DFE1E6"/>
<path d="M53.136 95.4875L31.995 74.3466C26.4055 68.7571 30.3554 59.1926 38.2801 59.2175L77.6057 53.9756C67.172 66.1484 58.8497 80.1843 53.136 95.4875ZM113.627 155.979L92.5112 134.863C107.814 129.149 121.85 120.827 134.023 110.393L128.781 149.718C128.781 157.618 119.242 161.593 113.627 155.979Z" fill="#FAC41D"/>
<path d="M131.937 126.093C122.596 133.198 112.311 139.111 101.281 143.632L92.5117 134.862C107.815 129.149 121.851 120.826 134.024 110.393L131.937 126.093Z" fill="#F4A01E"/>
<path d="M170.99 60.4657C178.327 43.6307 182.466 25.0815 182.466 5.5296L182.466 5.5293H182.465C162.913 5.52932 144.364 9.66842 127.529 17.0047L170.99 60.4657Z" fill="#F37D7F"/>
<path d="M170.99 60.4657C178.327 43.6307 182.466 25.0815 182.466 5.5296L182.466 5.5293H182.465C162.913 5.52932 144.364 9.66842 127.529 17.0047L170.99 60.4657Z" fill="#F37D7F"/>
<path d="M170.985 60.6061C178.184 44.1177 182.266 25.9552 182.431 6.83594C180.024 12.812 172.348 30.8356 160.18 49.8012L170.985 60.6061Z" fill="#EF3F3E"/>
<path d="M121.014 84.5479C130.716 84.5479 138.581 76.683 138.581 66.981C138.581 57.2791 130.716 49.4141 121.014 49.4141C111.312 49.4141 103.447 57.2791 103.447 66.981C103.447 76.683 111.312 84.5479 121.014 84.5479Z" fill="#5EA7DC"/>
<path d="M60.2632 152.533C60.2354 152.505 60.2045 152.482 60.1766 152.454C60.6837 152.049 61.1771 151.619 61.6469 151.149C68.4954 144.3 68.4954 133.197 61.6469 126.348C54.7984 119.5 43.6947 119.5 36.8462 126.348C36.3764 126.818 35.9461 127.311 35.5407 127.819C35.5131 127.791 35.4902 127.76 35.4625 127.732C28.6139 120.883 17.5104 120.883 10.6618 127.732C3.81326 134.581 3.81326 145.684 10.6618 152.533C17.5104 159.381 28.6139 159.381 35.4625 152.533C35.9323 152.063 35.9323 152.063 35.4625 152.533C28.6139 159.381 28.6141 170.485 35.4625 177.333C42.311 184.182 53.4147 184.182 60.2633 177.333C67.1118 170.485 67.1117 159.381 60.2632 152.533Z" fill="white"/>
<path d="M60.2726 177.327C53.4099 184.19 42.3045 184.19 35.4614 177.347C31.336 173.221 29.6936 167.552 30.5539 162.233C31.2186 163.406 32.0789 164.501 33.0956 165.518C39.9387 172.361 51.0442 172.361 57.8873 165.518C60.6245 162.781 62.2668 159.34 62.8143 155.781C66.9788 162.527 66.1185 171.481 60.2726 177.327Z" fill="#DFE1E6"/>
<path d="M89.5774 145.617C88.4974 144.537 86.7479 144.537 85.6679 145.617L78.2162 153.07C77.1362 154.15 77.1362 155.901 78.2162 156.98C79.2962 158.06 81.0457 158.06 82.1257 156.98L89.5774 149.527C90.6574 148.447 90.6574 146.696 89.5774 145.617ZM42.3776 98.4174C41.2976 97.3374 39.5481 97.3374 38.4682 98.4174L31.0151 105.869C29.9351 106.948 29.9351 108.699 31.0151 109.779C32.095 110.859 33.8446 110.859 34.9245 109.779L42.3776 102.327C43.4576 101.248 43.4576 99.4974 42.3776 98.4174Z" fill="#010101"/>
<path d="M185.23 5.52935V2.76465H182.465C149.113 2.76465 123.4 15.9676 122.006 16.4356L122.108 16.5376C104.674 24.8784 89.0427 36.7364 76.2902 51.3608L38.089 56.4537C33.3669 56.5144 29.3252 59.2481 27.5149 63.6206C25.6789 68.0498 26.6468 72.9083 30.0393 76.3007L49.9222 96.1849L49.916 96.2017L68.8992 115.186L61.4983 122.586C53.6322 116.598 42.58 117.14 35.3378 123.958C27.5132 117.992 16.0848 118.398 8.70595 125.777C0.789822 133.693 0.791177 146.573 8.7073 154.487C14.0092 159.789 21.4782 161.539 28.2317 159.772C26.47 166.522 28.229 174.009 33.5073 179.287C41.4298 187.213 54.2845 187.224 62.2181 179.287C69.4134 172.092 70.1671 160.745 64.023 152.669C70.8609 145.422 71.3942 134.356 65.4081 126.495L72.8087 119.095L91.7916 138.079L91.811 138.071L111.672 157.934C119.005 165.266 131.375 160.074 131.544 149.914L136.638 111.701C151.26 98.9491 163.117 83.3191 171.457 65.8865L171.559 65.9884C172.207 64.042 185.23 39.4878 185.23 5.52935ZM58.3086 154.487C64.0675 160.248 64.0675 169.618 58.3086 175.378C52.5363 181.15 43.191 181.152 37.4167 175.378C31.6578 169.618 31.6578 160.248 37.4167 154.487L37.7691 154.135C38.309 153.595 38.579 152.888 38.579 152.18C38.579 151.473 38.309 150.766 37.7691 150.226C36.6891 149.146 34.9396 149.146 33.8596 150.226L33.5073 150.578C27.7349 156.35 18.3908 156.352 12.6167 150.578C6.85647 144.819 6.85647 135.446 12.6154 129.686C18.5266 123.775 27.9114 124.099 33.3925 129.563C34.0008 130.29 34.8681 130.633 35.7266 130.576C37.2871 130.472 37.6621 129.441 38.8005 128.302C44.5726 122.53 53.9167 122.528 59.691 128.302C65.4667 134.078 65.4653 143.42 59.691 149.194C58.5513 150.334 57.5518 150.661 57.4595 152.338C57.415 153.124 57.7524 153.931 58.3086 154.487ZM169.68 56.2902L131.704 18.3148C147.019 12.0533 163.308 8.66113 179.671 8.32375C179.345 24.1451 176.139 40.4904 169.68 56.2902ZM32.6231 65.7373C33.5964 63.3857 35.6996 61.9817 38.2713 61.9817L71.0563 57.6376C63.2163 67.7663 56.5562 79.6051 52.0989 90.5414L33.9487 72.3912C31.8212 70.2623 31.8684 67.5584 32.6231 65.7373ZM130.36 116.941L126.04 149.352L126.016 149.718C126.016 155.187 119.451 157.894 115.582 154.024L97.4573 135.898C108.477 131.409 120.245 124.77 130.36 116.941ZM93.1605 131.627L74.7659 113.232C74.7659 113.232 74.7653 113.231 74.7646 113.23L74.7625 113.229L56.3706 94.836C69.4649 61.079 95.1369 35.0127 126.246 20.6757L167.319 61.748C152.91 93.0125 126.766 118.596 93.1605 131.627Z" fill="#010101"/>
<path d="M106.639 52.6037C98.7139 60.5307 98.7139 73.4294 106.639 81.3564C114.587 89.3012 127.443 89.3027 135.392 81.3564C143.318 73.4294 143.318 60.5307 135.392 52.6037C127.444 44.6589 114.589 44.6574 106.639 52.6037ZM131.483 77.4469C125.686 83.2411 116.324 83.2193 110.549 77.4469C104.779 71.6759 104.779 62.2842 110.549 56.5132C116.346 50.719 125.707 50.7403 131.483 56.5132C137.252 62.2842 137.252 71.6758 131.483 77.4469Z" fill="#010101"/>
<path d="M53.2989 64.915L46.4128 65.5522C45.2734 65.6575 44.4337 66.6673 44.5404 67.808C44.6389 68.8825 45.5434 69.6898 46.6018 69.6898C46.6666 69.6898 46.73 69.6871 46.7962 69.6804L53.6823 69.0432C54.8216 68.9379 55.6613 67.9281 55.5547 66.7874C55.4494 65.6467 54.441 64.7868 53.2989 64.915Z" fill="white"/>
</svg>
