<svg width="21" height="24" viewBox="0 0 21 24" fill="none" xmlns="http://www.w3.org/2000/svg">
<path d="M10.4999 23.8126C10.1858 23.8126 9.86709 23.7282 9.59053 23.5688L6.69834 21.8579C6.26709 21.6142 6.47803 21.5298 6.61865 21.4829C7.19521 21.2813 7.3124 21.2392 7.92646 20.8876C7.99209 20.8501 8.07646 20.8642 8.14209 20.9063L10.364 22.2235C10.4437 22.2704 10.5562 22.2704 10.6312 22.2235L19.289 17.2267C19.3687 17.1798 19.4202 17.086 19.4202 16.9923V6.99854C19.4202 6.9001 19.3687 6.81104 19.2843 6.75947L10.6312 1.76729C10.5515 1.72041 10.4437 1.72041 10.364 1.76729L1.71553 6.76416C1.63115 6.81104 1.57959 6.90479 1.57959 7.00322V16.9923C1.57959 17.086 1.63115 17.1798 1.71553 17.222L4.0874 18.5907C5.37646 19.2329 6.16396 18.4782 6.16396 17.7142V7.85166C6.16396 7.71104 6.27646 7.60322 6.41709 7.60322H7.51396C7.6499 7.60322 7.76709 7.71104 7.76709 7.85166V17.7188C7.76709 19.4345 6.82959 20.4188 5.20303 20.4188C4.70146 20.4188 4.30771 20.4188 3.21084 19.8751L0.94209 18.5673C0.37959 18.2439 0.0327148 17.6392 0.0327148 16.9876V6.99854C0.0327148 6.35166 0.37959 5.74229 0.94209 5.41885L9.59053 0.421973C10.139 0.112598 10.8655 0.112598 11.4093 0.421973L20.0671 5.42354C20.6296 5.74697 20.9765 6.35166 20.9765 7.00322V16.9923C20.9765 17.6392 20.6296 18.2439 20.0671 18.572L11.4093 23.5688C11.1327 23.7282 10.8187 23.8126 10.4999 23.8126ZM17.489 13.9642C17.489 12.0938 16.2233 11.597 13.5655 11.2454C10.8749 10.8892 10.603 10.7063 10.603 10.0782C10.603 9.55791 10.8327 8.86416 12.8249 8.86416C14.6015 8.86416 15.2577 9.24854 15.5296 10.4485C15.553 10.561 15.6562 10.6454 15.7733 10.6454H16.8983C16.9687 10.6454 17.0343 10.6173 17.0812 10.5657C17.128 10.5142 17.1515 10.4438 17.1468 10.3735C16.9733 8.30635 15.5999 7.34541 12.8249 7.34541C10.3546 7.34541 8.88271 8.38604 8.88271 10.1345C8.88271 12.0282 10.3499 12.5532 12.7171 12.7876C15.553 13.0642 15.7733 13.4813 15.7733 14.0392C15.7733 15.0048 14.9952 15.4173 13.1718 15.4173C10.8796 15.4173 10.378 14.8407 10.2093 13.7017C10.1905 13.5798 10.0874 13.4907 9.96084 13.4907H8.84053C8.6999 13.4907 8.59209 13.6032 8.59209 13.7392C8.59209 15.197 9.38428 16.936 13.1765 16.936C15.914 16.9313 17.489 15.8485 17.489 13.9642Z" fill="#41B883"/>
</svg>
