<svg width="32" height="32" viewBox="0 0 105 65" fill="none" xmlns="http://www.w3.org/2000/svg">
<path d="M51.893 64.2735C51.5484 64.2735 51.2039 64.1763 50.8922 64.0141L47.7422 62.1661C47.2664 61.9067 47.4961 61.8095 47.6602 61.7608C48.2836 61.5501 48.4148 61.5014 49.0875 61.1124C49.1531 61.08 49.2516 61.0962 49.3172 61.1286L51.7453 62.5552C51.8273 62.6038 51.9586 62.6038 52.0406 62.5552L61.5234 57.1407C61.6055 57.0921 61.6711 56.9948 61.6711 56.8813V46.0686C61.6711 45.9552 61.6219 45.8579 61.5234 45.8093L52.0406 40.411C51.9586 40.3624 51.8438 40.3624 51.7453 40.411L42.2625 45.8093C42.1641 45.8579 42.1148 45.9714 42.1148 46.0686V56.8813C42.1148 56.9786 42.1805 57.0759 42.2625 57.1245L44.8547 58.5997C46.2656 59.2968 47.1352 58.47 47.1352 57.6595V46.9764C47.1352 46.8305 47.25 46.7009 47.4141 46.7009H48.6117C48.7594 46.7009 48.8906 46.8143 48.8906 46.9764V57.6595C48.8906 59.5237 47.8734 60.5774 46.0852 60.5774C45.5438 60.5774 45.1008 60.5774 43.9031 59.9938L41.4094 58.5835C40.8023 58.2268 40.4086 57.5784 40.4086 56.8813V46.0686C40.4086 45.3716 40.7859 44.7069 41.4094 44.3665L50.8922 38.952C51.4992 38.6116 52.2867 38.6116 52.8773 38.952L62.3602 44.3665C62.9672 44.7231 63.3609 45.3716 63.3609 46.0686V56.8813C63.3609 57.5784 62.9836 58.243 62.3602 58.5835L52.8773 63.9979C52.5984 64.1763 52.2539 64.2735 51.893 64.2735ZM59.5547 53.6067C59.5547 51.5804 58.1766 51.0454 55.2562 50.6563C52.3031 50.2673 52.0078 50.0727 52.0078 49.3919C52.0078 48.8245 52.2539 48.0788 54.4359 48.0788C56.3883 48.0788 57.1102 48.5003 57.4055 49.7972C57.4383 49.9268 57.5367 50.0079 57.668 50.0079H58.8984C58.9805 50.0079 59.0461 49.9755 59.0953 49.9268C59.1445 49.862 59.1773 49.7972 59.1609 49.7161C58.9641 47.479 57.4711 46.4415 54.4359 46.4415C51.7289 46.4415 50.1211 47.5763 50.1211 49.4567C50.1211 51.5155 51.7289 52.0667 54.3211 52.3261C57.4219 52.6341 57.668 53.0718 57.668 53.6716C57.668 54.7253 56.8148 55.163 54.8133 55.163C52.3031 55.163 51.7453 54.547 51.5648 53.3149C51.5484 53.1852 51.4336 53.088 51.2859 53.088H50.0555C49.9078 53.088 49.7766 53.2015 49.7766 53.3636C49.7766 54.936 50.6461 56.8165 54.7969 56.8165C57.832 56.8165 59.5547 55.6493 59.5547 53.6067ZM68.4961 45.485C68.4961 46.4739 67.6758 47.2845 66.675 47.2845C65.6742 47.2845 64.8539 46.4739 64.8539 45.485C64.8539 44.4638 65.707 43.6856 66.675 43.6856C67.6594 43.6694 68.4961 44.4638 68.4961 45.485ZM68.2008 45.485C68.2008 44.6421 67.5117 43.9774 66.6586 43.9774C65.8219 43.9774 65.1328 44.6421 65.1328 45.485C65.1328 46.328 65.8219 47.0089 66.6586 47.0089C67.5117 46.9927 68.2008 46.3118 68.2008 45.485ZM67.4625 46.4901H67.0359C67.0195 46.3929 66.9539 45.8741 66.9539 45.8579C66.9211 45.7444 66.8883 45.6796 66.7406 45.6796H66.3797V46.4901H65.9859V44.4638H66.6914C66.9375 44.4638 67.4133 44.4638 67.4133 44.9987C67.4133 45.3716 67.1672 45.4526 67.0195 45.5013C67.2984 45.5175 67.3148 45.6958 67.3641 45.9552C67.3805 46.1173 67.4133 46.3929 67.4625 46.4901ZM67.0031 45.0636C67.0031 44.788 66.8063 44.788 66.7078 44.788H66.3797V45.3554H66.6914C66.9539 45.3554 67.0031 45.177 67.0031 45.0636ZM22.5258 21.963C22.5258 21.5253 22.2961 21.1362 21.9188 20.9255L11.8617 15.203C11.6977 15.1058 11.5008 15.0571 11.3039 15.0409H11.2055C11.0086 15.0409 10.8281 15.1058 10.6477 15.203L0.607031 20.9255C0.229688 21.1362 0 21.5415 0 21.963L0.0164063 37.3634C0.0164063 37.5741 0.13125 37.7686 0.311719 37.8821C0.492188 37.9956 0.721875 37.9956 0.91875 37.8821L6.89062 34.494C7.26797 34.2671 7.49766 33.878 7.49766 33.4565V26.2589C7.49766 25.8374 7.72734 25.4321 8.10469 25.2214L10.6477 23.7786C10.8445 23.6651 11.0414 23.6165 11.2547 23.6165C11.468 23.6165 11.6813 23.6651 11.8617 23.7786L14.4047 25.2214C14.782 25.4321 15.0117 25.8374 15.0117 26.2589V33.4565C15.0117 33.878 15.2414 34.2833 15.6187 34.494L21.5906 37.8821C21.7711 37.9956 22.0172 37.9956 22.1977 37.8821C22.3781 37.7849 22.493 37.5741 22.493 37.3634L22.5258 21.963ZM77.5195 5.15224V33.7483C77.5195 34.1698 77.2898 34.5751 76.9125 34.7858L66.8555 40.5245C66.4781 40.7352 66.0188 40.7352 65.6414 40.5245L55.5844 34.7858C55.207 34.5751 54.9773 34.1698 54.9773 33.7483V22.271C54.9773 21.8495 55.207 21.4442 55.5844 21.2335L65.6414 15.4948C66.0188 15.2841 66.4781 15.2841 66.8555 15.4948L69.3656 16.9214C69.6445 17.0835 70.0055 16.8727 70.0055 16.5647V1.32645C70.0055 0.872548 70.4977 0.580751 70.9078 0.807704L76.8961 4.11474C77.2734 4.30927 77.5195 4.71454 77.5195 5.15224ZM69.9727 26.0481C69.9727 25.9347 69.907 25.8374 69.825 25.7888L66.3797 23.811C66.2812 23.7624 66.1664 23.7624 66.068 23.811L62.6227 25.7888C62.5242 25.8374 62.475 25.9347 62.475 26.0481V29.9874C62.475 30.1009 62.5406 30.1981 62.6227 30.2468L66.068 32.2083C66.1664 32.2569 66.2812 32.2569 66.3633 32.2083L69.8086 30.2468C69.907 30.1981 69.9562 30.1009 69.9562 29.9874V26.0481H69.9727ZM104.393 25.9347C104.77 25.7239 105 25.3186 105 24.8972V22.1251C105 21.7036 104.77 21.2983 104.393 21.0876L94.4016 15.3489C94.0242 15.1382 93.5648 15.1382 93.1875 15.3489L83.1305 21.0876C82.7531 21.2983 82.5234 21.7036 82.5234 22.1251V33.6024C82.5234 34.0401 82.7531 34.4292 83.1305 34.6399L93.1219 40.2651C93.4828 40.4759 93.9422 40.4759 94.3195 40.2651L100.357 36.9419C100.767 36.7149 100.767 36.1313 100.357 35.9044L90.2344 30.1657C90.0375 30.0522 89.9227 29.8577 89.9227 29.647V26.0481C89.9227 25.8374 90.0375 25.6429 90.2344 25.5294L93.3844 23.73C93.5648 23.6165 93.8109 23.6165 93.9914 23.73L97.1414 25.5294C97.3219 25.6429 97.4531 25.8374 97.4531 26.0481V28.8688C97.4531 29.3227 97.9617 29.6145 98.3719 29.3876L104.393 25.9347ZM91.7109 26.502C91.6453 26.5507 91.5961 26.6155 91.5961 26.6966V28.9013C91.5961 28.9823 91.6453 29.0634 91.7109 29.0958L93.6469 30.1981C93.7125 30.2468 93.8109 30.2468 93.8766 30.1981L95.8125 29.0958C95.8781 29.0472 95.9273 28.9823 95.9273 28.9013V26.6966C95.9273 26.6155 95.8781 26.5345 95.8125 26.502L93.8766 25.3997C93.8109 25.3511 93.7125 25.3511 93.6469 25.3997L91.7109 26.502ZM50.0062 33.5538V22.1413C50.0062 21.7198 49.7437 21.3145 49.3664 21.1038L39.3422 15.3975C38.9977 15.203 38.5219 15.1706 38.1281 15.3975L28.1039 21.1038C27.7266 21.3145 27.4641 21.7036 27.4641 22.1413V33.5538C27.4641 34.0077 27.7758 34.3968 28.1203 34.5913L38.1609 40.2975C38.5547 40.5245 39.0141 40.5083 39.375 40.2975L49.3828 34.5913C49.6781 34.4292 49.8914 34.1536 49.9734 33.8294C49.9898 33.7483 50.0062 33.6511 50.0062 33.5538ZM37.8164 13.3063L37.6852 13.3874H37.8656L37.8164 13.3063ZM50.318 34.413L50.2523 34.2995V34.4454L50.318 34.413Z" fill=" #215732"/>
</svg>
