<svg width="94" height="94" viewBox="0 0 94 94" fill="none" xmlns="http://www.w3.org/2000/svg">
<path d="M7.22224 69.8184L12.625 67.7923V63.4022C10.629 61.356 9.50819 58.613 9.5 55.7545V39.1875H20.4375C22.5088 39.1899 24.4945 40.0137 25.9592 41.4783C27.4238 42.943 28.2476 44.9287 28.25 47V55.7545C28.2418 58.6132 27.121 61.3563 25.125 63.4028V67.7923L29.644 69.487C30.3738 68.9609 31.1651 68.526 32.0004 68.192L40.75 64.6922V60.2772C40.4033 59.9213 40.0811 59.5423 39.7856 59.1428L39.7738 59.1576L36.7142 56.7097C34.4123 54.8683 32.7393 52.3571 31.9265 49.5235C31.1136 46.6899 31.2012 43.6738 32.1769 40.8921C33.1527 38.1104 34.9685 35.7005 37.3733 33.9956C39.7782 32.2907 42.6533 31.375 45.6012 31.375H48.3988C51.3467 31.375 54.2218 32.2907 56.6266 33.9956C59.0314 35.7005 60.8472 38.1104 61.823 40.8921C62.7988 43.6738 62.8864 46.6899 62.0736 49.5235C61.2608 52.3571 59.5878 54.8682 57.2859 56.7097L54.2262 59.1576L54.2146 59.1431C53.919 59.5427 53.5968 59.9218 53.25 60.2778V64.6922L61.9996 68.192C62.8349 68.5261 63.6262 68.961 64.356 69.487L68.875 67.7923V63.4022C66.879 61.356 65.7582 58.613 65.75 55.7545V47C65.7524 44.9287 66.5762 42.943 68.0408 41.4783C69.5055 40.0137 71.4912 39.1899 73.5625 39.1875H76.6875C78.7588 39.1899 80.7445 40.0137 82.2092 41.4783C83.6738 42.943 84.4976 44.9287 84.5 47V55.7545C84.4918 58.6132 83.371 61.3563 81.375 63.4028V67.7923L86.7778 69.8184C88.8585 70.6061 90.651 72.007 91.9183 73.8356C93.1856 75.6642 93.8679 77.8345 93.875 80.0593V89.1875C93.8736 90.4303 93.3793 91.6217 92.5005 92.5005C91.6217 93.3793 90.4303 93.8736 89.1875 93.875H4.8125C3.56973 93.8736 2.37827 93.3793 1.4995 92.5005C0.620735 91.6217 0.126419 90.4303 0.125 89.1875V80.0593C0.132095 77.8345 0.814415 75.6642 2.0817 73.8356C3.34899 72.007 5.14154 70.6061 7.22224 69.8184ZM10.19 72.0427L12.625 74.4778L15.7998 71.3029L14.1367 70.5627L10.19 72.0427ZM18.875 69.2509L22 67.8601V65.6201C21.015 66.0528 19.9508 66.2761 18.875 66.2761C17.7991 66.276 16.735 66.0525 15.75 65.6197V67.8601L18.875 69.2509ZM17.4131 74.1091C17.5241 74.4074 17.7236 74.6645 17.9849 74.8461C18.2462 75.0277 18.5568 75.125 18.875 75.125C19.1932 75.125 19.5038 75.0277 19.7651 74.8461C20.0264 74.6645 20.2259 74.4074 20.3369 74.1092L18.8918 72.6641L18.875 72.6716L18.8582 72.6641L17.4131 74.1091ZM25.125 47C25.1236 45.7572 24.6293 44.5658 23.7505 43.687C22.8717 42.8082 21.6803 42.3139 20.4375 42.3125H12.625V46.5715C15.9221 45.8491 19.3531 46.0319 22.5548 47.1003L25.125 47.9571V47ZM25.125 51.2511L21.5667 50.0651C18.7478 49.1239 15.7187 49.0075 12.836 49.7296L12.625 49.7824V55.7545C12.629 57.1035 12.9804 58.4287 13.6454 59.6024C14.3103 60.7761 15.2664 61.7587 16.4214 62.4556L16.4633 62.4808C17.1909 62.9187 18.0239 63.1503 18.8731 63.1507C19.7223 63.1511 20.5555 62.9202 21.2834 62.4829L21.3318 62.4535C22.4861 61.7566 23.4414 60.7741 24.1058 59.6008C24.7701 58.4275 25.1211 57.1029 25.125 55.7545V51.2511ZM40.75 52.6295C40.754 53.9785 41.1054 55.3037 41.7704 56.4774C42.4353 57.6511 43.3914 58.6337 44.5464 59.3306L44.5883 59.3558C45.3159 59.7938 46.1489 60.0254 46.9981 60.0258C47.8473 60.0261 48.6805 59.7952 49.4084 59.3579L49.4569 59.3285C50.6111 58.6316 51.5664 57.6491 52.2308 56.4758C52.8951 55.3025 53.2461 53.9779 53.25 52.6295V47.4982C53.2503 47.1923 53.1606 46.8932 52.9923 46.6378C52.8239 46.3825 52.5842 46.1822 52.303 46.062L48.1629 44.2877C47.0032 43.7865 45.7194 43.6462 44.4788 43.8851C43.2382 44.124 42.0984 44.731 41.2078 45.6271C41.0622 45.7718 40.9468 45.944 40.8682 46.1336C40.7896 46.3232 40.7494 46.5266 40.75 46.7318V52.6295ZM43.875 62.4947V65.1198C45.162 66.5018 46.2173 68.0827 47 69.8014C47.7827 68.0827 48.838 66.5018 50.125 65.1198V62.4951C49.14 62.9278 48.0758 63.1511 47 63.1511C45.9241 63.151 44.86 62.9275 43.875 62.4947ZM53.534 43.1895C54.3776 43.5504 55.0966 44.1511 55.6016 44.9172C56.1067 45.6832 56.3756 46.5807 56.375 47.4982V52.6295C56.375 52.869 56.3671 53.1075 56.3512 53.345C57.8744 51.7812 58.9028 49.803 59.3075 47.6578C59.7123 45.5126 59.4755 43.2957 58.6268 41.2843C57.778 39.273 56.355 37.5567 54.5358 36.3499C52.7166 35.1432 50.5819 34.4997 48.3988 34.5H45.6012C43.4181 34.4997 41.2834 35.1432 39.4642 36.3499C37.645 37.5566 36.222 39.273 35.3732 41.2843C34.5245 43.2956 34.2877 45.5125 34.6925 47.6577C35.0972 49.8029 36.1256 51.7811 37.6488 53.3449C37.633 53.1075 37.6251 52.8691 37.625 52.6295V46.7318C37.6233 46.116 37.7438 45.506 37.9795 44.937C38.2151 44.3681 38.5613 43.8515 38.9979 43.4172C40.329 42.0776 42.0328 41.1701 43.8872 40.813C45.7416 40.4559 47.6605 40.6658 49.3939 41.4153L53.534 43.1895ZM81.375 47C81.3736 45.7572 80.8793 44.5658 80.0005 43.687C79.1217 42.8082 77.9303 42.3139 76.6875 42.3125H73.5625C72.3197 42.3139 71.1283 42.8082 70.2495 43.687C69.3707 44.5658 68.8764 45.7572 68.875 47V48.1237L71.292 47.5194C72.7475 47.1541 74.2628 47.0937 75.7428 47.3418L81.375 48.2805V47ZM81.375 51.4487L75.229 50.4243C74.1718 50.2467 73.0894 50.2898 72.0498 50.5511L68.875 51.3449V55.7545C68.879 57.1035 69.2304 58.4287 69.8954 59.6024C70.5603 60.7761 71.5164 61.7587 72.6714 62.4556L72.7133 62.4808C73.4409 62.9187 74.2739 63.1503 75.1231 63.1507C75.9723 63.1511 76.8055 62.9202 77.5334 62.4829L77.5818 62.4535C78.7361 61.7566 79.6914 60.7741 80.3558 59.6008C81.0201 58.4275 81.3711 57.1029 81.375 55.7545V51.4487ZM75.125 69.2509L78.25 67.8601V65.6201C77.265 66.0528 76.2008 66.2761 75.125 66.2761C74.0491 66.276 72.985 66.0525 72 65.6197V67.8601L75.125 69.2509ZM73.6632 74.1092C73.7741 74.4074 73.9737 74.6646 74.235 74.8461C74.4963 75.0277 74.8068 75.125 75.125 75.125C75.4432 75.125 75.7538 75.0277 76.0151 74.8461C76.2764 74.6645 76.4759 74.4074 76.5869 74.1091L75.1418 72.6641L75.125 72.6716L75.1082 72.6641L73.6632 74.1092ZM79.8633 70.5627L78.2002 71.3029L81.375 74.4778L83.81 72.0427L79.8633 70.5627ZM82.9375 90.75V82.9375H86.0625V90.75H89.1875C89.6018 90.7495 89.9989 90.5848 90.2918 90.2918C90.5848 89.9989 90.7495 89.6018 90.75 89.1875V80.0593C90.7452 78.7057 90.3907 77.3762 89.7209 76.1999C89.051 75.0236 88.0885 74.0403 86.9268 73.3455L81.375 78.8972L78.8638 76.386C78.3096 77.1187 77.553 77.6732 76.6875 77.9812V87.625H73.5625V77.9812C72.697 77.6732 71.9405 77.1187 71.3863 76.386L68.875 78.8974V89.1875C68.8752 89.7199 68.7843 90.2483 68.6062 90.75H82.9375ZM68.3552 74.9975L72.0498 71.3029L70.3867 70.5627L66.7931 71.9103C67.4756 72.8492 68.0029 73.8915 68.3552 74.9975ZM28.25 89.1875C28.2505 89.6018 28.4152 89.9989 28.7082 90.2918C29.0011 90.5848 29.3982 90.7495 29.8125 90.75H34.5V88.098L34.089 87.4814C33.2655 86.2399 32.8611 84.7674 32.935 83.2794C33.009 81.7915 33.5574 80.3663 34.5 79.2126V75.125H37.625V80.4597L37.1674 80.9174C36.5434 81.5442 36.1549 82.3673 36.0677 83.2475C35.9806 84.1277 36.2 85.011 36.6891 85.748L37.625 87.152V90.75H56.375V87.152L57.3109 85.748C57.8 85.011 58.0194 84.1277 57.9323 83.2475C57.8451 82.3673 57.4566 81.5442 56.8326 80.9174L56.375 80.4597V75.125H59.5V79.2126C60.4426 80.3663 60.991 81.7915 61.065 83.2794C61.1389 84.7674 60.7345 86.2399 59.911 87.4814L59.5 88.098V90.75H64.1875C64.6018 90.7495 64.9989 90.5848 65.2918 90.2918C65.5848 89.9989 65.7495 89.6018 65.75 89.1875V78.3473C65.7552 76.7847 65.2894 75.2569 64.4134 73.9629C63.5374 72.669 62.2918 71.669 60.8391 71.0934L52.1033 67.5992C49.8124 70.2202 48.5538 73.5855 48.5625 77.0667V78.25H45.4375V77.0667C45.4463 73.5855 44.1876 70.2202 41.8967 67.5992L33.1609 71.0934C31.7082 71.669 30.4626 72.669 29.5866 73.9629C28.7106 75.2569 28.2449 76.7847 28.25 78.3473V89.1875ZM27.2069 71.9103L23.6133 70.5627L21.9502 71.3029L25.6449 74.9975C25.9971 73.8915 26.5245 72.8492 27.2069 71.9103ZM3.25 89.1875C3.25047 89.6018 3.41525 89.9989 3.70817 90.2918C4.00109 90.5848 4.39825 90.7495 4.8125 90.75H7.9375V82.9375H11.0625V90.75H25.3938C25.2157 90.2483 25.1248 89.7198 25.125 89.1875V78.8974L22.6137 76.386C22.0595 77.1187 21.303 77.6732 20.4375 77.9812V87.625H17.3125V77.9812C16.447 77.6732 15.6904 77.1187 15.1362 76.386L12.625 78.8972L7.07318 73.3455C5.91145 74.0403 4.949 75.0236 4.27914 76.1999C3.60929 77.3762 3.25478 78.7057 3.25 80.0593V89.1875ZM57.0626 18.9711L58.9831 22.1053L54.9182 26.1706L51.7836 24.2499L50.7294 24.6869L49.8749 28.25H44.1251L43.2706 24.6871L42.2164 24.2499L39.0822 26.1706L35.0169 22.1057L36.9376 18.9711L36.5006 17.9169L32.9375 17.0624V11.3126L36.5004 10.4581L36.9374 9.40387L35.0169 6.26972L39.0818 2.20439L42.2162 4.12509L43.2706 3.68793L44.1251 0.125H49.8749L50.7294 3.68793L51.7836 4.1249L54.9178 2.20439L58.9831 6.26934L57.0624 9.40387L57.4994 10.4581L61.0625 11.3124V17.0624L57.4996 17.9169L57.0626 18.9711ZM57.9375 13.7767L55.222 13.1257L53.5659 9.12883L55.0315 6.7372L54.4501 6.15604L52.0587 7.62145L48.0618 5.9653L47.4107 3.25H46.5893L45.9382 5.96511L41.9413 7.62164L39.5497 6.15604L38.9685 6.7374L40.4339 9.12883L38.7778 13.1257L36.0625 13.7768V14.5982L38.778 15.2493L40.4341 19.2462L38.9685 21.6378L39.5499 22.219L41.9413 20.7534L45.9382 22.4099L46.5893 25.125H47.4107L48.0618 22.4095L52.0587 20.7534L54.4503 22.219L55.0315 21.6376L53.5661 19.2462L55.2222 15.2493L57.9375 14.5982V13.7767Z" fill="black"/>
<path d="M47 18.875C46.0729 18.875 45.1666 18.6001 44.3958 18.085C43.6249 17.5699 43.0241 16.8379 42.6693 15.9813C42.3145 15.1248 42.2217 14.1823 42.4026 13.273C42.5834 12.3637 43.0299 11.5285 43.6854 10.8729C44.341 10.2174 45.1762 9.77094 46.0855 9.59007C46.9948 9.4092 47.9373 9.50203 48.7938 9.85681C49.6504 10.2116 50.3824 10.8124 50.8975 11.5833C51.4126 12.3541 51.6875 13.2604 51.6875 14.1875C51.6861 15.4303 51.1918 16.6217 50.313 17.5005C49.4342 18.3793 48.2428 18.8736 47 18.875ZM47 12.625C46.691 12.625 46.3889 12.7166 46.1319 12.8883C45.875 13.06 45.6747 13.304 45.5564 13.5896C45.4382 13.8751 45.4072 14.1892 45.4675 14.4923C45.5278 14.7954 45.6766 15.0738 45.8951 15.2924C46.1137 15.5109 46.3921 15.6597 46.6952 15.72C46.9983 15.7803 47.3124 15.7493 47.5979 15.6311C47.8834 15.5128 48.1275 15.3125 48.2992 15.0556C48.4709 14.7986 48.5625 14.4965 48.5625 14.1875C48.562 13.7732 48.3973 13.3761 48.1043 13.0832C47.8114 12.7902 47.4143 12.6255 47 12.625ZM89.1875 34.5H73.5625C72.3197 34.4986 71.1283 34.0043 70.2495 33.1255C69.3707 32.2467 68.8764 31.0553 68.875 29.8125V26.6875H61.0625V23.5625H68.875V4.8125C68.8764 3.56973 69.3707 2.37828 70.2495 1.49951C71.1283 0.620738 72.3197 0.126422 73.5625 0.125H89.1875C90.4303 0.126422 91.6217 0.620738 92.5005 1.49951C93.3793 2.37828 93.8736 3.56973 93.875 4.8125V29.8125C93.8736 31.0553 93.3793 32.2467 92.5005 33.1255C91.6217 34.0043 90.4303 34.4986 89.1875 34.5ZM90.75 4.8125C90.7495 4.39824 90.5848 4.00109 90.2918 3.70817C89.9989 3.41525 89.6018 3.25047 89.1875 3.25H73.5625C73.1482 3.25047 72.7511 3.41525 72.4582 3.70817C72.1652 4.00109 72.0005 4.39824 72 4.8125V29.8125C72.0005 30.2268 72.1652 30.6239 72.4582 30.9168C72.7511 31.2098 73.1482 31.3745 73.5625 31.375H89.1875C89.6018 31.3745 89.9989 31.2098 90.2918 30.9168C90.5848 30.6239 90.7495 30.2268 90.75 29.8125V4.8125Z" fill="black"/>
<path d="M75.125 23.5625H79.8125V18.875H75.125V15.75H79.8125V11.0625H75.125V7.9375H87.625V11.0625H82.9375V15.75H87.625V18.875H82.9375V23.5625H87.625V26.6875H75.125V23.5625Z" fill="black"/>
<path d="M4.8125 0.125H20.4375C21.6803 0.126422 22.8717 0.620738 23.7505 1.49951C24.6293 2.37828 25.1236 3.56973 25.125 4.8125V23.5625H32.9375V26.6875H25.125V29.8125C25.1236 31.0553 24.6293 32.2467 23.7505 33.1255C22.8717 34.0043 21.6803 34.4986 20.4375 34.5H4.8125C3.56973 34.4986 2.37827 34.0043 1.49951 33.1255C0.620739 32.2467 0.126423 31.0553 0.125 29.8125V4.8125C0.126423 3.56973 0.620739 2.37828 1.49951 1.49951C2.37827 0.620738 3.56973 0.126422 4.8125 0.125ZM3.25 29.8125C3.25047 30.2268 3.41525 30.6239 3.70817 30.9168C4.00109 31.2098 4.39824 31.3745 4.8125 31.375H20.4375C20.8518 31.3745 21.2489 31.2098 21.5418 30.9168C21.8348 30.6239 21.9995 30.2268 22 29.8125V4.8125C21.9995 4.39824 21.8348 4.00109 21.5418 3.70817C21.2489 3.41525 20.8518 3.25047 20.4375 3.25H4.8125C4.39824 3.25047 4.00109 3.41525 3.70817 3.70817C3.41525 4.00109 3.25047 4.39824 3.25 4.8125V29.8125Z" fill="black"/>
<path d="M18.875 11.0625H14.1875V15.75H18.875V18.875H14.1875V23.5625H18.875V26.6875H6.375V23.5625H11.0625V18.875H6.375V15.75H11.0625V11.0625H6.375V7.9375H18.875V11.0625Z" fill="black"/>
</svg>
