<svg width="168" height="168" viewBox="0 0 168 168" fill="none" xmlns="http://www.w3.org/2000/svg">
<path d="M123 82.0928C122.47 82.0928 121.961 82.3035 121.586 82.6786C121.211 83.0536 121 83.5623 121 84.0928V84.25C121 84.5625 120.996 84.873 120.988 85.1836C120.981 85.4461 121.026 85.7075 121.12 85.9528C121.214 86.1981 121.355 86.4225 121.536 86.6132C121.716 86.8038 121.933 86.957 122.173 87.0639C122.413 87.1708 122.671 87.2294 122.934 87.2363C122.952 87.2373 122.97 87.2373 122.988 87.2373C123.509 87.2371 124.01 87.0336 124.383 86.6701C124.756 86.3065 124.973 85.8118 124.986 85.291C124.996 84.9453 125 84.5977 125 84.25V84.0928C125 83.5624 124.789 83.0537 124.414 82.6786C124.039 82.3035 123.531 82.0928 123 82.0928ZM57.841 113.247C57.6752 113.451 57.5512 113.685 57.476 113.937C57.4008 114.189 57.376 114.453 57.4029 114.714C57.4299 114.975 57.508 115.229 57.633 115.46C57.7579 115.691 57.9271 115.895 58.131 116.061C58.4005 116.279 58.671 116.495 58.9454 116.706C59.1533 116.867 59.3908 116.985 59.6444 117.054C59.898 117.123 60.1628 117.142 60.4235 117.108C60.6842 117.075 60.9358 116.99 61.1638 116.86C61.3919 116.729 61.5919 116.555 61.7525 116.347C61.9131 116.138 62.0311 115.901 62.0997 115.647C62.1684 115.393 62.1863 115.129 62.1525 114.868C62.1187 114.607 62.0339 114.356 61.9029 114.128C61.7718 113.9 61.5971 113.7 61.3888 113.54C61.1417 113.349 60.8969 113.154 60.6544 112.957C60.2429 112.622 59.7153 112.465 59.1877 112.519C58.66 112.574 58.1756 112.836 57.841 113.247ZM109.502 111.059C109.275 111.274 109.044 111.488 108.812 111.699C108.617 111.876 108.46 112.089 108.348 112.326C108.236 112.564 108.171 112.821 108.159 113.084C108.146 113.346 108.185 113.608 108.274 113.855C108.363 114.103 108.499 114.33 108.676 114.524C108.853 114.719 109.066 114.877 109.303 114.989C109.541 115.101 109.798 115.165 110.06 115.177C110.323 115.19 110.585 115.151 110.832 115.062C111.079 114.973 111.307 114.837 111.501 114.66C111.756 114.429 112.008 114.194 112.258 113.957C112.448 113.776 112.601 113.559 112.708 113.319C112.814 113.079 112.873 112.821 112.879 112.558C112.886 112.296 112.841 112.034 112.746 111.789C112.652 111.544 112.51 111.32 112.329 111.13C112.148 110.94 111.932 110.787 111.692 110.68C111.452 110.574 111.193 110.515 110.931 110.509C110.668 110.502 110.407 110.547 110.162 110.642C109.917 110.736 109.692 110.878 109.502 111.059V111.059ZM96.881 118.946C96.5861 119.056 96.2899 119.161 95.9924 119.264C95.5452 119.418 95.1672 119.726 94.9255 120.133C94.6838 120.54 94.5942 121.019 94.6724 121.485C94.7506 121.952 94.9917 122.376 95.3527 122.682C95.7138 122.987 96.1716 123.155 96.6447 123.155C97.1972 123.045 97.7405 122.892 98.2697 122.698C98.5161 122.607 98.7421 122.468 98.9348 122.29C99.1275 122.111 99.2831 121.896 99.3929 121.658C99.5026 121.419 99.5642 121.161 99.5743 120.899C99.5843 120.636 99.5425 120.374 99.4514 120.128C99.3602 119.882 99.2214 119.656 99.0429 119.463C98.8643 119.27 98.6496 119.114 98.4109 119.005C98.1723 118.895 97.9143 118.833 97.6518 118.823C97.3893 118.813 97.1274 118.855 96.881 118.946V118.946ZM74.7648 120.088C74.4611 120.011 74.1603 119.929 73.8596 119.844C73.6069 119.772 73.3426 119.751 73.0818 119.781C72.8209 119.812 72.5686 119.893 72.3393 120.021C72.11 120.149 71.9081 120.321 71.7452 120.527C71.5823 120.733 71.4615 120.969 71.3898 121.222C71.3181 121.474 71.2969 121.739 71.3274 121.999C71.3578 122.26 71.4393 122.513 71.5673 122.742C71.6952 122.971 71.8671 123.173 72.0731 123.336C72.2791 123.499 72.5151 123.62 72.7677 123.691C73.0997 123.786 73.4334 123.877 73.7687 123.963C74.0233 124.029 74.2883 124.044 74.5486 124.007C74.8089 123.97 75.0595 123.882 75.2859 123.749C75.5123 123.615 75.7101 123.438 75.8681 123.228C76.0261 123.018 76.141 122.779 76.2065 122.524C76.272 122.269 76.2866 122.004 76.2495 121.744C76.2125 121.484 76.1245 121.233 75.9906 121.007C75.8567 120.781 75.6795 120.583 75.4692 120.425C75.2589 120.268 75.0195 120.153 74.7648 120.088H74.7648ZM112.893 55.1611C112.648 54.9179 112.399 54.6774 112.148 54.4394C111.761 54.0795 111.248 53.8872 110.72 53.9044C110.192 53.9216 109.692 54.147 109.33 54.5313C108.967 54.9156 108.772 55.4276 108.786 55.9556C108.799 56.4836 109.022 56.9848 109.403 57.3496C109.631 57.5635 109.855 57.7806 110.076 58.001C110.263 58.1859 110.484 58.3323 110.727 58.4318C110.97 58.5313 111.23 58.5819 111.493 58.5808C111.755 58.5797 112.015 58.5269 112.257 58.4254C112.5 58.3239 112.72 58.1757 112.904 57.9893C113.089 57.8028 113.236 57.5817 113.335 57.3387C113.435 57.0956 113.485 56.8354 113.484 56.5728C113.483 56.3101 113.43 56.0503 113.329 55.8081C113.227 55.5659 113.079 55.3461 112.893 55.1611V55.1611ZM66.8635 121.295C67.3155 121.295 67.7543 121.143 68.1084 120.861C68.4625 120.58 68.7109 120.188 68.8132 119.747C68.9155 119.307 68.8656 118.845 68.6717 118.437C68.4777 118.029 68.1512 117.698 67.7453 117.499C67.4631 117.36 67.1828 117.219 66.9045 117.074C66.6714 116.953 66.4168 116.879 66.1552 116.856C65.8935 116.833 65.6299 116.862 65.3795 116.941C65.129 117.02 64.8966 117.148 64.6954 117.317C64.4943 117.486 64.3284 117.693 64.2072 117.926C64.086 118.159 64.0119 118.413 63.9891 118.675C63.9663 118.937 63.9953 119.2 64.0744 119.451C64.1534 119.701 64.2811 119.934 64.45 120.135C64.6189 120.336 64.8258 120.502 65.0588 120.623C65.3664 120.783 65.674 120.938 65.9855 121.091C66.2587 121.225 66.5591 121.295 66.8635 121.295ZM66.7336 51.2715C67.0409 51.2716 67.3441 51.2004 67.6193 51.0635C67.8986 50.9258 68.1799 50.791 68.4631 50.6592C68.7012 50.5484 68.9152 50.3917 69.0928 50.1982C69.2705 50.0047 69.4082 49.7781 69.4983 49.5314C69.5883 49.2846 69.6289 49.0226 69.6177 48.7601C69.6064 48.4977 69.5436 48.2401 69.4328 48.0019C69.322 47.7638 69.1654 47.5498 68.9719 47.3721C68.7784 47.1945 68.5518 47.0568 68.305 46.9667C68.0583 46.8767 67.7962 46.8361 67.5338 46.8473C67.2714 46.8586 67.0137 46.9214 66.7756 47.0322C66.4631 47.1777 66.1525 47.3268 65.8439 47.4794C65.4395 47.6798 65.1148 48.011 64.9225 48.4193C64.7302 48.8276 64.6816 49.2889 64.7847 49.7283C64.8878 50.1677 65.1364 50.5593 65.4903 50.8394C65.8441 51.1196 66.2823 51.2718 66.7336 51.2714V51.2715ZM62.0275 54.4775C62.4543 54.1626 62.7386 53.691 62.8177 53.1665C62.8968 52.6419 62.7643 52.1075 62.4494 51.6806C62.2934 51.4693 62.0974 51.2907 61.8724 51.1552C61.6475 51.0196 61.398 50.9296 61.1383 50.8905C60.6138 50.8113 60.0793 50.9438 59.6525 51.2588C59.3742 51.4648 59.0985 51.6741 58.8254 51.8867C58.6173 52.0478 58.4431 52.2483 58.3127 52.4768C58.1823 52.7052 58.0982 52.9572 58.0653 53.2182C58.0325 53.4793 58.0514 53.7442 58.1211 53.9979C58.1908 54.2516 58.3099 54.4891 58.4715 54.6967C58.6331 54.9043 58.8341 55.0779 59.0629 55.2077C59.2917 55.3375 59.5439 55.4209 59.8051 55.4531C60.0662 55.4852 60.3311 55.4656 60.5846 55.3952C60.8381 55.3248 61.0752 55.2051 61.2824 55.043C61.5285 54.8515 61.7765 54.6621 62.0275 54.4775ZM48.1789 104.21C48.3068 104.44 48.4787 104.642 48.6849 104.805C48.8911 104.969 49.1275 105.09 49.3806 105.162C49.6336 105.233 49.8983 105.255 50.1596 105.224C50.4208 105.193 50.6734 105.111 50.903 104.983C51.1325 104.854 51.3344 104.682 51.4972 104.475C51.66 104.269 51.7804 104.032 51.8516 103.779C51.9228 103.526 51.9433 103.261 51.912 103C51.8806 102.738 51.7981 102.486 51.6691 102.257C51.5177 101.986 51.3713 101.714 51.2267 101.439C50.9807 100.97 50.5581 100.617 50.0519 100.459C49.5457 100.3 48.9973 100.35 48.5275 100.596C48.0577 100.842 47.7048 101.264 47.5466 101.771C47.3883 102.277 47.4377 102.825 47.6837 103.295C47.8439 103.603 48.0099 103.908 48.1789 104.21ZM45.549 77.418C45.2884 77.385 45.0238 77.4037 44.7704 77.473C44.517 77.5423 44.2798 77.6609 44.0723 77.822C43.8648 77.9831 43.691 78.1835 43.561 78.4118C43.431 78.64 43.3473 78.8917 43.3146 79.1524C43.2716 79.4971 43.2336 79.8418 43.1994 80.1885C43.1737 80.4499 43.1997 80.7137 43.276 80.965C43.3523 81.2164 43.4774 81.4502 43.644 81.6531C43.8107 81.8561 44.0158 82.0242 44.2475 82.1479C44.4791 82.2716 44.7329 82.3484 44.9943 82.374C45.0599 82.3806 45.1257 82.3839 45.1916 82.3838C45.6878 82.3832 46.1661 82.1981 46.5335 81.8646C46.901 81.5311 47.1313 81.0729 47.1799 80.5791C47.2101 80.2695 47.2443 79.9599 47.2834 79.6523C47.3162 79.3917 47.2974 79.1272 47.228 78.8739C47.1586 78.6206 47.04 78.3834 46.879 78.1759C46.7179 77.9684 46.5176 77.7947 46.2894 77.6647C46.0612 77.5346 45.8096 77.4508 45.549 77.418ZM56.341 56.6846C55.9465 56.3301 55.4275 56.1465 54.8979 56.1742C54.3683 56.2018 53.8712 56.4384 53.5158 56.832C53.2834 57.0908 53.0549 57.3506 52.8302 57.6142C52.6589 57.8137 52.5286 58.045 52.4468 58.2949C52.365 58.5447 52.3333 58.8083 52.3535 59.0705C52.3736 59.3326 52.4453 59.5882 52.5644 59.8226C52.6835 60.057 52.8476 60.2657 53.0474 60.4366C53.2472 60.6075 53.4787 60.7373 53.7288 60.8186C53.9788 60.9 54.2424 60.9312 54.5045 60.9105C54.7666 60.8898 55.0221 60.8176 55.2563 60.6981C55.4905 60.5785 55.6988 60.414 55.8693 60.2139C56.0724 59.9775 56.2775 59.7432 56.4884 59.5098C56.8434 59.1155 57.0272 58.5964 56.9996 58.0666C56.9719 57.5369 56.735 57.0397 56.341 56.6846ZM52.9289 111.002C53.2757 111.403 53.7674 111.65 54.296 111.688C54.8247 111.727 55.347 111.554 55.7484 111.208C56.1497 110.862 56.3973 110.37 56.4366 109.842C56.4759 109.313 56.3039 108.791 55.9582 108.389C55.7541 108.152 55.5532 107.914 55.3556 107.673C55.1892 107.47 54.9843 107.301 54.7528 107.177C54.5213 107.053 54.2676 106.976 54.0063 106.95C53.7449 106.924 53.481 106.95 53.2296 107.026C52.9783 107.102 52.7443 107.227 52.5412 107.394C52.338 107.56 52.1697 107.765 52.0457 107.996C51.9217 108.228 51.8446 108.482 51.8186 108.743C51.7927 109.004 51.8185 109.268 51.8946 109.52C51.9706 109.771 52.0954 110.005 52.2619 110.208C52.4806 110.475 52.7033 110.74 52.9289 111.002ZM48.882 67.1455C49.1117 67.2729 49.3642 67.3538 49.6252 67.3836C49.8861 67.4134 50.1504 67.3914 50.4028 67.3191C50.6553 67.2467 50.891 67.1253 51.0966 66.9618C51.3021 66.7983 51.4735 66.5959 51.6008 66.3662C51.7531 66.0918 51.9074 65.8203 52.0666 65.5508C52.1997 65.3243 52.2869 65.0738 52.3232 64.8136C52.3595 64.5534 52.3442 64.2887 52.2782 64.0344C52.2122 63.7801 52.0968 63.5413 51.9385 63.3317C51.7802 63.122 51.5821 62.9456 51.3556 62.8125C51.1292 62.6794 50.8787 62.5922 50.6185 62.5558C50.3583 62.5195 50.0935 62.5348 49.8393 62.6008C49.585 62.6669 49.3462 62.7823 49.1366 62.9406C48.9269 63.0989 48.7505 63.2969 48.6174 63.5234C48.4426 63.8223 48.271 64.1234 48.1027 64.4267C47.9753 64.6564 47.8943 64.9089 47.8645 65.1699C47.8347 65.4308 47.8566 65.6951 47.929 65.9476C48.0014 66.2001 48.1228 66.4358 48.2863 66.6414C48.4498 66.8469 48.6523 67.0182 48.882 67.1455ZM84.0617 123.297C84.0867 122.767 83.9002 122.249 83.5433 121.856C83.1864 121.464 82.6882 121.229 82.1584 121.204C81.8459 121.189 81.5363 121.17 81.2257 121.147C80.6974 121.109 80.1754 121.282 79.7744 121.628C79.3734 121.974 79.1261 122.465 79.0867 122.993C79.0474 123.522 79.2193 124.044 79.5647 124.446C79.9101 124.847 80.4007 125.095 80.9289 125.136C81.2746 125.162 81.6213 125.184 81.9689 125.2C82.0011 125.201 82.0333 125.202 82.0656 125.202C82.5793 125.202 83.0732 125.004 83.4448 124.649C83.8165 124.294 84.0373 123.81 84.0617 123.297ZM47.4006 97.9023C47.9065 97.7428 48.3284 97.389 48.5736 96.9186C48.8188 96.4482 48.8672 95.8996 48.7082 95.3935C48.6134 95.0947 48.5236 94.7939 48.4357 94.4912C48.2872 93.9825 47.9429 93.5534 47.4783 93.2984C47.0138 93.0433 46.467 92.983 45.958 93.1307C45.4491 93.2785 45.0195 93.6222 44.7638 94.0864C44.508 94.5505 44.4469 95.0972 44.5939 95.6064C44.6896 95.9365 44.7889 96.2659 44.8918 96.5947C44.9704 96.8454 45.0977 97.0782 45.2664 97.2797C45.4352 97.4811 45.6419 97.6474 45.875 97.7688C46.108 97.8903 46.3627 97.9646 46.6245 97.9875C46.8862 98.0104 47.15 97.9815 47.4005 97.9023H47.4006ZM44.9572 85.2939C44.6954 85.3149 44.4403 85.3872 44.2064 85.5067C43.9726 85.6263 43.7646 85.7907 43.5944 85.9907C43.4242 86.1907 43.295 86.4223 43.2143 86.6722C43.1337 86.9221 43.103 87.1855 43.1242 87.4473C43.1515 87.79 43.1821 88.1322 43.216 88.4736C43.2662 88.9662 43.4973 89.4227 43.8645 89.7547C44.2318 90.0868 44.7091 90.2709 45.2042 90.2715C45.2716 90.2715 45.34 90.2685 45.4084 90.2617C45.9361 90.2079 46.4209 89.9468 46.7562 89.5356C47.0915 89.1245 47.2499 88.5971 47.1964 88.0693C47.1642 87.7568 47.1356 87.4427 47.1105 87.1269C47.0902 86.8649 47.0183 86.6095 46.8989 86.3754C46.7795 86.1413 46.615 85.9331 46.4149 85.7627C46.2148 85.5924 45.983 85.4633 45.7328 85.3828C45.4827 85.3024 45.2191 85.2722 44.9572 85.2939ZM48.6623 73.248C48.756 72.9472 48.8547 72.6474 48.9543 72.3495C49.0386 72.1007 49.073 71.8376 49.0556 71.5754C49.0382 71.3133 48.9693 71.0571 48.8528 70.8215C48.7363 70.586 48.5745 70.3758 48.3767 70.2028C48.179 70.0298 47.949 69.8975 47.7 69.8134C47.4511 69.7294 47.188 69.6952 46.9258 69.7129C46.6637 69.7306 46.4076 69.7998 46.1722 69.9165C45.9367 70.0332 45.7266 70.1952 45.5539 70.3932C45.3811 70.5911 45.249 70.8212 45.1652 71.0702C45.0539 71.3974 44.9468 71.7268 44.8439 72.0585C44.765 72.3095 44.7364 72.5735 44.7598 72.8355C44.7831 73.0975 44.8579 73.3523 44.9798 73.5854C45.1018 73.8184 45.2685 74.0251 45.4705 74.1937C45.6725 74.3622 45.9057 74.4892 46.1568 74.5674C46.408 74.6456 46.6721 74.6736 46.934 74.6496C47.1959 74.6256 47.4506 74.5501 47.6833 74.4276C47.9161 74.305 48.1223 74.1377 48.2903 73.9353C48.4583 73.7329 48.5847 73.4993 48.6623 73.248ZM114.26 108.937C114.472 109.093 114.712 109.205 114.967 109.268C115.222 109.331 115.487 109.343 115.746 109.303C116.006 109.264 116.255 109.173 116.48 109.037C116.705 108.901 116.9 108.722 117.056 108.511C117.261 108.231 117.462 107.95 117.66 107.666C117.811 107.451 117.917 107.208 117.973 106.951C118.029 106.695 118.035 106.429 117.988 106.171C117.942 105.912 117.846 105.666 117.704 105.444C117.562 105.223 117.379 105.032 117.163 104.882C116.948 104.732 116.705 104.625 116.448 104.569C116.192 104.513 115.927 104.508 115.668 104.554C115.41 104.6 115.163 104.697 114.942 104.838C114.72 104.98 114.529 105.163 114.379 105.379C114.2 105.636 114.018 105.89 113.833 106.142C113.519 106.569 113.388 107.104 113.468 107.628C113.548 108.152 113.833 108.623 114.26 108.937ZM89.4933 47.6543C89.8048 47.7012 90.1154 47.7519 90.424 47.8047C90.5368 47.8245 90.6512 47.8343 90.7658 47.834C91.2665 47.8334 91.7487 47.6451 92.1173 47.3062C92.4859 46.9673 92.7139 46.5025 92.7564 46.0036C92.7988 45.5048 92.6526 45.0081 92.3466 44.6118C92.0406 44.2155 91.5971 43.9484 91.1037 43.8633C90.7658 43.8047 90.4263 43.75 90.0851 43.6992C89.5607 43.6207 89.0265 43.7538 88.6001 44.0692C88.1738 44.3846 87.8902 44.8564 87.8117 45.3809C87.7332 45.9053 87.8663 46.4395 88.1817 46.8659C88.497 47.2922 88.9689 47.5758 89.4933 47.6543V47.6543ZM117.573 60.7109C117.269 60.2768 116.804 59.9815 116.282 59.89C115.76 59.7984 115.222 59.9181 114.788 60.2226C114.354 60.5272 114.059 60.9918 113.967 61.5141C113.876 62.0364 113.995 62.5737 114.3 63.0078C114.479 63.2637 114.655 63.5218 114.828 63.7822C114.974 64.0014 115.161 64.1897 115.379 64.3364C115.597 64.4832 115.842 64.5854 116.1 64.6374C116.358 64.6894 116.623 64.69 116.881 64.6392C117.139 64.5885 117.385 64.4874 117.604 64.3417C117.822 64.1959 118.01 64.0085 118.157 63.79C118.303 63.5716 118.405 63.3264 118.457 63.0686C118.508 62.8107 118.508 62.5452 118.457 62.2873C118.406 62.0294 118.304 61.7841 118.158 61.5654C117.967 61.2773 117.772 60.9925 117.573 60.7109ZM123.951 93.5068C124.028 93.1718 124.101 92.8369 124.17 92.499C124.277 91.9795 124.173 91.4388 123.881 90.9959C123.589 90.5531 123.133 90.2444 122.613 90.1377C122.094 90.031 121.553 90.135 121.11 90.4269C120.668 90.7189 120.359 91.1748 120.252 91.6943C120.189 92.0029 120.122 92.3109 120.051 92.6182C119.933 93.1354 120.026 93.6782 120.308 94.1273C120.59 94.5764 121.04 94.8948 121.557 95.0127C122.074 95.1305 122.617 95.0381 123.066 94.7557C123.515 94.4733 123.833 94.0241 123.951 93.5068H123.951ZM103.471 52.7803C103.736 52.9453 104 53.1136 104.262 53.2851C104.705 53.5751 105.246 53.6773 105.764 53.5692C106.283 53.4611 106.738 53.1515 107.028 52.7085C107.319 52.2654 107.422 51.7252 107.314 51.2064C107.207 50.6876 106.898 50.2326 106.455 49.9414C106.166 49.751 105.874 49.5644 105.578 49.3818C105.128 49.1024 104.584 49.0134 104.068 49.1344C103.552 49.2555 103.105 49.5767 102.825 50.0273C102.546 50.478 102.457 51.0212 102.578 51.5375C102.699 52.0538 103.02 52.5008 103.471 52.7803H103.471ZM99.091 46.1172C98.7697 45.9902 98.4465 45.8668 98.1213 45.7471C97.8748 45.6564 97.6128 45.6152 97.3504 45.6257C97.088 45.6363 96.8302 45.6984 96.5918 45.8086C96.3534 45.9188 96.139 46.0748 95.961 46.2679C95.7829 46.4609 95.6445 46.6871 95.5539 46.9336C95.4632 47.1801 95.422 47.442 95.4325 47.7044C95.4431 47.9669 95.5052 48.2246 95.6154 48.463C95.7256 48.7014 95.8816 48.9158 96.0747 49.0939C96.2677 49.272 96.4939 49.4103 96.7404 49.501C97.0363 49.6094 97.3302 49.7227 97.6222 49.8379C97.8665 49.9343 98.1274 49.9817 98.3901 49.9773C98.6527 49.9729 98.9119 49.9169 99.1528 49.8123C99.3937 49.7077 99.6117 49.5567 99.7943 49.3679C99.9769 49.1791 100.121 48.9562 100.217 48.7119C100.313 48.4676 100.361 48.2067 100.356 47.9441C100.352 47.6815 100.296 47.4223 100.191 47.1814C100.087 46.9404 99.9358 46.7224 99.747 46.5398C99.5582 46.3572 99.3353 46.2136 99.091 46.1172V46.1172ZM119.449 102.53C119.832 102.53 120.207 102.421 120.529 102.214C120.852 102.008 121.108 101.713 121.268 101.365C121.413 101.049 121.554 100.731 121.691 100.411C121.898 99.9236 121.904 99.3736 121.706 98.8819C121.509 98.3901 121.124 97.9969 120.637 97.7886C120.15 97.5803 119.6 97.5739 119.108 97.7708C118.616 97.9678 118.222 98.3519 118.013 98.8389C117.89 99.126 117.763 99.4115 117.633 99.6953C117.493 100 117.432 100.335 117.455 100.669C117.478 101.004 117.585 101.327 117.766 101.609C117.947 101.892 118.196 102.124 118.49 102.285C118.784 102.446 119.114 102.53 119.449 102.53L119.449 102.53ZM106.345 116.282C106.206 116.059 106.024 115.866 105.81 115.714C105.597 115.561 105.355 115.452 105.099 115.393C104.843 115.334 104.578 115.326 104.319 115.369C104.06 115.412 103.812 115.506 103.589 115.645C103.323 115.811 103.054 115.976 102.784 116.136C102.559 116.27 102.362 116.447 102.204 116.658C102.047 116.868 101.933 117.108 101.868 117.362C101.804 117.617 101.79 117.881 101.828 118.141C101.865 118.401 101.954 118.651 102.088 118.877C102.222 119.103 102.4 119.3 102.61 119.457C102.821 119.614 103.06 119.728 103.314 119.793C103.569 119.857 103.834 119.871 104.094 119.834C104.354 119.796 104.604 119.707 104.829 119.573C105.124 119.397 105.417 119.219 105.708 119.038C106.158 118.757 106.478 118.309 106.597 117.792C106.716 117.275 106.626 116.732 106.345 116.282ZM121.627 67.9385C121.416 67.4521 121.019 67.0696 120.526 66.8753C120.032 66.681 119.482 66.6907 118.995 66.9023C118.509 67.1139 118.126 67.5101 117.932 68.0036C117.738 68.4972 117.748 69.0478 117.959 69.5342C118.083 69.8183 118.203 70.1048 118.32 70.3935C118.518 70.8854 118.904 71.2782 119.392 71.4855C119.881 71.6928 120.431 71.6977 120.923 71.499C121.415 71.3004 121.808 70.9145 122.015 70.4263C122.222 69.938 122.227 69.3874 122.029 68.8955C121.899 68.5742 121.765 68.2552 121.627 67.9385ZM81.9074 47.3056C81.9435 47.3056 81.9797 47.3046 82.0168 47.3027C82.3264 47.2861 82.6379 47.2734 82.9494 47.2646C83.4748 47.2503 83.9734 47.0298 84.3374 46.6508C84.7014 46.2717 84.9017 45.7646 84.8947 45.2391C84.8878 44.7136 84.6743 44.212 84.3004 43.8427C83.9265 43.4733 83.4222 43.2661 82.8967 43.2656C82.8791 43.2656 82.8605 43.2656 82.842 43.2666C82.4953 43.2754 82.1486 43.2901 81.802 43.3086C81.2819 43.3368 80.7934 43.5667 80.4402 43.9495C80.087 44.3323 79.8971 44.8378 79.9109 45.3585C79.9246 45.8791 80.1409 46.3738 80.5138 46.7375C80.8866 47.1011 81.3866 47.305 81.9075 47.3057L81.9074 47.3056ZM72.1818 47.0185C72.2478 47.2729 72.3633 47.5118 72.5217 47.7215C72.6801 47.9311 72.8784 48.1075 73.1051 48.2404C73.3318 48.3733 73.5825 48.4601 73.8429 48.496C74.1032 48.5318 74.3681 48.5159 74.6222 48.4492C74.924 48.3701 75.2267 48.2949 75.5324 48.2236C75.7896 48.1652 76.0327 48.0564 76.2477 47.9036C76.4627 47.7508 76.6453 47.557 76.7851 47.3334C76.9249 47.1097 77.0191 46.8606 77.0622 46.6004C77.1054 46.3402 77.0966 46.0741 77.0365 45.8173C76.9763 45.5605 76.866 45.3181 76.7118 45.1041C76.5576 44.8901 76.3626 44.7088 76.138 44.5704C75.9135 44.4321 75.6637 44.3396 75.4033 44.2982C75.1428 44.2567 74.8767 44.2672 74.6203 44.3291C74.2834 44.4082 73.9474 44.4912 73.6125 44.5781C73.0993 44.7122 72.6603 45.0446 72.392 45.5022C72.1238 45.9598 72.0482 46.5052 72.1818 47.0185ZM89.6388 120.823C89.3312 120.87 89.0236 120.913 88.714 120.952C88.4531 120.984 88.201 121.068 87.9723 121.198C87.7436 121.327 87.5427 121.501 87.3812 121.708C87.2196 121.916 87.1006 122.153 87.0309 122.407C86.9611 122.66 86.9421 122.925 86.9748 123.186C87.0076 123.447 87.0914 123.699 87.2217 123.927C87.3519 124.156 87.5258 124.356 87.7336 124.517C87.9414 124.679 88.179 124.797 88.4327 124.866C88.6863 124.936 88.9512 124.954 89.212 124.921C89.5568 124.878 89.9008 124.83 90.2443 124.776C90.7682 124.696 91.2386 124.41 91.5522 123.983C91.8658 123.556 91.9969 123.021 91.9166 122.497C91.8364 121.973 91.5514 121.503 91.1242 121.189C90.6971 120.875 90.1628 120.743 89.6388 120.823L89.6388 120.823ZM121.769 74.292C121.512 74.3457 121.268 74.4496 121.051 74.5977C120.834 74.7458 120.648 74.9351 120.505 75.155C120.361 75.3748 120.262 75.6208 120.214 75.8789C120.165 76.137 120.168 76.4022 120.222 76.6592C120.285 76.9629 120.345 77.2676 120.401 77.5732C120.484 78.0341 120.726 78.4512 121.085 78.7517C121.445 79.0522 121.898 79.2172 122.366 79.2178C122.486 79.2181 122.606 79.2073 122.724 79.1855C122.982 79.139 123.229 79.0419 123.45 78.8999C123.671 78.7579 123.862 78.5738 124.011 78.358C124.161 78.1423 124.267 77.8991 124.323 77.6425C124.378 77.3858 124.383 77.1207 124.336 76.8623C124.275 76.5195 124.208 76.1784 124.136 75.8389C124.082 75.5818 123.978 75.3378 123.83 75.1208C123.682 74.9039 123.493 74.7183 123.273 74.5746C123.053 74.431 122.807 74.332 122.549 74.2835C122.291 74.235 122.026 74.2379 121.769 74.292Z" fill="black"/>
<path d="M84 32.25C84.5304 32.25 85.0391 32.0393 85.4142 31.6642C85.7893 31.2891 86 30.7804 86 30.25V29.25C86 28.7196 85.7893 28.2109 85.4142 27.8358C85.0391 27.4607 84.5304 27.25 84 27.25C83.4696 27.25 82.9609 27.4607 82.5858 27.8358C82.2107 28.2109 82 28.7196 82 29.25V30.25C82 30.7804 82.2107 31.2891 82.5858 31.6642C82.9609 32.0393 83.4696 32.25 84 32.25Z" fill="#00CCFF"/>
<path d="M83.9999 39.25C84.5303 39.25 85.039 39.0393 85.414 38.6642C85.7891 38.2891 85.9998 37.7804 85.9999 37.25V36.25C85.9999 35.7196 85.7892 35.2109 85.4141 34.8358C85.039 34.4607 84.5303 34.25 83.9999 34.25C83.4694 34.25 82.9607 34.4607 82.5856 34.8358C82.2106 35.2109 81.9999 35.7196 81.9999 36.25V37.25C81.9999 37.7804 82.2106 38.2891 82.5857 38.6642C82.9607 39.0393 83.4694 39.25 83.9999 39.25ZM83.9999 25.25C84.5303 25.25 85.039 25.0393 85.414 24.6642C85.7891 24.2891 85.9998 23.7804 85.9999 23.25V22.25C85.9999 21.7196 85.7892 21.2109 85.4141 20.8358C85.039 20.4607 84.5303 20.25 83.9999 20.25C83.4694 20.25 82.9607 20.4607 82.5856 20.8358C82.2106 21.2109 81.9999 21.7196 81.9999 22.25V23.25C81.9999 23.7804 82.2106 24.2891 82.5857 24.6642C82.9607 25.0393 83.4694 25.25 83.9999 25.25ZM69.2469 29.1924C68.9932 29.2603 68.7554 29.3775 68.547 29.5374C68.3387 29.6973 68.1638 29.8966 68.0325 30.1241C67.9012 30.3515 67.816 30.6026 67.7817 30.863C67.7475 31.1233 67.7648 31.3879 67.8329 31.6416L68.0917 32.6074C68.1596 32.8611 68.2769 33.0989 68.4368 33.3072C68.5966 33.5156 68.796 33.6904 69.0234 33.8217C69.2508 33.953 69.5019 34.0382 69.7623 34.0725C70.0226 34.1068 70.2872 34.0894 70.5409 34.0215C70.7945 33.9535 71.0323 33.8362 71.2407 33.6764C71.449 33.5165 71.6238 33.3172 71.7552 33.0897C71.8865 32.8623 71.9717 32.6112 72.006 32.3509C72.0402 32.0905 72.0229 31.8259 71.9549 31.5723L71.6961 30.6064C71.6285 30.3526 71.5114 30.1146 71.3516 29.9061C71.1918 29.6976 70.9924 29.5226 70.7649 29.3913C70.5374 29.2599 70.2862 29.1747 70.0257 29.1406C69.7653 29.1065 69.5006 29.1241 69.2469 29.1924Z" fill="black"/>
<path d="M66.2801 25.8455C66.348 26.0992 66.4653 26.337 66.6252 26.5453C66.785 26.7536 66.9844 26.9285 67.2118 27.0598C67.4392 27.1911 67.6903 27.2763 67.9507 27.3106C68.211 27.3449 68.4756 27.3275 68.7293 27.2596C68.983 27.1916 69.2207 27.0743 69.4291 26.9144C69.6374 26.7546 69.8123 26.5552 69.9436 26.3278C70.0749 26.1004 70.1601 25.8493 70.1944 25.5889C70.2287 25.3286 70.2113 25.064 70.1433 24.8103L69.8846 23.8445C69.7473 23.3322 69.4121 22.8954 68.9528 22.6302C68.4935 22.365 67.9476 22.2932 67.4353 22.4305C66.923 22.5677 66.4862 22.9029 66.2211 23.3622C65.9559 23.8215 65.884 24.3674 66.0213 24.8797L66.2801 25.8455ZM71.0594 35.9529C70.8057 36.0208 70.5678 36.1381 70.3595 36.2979C70.1511 36.4578 69.9762 36.6571 69.8449 36.8846C69.7136 37.112 69.6284 37.3631 69.5941 37.6235C69.5599 37.8839 69.5773 38.1485 69.6453 38.4021L69.9041 39.3689C70.0417 39.8808 70.377 40.3171 70.8361 40.582C71.2953 40.8468 71.8408 40.9185 72.3529 40.7813C72.8649 40.6441 73.3015 40.3093 73.5667 39.8503C73.8319 39.3914 73.9041 38.8459 73.7674 38.3338L73.5086 37.367C73.4412 37.113 73.3243 36.8747 73.1646 36.666C73.0049 36.4573 72.8055 36.2822 72.5779 36.1508C72.3503 36.0194 72.099 35.9343 71.8384 35.9003C71.5778 35.8663 71.313 35.8842 71.0594 35.9529Z" fill="#00CCFF"/>
<path d="M58.2674 43.6809L58.7674 44.5471C58.8987 44.7747 59.0735 44.9743 59.2819 45.1344C59.4903 45.2944 59.7282 45.4119 59.982 45.48C60.2358 45.5481 60.5005 45.5655 60.761 45.5312C61.0216 45.497 61.2728 45.4118 61.5004 45.2804C61.7279 45.149 61.9274 44.9741 62.0874 44.7656C62.2473 44.5572 62.3646 44.3192 62.4326 44.0654C62.5006 43.8116 62.5179 43.5468 62.4835 43.2863C62.4491 43.0258 62.3638 42.7746 62.2323 42.5471L61.7323 41.6809C61.4669 41.2217 61.0301 40.8867 60.5178 40.7495C60.0055 40.6124 59.4597 40.6842 59.0004 40.9494C58.5411 41.2145 58.2058 41.6512 58.0684 42.1634C57.9309 42.6756 58.0025 43.2214 58.2674 43.6809ZM51.7674 32.4231C51.8987 32.6507 52.0735 32.8503 52.2819 33.0103C52.4903 33.1704 52.7282 33.2878 52.982 33.3559C53.2358 33.424 53.5005 33.4415 53.761 33.4072C54.0216 33.373 54.2728 33.2877 54.5004 33.1564C54.7279 33.025 54.9274 32.8501 55.0874 32.6416C55.2473 32.4331 55.3646 32.1952 55.4326 31.9414C55.5006 31.6875 55.5179 31.4228 55.4835 31.1623C55.4491 30.9018 55.3638 30.6506 55.2323 30.4231L54.7323 29.5569C54.601 29.3292 54.4262 29.1297 54.2178 28.9696C54.0094 28.8095 53.7715 28.6921 53.5177 28.624C53.2639 28.5559 52.9992 28.5385 52.7387 28.5727C52.4782 28.607 52.2269 28.6922 51.9993 28.8236C51.7718 28.9549 51.5723 29.1298 51.4123 29.3383C51.2524 29.5468 51.1351 29.7847 51.0671 30.0386C50.9991 30.2924 50.9818 30.5571 51.0162 30.8177C51.0506 31.0782 51.136 31.3294 51.2674 31.5569L51.7674 32.4231Z" fill="black"/>
<path d="M54.7685 37.6199L55.2685 38.4851C55.3993 38.7139 55.5739 38.9145 55.7825 39.0756C55.991 39.2366 56.2293 39.3549 56.4836 39.4235C56.738 39.4922 57.0034 39.5099 57.2647 39.4757C57.5259 39.4415 57.7778 39.356 58.0059 39.2241C58.234 39.0922 58.4338 38.9166 58.5938 38.7073C58.7538 38.498 58.8709 38.2591 58.9383 38.0044C59.0057 37.7497 59.0222 37.4842 58.9867 37.2231C58.9512 36.962 58.8644 36.7106 58.7314 36.4831L58.2314 35.6179C58.1007 35.3891 57.926 35.1885 57.7175 35.0274C57.509 34.8664 57.2707 34.7481 57.0163 34.6795C56.7619 34.6108 56.4965 34.5931 56.2353 34.6273C55.974 34.6615 55.7221 34.747 55.494 34.8789C55.2659 35.0108 55.0661 35.1864 54.9061 35.3957C54.7461 35.605 54.629 35.8439 54.5616 36.0986C54.4942 36.3533 54.4778 36.6188 54.5133 36.8799C54.5488 37.141 54.6355 37.3924 54.7685 37.6199ZM39.4521 42.53C39.8274 42.9039 40.3357 43.1136 40.8654 43.1131C41.3951 43.1126 41.903 42.9019 42.2776 42.5273C42.6521 42.1528 42.8628 41.6449 42.8633 41.1152C42.8638 40.5855 42.6541 40.0772 42.2803 39.7019L41.5733 38.9949C41.198 38.6211 40.6897 38.4114 40.16 38.4119C39.6303 38.4124 39.1224 38.623 38.7478 38.9976C38.3733 39.3722 38.1626 39.8801 38.1621 40.4098C38.1616 40.9395 38.3713 41.4478 38.7451 41.823L39.4521 42.53Z" fill="#00CCFF"/>
<path d="M44.4023 47.4805C44.7776 47.8543 45.2859 48.064 45.8156 48.0635C46.3453 48.063 46.8532 47.8523 47.2278 47.4778C47.6023 47.1032 47.813 46.5953 47.8135 46.0656C47.814 45.5359 47.6043 45.0276 47.2305 44.6523L46.5235 43.9453C46.1482 43.5715 45.6399 43.3618 45.1102 43.3623C44.5805 43.3628 44.0726 43.5735 43.698 43.948C43.3235 44.3226 43.1128 44.8305 43.1123 45.3602C43.1118 45.8899 43.3215 46.3982 43.6953 46.7735L44.4023 47.4805Z" fill="black"/>
<path d="M49.3518 52.4297C49.7271 52.8035 50.2353 53.0132 50.765 53.0127C51.2948 53.0122 51.8026 52.8015 52.1772 52.427C52.5518 52.0524 52.7624 51.5445 52.7629 51.0148C52.7634 50.4851 52.5538 49.9768 52.1799 49.6016L51.4729 48.8946C51.0976 48.5207 50.5893 48.311 50.0596 48.3115C49.5299 48.312 49.022 48.5227 48.6475 48.8973C48.2729 49.2718 48.0623 49.7797 48.0618 50.3094C48.0612 50.8391 48.2709 51.3474 48.6448 51.7227L49.3518 52.4297ZM35.3684 58.4814L36.2336 58.9814C36.6926 59.2438 37.2369 59.3137 37.7473 59.1759C38.2578 59.0381 38.6929 58.7038 38.9575 58.2461C39.2222 57.7883 39.2948 57.2444 39.1595 56.7333C39.0242 56.2222 38.692 55.7854 38.2356 55.5185L37.3704 55.0185C37.1429 54.8855 36.8914 54.7988 36.6304 54.7633C36.3693 54.7278 36.1038 54.7442 35.8491 54.8116C35.5944 54.879 35.3555 54.9961 35.1462 55.1561C34.9369 55.3161 34.7612 55.5159 34.6294 55.744C34.4975 55.9721 34.412 56.224 34.3778 56.4853C34.3436 56.7465 34.3613 57.012 34.43 57.2663C34.4986 57.5207 34.6169 57.759 34.7779 57.9675C34.939 58.176 35.1396 58.3507 35.3684 58.4814Z" fill="#00CCFF"/>
<path d="M44.2971 59.0174L43.4309 58.5174C42.9715 58.2525 42.4256 58.1809 41.9134 58.3184C41.4012 58.4558 40.9645 58.7911 40.6994 59.2504C40.4342 59.7097 40.3624 60.2555 40.4995 60.7678C40.6367 61.2801 40.9717 61.7169 41.4309 61.9823L42.2971 62.4823C42.5246 62.6138 42.7758 62.6991 43.0363 62.7335C43.2968 62.7679 43.5616 62.7506 43.8154 62.6826C44.0692 62.6146 44.3072 62.4973 44.5157 62.3374C44.7241 62.1774 44.899 61.9779 45.0304 61.7504C45.1618 61.5228 45.247 61.2716 45.2813 61.011C45.3155 60.7505 45.2981 60.4858 45.23 60.232C45.1619 59.9782 45.0444 59.7403 44.8844 59.5319C44.7243 59.3235 44.5248 59.1487 44.2971 59.0174ZM29.3069 54.9823L30.1731 55.4823C30.4006 55.6138 30.6518 55.6991 30.9123 55.7335C31.1728 55.7679 31.4375 55.7506 31.6914 55.6826C31.9452 55.6146 32.1831 55.4973 32.3916 55.3374C32.6001 55.1774 32.775 54.9779 32.9064 54.7504C33.0377 54.5228 33.123 54.2716 33.1572 54.011C33.1915 53.7505 33.174 53.4858 33.1059 53.232C33.0378 52.9782 32.9204 52.7403 32.7603 52.5319C32.6003 52.3235 32.4007 52.1487 32.1731 52.0174L31.3069 51.5174C31.0794 51.386 30.8282 51.3006 30.5677 51.2662C30.3071 51.2318 30.0424 51.2491 29.7886 51.3171C29.5347 51.3851 29.2968 51.5024 29.0883 51.6623C28.8798 51.8223 28.7049 52.0218 28.5736 52.2493C28.4422 52.4769 28.357 52.7282 28.3227 52.9887C28.2885 53.2492 28.3059 53.5139 28.374 53.7677C28.4421 54.0215 28.5595 54.2594 28.7196 54.4678C28.8797 54.6762 29.0792 54.851 29.3069 54.9823Z" fill="black"/>
<path d="M39.1189 70.1541L38.1521 69.8953C37.6398 69.758 37.094 69.8299 36.6346 70.0951C36.1753 70.3603 35.8402 70.797 35.7029 71.3093C35.5656 71.8216 35.6375 72.3675 35.9027 72.8268C36.1679 73.2861 36.6047 73.6213 37.117 73.7586L38.0838 74.0174C38.3374 74.0853 38.602 74.1027 38.8624 74.0684C39.1227 74.0341 39.3738 73.9489 39.6012 73.8176C39.8287 73.6863 40.028 73.5115 40.1879 73.3031C40.3477 73.0948 40.465 72.857 40.533 72.6033C40.6009 72.3496 40.6183 72.0851 40.584 71.8247C40.5497 71.5643 40.4645 71.3133 40.3332 71.0858C40.2019 70.8584 40.0271 70.659 39.8187 70.4992C39.6104 70.3393 39.3726 70.222 39.1189 70.1541ZM23.5945 70.1345L24.5603 70.3933C24.814 70.4613 25.0786 70.4786 25.3389 70.4444C25.5993 70.4101 25.8504 70.3249 26.0778 70.1936C26.3052 70.0622 26.5046 69.8874 26.6644 69.6791C26.8243 69.4707 26.9416 69.2329 27.0095 68.9793C27.0775 68.7256 27.0949 68.461 27.0606 68.2007C27.0263 67.9403 26.9411 67.6892 26.8098 67.4618C26.6785 67.2344 26.5036 67.035 26.2953 66.8752C26.0869 66.7153 25.8492 66.598 25.5955 66.5301L24.6297 66.2713C24.376 66.2033 24.1114 66.186 23.8511 66.2202C23.5907 66.2545 23.3396 66.3397 23.1122 66.471C22.8848 66.6023 22.6854 66.7772 22.5256 66.9855C22.3657 67.1939 22.2484 67.4317 22.1804 67.6853C22.1125 67.939 22.0951 68.2036 22.1294 68.4639C22.1637 68.7243 22.2489 68.9754 22.3802 69.2028C22.5115 69.4302 22.6864 69.6296 22.8947 69.7894C23.103 69.9493 23.3408 70.0666 23.5945 70.1345Z" fill="#00CCFF"/>
<path d="M32.3572 68.3416L31.3914 68.0828C31.1377 68.0148 30.8731 67.9975 30.6128 68.0318C30.3524 68.066 30.1013 68.1513 29.8739 68.2826C29.6465 68.4139 29.4471 68.5887 29.2873 68.797C29.1274 69.0054 29.0101 69.2432 28.9422 69.4969C28.8742 69.7505 28.8569 70.0151 28.8911 70.2755C28.9254 70.5358 29.0106 70.7869 29.1419 71.0143C29.2733 71.2418 29.4481 71.4411 29.6564 71.601C29.8648 71.7608 30.1026 71.8781 30.3562 71.9461L31.322 72.2049C31.8343 72.3421 32.3802 72.2703 32.8395 72.0051C33.2988 71.7399 33.634 71.3031 33.7713 70.7908C33.9085 70.2785 33.8367 69.7326 33.5715 69.2733C33.3063 68.814 32.8695 68.4788 32.3572 68.3416V68.3416ZM35.9998 86.2498H36.9998C37.5302 86.2498 38.0389 86.0391 38.414 85.664C38.7891 85.2889 38.9998 84.7802 38.9998 84.2498C38.9998 83.7194 38.7891 83.2106 38.414 82.8356C38.0389 82.4605 37.5302 82.2498 36.9998 82.2498H35.9998C35.4694 82.2498 34.9606 82.4605 34.5856 82.8356C34.2105 83.2106 33.9998 83.7194 33.9998 84.2498C33.9998 84.7802 34.2105 85.2889 34.5856 85.664C34.9606 86.0391 35.4694 86.2498 35.9998 86.2498Z" fill="black"/>
<path d="M30 86.25C30.5304 86.25 31.0391 86.0393 31.4142 85.6642C31.7893 85.2891 32 84.7804 32 84.25C32 83.7196 31.7893 83.2109 31.4142 82.8358C31.0391 82.4607 30.5304 82.25 30 82.25H29C28.4696 82.25 27.9609 82.4607 27.5858 82.8358C27.2107 83.2109 27 83.7196 27 84.25C27 84.7804 27.2107 85.2891 27.5858 85.6642C27.9609 86.0393 28.4696 86.25 29 86.25H30Z" fill="#00CCFF"/>
<path d="M25 84.25C25 83.7196 24.7893 83.2109 24.4142 82.8358C24.0391 82.4607 23.5304 82.25 23 82.25H22C21.4696 82.25 20.9609 82.4607 20.5858 82.8358C20.2107 83.2109 20 83.7196 20 84.25C20 84.7804 20.2107 85.2891 20.5858 85.6642C20.9609 86.0393 21.4696 86.25 22 86.25H23C23.5304 86.25 24.0391 86.0393 24.4142 85.6642C24.7893 85.2891 25 84.7804 25 84.25Z" fill="black"/>
<path d="M38.0839 94.4822L37.1171 94.741C36.8627 94.8083 36.6241 94.9252 36.415 95.0849C36.2059 95.2446 36.0303 95.444 35.8984 95.6717C35.7665 95.8993 35.6808 96.1508 35.6462 96.4117C35.6117 96.6725 35.629 96.9376 35.6971 97.1918C35.7652 97.446 35.8828 97.6842 36.0431 97.8928C36.2034 98.1015 36.4034 98.2764 36.6315 98.4076C36.8596 98.5389 37.1113 98.6238 37.3723 98.6575C37.6332 98.6912 37.8983 98.6732 38.1522 98.6043L39.119 98.3455C39.3727 98.2775 39.6105 98.1602 39.8188 98.0004C40.0272 97.8405 40.202 97.6412 40.3333 97.4137C40.4646 97.1863 40.5498 96.9352 40.5841 96.6749C40.6184 96.4145 40.6011 96.1499 40.5331 95.8963C40.4651 95.6426 40.3479 95.4048 40.188 95.1965C40.0281 94.9881 39.8288 94.8133 39.6013 94.682C39.3739 94.5507 39.1228 94.4654 38.8625 94.4312C38.6021 94.3969 38.3375 94.4142 38.0839 94.4822ZM24.5604 98.1062L23.5946 98.365C23.3402 98.4323 23.1016 98.5492 22.8925 98.7089C22.6834 98.8686 22.5078 99.068 22.3759 99.2957C22.244 99.5234 22.1583 99.7748 22.1238 100.036C22.0892 100.297 22.1065 100.562 22.1746 100.816C22.2427 101.07 22.3603 101.308 22.5206 101.517C22.681 101.726 22.8809 101.9 23.109 102.032C23.3371 102.163 23.5888 102.248 23.8498 102.282C24.1107 102.315 24.3758 102.297 24.6298 102.228L25.5956 101.97C26.1079 101.832 26.5447 101.497 26.8099 101.038C27.075 100.578 27.1469 100.033 27.0096 99.5203C26.8724 99.008 26.5372 98.5712 26.0779 98.306C25.6186 98.0408 25.0727 97.969 24.5604 98.1062Z" fill="#00CCFF"/>
<path d="M31.3222 96.2947L30.3564 96.5535C30.1021 96.6209 29.8637 96.7379 29.6548 96.8976C29.4458 97.0574 29.2704 97.2568 29.1386 97.4844C29.0068 97.712 28.9212 97.9634 28.8867 98.2242C28.8522 98.4849 28.8695 98.7499 28.9376 99.004C29.0057 99.258 29.1232 99.4962 29.2834 99.7047C29.4437 99.9133 29.6435 100.088 29.8715 100.219C30.0994 100.351 30.351 100.436 30.6118 100.47C30.8727 100.503 31.1376 100.485 31.3915 100.417L32.3574 100.158C32.8697 100.021 33.3064 99.6856 33.5716 99.2262C33.8368 98.7669 33.9087 98.2211 33.7714 97.7088C33.6341 97.1965 33.299 96.7597 32.8397 96.4945C32.3803 96.2293 31.8345 96.1574 31.3222 96.2947L31.3222 96.2947ZM30.1728 113.017L29.3066 113.517C28.8474 113.783 28.5124 114.22 28.3752 114.732C28.238 115.244 28.3099 115.79 28.575 116.249C28.8402 116.709 29.2768 117.044 29.7891 117.181C30.3013 117.319 30.8471 117.247 31.3066 116.982L32.1728 116.482C32.632 116.217 32.967 115.78 33.1041 115.268C33.2413 114.755 33.1694 114.21 32.9043 113.75C32.6392 113.291 32.2025 112.956 31.6903 112.818C31.1781 112.681 30.6322 112.752 30.1728 113.017Z" fill="black"/>
<path d="M38.966 110.249C38.8347 110.022 38.6597 109.822 38.4513 109.663C38.2428 109.503 38.0049 109.386 37.7512 109.318C37.4974 109.25 37.2328 109.233 36.9724 109.267C36.712 109.302 36.461 109.387 36.2336 109.519L35.3684 110.019C35.1396 110.15 34.939 110.324 34.7779 110.533C34.6169 110.741 34.4986 110.98 34.43 111.234C34.3613 111.488 34.3436 111.754 34.3778 112.015C34.412 112.276 34.4975 112.528 34.6294 112.756C34.7612 112.984 34.9369 113.184 35.1462 113.344C35.3555 113.504 35.5944 113.621 35.8491 113.689C36.1038 113.756 36.3693 113.772 36.6304 113.737C36.8914 113.701 37.1429 113.615 37.3704 113.482L38.2356 112.982C38.6948 112.716 39.0297 112.279 39.1667 111.767C39.3037 111.254 39.2315 110.708 38.966 110.249Z" fill="#00CCFF"/>
<path d="M42.4326 110.25C42.783 110.25 43.1272 110.158 43.4306 109.982L44.2968 109.482C44.756 109.217 45.091 108.78 45.2281 108.268C45.3653 107.755 45.2934 107.21 45.0283 106.75C44.7632 106.291 44.3265 105.956 43.8143 105.818C43.3021 105.681 42.7562 105.753 42.2968 106.017L41.4306 106.517C41.049 106.738 40.7508 107.078 40.5823 107.485C40.4138 107.892 40.3844 108.343 40.4986 108.768C40.6128 109.194 40.8643 109.57 41.214 109.837C41.5637 110.105 41.9921 110.25 42.4326 110.25Z" fill="black"/>
<path d="M39.4522 125.97L38.7452 126.677C38.5589 126.862 38.411 127.083 38.3101 127.325C38.2091 127.568 38.157 127.829 38.1567 128.091C38.1565 128.354 38.2081 128.615 38.3086 128.858C38.4091 129.101 38.5565 129.322 38.7425 129.507C38.9284 129.693 39.1492 129.841 39.3921 129.941C39.6351 130.042 39.8955 130.093 40.1584 130.093C40.4214 130.093 40.6817 130.041 40.9245 129.94C41.1672 129.839 41.3877 129.691 41.5733 129.505L42.2803 128.798C42.6537 128.422 42.8629 127.914 42.8622 127.385C42.8615 126.855 42.6509 126.348 42.2765 125.973C41.9021 125.599 41.3946 125.388 40.8651 125.388C40.3357 125.387 39.8275 125.596 39.4522 125.97H39.4522ZM52.1797 118.898C52.5531 118.523 52.7623 118.015 52.7616 117.485C52.7609 116.956 52.5503 116.448 52.1759 116.074C51.8015 115.7 51.294 115.489 50.7645 115.488C50.2351 115.488 49.727 115.697 49.3516 116.07L48.6446 116.777C48.4588 116.963 48.3114 117.183 48.2108 117.426C48.1102 117.669 48.0584 117.929 48.0584 118.191C48.0584 118.454 48.1101 118.714 48.2106 118.957C48.3111 119.2 48.4584 119.42 48.6441 119.606C48.8299 119.792 49.0504 119.939 49.2931 120.039C49.5357 120.14 49.7958 120.192 50.0585 120.192C50.3212 120.191 50.5813 120.14 50.8239 120.039C51.0666 119.939 51.287 119.791 51.4727 119.605L52.1797 118.898Z" fill="#00CCFF"/>
<path d="M44.4025 121.019L43.6955 121.726C43.5098 121.912 43.3624 122.133 43.2618 122.375C43.1612 122.618 43.1094 122.878 43.1094 123.141C43.1093 123.403 43.161 123.663 43.2615 123.906C43.362 124.149 43.5094 124.369 43.6951 124.555C43.8808 124.741 44.1013 124.888 44.344 124.989C44.5867 125.089 44.8468 125.141 45.1095 125.141C45.3722 125.141 45.6322 125.089 45.8749 124.988C46.1175 124.888 46.338 124.74 46.5237 124.555L47.2307 123.848C47.604 123.472 47.8133 122.964 47.8126 122.435C47.8119 121.905 47.6013 121.398 47.2269 121.023C46.8525 120.649 46.345 120.438 45.8155 120.438C45.2861 120.437 44.7779 120.646 44.4026 121.019L44.4025 121.019ZM61.5002 123.221C61.2727 123.089 61.0216 123.004 60.7611 122.969C60.5006 122.935 60.2359 122.952 59.9822 123.02C59.7284 123.088 59.4905 123.206 59.2822 123.366C59.0738 123.526 58.899 123.725 58.7678 123.953L58.2678 124.819C58.0029 125.279 57.9313 125.825 58.0687 126.337C58.2062 126.849 58.5414 127.286 59.0007 127.551C59.46 127.816 60.0058 127.888 60.5181 127.751C61.0304 127.613 61.4673 127.278 61.7326 126.819L62.2326 125.953C62.4975 125.493 62.5692 124.948 62.4319 124.435C62.2945 123.923 61.9594 123.486 61.5002 123.221Z" fill="black"/>
<path d="M58.001 129.285C57.7737 129.153 57.5226 129.067 57.2622 129.033C57.0018 128.998 56.7372 129.016 56.4834 129.083C56.2297 129.151 55.9917 129.268 55.7833 129.428C55.5749 129.588 55.4 129.788 55.2686 130.015L54.7686 130.88C54.6356 131.108 54.5489 131.359 54.5134 131.62C54.4779 131.881 54.4943 132.147 54.5617 132.401C54.6291 132.656 54.7462 132.895 54.9062 133.104C55.0662 133.314 55.266 133.489 55.4941 133.621C55.7222 133.753 55.9741 133.839 56.2353 133.873C56.4966 133.907 56.762 133.889 57.0164 133.821C57.2708 133.752 57.509 133.634 57.7176 133.473C57.9261 133.312 58.1008 133.111 58.2315 132.882L58.7315 132.017C58.997 131.558 59.0692 131.012 58.9322 130.499C58.7952 129.987 58.4602 129.55 58.001 129.285Z" fill="#00CCFF"/>
<path d="M54.4998 135.345C54.2723 135.214 54.0212 135.129 53.7607 135.094C53.5003 135.06 53.2356 135.077 52.9819 135.145C52.7281 135.213 52.4903 135.331 52.2819 135.491C52.0735 135.651 51.8987 135.85 51.7674 136.078L51.2674 136.944C51.0025 137.403 50.9309 137.949 51.0683 138.461C51.2058 138.974 51.541 139.41 52.0003 139.675C52.4596 139.94 53.0054 140.012 53.5177 139.875C54.03 139.738 54.4669 139.403 54.7322 138.944L55.2322 138.078C55.4971 137.618 55.5688 137.072 55.4315 136.56C55.2941 136.047 54.959 135.611 54.4998 135.345Z" fill="black"/>
<path d="M72.3533 127.717C72.0996 127.648 71.8349 127.63 71.5742 127.664C71.3136 127.698 71.0622 127.783 70.8346 127.915C70.607 128.046 70.4076 128.221 70.2479 128.43C70.0882 128.639 69.9714 128.877 69.9041 129.131L69.6453 130.098C69.5773 130.351 69.56 130.616 69.5943 130.876C69.6285 131.137 69.7138 131.388 69.8451 131.615C69.9764 131.843 70.1512 132.042 70.3595 132.202C70.5679 132.362 70.8057 132.479 71.0594 132.547C71.313 132.615 71.5776 132.632 71.838 132.598C72.0983 132.564 72.3494 132.479 72.5768 132.347C72.8043 132.216 73.0036 132.041 73.1635 131.833C73.3233 131.624 73.4406 131.387 73.5086 131.133L73.7674 130.166C73.8354 129.912 73.8528 129.648 73.8185 129.387C73.7843 129.127 73.6991 128.876 73.5678 128.649C73.4364 128.421 73.2616 128.222 73.0532 128.062C72.8448 127.902 72.607 127.785 72.3533 127.717Z" fill="#00CCFF"/>
<path d="M70.5408 134.479C70.2871 134.41 70.0224 134.392 69.7618 134.426C69.5011 134.46 69.2498 134.545 69.0222 134.676C68.7946 134.808 68.5952 134.983 68.4355 135.192C68.2758 135.4 68.1589 135.639 68.0916 135.893L67.8328 136.858C67.6955 137.371 67.7674 137.917 68.0326 138.376C68.2978 138.835 68.7345 139.17 69.2469 139.308C69.7592 139.445 70.305 139.373 70.7643 139.108C71.2236 138.843 71.5588 138.406 71.6961 137.894L71.9549 136.928C72.0229 136.674 72.0403 136.41 72.006 136.149C71.9717 135.889 71.8865 135.638 71.7552 135.41C71.6239 135.183 71.4491 134.983 71.2407 134.824C71.0323 134.664 70.7945 134.546 70.5408 134.479Z" fill="black"/>
<path d="M68.7293 141.24C68.4756 141.172 68.2109 141.154 67.9504 141.188C67.6898 141.222 67.4386 141.307 67.211 141.439C66.9835 141.57 66.7841 141.745 66.6243 141.954C66.4646 142.162 66.3476 142.4 66.2801 142.654L66.0213 143.62C65.884 144.132 65.9559 144.678 66.2211 145.138C66.4862 145.597 66.923 145.932 67.4353 146.069C67.9476 146.207 68.4935 146.135 68.9528 145.87C69.4121 145.604 69.7473 145.168 69.8846 144.655L70.1433 143.689C70.2114 143.436 70.2287 143.171 70.1945 142.911C70.1602 142.65 70.075 142.399 69.9437 142.172C69.8124 141.944 69.6375 141.745 69.4292 141.585C69.2208 141.425 68.983 141.308 68.7293 141.24ZM83.9998 136.25C83.4694 136.25 82.9607 136.461 82.5856 136.836C82.2105 137.211 81.9998 137.72 81.9998 138.25V139.25C81.9998 139.78 82.2105 140.289 82.5856 140.664C82.9606 141.039 83.4694 141.25 83.9998 141.25C84.5302 141.25 85.0389 141.039 85.414 140.664C85.7891 140.289 85.9998 139.78 85.9998 139.25V138.25C85.9998 137.72 85.789 137.211 85.414 136.836C85.0389 136.461 84.5302 136.25 83.9998 136.25Z" fill="#00CCFF"/>
<path d="M84 129.25C83.4696 129.25 82.9609 129.461 82.5858 129.836C82.2107 130.211 82 130.72 82 131.25V132.25C82 132.78 82.2107 133.289 82.5858 133.664C82.9609 134.039 83.4696 134.25 84 134.25C84.5304 134.25 85.0391 134.039 85.4142 133.664C85.7893 133.289 86 132.78 86 132.25V131.25C86 130.72 85.7893 130.211 85.4142 129.836C85.0391 129.461 84.5304 129.25 84 129.25ZM84 143.25C83.4696 143.25 82.9609 143.461 82.5858 143.836C82.2107 144.211 82 144.72 82 145.25V146.25C82 146.78 82.2107 147.289 82.5858 147.664C82.9609 148.039 83.4696 148.25 84 148.25C84.5304 148.25 85.0391 148.039 85.4142 147.664C85.7893 147.289 86 146.78 86 146.25V145.25C86 144.72 85.7893 144.211 85.4142 143.836C85.0391 143.461 84.5304 143.25 84 143.25Z" fill="black"/>
<path d="M101.72 142.654C101.582 142.142 101.247 141.705 100.788 141.44C100.328 141.175 99.7826 141.103 99.2703 141.24C98.758 141.377 98.3212 141.712 98.056 142.172C97.7908 142.631 97.719 143.177 97.8562 143.689L98.115 144.655C98.2523 145.167 98.5875 145.604 99.0468 145.869C99.5061 146.135 100.052 146.206 100.564 146.069C101.077 145.932 101.513 145.597 101.779 145.137C102.044 144.678 102.116 144.132 101.978 143.62L101.72 142.654Z" fill="#00CCFF"/>
<path d="M98.7527 139.307C99.0064 139.239 99.2442 139.122 99.4526 138.962C99.661 138.803 99.8358 138.603 99.9671 138.376C100.098 138.148 100.184 137.897 100.218 137.637C100.252 137.376 100.235 137.112 100.167 136.858L99.908 135.892C99.84 135.639 99.7227 135.401 99.5629 135.193C99.403 134.984 99.2037 134.809 98.9762 134.678C98.7488 134.547 98.4977 134.462 98.2374 134.427C97.977 134.393 97.7124 134.41 97.4588 134.478C97.2051 134.546 96.9673 134.664 96.759 134.823C96.5506 134.983 96.3758 135.183 96.2445 135.41C96.1132 135.637 96.0279 135.889 95.9937 136.149C95.9594 136.409 95.9767 136.674 96.0447 136.928L96.3035 137.893C96.3708 138.147 96.4877 138.386 96.6474 138.594C96.8072 138.803 97.0065 138.978 97.2341 139.11C97.4617 139.241 97.7131 139.326 97.9737 139.36C98.2343 139.394 98.499 139.376 98.7527 139.307Z" fill="black"/>
<path d="M96.9402 132.547C97.1939 132.479 97.4317 132.362 97.6401 132.202C97.8485 132.042 98.0233 131.842 98.1547 131.615C98.286 131.388 98.3712 131.136 98.4054 130.876C98.4397 130.616 98.4223 130.351 98.3543 130.097L98.0955 129.131C98.0275 128.877 97.9102 128.639 97.7504 128.431C97.5905 128.222 97.3912 128.048 97.1637 127.916C96.9363 127.785 96.6852 127.7 96.4249 127.666C96.1645 127.631 95.8999 127.649 95.6463 127.717C95.3926 127.785 95.1548 127.902 94.9465 128.062C94.7381 128.222 94.5633 128.421 94.432 128.648C94.3007 128.876 94.2154 129.127 94.1812 129.387C94.1469 129.648 94.1642 129.912 94.2322 130.166L94.491 131.133C94.5583 131.387 94.6752 131.625 94.8349 131.834C94.9947 132.042 95.194 132.217 95.4216 132.349C95.6492 132.48 95.9006 132.565 96.1612 132.599C96.4218 132.633 96.6865 132.615 96.9402 132.547ZM113.231 130.88L112.731 130.014C112.6 129.786 112.426 129.585 112.217 129.424C112.009 129.263 111.77 129.145 111.516 129.076C111.262 129.007 110.996 128.99 110.735 129.024C110.474 129.058 110.222 129.144 109.994 129.275C109.766 129.407 109.566 129.583 109.406 129.792C109.246 130.002 109.129 130.24 109.061 130.495C108.994 130.75 108.978 131.015 109.013 131.276C109.049 131.538 109.135 131.789 109.268 132.016L109.768 132.882C109.899 133.11 110.074 133.311 110.282 133.472C110.491 133.633 110.729 133.751 110.983 133.82C111.238 133.889 111.503 133.906 111.764 133.872C112.026 133.838 112.278 133.753 112.506 133.621C112.734 133.489 112.934 133.313 113.094 133.104C113.254 132.895 113.371 132.656 113.438 132.401C113.506 132.146 113.522 131.881 113.486 131.62C113.451 131.359 113.364 131.107 113.231 130.88Z" fill="#00CCFF"/>
<path d="M116.232 136.078C115.967 135.618 115.53 135.283 115.018 135.146C114.505 135.009 113.96 135.081 113.5 135.346C113.041 135.611 112.706 136.048 112.568 136.56C112.431 137.072 112.503 137.618 112.767 138.078L113.267 138.944C113.533 139.403 113.97 139.738 114.482 139.875C114.994 140.012 115.54 139.94 115.999 139.675C116.459 139.41 116.794 138.973 116.931 138.461C117.069 137.949 116.997 137.403 116.732 136.944L116.232 136.078ZM109.732 124.82L109.232 123.954C108.967 123.494 108.53 123.159 108.018 123.022C107.505 122.885 106.96 122.957 106.5 123.222C106.041 123.487 105.706 123.924 105.568 124.436C105.431 124.948 105.503 125.494 105.767 125.954L106.267 126.82C106.399 127.047 106.573 127.247 106.782 127.407C106.99 127.567 107.228 127.685 107.482 127.753C107.736 127.821 108 127.838 108.261 127.804C108.522 127.77 108.773 127.684 109 127.553C109.228 127.422 109.427 127.247 109.587 127.038C109.747 126.83 109.865 126.592 109.933 126.338C110.001 126.084 110.018 125.819 109.983 125.559C109.949 125.298 109.864 125.047 109.732 124.82Z" fill="black"/>
<path d="M128.548 125.97C128.173 125.596 127.664 125.386 127.135 125.387C126.605 125.387 126.097 125.598 125.722 125.972C125.348 126.347 125.137 126.855 125.137 127.385C125.136 127.914 125.346 128.423 125.72 128.798L126.427 129.505C126.802 129.878 127.31 130.088 127.84 130.087C128.369 130.086 128.877 129.875 129.251 129.501C129.625 129.127 129.836 128.619 129.837 128.09C129.838 127.56 129.628 127.052 129.255 126.677L128.548 125.97Z" fill="#00CCFF"/>
<path d="M123.598 121.02C123.222 120.646 122.714 120.436 122.184 120.437C121.655 120.437 121.147 120.648 120.772 121.022C120.398 121.397 120.187 121.905 120.187 122.434C120.186 122.964 120.396 123.472 120.77 123.848L121.477 124.555C121.852 124.929 122.36 125.138 122.89 125.138C123.42 125.137 123.927 124.927 124.302 124.552C124.677 124.177 124.887 123.67 124.888 123.14C124.888 122.61 124.679 122.102 124.305 121.727L123.598 121.02Z" fill="black"/>
<path d="M118.648 116.07C118.273 115.696 117.765 115.487 117.235 115.487C116.705 115.488 116.198 115.698 115.823 116.073C115.448 116.448 115.238 116.955 115.237 117.485C115.237 118.015 115.446 118.523 115.82 118.898L116.527 119.605C116.903 119.979 117.411 120.189 117.941 120.189C118.47 120.188 118.978 119.977 119.353 119.603C119.727 119.228 119.938 118.72 119.938 118.191C119.939 117.661 119.729 117.153 119.355 116.777L118.648 116.07Z" fill="#00CCFF"/>
<path d="M123.703 109.482L124.569 109.982C124.797 110.114 125.048 110.199 125.308 110.233C125.569 110.268 125.834 110.251 126.088 110.183C126.341 110.115 126.579 109.997 126.788 109.837C126.996 109.677 127.171 109.478 127.303 109.25C127.434 109.023 127.519 108.772 127.553 108.511C127.588 108.25 127.57 107.986 127.502 107.732C127.434 107.478 127.317 107.24 127.157 107.032C126.996 106.823 126.797 106.649 126.569 106.517L125.703 106.017C125.244 105.753 124.698 105.681 124.186 105.818C123.673 105.956 123.237 106.291 122.972 106.75C122.706 107.21 122.635 107.755 122.772 108.268C122.909 108.78 123.244 109.217 123.703 109.482Z" fill="black"/>
<path d="M132.632 110.019L131.766 109.519C131.307 109.256 130.763 109.186 130.253 109.324C129.742 109.462 129.307 109.796 129.042 110.254C128.778 110.712 128.705 111.256 128.841 111.767C128.976 112.278 129.308 112.715 129.764 112.981L130.63 113.481C130.857 113.614 131.109 113.701 131.37 113.737C131.631 113.772 131.896 113.756 132.151 113.688C132.406 113.621 132.644 113.504 132.854 113.344C133.063 113.184 133.239 112.984 133.371 112.756C133.502 112.528 133.588 112.276 133.622 112.015C133.656 111.753 133.639 111.488 133.57 111.234C133.501 110.979 133.383 110.741 133.222 110.532C133.061 110.324 132.86 110.149 132.632 110.019Z" fill="#00CCFF"/>
<path d="M138.693 113.517L137.827 113.017C137.368 112.753 136.822 112.681 136.31 112.818C135.797 112.956 135.361 113.291 135.096 113.75C134.83 114.21 134.759 114.755 134.896 115.268C135.033 115.78 135.368 116.217 135.827 116.482L136.693 116.982C136.921 117.114 137.172 117.199 137.432 117.233C137.693 117.268 137.958 117.251 138.212 117.183C138.465 117.115 138.703 116.997 138.912 116.837C139.12 116.677 139.295 116.478 139.427 116.25C139.558 116.023 139.643 115.772 139.677 115.511C139.712 115.25 139.694 114.986 139.626 114.732C139.558 114.478 139.441 114.24 139.281 114.032C139.12 113.823 138.921 113.649 138.693 113.517Z" fill="black"/>
<path d="M128.881 98.3455L129.847 98.6043C130.36 98.7415 130.906 98.6697 131.365 98.4045C131.824 98.1393 132.159 97.7025 132.297 97.1902C132.434 96.6779 132.362 96.1321 132.097 95.6727C131.832 95.2134 131.395 94.8783 130.883 94.741L129.916 94.4822C129.662 94.4142 129.398 94.3969 129.137 94.4312C128.877 94.4654 128.626 94.5507 128.398 94.682C128.171 94.8133 127.972 94.9881 127.812 95.1965C127.652 95.4048 127.535 95.6426 127.467 95.8963C127.399 96.1499 127.381 96.4145 127.416 96.6749C127.45 96.9352 127.535 97.1863 127.666 97.4137C127.798 97.6412 127.972 97.8405 128.181 98.0004C128.389 98.1602 128.627 98.2775 128.881 98.3455Z" fill="#00CCFF"/>
<path d="M136.608 100.417C137.12 100.554 137.666 100.482 138.126 100.217C138.585 99.9518 138.92 99.515 139.057 99.0027C139.195 98.4904 139.123 97.9446 138.858 97.4852C138.592 97.0259 138.156 96.6908 137.643 96.5535L136.678 96.2947C136.165 96.1574 135.619 96.2293 135.16 96.4945C134.701 96.7597 134.366 97.1965 134.228 97.7088C134.091 98.2211 134.163 98.7669 134.428 99.2262C134.693 99.6856 135.13 100.021 135.642 100.158L136.608 100.417Z" fill="black"/>
<path d="M144.405 98.365L143.439 98.1062C142.927 97.969 142.381 98.0408 141.922 98.306C141.462 98.5712 141.127 99.008 140.99 99.5203C140.853 100.033 140.925 100.578 141.19 101.038C141.455 101.497 141.892 101.832 142.404 101.97L143.37 102.228C143.882 102.366 144.428 102.294 144.887 102.029C145.347 101.763 145.682 101.327 145.819 100.814C145.956 100.302 145.885 99.7561 145.619 99.2968C145.354 98.8375 144.917 98.5023 144.405 98.365Z" fill="#00CCFF"/>
<path d="M146 82.25H145C144.47 82.25 143.961 82.4607 143.586 82.8358C143.211 83.2109 143 83.7196 143 84.25C143 84.7804 143.211 85.2891 143.586 85.6642C143.961 86.0393 144.47 86.25 145 86.25H146C146.53 86.25 147.039 86.0393 147.414 85.6642C147.789 85.2891 148 84.7804 148 84.25C148 83.7196 147.789 83.2109 147.414 82.8358C147.039 82.4607 146.53 82.25 146 82.25ZM132 82.25H131C130.47 82.25 129.961 82.4607 129.586 82.8358C129.211 83.2109 129 83.7196 129 84.25C129 84.7804 129.211 85.2891 129.586 85.6642C129.961 86.0393 130.47 86.25 131 86.25H132C132.53 86.25 133.039 86.0393 133.414 85.6642C133.789 85.2891 134 84.7804 134 84.25C134 83.7196 133.789 83.2109 133.414 82.8358C133.039 82.4607 132.53 82.25 132 82.25Z" fill="black"/>
<path d="M139 82.2498H138C137.47 82.2498 136.961 82.4605 136.586 82.8356C136.211 83.2106 136 83.7194 136 84.2498C136 84.7802 136.211 85.2889 136.586 85.664C136.961 86.0391 137.47 86.2498 138 86.2498H139C139.531 86.2498 140.039 86.0391 140.414 85.664C140.789 85.2889 141 84.7802 141 84.2498C141 83.7194 140.789 83.2106 140.414 82.8356C140.039 82.4605 139.531 82.2498 139 82.2498ZM130.883 73.7586C131.395 73.6213 131.832 73.2861 132.097 72.8268C132.362 72.3675 132.434 71.8217 132.297 71.3094C132.16 70.7971 131.825 70.3603 131.365 70.0951C130.906 69.8299 130.36 69.758 129.848 69.8953L128.881 70.1541C128.412 70.2798 128.006 70.5715 127.736 70.9749C127.467 71.3782 127.353 71.8658 127.416 72.3468C127.479 72.8278 127.715 73.2694 128.08 73.5895C128.444 73.9096 128.912 74.0863 129.398 74.0867C129.569 74.0867 130.883 73.7586 130.883 73.7586Z" fill="#00CCFF"/>
<path d="M136.159 72.2747C136.334 72.2745 136.509 72.2512 136.678 72.2053L137.644 71.9465C137.898 71.8787 138.136 71.7616 138.344 71.6018C138.553 71.4419 138.728 71.2426 138.859 71.0151C138.991 70.7876 139.076 70.5364 139.11 70.2759C139.145 70.0154 139.127 69.7507 139.059 69.4969C138.991 69.243 138.874 69.0051 138.714 68.7967C138.554 68.5883 138.355 68.4134 138.127 68.2821C137.899 68.1509 137.648 68.0657 137.388 68.0316C137.127 67.9975 136.862 68.015 136.609 68.0832L135.643 68.342C135.174 68.4677 134.767 68.7594 134.498 69.1628C134.228 69.5662 134.115 70.0537 134.178 70.5347C134.241 71.0157 134.477 71.4573 134.841 71.7774C135.206 72.0975 135.674 72.2742 136.159 72.2747Z" fill="black"/>
<path d="M142.921 70.4627C143.096 70.4626 143.271 70.4393 143.44 70.3933L144.405 70.1346C144.918 69.9973 145.355 69.6621 145.62 69.2028C145.885 68.7435 145.957 68.1976 145.819 67.6853C145.682 67.173 145.347 66.7362 144.888 66.4711C144.428 66.2059 143.883 66.134 143.37 66.2713L142.404 66.5301C141.936 66.6558 141.529 66.9475 141.259 67.3508C140.99 67.7542 140.876 68.2418 140.939 68.7228C141.003 69.2037 141.238 69.6454 141.603 69.9655C141.967 70.2855 142.436 70.4622 142.921 70.4627H142.921Z" fill="#00CCFF"/>
<path d="M136.829 55.7499C137.179 55.7499 137.524 55.6576 137.827 55.4823L138.693 54.9823C138.921 54.851 139.12 54.6762 139.281 54.4678C139.441 54.2594 139.558 54.0215 139.626 53.7677C139.694 53.5139 139.712 53.2492 139.677 52.9887C139.643 52.7282 139.558 52.4769 139.427 52.2493C139.295 52.0218 139.12 51.8223 138.912 51.6623C138.703 51.5024 138.465 51.3851 138.212 51.3171C137.958 51.2491 137.693 51.2318 137.432 51.2662C137.172 51.3006 136.921 51.386 136.693 51.5174L135.827 52.0174C135.445 52.2376 135.147 52.5776 134.979 52.9846C134.81 53.3916 134.781 53.8429 134.895 54.2683C135.009 54.6938 135.261 55.0696 135.61 55.3375C135.96 55.6054 136.389 55.7504 136.829 55.7499ZM126.569 61.9823C126.797 61.851 126.996 61.6762 127.157 61.4678C127.317 61.2594 127.434 61.0215 127.502 60.7677C127.57 60.5139 127.588 60.2492 127.553 59.9887C127.519 59.7282 127.434 59.4769 127.303 59.2493C127.171 59.0218 126.996 58.8223 126.788 58.6623C126.579 58.5024 126.341 58.3851 126.088 58.3171C125.834 58.2491 125.569 58.2318 125.308 58.2662C125.048 58.3006 124.797 58.386 124.569 58.5174L123.703 59.0174C123.244 59.2828 122.909 59.7196 122.772 60.2319C122.635 60.7442 122.706 61.29 122.972 61.7493C123.237 62.2087 123.673 62.5439 124.186 62.6813C124.698 62.8188 125.244 62.7472 125.703 62.4823L126.569 61.9823Z" fill="black"/>
<path d="M129.034 58.2509C129.166 58.4783 129.341 58.6775 129.549 58.8373C129.758 58.9971 129.996 59.1142 130.249 59.1821C130.503 59.2499 130.768 59.2671 131.028 59.2326C131.288 59.1982 131.539 59.1128 131.767 58.9813L132.632 58.4813C132.861 58.3506 133.061 58.176 133.223 57.9674C133.384 57.7589 133.502 57.5206 133.57 57.2662C133.639 57.0119 133.657 56.7464 133.623 56.4852C133.588 56.224 133.503 55.9721 133.371 55.744C133.239 55.5159 133.064 55.3161 132.854 55.1561C132.645 54.996 132.406 54.879 132.151 54.8115C131.897 54.7441 131.631 54.7277 131.37 54.7632C131.109 54.7987 130.858 54.8855 130.63 55.0185L129.765 55.5185C129.306 55.784 128.971 56.221 128.834 56.7334C128.697 57.2458 128.769 57.7917 129.034 58.2509ZM127.134 43.1161C127.397 43.1164 127.657 43.0648 127.9 42.9642C128.142 42.8637 128.363 42.7162 128.548 42.5301L129.255 41.8231C129.628 41.4478 129.838 40.9396 129.837 40.4102C129.836 39.8808 129.626 39.3732 129.251 38.9988C128.877 38.6244 128.369 38.4138 127.84 38.4131C127.31 38.4124 126.802 38.6217 126.427 38.995L125.72 39.702C125.44 39.9817 125.25 40.3381 125.173 40.726C125.096 41.1139 125.135 41.516 125.287 41.8814C125.438 42.2468 125.694 42.5592 126.023 42.7789C126.352 42.9987 126.739 43.116 127.134 43.1161ZM115.821 49.6014C115.635 49.7871 115.487 50.0076 115.387 50.2502C115.286 50.4929 115.234 50.753 115.234 51.0156C115.234 51.2783 115.286 51.5384 115.387 51.7811C115.487 52.0238 115.634 52.2443 115.82 52.43C116.006 52.6157 116.226 52.7631 116.469 52.8636C116.712 52.9641 116.972 53.0158 117.234 53.0157C117.497 53.0157 117.757 52.9639 118 52.8633C118.243 52.7628 118.463 52.6154 118.649 52.4296L119.356 51.7226C119.729 51.3472 119.938 50.8391 119.938 50.3096C119.937 49.7802 119.726 49.2726 119.352 48.8982C118.978 48.5239 118.47 48.3132 117.941 48.3125C117.411 48.3118 116.903 48.5211 116.528 48.8944L115.821 49.6014Z" fill="#00CCFF"/>
<path d="M122.183 48.0668C122.446 48.0671 122.706 48.0155 122.949 47.915C123.192 47.8144 123.412 47.6669 123.598 47.4809L124.305 46.7739C124.678 46.3985 124.887 45.8904 124.886 45.3609C124.886 44.8315 124.675 44.3239 124.301 43.9495C123.926 43.5752 123.419 43.3645 122.889 43.3638C122.36 43.3631 121.852 43.5724 121.476 43.9458L120.769 44.6528C120.49 44.9325 120.299 45.2888 120.222 45.6767C120.145 46.0646 120.185 46.4667 120.336 46.8321C120.487 47.1976 120.744 47.5099 121.073 47.7297C121.401 47.9494 121.788 48.0668 122.183 48.0668ZM106.5 45.2797C106.959 45.5447 107.505 45.6164 108.018 45.4791C108.53 45.3417 108.967 45.0066 109.232 44.5473L109.732 43.6811C109.997 43.2216 110.069 42.6758 109.931 42.1636C109.794 41.6514 109.459 41.2147 108.999 40.9495C108.54 40.6844 107.994 40.6125 107.482 40.7497C106.97 40.8869 106.533 41.2219 106.267 41.6811L105.767 42.5473C105.503 43.0068 105.431 43.5527 105.568 44.0651C105.706 44.5774 106.041 45.0143 106.5 45.2797Z" fill="black"/>
<path d="M109.999 39.2156C110.226 39.3471 110.477 39.4324 110.738 39.4669C110.998 39.5013 111.263 39.4841 111.517 39.4163C111.77 39.3485 112.008 39.2313 112.217 39.0715C112.425 38.9118 112.6 38.7125 112.731 38.4851L113.231 37.6199C113.364 37.3924 113.451 37.141 113.487 36.8799C113.522 36.6188 113.506 36.3533 113.438 36.0986C113.371 35.8439 113.254 35.605 113.094 35.3957C112.934 35.1864 112.734 35.0108 112.506 34.8789C112.278 34.747 112.026 34.6615 111.765 34.6273C111.503 34.5931 111.238 34.6108 110.984 34.6795C110.729 34.7481 110.491 34.8664 110.282 35.0274C110.074 35.1885 109.899 35.3891 109.769 35.6179L109.269 36.4831C109.003 36.9423 108.931 37.4882 109.068 38.0006C109.205 38.5131 109.54 38.9501 109.999 39.2156Z" fill="#00CCFF"/>
<path d="M113.5 33.1557C113.959 33.4207 114.505 33.4924 115.018 33.355C115.53 33.2177 115.967 32.8826 116.232 32.4233L116.732 31.5571C116.997 31.0976 117.069 30.5518 116.931 30.0395C116.794 29.5273 116.459 29.0907 115.999 28.8255C115.54 28.5604 114.994 28.4885 114.482 28.6257C113.97 28.7629 113.533 29.0979 113.267 29.5571L112.767 30.4233C112.503 30.8828 112.431 31.4287 112.568 31.941C112.706 32.4534 113.041 32.8903 113.5 33.1557Z" fill="black"/>
<path d="M95.6464 40.783C95.9 40.8517 96.1648 40.8696 96.4254 40.8356C96.686 40.8016 96.9373 40.7165 97.1649 40.5851C97.3925 40.4537 97.5919 40.2786 97.7516 40.0699C97.9114 39.8612 98.0282 39.623 98.0956 39.3689L98.3544 38.4021C98.4917 37.8898 98.4198 37.344 98.1546 36.8846C97.8894 36.4253 97.4526 36.0902 96.9403 35.9529C96.428 35.8156 95.8822 35.8875 95.4228 36.1527C94.9635 36.4179 94.6284 36.8547 94.4911 37.367L94.2323 38.3338C94.1643 38.5874 94.1469 38.852 94.1811 39.1124C94.2154 39.3728 94.3006 39.6239 94.4319 39.8513C94.5632 40.0788 94.7381 40.2781 94.9465 40.438C95.1548 40.5978 95.3927 40.7151 95.6464 40.783ZM99.2704 27.2596C99.5241 27.3282 99.7888 27.3461 100.049 27.3122C100.31 27.2782 100.561 27.1931 100.789 27.0617C101.017 26.9303 101.216 26.7552 101.376 26.5465C101.535 26.3377 101.652 26.0995 101.72 25.8455L101.978 24.8797C102.116 24.3674 102.044 23.8215 101.779 23.3622C101.513 22.9029 101.077 22.5677 100.564 22.4305C100.052 22.2932 99.5062 22.365 99.0469 22.6302C98.5876 22.8954 98.2524 23.3322 98.1151 23.8445L97.8563 24.8103C97.7883 25.064 97.7709 25.3286 97.8052 25.589C97.8395 25.8493 97.9247 26.1004 98.056 26.3279C98.1873 26.5553 98.3621 26.7547 98.5705 26.9145C98.7789 27.0744 99.0167 27.1916 99.2704 27.2596Z" fill="#00CCFF"/>
<path d="M97.4592 34.0213C97.7129 34.09 97.9776 34.1078 98.2382 34.0739C98.4988 34.0399 98.7502 33.9548 98.9778 33.8234C99.2054 33.692 99.4047 33.5169 99.5645 33.3082C99.7242 33.0995 99.8411 32.8612 99.9084 32.6072L100.167 31.6414C100.304 31.1291 100.233 30.5832 99.9674 30.1239C99.7022 29.6646 99.2654 29.3294 98.7531 29.1922C98.2408 29.0549 97.695 29.1268 97.2357 29.3919C96.7763 29.6571 96.4412 30.0939 96.3039 30.6062L96.0451 31.572C95.9771 31.8257 95.9597 32.0903 95.994 32.3507C96.0282 32.6111 96.1135 32.8622 96.2448 33.0896C96.3761 33.317 96.5509 33.5164 96.7593 33.6762C96.9677 33.8361 97.2055 33.9533 97.4592 34.0213ZM106.59 86.7698C106.305 85.9041 105.85 85.1038 105.253 84.4154C104.655 83.7269 103.927 83.1642 103.11 82.7598L92.0002 77.7198V73.6898C93.9977 70.7784 95.0456 67.3203 95.0002 63.7898C95.0217 62.3759 94.7642 60.9716 94.2426 59.6572C93.721 58.3428 92.9454 57.1442 91.9602 56.1298C91.0761 55.2205 90.019 54.4973 88.8512 54.0027C87.6834 53.5081 86.4284 53.2521 85.1602 53.2498H82.8402C81.5719 53.2521 80.317 53.5081 79.1492 54.0027C77.9814 54.4973 76.9243 55.2205 76.0402 56.1298C75.0523 57.1484 74.2752 58.3521 73.7535 59.6717C73.2318 60.9913 72.9758 62.401 73.0002 63.8198C72.9546 67.341 74.0028 70.7896 76.0002 73.6898V77.7198L64.8502 82.7698C63.2208 83.5972 61.9843 85.0349 61.4102 86.7698C61.1195 87.9336 60.9817 89.1304 61.0002 90.3298V103.44C61.0192 104.997 61.6553 106.484 62.7688 107.573C63.8824 108.662 65.3826 109.265 66.9402 109.25H101.06C102.618 109.265 104.118 108.662 105.232 107.573C106.345 106.484 106.981 104.997 107 103.44V90.3598C107.02 89.1504 106.883 87.9435 106.59 86.7698ZM78.8802 58.9398C79.3948 58.4091 80.0101 57.9863 80.6901 57.6962C81.37 57.406 82.1009 57.2542 82.8402 57.2498H85.1602C85.8994 57.2542 86.6304 57.406 87.3103 57.6962C87.9902 57.9863 88.6055 58.4091 89.1202 58.9398C90.3671 60.2541 91.0431 62.0086 91.0002 63.8198C91.0002 69.4698 87.7902 74.2498 84.0002 74.2498C80.2102 74.2498 77.0002 69.4698 77.0002 63.7498C76.9706 61.9617 77.6459 60.2338 78.8802 58.9398ZM103 90.3298V103.44C102.982 103.937 102.768 104.406 102.404 104.746C102.041 105.085 101.557 105.266 101.06 105.25H66.9402C66.4431 105.266 65.9598 105.085 65.5961 104.746C65.2325 104.406 65.0182 103.937 65.0002 103.44V90.2898C64.982 89.4791 65.066 88.6694 65.2502 87.8798C65.4917 87.2495 65.9488 86.7251 66.5402 86.3998L76.9302 81.6898L80.0002 79.1198V77.2498C81.2312 77.9063 82.605 78.2498 84.0002 78.2498C85.3954 78.2498 86.7691 77.9063 88.0002 77.2498V79.1198L91.0702 81.6898L101.42 86.3798C102.023 86.7114 102.493 87.2413 102.75 87.8798C102.936 88.6826 103.02 89.5058 103 90.3298Z" fill="black"/>
<path d="M2 152.25C3.10457 152.25 4 151.355 4 150.25C4 149.145 3.10457 148.25 2 148.25C0.89543 148.25 0 149.145 0 150.25C0 151.355 0.89543 152.25 2 152.25Z" fill="black"/>
<path d="M11 148.25H8C7.46957 148.25 6.96086 148.461 6.58579 148.836C6.21071 149.211 6 149.72 6 150.25C6 150.78 6.21071 151.289 6.58579 151.664C6.96086 152.039 7.46957 152.25 8 152.25H11C11.5304 152.25 12.0391 152.039 12.4142 151.664C12.7893 151.289 13 150.78 13 150.25C13 149.72 12.7893 149.211 12.4142 148.836C12.0391 148.461 11.5304 148.25 11 148.25ZM160 148.25H157C156.47 148.25 155.961 148.461 155.586 148.836C155.211 149.211 155 149.72 155 150.25C155 150.78 155.211 151.289 155.586 151.664C155.961 152.039 156.47 152.25 157 152.25H160C160.53 152.25 161.039 152.039 161.414 151.664C161.789 151.289 162 150.78 162 150.25C162 149.72 161.789 149.211 161.414 148.836C161.039 148.461 160.53 148.25 160 148.25Z" fill="black"/>
<path d="M166 152.25C167.105 152.25 168 151.355 168 150.25C168 149.145 167.105 148.25 166 148.25C164.895 148.25 164 149.145 164 150.25C164 151.355 164.895 152.25 166 152.25Z" fill="black"/>
<path d="M118.154 156.25H109.846C109.343 156.29 108.874 156.518 108.532 156.889C108.19 157.26 108 157.746 108 158.25C108 158.754 108.19 159.24 108.532 159.611C108.874 159.982 109.343 160.21 109.846 160.25H118.154C118.657 160.21 119.126 159.982 119.468 159.611C119.81 159.24 120 158.754 120 158.25C120 157.746 119.81 157.26 119.468 156.889C119.126 156.518 118.657 156.29 118.154 156.25ZM58.1539 156.25H49.8462C49.3434 156.29 48.8742 156.518 48.5321 156.889C48.19 157.26 48 157.746 48 158.25C48 158.754 48.19 159.24 48.5321 159.611C48.8742 159.982 49.3434 160.21 49.8462 160.25H58.1539C58.6567 160.21 59.1258 159.982 59.468 159.611C59.8101 159.24 60.0001 158.754 60.0001 158.25C60.0001 157.746 59.8101 157.26 59.468 156.889C59.1258 156.518 58.6567 156.29 58.1539 156.25ZM104 156.25H64C63.4696 156.25 62.9609 156.461 62.5858 156.836C62.2107 157.211 62 157.72 62 158.25C62 158.78 62.2107 159.289 62.5858 159.664C62.9609 160.039 63.4696 160.25 64 160.25H79.94V162.25H72C71.4696 162.25 70.9609 162.461 70.5858 162.836C70.2107 163.211 70 163.72 70 164.25C70 164.78 70.2107 165.289 70.5858 165.664C70.9609 166.039 71.4696 166.25 72 166.25H97C97.5305 166.25 98.0392 166.039 98.4142 165.664C98.7893 165.289 99 164.78 99 164.25C99 163.72 98.7893 163.211 98.4142 162.836C98.0392 162.461 97.5305 162.25 97 162.25H88.06V160.25H104C104.53 160.25 105.039 160.039 105.414 159.664C105.789 159.289 106 158.78 106 158.25C106 157.72 105.789 157.211 105.414 156.836C105.039 156.461 104.53 156.25 104 156.25Z" fill="#00CCFF"/>
<path d="M150.721 152.25H17.2788C16.9943 152.288 16.7051 152.264 16.4306 152.18C16.156 152.097 15.9025 151.956 15.6868 151.766C15.4712 151.577 15.2984 151.344 15.1801 151.082C15.0617 150.821 15.0005 150.537 15.0005 150.25C15.0005 149.963 15.0617 149.68 15.1801 149.418C15.2984 149.157 15.4712 148.924 15.6868 148.735C15.9025 148.545 16.156 148.404 16.4306 148.321C16.7051 148.237 16.9943 148.213 17.2788 148.25H150.721C151.006 148.213 151.295 148.237 151.57 148.321C151.844 148.404 152.098 148.545 152.313 148.735C152.529 148.924 152.702 149.157 152.82 149.418C152.939 149.68 153 149.963 153 150.25C153 150.537 152.939 150.821 152.82 151.082C152.702 151.344 152.529 151.577 152.313 151.766C152.098 151.956 151.844 152.097 151.57 152.18C151.295 152.264 151.006 152.288 150.721 152.25Z" fill="black"/>
<path d="M91.0702 81.6901L85.5002 88.0901C85.3101 88.3025 85.0774 88.4724 84.8172 88.5887C84.557 88.705 84.2752 88.7651 83.9902 88.7651C83.7052 88.7651 83.4234 88.705 83.1632 88.5887C82.903 88.4724 82.6703 88.3025 82.4802 88.0901C82.4802 88.0801 76.9302 81.6901 76.9302 81.6901L80.0002 79.1201L83.9902 83.7301L88.0002 79.1201L91.0702 81.6901Z" fill="#00CCFF"/>
<path d="M71.3048 8.75C71.8982 8.75 72.4782 8.57405 72.9716 8.24441C73.4649 7.91476 73.8494 7.44623 74.0765 6.89805C74.3035 6.34987 74.363 5.74667 74.2472 5.16473C74.1314 4.58279 73.8457 4.04824 73.4262 3.62868C73.0066 3.20912 72.4721 2.9234 71.8901 2.80764C71.3082 2.69189 70.705 2.7513 70.1568 2.97836C69.6086 3.20542 69.1401 3.58994 68.8104 4.08329C68.4808 4.57664 68.3048 5.15666 68.3048 5.75C68.3058 6.54537 68.6221 7.3079 69.1845 7.87031C69.7469 8.43273 70.5095 8.74909 71.3048 8.75ZM71.3048 4.25C71.6015 4.25 71.8915 4.33797 72.1382 4.5028C72.3849 4.66762 72.5771 4.90189 72.6907 5.17597C72.8042 5.45006 72.8339 5.75166 72.776 6.04264C72.7181 6.33361 72.5753 6.60088 72.3655 6.81066C72.1557 7.02044 71.8885 7.1633 71.5975 7.22118C71.3065 7.27906 71.0049 7.24935 70.7308 7.13582C70.4567 7.02229 70.2225 6.83003 70.0576 6.58336C69.8928 6.33668 69.8048 6.04667 69.8048 5.75C69.8052 5.3523 69.9634 4.97099 70.2446 4.68977C70.5258 4.40855 70.9071 4.25039 71.3048 4.25ZM158.305 67.25C157.909 67.25 157.523 67.3673 157.194 67.5871C156.865 67.8068 156.608 68.1192 156.457 68.4846C156.306 68.8501 156.266 69.2522 156.343 69.6402C156.42 70.0281 156.611 70.3845 156.891 70.6642C157.17 70.9439 157.527 71.1344 157.915 71.2116C158.303 71.2887 158.705 71.2491 159.07 71.0978C159.436 70.9464 159.748 70.69 159.968 70.3611C160.188 70.0322 160.305 69.6456 160.305 69.25C160.304 68.7197 160.093 68.2114 159.718 67.8365C159.343 67.4615 158.835 67.2506 158.305 67.25ZM158.305 70.25C158.107 70.25 157.914 70.1913 157.749 70.0815C157.585 69.9716 157.457 69.8154 157.381 69.6327C157.305 69.45 157.285 69.2489 157.324 69.0549C157.363 68.8609 157.458 68.6827 157.598 68.5429C157.738 68.403 157.916 68.3078 158.11 68.2692C158.304 68.2306 158.505 68.2504 158.688 68.3261C158.87 68.4018 159.026 68.53 159.136 68.6944C159.246 68.8589 159.305 69.0522 159.305 69.25C159.305 69.5151 159.199 69.7693 159.012 69.9568C158.824 70.1443 158.57 70.2497 158.305 70.25ZM136 1.75C135.605 1.75 135.218 1.8673 134.889 2.08706C134.56 2.30682 134.304 2.61918 134.152 2.98463C134.001 3.35009 133.961 3.75222 134.039 4.14018C134.116 4.52814 134.306 4.88451 134.586 5.16421C134.866 5.44392 135.222 5.6344 135.61 5.71157C135.998 5.78874 136.4 5.74913 136.766 5.59776C137.131 5.44638 137.443 5.19004 137.663 4.86114C137.883 4.53224 138 4.14556 138 3.75C138 3.21975 137.789 2.7114 137.414 2.33646C137.039 1.96151 136.53 1.75061 136 1.75ZM136 4.75C135.802 4.75 135.609 4.69135 135.445 4.58147C135.28 4.47159 135.152 4.31541 135.076 4.13268C135.001 3.94996 134.981 3.74889 135.019 3.55491C135.058 3.36093 135.153 3.18275 135.293 3.04289C135.433 2.90304 135.611 2.8078 135.805 2.76921C135.999 2.73063 136.2 2.75043 136.383 2.82612C136.566 2.90181 136.722 3.02998 136.832 3.19443C136.941 3.35888 137 3.55222 137 3.75C137 4.01514 136.894 4.26934 136.707 4.45681C136.519 4.64429 136.265 4.74974 136 4.75ZM145.5 36.3678C145.105 36.3678 144.718 36.4851 144.389 36.7049C144.06 36.9246 143.804 37.237 143.652 37.6024C143.501 37.9679 143.461 38.37 143.539 38.758C143.616 39.146 143.806 39.5023 144.086 39.782C144.366 40.0617 144.722 40.2522 145.11 40.3294C145.498 40.4066 145.9 40.3669 146.266 40.2156C146.631 40.0642 146.943 39.8078 147.163 39.479C147.383 39.1501 147.5 38.7634 147.5 38.3678C147.5 37.8376 147.289 37.3292 146.914 36.9543C146.539 36.5793 146.03 36.3684 145.5 36.3678ZM145.5 39.3678C145.302 39.3678 145.109 39.3092 144.945 39.1993C144.78 39.0894 144.652 38.9332 144.576 38.7505C144.501 38.5678 144.481 38.3667 144.519 38.1727C144.558 37.9787 144.653 37.8006 144.793 37.6607C144.933 37.5209 145.111 37.4256 145.305 37.387C145.499 37.3484 145.7 37.3682 145.883 37.4439C146.066 37.5196 146.222 37.6478 146.332 37.8122C146.441 37.9767 146.5 38.17 146.5 38.3678C146.5 38.6329 146.394 38.8871 146.207 39.0746C146.019 39.2621 145.765 39.3675 145.5 39.3678ZM15.6714 62.266C15.6714 61.8704 15.5541 61.4838 15.3343 61.1549C15.1146 60.826 14.8022 60.5696 14.4368 60.4182C14.0713 60.2669 13.6692 60.2273 13.2812 60.3044C12.8932 60.3816 12.5369 60.5721 12.2572 60.8518C11.9775 61.1315 11.787 61.4879 11.7098 61.8758C11.6326 62.2638 11.6723 62.6659 11.8236 63.0314C11.975 63.3968 12.2313 63.7092 12.5602 63.9289C12.8891 64.1487 13.2758 64.266 13.6714 64.266C14.2016 64.2654 14.71 64.0545 15.0849 63.6795C15.4599 63.3046 15.6708 62.7962 15.6714 62.266ZM12.6714 62.266C12.6714 62.0682 12.73 61.8749 12.8399 61.7104C12.9498 61.546 13.106 61.4178 13.2887 61.3421C13.4714 61.2664 13.6725 61.2466 13.8665 61.2852C14.0605 61.3238 14.2386 61.419 14.3785 61.5589C14.5183 61.6987 14.6136 61.8769 14.6522 62.0709C14.6908 62.2649 14.671 62.466 14.5953 62.6487C14.5196 62.8314 14.3914 62.9876 14.227 63.0975C14.0625 63.2074 13.8692 63.266 13.6714 63.266C13.4063 63.2657 13.1521 63.1603 12.9646 62.9728C12.7771 62.7853 12.6717 62.5311 12.6714 62.266Z" fill="black"/>
<path d="M4.25013 15.9001L5.73713 13.9441L4.79813 13.4121L3.84413 15.6021H3.81213L2.84213 13.4281L1.88713 13.9751L3.35813 15.8841V15.9161L1.05713 15.6181V16.6821L3.37413 16.3851V16.4161L1.88713 18.3251L2.77913 18.8881L3.79613 16.6821H3.82713L4.76613 18.8731L5.75213 18.3091L4.25013 16.4321V16.4001L6.61213 16.6821V15.6181L4.25013 15.9311V15.9001Z" fill="#00CCFF"/>
<path d="M36.5361 21.853L35.6801 22.952L36.1941 23.276L36.7801 22.006H36.7971L37.3382 23.267L37.9061 22.943L37.0411 21.861V21.843L38.4011 22.006V21.393L37.0411 21.573V21.555L37.8971 20.429L37.3561 20.123L36.8071 21.384H36.7892L36.2301 20.132L35.6801 20.447L36.5271 21.546V21.564L35.2021 21.393V22.006L36.5361 21.835V21.853Z" fill="#00CCFF"/>
<path d="M165.753 23.2715V22.2285L163.436 22.5355V22.5045L164.895 20.5865L163.974 20.0645L163.038 22.2125H163.006L162.055 20.0795L161.118 20.6175L162.561 22.4895V22.5205L160.305 22.2285V23.2715L162.576 22.9805V23.0115L161.118 24.8835L161.993 25.4365L162.991 23.2715H163.021L163.942 25.4205L164.909 24.8685L163.436 23.0265V22.9955L165.753 23.2715Z" fill="#00CCFF"/>
<path d="M102.875 11.2778L104.133 9.62383L103.339 9.17383L102.532 11.0258H102.505L101.684 9.18683L100.876 9.64983L102.121 11.2648V11.2918L100.174 11.0398V11.9398L102.134 11.6888V11.7148L100.876 13.3298L101.63 13.8068L102.492 11.9398H102.518L103.312 13.7928L104.146 13.3168L102.875 11.7278V11.7018L104.874 11.9398V11.0398L102.875 11.3048V11.2778Z" fill="#00CCFF"/>
</svg>
