<svg width="32" height="32" viewBox="0 0 119 64" fill="" xmlns="http://www.w3.org/2000/svg">
<path d="M59.5 3.58555C91.3697 3.58555 115.876 17.123 115.876 31.9918C115.876 46.8605 91.3511 60.398 59.5 60.398C27.6303 60.398 3.12375 46.8605 3.12375 31.9918C3.12375 17.123 27.6489 3.58555 59.5 3.58555ZM59.5 0.435547C26.6448 0.435547 0 14.5543 0 31.9918C0 49.4293 26.6448 63.548 59.5 63.548C92.3552 63.548 119 49.4293 119 31.9918C119 14.5543 92.3552 0.435547 59.5 0.435547ZM40.5716 29.4605C39.1027 37.0543 33.915 36.2668 27.5373 36.2668L30.0847 23.0293C37.1503 23.0293 41.9475 22.2605 40.5716 29.4605ZM18.1103 49.673H24.9342L26.5519 41.273C34.1939 41.273 38.9353 41.8355 43.3234 37.6918C48.1764 33.1918 49.4408 25.1855 45.9823 21.173C44.1787 19.073 41.2781 18.0418 37.3363 18.0418H24.1905L18.1103 49.673ZM52.6389 9.62304H59.4256L57.808 18.023C63.665 18.023 69.0944 17.5918 71.7161 20.0293C74.468 22.5793 73.1478 25.8418 70.1728 41.2355H63.2931C66.1566 26.348 66.6958 25.1105 65.6545 23.9855C64.6505 22.898 62.3634 23.123 56.8411 23.123L53.3455 41.2355H46.5587L52.6389 9.62304ZM93.8984 29.4605C92.4109 37.1668 87.0745 36.2668 80.8642 36.2668L83.4116 23.0293C90.5144 23.0293 95.2744 22.2605 93.8984 29.4605ZM71.4372 49.673H78.2797L79.8973 41.273C87.9298 41.273 92.3737 41.7418 96.6689 37.6918C101.522 33.1918 102.786 25.1855 99.3278 21.173C97.5242 19.073 94.6236 18.0418 90.6817 18.0418H77.5359L71.4372 49.673Z" fill=" #474A8A"/>
</svg>
