<svg width="24" height="24" viewBox="0 0 24 24" fill="none" xmlns="http://www.w3.org/2000/svg">
<path d="M12 5.5C5.271 5.5 0 8.355 0 12C0 15.645 5.271 18.5 12 18.5C18.729 18.5 24 15.645 24 12C24 8.355 18.729 5.5 12 5.5ZM10.754 7.5H12.064L11.648 9.5H12.818C13.56 9.5 14.058 9.604 14.342 9.863C14.619 10.119 14.703 10.539 14.592 11.111L14.072 13.5H12.74L13.219 11.291C13.277 10.988 13.254 10.777 13.152 10.666C13.051 10.555 12.828 10.5 12.494 10.5H11.445L10.812 13.5H9.5L10.754 7.5ZM5 9.5H7.666C8.937 9.5 9.707 10.352 9.406 11.623C9.056 13.1 8.12 13.5 6.396 13.5H5.572L5.311 15H3.986L5 9.5ZM15.5 9.5H18.166C19.437 9.5 20.207 10.352 19.906 11.623C19.556 13.1 18.619 13.5 16.896 13.5H16.072L15.811 15H14.486L15.5 9.5ZM6.135 10.5L5.758 12.5H6.613C7.353 12.5 8.041 12.416 8.156 11.312C8.199 10.885 8.021 10.5 7.166 10.5H6.135ZM16.635 10.5L16.258 12.5H17.113C17.853 12.5 18.541 12.416 18.656 11.312C18.699 10.885 18.522 10.5 17.666 10.5H16.635Z" fill="#4B4697"/>
</svg>
