<svg width="80" height="80" viewBox="0 0 80 80" fill="none" xmlns="http://www.w3.org/2000/svg">
<path d="M24.4141 30.1952L17.8906 41.9139L20.4688 43.0467V60.1543C20.886 60.5936 21.2734 61.0604 21.6284 61.5514C25.7227 67.2191 24.0778 74.4786 23.877 75.2879C23.6783 76.0567 23.2418 76.7429 22.6296 77.2486C22.0175 77.7542 21.2611 78.0534 20.4688 78.1032V79.9999H28.1262V42.8514H32.3828L24.4141 30.1952ZM60.3809 76.8217C60.1786 76.8559 59.9738 76.873 59.7687 76.873C58.9386 76.8731 58.1319 76.5986 57.4741 76.0923C56.8164 75.586 56.3445 74.8763 56.1322 74.0739C55.9222 73.2286 54.2773 65.969 58.3734 60.2989C59.3549 58.9616 60.5518 57.7967 61.9153 56.8519V34.1014H66.1719L58.2031 21.4452L51.6797 33.1639L54.2578 34.2967V79.9999H61.9153V76.4867C61.1323 76.688 60.5772 76.789 60.3809 76.8217ZM36.9792 57.7642C39.7203 58.4463 42.3148 59.6202 44.6367 61.2288V13.8931H48.8933L40.9245 1.23682L34.4011 12.9556L36.9792 14.0884L36.9792 57.7642Z" fill="#81D9E3"/>
<path d="M54.3734 32.5H52.2427L58.1222 22.9999L64.0029 32.5H61.8716C61.7074 32.5 61.5449 32.5324 61.3933 32.5952C61.2417 32.658 61.104 32.7501 60.9879 32.8662C60.8719 32.9823 60.7799 33.1201 60.7171 33.2717C60.6544 33.4234 60.6221 33.5859 60.6222 33.75V55.625C60.6222 55.9564 60.7538 56.2743 60.9882 56.5087C61.2226 56.743 61.5404 56.8747 61.8719 56.8747C62.2033 56.8747 62.5212 56.743 62.7555 56.5087C62.9899 56.2743 63.1216 55.9564 63.1216 55.625V35H66.2478C66.4704 34.9999 66.689 34.9404 66.8809 34.8275C67.0728 34.7147 67.2311 34.5526 67.3394 34.3581C67.4476 34.1635 67.502 33.9436 67.4968 33.721C67.4916 33.4985 67.427 33.2813 67.3098 33.0921L59.1842 19.9671C59.0722 19.786 58.9159 19.6366 58.7299 19.533C58.544 19.4294 58.3347 19.375 58.1219 19.375C57.909 19.375 57.6997 19.4294 57.5138 19.533C57.3279 19.6366 57.1715 19.786 57.0596 19.9671L48.9364 33.0921C48.8191 33.2814 48.7546 33.4987 48.7494 33.7213C48.7443 33.944 48.7987 34.164 48.9072 34.3586C49.0156 34.5531 49.174 34.7152 49.3661 34.828C49.5582 34.9407 49.7769 35.0001 49.9996 35H53.124V78.75C53.124 79.0814 53.2557 79.3993 53.49 79.6337C53.7244 79.868 54.0423 79.9997 54.3737 79.9997C54.7052 79.9997 55.023 79.868 55.2574 79.6337C55.4918 79.3993 55.6234 79.0814 55.6234 78.75V33.75C55.6235 33.5858 55.5912 33.4233 55.5284 33.2716C55.4656 33.1199 55.3735 32.9821 55.2574 32.866C55.1413 32.7499 55.0035 32.6579 54.8518 32.5951C54.7002 32.5323 54.5376 32.5 54.3734 32.5ZM33.5641 42.4671L25.4416 29.3421C25.3295 29.161 25.1731 29.0116 24.9871 28.908C24.8012 28.8044 24.5918 28.75 24.3789 28.75C24.166 28.75 23.9567 28.8044 23.7707 28.908C23.5847 29.0116 23.4283 29.161 23.3163 29.3421L15.1907 42.4671C15.0733 42.6563 15.0086 42.8735 15.0033 43.0961C14.998 43.3187 15.0523 43.5387 15.1606 43.7333C15.2689 43.9279 15.4273 44.09 15.6193 44.2028C15.8113 44.3156 16.03 44.3751 16.2527 44.375H19.3771V59.375C19.3771 59.5392 19.4094 59.7017 19.4722 59.8534C19.535 60.005 19.6271 60.1428 19.7432 60.2589C19.8592 60.375 19.997 60.467 20.1487 60.5298C20.3004 60.5927 20.4629 60.625 20.6271 60.625C20.7912 60.625 20.9538 60.5927 21.1054 60.5298C21.2571 60.467 21.3949 60.375 21.5109 60.2589C21.627 60.1428 21.7191 60.005 21.7819 59.8534C21.8447 59.7017 21.8771 59.5392 21.8771 59.375V43.125C21.8771 42.7936 21.7455 42.4757 21.5112 42.2413C21.2769 42.0069 20.9591 41.8751 20.6277 41.875H18.4969L24.3789 32.3749L30.2572 41.875H28.1265C27.9623 41.8749 27.7997 41.9072 27.648 41.97C27.4963 42.0328 27.3584 42.1249 27.2423 42.2409C27.1261 42.357 27.034 42.4948 26.9711 42.6465C26.9083 42.7982 26.8759 42.9608 26.8759 43.125V78.75C26.8759 79.0815 27.0076 79.3995 27.242 79.6339C27.4764 79.8683 27.7944 80 28.1259 80C28.4574 80 28.7753 79.8683 29.0098 79.6339C29.2442 79.3995 29.3759 79.0815 29.3759 78.75V44.375H32.5009C32.7235 44.375 32.9422 44.3155 33.1341 44.2027C33.3261 44.0898 33.4845 43.9278 33.5929 43.7333C33.7012 43.5388 33.7557 43.3189 33.7507 43.0963C33.7456 42.8737 33.6812 42.6564 33.5641 42.4671ZM46.5002 66.6063C43.0065 61.3937 35.9127 60.075 35.6127 60.0187C35.2987 59.9614 34.9746 60.0267 34.7072 60.2011C34.4398 60.3755 34.2494 60.6457 34.1752 60.9562C34.1065 61.25 32.5002 68.1625 36.0002 73.3937C39.494 78.6063 46.5877 79.925 46.8877 79.9813C47.2014 80.0351 47.5239 79.9684 47.7904 79.7945C48.057 79.6207 48.248 79.3525 48.3252 79.0438C48.394 78.75 50.0002 71.8375 46.5002 66.6063ZM46.2377 75.3L44.6565 73.0312C44.4658 72.7615 44.1762 72.5782 43.8508 72.5214C43.5255 72.4645 43.1908 72.5387 42.92 72.7278C42.6492 72.9169 42.4642 73.2055 42.4055 73.5305C42.3467 73.8555 42.419 74.1906 42.6065 74.4625L44.019 76.4813C42.0252 75.6562 39.5877 74.2562 38.0752 72C35.9815 68.875 36.144 64.8063 36.4002 62.7875C38.394 63.3625 42.3127 64.8437 44.4252 68C45.9815 70.3187 46.2877 73.1625 46.2377 75.3Z" fill="#2D4356"/>
<path d="M46.2374 75.3001L44.6561 73.0314C44.4655 72.7617 44.1758 72.5784 43.8505 72.5215C43.5251 72.4646 43.1905 72.5389 42.9197 72.7279C42.6488 72.917 42.4638 73.2056 42.4051 73.5306C42.3464 73.8556 42.4186 74.1907 42.6061 74.4626L44.0186 76.4814C42.0249 75.6564 39.5874 74.2564 38.0749 72.0001C35.9811 68.8751 36.1436 64.8064 36.3999 62.7876C38.3936 63.3626 42.3124 64.8438 44.4249 68.0001C45.9811 70.3189 46.2874 73.1626 46.2374 75.3001Z" fill="#98E07E"/>
<path d="M72.6939 56.5625C72.6142 56.2602 72.4247 55.9986 72.1623 55.8287C71.8999 55.6587 71.5836 55.5928 71.2752 55.6437C70.9814 55.6937 63.8939 56.9125 60.4002 61.7625C56.8564 66.6687 58.4814 73.1625 58.5502 73.4375C58.6324 73.7382 58.8226 73.9981 59.0843 74.1675C59.3459 74.337 59.6609 74.4042 59.9689 74.3562C60.2689 74.3062 67.3502 73.0812 70.8439 68.2375C74.3877 63.3312 72.7627 56.8375 72.6939 56.5625ZM68.8189 66.775C67.3439 68.8187 64.9689 70.1062 63.0002 70.8812L64.2377 69.2312C64.4366 68.966 64.522 68.6326 64.4751 68.3045C64.4282 67.9763 64.2529 67.6802 63.9877 67.4812C63.7225 67.2823 63.3891 67.1969 63.0609 67.2438C62.7327 67.2907 62.4366 67.466 62.2377 67.7312L60.6252 69.875C60.4959 67.5226 61.127 65.191 62.4252 63.225C64.5439 60.2937 68.4939 58.9125 70.4814 58.3875C70.7252 60.2562 70.8627 63.9375 68.8189 66.775Z" fill="#2D4356"/>
<path d="M68.8187 66.7752C67.3437 68.8189 64.9687 70.1064 62.9999 70.8814L64.2374 69.2314C64.4364 68.9662 64.5218 68.6329 64.4749 68.3047C64.428 67.9765 64.2527 67.6804 63.9874 67.4814C63.7222 67.2825 63.3889 67.1971 63.0607 67.244C62.7325 67.2909 62.4364 67.4662 62.2374 67.7314L60.6249 69.8752C60.4957 67.5228 61.1268 65.1912 62.4249 63.2252C64.5437 60.2939 68.4937 58.9127 70.4812 58.3877C70.7249 60.2564 70.8624 63.9377 68.8187 66.7752Z" fill="#98E07E"/>
<path d="M19.5998 63.0125C16.106 58.1625 9.01853 56.9437 8.72478 56.8937C8.41627 56.842 8.09955 56.9075 7.83698 57.0776C7.5744 57.2476 7.38499 57.5098 7.30603 57.8125C7.23728 58.0875 5.61228 64.5812 9.15603 69.4875C12.6498 74.3312 19.731 75.5562 20.031 75.6062C20.3392 75.655 20.6545 75.5882 20.9164 75.4186C21.1783 75.249 21.3682 74.9886 21.4498 74.6875C21.5185 74.4125 23.1435 67.9187 19.5998 63.0125ZM17.7623 68.9812C17.6638 68.8499 17.5404 68.7393 17.3991 68.6556C17.2579 68.572 17.1016 68.517 16.9391 68.4938C16.7766 68.4706 16.6111 68.4796 16.4521 68.5204C16.293 68.5611 16.1436 68.6327 16.0123 68.7312C15.881 68.8297 15.7703 68.9531 15.6867 69.0944C15.6031 69.2356 15.5481 69.392 15.5248 69.5545C15.478 69.8827 15.5634 70.216 15.7623 70.4812L16.9998 72.1312C15.031 71.3562 12.656 70.0687 11.181 68.025C9.13728 65.1875 9.27478 61.5 9.51853 59.6312C11.4998 60.1562 15.4498 61.5312 17.5748 64.475C18.8648 66.4421 19.4933 68.7697 19.3685 71.1187L17.7623 68.9812Z" fill="#2D4356"/>
<path d="M19.3685 71.1188L17.7622 68.9813C17.6638 68.85 17.5404 68.7394 17.3991 68.6558C17.2579 68.5721 17.1015 68.5171 16.939 68.4939C16.7765 68.4707 16.611 68.4797 16.452 68.5205C16.293 68.5612 16.1436 68.6329 16.0122 68.7313C15.8809 68.8298 15.7703 68.9532 15.6867 69.0945C15.603 69.2357 15.548 69.3921 15.5248 69.5546C15.4779 69.8828 15.5633 70.2161 15.7622 70.4813L16.9997 72.1313C15.031 71.3563 12.656 70.0688 11.181 68.0251C9.13725 65.1876 9.27475 61.5001 9.5185 59.6313C11.4997 60.1563 15.4497 61.5313 17.5747 64.4751C18.8648 66.4422 19.4932 68.7698 19.3685 71.1188Z" fill="#98E07E"/>
<path d="M33.1255 15.625H36.2511V57.5C36.2511 57.5341 36.2585 57.566 36.2612 57.5994C37.0273 57.762 37.784 57.9659 38.5281 58.2102C38.6733 58.0018 38.7512 57.754 38.7511 57.5V14.375C38.751 14.0434 38.6191 13.7255 38.3846 13.4911C38.1501 13.2567 37.8321 13.125 37.5005 13.125H35.3691L41.2499 3.62487L47.1306 13.125H44.9981C44.6665 13.125 44.3486 13.2567 44.1142 13.4911C43.8798 13.7255 43.7481 14.0435 43.7481 14.375V60.625L43.7488 60.6327C44.3187 60.9931 44.8686 61.3842 45.3961 61.8042C45.6438 61.7217 45.8592 61.5634 46.0121 61.3519C46.1649 61.1403 46.2475 60.886 46.2481 60.625V15.625H49.3736C49.5963 15.625 49.815 15.5656 50.007 15.4527C50.199 15.3399 50.3573 15.1779 50.4657 14.9833C50.574 14.7888 50.6284 14.5688 50.6233 14.3462C50.6181 14.1235 50.5535 13.9063 50.4363 13.717L42.3131 0.592039C42.2011 0.411014 42.0447 0.26161 41.8587 0.157998C41.6728 0.0543855 41.4634 0 41.2505 0C41.0376 0 40.8283 0.0543855 40.6423 0.157998C40.4563 0.26161 40.2999 0.411014 40.1879 0.592039L32.0629 13.717C31.9458 13.9064 31.8814 14.1235 31.8763 14.3461C31.8712 14.5687 31.9256 14.7885 32.034 14.983C32.1423 15.1775 32.3006 15.3396 32.4925 15.4524C32.6844 15.5653 32.9029 15.6249 33.1255 15.625Z" fill="#2D4356"/>
<path opacity="0.3" d="M64.0004 32.5H63.2254L58.1254 24.25L53.0191 32.5H52.2441L58.1254 23L64.0004 32.5Z" fill="#E8FBFC"/>
<path opacity="0.3" d="M30.2566 41.875H29.4816L24.3816 33.625L19.2691 41.875H18.4941L24.3816 32.375L30.2566 41.875Z" fill="#E8FBFC"/>
<path opacity="0.3" d="M44.0184 76.4813C42.0246 75.6564 39.5871 74.2563 38.0746 72.0001C36.4621 69.5876 36.1871 66.6188 36.2621 64.4563C36.2768 66.6809 36.9039 68.8585 38.0746 70.7501C39.2719 72.4199 40.8742 73.7576 42.7309 74.6376L44.0184 76.4813ZM68.8184 66.7751C67.3434 68.8188 64.9684 70.1064 62.9996 70.8814L64.2371 69.2313C64.2849 69.1699 64.3248 69.1027 64.3559 69.0313C66.1066 68.2432 67.6385 67.0397 68.8184 65.5251C69.9556 63.8369 70.5767 61.8541 70.6059 59.8188C70.6809 61.8001 70.4246 64.5501 68.8184 66.7751ZM16.9996 72.1314C15.0309 71.3564 12.6559 70.0688 11.1809 68.0251C9.57463 65.8001 9.31838 63.0438 9.39338 61.0626C9.42155 63.1 10.0427 65.085 11.1809 66.7751C12.3608 68.2897 13.8927 69.4932 15.6434 70.2813C15.6745 70.3527 15.7144 70.4199 15.7621 70.4813L16.9996 72.1314Z" fill="#528440"/>
<path opacity="0.3" d="M47.1316 13.125H46.3566L41.2504 4.875L36.1441 13.125H35.3691L41.2504 3.625L47.1316 13.125Z" fill="#E8FBFC"/>
</svg>
