<svg width="150" height="150" viewBox="0 0 150 150" fill="none" xmlns="http://www.w3.org/2000/svg">
<path d="M103.418 3.90927C103.288 3.92292 103.16 3.94742 103.034 3.98252L93.6861 6.49106C93.0865 6.65374 92.5759 7.0476 92.2663 7.58624C91.9567 8.12488 91.8733 8.76433 92.0346 9.36433C92.1958 9.96433 92.5884 10.4759 93.1262 10.7868C93.6641 11.0978 94.3034 11.1827 94.9038 11.0229L98.7215 9.99753C82.2821 37.134 45.0271 69.9781 7.65401 77.3895C7.35164 77.4496 7.06406 77.5687 6.80771 77.7399C6.55135 77.9112 6.33124 78.1313 6.15994 78.3876C5.98863 78.6439 5.86949 78.9315 5.80932 79.2338C5.74914 79.5362 5.74911 79.8474 5.80922 80.1498C5.86934 80.4522 5.98842 80.7398 6.15967 80.9961C6.33093 81.2525 6.55099 81.4726 6.80731 81.6439C7.32497 81.9899 7.95886 82.116 8.56954 81.9946C47.9876 74.1774 85.6914 40.7065 102.823 12.268L103.867 16.1773C103.946 16.4749 104.083 16.7539 104.27 16.9985C104.458 17.243 104.691 17.4483 104.958 17.6026C105.224 17.7569 105.519 17.8572 105.824 17.8978C106.129 17.9383 106.439 17.9184 106.737 17.839C107.035 17.7597 107.314 17.6225 107.558 17.4353C107.803 17.2481 108.008 17.0146 108.162 16.7481C108.317 16.4816 108.417 16.1873 108.457 15.882C108.498 15.5767 108.478 15.2664 108.399 14.9688L105.899 5.63962C105.765 5.14597 105.474 4.70967 105.069 4.39725C104.664 4.08484 104.168 3.91347 103.656 3.90927C103.577 3.90524 103.497 3.90524 103.418 3.90927ZM95.9841 37.1063C94.6897 37.1063 93.6405 38.1558 93.6403 39.45V82.196C95.1482 81.5566 96.6968 80.9918 98.3278 80.5938V74.6063V41.7938H107.703V69.9188C108.946 69.9189 110.138 70.4128 111.017 71.2919C111.896 72.1709 112.39 73.3631 112.39 74.6063V39.45C112.39 38.1558 111.341 37.1063 110.047 37.1063H95.9841ZM67.8591 65.213V65.2313C66.5647 65.2313 65.5155 66.2808 65.5153 67.575V107.419C65.516 106.95 65.587 106.484 65.7259 106.036C65.819 105.738 65.9417 105.45 66.0921 105.176C66.4948 104.437 67.089 103.82 67.8123 103.39C68.5356 102.96 69.3613 102.732 70.2028 102.731V69.9371H79.5778V94.4732C80.8873 92.2584 82.453 90.2223 84.2653 88.4308V67.6025C84.2652 66.3083 83.216 65.2588 81.9216 65.2588L67.8591 65.213ZM103.015 74.6063V84.0912C90.6724 85.2129 80.8148 95.0749 79.6969 107.419H70.2028V112.106H79.6969C80.8183 124.447 90.6751 134.303 103.015 135.425V144.919H107.703V135.425C120.043 134.303 129.9 124.447 131.021 112.106H140.515V107.419H131.021C129.903 95.0749 120.046 85.2129 107.703 84.0912V74.6063H103.015ZM39.7341 84.375C39.1125 84.375 38.5164 84.622 38.0769 85.0615C37.6374 85.501 37.3904 86.0971 37.3903 86.7187V142.969C37.3904 143.59 37.6374 144.186 38.0769 144.626C38.5164 145.065 39.1125 145.312 39.7341 145.312H53.7966C54.4182 145.312 55.0143 145.065 55.4538 144.626C55.8933 144.186 56.1403 143.59 56.1403 142.969V86.7187C56.1403 86.0971 55.8933 85.501 55.4538 85.0615C55.0143 84.622 54.4182 84.375 53.7966 84.375H39.7341ZM103.015 88.8977V93.5943C95.8658 94.6355 90.2289 100.268 89.1909 107.419H84.5034C85.5898 97.6437 93.2409 89.9861 103.015 88.8977ZM107.703 88.8977C117.477 89.9861 125.128 97.6437 126.215 107.419H121.527C120.489 100.268 114.852 94.6355 107.703 93.5943V88.8977ZM42.0778 89.0625H51.4528V140.625H42.0778V89.0625ZM11.6091 93.75C10.9875 93.75 10.3914 93.997 9.95188 94.4365C9.51235 94.876 9.2654 95.4721 9.26534 96.0937V142.969C9.2654 143.59 9.51235 144.186 9.95188 144.626C10.3914 145.065 10.9875 145.312 11.6091 145.312H25.6716C26.2932 145.312 26.8893 145.065 27.3288 144.626C27.7683 144.186 28.0153 143.59 28.0153 142.969V96.0937C28.0153 95.4721 27.7683 94.876 27.3288 94.4365C26.8893 93.997 26.2932 93.75 25.6716 93.75H11.6091ZM102.988 98.2727C102.997 98.2709 103.007 98.2744 103.015 98.2727V103.162C101.038 103.873 99.4792 105.442 98.7673 107.419H93.8784C94.8024 102.818 98.3905 99.2069 102.988 98.2727ZM107.703 98.2727C112.313 99.1984 115.914 102.809 116.84 107.419H111.951C111.239 105.442 109.68 103.873 107.703 103.162V98.2727ZM13.9528 98.4375H23.3278V140.625H13.9528V98.4375ZM65.5153 112.106V142.557C65.5155 143.851 66.5647 144.9 67.8591 144.9L81.9216 144.855C83.216 144.855 84.2652 143.805 84.2653 142.511V131.058C82.453 129.264 80.8868 127.232 79.5778 125.015V140.176H70.2028V116.775C68.9628 116.775 67.7734 116.284 66.8949 115.409C66.0163 114.534 65.5203 113.346 65.5153 112.106ZM84.5034 112.106H89.1909C90.2314 119.254 95.8676 124.89 103.015 125.931V130.618C93.2428 129.53 85.5918 121.879 84.5034 112.106ZM93.8784 112.106H98.7673C99.4806 114.08 101.041 115.643 103.015 116.354V121.243C98.4083 120.318 94.8069 116.712 93.8784 112.106ZM111.951 112.106H116.84C115.911 116.712 112.31 120.318 107.703 121.243V116.354C109.677 115.643 111.238 114.08 111.951 112.106ZM121.527 112.106H126.215C125.126 121.879 117.475 129.53 107.703 130.618V125.931C114.851 124.89 120.487 119.254 121.527 112.106ZM93.6403 137.311V137.32V142.557C93.6405 143.851 94.6897 144.9 95.9841 144.9H98.3278V140.186V138.913C96.6976 138.514 95.1473 137.95 93.6403 137.311Z" fill="black"/>
</svg>
