<svg width="32" height="32" viewBox="0 0 32 32" fill="none" xmlns="http://www.w3.org/2000/svg">
<path d="M27.48 11.4801C27.48 11.3475 27.4273 11.2203 27.3336 11.1265C27.2398 11.0328 27.1126 10.9801 26.98 10.9801H25.223C25.0904 10.9801 24.9632 11.0328 24.8695 11.1265C24.7757 11.2203 24.723 11.3475 24.723 11.4801C24.723 11.6127 24.7757 11.7399 24.8695 11.8336C24.9632 11.9274 25.0904 11.9801 25.223 11.9801H26.98C27.1126 11.9801 27.2398 11.9274 27.3336 11.8336C27.4273 11.7399 27.48 11.6127 27.48 11.4801ZM4.52002 11.4801C4.52002 11.6127 4.5727 11.7399 4.66647 11.8336C4.76023 11.9274 4.88741 11.9801 5.02002 11.9801H6.77702C6.90963 11.9801 7.0368 11.9274 7.13057 11.8336C7.22434 11.7399 7.27702 11.6127 7.27702 11.4801C7.27702 11.3475 7.22434 11.2203 7.13057 11.1265C7.0368 11.0328 6.90963 10.9801 6.77702 10.9801H5.02002C4.88741 10.9801 4.76023 11.0328 4.66647 11.1265C4.5727 11.2203 4.52002 11.3475 4.52002 11.4801ZM19.338 3.42109C19.3986 3.44657 19.4637 3.45977 19.5295 3.45992C19.5952 3.46007 19.6604 3.44716 19.7211 3.42196C19.7819 3.39675 19.837 3.35974 19.8833 3.31307C19.9296 3.2664 19.9663 3.21101 19.991 3.15009L20.663 1.52709C20.711 1.40507 20.7091 1.2691 20.6578 1.14844C20.6065 1.02779 20.5099 0.932111 20.3887 0.88202C20.2676 0.831929 20.1316 0.831432 20.0101 0.880637C19.8885 0.929841 19.7912 1.02481 19.739 1.14509L19.067 2.76809C19.0167 2.89064 19.0169 3.02816 19.0677 3.15054C19.1185 3.27292 19.2157 3.3702 19.338 3.42109ZM26.336 15.2201L24.712 14.5481C24.6511 14.5217 24.5856 14.5076 24.5192 14.5068C24.4528 14.506 24.3869 14.5184 24.3254 14.5433C24.2638 14.5682 24.2079 14.6052 24.1608 14.6519C24.1136 14.6987 24.0763 14.7544 24.0509 14.8157C24.0256 14.8771 24.0127 14.9429 24.013 15.0093C24.0134 15.0757 24.0269 15.1413 24.0529 15.2024C24.0789 15.2635 24.1167 15.3188 24.1643 15.3651C24.2119 15.4114 24.2682 15.4478 24.33 15.4721L25.954 16.1441C26.0146 16.1696 26.0797 16.1828 26.1455 16.1829C26.2112 16.1831 26.2764 16.1702 26.3371 16.145C26.3979 16.1198 26.453 16.0827 26.4993 16.0361C26.5456 15.9894 26.5823 15.934 26.607 15.8731C26.6577 15.7506 26.6576 15.6129 26.6067 15.4905C26.5559 15.368 26.4585 15.2708 26.336 15.2201ZM6.04702 6.81609C5.92449 6.7653 5.7868 6.76526 5.66425 6.81599C5.54169 6.86672 5.44431 6.96406 5.39352 7.08659C5.34273 7.20912 5.3427 7.3468 5.39343 7.46936C5.44415 7.59191 5.54149 7.6893 5.66402 7.74009L7.28802 8.41209C7.41003 8.46007 7.54601 8.45821 7.66666 8.40691C7.78732 8.35561 7.88299 8.25897 7.93309 8.13781C7.98318 8.01664 7.98367 7.88065 7.93447 7.75913C7.88526 7.6376 7.7903 7.54027 7.67002 7.48809L6.04702 6.81609ZM23.411 3.36209L22.169 4.60409C22.0753 4.69797 22.0226 4.82526 22.0227 4.95794C22.0228 5.09062 22.0756 5.21783 22.1695 5.31159C22.2634 5.40534 22.3907 5.45796 22.5234 5.45786C22.6561 5.45777 22.7833 5.40497 22.877 5.31109L24.119 4.06909C24.2128 3.9752 24.2654 3.84791 24.2653 3.71523C24.2652 3.58255 24.2124 3.45534 24.1185 3.36159C24.0246 3.26783 23.8973 3.21521 23.7647 3.21531C23.632 3.2154 23.5048 3.2682 23.411 3.36209ZM7.88202 19.5981C7.92833 19.6449 7.98346 19.682 8.04423 19.7074C8.10499 19.7328 8.17018 19.7458 8.23602 19.7458C8.30186 19.7458 8.36705 19.7328 8.42781 19.7074C8.48858 19.682 8.54371 19.6449 8.59002 19.5981L9.83202 18.3561C9.9231 18.2618 9.9735 18.1355 9.97236 18.0044C9.97122 17.8733 9.91863 17.7479 9.82593 17.6552C9.73322 17.5625 9.60782 17.5099 9.47672 17.5087C9.34562 17.5076 9.21932 17.558 9.12502 17.6491L7.88302 18.8911C7.78915 18.9847 7.73631 19.1118 7.73613 19.2444C7.73594 19.377 7.78842 19.5042 7.88202 19.5981ZM22.168 17.6481C22.0743 17.7418 22.0216 17.869 22.0216 18.0016C22.0216 18.1342 22.0743 18.2613 22.168 18.3551L23.41 19.5971C23.4563 19.6439 23.5115 19.681 23.5722 19.7064C23.633 19.7318 23.6982 19.7448 23.764 19.7448C23.8299 19.7448 23.8951 19.7318 23.9558 19.7064C24.0166 19.681 24.0717 19.6439 24.118 19.5971C24.2118 19.5033 24.2644 19.3762 24.2644 19.2436C24.2644 19.111 24.2118 18.9838 24.118 18.8901L22.876 17.6481C22.782 17.5545 22.6547 17.502 22.522 17.502C22.3894 17.502 22.2621 17.5545 22.168 17.6481ZM9.12502 5.31209C9.17131 5.35874 9.22638 5.39577 9.28705 5.42103C9.34772 5.4463 9.4128 5.45931 9.47852 5.45931C9.54424 5.45931 9.60931 5.4463 9.66999 5.42103C9.73066 5.39577 9.78573 5.35874 9.83202 5.31209C9.92576 5.21832 9.97841 5.09117 9.97841 4.95859C9.97841 4.826 9.92576 4.69885 9.83202 4.60509L8.58902 3.36209C8.49472 3.27101 8.36842 3.22061 8.23732 3.22175C8.10622 3.22289 7.98081 3.27547 7.88811 3.36818C7.79541 3.46088 7.74282 3.58629 7.74168 3.71739C7.74054 3.84848 7.79094 3.97478 7.88202 4.06909L9.12502 5.31209ZM24.059 8.14209C24.1099 8.26443 24.2072 8.36163 24.3296 8.41242C24.4519 8.46321 24.5895 8.46345 24.712 8.41309L26.336 7.74109C26.4563 7.6889 26.5513 7.59157 26.6005 7.47004C26.6497 7.34852 26.6492 7.21253 26.5991 7.09137C26.549 6.9702 26.4533 6.87356 26.3327 6.82226C26.212 6.77096 26.076 6.7691 25.954 6.81709L24.33 7.48809C24.2074 7.53896 24.11 7.63641 24.0592 7.75903C24.0084 7.88164 24.0083 8.01941 24.059 8.14209ZM5.85502 16.1821C5.92058 16.1822 5.98551 16.1693 6.04602 16.1441L7.67002 15.4721C7.7903 15.4199 7.88526 15.3226 7.93447 15.201C7.98367 15.0795 7.98318 14.9435 7.93309 14.8224C7.88299 14.7012 7.78732 14.6046 7.66666 14.5533C7.54601 14.502 7.41003 14.5001 7.28802 14.5481L5.66402 15.2201C5.55714 15.2643 5.4689 15.3442 5.41433 15.4462C5.35977 15.5482 5.34226 15.666 5.36479 15.7795C5.38732 15.8929 5.44848 15.9951 5.53787 16.0685C5.62726 16.1419 5.73935 16.182 5.85502 16.1821ZM11.606 0.874086C11.4835 0.924758 11.3861 1.02202 11.3353 1.14447C11.2845 1.26693 11.2844 1.40455 11.335 1.52709L12.007 3.15009C12.0579 3.27243 12.1552 3.36963 12.2776 3.42042C12.3999 3.47121 12.5375 3.47145 12.66 3.42109C12.7825 3.37041 12.8799 3.27316 12.9307 3.1507C12.9816 3.02824 12.9817 2.89062 12.931 2.76809L12.26 1.14509C12.2091 1.0225 12.1117 0.925109 11.9891 0.874299C11.8665 0.82349 11.7287 0.823413 11.606 0.874086ZM16.5 2.41909V0.663086C16.5 0.530478 16.4473 0.403301 16.3536 0.309533C16.2598 0.215764 16.1326 0.163086 16 0.163086C15.8674 0.163086 15.7402 0.215764 15.6465 0.309533C15.5527 0.403301 15.5 0.530478 15.5 0.663086V2.42009C15.5002 2.55269 15.553 2.67982 15.6468 2.77349C15.6933 2.81988 15.7485 2.85665 15.8091 2.88172C15.8698 2.90678 15.9349 2.91965 16.0005 2.91959C16.0662 2.91952 16.1312 2.90652 16.1918 2.88133C16.2525 2.85615 16.3075 2.81926 16.3539 2.77279C16.4003 2.72631 16.4371 2.67115 16.4622 2.61047C16.4872 2.54978 16.5001 2.48475 16.5 2.41909Z" fill="black"/>
<path d="M5.89793 31.9997H26.1009C26.2335 31.9997 26.3607 31.947 26.4545 31.8532C26.5483 31.7595 26.6009 31.6323 26.6009 31.4997V26.6527C26.5992 26.0158 26.4334 25.3901 26.1195 24.8359C25.8056 24.2817 25.3543 23.8177 24.8089 23.4887L21.1059 21.2667L19.7199 19.7267C19.6799 19.6827 19.6229 19.6697 19.5729 19.6437V18.5947C20.891 17.9307 21.9992 16.9143 22.7745 15.6585C23.5499 14.4027 23.9619 12.9565 23.9649 11.4807C23.9649 7.08767 20.3909 3.51367 15.9989 3.51367C11.6069 3.51367 8.03393 7.08767 8.03393 11.4797C8.03684 12.9556 8.44884 14.4018 9.22416 15.6576C9.99949 16.9134 11.1078 17.9298 12.4259 18.5937V19.6427C12.3759 19.6697 12.3189 19.6817 12.2789 19.7257L10.8929 21.2657L7.18993 23.4877C6.64497 23.817 6.19396 24.2811 5.88028 24.8352C5.56661 25.3894 5.40084 26.0149 5.39893 26.6517V31.4997C5.39793 31.7757 5.62193 31.9997 5.89793 31.9997ZM15.5899 18.3317L14.2879 14.8577C14.2929 14.8297 14.3049 14.8037 14.3049 14.7737C14.3172 14.6235 14.3855 14.4835 14.4963 14.3814C14.6071 14.2793 14.7523 14.2226 14.9029 14.2226C15.0536 14.2226 15.1987 14.2793 15.3095 14.3814C15.4203 14.4835 15.4886 14.6235 15.5009 14.7737C15.5009 14.9063 15.5536 15.0335 15.6474 15.1272C15.7411 15.221 15.8683 15.2737 16.0009 15.2737C16.1335 15.2737 16.2607 15.221 16.3545 15.1272C16.4482 15.0335 16.5009 14.9063 16.5009 14.7737C16.5009 14.4437 16.7699 14.1747 17.0989 14.1747C17.4279 14.1747 17.6969 14.4437 17.6969 14.7737C17.6969 14.8037 17.7089 14.8287 17.7139 14.8577L16.4119 18.3317C16.3909 18.388 16.3801 18.4476 16.3799 18.5077V20.9237L15.9999 21.1037L15.6219 20.9237V18.5077C15.6218 18.4476 15.6109 18.388 15.5899 18.3317ZM15.9999 22.3637L16.5729 22.9367C16.5709 22.9537 16.5629 22.9677 16.5629 22.9857V23.8147H15.4359V22.9857C15.4359 22.9687 15.4279 22.9537 15.4259 22.9367L15.9999 22.3637ZM15.9059 24.8147H16.0939L16.9189 30.9997H15.0819L15.9059 24.8147ZM25.6019 26.6527V30.9997H22.3489V29.4477C22.3489 28.7747 22.5989 28.1307 23.0529 27.6337L23.7179 26.9047C23.7622 26.8562 23.7965 26.7995 23.8188 26.7378C23.8411 26.6761 23.8511 26.6106 23.8481 26.545C23.8452 26.4795 23.8293 26.4152 23.8015 26.3557C23.7737 26.2963 23.7344 26.2429 23.6859 26.1987C23.6375 26.1544 23.5808 26.1201 23.5191 26.0978C23.4574 26.0755 23.3919 26.0655 23.3263 26.0685C23.2607 26.0714 23.1964 26.0873 23.137 26.1151C23.0776 26.1429 23.0242 26.1822 22.9799 26.2307L22.3149 26.9597C21.6932 27.639 21.3489 28.5268 21.3499 29.4477V30.9997H17.9289L17.1029 24.8077C17.2278 24.7991 17.3448 24.7436 17.4305 24.6524C17.5162 24.5611 17.5642 24.4408 17.5649 24.3157V23.9277L18.3059 24.6687C18.3524 24.7151 18.4077 24.7519 18.4684 24.7769C18.5291 24.802 18.5942 24.8148 18.6599 24.8147L18.6879 24.8137C18.7582 24.8099 18.8269 24.7913 18.8895 24.7591C18.952 24.7269 19.0071 24.6817 19.0509 24.6267L20.9049 22.3097L24.2979 24.3457C24.6946 24.5864 25.0228 24.925 25.2512 25.3289C25.4795 25.7329 25.6003 26.1887 25.6019 26.6527ZM20.1289 21.6767L18.6159 23.5677L16.8529 21.8047L19.2269 20.6747L20.1289 21.6767ZM9.03393 11.4797C9.03393 7.63767 12.1589 4.51267 15.9999 4.51267C19.8409 4.51267 22.9659 7.63767 22.9659 11.4797C22.9629 12.8188 22.5749 14.1289 21.8482 15.2537C21.1214 16.3785 20.0865 17.2706 18.8669 17.8237C18.7795 17.8633 18.7054 17.9273 18.6534 18.008C18.6014 18.0887 18.5738 18.1827 18.5739 18.2787V19.8777L17.3779 20.4467V18.5977L18.6639 15.1687C18.6956 15.0761 18.6991 14.9762 18.6739 14.8817C18.6819 14.8457 18.6959 14.8117 18.6959 14.7727C18.6957 14.3488 18.5272 13.9424 18.2277 13.6427C17.9281 13.3429 17.5218 13.1742 17.0979 13.1737C16.6719 13.1737 16.2869 13.3437 15.9999 13.6167C15.7047 13.333 15.3114 13.1743 14.9019 13.1737C14.4781 13.1742 14.0718 13.3429 13.7722 13.6427C13.4726 13.9424 13.3042 14.3488 13.3039 14.7727C13.3039 14.8117 13.3179 14.8457 13.3259 14.8817C13.3003 14.9762 13.3038 15.0762 13.3359 15.1687L14.6219 18.5977V20.4467L13.4259 19.8777V18.2787C13.4259 18.1827 13.3983 18.0888 13.3463 18.0081C13.2944 17.9274 13.2203 17.8634 13.1329 17.8237C11.9133 17.2706 10.8784 16.3785 10.1517 15.2537C9.42493 14.1289 9.03693 12.8188 9.03393 11.4797ZM12.7719 20.6747L15.1459 21.8047L13.3829 23.5677L11.8699 21.6767L12.7719 20.6747ZM6.39793 26.6527C6.39793 25.7137 6.89793 24.8297 7.70393 24.3457L11.0969 22.3097L12.9509 24.6267C12.995 24.6815 13.05 24.7265 13.1126 24.7587C13.1751 24.791 13.2437 24.8097 13.3139 24.8137L13.3419 24.8147C13.4739 24.8147 13.6019 24.7617 13.6959 24.6687L14.4369 23.9277V24.3157C14.4369 24.5787 14.6409 24.7877 14.8989 24.8077L14.0719 30.9997H10.6509V29.4477C10.6509 28.5247 10.3079 27.6407 9.68593 26.9597L9.02093 26.2307C8.97667 26.1822 8.92331 26.1429 8.86388 26.1151C8.80445 26.0873 8.74011 26.0714 8.67456 26.0685C8.609 26.0655 8.5435 26.0755 8.48179 26.0978C8.42009 26.1201 8.36339 26.1544 8.31493 26.1987C8.26647 26.2429 8.22721 26.2963 8.19937 26.3557C8.17154 26.4152 8.15568 26.4795 8.15271 26.545C8.14974 26.6106 8.15971 26.6761 8.18205 26.7378C8.2044 26.7995 8.23867 26.8562 8.28293 26.9047L8.94793 27.6337C9.40193 28.1307 9.65193 28.7757 9.65193 29.4477V30.9997H6.39793V26.6527Z" fill="black"/>
</svg>
