<svg width="168" height="168" viewBox="0 0 168 168" fill="none" xmlns="http://www.w3.org/2000/svg">
<path d="M82.0023 44.1191C76.2668 44.119 70.66 45.8196 65.8909 49.006C61.1219 52.1923 57.4048 56.7213 55.2098 62.0202C53.0147 67.3191 52.4402 73.1499 53.559 78.7753C54.6778 84.4007 57.4396 89.568 61.4951 93.6238C65.5506 97.6796 70.7177 100.442 76.343 101.561C81.9684 102.68 87.7992 102.106 93.0983 99.9111C98.3973 97.7164 102.927 93.9996 106.113 89.2308C109.3 84.4619 111.001 78.8552 111.001 73.1197C110.993 65.4312 107.935 58.06 102.498 52.6233C97.0618 47.1865 89.6908 44.1282 82.0023 44.1191ZM82.0023 98.1183C77.0578 98.1184 72.2243 96.6523 68.113 93.9054C64.0017 91.1584 60.7974 87.254 58.9051 82.6859C57.0129 78.1177 56.5178 73.0911 57.4824 68.2416C58.447 63.392 60.828 58.9375 64.3244 55.4412C67.8207 51.9449 72.2753 49.5639 77.1248 48.5994C81.9744 47.6348 87.001 48.13 91.5691 50.0223C96.1372 51.9146 100.042 55.119 102.788 59.2303C105.535 63.3416 107.001 68.1752 107.001 73.1197C106.994 79.7475 104.357 86.1016 99.6709 90.7881C94.9843 95.4746 88.6301 98.1108 82.0023 98.1183V98.1183Z" fill="#00CCFF"/>
<path d="M95.2812 68.3046L87.3304 67.1835L83.7856 60.2119C83.6183 59.8828 83.3631 59.6064 83.0484 59.4134C82.7337 59.2203 82.3717 59.1182 82.0025 59.1182C81.6333 59.1182 81.2713 59.2203 80.9566 59.4134C80.6418 59.6064 80.3867 59.8828 80.2194 60.2119L76.6746 67.1835L68.7238 68.3046C68.351 68.3572 68.0007 68.514 67.7131 68.7569C67.4255 68.9997 67.2123 69.3188 67.0979 69.6775C66.9836 70.0361 66.9728 70.4198 67.0667 70.7843C67.1607 71.1488 67.3556 71.4794 67.6291 71.7381L73.3457 77.1472L71.999 84.7701C71.9345 85.1364 71.9734 85.5134 72.1113 85.8588C72.2492 86.2042 72.4806 86.5043 72.7796 86.7254C73.0787 86.9465 73.4334 87.0799 73.804 87.1106C74.1747 87.1412 74.5465 87.068 74.8778 86.899L82.0025 83.2633L89.1272 86.899C89.4585 87.068 89.8304 87.1412 90.201 87.1106C90.5716 87.0799 90.9264 86.9465 91.2254 86.7254C91.5244 86.5043 91.7559 86.2042 91.8938 85.8588C92.0317 85.5134 92.0705 85.1364 92.006 84.7701L90.6594 77.1472L96.3759 71.7381C96.6494 71.4794 96.8443 71.1488 96.9383 70.7843C97.0323 70.4198 97.0214 70.0361 96.9071 69.6775C96.7927 69.3188 96.5795 68.9997 96.2919 68.7568C96.0043 68.514 95.654 68.3572 95.2812 68.3046V68.3046ZM87.1282 74.9812C86.8875 75.2085 86.707 75.492 86.603 75.8064C86.499 76.1207 86.4748 76.456 86.5325 76.782L87.3684 81.5114L82.9116 79.237C82.6301 79.0932 82.3185 79.0182 82.0025 79.0182C81.6864 79.0182 81.3748 79.0932 81.0933 79.237L76.6365 81.5114L77.4724 76.782C77.5301 76.456 77.5059 76.1207 77.4019 75.8064C77.2979 75.492 77.1174 75.2085 76.8767 74.9812L73.3934 71.6854L78.2643 70.9988C78.5829 70.954 78.886 70.8329 79.1478 70.6459C79.4096 70.4589 79.6224 70.2115 79.7682 69.9247L82.0025 65.5302L84.2368 69.9247C84.3826 70.2115 84.5954 70.4589 84.8572 70.6459C85.119 70.8329 85.422 70.954 85.7406 70.9988L90.6115 71.6854L87.1282 74.9812Z" fill="black"/>
<path d="M92.1688 114.836C92.9218 114.659 94.596 115.433 96.0017 116.127V111.719C94.5427 110.966 92.8836 110.694 91.2606 110.939C88.9814 111.471 87.3477 113.658 85.7677 115.773C84.7755 117.101 83.2756 119.109 82.4768 119.118H82.4729C81.6819 119.118 80.0883 117.076 79.1361 115.855C77.5083 113.769 75.8248 111.612 73.526 111.125C73.1927 111.055 72.853 111.02 72.5124 111.021C70.5594 111.021 68.5155 112.09 66.5293 113.13C65.0244 113.919 62.7463 115.109 61.9924 114.76C61.3352 114.459 60.8176 111.988 60.508 110.511C59.9612 107.903 59.3958 105.205 57.4945 103.753C55.6069 102.31 52.815 102.425 50.1081 102.536C48.657 102.597 45.953 102.707 45.4862 102.149C44.9911 101.553 45.6386 99.0418 46.0262 97.5398C46.6786 95.0116 47.3523 92.3964 46.3162 90.3339C45.2665 88.2549 42.7217 87.1787 40.2599 86.1386C38.9123 85.5694 36.4046 84.5088 36.2298 83.794C36.0569 83.0821 37.8039 81.0323 38.7423 79.9317C40.461 77.9142 42.2383 75.8283 42.2148 73.5021C42.1885 71.1916 40.3731 69.1506 38.6164 67.176C37.6496 66.0902 35.8499 64.0667 36.01 63.3402C36.1653 62.6409 38.6349 61.5404 39.962 60.9496C42.4121 59.8578 44.9462 58.7289 45.9618 56.6166C46.9559 54.5542 46.2323 51.9634 45.5331 49.4576C45.1132 47.9556 44.4111 45.4411 44.9081 44.817C45.4276 44.1666 48.1247 44.2243 49.737 44.2623C52.3716 44.3219 55.0873 44.3795 56.8636 42.9616C58.7142 41.4861 59.2229 38.7957 59.7151 36.1941C59.9983 34.7 60.4709 32.1981 61.1418 31.8748C61.8722 31.5213 64.251 32.7068 65.6719 33.4168C68.0399 34.5995 70.4832 35.8211 72.7458 35.2957C75.023 34.7645 76.6558 32.579 78.2358 30.4648C79.2279 29.1357 80.7288 27.127 81.5296 27.1191H81.5345C82.3255 27.1191 83.9181 29.1601 84.8702 30.3818C86.4971 32.4667 88.1797 34.6239 90.4784 35.1121C92.741 35.5926 95.1442 34.327 97.4771 33.1044C98.9819 32.3163 101.25 31.1308 102.01 31.4725C102.669 31.7762 103.187 34.2489 103.497 35.7264C104.044 38.3338 104.609 41.031 106.511 42.4851C108.398 43.9245 111.188 43.8054 113.893 43.6989C115.346 43.6364 118.048 43.5271 118.516 44.0866C119.013 44.6814 118.365 47.195 117.978 48.6959C117.326 51.2242 116.652 53.8394 117.689 55.8999C118.738 57.979 121.284 59.0561 123.747 60.0971C125.093 60.6665 127.601 61.727 127.775 62.4398C127.948 63.1508 126.201 65.2016 125.262 66.3021C123.543 68.3197 121.766 70.4055 121.791 72.7288C121.816 75.0422 123.633 77.0852 125.39 79.0597C126.356 80.1457 128.155 82.1671 127.993 82.8936C127.839 83.5948 125.368 84.6964 124.039 85.2872C123.73 85.425 123.42 85.5635 123.111 85.7044C123.378 85.7986 123.645 85.8953 123.905 86.0119C125.118 86.5453 126.213 87.3137 127.128 88.2728C129.378 87.2079 131.414 85.9569 131.899 83.7579C132.502 81.0363 130.405 78.6798 128.378 76.4016C127.289 75.1779 125.799 73.5022 125.79 72.6858C125.782 71.8596 127.241 70.1478 128.307 68.8968C130.278 66.5833 132.316 64.1908 131.661 61.4936C131.011 58.8256 128.11 57.5991 125.304 56.4126C123.761 55.7603 121.648 54.8667 121.26 54.1002C120.9 53.3834 121.45 51.2515 121.851 49.695C122.577 46.8825 123.398 43.695 121.588 41.5242C119.859 39.45 116.742 39.5789 113.728 39.7019C112.016 39.7722 109.676 39.8679 108.94 39.3064C108.219 38.7557 107.752 36.5301 107.411 34.9052C106.801 31.995 106.17 28.9853 103.682 27.8388C101.138 26.6728 98.3346 28.1396 95.6218 29.5605C94.156 30.3281 92.1483 31.3798 91.3095 31.2001C90.4365 31.0146 89.042 29.2265 88.0235 27.9208C86.171 25.5459 84.2609 23.1065 81.4886 23.1192C78.7085 23.1485 76.8394 25.6504 75.0309 28.0712C74.0446 29.3915 72.6931 31.2 71.8377 31.4002C70.9861 31.5936 68.9462 30.5799 67.458 29.8378C64.7276 28.4745 61.9035 27.0644 59.4027 28.2723C56.9164 29.4725 56.3413 32.5115 55.7857 35.4509C55.479 37.0691 55.0601 39.2839 54.3687 39.8346C53.7242 40.3493 51.4704 40.2995 49.825 40.2634C46.7353 40.196 43.5352 40.1247 41.7814 42.3229C40.008 44.5455 40.8967 47.7271 41.6808 50.5337C42.0861 51.9839 42.6983 54.1763 42.3575 54.8823C41.9777 55.6723 39.8723 56.6108 38.3343 57.2953C35.5629 58.5306 32.6968 59.807 32.1051 62.4749C31.5025 65.1985 33.6001 67.5559 35.6283 69.8352C36.7162 71.0578 38.2063 72.7326 38.2151 73.5451C38.2239 74.3732 36.764 76.0861 35.6977 77.337C33.7261 79.6505 31.6881 82.043 32.3433 84.7402C32.9947 87.4101 35.8969 88.6367 38.7034 89.8231C40.2453 90.4745 42.3575 91.368 42.7442 92.1337C43.1046 92.8505 42.5548 94.9842 42.1534 96.5408C41.4279 99.3523 40.6057 102.54 42.4151 104.712C44.1465 106.784 47.2626 106.655 50.2732 106.533C51.9831 106.463 54.3267 106.365 55.066 106.931C55.7866 107.481 56.2524 109.707 56.5932 111.332C57.2036 114.242 57.8334 117.25 60.3206 118.394C62.8645 119.569 65.67 118.096 68.3847 116.674C69.8476 115.908 71.8533 114.856 72.6961 115.037C73.5681 115.222 74.9635 117.01 75.9831 118.316C77.8248 120.677 79.73 123.118 82.4721 123.118H82.5189C85.2971 123.087 87.1652 120.585 88.9728 118.166C89.9599 116.845 91.3124 115.035 92.1688 114.836Z" fill="black"/>
<path d="M135.223 107.7C135.736 106.83 136.004 105.839 136 104.829C135.996 103.82 135.719 102.831 135.2 101.965C134.68 101.1 133.937 100.391 133.048 99.9133C132.159 99.4354 131.158 99.2063 130.149 99.2501L126.623 99.2472C126.723 98.6886 126.76 98.1206 126.733 97.5538C126.545 95.8424 126.047 91.332 122.288 89.6704C121.493 89.3095 120.63 89.1213 119.757 89.1182C119.661 89.1182 119.565 89.1206 119.469 89.1254C118.21 89.1972 117.006 89.6635 116.027 90.4581C115.204 91.168 114.571 92.072 114.185 93.0883C113.8 94.1046 113.675 95.201 113.82 96.2781C113.828 96.4238 113.837 96.5687 113.837 96.7101V97.2035C113.314 98.2651 111.806 100.625 111.275 101.457L111.248 101.499C110.94 101.591 110.589 101.693 110.228 101.798C109.57 101.354 108.795 101.117 108.001 101.118H104.001C102.941 101.119 101.924 101.541 101.174 102.291C100.424 103.041 100.002 104.057 100.001 105.118V117.118C100.002 118.178 100.424 119.195 101.174 119.945C101.924 120.695 102.941 121.117 104.001 121.118H108.001C108.929 121.114 109.825 120.784 110.535 120.187C110.608 120.188 110.677 120.192 110.752 120.192C111.104 120.192 111.521 120.179 111.941 120.166C112.144 120.16 112.348 120.153 112.541 120.148C113.107 120.513 113.724 120.79 114.373 120.972C114.709 121.062 115.055 121.109 115.404 121.109L127.407 121.112C128.945 121.123 130.425 120.523 131.521 119.443C132.618 118.364 133.241 116.894 133.255 115.356C133.255 115.325 133.255 115.294 133.255 115.263C133.999 114.277 134.401 113.076 134.401 111.842C134.401 111.68 134.394 111.521 134.38 111.366C134.957 110.458 135.263 109.405 135.262 108.33C135.262 108.119 135.249 107.909 135.223 107.7V107.7ZM108.001 117.118H104.001V105.118H108.001V117.118ZM130.149 106.593C130.149 106.593 131.262 107.447 131.262 108.33C131.249 108.808 131.047 109.262 130.699 109.592C130.352 109.921 129.888 110.099 129.409 110.087C129.951 110.524 130.305 111.152 130.401 111.842C130.389 112.32 130.187 112.774 129.841 113.103C129.495 113.433 129.032 113.612 128.553 113.601C128.967 114.097 129.212 114.711 129.256 115.356C129.25 115.592 129.197 115.826 129.101 116.042C129.005 116.259 128.867 116.454 128.695 116.617C128.523 116.78 128.321 116.908 128.1 116.993C127.879 117.078 127.644 117.119 127.407 117.112L115.41 117.109C114.766 116.936 114.291 116.425 113.673 116.207C113.417 116.152 113.154 116.131 112.892 116.144C112.624 116.144 112.315 116.153 112.001 116.163V105.447C112.643 105.283 113.274 105.076 113.889 104.828C114.127 104.326 117.837 98.8926 117.837 97.8211V96.7101C117.837 95.6144 117.536 94.3746 118.512 93.5923C118.839 93.3178 119.243 93.1527 119.669 93.1203C119.698 93.1189 119.727 93.1181 119.757 93.1181C120.073 93.1237 120.384 93.1955 120.671 93.329C122.243 94.0239 122.597 96.5363 122.756 97.979C122.528 99.777 122.095 101.543 121.467 103.243L130.149 103.25C130.376 103.225 130.606 103.247 130.824 103.314C131.043 103.381 131.245 103.493 131.418 103.641C131.592 103.79 131.733 103.973 131.833 104.178C131.933 104.383 131.99 104.607 132 104.835C131.988 105.314 131.786 105.768 131.439 106.097C131.092 106.427 130.628 106.605 130.149 106.593V106.593Z" fill="#00CCFF"/>
<path d="M2 151.119C3.10457 151.119 4 150.224 4 149.119C4 148.015 3.10457 147.119 2 147.119C0.89543 147.119 0 148.015 0 149.119C0 150.224 0.89543 151.119 2 151.119Z" fill="black"/>
<path d="M11 147.119H8C7.46957 147.119 6.96086 147.33 6.58579 147.705C6.21071 148.08 6 148.589 6 149.119C6 149.65 6.21071 150.158 6.58579 150.533C6.96086 150.908 7.46957 151.119 8 151.119H11C11.5304 151.119 12.0391 150.908 12.4142 150.533C12.7893 150.158 13 149.65 13 149.119C13 148.589 12.7893 148.08 12.4142 147.705C12.0391 147.33 11.5304 147.119 11 147.119ZM160 147.119H157C156.47 147.119 155.961 147.33 155.586 147.705C155.211 148.08 155 148.589 155 149.119C155 149.65 155.211 150.158 155.586 150.533C155.961 150.908 156.47 151.119 157 151.119H160C160.53 151.119 161.039 150.908 161.414 150.533C161.789 150.158 162 149.65 162 149.119C162 148.589 161.789 148.08 161.414 147.705C161.039 147.33 160.53 147.119 160 147.119Z" fill="black"/>
<path d="M166 151.119C167.105 151.119 168 150.224 168 149.119C168 148.015 167.105 147.119 166 147.119C164.895 147.119 164 148.015 164 149.119C164 150.224 164.895 151.119 166 151.119Z" fill="black"/>
<path d="M118.154 155.119H109.846C109.343 155.159 108.874 155.388 108.532 155.758C108.19 156.129 108 156.615 108 157.119C108 157.624 108.19 158.109 108.532 158.48C108.874 158.851 109.343 159.079 109.846 159.119H118.154C118.657 159.079 119.126 158.851 119.468 158.48C119.81 158.109 120 157.624 120 157.119C120 156.615 119.81 156.129 119.468 155.758C119.126 155.388 118.657 155.159 118.154 155.119ZM58.1539 155.119H49.8462C49.3434 155.159 48.8742 155.388 48.5321 155.758C48.19 156.129 48 156.615 48 157.119C48 157.624 48.19 158.109 48.5321 158.48C48.8742 158.851 49.3434 159.079 49.8462 159.119H58.1539C58.6567 159.079 59.1258 158.851 59.468 158.48C59.8101 158.109 60.0001 157.624 60.0001 157.119C60.0001 156.615 59.8101 156.129 59.468 155.758C59.1258 155.388 58.6567 155.159 58.1539 155.119V155.119ZM104 155.119H64C63.4696 155.119 62.9609 155.33 62.5858 155.705C62.2107 156.08 62 156.589 62 157.119C62 157.65 62.2107 158.158 62.5858 158.533C62.9609 158.908 63.4696 159.119 64 159.119H79.94V161.119H72C71.4696 161.119 70.9609 161.33 70.5858 161.705C70.2107 162.08 70 162.589 70 163.119C70 163.65 70.2107 164.158 70.5858 164.533C70.9609 164.908 71.4696 165.119 72 165.119H97C97.5305 165.119 98.0392 164.908 98.4142 164.533C98.7893 164.158 99 163.65 99 163.119C99 162.589 98.7893 162.08 98.4142 161.705C98.0392 161.33 97.5305 161.119 97 161.119H88.06V159.119H104C104.53 159.119 105.039 158.908 105.414 158.533C105.789 158.158 106 157.65 106 157.119C106 156.589 105.789 156.08 105.414 155.705C105.039 155.33 104.53 155.119 104 155.119Z" fill="#00CCFF"/>
<path d="M150.721 147.119H110.987L111.128 134.781L126.434 138.153C126.498 138.167 126.562 138.178 126.627 138.185C127.219 138.262 127.82 138.16 128.354 137.893C128.887 137.626 129.329 137.206 129.623 136.687C129.92 136.161 130.046 135.555 129.983 134.954C129.921 134.353 129.673 133.786 129.275 133.332L122.49 125.699L119.223 125.695H117.189L124.277 133.669L109.595 130.434C109.304 130.37 109.004 130.37 108.713 130.434C108.423 130.499 108.151 130.626 107.915 130.807C107.682 130.986 107.493 131.215 107.362 131.476C107.23 131.738 107.16 132.027 107.155 132.32L107.009 145.254L90.5119 123.333C89.6557 124.356 88.6693 125.264 87.5778 126.032L103.45 147.119H60.561L76.7567 125.598C75.7099 124.764 74.7556 123.82 73.9102 122.782L56.999 145.256L56.8516 132.32C56.8473 132.027 56.7767 131.738 56.6451 131.476C56.5135 131.215 56.3244 130.986 56.0918 130.807C55.856 130.627 55.5834 130.499 55.2933 130.435C55.0032 130.371 54.7025 130.37 54.4122 130.434L39.7309 133.669L53.9855 117.633C53.4184 116.171 52.9879 114.66 52.6993 113.119L34.6948 133.375C34.3093 133.828 34.0727 134.39 34.0172 134.983C33.9616 135.575 34.0898 136.171 34.3843 136.688C34.6791 137.206 35.1211 137.625 35.6543 137.892C36.1876 138.158 36.7879 138.26 37.3793 138.185C37.4443 138.178 37.5088 138.167 37.5726 138.153L52.879 134.78L53.0209 147.119H17.2787C16.9942 147.082 16.705 147.106 16.4305 147.189C16.1559 147.273 15.9024 147.414 15.6867 147.603C15.4711 147.793 15.2983 148.026 15.18 148.287C15.0616 148.549 15.0004 148.832 15.0004 149.119C15.0004 149.406 15.0616 149.69 15.18 149.951C15.2983 150.213 15.4711 150.446 15.6867 150.635C15.9024 150.824 16.1559 150.965 16.4305 151.049C16.705 151.132 16.9942 151.156 17.2787 151.119H150.721C151.006 151.156 151.295 151.132 151.57 151.049C151.844 150.965 152.098 150.824 152.313 150.635C152.529 150.446 152.702 150.213 152.82 149.951C152.938 149.69 153 149.406 153 149.119C153 148.832 152.938 148.549 152.82 148.287C152.702 148.026 152.529 147.793 152.313 147.603C152.098 147.414 151.844 147.273 151.57 147.189C151.295 147.106 151.006 147.082 150.721 147.119V147.119ZM114 26.1191C114.593 26.1191 115.173 25.9432 115.667 25.6136C116.16 25.2839 116.545 24.8154 116.772 24.2672C116.999 23.719 117.058 23.1158 116.942 22.5339C116.827 21.9519 116.541 21.4174 116.121 20.9978C115.702 20.5783 115.167 20.2925 114.585 20.1768C114.003 20.061 113.4 20.1204 112.852 20.3475C112.304 20.5746 111.835 20.9591 111.506 21.4524C111.176 21.9458 111 22.5258 111 23.1191C111.001 23.9145 111.317 24.677 111.88 25.2395C112.442 25.8019 113.205 26.1182 114 26.1191V26.1191ZM114 21.6191C114.297 21.6191 114.587 21.7071 114.833 21.8719C115.08 22.0368 115.272 22.271 115.386 22.5451C115.499 22.8192 115.529 23.1208 115.471 23.4118C115.413 23.7027 115.27 23.97 115.061 24.1798C114.851 24.3896 114.584 24.5324 114.293 24.5903C114.002 24.6482 113.7 24.6185 113.426 24.505C113.152 24.3914 112.918 24.1992 112.753 23.9525C112.588 23.7058 112.5 23.4158 112.5 23.1191C112.5 22.7214 112.659 22.3401 112.94 22.0589C113.221 21.7777 113.602 21.6195 114 21.6191V21.6191ZM140 50.9969C139.604 50.9969 139.218 51.1142 138.889 51.3339C138.56 51.5537 138.304 51.8661 138.152 52.2315C138.001 52.597 137.961 52.9991 138.038 53.3871C138.116 53.775 138.306 54.1314 138.586 54.4111C138.865 54.6908 139.222 54.8813 139.61 54.9585C139.998 55.0356 140.4 54.996 140.765 54.8446C141.131 54.6933 141.443 54.4369 141.663 54.108C141.883 53.7791 142 53.3924 142 52.9969C141.999 52.4666 141.788 51.9583 141.414 51.5833C141.039 51.2084 140.53 50.9975 140 50.9969ZM140 53.9969C139.802 53.9969 139.609 53.9382 139.444 53.8284C139.28 53.7185 139.152 53.5623 139.076 53.3796C139 53.1968 138.981 52.9958 139.019 52.8018C139.058 52.6078 139.153 52.4296 139.293 52.2898C139.433 52.1499 139.611 52.0547 139.805 52.0161C139.999 51.9775 140.2 51.9973 140.383 52.073C140.565 52.1487 140.722 52.2769 140.831 52.4413C140.941 52.6058 141 52.7991 141 52.9969C141 53.262 140.894 53.5162 140.707 53.7037C140.519 53.8912 140.265 53.9966 140 53.9969V53.9969ZM6 36.1191C5.60444 36.1191 5.21776 36.2364 4.88886 36.4562C4.55996 36.676 4.30362 36.9883 4.15224 37.3538C4.00087 37.7192 3.96126 38.1214 4.03843 38.5093C4.1156 38.8973 4.30608 39.2537 4.58579 39.5334C4.86549 39.8131 5.22186 40.0035 5.60982 40.0807C5.99778 40.1579 6.39992 40.1183 6.76537 39.9669C7.13082 39.8155 7.44318 39.5592 7.66294 39.2303C7.8827 38.9014 8 38.5147 8 38.1191C7.99939 37.5889 7.78849 37.0805 7.41355 36.7056C7.0386 36.3307 6.53025 36.1197 6 36.1191V36.1191ZM6 39.1191C5.80222 39.1191 5.60888 39.0605 5.44443 38.9506C5.27998 38.8407 5.15181 38.6845 5.07612 38.5018C5.00043 38.3191 4.98063 38.118 5.01922 37.924C5.0578 37.7301 5.15304 37.5519 5.29289 37.412C5.43275 37.2722 5.61093 37.1769 5.80491 37.1384C5.99889 37.0998 6.19996 37.1196 6.38268 37.1953C6.56541 37.271 6.72159 37.3991 6.83147 37.5636C6.94135 37.728 7 37.9214 7 38.1191C6.99974 38.3843 6.89429 38.6385 6.70682 38.826C6.51934 39.0134 6.26514 39.1189 6 39.1191ZM142 3.61914C141.604 3.61914 141.218 3.73644 140.889 3.9562C140.56 4.17596 140.304 4.48832 140.152 4.85377C140.001 5.21923 139.961 5.62136 140.038 6.00932C140.116 6.39728 140.306 6.75365 140.586 7.03335C140.865 7.31306 141.222 7.50354 141.61 7.58071C141.998 7.65788 142.4 7.61828 142.765 7.4669C143.131 7.31552 143.443 7.05918 143.663 6.73028C143.883 6.40138 144 6.0147 144 5.61914C143.999 5.08889 143.788 4.58054 143.414 4.2056C143.039 3.83066 142.53 3.61975 142 3.61914V3.61914ZM142 6.61914C141.802 6.61914 141.609 6.56049 141.444 6.45061C141.28 6.34073 141.152 6.18455 141.076 6.00182C141 5.8191 140.981 5.61803 141.019 5.42405C141.058 5.23007 141.153 5.05189 141.293 4.91203C141.433 4.77218 141.611 4.67694 141.805 4.63836C141.999 4.59977 142.2 4.61957 142.383 4.69526C142.565 4.77095 142.722 4.89912 142.831 5.06357C142.941 5.22802 143 5.42136 143 5.61914C143 5.88428 142.894 6.13848 142.707 6.32595C142.519 6.51343 142.265 6.61888 142 6.61914ZM30 50.9969C30 50.6013 29.8827 50.2146 29.6629 49.8857C29.4432 49.5568 29.1308 49.3005 28.7654 49.1491C28.3999 48.9977 27.9978 48.9581 27.6098 49.0353C27.2219 49.1125 26.8655 49.303 26.5858 49.5827C26.3061 49.8624 26.1156 50.2187 26.0384 50.6067C25.9613 50.9947 26.0009 51.3968 26.1522 51.7622C26.3036 52.1277 26.56 52.4401 26.8889 52.6598C27.2178 52.8796 27.6044 52.9969 28 52.9969C28.5302 52.9963 29.0386 52.7854 29.4135 52.4104C29.7885 52.0355 29.9994 51.5271 30 50.9969V50.9969ZM27 50.9969C27 50.7991 27.0587 50.6058 27.1685 50.4413C27.2784 50.2769 27.4346 50.1487 27.6173 50.073C27.8 49.9973 28.0011 49.9775 28.1951 50.0161C28.3891 50.0547 28.5673 50.1499 28.7071 50.2898C28.847 50.4296 28.9422 50.6078 28.9808 50.8018C29.0194 50.9958 28.9996 51.1968 28.9239 51.3796C28.8482 51.5623 28.72 51.7185 28.5556 51.8284C28.3911 51.9382 28.1978 51.9969 28 51.9969C27.7349 51.9966 27.4807 51.8912 27.2932 51.7037C27.1057 51.5162 27.0003 51.262 27 50.9969V50.9969Z" fill="black"/>
<path d="M12.7199 5.36786L14.2069 3.41286L13.2679 2.88086L12.3139 5.07086H12.2819L11.3119 2.89586L10.3569 3.44386L11.8279 5.35286V5.38386L9.52686 5.08686V6.15086L11.8439 5.85386V5.88486L10.3569 7.79286L11.2489 8.35686L12.2659 6.15086H12.2969L13.2359 8.34086L14.2219 7.77786L12.7199 5.89986V5.86886L15.0819 6.15086V5.08686L12.7199 5.39986V5.36786Z" fill="#00CCFF"/>
<path d="M44.2578 19.0698L43.4018 20.1688L43.9148 20.4938L44.5008 19.2228H44.5188L45.0598 20.4848L45.6278 20.1598L44.7628 19.0788V19.0608L46.1228 19.2228V18.6098L44.7628 18.7908V18.7728L45.6188 17.6458L45.0778 17.3398L44.5278 18.6008H44.5098L43.9518 17.3488L43.4018 17.6638L44.2488 18.7638V18.7818L42.9238 18.6098V19.2228L44.2578 19.0518V19.0698Z" fill="#00CCFF"/>
<path d="M164.724 30.7861V29.7421L162.407 30.0491V30.0181L163.866 28.1001L162.945 27.5791L162.009 29.7271H161.977L161.027 27.5941L160.089 28.1311L161.533 30.0031V30.0341L159.276 29.7421V30.7861L161.548 30.4951V30.5251L160.089 32.3971L160.964 32.9501L161.963 30.7861H161.992L162.913 32.9341L163.881 32.3821L162.407 30.5401V30.5101L164.724 30.7861Z" fill="#00CCFF"/>
<path d="M80.0042 5.40676L81.2622 3.75176L80.4672 3.30176L79.6602 5.15476H79.6332L78.8132 3.31476L78.0042 3.77876L79.2492 5.39376V5.41976L77.3032 5.16876V6.06876L79.2622 5.81776V5.84376L78.0042 7.45876L78.7592 7.93576L79.6202 6.06876H79.6462L80.4402 7.92176L81.2752 7.44576L80.0042 5.85676V5.83076L82.0022 6.06876V5.16876L80.0042 5.43276V5.40676Z" fill="#00CCFF"/>
</svg>
