<svg fill="none" height="20" viewBox="0 0 24 20" width="24" xmlns="http://www.w3.org/2000/svg"><path d="m14.4615 19.4921c1.477-1.3969 2.6257-2.963 3.4462-4.6985.8205-1.6931 1.2308-3.1322 1.2308-4.3174-.3693.254-.9026.3809-1.6.3809-1.3539 0-2.4616-.5079-3.3231-1.52377-.9026-.97354-1.3539-2.22222-1.3539-3.74603 0-1.65079.5129-3.00529 1.5385-4.06349 1.0256-1.015875 2.359-1.52381 4-1.52381 1.7231 0 3.0974.550264 4.1231 1.65079.9846 1.14286 1.4769 2.51852 1.4769 4.12699 0 2.75132-.5128 5.31212-1.5385 7.68252-1.0256 2.4127-2.4 4.3386-4.123 5.7778-.5744.5079-1.3129.7619-2.2154.7619-.6564 0-1.2103-.1693-1.6616-.5079zm-12.79996 0c1.47692-1.3969 2.62564-2.963 3.44615-4.6985.82052-1.6931 1.23077-3.1322 1.23077-4.3174-.36923.254-.90256.3809-1.6.3809-1.35385 0-2.48205-.5079-3.38461-1.52377-.902569-.97354-1.35385-2.22222-1.35385-3.74603 0-1.65079.533333-3.00529 1.6-4.06349 1.02564-1.015875 2.33846-1.52381 3.93846-1.52381 1.72308 0 3.09744.550264 4.12308 1.65079 1.02566 1.14286 1.53846 2.51852 1.53846 4.12699 0 2.75132-.5128 5.31212-1.53846 7.68252-1.06667 2.3704-2.46154 4.2963-4.18462 5.7778-.57435.5079-1.31282.7619-2.21538.7619-.65641 0-1.18975-.1693-1.6-.5079z" fill="#fa9a09"/></svg>