<svg width="32" height="32" viewBox="0 0 60 60" fill="none" xmlns="http://www.w3.org/2000/svg">
<path d="M15.8925 22.5C9.3 24.2 5 27.1125 5 30.4375C5 35.705 16.0125 40 29.625 40C31.475 40 32.775 39.9025 34.5 39.7575" stroke="#00ffff" stroke-width="2" stroke-linecap="round" stroke-linejoin="round"/>
<path d="M24.5942 39.7501C23.5617 38.2601 22.5792 36.9176 21.6442 35.2501C14.7667 23.0001 12.9242 10.8251 17.5692 8.06757C20.4442 6.32507 25.1868 8.70007 30.0043 13.7026" stroke="#00ffff" stroke-width="2" stroke-linecap="round" stroke-linejoin="round"/>
<path d="M16.0718 38.4675C14.3168 45.1875 14.6718 50.2575 17.4718 51.955C21.9293 54.655 30.9393 47.06 37.5793 34.945C38.4793 33.27 39.2868 31.6225 39.9993 30" stroke="#00ffff" stroke-width="2" stroke-linecap="round" stroke-linejoin="round"/>
<path d="M30 46.3C34.82 51.3 39.5425 53.675 42.445 51.9325C47.07 49.1775 45.2475 37.0025 38.3625 24.75C37.4025 23.0575 36.42 21.74 35.4125 20.25" stroke="#00ffff" stroke-width="2" stroke-linecap="round" stroke-linejoin="round"/>
<path d="M44.15 37.5C50.68 35.7825 55 32.875 55 29.56C55 24.285 43.98 20 30.3875 20C28.52 20 27.2225 20.0725 25.5 20.2175" stroke="#00ffff" stroke-width="2" stroke-linecap="round" stroke-linejoin="round"/>
<path d="M20 29.9999C20.7125 28.3499 21.5175 26.7299 22.42 25.0549C29.0375 12.9449 38.0525 5.32989 42.535 8.05239C45.31 9.74989 45.69 14.8174 43.935 21.5349" stroke="#00ffff" stroke-width="2" stroke-linecap="round" stroke-linejoin="round"/>
<circle cx="30" cy="30" r="3" fill="#00ffff"/>
</svg>
