<svg width="27" height="24" viewBox="0 0 27 24" fill="none" xmlns="http://www.w3.org/2000/svg">
<path d="M22.1994 7.77093C21.912 7.67254 21.6223 7.58138 21.3303 7.49756C21.3794 7.29756 21.4245 7.09998 21.4646 6.90588C22.1225 3.7184 21.6924 1.15051 20.2233 0.305034C18.8148 -0.505492 16.5112 0.339666 14.1848 2.3604C13.9555 2.55991 13.7313 2.76517 13.5124 2.97598C13.3659 2.8358 13.2168 2.69834 13.0652 2.56367C10.6269 0.403034 8.183 -0.507597 6.71551 0.340297C5.30824 1.15335 4.89153 3.56735 5.48385 6.58819C5.54278 6.88738 5.60931 7.18502 5.68339 7.48082C5.33746 7.57893 5.00365 7.68335 4.68418 7.79451C1.82556 8.78924 0 10.3481 0 11.965C0 13.635 1.95982 15.3101 4.9372 16.3258C5.17859 16.4078 5.42198 16.4838 5.66715 16.5537C5.58753 16.8723 5.51683 17.193 5.45516 17.5156C4.89048 20.484 5.33145 22.8409 6.73492 23.6488C8.18448 24.4831 10.6174 23.6257 12.9864 21.5588C13.1785 21.3908 13.3663 21.218 13.5498 21.0406C13.7868 21.2689 14.0302 21.4905 14.2796 21.7052C16.5744 23.676 18.8407 24.4718 20.2428 23.6617C21.691 22.8249 22.1617 20.2929 21.5506 17.2124C21.5025 16.9711 21.4485 16.7309 21.3887 16.4922C21.5596 16.4417 21.7273 16.3897 21.8908 16.3356C24.9861 15.3121 27 13.6573 27 11.965C27 10.3422 25.1155 8.77282 22.1994 7.77093ZM21.5281 15.2429C21.3804 15.2917 21.229 15.3387 21.0746 15.3845C20.7328 14.3048 20.2717 13.1568 19.7074 11.9706C20.2459 10.8127 20.6893 9.67935 21.0214 8.60672C21.2976 8.68651 21.5656 8.77061 21.824 8.85935C24.3226 9.71788 25.8466 10.987 25.8466 11.965C25.8466 13.0067 24.2006 14.359 21.5281 15.2429ZM20.4192 17.436C20.6894 18.7981 20.7279 20.0297 20.5489 20.9925C20.3882 21.8577 20.0648 22.4344 19.6649 22.6655C18.814 23.157 16.9944 22.5181 15.0319 20.8326C14.7999 20.633 14.5736 20.4269 14.353 20.2147C15.1139 19.3843 15.8742 18.4189 16.6163 17.3467C17.9216 17.2311 19.1547 17.0421 20.273 16.7841C20.3269 17.0002 20.3756 17.2176 20.4192 17.436ZM9.20489 22.5805C8.37359 22.8735 7.71145 22.8819 7.3112 22.6516C6.45954 22.1614 6.10548 20.2688 6.58842 17.7303C6.64583 17.4303 6.71156 17.132 6.78554 16.8357C7.89149 17.0799 9.11566 17.2555 10.424 17.3614C11.1711 18.4105 11.9534 19.3748 12.7418 20.2192C12.5742 20.381 12.4027 20.5387 12.2274 20.6921C11.1798 21.606 10.1301 22.2544 9.20489 22.5805ZM5.31035 15.2365C3.99378 14.7874 2.90651 14.2037 2.16127 13.5667C1.49154 12.9944 1.15351 12.4261 1.15351 11.965C1.15351 10.9838 2.61921 9.73219 5.06387 8.88156C5.36055 8.7784 5.67105 8.68103 5.99326 8.58967C6.33118 9.68651 6.77436 10.8334 7.3092 11.993C6.7674 13.1699 6.31789 14.335 5.9767 15.4448C5.75291 15.3808 5.53073 15.3114 5.31035 15.2365ZM6.61584 6.36703C6.10843 3.77893 6.44541 1.82661 7.29348 1.33661C8.19671 0.814718 10.1941 1.55882 12.2993 3.42451C12.4366 3.54644 12.5717 3.67085 12.7044 3.79767C11.92 4.6384 11.1449 5.59556 10.4044 6.63851C9.13454 6.75598 7.91902 6.94461 6.80147 7.19735C6.73261 6.92221 6.67072 6.64539 6.61584 6.36714V6.36703ZM18.2624 9.23735C17.9985 8.78229 17.7247 8.33296 17.4414 7.88967C18.3028 7.9984 19.1282 8.14272 19.9033 8.31914C19.6707 9.06356 19.3806 9.84177 19.0392 10.6397C18.7897 10.1671 18.5307 9.69958 18.2624 9.23735ZM13.513 4.6204C14.045 5.19567 14.5778 5.83788 15.1019 6.53472C14.0387 6.48461 12.9738 6.4844 11.9107 6.53409C12.4353 5.84367 12.9727 5.2023 13.513 4.6204ZM8.73302 9.24524C8.46812 9.70375 8.21398 10.1684 7.9708 10.6387C7.63499 9.84367 7.34759 9.06188 7.11292 8.30693C7.88326 8.13493 8.70476 7.9943 9.56074 7.88756C9.27423 8.33356 8.99825 8.78621 8.73302 9.24514V9.24524ZM9.58532 16.1244C8.70096 16.0259 7.86713 15.8925 7.09699 15.7251C7.33535 14.9567 7.62908 14.1583 7.97217 13.3462C8.21631 13.8169 8.47151 14.2818 8.73756 14.7405C9.01114 15.2121 9.29443 15.674 9.58532 16.1244ZM13.5448 19.3907C12.9981 18.8021 12.4528 18.1508 11.9203 17.4504C12.4373 17.4706 12.9643 17.4809 13.5 17.4809C14.0503 17.4809 14.5943 17.4686 15.1298 17.4448C14.604 18.1579 14.0732 18.8101 13.5448 19.3907ZM19.0501 13.3047C19.411 14.1258 19.7152 14.92 19.9567 15.6752C19.1739 15.8536 18.3287 15.9971 17.4381 16.1038C17.7235 15.6522 17.9998 15.1951 18.267 14.7326C18.5386 14.2625 18.7997 13.7864 19.0501 13.3047ZM17.2679 14.1575C16.8589 14.8665 16.4269 15.5622 15.9726 16.2432C15.1497 16.3014 14.325 16.3303 13.5 16.3299C12.6597 16.3299 11.8425 16.3038 11.0554 16.2528C10.5893 15.5733 10.1491 14.8765 9.73571 14.1638H9.73582C9.32441 13.4548 8.94012 12.7306 8.58379 11.9925C8.93921 11.2543 9.32233 10.5297 9.73234 9.82019L9.73223 9.8203C10.1421 9.11064 10.5788 8.41677 11.0414 7.74019C11.8444 7.67956 12.6677 7.64798 13.4999 7.64798H13.5C14.3359 7.64798 15.1604 7.67988 15.9631 7.74093C16.4211 8.41649 16.855 9.10798 17.2641 9.81409C17.6754 10.522 18.0636 11.2431 18.428 11.9762C18.0674 12.7168 17.6804 13.4443 17.2679 14.1575ZM19.6472 1.3023C20.5513 1.82272 20.903 3.92135 20.3349 6.67346C20.2986 6.84903 20.2579 7.02788 20.2136 7.20924C19.0933 6.95114 17.877 6.75924 16.6034 6.63998C15.8616 5.58556 15.0928 4.62693 14.3211 3.79703C14.5233 3.60246 14.7304 3.41292 14.9421 3.22861C16.9354 1.49735 18.7984 0.813771 19.6472 1.3023ZM13.5 9.55872C14.8315 9.55872 15.911 10.6361 15.911 11.965C15.911 13.294 14.8315 14.3714 13.5 14.3714C12.1685 14.3714 11.089 13.294 11.089 11.965C11.089 10.6361 12.1685 9.55872 13.5 9.55872Z" fill="#00D8FF"/>
</svg>
