<svg width="188" height="188" viewBox="0 0 188 188" fill="none" xmlns="http://www.w3.org/2000/svg">
<path d="M181.632 41.9006V135.109H6.35352V41.9006C6.35352 38.1685 9.37841 35.1719 13.1101 35.1719H174.903C178.635 35.1719 181.632 38.1689 181.632 41.9006Z" fill="#37D0F9"/>
<path opacity="0.2" d="M181.644 41.8973V135.106H166.943V41.8973C166.943 38.1656 163.947 35.1689 160.215 35.1689H174.916C178.647 35.1689 181.644 38.1656 181.644 41.8973Z" fill="black"/>
<path d="M6.36719 135.108V151.012C6.36719 154.73 9.38106 157.744 13.0996 157.744H174.913C178.631 157.744 181.645 154.73 181.645 151.012V135.108H6.36719Z" fill="#304C58"/>
<path opacity="0.2" d="M181.645 135.105V151.022C181.645 154.725 178.62 157.75 174.916 157.75H160.188C163.919 157.75 166.944 154.725 166.944 151.022V135.105H181.645Z" fill="black"/>
<path d="M119.17 181.64L110.687 157.744H77.3265L68.8438 181.64H119.17Z" fill="#304C58"/>
<path d="M145.199 12.0153V135.109H41.4023V12.0153C41.4023 8.89272 43.9337 6.36133 47.0563 6.36133H139.545C142.668 6.36133 145.199 8.89272 145.199 12.0153Z" fill="#FEFEFE"/>
<path opacity="0.2" d="M145.203 12.0153V135.106H130.474V12.0153C130.474 8.9052 127.958 6.36133 124.82 6.36133H139.549C142.659 6.36133 145.203 8.9052 145.203 12.0153Z" fill="black"/>
<path d="M115.46 92.8808C103.2 105.111 83.3679 105.111 71.1681 92.8808C58.9382 80.6509 58.9081 60.8184 71.1681 48.5885C83.3679 36.3585 103.2 36.3585 115.43 48.5885C127.66 60.8184 127.69 80.6509 115.46 92.8808Z" fill="#FACB00"/>
<path opacity="0.2" d="M115.462 92.8687C107.801 100.53 97.1714 103.386 87.3047 101.491C93.2135 100.333 98.8957 97.449 103.476 92.8687C115.689 80.656 115.66 60.8099 103.447 48.5969C98.8674 44.017 93.2135 41.1334 87.3047 39.9742C97.171 38.0803 107.772 40.9355 115.434 48.5969C127.647 60.8095 127.704 80.6557 115.462 92.8687Z" fill="black"/>
<path d="M183.753 41.9005C183.753 37.022 179.783 33.052 174.905 33.052H147.319V12.0147C147.319 7.72705 143.832 4.24023 139.544 4.24023H47.0569C42.7692 4.24023 39.2824 7.72705 39.2824 12.0147V33.052H13.1104C8.21542 33.052 4.23438 37.022 4.23438 41.9005C4.23584 53.0585 4.22923 1.48559 4.24833 151.01C4.24833 155.891 8.2213 159.864 13.1023 159.864H74.3239L67.3477 179.518H59.553C58.3824 179.518 57.4329 180.468 57.4329 181.638C57.4329 182.809 58.3824 183.759 59.553 183.759C73.3952 183.759 111.935 183.759 128.463 183.759C129.633 183.759 130.583 182.809 130.583 181.638C130.583 180.468 129.633 179.518 128.463 179.518H120.668L113.692 159.864H174.913C179.794 159.864 183.767 155.891 183.767 151.01C183.748 1.48559 183.755 53.0567 183.753 41.9005ZM147.319 37.2926H174.905C177.445 37.2926 179.513 39.3606 179.513 41.9005V132.988H147.319V37.2926V37.2926ZM43.5234 12.0147C43.5234 10.0657 45.1082 8.48088 47.0573 8.48088H139.544C141.493 8.48088 143.078 10.0657 143.078 12.0147V132.988H43.5234V12.0147ZM8.47502 41.9005C8.47502 39.3606 10.554 37.2926 13.1104 37.2926H39.2828V132.988H8.47502V41.9005ZM116.166 179.518H71.8494L78.823 159.864H109.192L116.166 179.518ZM179.526 151.01C179.526 153.553 177.456 155.624 174.913 155.624C142.218 155.624 45.1427 155.624 13.102 155.624C10.5592 155.624 8.48861 153.553 8.48861 151.01V137.228C57.7703 137.228 123.897 137.228 179.526 137.228V151.01V151.01Z" fill="black"/>
<path d="M98.0048 144.305H90.0096C88.839 144.305 87.8895 145.255 87.8895 146.425C87.8895 147.596 88.839 148.545 90.0096 148.545H98.0048C99.1754 148.545 100.125 147.596 100.125 146.425C100.125 145.255 99.1754 144.305 98.0048 144.305ZM93.2864 37.2959C74.8745 37.2959 59.8727 52.218 59.8613 70.6989C59.85 88.9999 74.6414 104.177 93.2919 104.177C122.844 104.177 138.076 68.2388 116.93 47.0884C110.613 40.7746 102.218 37.2959 93.2864 37.2959ZM93.2919 99.9359C77.0483 99.9359 64.0961 86.7351 64.102 70.7015C64.1134 54.7263 77.0564 41.5362 93.2864 41.5362C101.086 41.5362 108.419 44.5732 113.932 50.0865C132.349 68.509 119.149 99.9359 93.2919 99.9359Z" fill="black"/>
<path d="M99.1615 74.363L99.1596 74.3586L92.3839 56.9587C92.0663 56.1443 91.2824 55.6085 90.4073 55.6085C89.5323 55.6085 88.748 56.1443 88.4308 56.9587L81.6551 74.3546C81.6529 74.3593 81.6514 74.3641 81.6496 74.3689L77.3131 85.5024C76.8879 86.5929 77.4291 87.8241 78.5196 88.2493C78.7737 88.3459 79.033 88.3929 79.29 88.3929C80.1375 88.3929 80.9383 87.8796 81.2666 87.0427L85.0589 77.3053H95.7551L99.5459 87.0427C99.9737 88.1333 101.202 88.669 102.293 88.2493C103.383 87.8241 103.925 86.5955 103.499 85.5024L99.1615 74.363ZM86.7101 73.065L90.4077 63.5706L94.1042 73.065H86.7101ZM107.306 56.8673H105.634V55.1944C105.634 54.0238 104.684 53.0742 103.513 53.0742C102.343 53.0742 101.393 54.0238 101.393 55.1944V56.8673H99.7203C98.5497 56.8673 97.6002 57.8168 97.6002 58.9874C97.6002 60.158 98.5497 61.1075 99.7203 61.1075H101.393V62.7805C101.393 63.951 102.343 64.9006 103.513 64.9006C104.684 64.9006 105.634 63.951 105.634 62.7805V61.1075H107.306C108.477 61.1075 109.427 60.158 109.427 58.9874C109.427 57.8172 108.477 56.8673 107.306 56.8673Z" fill="black"/>
</svg>
