<svg width="32" height="32" viewBox="0 0 32 32" fill="none" xmlns="http://www.w3.org/2000/svg">
<path d="M23.6123 18.3755V19.3936C23.6123 19.6845 23.8062 19.8785 24.0971 19.8785C24.388 19.8785 24.582 19.6845 24.582 19.3936V18.3755C24.582 18.0845 24.388 17.8906 24.0971 17.8906C23.8062 17.8906 23.6123 18.133 23.6123 18.3755ZM24.0971 6.49667C24.388 6.49667 24.582 6.30273 24.582 6.01182V4.99364C24.582 4.70273 24.388 4.50879 24.0971 4.50879C23.8062 4.50879 23.6123 4.70273 23.6123 4.99364V6.01182C23.6123 6.30273 23.8062 6.49667 24.0971 6.49667ZM26.9093 17.1633C26.6668 17.3088 26.6183 17.5997 26.7153 17.8421L27.2002 18.7148C27.3456 18.9573 27.6365 19.0058 27.8789 18.9088C28.1214 18.7633 28.1699 18.4724 28.0729 18.23L27.588 17.3573C27.4426 17.1149 27.1517 17.0179 26.9093 17.1633ZM20.5577 7.12697C20.7032 7.3694 20.9941 7.41788 21.2365 7.32091C21.4789 7.17546 21.5274 6.88455 21.4305 6.64212L20.9456 5.76939C20.8002 5.52697 20.5092 5.47849 20.2668 5.57546C20.0244 5.72091 19.9759 6.01182 20.0729 6.25424L20.5577 7.12697ZM29.188 15.7088L30.0608 16.1936C30.3032 16.3391 30.5941 16.2421 30.7396 15.9997C30.885 15.7573 30.788 15.4664 30.5456 15.3209L29.6729 14.8361C29.4305 14.6906 29.1396 14.7876 28.9941 15.03C28.8971 15.2724 28.9456 15.6118 29.188 15.7088ZM17.6002 9.01788L18.4729 9.50273C18.5699 9.55121 18.6183 9.55121 18.7153 9.55121C18.8608 9.55121 19.0547 9.45424 19.1517 9.30879C19.2971 9.06637 19.2002 8.77546 18.9577 8.63L18.085 8.14515C17.8426 7.9997 17.5517 8.09667 17.4062 8.33909C17.3093 8.63 17.4062 8.92091 17.6002 9.01788ZM31.2729 11.733H30.2547C29.9638 11.733 29.7699 11.927 29.7699 12.2179C29.7699 12.5088 29.9638 12.7027 30.2547 12.7027H31.2729C31.5638 12.7027 31.7577 12.5088 31.7577 12.2179C31.7577 11.927 31.5638 11.733 31.2729 11.733ZM16.9214 12.7027H17.9396C18.2305 12.7027 18.4244 12.5088 18.4244 12.2179C18.4244 11.927 18.2305 11.733 17.9396 11.733H16.9214C16.6305 11.733 16.4365 11.927 16.4365 12.2179C16.4365 12.4603 16.6305 12.7027 16.9214 12.7027ZM29.6729 9.55121L30.5456 9.06637C30.788 8.92091 30.8365 8.63 30.7396 8.38758C30.5941 8.14515 30.3032 8.09667 30.0608 8.19364L29.188 8.67849C28.9456 8.82394 28.8971 9.11485 28.9941 9.35727C29.1396 9.5997 29.4305 9.69667 29.6729 9.55121ZM18.4729 14.8845L17.6002 15.3694C17.3577 15.5149 17.3093 15.8058 17.4062 16.0482C17.5517 16.2906 17.8426 16.3391 18.085 16.2421L18.9577 15.7573C19.2002 15.6118 19.2486 15.3209 19.1517 15.0785C19.0062 14.8361 18.7153 14.7391 18.4729 14.8845ZM26.9093 7.27243C27.1517 7.41788 27.4426 7.32091 27.588 7.07849L28.0729 6.20576C28.2183 5.96333 28.1214 5.67243 27.8789 5.52697C27.6365 5.38152 27.3456 5.47849 27.2002 5.72091L26.7153 6.59364C26.6183 6.83606 26.7153 7.12697 26.9093 7.27243ZM20.5577 17.3088L20.0729 18.1815C19.9274 18.4239 20.0244 18.7149 20.2668 18.8603C20.5092 19.0058 20.8002 18.9088 20.9456 18.6664L21.4305 17.7936C21.5759 17.5512 21.4789 17.2603 21.2365 17.1149C20.9941 17.0179 20.7032 17.1149 20.5577 17.3088ZM24.0971 7.07849C21.285 7.07849 18.9577 9.35727 18.9577 12.2179C18.9577 15.0785 21.2365 17.3573 24.0971 17.3573C26.9577 17.3573 29.188 15.03 29.188 12.2179C29.188 9.40576 26.9093 7.07849 24.0971 7.07849ZM24.0971 16.3876C21.8183 16.3876 19.9274 14.5452 19.9274 12.2179C19.9274 9.93909 21.7699 8.04818 24.0971 8.04818C26.3759 8.04818 28.2668 9.89061 28.2668 12.2179C28.2183 14.4967 26.3759 16.3876 24.0971 16.3876Z" fill="black"/>
<path d="M24.3876 11.7817V10.5211C24.727 10.5696 25.0664 10.7151 25.3573 10.909L25.7937 10.2787C25.3573 9.9878 24.8725 9.79386 24.3876 9.79386V9.45447H23.9513V9.79386C23.5149 9.79386 23.1755 9.93932 22.8846 10.1817C22.5937 10.4242 22.4967 10.7636 22.4967 11.1514C22.4967 11.5393 22.5937 11.8302 22.8361 12.0242C23.0786 12.2181 23.4179 12.3636 23.9513 12.509V13.8181C23.5634 13.7696 23.1755 13.5757 22.7876 13.2363L22.3028 13.8181C22.7876 14.2545 23.321 14.4969 23.9513 14.5454V15.0302H24.3876V14.5454C24.824 14.5454 25.2119 14.3999 25.5028 14.1575C25.7937 13.9151 25.9392 13.5757 25.9392 13.1878C25.9392 12.7999 25.8422 12.509 25.5998 12.3151C25.2604 12.0727 24.921 11.8787 24.3876 11.7817ZM23.9513 11.6363C23.7089 11.5393 23.5149 11.4908 23.4664 11.3939C23.3695 11.2969 23.321 11.1999 23.321 11.0545C23.321 10.909 23.3695 10.7636 23.5149 10.6666C23.6119 10.5696 23.8058 10.5211 23.9998 10.4727V11.6363H23.9513ZM24.8725 13.6242C24.727 13.7211 24.5816 13.7696 24.3876 13.8181V12.606C24.6786 12.703 24.824 12.7514 24.921 12.8484C25.0179 12.9454 25.0664 13.0423 25.0664 13.2363C25.0664 13.3817 25.0179 13.4787 24.8725 13.6242ZM7.41794 14.5454V15.5636C7.41794 15.8545 7.61188 16.0484 7.90279 16.0484C8.1937 16.0484 8.38764 15.8545 8.38764 15.5636V14.5454C8.38764 14.2545 8.1937 14.0605 7.90279 14.0605C7.66037 14.0605 7.41794 14.303 7.41794 14.5454ZM7.90279 2.66659C8.1937 2.66659 8.38764 2.47265 8.38764 2.18174V1.16356C8.38764 0.87265 8.1937 0.678711 7.90279 0.678711C7.61188 0.678711 7.41794 0.87265 7.41794 1.16356V2.18174C7.41794 2.47265 7.66037 2.66659 7.90279 2.66659ZM10.7634 13.2848C10.521 13.4302 10.4725 13.7211 10.5695 13.9636L11.0543 14.8363C11.1998 15.0787 11.4907 15.1272 11.7331 15.0302C11.9755 14.8848 12.024 14.5939 11.927 14.3514L11.4422 13.4787C11.2967 13.2363 11.0058 13.1878 10.7634 13.2848ZM4.41188 3.24841C4.55734 3.49083 4.84825 3.53932 5.09067 3.44235C5.3331 3.29689 5.38158 3.00598 5.28461 2.76356L4.79976 1.89083C4.60582 1.64841 4.31491 1.59992 4.07249 1.74538C3.83007 1.84235 3.78158 2.13326 3.87855 2.37568L4.41188 3.24841ZM13.0422 11.8787L13.9149 12.3636C14.1573 12.509 14.4482 12.412 14.5937 12.1696C14.7392 11.9272 14.6422 11.6363 14.3998 11.4908L13.527 11.006C13.2846 10.8605 12.9937 10.9575 12.8482 11.1999C12.7028 11.4423 12.7998 11.7333 13.0422 11.8787ZM1.45431 5.1878L2.32704 5.67265C2.56946 5.81811 2.86037 5.72114 3.00582 5.47871C3.15128 5.23629 3.05431 4.94538 2.81188 4.79992L1.93916 4.36356C1.69673 4.2181 1.40582 4.31507 1.26037 4.5575C1.11491 4.75144 1.21188 5.04235 1.45431 5.1878ZM13.624 8.3878C13.624 8.67871 13.8179 8.87265 14.1089 8.87265H15.127C15.4179 8.87265 15.6119 8.67871 15.6119 8.3878C15.6119 8.09689 15.4179 7.90295 15.127 7.90295H14.1089C13.8179 7.90295 13.624 8.09689 13.624 8.3878ZM2.23007 8.3878C2.23007 8.09689 2.03613 7.90295 1.74522 7.90295H0.727036C0.436127 7.90295 0.242188 8.09689 0.242188 8.3878C0.242188 8.67871 0.436127 8.87265 0.727036 8.87265H1.74522C1.98764 8.87265 2.23007 8.63023 2.23007 8.3878ZM13.527 5.72114L14.3998 5.23629C14.6422 5.09083 14.6907 4.79992 14.5937 4.5575C14.4482 4.31507 14.1573 4.26659 13.9149 4.36356L13.0422 4.84841C12.7998 4.99386 12.7513 5.28477 12.8482 5.5272C12.9937 5.76962 13.2846 5.81811 13.527 5.72114ZM2.32704 11.0545L1.45431 11.5393C1.21188 11.6848 1.1634 11.9757 1.26037 12.2181C1.40582 12.4605 1.69673 12.509 1.93916 12.412L2.81188 11.9272C3.05431 11.7817 3.10279 11.4908 3.00582 11.2484C2.86037 11.006 2.56946 10.909 2.32704 11.0545ZM10.7634 3.44235C11.0058 3.5878 11.2967 3.49083 11.4422 3.24841L11.927 2.37568C12.0725 2.13326 11.9755 1.84235 11.7331 1.69689C11.4907 1.55144 11.1998 1.64841 11.0543 1.89083L10.5695 2.76356C10.4725 3.00598 10.521 3.29689 10.7634 3.44235ZM4.41188 13.4787L3.92704 14.3514C3.78158 14.5939 3.87855 14.8848 4.12098 15.0302C4.3634 15.1757 4.65431 15.0787 4.79976 14.8363L5.28461 13.9636C5.43007 13.7211 5.3331 13.4302 5.09067 13.2848C4.84825 13.1878 4.55734 13.2363 4.41188 13.4787ZM28.6058 20.0242C26.521 21.1878 23.0786 23.9999 20.4604 24.9696L16.727 26.3757C16.3876 26.5211 16.0482 26.4242 15.7573 26.1817L14.9331 25.3575C14.7876 25.1636 14.8361 24.9211 14.9331 24.7757C14.9816 24.7272 15.0786 24.5333 15.321 24.5333H20.1695C21.1876 24.5333 21.9634 23.6605 21.9634 22.5454C21.9634 21.4787 21.1392 20.5575 20.1695 20.5575H15.0786C14.9816 20.5575 14.7876 20.5575 14.6907 20.412C13.0422 18.3272 9.7937 18.812 8.43613 19.103V18.2787C8.43613 17.9878 8.24219 17.7939 7.95128 17.7939H1.40582C1.11491 17.7939 0.920975 17.9878 0.920975 18.2787V29.7211C0.920975 30.012 1.11491 30.206 1.40582 30.206H7.90279C8.1937 30.206 8.38764 30.012 8.38764 29.7211V29.0908L10.2786 28.9939L16.0482 31.0787C16.4361 31.2242 16.824 31.2726 17.2119 31.2726C17.8422 31.2726 18.4725 31.0787 19.0543 30.7393C28.9452 24.5333 22.7392 28.3636 30.3028 23.5151C31.1755 23.0302 31.5149 21.8181 31.0786 20.8969C30.5937 19.9272 29.4785 19.4908 28.6058 20.0242ZM7.41794 29.2363H1.89067V18.7636H7.41794V29.2363ZM29.7695 22.6908C29.3331 22.9817 31.1755 21.7696 22.9331 27.1514L18.4725 29.9151C17.8422 30.303 17.0664 30.3999 16.3392 30.1575L10.4725 28.0727C10.424 28.0727 10.3755 28.0242 10.2786 28.0242L8.33916 28.1211V20.1211C9.35734 19.8787 12.5089 19.2969 13.8664 21.0423C14.1089 21.3817 14.5452 21.5757 15.0301 21.5757H20.121C20.6058 21.5757 20.9452 22.012 20.9452 22.5939C20.9452 23.1272 20.5573 23.612 20.121 23.612H15.2725C14.7876 23.612 14.3028 23.903 14.0604 24.3878C13.7695 24.9211 13.8179 25.503 14.1573 26.0363H14.2058C14.2058 26.0363 14.2058 26.0848 14.2543 26.0848L15.127 26.9575C15.6604 27.4908 16.4361 27.6363 17.1149 27.3939L20.8482 25.9878C23.6119 24.9211 27.1513 22.109 29.1392 20.9454C29.5755 20.703 30.0604 20.8969 30.2543 21.3817C30.3998 21.8181 30.2543 22.4484 29.7695 22.6908ZM7.90279 3.24841C5.09067 3.24841 2.7634 5.5272 2.7634 8.3878C2.7634 11.2484 5.04219 13.5272 7.90279 13.5272C10.7634 13.5272 13.0422 11.2484 13.0422 8.3878C13.0422 5.5272 10.7634 3.24841 7.90279 3.24841ZM7.90279 12.509C5.62401 12.509 3.7331 10.6666 3.7331 8.33932C3.7331 6.06053 5.57552 4.16962 7.90279 4.16962C10.1816 4.16962 12.0725 6.01204 12.0725 8.33932C12.0725 10.6666 10.2301 12.509 7.90279 12.509Z" fill="black"/>
<path d="M8.19373 7.90344V6.64284C8.53313 6.69132 8.87252 6.83678 9.16343 7.03072L9.5998 6.40041C9.16343 6.10951 8.67858 5.91557 8.19373 5.91557V5.57617H7.75737V5.91557C7.32101 5.91557 6.98161 6.06102 6.6907 6.30344C6.3998 6.54587 6.30283 6.88526 6.30283 7.27314C6.30283 7.66102 6.3998 7.95193 6.64222 8.14587C6.88464 8.33981 7.22404 8.48526 7.75737 8.63072V9.93981C7.36949 9.89132 6.98161 9.69738 6.59374 9.35799L6.10889 9.93981C6.59374 10.3762 7.12707 10.6186 7.75737 10.6671V11.1519H8.19373V10.6671C8.6301 10.6671 9.01798 10.5216 9.30889 10.2792C9.5998 10.0368 9.74525 9.69738 9.74525 9.30951C9.74525 8.92163 9.64828 8.63072 9.40586 8.43678C9.11495 8.19435 8.72707 8.0489 8.19373 7.90344ZM7.75737 7.80647C7.51495 7.70951 7.32101 7.66102 7.27252 7.56405C7.17555 7.46708 7.12707 7.37011 7.12707 7.22466C7.12707 7.0792 7.17555 6.93375 7.32101 6.83678C7.41798 6.73981 7.61192 6.69132 7.80586 6.64284V7.80647H7.75737ZM8.72707 9.74587C8.58161 9.84284 8.43616 9.89132 8.24222 9.93981V8.72769C8.53313 8.82466 8.67858 8.87314 8.77555 8.97011C8.87252 9.06708 8.92101 9.16405 8.92101 9.35799C8.87252 9.55193 8.82404 9.6489 8.72707 9.74587Z" fill="black"/>
</svg>
