<svg width="188" height="188" viewBox="0 0 188 188" fill="none" xmlns="http://www.w3.org/2000/svg">
<path d="M155.002 79.8066H139.976C142.309 80.9527 143.918 83.3452 143.918 86.1193C143.918 90.006 140.767 93.1565 136.881 93.1565C140.767 93.1565 143.918 96.3074 143.918 100.194C143.918 104.08 140.767 107.231 136.881 107.231H120.478H21.0527V186.12L34.8264 169.092C37.8197 165.391 42.3246 163.241 47.084 163.241H155.003C161.601 163.241 166.949 157.893 166.949 151.295V91.7533C166.949 85.1552 161.6 79.8066 155.002 79.8066Z" fill="#83E1E5"/>
<path d="M64.7269 138.368C67.7118 138.368 70.1315 135.948 70.1315 132.963C70.1315 129.978 67.7118 127.559 64.7269 127.559C61.742 127.559 59.3223 129.978 59.3223 132.963C59.3223 135.948 61.742 138.368 64.7269 138.368Z" fill="#ECF4F7"/>
<path d="M94.0003 138.368C96.9852 138.368 99.4049 135.948 99.4049 132.963C99.4049 129.978 96.9852 127.559 94.0003 127.559C91.0154 127.559 88.5957 129.978 88.5957 132.963C88.5957 135.948 91.0154 138.368 94.0003 138.368Z" fill="#ECF4F7"/>
<path d="M123.274 138.368C126.259 138.368 128.678 135.948 128.678 132.963C128.678 129.978 126.259 127.559 123.274 127.559C120.289 127.559 117.869 129.978 117.869 132.963C117.869 135.948 120.289 138.368 123.274 138.368Z" fill="#ECF4F7"/>
<path d="M46.6249 65.6943H21.0527V107.232H46.6249V65.6943Z" fill="#AAB1BA"/>
<path d="M143.916 57.97C143.916 54.0833 140.765 50.9328 136.879 50.9328H120.476C119.886 50.9328 119.316 51.0132 118.768 51.1501C118.768 51.1501 118.768 51.1501 118.769 51.1497C119.043 51.0087 119.463 50.9324 120.076 50.9324H106.719C101.433 50.9324 97.1477 46.6471 97.1477 41.361V21.1803C97.1477 13.6012 91.0035 7.45703 83.4244 7.45703H78.8117V41.3034C78.8117 54.7736 67.8919 65.6938 54.4217 65.6938H46.623V107.231H120.476H136.879C140.766 107.231 143.916 104.08 143.916 100.194C143.916 96.3073 140.765 93.1568 136.879 93.1568C140.766 93.1568 143.916 90.006 143.916 86.1196C143.916 82.2329 140.765 79.0824 136.879 79.0824C140.766 79.0824 143.916 75.9315 143.916 72.0452C143.916 68.1585 140.765 65.008 136.879 65.008C140.766 65.0076 143.916 61.8567 143.916 57.97Z" fill="#FDDF7F"/>
<path d="M168.829 91.7534V151.295C168.829 158.919 162.626 165.122 155.002 165.122H47.0835C42.8715 165.122 38.9363 167 36.2874 170.275L22.5138 187.302C22.1498 187.752 21.6084 188 21.0515 188C20.8417 188 20.6304 187.965 20.4247 187.892C19.6738 187.626 19.1719 186.916 19.1719 186.12V124.268C19.1719 123.229 20.0134 122.388 21.0519 122.388C22.0904 122.388 22.9319 123.229 22.9319 124.268V180.806L33.3636 167.91C36.7299 163.748 41.7307 161.362 47.0831 161.362H155.002C160.553 161.362 165.069 156.845 165.069 151.295V91.7534C165.069 86.2025 160.552 81.6871 155.002 81.6871H149.93C148.892 81.6871 148.05 80.8456 148.05 79.8071C148.05 78.7686 148.892 77.9271 149.93 77.9271H155.002C162.626 77.9271 168.829 84.1296 168.829 91.7534ZM21.0519 119.157C22.0904 119.157 22.9319 118.316 22.9319 117.277V114.68C22.9319 113.641 22.0904 112.8 21.0519 112.8C20.0134 112.8 19.1719 113.641 19.1719 114.68V117.277C19.1719 118.316 20.0137 119.157 21.0519 119.157ZM113.836 7.79335H115.99V9.94708C115.99 10.9856 116.831 11.8271 117.87 11.8271C118.908 11.8271 119.75 10.9856 119.75 9.94708V7.79335H121.903C122.942 7.79335 123.783 6.95186 123.783 5.91335C123.783 4.87484 122.942 4.03335 121.903 4.03335H119.75V1.88C119.75 0.841488 118.908 0 117.87 0C116.831 0 115.99 0.841488 115.99 1.88V4.03335H113.836C112.798 4.03335 111.956 4.87484 111.956 5.91335C111.956 6.95186 112.798 7.79335 113.836 7.79335ZM55.2886 38.1866H57.4423V40.3399C57.4423 41.3784 58.2838 42.2199 59.3223 42.2199C60.3608 42.2199 61.2023 41.3784 61.2023 40.3399V38.1866H63.3556C64.3941 38.1866 65.2356 37.3451 65.2356 36.3066C65.2356 35.268 64.3941 34.4266 63.3556 34.4266H61.2023V32.2728C61.2023 31.2343 60.3608 30.3928 59.3223 30.3928C58.2838 30.3928 57.4423 31.2343 57.4423 32.2728V34.4266H55.2886C54.25 34.4266 53.4086 35.268 53.4086 36.3066C53.4086 37.3451 54.25 38.1866 55.2886 38.1866ZM156.626 66.8878H158.78V69.0411C158.78 70.0796 159.621 70.9211 160.66 70.9211C161.698 70.9211 162.54 70.0796 162.54 69.0411V66.8878H164.693C165.732 66.8878 166.573 66.0463 166.573 65.0078C166.573 63.9693 165.732 63.1278 164.693 63.1278H162.54V60.9744C162.54 59.9359 161.698 59.0944 160.66 59.0944C159.621 59.0944 158.78 59.9359 158.78 60.9744V63.1278H156.626C155.588 63.1278 154.746 63.9693 154.746 65.0078C154.746 66.0463 155.588 66.8878 156.626 66.8878ZM64.7269 125.679C68.7437 125.679 72.0115 128.947 72.0115 132.963C72.0115 136.98 68.7433 140.248 64.7269 140.248C60.7105 140.248 57.4423 136.98 57.4423 132.963C57.4423 128.947 60.7101 125.679 64.7269 125.679ZM64.7269 129.439C62.7834 129.439 61.2023 131.02 61.2023 132.963C61.2023 134.907 62.7834 136.488 64.7269 136.488C66.6705 136.488 68.2515 134.907 68.2515 132.963C68.2515 131.02 66.6701 129.439 64.7269 129.439ZM94.0004 125.679C98.0172 125.679 101.285 128.947 101.285 132.963C101.285 136.98 98.0172 140.248 94.0004 140.248C89.9836 140.248 86.7158 136.98 86.7158 132.963C86.7158 128.947 89.9836 125.679 94.0004 125.679ZM94.0004 129.439C92.0568 129.439 90.4758 131.02 90.4758 132.963C90.4758 134.907 92.0568 136.488 94.0004 136.488C95.9439 136.488 97.525 134.907 97.525 132.963C97.525 131.02 95.9439 129.439 94.0004 129.439ZM123.274 125.679C127.291 125.679 130.558 128.947 130.558 132.963C130.558 136.98 127.291 140.248 123.274 140.248C119.257 140.248 115.989 136.98 115.989 132.963C115.989 128.947 119.257 125.679 123.274 125.679ZM123.274 129.439C121.33 129.439 119.749 131.02 119.749 132.963C119.749 134.907 121.33 136.488 123.274 136.488C125.217 136.488 126.798 134.907 126.798 132.963C126.798 131.02 125.217 129.439 123.274 129.439ZM34.7804 105.351V67.574H21.0519C20.0134 67.574 19.1719 66.7325 19.1719 65.694C19.1719 64.6555 20.0134 63.814 21.0519 63.814H44.7444V55.648C44.7444 54.6095 45.5859 53.768 46.6244 53.768C47.6629 53.768 48.5044 54.6095 48.5044 55.648V63.814H54.4226C66.8348 63.814 76.9326 53.7161 76.9326 41.304V7.45721C76.9326 6.4187 77.7741 5.57721 78.8126 5.57721H83.4258C92.0294 5.57721 99.0286 12.5768 99.0286 21.1805V40.6121V41.3615C99.0286 45.6024 102.479 49.053 106.72 49.053H120.077C120.105 49.053 120.131 49.0601 120.158 49.0609C120.264 49.0571 120.37 49.053 120.477 49.053H136.88C141.797 49.053 145.797 53.0536 145.797 57.9706C145.797 60.8285 144.444 63.3748 142.347 65.0078C144.444 66.6407 145.797 69.187 145.797 72.045C145.797 74.903 144.444 77.4492 142.347 79.0826C144.444 80.7155 145.797 83.2618 145.797 86.1198C145.797 88.9778 144.444 91.524 142.347 93.1574C144.444 94.7903 145.797 97.3366 145.797 100.195C145.797 105.112 141.797 109.112 136.88 109.112H120.477H48.5044V117.278C48.5044 118.317 47.6629 119.158 46.6244 119.158C45.5859 119.158 44.7444 118.317 44.7444 117.278V109.111H21.0519C20.0134 109.111 19.1719 108.27 19.1719 107.231C19.1719 106.193 20.0134 105.351 21.0519 105.351H34.7804ZM136.88 95.037H120.478C117.634 95.037 115.32 97.3505 115.32 100.194C115.32 103.038 117.633 105.352 120.478 105.352H136.88C139.724 105.352 142.037 103.038 142.037 100.194C142.037 97.3505 139.723 95.037 136.88 95.037ZM136.88 80.9622H120.478C117.634 80.9622 115.32 83.2757 115.32 86.1194C115.32 88.9631 117.633 91.277 120.478 91.277H136.88C139.724 91.277 142.037 88.9635 142.037 86.1194C142.037 83.2761 139.723 80.9622 136.88 80.9622ZM136.88 66.8878H120.478C117.634 66.8878 115.32 69.2013 115.32 72.045C115.32 74.8887 117.633 77.2026 120.478 77.2026H136.88C139.724 77.2026 142.037 74.889 142.037 72.045C142.037 69.2013 139.723 66.8878 136.88 66.8878ZM136.88 52.813H120.478C120.049 52.813 119.635 52.8712 119.236 52.9701C119.232 52.9709 119.229 52.9731 119.225 52.9739C118.682 53.1096 118.179 53.3307 117.724 53.6165C117.696 53.6345 117.665 53.6507 117.637 53.6695C117.577 53.709 117.52 53.7533 117.462 53.7951C117.39 53.8473 117.317 53.8988 117.248 53.9545C117.204 53.9898 117.162 54.0274 117.119 54.0643C117.039 54.1331 116.96 54.2038 116.885 54.2771C116.851 54.3094 116.818 54.3425 116.786 54.376C116.703 54.461 116.624 54.5486 116.547 54.6388C116.523 54.6663 116.499 54.6937 116.477 54.7215C116.388 54.8306 116.304 54.943 116.224 55.0592C116.215 55.0716 116.206 55.0832 116.198 55.096C116.02 55.3596 115.867 55.6409 115.74 55.936C115.724 55.9725 115.711 56.0097 115.696 56.0466C115.653 56.1541 115.612 56.2628 115.576 56.3733C115.559 56.4244 115.544 56.4763 115.529 56.5282C115.5 56.6286 115.474 56.7305 115.45 56.8335C115.438 56.8896 115.425 56.9456 115.414 57.0024C115.394 57.1095 115.378 57.2186 115.364 57.328C115.358 57.3791 115.35 57.4299 115.345 57.4817C115.33 57.6427 115.32 57.8051 115.32 57.9698C115.32 60.8135 117.633 63.127 120.478 63.127H136.88C139.724 63.127 142.037 60.8135 142.037 57.9698C142.037 55.1265 139.723 52.813 136.88 52.813ZM48.5044 67.574V105.351H113.206C113.193 105.332 113.181 105.312 113.167 105.292C113.055 105.132 112.947 104.969 112.845 104.801C112.835 104.785 112.826 104.768 112.817 104.751C112.723 104.595 112.635 104.434 112.551 104.271C112.53 104.231 112.508 104.19 112.488 104.149C112.401 103.974 112.319 103.796 112.243 103.615C112.23 103.582 112.218 103.549 112.204 103.517C112.139 103.354 112.078 103.188 112.022 103.021C112.009 102.983 111.996 102.946 111.984 102.908C111.923 102.719 111.869 102.528 111.821 102.334C111.811 102.292 111.802 102.249 111.792 102.207C111.751 102.028 111.714 101.848 111.684 101.666C111.679 101.639 111.674 101.612 111.669 101.585C111.637 101.384 111.614 101.179 111.596 100.974C111.592 100.926 111.589 100.878 111.585 100.83C111.57 100.62 111.56 100.409 111.56 100.195C111.56 100.027 111.566 99.8615 111.575 99.6964C111.578 99.6423 111.583 99.5889 111.587 99.5355C111.595 99.4245 111.604 99.3136 111.616 99.2038C111.623 99.1418 111.632 99.0801 111.64 99.0185C111.653 98.9173 111.668 98.8166 111.685 98.7165C111.695 98.6538 111.707 98.591 111.719 98.5285C111.737 98.4293 111.758 98.3311 111.78 98.233C111.794 98.1728 111.807 98.1127 111.822 98.0529C111.848 97.9491 111.876 97.8465 111.906 97.7442C111.92 97.6927 111.934 97.6412 111.95 97.59C111.99 97.4558 112.035 97.3235 112.082 97.1915C112.089 97.1738 112.094 97.1558 112.1 97.1381C112.155 96.9892 112.214 96.8426 112.276 96.6974C112.294 96.6542 112.315 96.6121 112.334 96.5692C112.379 96.4681 112.425 96.3673 112.474 96.2684C112.5 96.2158 112.527 96.1643 112.554 96.1124C112.6 96.024 112.646 95.9364 112.695 95.8499C112.725 95.7961 112.755 95.7431 112.786 95.6905C112.836 95.6066 112.886 95.5239 112.938 95.442C112.971 95.3904 113.003 95.3393 113.037 95.2885C113.093 95.2043 113.15 95.1216 113.209 95.0393C113.241 94.9941 113.272 94.9483 113.305 94.9039C113.379 94.8039 113.456 94.7061 113.534 94.6095C113.553 94.5854 113.572 94.5599 113.591 94.5358C113.69 94.4159 113.792 94.2989 113.897 94.1842C113.926 94.1519 113.957 94.1211 113.987 94.0895C114.064 94.0079 114.141 93.9271 114.221 93.8485C114.262 93.8082 114.304 93.7691 114.346 93.7293C114.417 93.6612 114.489 93.5943 114.563 93.5289C114.609 93.4883 114.655 93.4484 114.701 93.4089C114.775 93.3461 114.85 93.2848 114.925 93.2247C114.953 93.2025 114.979 93.1792 115.007 93.1574C114.978 93.1348 114.951 93.1104 114.922 93.0874C114.848 93.0288 114.776 92.969 114.704 92.9077C114.656 92.8671 114.609 92.8258 114.562 92.784C114.489 92.7197 114.418 92.6539 114.348 92.5874C114.305 92.5468 114.262 92.5069 114.22 92.4652C114.141 92.3877 114.065 92.308 113.989 92.2279C113.958 92.1952 113.927 92.1632 113.896 92.1298C113.791 92.0155 113.689 91.8985 113.591 91.7786C113.571 91.7545 113.552 91.729 113.532 91.7045C113.455 91.6079 113.378 91.5101 113.304 91.4105C113.272 91.3661 113.24 91.3202 113.208 91.2755C113.149 91.1932 113.091 91.1101 113.036 91.0255C113.002 90.9751 112.97 90.9236 112.938 90.8724C112.886 90.7901 112.835 90.7074 112.785 90.6231C112.755 90.5705 112.724 90.5179 112.694 90.4645C112.645 90.3776 112.598 90.2896 112.553 90.2009C112.526 90.1494 112.499 90.0982 112.473 90.0456C112.424 89.946 112.378 89.8452 112.333 89.7437C112.314 89.7012 112.294 89.6595 112.275 89.617C112.213 89.4718 112.154 89.3248 112.1 89.1759C112.093 89.159 112.088 89.141 112.082 89.1237C112.034 88.9917 111.99 88.8586 111.949 88.724C111.933 88.6732 111.92 88.6217 111.905 88.5706C111.876 88.4679 111.847 88.3653 111.822 88.2611C111.807 88.2017 111.794 88.1415 111.78 88.0814C111.758 87.9832 111.737 87.8847 111.718 87.7855C111.707 87.7231 111.695 87.6603 111.685 87.5975C111.668 87.4975 111.653 87.3967 111.64 87.2952C111.632 87.2335 111.624 87.1722 111.616 87.1102C111.604 87.0004 111.595 86.8895 111.587 86.7782C111.583 86.7244 111.578 86.671 111.575 86.6172C111.566 86.4522 111.56 86.2864 111.56 86.119C111.56 85.9517 111.566 85.7859 111.575 85.6208C111.578 85.5667 111.583 85.5133 111.587 85.4599C111.595 85.349 111.604 85.2381 111.616 85.1283C111.623 85.0662 111.632 85.0046 111.64 84.9429C111.653 84.8418 111.668 84.741 111.685 84.641C111.695 84.5782 111.707 84.5154 111.719 84.453C111.737 84.3537 111.758 84.2556 111.78 84.1574C111.794 84.0973 111.807 84.0371 111.822 83.9773C111.848 83.8736 111.876 83.7709 111.906 83.6686C111.92 83.6171 111.934 83.5656 111.95 83.5145C111.99 83.3803 112.035 83.2479 112.082 83.1159C112.089 83.0983 112.094 83.0802 112.1 83.0625C112.155 82.9136 112.214 82.767 112.276 82.6219C112.294 82.5786 112.315 82.5365 112.334 82.4936C112.379 82.3925 112.425 82.2917 112.474 82.1928C112.5 82.1402 112.527 82.0887 112.554 82.0368C112.6 81.9484 112.646 81.8608 112.695 81.7744C112.725 81.7206 112.755 81.6676 112.786 81.6149C112.836 81.5311 112.886 81.4484 112.938 81.3664C112.971 81.3149 113.003 81.2638 113.037 81.213C113.093 81.1288 113.15 81.046 113.209 80.9637C113.241 80.9186 113.272 80.8727 113.305 80.8283C113.379 80.7283 113.456 80.6306 113.534 80.5339C113.553 80.5099 113.572 80.4843 113.591 80.4602C113.69 80.3403 113.792 80.2234 113.897 80.1087C113.926 80.0763 113.957 80.0455 113.987 80.0139C114.064 79.9323 114.141 79.8515 114.221 79.7729C114.262 79.7327 114.304 79.6936 114.346 79.6537C114.417 79.5857 114.489 79.5187 114.563 79.4533C114.609 79.4127 114.655 79.3728 114.701 79.3334C114.775 79.2706 114.85 79.2093 114.925 79.1491C114.953 79.1269 114.979 79.1036 115.007 79.0818C114.978 79.0593 114.951 79.0348 114.922 79.0119C114.848 78.9532 114.776 78.8934 114.704 78.8322C114.656 78.7916 114.609 78.7502 114.562 78.7085C114.489 78.6442 114.418 78.5784 114.348 78.5118C114.305 78.4712 114.262 78.4313 114.22 78.3896C114.141 78.3121 114.065 78.2324 113.989 78.1524C113.958 78.1196 113.927 78.0877 113.896 78.0542C113.791 77.9399 113.689 77.823 113.591 77.703C113.571 77.679 113.552 77.6534 113.532 77.629C113.455 77.5323 113.378 77.4346 113.304 77.3349C113.272 77.2906 113.24 77.2447 113.208 77.1999C113.149 77.1176 113.091 77.0345 113.036 76.9499C113.002 76.8995 112.97 76.848 112.938 76.7969C112.886 76.7145 112.835 76.6318 112.785 76.5476C112.755 76.4949 112.724 76.4423 112.694 76.3889C112.645 76.3021 112.598 76.2141 112.553 76.1253C112.526 76.0738 112.499 76.0227 112.473 75.97C112.424 75.8704 112.378 75.7696 112.333 75.6681C112.314 75.6256 112.294 75.5839 112.275 75.5414C112.213 75.3963 112.154 75.2493 112.1 75.1004C112.093 75.0834 112.088 75.0654 112.082 75.0481C112.034 74.9161 111.99 74.783 111.949 74.6484C111.933 74.5976 111.92 74.5461 111.905 74.495C111.876 74.3923 111.847 74.2897 111.822 74.1856C111.807 74.1261 111.794 74.066 111.78 74.0058C111.758 73.9077 111.737 73.8092 111.718 73.7099C111.707 73.6475 111.695 73.5847 111.685 73.5219C111.668 73.4219 111.653 73.3211 111.64 73.2196C111.632 73.1579 111.624 73.0967 111.616 73.0346C111.604 72.9248 111.595 72.8139 111.587 72.7026C111.583 72.6488 111.578 72.5954 111.575 72.5417C111.566 72.3766 111.56 72.2108 111.56 72.0435C111.56 71.8762 111.566 71.7103 111.575 71.5453C111.578 71.4911 111.583 71.4381 111.587 71.3844C111.595 71.2734 111.604 71.1625 111.616 71.0523C111.623 70.9903 111.632 70.929 111.64 70.8674C111.654 70.7658 111.668 70.6651 111.685 70.565C111.695 70.5023 111.707 70.4395 111.718 70.377C111.737 70.2778 111.758 70.1793 111.78 70.0808C111.793 70.021 111.807 69.9612 111.821 69.9014C111.847 69.7973 111.876 69.6939 111.905 69.5908C111.92 69.5401 111.933 69.4889 111.948 69.4386C111.99 69.3024 112.035 69.1678 112.083 69.0347C112.089 69.0189 112.094 69.0028 112.099 68.987C112.154 68.8377 112.213 68.6903 112.275 68.5448C112.293 68.5034 112.312 68.4632 112.331 68.4218C112.377 68.3188 112.424 68.2162 112.473 68.1154C112.498 68.0643 112.525 68.0143 112.551 67.9639C112.598 67.874 112.645 67.7845 112.694 67.6965C112.724 67.6447 112.753 67.5931 112.784 67.5416C112.834 67.4559 112.886 67.3713 112.939 67.2875C112.97 67.2378 113.002 67.1882 113.034 67.1393C113.091 67.0525 113.151 66.9671 113.211 66.8825C113.242 66.8396 113.272 66.7964 113.303 66.7543C113.38 66.6501 113.46 66.5482 113.541 66.4475C113.557 66.4272 113.573 66.4061 113.589 66.3858C113.688 66.2651 113.792 66.147 113.897 66.0316C113.923 66.0023 113.952 65.9745 113.979 65.9455C114.058 65.8609 114.139 65.7778 114.221 65.6962C114.261 65.6571 114.302 65.6191 114.342 65.5808C114.415 65.5116 114.488 65.4435 114.563 65.377C114.609 65.3371 114.654 65.2977 114.7 65.2586C114.774 65.1958 114.849 65.1337 114.925 65.0732C114.952 65.051 114.978 65.0277 115.006 65.0063C114.978 64.9845 114.952 64.9611 114.925 64.9393C114.849 64.8788 114.774 64.8171 114.7 64.754C114.654 64.7149 114.609 64.6758 114.563 64.6355C114.489 64.569 114.415 64.5005 114.342 64.4317C114.302 64.3934 114.261 64.3554 114.221 64.3163C114.139 64.2351 114.058 64.1516 113.979 64.067C113.952 64.0381 113.924 64.0102 113.897 63.9809C113.791 63.8655 113.688 63.7474 113.589 63.6263C113.573 63.6068 113.558 63.5861 113.541 63.5662C113.46 63.465 113.38 63.3624 113.302 63.2579C113.271 63.2157 113.241 63.1725 113.211 63.1296C113.151 63.045 113.091 62.9597 113.034 62.8728C113.001 62.824 112.97 62.7743 112.939 62.7247C112.886 62.6408 112.834 62.5562 112.783 62.4705C112.753 62.419 112.723 62.3675 112.694 62.3156C112.644 62.2272 112.597 62.1381 112.551 62.0483C112.525 61.9979 112.498 61.9479 112.473 61.8967C112.423 61.7956 112.376 61.693 112.33 61.5903C112.312 61.5493 112.292 61.5087 112.275 61.4674C112.212 61.3218 112.153 61.1744 112.099 61.0252C112.093 61.0094 112.088 60.9932 112.083 60.9774C112.035 60.8443 111.99 60.7097 111.948 60.5736C111.933 60.5232 111.919 60.4721 111.905 60.4213C111.875 60.3183 111.847 60.2153 111.821 60.1107C111.806 60.0513 111.793 59.9916 111.78 59.9318C111.757 59.8336 111.737 59.7351 111.718 59.6355C111.706 59.5731 111.695 59.5103 111.684 59.4475C111.668 59.3475 111.653 59.2467 111.64 59.1452C111.631 59.0835 111.623 59.0222 111.616 58.9602C111.604 58.8504 111.595 58.7395 111.587 58.6282C111.583 58.5744 111.577 58.521 111.574 58.4672C111.565 58.3022 111.56 58.1364 111.56 57.969C111.56 57.757 111.57 57.5472 111.584 57.3389C111.588 57.29 111.591 57.2415 111.596 57.1926C111.613 56.9888 111.636 56.7869 111.668 56.5872C111.672 56.5583 111.678 56.5297 111.683 56.5008C111.712 56.3263 111.747 56.1533 111.786 55.9823C111.798 55.9292 111.81 55.8766 111.822 55.824C111.868 55.6412 111.918 55.4604 111.975 55.2818C111.993 55.2224 112.015 55.1641 112.034 55.1051C112.078 54.9772 112.124 54.8505 112.174 54.7249C112.201 54.6557 112.227 54.5866 112.255 54.5185C112.319 54.367 112.387 54.2181 112.459 54.0711C112.501 53.9842 112.546 53.8988 112.591 53.8131C112.632 53.7353 112.675 53.659 112.718 53.5826C112.809 53.4232 112.904 53.2675 113.003 53.1141C113.037 53.0619 113.07 53.0096 113.105 52.9581C113.138 52.9096 113.168 52.8588 113.202 52.8111H106.72C103.762 52.8111 101.063 51.6838 99.029 49.8365V52.2783C99.029 61.4305 95.4649 70.0349 88.9932 76.5066C88.6262 76.874 88.1449 77.0574 87.664 77.0574C87.1831 77.0574 86.7015 76.874 86.3349 76.5066C85.6006 75.7726 85.6006 74.5822 86.3349 73.8483C92.0963 68.0868 95.2694 60.4266 95.2694 52.2787V41.36V40.6106V21.179C95.2694 14.6486 89.9565 9.3357 83.4265 9.3357H80.6934V41.3025C80.6934 55.7879 68.9084 67.5725 54.4234 67.5725H48.5044V67.574ZM38.5404 105.351H44.7444V67.574H38.5404V105.351Z" fill="#1C1D21"/>
</svg>
