<svg width="60" height="60" viewBox="0 0 100 100" fill="none" xmlns="http://www.w3.org/2000/svg">
<path d="M1.19048 88.8393C1.84796 88.8393 2.38095 88.3063 2.38095 87.6488C2.38095 86.9913 1.84796 86.4583 1.19048 86.4583C0.532994 86.4583 0 86.9913 0 87.6488C0 88.3063 0.532994 88.8393 1.19048 88.8393Z" fill="black"/>
<path d="M6.54748 86.4583H4.76177C4.44603 86.4583 4.14323 86.5837 3.91997 86.807C3.69671 87.0303 3.57129 87.3331 3.57129 87.6488C3.57129 87.9645 3.69671 88.2673 3.91997 88.4906C4.14323 88.7138 4.44603 88.8393 4.76177 88.8393H6.54748C6.86321 88.8393 7.16602 88.7138 7.38927 88.4906C7.61253 88.2673 7.73796 87.9645 7.73796 87.6488C7.73796 87.3331 7.61253 87.0303 7.38927 86.807C7.16602 86.5837 6.86321 86.4583 6.54748 86.4583ZM95.238 86.4583H93.4522C93.1365 86.4583 92.8337 86.5837 92.6104 86.807C92.3872 87.0303 92.2618 87.3331 92.2618 87.6488C92.2618 87.9645 92.3872 88.2673 92.6104 88.4906C92.8337 88.7138 93.1365 88.8393 93.4522 88.8393H95.238C95.5537 88.8393 95.8565 88.7138 96.0798 88.4906C96.303 88.2673 96.4284 87.9645 96.4284 87.6488C96.4284 87.3331 96.303 87.0303 96.0798 86.807C95.8565 86.5837 95.5537 86.4583 95.238 86.4583Z" fill="black"/>
<path d="M98.8096 88.8393C99.4671 88.8393 100 88.3063 100 87.6488C100 86.9913 99.4671 86.4583 98.8096 86.4583C98.1521 86.4583 97.6191 86.9913 97.6191 87.6488C97.6191 88.3063 98.1521 88.8393 98.8096 88.8393Z" fill="black"/>
<path d="M70.3296 91.2202H65.3845C65.0852 91.2442 64.8059 91.38 64.6023 91.6006C64.3987 91.8212 64.2856 92.1105 64.2856 92.4107C64.2856 92.7109 64.3987 93.0001 64.6023 93.2208C64.8059 93.4414 65.0852 93.5772 65.3845 93.6012H70.3296C70.6288 93.5772 70.9081 93.4414 71.1117 93.2208C71.3154 93.0001 71.4285 92.7109 71.4285 92.4107C71.4285 92.1105 71.3154 91.8212 71.1117 91.6006C70.9081 91.38 70.6288 91.2442 70.3296 91.2202ZM34.6153 91.2202H29.6702C29.3709 91.2442 29.0917 91.38 28.888 91.6006C28.6844 91.8212 28.5713 92.1105 28.5713 92.4107C28.5713 92.7109 28.6844 93.0001 28.888 93.2208C29.0917 93.4414 29.3709 93.5772 29.6702 93.6012H34.6153C34.9145 93.5772 35.1938 93.4414 35.3975 93.2208C35.6011 93.0001 35.7142 92.7109 35.7142 92.4107C35.7142 92.1105 35.6011 91.8212 35.3975 91.6006C35.1938 91.38 34.9145 91.2442 34.6153 91.2202ZM61.9046 91.2202H38.0951C37.7794 91.2202 37.4766 91.3456 37.2533 91.5689C37.0301 91.7922 36.9046 92.095 36.9046 92.4107C36.9046 92.7264 37.0301 93.0292 37.2533 93.2525C37.4766 93.4757 37.7794 93.6012 38.0951 93.6012H47.5832V94.7916H42.857C42.5413 94.7916 42.2385 94.9171 42.0152 95.1403C41.792 95.3636 41.6665 95.6664 41.6665 95.9821C41.6665 96.2979 41.792 96.6007 42.0152 96.8239C42.2385 97.0472 42.5413 97.1726 42.857 97.1726H57.738C58.0537 97.1726 58.3565 97.0472 58.5798 96.8239C58.803 96.6007 58.9284 96.2979 58.9284 95.9821C58.9284 95.6664 58.803 95.3636 58.5798 95.1403C58.3565 94.9171 58.0537 94.7916 57.738 94.7916H52.4165V93.6012H61.9046C62.2204 93.6012 62.5232 93.4757 62.7464 93.2525C62.9697 93.0292 63.0951 92.7264 63.0951 92.4107C63.0951 92.095 62.9697 91.7922 62.7464 91.5689C62.5232 91.3456 62.2204 91.2202 61.9046 91.2202Z" fill="black"/>
<path d="M32.1427 42.0756C31.7518 41.2979 31.5483 40.4395 31.5483 39.5691C31.5483 38.6987 31.7518 37.8403 32.1427 37.0626V18.6012C32.1437 17.6543 32.5204 16.7465 33.1899 16.077C33.8594 15.4074 34.7672 15.0308 35.7141 15.0298H38.6955C38.6933 15.2338 38.7442 15.4349 38.8432 15.6134L39.8476 17.3991C40.2027 18.1122 40.7482 18.7131 41.4236 19.1354C42.0991 19.5577 42.8782 19.7848 43.6748 19.7917H56.2614C58.0698 19.7917 59.8823 18.7259 60.4772 17.3136L61.216 15.5628C61.2859 15.3942 61.3156 15.2118 61.3028 15.0298H64.2855C65.2324 15.0308 66.1402 15.4074 66.8097 16.077C67.4793 16.7465 67.8559 17.6543 67.857 18.6012V37.0615C68.2477 37.8396 68.4512 38.6982 68.4512 39.569C68.4512 40.4397 68.2477 41.2983 67.857 42.0764V44.0489C68.7158 44.163 69.5334 44.4865 70.2379 44.9908V18.6012C70.2333 17.0239 69.6047 15.5126 68.4894 14.3973C67.3741 13.282 65.8628 12.6534 64.2855 12.6488H35.7141C34.1369 12.6534 32.6255 13.282 31.5102 14.3973C30.3949 15.5126 29.7663 17.0239 29.7617 18.6012V44.9902C30.4662 44.486 31.2838 44.1626 32.1427 44.0487V42.0756ZM58.8566 15.0298L58.2834 16.3882C58.0552 16.7105 57.7516 16.9721 57.3992 17.1503C57.0468 17.3285 56.6562 17.4179 56.2614 17.4107H43.6748C43.3015 17.3989 42.9391 17.282 42.6291 17.0734C42.3192 16.8649 42.0744 16.5732 41.9228 16.2319L41.2466 15.0298H58.8566Z" fill="black"/>
<path d="M32.8329 55.1092H34.6018C34.9407 56.3058 35.4187 57.4586 36.0262 58.5438L34.7718 59.797C34.1989 60.4189 33.8953 61.2422 33.9271 62.0871C33.9589 62.9321 34.3236 63.7302 34.9415 64.3072L36.4378 65.8044C37.0163 66.4212 37.8151 66.7847 38.6602 66.8156C39.5054 66.8465 40.3285 66.5424 40.9506 65.9694L42.2001 64.7173C43.2849 65.3252 44.4375 65.8033 45.634 66.1418V67.9112C45.6678 68.7566 46.0349 69.5542 46.6551 70.1297C47.2752 70.7051 48.0981 71.0116 48.9436 70.9822H51.0571C51.9026 71.0116 52.7254 70.7051 53.3455 70.1296C53.9656 69.5541 54.3327 68.7565 54.3664 67.9112V66.1418C55.5629 65.8031 56.7155 65.3249 57.8003 64.717L59.0536 65.9715C59.6759 66.5438 60.4991 66.8471 61.344 66.8156C62.1889 66.784 62.9871 66.42 63.565 65.8029L65.0612 64.3061C65.6778 63.7279 66.041 62.9295 66.0718 62.0848C66.1025 61.24 65.7983 60.4174 65.2254 59.7959L63.9742 58.5444C64.5814 57.4589 65.0594 56.306 65.3983 55.1092H67.1652C68.0106 55.0759 68.8084 54.7092 69.3842 54.0893C69.96 53.4694 70.2669 52.6467 70.2379 51.8011V49.6867C70.2669 48.8412 69.9599 48.0186 69.3841 47.3987C68.8083 46.7789 68.0106 46.4122 67.1652 46.3789H65.3987C65.06 45.1823 64.582 44.0297 63.9745 42.9446L65.2263 41.692C65.7992 41.0706 66.1033 40.248 66.0722 39.4034C66.0411 38.5588 65.6774 37.7607 65.0603 37.1832L63.5638 35.6844C62.9862 35.0665 62.1876 34.7024 61.3424 34.6714C60.4972 34.6404 59.674 34.9451 59.0527 35.519L57.8006 36.7699C56.7157 36.1621 55.563 35.6841 54.3664 35.3458V33.5775C54.3327 32.7321 53.9657 31.9344 53.3456 31.3588C52.7255 30.7833 51.9027 30.4766 51.0571 30.506H48.9436C48.098 30.4766 47.2751 30.7832 46.6549 31.3587C46.0348 31.9343 45.6677 32.732 45.634 33.5775V35.3458C44.4374 35.6842 43.2848 36.1621 42.1998 36.7696L40.9494 35.519C40.3273 34.9453 39.5036 34.641 38.658 34.6723C37.8124 34.7036 37.0134 35.068 36.4354 35.6861L34.943 37.1812C34.3241 37.7581 33.9589 38.5566 33.9271 39.4021C33.8953 40.2476 34.1995 41.0713 34.7733 41.6931L36.0259 42.9452C35.4182 44.03 34.9402 45.1824 34.6018 46.3789H32.8329C31.9877 46.4124 31.1902 46.7791 30.6147 47.399C30.0391 48.0188 29.7325 48.8414 29.7617 49.6867V51.8011C29.7324 52.6465 30.0391 53.4691 30.6146 54.089C31.1901 54.7089 31.9877 55.0758 32.8329 55.1092ZM32.1426 49.6867C32.1426 49.1842 32.4589 48.7598 32.8329 48.7598H35.5307C35.8023 48.7598 36.0658 48.6669 36.2774 48.4965C36.489 48.3261 36.6359 48.0885 36.6938 47.8231C37.0369 46.252 37.6577 44.7548 38.5269 43.4018C38.6734 43.1732 38.7372 42.9014 38.708 42.6315C38.6788 42.3616 38.5582 42.1097 38.3662 41.9178L36.4584 40.0109C36.3358 39.8343 36.285 39.6177 36.3161 39.405C36.3473 39.1924 36.4581 38.9995 36.6261 38.8654L38.1186 37.3704C38.2533 37.2026 38.4465 37.0921 38.6593 37.061C38.8722 37.0298 39.089 37.0805 39.266 37.2027L41.1724 39.1099C41.3643 39.302 41.6161 39.4227 41.886 39.4519C42.156 39.4811 42.4278 39.4171 42.6564 39.2706C44.0094 38.4014 45.5068 37.7809 47.0779 37.4381C47.3434 37.3803 47.5811 37.2334 47.7516 37.0218C47.922 36.8102 48.015 36.5467 48.015 36.275V33.5775C48.015 33.2031 48.4402 32.8869 48.9436 32.8869H51.0571C51.5602 32.8869 51.9855 33.2031 51.9855 33.5775V36.275C51.9855 36.5467 52.0785 36.8103 52.249 37.0219C52.4195 37.2334 52.6573 37.3803 52.9228 37.4381C54.4939 37.781 55.9911 38.4017 57.3441 39.2709C57.5725 39.4173 57.8442 39.4812 58.114 39.452C58.3837 39.4228 58.6354 39.3022 58.8272 39.1102L60.7361 37.2024C60.9126 37.0804 61.1287 37.0296 61.341 37.0604C61.5534 37.0912 61.7462 37.2012 61.8807 37.3684L63.3758 38.8658C63.5429 39.0001 63.653 39.1929 63.6837 39.4052C63.7144 39.6174 63.6636 39.8335 63.5414 40.0097L61.6342 41.9184C61.4423 42.1104 61.3218 42.3621 61.2927 42.632C61.2635 42.9019 61.3274 43.1736 61.4738 43.4021C62.3429 44.7553 62.9638 46.2526 63.3072 47.8237C63.3651 48.089 63.5121 48.3265 63.7236 48.4968C63.9351 48.6671 64.1985 48.7599 64.47 48.7599H67.1652C67.5401 48.7599 67.8569 49.1842 67.8569 49.6867V51.8012C67.8569 52.3037 67.5401 52.7283 67.1652 52.7283H64.47C64.1985 52.7283 63.9351 52.8211 63.7236 52.9914C63.5121 53.1617 63.3651 53.3992 63.3072 53.6645C62.9627 55.2362 62.3418 56.7342 61.4732 58.0886C61.3271 58.3172 61.2634 58.5888 61.2927 58.8584C61.322 59.1281 61.4425 59.3797 61.6342 59.5715L63.5409 61.4787C63.6632 61.6551 63.7142 61.8713 63.6836 62.0838C63.6531 62.2963 63.5432 62.4894 63.3761 62.6241L61.8824 64.1183C61.7479 64.2858 61.5551 64.3963 61.3426 64.4276C61.13 64.4589 60.9135 64.4088 60.7364 64.2872L58.8281 62.3768C58.6359 62.1848 58.384 62.0642 58.1139 62.035C57.8439 62.0057 57.5719 62.0696 57.3432 62.2161C55.99 63.0857 54.4926 63.7069 52.9213 64.0506C52.6561 64.1086 52.4187 64.2556 52.2484 64.4671C52.0782 64.6786 51.9854 64.942 51.9855 65.2135V67.9112C51.9855 68.2853 51.5602 68.6012 51.0571 68.6012H48.9436C48.4402 68.6012 48.015 68.2853 48.015 67.9112V65.2135C48.015 64.942 47.9222 64.6786 47.752 64.4671C47.5818 64.2556 47.3443 64.1086 47.0791 64.0506C45.5078 63.7071 44.0104 63.086 42.6573 62.2164C42.4285 62.0695 42.1564 62.0054 41.8861 62.0347C41.6158 62.064 41.3637 62.1849 41.1718 62.3774L39.2681 64.2849C39.0912 64.4074 38.8746 64.4585 38.6616 64.4278C38.4487 64.3972 38.2552 64.2872 38.12 64.1198L36.6249 62.6238C36.4575 62.4897 36.3471 62.2972 36.3158 62.085C36.2845 61.8728 36.3348 61.6566 36.4564 61.4799L38.3659 59.5721C38.5579 59.3802 38.6786 59.1286 38.7079 58.8588C38.7373 58.589 38.6737 58.3173 38.5275 58.0886C37.6586 56.7347 37.0377 55.2369 36.6938 53.6653C36.636 53.3998 36.4891 53.1621 36.2775 52.9917C36.0659 52.8212 35.8024 52.7283 35.5307 52.7283H32.8329C32.4589 52.7283 32.1426 52.3037 32.1426 51.8011V49.6867Z" fill="black"/>
<path d="M49.9991 59.0774C51.6474 59.0775 53.2586 58.5889 54.6291 57.6733C55.9996 56.7577 57.0678 55.4563 57.6986 53.9336C58.3295 52.4108 58.4946 50.7353 58.1731 49.1187C57.8517 47.5022 57.058 46.0172 55.8926 44.8517C54.7272 43.6862 53.2424 42.8925 51.6258 42.5709C50.0093 42.2493 48.3337 42.4143 46.811 43.045C45.2882 43.6757 43.9867 44.7438 43.071 46.1142C42.1553 47.4846 41.6665 49.0958 41.6665 50.744C41.6669 52.9539 42.5449 55.0732 44.1074 56.6359C45.67 58.1987 47.7892 59.0768 49.9991 59.0774ZM49.9991 44.7917C51.1764 44.7915 52.3273 45.1405 53.3063 45.7945C54.2853 46.4485 55.0483 47.378 55.4989 48.4657C55.9496 49.5533 56.0675 50.7502 55.8379 51.9049C55.6083 53.0596 55.0415 54.1202 54.2091 54.9528C53.3766 55.7853 52.316 56.3523 51.1613 56.582C50.0067 56.8117 48.8098 56.6939 47.7221 56.2434C46.6344 55.7929 45.7047 55.03 45.0507 54.0511C44.3966 53.0722 44.0475 51.9213 44.0475 50.744C44.0493 49.1661 44.677 47.6533 45.7927 46.5374C46.9084 45.4215 48.4212 44.7937 49.9991 44.7917Z" fill="black"/>
<path d="M50 73.3631C49.6843 73.3631 49.3815 73.4885 49.1583 73.7118C48.935 73.9351 48.8096 74.2378 48.8096 74.5536V80.506C48.8096 80.8217 48.935 81.1245 49.1583 81.3478C49.3815 81.571 49.6843 81.6964 50 81.6964C50.3158 81.6964 50.6186 81.571 50.8418 81.3478C51.0651 81.1245 51.1905 80.8217 51.1905 80.506V74.5536C51.1905 74.2378 51.0651 73.9351 50.8418 73.7118C50.6186 73.4885 50.3158 73.3631 50 73.3631Z" fill="black"/>
<path d="M44.0479 74.5536V76.9345C44.0479 77.2503 44.1733 77.5531 44.3965 77.7763C44.6198 77.9996 44.9226 78.125 45.2383 78.125C45.5541 78.125 45.8569 77.9996 46.0801 77.7763C46.3034 77.5531 46.4288 77.2503 46.4288 76.9345V74.5536C46.4288 74.2378 46.3034 73.935 46.0801 73.7118C45.8569 73.4885 45.5541 73.3631 45.2383 73.3631C44.9226 73.3631 44.6198 73.4885 44.3965 73.7118C44.1733 73.935 44.0479 74.2378 44.0479 74.5536ZM53.5717 74.5536V76.9345C53.5717 77.2503 53.6971 77.5531 53.9203 77.7763C54.1436 77.9996 54.4464 78.125 54.7621 78.125C55.0779 78.125 55.3807 77.9996 55.6039 77.7763C55.8272 77.5531 55.9526 77.2503 55.9526 76.9345V74.5536C55.9526 74.2378 55.8272 73.935 55.6039 73.7118C55.3807 73.4885 55.0779 73.3631 54.7621 73.3631C54.4464 73.3631 54.1436 73.4885 53.9203 73.7118C53.6971 73.935 53.5717 74.2378 53.5717 74.5536Z" fill="black"/>
<path d="M89.7151 86.4583H69.0312C69.8128 85.4316 70.2367 84.1773 70.2381 82.8869V56.4972C69.5337 57.0016 68.716 57.3251 67.8572 57.4392V59.4129C68.2474 60.191 68.4506 61.0494 68.4506 61.9198C68.4506 62.7902 68.2474 63.6486 67.8572 64.4266V82.8869C67.8561 83.8338 67.4795 84.7416 66.81 85.4111C66.1404 86.0807 65.2326 86.4573 64.2858 86.4583H35.7144C34.7675 86.4573 33.8597 86.0807 33.1902 85.4111C32.5206 84.7416 32.144 83.8338 32.1429 82.8869V64.4268C31.7519 63.6486 31.5483 62.7897 31.5483 61.9189C31.5483 61.048 31.7519 60.1891 32.1429 59.4109V57.4394C31.2841 57.3255 30.4664 57.0021 29.762 56.4978V82.8869C29.7634 84.1773 30.1873 85.4316 30.9689 86.4583H10.285C10.1156 86.4362 9.94349 86.4505 9.78008 86.5002C9.61667 86.5499 9.46574 86.6339 9.33738 86.7466C9.20903 86.8592 9.10619 86.998 9.03573 87.1536C8.96528 87.3092 8.92884 87.478 8.92884 87.6488C8.92884 87.8196 8.96528 87.9885 9.03573 88.1441C9.10619 88.2996 9.20903 88.4384 9.33738 88.5511C9.46574 88.6638 9.61667 88.7478 9.78008 88.7975C9.94349 88.8472 10.1156 88.8614 10.285 88.8393H89.7151C89.8845 88.8614 90.0566 88.8472 90.22 88.7975C90.3834 88.7478 90.5344 88.6638 90.6627 88.5511C90.7911 88.4384 90.8939 88.2996 90.9644 88.1441C91.0348 87.9885 91.0713 87.8196 91.0713 87.6488C91.0713 87.478 91.0348 87.3092 90.9644 87.1536C90.8939 86.998 90.7911 86.8592 90.6627 86.7466C90.5344 86.6339 90.3834 86.5499 90.22 86.5002C90.0566 86.4505 89.8845 86.4362 89.7151 86.4583ZM18.8989 19.1964C19.2521 19.1964 19.5973 19.0917 19.891 18.8955C20.1846 18.6993 20.4135 18.4204 20.5487 18.0941C20.6838 17.7678 20.7192 17.4087 20.6503 17.0624C20.5814 16.716 20.4113 16.3978 20.1616 16.148C19.9118 15.8983 19.5936 15.7282 19.2473 15.6593C18.9009 15.5904 18.5418 15.6258 18.2155 15.7609C17.8892 15.8961 17.6103 16.125 17.4141 16.4186C17.2179 16.7123 17.1132 17.0575 17.1132 17.4107C17.1137 17.8842 17.302 18.3381 17.6368 18.6728C17.9716 19.0076 18.4254 19.1959 18.8989 19.1964ZM18.8989 16.5179C19.0755 16.5179 19.2481 16.5702 19.3949 16.6683C19.5418 16.7665 19.6562 16.9059 19.7238 17.069C19.7914 17.2322 19.809 17.4117 19.7746 17.5849C19.7401 17.7581 19.6551 17.9172 19.5302 18.0421C19.4054 18.1669 19.2463 18.252 19.0731 18.2864C18.8999 18.3209 18.7203 18.3032 18.5572 18.2356C18.3941 18.168 18.2546 18.0536 18.1565 17.9068C18.0584 17.7599 18.006 17.5873 18.006 17.4107C18.0063 17.174 18.1004 16.947 18.2678 16.7796C18.4352 16.6122 18.6622 16.5181 18.8989 16.5179ZM81.5477 13.8393C81.3122 13.8393 81.0821 13.9091 80.8863 14.0399C80.6905 14.1707 80.5379 14.3567 80.4478 14.5742C80.3577 14.7917 80.3342 15.0311 80.3801 15.262C80.426 15.493 80.5394 15.7051 80.7059 15.8716C80.8724 16.0381 81.0845 16.1514 81.3154 16.1974C81.5464 16.2433 81.7857 16.2197 82.0033 16.1296C82.2208 16.0395 82.4067 15.8869 82.5375 15.6912C82.6683 15.4954 82.7382 15.2652 82.7382 15.0298C82.7378 14.7142 82.6123 14.4116 82.3891 14.1884C82.1659 13.9652 81.8633 13.8397 81.5477 13.8393ZM81.5477 15.625C81.43 15.625 81.3149 15.5901 81.217 15.5247C81.1191 15.4593 81.0428 15.3663 80.9978 15.2576C80.9527 15.1488 80.9409 15.0291 80.9639 14.9136C80.9869 14.7982 81.0435 14.6921 81.1268 14.6089C81.21 14.5256 81.3161 14.4689 81.4316 14.446C81.547 14.423 81.6667 14.4348 81.7755 14.4798C81.8842 14.5249 81.9772 14.6012 82.0426 14.6991C82.108 14.797 82.1429 14.912 82.1429 15.0298C82.1428 15.1876 82.08 15.3389 81.9684 15.4505C81.8568 15.5621 81.7055 15.6249 81.5477 15.625ZM5.65483 3.42263C5.41938 3.42263 5.18921 3.49245 4.99344 3.62326C4.79767 3.75407 4.64508 3.94 4.55498 4.15753C4.46487 4.37506 4.4413 4.61443 4.48723 4.84536C4.53317 5.07629 4.64655 5.28841 4.81304 5.4549C4.97953 5.62139 5.19165 5.73477 5.42258 5.78071C5.65351 5.82664 5.89288 5.80307 6.11041 5.71296C6.32794 5.62286 6.51387 5.47027 6.64468 5.2745C6.77549 5.07873 6.84531 4.84856 6.84531 4.61311C6.84495 4.29748 6.71941 3.99489 6.49623 3.77171C6.27305 3.54853 5.97046 3.42299 5.65483 3.42263ZM5.65483 5.20835C5.53711 5.20835 5.42202 5.17344 5.32414 5.10803C5.22625 5.04262 5.14996 4.94966 5.1049 4.8409C5.05985 4.73213 5.04806 4.61245 5.07103 4.49698C5.094 4.38152 5.15069 4.27546 5.23394 4.19221C5.31718 4.10897 5.42324 4.05227 5.53871 4.02931C5.65417 4.00634 5.77385 4.01813 5.88262 4.06318C5.99139 4.10823 6.08435 4.18452 6.14975 4.28241C6.21516 4.3803 6.25007 4.49538 6.25007 4.61311C6.24991 4.77093 6.18715 4.92224 6.07556 5.03383C5.96396 5.14543 5.81265 5.20819 5.65483 5.20835ZM97.6191 3.42263C97.3837 3.42263 97.1535 3.49245 96.9577 3.62326C96.7619 3.75407 96.6094 3.94 96.5193 4.15753C96.4292 4.37506 96.4056 4.61443 96.4515 4.84536C96.4975 5.07629 96.6108 5.28841 96.7773 5.4549C96.9438 5.62139 97.1559 5.73477 97.3869 5.78071C97.6178 5.82664 97.8572 5.80307 98.0747 5.71296C98.2922 5.62286 98.4781 5.47027 98.609 5.2745C98.7398 5.07873 98.8096 4.84856 98.8096 4.61311C98.8092 4.29748 98.6837 3.99489 98.4605 3.77171C98.2373 3.54853 97.9347 3.42299 97.6191 3.42263ZM97.6191 5.20835C97.5014 5.20835 97.3863 5.17344 97.2884 5.10803C97.1905 5.04262 97.1142 4.94966 97.0692 4.8409C97.0241 4.73213 97.0123 4.61245 97.0353 4.49698C97.0583 4.38152 97.115 4.27546 97.1982 4.19221C97.2815 4.10897 97.3875 4.05227 97.503 4.02931C97.6185 4.00634 97.7381 4.01813 97.8469 4.06318C97.9557 4.10823 98.0486 4.18452 98.114 4.28241C98.1794 4.3803 98.2144 4.49538 98.2144 4.61311C98.2142 4.77093 98.1514 4.92224 98.0398 5.03383C97.9282 5.14543 97.7769 5.20819 97.6191 5.20835ZM38.0953 4.01787C38.0953 3.78242 38.0255 3.55225 37.8947 3.35648C37.7639 3.1607 37.5779 3.00812 37.3604 2.91801C37.1429 2.82791 36.9035 2.80433 36.6726 2.85027C36.4417 2.8962 36.2295 3.00958 36.063 3.17608C35.8965 3.34257 35.7832 3.55469 35.7372 3.78562C35.6913 4.01655 35.7149 4.25591 35.805 4.47345C35.8951 4.69098 36.0477 4.8769 36.2434 5.00771C36.4392 5.13853 36.6694 5.20835 36.9048 5.20835C37.2205 5.20798 37.523 5.08244 37.7462 4.85926C37.9694 4.63609 38.0949 4.33349 38.0953 4.01787ZM36.3096 4.01787C36.3096 3.90014 36.3445 3.78506 36.4099 3.68717C36.4753 3.58929 36.5683 3.51299 36.677 3.46794C36.7858 3.42289 36.9055 3.4111 37.021 3.43407C37.1364 3.45704 37.2425 3.51373 37.3257 3.59697C37.409 3.68022 37.4657 3.78628 37.4886 3.90174C37.5116 4.01721 37.4998 4.13689 37.4548 4.24566C37.4097 4.35442 37.3334 4.44739 37.2355 4.51279C37.1376 4.5782 37.0226 4.61311 36.9048 4.61311C36.747 4.61295 36.5957 4.55019 36.4841 4.43859C36.3725 4.327 36.3098 4.17569 36.3096 4.01787Z" fill="black"/>
<path d="M6.48116 41.822L7.36628 40.6583L6.80735 40.3417L6.2389 41.6452H6.22045L5.64307 40.3506L5.07461 40.6768L5.95021 41.8131V41.8316L4.58057 41.6548V42.2881L5.95914 42.1113V42.1298L5.07461 43.2655L5.60497 43.6012L6.21092 42.2881H6.22938L6.7883 43.5917L7.37521 43.2566L6.48116 42.1387V42.1202L7.88711 42.2881V41.6548L6.48116 41.8405V41.822Z" fill="black"/>
<path d="M75.1988 39.3393L74.6893 39.9934L74.9947 40.1863L75.3435 39.4303H75.3542L75.6762 40.1809L76.0143 39.9881L75.4994 39.344V39.3333L76.309 39.4303V39.0655L75.4994 39.1726V39.1619L76.009 38.4917L75.6869 38.3095L75.3595 39.0601H75.3488L75.0167 38.3143L74.6893 38.5024L75.1935 39.1565V39.1672L74.4048 39.0655V39.4303L75.1988 39.3286V39.3393Z" fill="black"/>
<path d="M99.2404 39.5583V38.9369L97.8612 39.1197V39.1018L98.7297 37.9595L98.1815 37.6494L97.6243 38.928H97.6053L97.0398 37.6583L96.4815 37.978L97.341 39.0929V39.1107L95.9976 38.9369V39.5583L97.3499 39.3851V39.403L96.4815 40.5173L97.0023 40.8464L97.597 39.5583H97.6142L98.1624 40.8375L98.7386 40.5083L97.8612 39.4119V39.3941L99.2404 39.5583Z" fill="black"/>
<path d="M70.8919 6.57024L71.6407 5.58512L71.1675 5.31726L70.6872 6.42024H70.6711L70.183 5.325L69.7014 5.60119L70.4425 6.5625V6.57798L69.2842 6.42857V6.96428L70.4503 6.81488V6.83036L69.7014 7.79167L70.1508 8.07559L70.6633 6.96428H70.6788L71.1514 8.06726L71.6485 7.78393L70.8919 6.83809V6.82262L72.0812 6.96428V6.42857L70.8919 6.58571V6.57024Z" fill="black"/>
<path d="M1.19048 88.8393C1.84796 88.8393 2.38095 88.3063 2.38095 87.6488C2.38095 86.9913 1.84796 86.4583 1.19048 86.4583C0.532994 86.4583 0 86.9913 0 87.6488C0 88.3063 0.532994 88.8393 1.19048 88.8393Z" fill="black"/>
<path d="M6.54748 86.4583H4.76177C4.44603 86.4583 4.14323 86.5837 3.91997 86.807C3.69671 87.0303 3.57129 87.3331 3.57129 87.6488C3.57129 87.9645 3.69671 88.2673 3.91997 88.4906C4.14323 88.7138 4.44603 88.8393 4.76177 88.8393H6.54748C6.86321 88.8393 7.16602 88.7138 7.38927 88.4906C7.61253 88.2673 7.73796 87.9645 7.73796 87.6488C7.73796 87.3331 7.61253 87.0303 7.38927 86.807C7.16602 86.5837 6.86321 86.4583 6.54748 86.4583ZM95.238 86.4583H93.4522C93.1365 86.4583 92.8337 86.5837 92.6104 86.807C92.3872 87.0303 92.2618 87.3331 92.2618 87.6488C92.2618 87.9645 92.3872 88.2673 92.6104 88.4906C92.8337 88.7138 93.1365 88.8393 93.4522 88.8393H95.238C95.5537 88.8393 95.8565 88.7138 96.0798 88.4906C96.303 88.2673 96.4284 87.9645 96.4284 87.6488C96.4284 87.3331 96.303 87.0303 96.0798 86.807C95.8565 86.5837 95.5537 86.4583 95.238 86.4583Z" fill="black"/>
<path d="M98.8096 88.8393C99.4671 88.8393 100 88.3063 100 87.6488C100 86.9913 99.4671 86.4583 98.8096 86.4583C98.1521 86.4583 97.6191 86.9913 97.6191 87.6488C97.6191 88.3063 98.1521 88.8393 98.8096 88.8393Z" fill="black"/>
<path d="M70.3296 91.2202H65.3845C65.0852 91.2442 64.8059 91.38 64.6023 91.6006C64.3987 91.8212 64.2856 92.1105 64.2856 92.4107C64.2856 92.7109 64.3987 93.0001 64.6023 93.2208C64.8059 93.4414 65.0852 93.5772 65.3845 93.6012H70.3296C70.6288 93.5772 70.9081 93.4414 71.1117 93.2208C71.3154 93.0001 71.4285 92.7109 71.4285 92.4107C71.4285 92.1105 71.3154 91.8212 71.1117 91.6006C70.9081 91.38 70.6288 91.2442 70.3296 91.2202ZM34.6153 91.2202H29.6702C29.3709 91.2442 29.0917 91.38 28.888 91.6006C28.6844 91.8212 28.5713 92.1105 28.5713 92.4107C28.5713 92.7109 28.6844 93.0001 28.888 93.2208C29.0917 93.4414 29.3709 93.5772 29.6702 93.6012H34.6153C34.9145 93.5772 35.1938 93.4414 35.3975 93.2208C35.6011 93.0001 35.7142 92.7109 35.7142 92.4107C35.7142 92.1105 35.6011 91.8212 35.3975 91.6006C35.1938 91.38 34.9145 91.2442 34.6153 91.2202ZM61.9046 91.2202H38.0951C37.7794 91.2202 37.4766 91.3456 37.2533 91.5689C37.0301 91.7922 36.9046 92.095 36.9046 92.4107C36.9046 92.7264 37.0301 93.0292 37.2533 93.2525C37.4766 93.4757 37.7794 93.6012 38.0951 93.6012H47.5832V94.7916H42.857C42.5413 94.7916 42.2385 94.9171 42.0152 95.1403C41.792 95.3636 41.6665 95.6664 41.6665 95.9821C41.6665 96.2979 41.792 96.6007 42.0152 96.8239C42.2385 97.0472 42.5413 97.1726 42.857 97.1726H57.738C58.0537 97.1726 58.3565 97.0472 58.5798 96.8239C58.803 96.6007 58.9284 96.2979 58.9284 95.9821C58.9284 95.6664 58.803 95.3636 58.5798 95.1403C58.3565 94.9171 58.0537 94.7916 57.738 94.7916H52.4165V93.6012H61.9046C62.2204 93.6012 62.5232 93.4757 62.7464 93.2525C62.9697 93.0292 63.0951 92.7264 63.0951 92.4107C63.0951 92.095 62.9697 91.7922 62.7464 91.5689C62.5232 91.3456 62.2204 91.2202 61.9046 91.2202Z" fill="black"/>
<path d="M32.1427 42.0756C31.7518 41.2979 31.5483 40.4395 31.5483 39.5691C31.5483 38.6987 31.7518 37.8403 32.1427 37.0626V18.6012C32.1437 17.6543 32.5204 16.7465 33.1899 16.077C33.8594 15.4074 34.7672 15.0308 35.7141 15.0298H38.6955C38.6933 15.2338 38.7442 15.4349 38.8432 15.6134L39.8476 17.3991C40.2027 18.1122 40.7482 18.7131 41.4236 19.1354C42.0991 19.5577 42.8782 19.7848 43.6748 19.7917H56.2614C58.0698 19.7917 59.8823 18.7259 60.4772 17.3136L61.216 15.5628C61.2859 15.3942 61.3156 15.2118 61.3028 15.0298H64.2855C65.2324 15.0308 66.1402 15.4074 66.8097 16.077C67.4793 16.7465 67.8559 17.6543 67.857 18.6012V37.0615C68.2477 37.8396 68.4512 38.6982 68.4512 39.569C68.4512 40.4397 68.2477 41.2983 67.857 42.0764V44.0489C68.7158 44.163 69.5334 44.4865 70.2379 44.9908V18.6012C70.2333 17.0239 69.6047 15.5126 68.4894 14.3973C67.3741 13.282 65.8628 12.6534 64.2855 12.6488H35.7141C34.1369 12.6534 32.6255 13.282 31.5102 14.3973C30.3949 15.5126 29.7663 17.0239 29.7617 18.6012V44.9902C30.4662 44.486 31.2838 44.1626 32.1427 44.0487V42.0756ZM58.8566 15.0298L58.2834 16.3882C58.0552 16.7105 57.7516 16.9721 57.3992 17.1503C57.0468 17.3285 56.6562 17.4179 56.2614 17.4107H43.6748C43.3015 17.3989 42.9391 17.282 42.6291 17.0734C42.3192 16.8649 42.0744 16.5732 41.9228 16.2319L41.2466 15.0298H58.8566Z" fill="black"/>
<path d="M32.8329 55.1092H34.6018C34.9407 56.3058 35.4187 57.4586 36.0262 58.5438L34.7718 59.797C34.1989 60.4189 33.8953 61.2422 33.9271 62.0871C33.9589 62.9321 34.3236 63.7302 34.9415 64.3072L36.4378 65.8044C37.0163 66.4212 37.8151 66.7847 38.6602 66.8156C39.5054 66.8465 40.3285 66.5424 40.9506 65.9694L42.2001 64.7173C43.2849 65.3252 44.4375 65.8033 45.634 66.1418V67.9112C45.6678 68.7566 46.0349 69.5542 46.6551 70.1297C47.2752 70.7051 48.0981 71.0116 48.9436 70.9822H51.0571C51.9026 71.0116 52.7254 70.7051 53.3455 70.1296C53.9656 69.5541 54.3327 68.7565 54.3664 67.9112V66.1418C55.5629 65.8031 56.7155 65.3249 57.8003 64.717L59.0536 65.9715C59.6759 66.5438 60.4991 66.8471 61.344 66.8156C62.1889 66.784 62.9871 66.42 63.565 65.8029L65.0612 64.3061C65.6778 63.7279 66.041 62.9295 66.0718 62.0848C66.1025 61.24 65.7983 60.4174 65.2254 59.7959L63.9742 58.5444C64.5814 57.4589 65.0594 56.306 65.3983 55.1092H67.1652C68.0106 55.0759 68.8084 54.7092 69.3842 54.0893C69.96 53.4694 70.2669 52.6467 70.2379 51.8011V49.6867C70.2669 48.8412 69.9599 48.0186 69.3841 47.3987C68.8083 46.7789 68.0106 46.4122 67.1652 46.3789H65.3987C65.06 45.1823 64.582 44.0297 63.9745 42.9446L65.2263 41.692C65.7992 41.0706 66.1033 40.248 66.0722 39.4034C66.0411 38.5588 65.6774 37.7607 65.0603 37.1832L63.5638 35.6844C62.9862 35.0665 62.1876 34.7024 61.3424 34.6714C60.4972 34.6404 59.674 34.9451 59.0527 35.519L57.8006 36.7699C56.7157 36.1621 55.563 35.6841 54.3664 35.3458V33.5775C54.3327 32.7321 53.9657 31.9344 53.3456 31.3588C52.7255 30.7833 51.9027 30.4766 51.0571 30.506H48.9436C48.098 30.4766 47.2751 30.7832 46.6549 31.3587C46.0348 31.9343 45.6677 32.732 45.634 33.5775V35.3458C44.4374 35.6842 43.2848 36.1621 42.1998 36.7696L40.9494 35.519C40.3273 34.9453 39.5036 34.641 38.658 34.6723C37.8124 34.7036 37.0134 35.068 36.4354 35.6861L34.943 37.1812C34.3241 37.7581 33.9589 38.5566 33.9271 39.4021C33.8953 40.2476 34.1995 41.0713 34.7733 41.6931L36.0259 42.9452C35.4182 44.03 34.9402 45.1824 34.6018 46.3789H32.8329C31.9877 46.4124 31.1902 46.7791 30.6147 47.399C30.0391 48.0188 29.7325 48.8414 29.7617 49.6867V51.8011C29.7324 52.6465 30.0391 53.4691 30.6146 54.089C31.1901 54.7089 31.9877 55.0758 32.8329 55.1092ZM32.1426 49.6867C32.1426 49.1842 32.4589 48.7598 32.8329 48.7598H35.5307C35.8023 48.7598 36.0658 48.6669 36.2774 48.4965C36.489 48.3261 36.6359 48.0885 36.6938 47.8231C37.0369 46.252 37.6577 44.7548 38.5269 43.4018C38.6734 43.1732 38.7372 42.9014 38.708 42.6315C38.6788 42.3616 38.5582 42.1097 38.3662 41.9178L36.4584 40.0109C36.3358 39.8343 36.285 39.6177 36.3161 39.405C36.3473 39.1924 36.4581 38.9995 36.6261 38.8654L38.1186 37.3704C38.2533 37.2026 38.4465 37.0921 38.6593 37.061C38.8722 37.0298 39.089 37.0805 39.266 37.2027L41.1724 39.1099C41.3643 39.302 41.6161 39.4227 41.886 39.4519C42.156 39.4811 42.4278 39.4171 42.6564 39.2706C44.0094 38.4014 45.5068 37.7809 47.0779 37.4381C47.3434 37.3803 47.5811 37.2334 47.7516 37.0218C47.922 36.8102 48.015 36.5467 48.015 36.275V33.5775C48.015 33.2031 48.4402 32.8869 48.9436 32.8869H51.0571C51.5602 32.8869 51.9855 33.2031 51.9855 33.5775V36.275C51.9855 36.5467 52.0785 36.8103 52.249 37.0219C52.4195 37.2334 52.6573 37.3803 52.9228 37.4381C54.4939 37.781 55.9911 38.4017 57.3441 39.2709C57.5725 39.4173 57.8442 39.4812 58.114 39.452C58.3837 39.4228 58.6354 39.3022 58.8272 39.1102L60.7361 37.2024C60.9126 37.0804 61.1287 37.0296 61.341 37.0604C61.5534 37.0912 61.7462 37.2012 61.8807 37.3684L63.3758 38.8658C63.5429 39.0001 63.653 39.1929 63.6837 39.4052C63.7144 39.6174 63.6636 39.8335 63.5414 40.0097L61.6342 41.9184C61.4423 42.1104 61.3218 42.3621 61.2927 42.632C61.2635 42.9019 61.3274 43.1736 61.4738 43.4021C62.3429 44.7553 62.9638 46.2526 63.3072 47.8237C63.3651 48.089 63.5121 48.3265 63.7236 48.4968C63.9351 48.6671 64.1985 48.7599 64.47 48.7599H67.1652C67.5401 48.7599 67.8569 49.1842 67.8569 49.6867V51.8012C67.8569 52.3037 67.5401 52.7283 67.1652 52.7283H64.47C64.1985 52.7283 63.9351 52.8211 63.7236 52.9914C63.5121 53.1617 63.3651 53.3992 63.3072 53.6645C62.9627 55.2362 62.3418 56.7342 61.4732 58.0886C61.3271 58.3172 61.2634 58.5888 61.2927 58.8584C61.322 59.1281 61.4425 59.3797 61.6342 59.5715L63.5409 61.4787C63.6632 61.6551 63.7142 61.8713 63.6836 62.0838C63.6531 62.2963 63.5432 62.4894 63.3761 62.6241L61.8824 64.1183C61.7479 64.2858 61.5551 64.3963 61.3426 64.4276C61.13 64.4589 60.9135 64.4088 60.7364 64.2872L58.8281 62.3768C58.6359 62.1848 58.384 62.0642 58.1139 62.035C57.8439 62.0057 57.5719 62.0696 57.3432 62.2161C55.99 63.0857 54.4926 63.7069 52.9213 64.0506C52.6561 64.1086 52.4187 64.2556 52.2484 64.4671C52.0782 64.6786 51.9854 64.942 51.9855 65.2135V67.9112C51.9855 68.2853 51.5602 68.6012 51.0571 68.6012H48.9436C48.4402 68.6012 48.015 68.2853 48.015 67.9112V65.2135C48.015 64.942 47.9222 64.6786 47.752 64.4671C47.5818 64.2556 47.3443 64.1086 47.0791 64.0506C45.5078 63.7071 44.0104 63.086 42.6573 62.2164C42.4285 62.0695 42.1564 62.0054 41.8861 62.0347C41.6158 62.064 41.3637 62.1849 41.1718 62.3774L39.2681 64.2849C39.0912 64.4074 38.8746 64.4585 38.6616 64.4278C38.4487 64.3972 38.2552 64.2872 38.12 64.1198L36.6249 62.6238C36.4575 62.4897 36.3471 62.2972 36.3158 62.085C36.2845 61.8728 36.3348 61.6566 36.4564 61.4799L38.3659 59.5721C38.5579 59.3802 38.6786 59.1286 38.7079 58.8588C38.7373 58.589 38.6737 58.3173 38.5275 58.0886C37.6586 56.7347 37.0377 55.2369 36.6938 53.6653C36.636 53.3998 36.4891 53.1621 36.2775 52.9917C36.0659 52.8212 35.8024 52.7283 35.5307 52.7283H32.8329C32.4589 52.7283 32.1426 52.3037 32.1426 51.8011V49.6867Z" fill="black"/>
<path d="M49.9991 59.0774C51.6474 59.0775 53.2586 58.5889 54.6291 57.6733C55.9996 56.7577 57.0678 55.4563 57.6986 53.9336C58.3295 52.4108 58.4946 50.7353 58.1731 49.1187C57.8517 47.5022 57.058 46.0172 55.8926 44.8517C54.7272 43.6862 53.2424 42.8925 51.6258 42.5709C50.0093 42.2493 48.3337 42.4143 46.811 43.045C45.2882 43.6757 43.9867 44.7438 43.071 46.1142C42.1553 47.4846 41.6665 49.0958 41.6665 50.744C41.6669 52.9539 42.5449 55.0732 44.1074 56.6359C45.67 58.1987 47.7892 59.0768 49.9991 59.0774ZM49.9991 44.7917C51.1764 44.7915 52.3273 45.1405 53.3063 45.7945C54.2853 46.4485 55.0483 47.378 55.4989 48.4657C55.9496 49.5533 56.0675 50.7502 55.8379 51.9049C55.6083 53.0596 55.0415 54.1202 54.2091 54.9528C53.3766 55.7853 52.316 56.3523 51.1613 56.582C50.0067 56.8117 48.8098 56.6939 47.7221 56.2434C46.6344 55.7929 45.7047 55.03 45.0507 54.0511C44.3966 53.0722 44.0475 51.9213 44.0475 50.744C44.0493 49.1661 44.677 47.6533 45.7927 46.5374C46.9084 45.4215 48.4212 44.7937 49.9991 44.7917Z" fill="black"/>
<path d="M50 73.3631C49.6843 73.3631 49.3815 73.4885 49.1583 73.7118C48.935 73.9351 48.8096 74.2378 48.8096 74.5536V80.506C48.8096 80.8217 48.935 81.1245 49.1583 81.3478C49.3815 81.571 49.6843 81.6964 50 81.6964C50.3158 81.6964 50.6186 81.571 50.8418 81.3478C51.0651 81.1245 51.1905 80.8217 51.1905 80.506V74.5536C51.1905 74.2378 51.0651 73.9351 50.8418 73.7118C50.6186 73.4885 50.3158 73.3631 50 73.3631Z" fill="black"/>
<path d="M44.0479 74.5536V76.9345C44.0479 77.2503 44.1733 77.5531 44.3965 77.7763C44.6198 77.9996 44.9226 78.125 45.2383 78.125C45.5541 78.125 45.8569 77.9996 46.0801 77.7763C46.3034 77.5531 46.4288 77.2503 46.4288 76.9345V74.5536C46.4288 74.2378 46.3034 73.935 46.0801 73.7118C45.8569 73.4885 45.5541 73.3631 45.2383 73.3631C44.9226 73.3631 44.6198 73.4885 44.3965 73.7118C44.1733 73.935 44.0479 74.2378 44.0479 74.5536ZM53.5717 74.5536V76.9345C53.5717 77.2503 53.6971 77.5531 53.9203 77.7763C54.1436 77.9996 54.4464 78.125 54.7621 78.125C55.0779 78.125 55.3807 77.9996 55.6039 77.7763C55.8272 77.5531 55.9526 77.2503 55.9526 76.9345V74.5536C55.9526 74.2378 55.8272 73.935 55.6039 73.7118C55.3807 73.4885 55.0779 73.3631 54.7621 73.3631C54.4464 73.3631 54.1436 73.4885 53.9203 73.7118C53.6971 73.935 53.5717 74.2378 53.5717 74.5536Z" fill="black"/>
<path d="M89.7151 86.4583H69.0312C69.8128 85.4316 70.2367 84.1773 70.2381 82.8869V56.4972C69.5337 57.0016 68.716 57.3251 67.8572 57.4392V59.4129C68.2474 60.191 68.4506 61.0494 68.4506 61.9198C68.4506 62.7902 68.2474 63.6486 67.8572 64.4266V82.8869C67.8561 83.8338 67.4795 84.7416 66.81 85.4111C66.1404 86.0807 65.2326 86.4573 64.2858 86.4583H35.7144C34.7675 86.4573 33.8597 86.0807 33.1902 85.4111C32.5206 84.7416 32.144 83.8338 32.1429 82.8869V64.4268C31.7519 63.6486 31.5483 62.7897 31.5483 61.9189C31.5483 61.048 31.7519 60.1891 32.1429 59.4109V57.4394C31.2841 57.3255 30.4664 57.0021 29.762 56.4978V82.8869C29.7634 84.1773 30.1873 85.4316 30.9689 86.4583H10.285C10.1156 86.4362 9.94349 86.4505 9.78008 86.5002C9.61667 86.5499 9.46574 86.6339 9.33738 86.7466C9.20903 86.8592 9.10619 86.998 9.03573 87.1536C8.96528 87.3092 8.92884 87.478 8.92884 87.6488C8.92884 87.8196 8.96528 87.9885 9.03573 88.1441C9.10619 88.2996 9.20903 88.4384 9.33738 88.5511C9.46574 88.6638 9.61667 88.7478 9.78008 88.7975C9.94349 88.8472 10.1156 88.8614 10.285 88.8393H89.7151C89.8845 88.8614 90.0566 88.8472 90.22 88.7975C90.3834 88.7478 90.5344 88.6638 90.6627 88.5511C90.7911 88.4384 90.8939 88.2996 90.9644 88.1441C91.0348 87.9885 91.0713 87.8196 91.0713 87.6488C91.0713 87.478 91.0348 87.3092 90.9644 87.1536C90.8939 86.998 90.7911 86.8592 90.6627 86.7466C90.5344 86.6339 90.3834 86.5499 90.22 86.5002C90.0566 86.4505 89.8845 86.4362 89.7151 86.4583ZM18.8989 19.1964C19.2521 19.1964 19.5973 19.0917 19.891 18.8955C20.1846 18.6993 20.4135 18.4204 20.5487 18.0941C20.6838 17.7678 20.7192 17.4087 20.6503 17.0624C20.5814 16.716 20.4113 16.3978 20.1616 16.148C19.9118 15.8983 19.5936 15.7282 19.2473 15.6593C18.9009 15.5904 18.5418 15.6258 18.2155 15.7609C17.8892 15.8961 17.6103 16.125 17.4141 16.4186C17.2179 16.7123 17.1132 17.0575 17.1132 17.4107C17.1137 17.8842 17.302 18.3381 17.6368 18.6728C17.9716 19.0076 18.4254 19.1959 18.8989 19.1964ZM18.8989 16.5179C19.0755 16.5179 19.2481 16.5702 19.3949 16.6683C19.5418 16.7665 19.6562 16.9059 19.7238 17.069C19.7914 17.2322 19.809 17.4117 19.7746 17.5849C19.7401 17.7581 19.6551 17.9172 19.5302 18.0421C19.4054 18.1669 19.2463 18.252 19.0731 18.2864C18.8999 18.3209 18.7203 18.3032 18.5572 18.2356C18.3941 18.168 18.2546 18.0536 18.1565 17.9068C18.0584 17.7599 18.006 17.5873 18.006 17.4107C18.0063 17.174 18.1004 16.947 18.2678 16.7796C18.4352 16.6122 18.6622 16.5181 18.8989 16.5179ZM81.5477 13.8393C81.3122 13.8393 81.0821 13.9091 80.8863 14.0399C80.6905 14.1707 80.5379 14.3567 80.4478 14.5742C80.3577 14.7917 80.3342 15.0311 80.3801 15.262C80.426 15.493 80.5394 15.7051 80.7059 15.8716C80.8724 16.0381 81.0845 16.1514 81.3154 16.1974C81.5464 16.2433 81.7857 16.2197 82.0033 16.1296C82.2208 16.0395 82.4067 15.8869 82.5375 15.6912C82.6683 15.4954 82.7382 15.2652 82.7382 15.0298C82.7378 14.7142 82.6123 14.4116 82.3891 14.1884C82.1659 13.9652 81.8633 13.8397 81.5477 13.8393ZM81.5477 15.625C81.43 15.625 81.3149 15.5901 81.217 15.5247C81.1191 15.4593 81.0428 15.3663 80.9978 15.2576C80.9527 15.1488 80.9409 15.0291 80.9639 14.9136C80.9869 14.7982 81.0435 14.6921 81.1268 14.6089C81.21 14.5256 81.3161 14.4689 81.4316 14.446C81.547 14.423 81.6667 14.4348 81.7755 14.4798C81.8842 14.5249 81.9772 14.6012 82.0426 14.6991C82.108 14.797 82.1429 14.912 82.1429 15.0298C82.1428 15.1876 82.08 15.3389 81.9684 15.4505C81.8568 15.5621 81.7055 15.6249 81.5477 15.625ZM5.65483 3.42263C5.41938 3.42263 5.18921 3.49245 4.99344 3.62326C4.79767 3.75407 4.64508 3.94 4.55498 4.15753C4.46487 4.37506 4.4413 4.61443 4.48723 4.84536C4.53317 5.07629 4.64655 5.28841 4.81304 5.4549C4.97953 5.62139 5.19165 5.73477 5.42258 5.78071C5.65351 5.82664 5.89288 5.80307 6.11041 5.71296C6.32794 5.62286 6.51387 5.47027 6.64468 5.2745C6.77549 5.07873 6.84531 4.84856 6.84531 4.61311C6.84495 4.29748 6.71941 3.99489 6.49623 3.77171C6.27305 3.54853 5.97046 3.42299 5.65483 3.42263ZM5.65483 5.20835C5.53711 5.20835 5.42202 5.17344 5.32414 5.10803C5.22625 5.04262 5.14996 4.94966 5.1049 4.8409C5.05985 4.73213 5.04806 4.61245 5.07103 4.49698C5.094 4.38152 5.15069 4.27546 5.23394 4.19221C5.31718 4.10897 5.42324 4.05227 5.53871 4.02931C5.65417 4.00634 5.77385 4.01813 5.88262 4.06318C5.99139 4.10823 6.08435 4.18452 6.14975 4.28241C6.21516 4.3803 6.25007 4.49538 6.25007 4.61311C6.24991 4.77093 6.18715 4.92224 6.07556 5.03383C5.96396 5.14543 5.81265 5.20819 5.65483 5.20835ZM97.6191 3.42263C97.3837 3.42263 97.1535 3.49245 96.9577 3.62326C96.7619 3.75407 96.6094 3.94 96.5193 4.15753C96.4292 4.37506 96.4056 4.61443 96.4515 4.84536C96.4975 5.07629 96.6108 5.28841 96.7773 5.4549C96.9438 5.62139 97.1559 5.73477 97.3869 5.78071C97.6178 5.82664 97.8572 5.80307 98.0747 5.71296C98.2922 5.62286 98.4781 5.47027 98.609 5.2745C98.7398 5.07873 98.8096 4.84856 98.8096 4.61311C98.8092 4.29748 98.6837 3.99489 98.4605 3.77171C98.2373 3.54853 97.9347 3.42299 97.6191 3.42263ZM97.6191 5.20835C97.5014 5.20835 97.3863 5.17344 97.2884 5.10803C97.1905 5.04262 97.1142 4.94966 97.0692 4.8409C97.0241 4.73213 97.0123 4.61245 97.0353 4.49698C97.0583 4.38152 97.115 4.27546 97.1982 4.19221C97.2815 4.10897 97.3875 4.05227 97.503 4.02931C97.6185 4.00634 97.7381 4.01813 97.8469 4.06318C97.9557 4.10823 98.0486 4.18452 98.114 4.28241C98.1794 4.3803 98.2144 4.49538 98.2144 4.61311C98.2142 4.77093 98.1514 4.92224 98.0398 5.03383C97.9282 5.14543 97.7769 5.20819 97.6191 5.20835ZM38.0953 4.01787C38.0953 3.78242 38.0255 3.55225 37.8947 3.35648C37.7639 3.1607 37.5779 3.00812 37.3604 2.91801C37.1429 2.82791 36.9035 2.80433 36.6726 2.85027C36.4417 2.8962 36.2295 3.00958 36.063 3.17608C35.8965 3.34257 35.7832 3.55469 35.7372 3.78562C35.6913 4.01655 35.7149 4.25591 35.805 4.47345C35.8951 4.69098 36.0477 4.8769 36.2434 5.00771C36.4392 5.13853 36.6694 5.20835 36.9048 5.20835C37.2205 5.20798 37.523 5.08244 37.7462 4.85926C37.9694 4.63609 38.0949 4.33349 38.0953 4.01787ZM36.3096 4.01787C36.3096 3.90014 36.3445 3.78506 36.4099 3.68717C36.4753 3.58929 36.5683 3.51299 36.677 3.46794C36.7858 3.42289 36.9055 3.4111 37.021 3.43407C37.1364 3.45704 37.2425 3.51373 37.3257 3.59697C37.409 3.68022 37.4657 3.78628 37.4886 3.90174C37.5116 4.01721 37.4998 4.13689 37.4548 4.24566C37.4097 4.35442 37.3334 4.44739 37.2355 4.51279C37.1376 4.5782 37.0226 4.61311 36.9048 4.61311C36.747 4.61295 36.5957 4.55019 36.4841 4.43859C36.3725 4.327 36.3098 4.17569 36.3096 4.01787Z" fill="black"/>
<path d="M6.48116 41.822L7.36628 40.6583L6.80735 40.3417L6.2389 41.6452H6.22045L5.64307 40.3506L5.07461 40.6768L5.95021 41.8131V41.8316L4.58057 41.6548V42.2881L5.95914 42.1113V42.1298L5.07461 43.2655L5.60497 43.6012L6.21092 42.2881H6.22938L6.7883 43.5917L7.37521 43.2566L6.48116 42.1387V42.1202L7.88711 42.2881V41.6548L6.48116 41.8405V41.822Z" fill="black"/>
<path d="M75.1988 39.3393L74.6893 39.9934L74.9947 40.1863L75.3435 39.4303H75.3542L75.6762 40.1809L76.0143 39.9881L75.4994 39.344V39.3333L76.309 39.4303V39.0655L75.4994 39.1726V39.1619L76.009 38.4917L75.6869 38.3095L75.3595 39.0601H75.3488L75.0167 38.3143L74.6893 38.5024L75.1935 39.1565V39.1672L74.4048 39.0655V39.4303L75.1988 39.3286V39.3393Z" fill="black"/>
<path d="M99.2404 39.5583V38.9369L97.8612 39.1197V39.1018L98.7297 37.9595L98.1815 37.6494L97.6243 38.928H97.6053L97.0398 37.6583L96.4815 37.978L97.341 39.0929V39.1107L95.9976 38.9369V39.5583L97.3499 39.3851V39.403L96.4815 40.5173L97.0023 40.8464L97.597 39.5583H97.6142L98.1624 40.8375L98.7386 40.5083L97.8612 39.4119V39.3941L99.2404 39.5583Z" fill="black"/>
<path d="M70.8919 6.57024L71.6407 5.58512L71.1675 5.31726L70.6872 6.42024H70.6711L70.183 5.325L69.7014 5.60119L70.4425 6.5625V6.57798L69.2842 6.42857V6.96428L70.4503 6.81488V6.83036L69.7014 7.79167L70.1508 8.07559L70.6633 6.96428H70.6788L71.1514 8.06726L71.6485 7.78393L70.8919 6.83809V6.82262L72.0812 6.96428V6.42857L70.8919 6.58571V6.57024Z" fill="black"/>
</svg>
