<svg width="60" height="60" viewBox="0 0 100 100" fill="none" xmlns="http://www.w3.org/2000/svg">
<path d="M47.2054 10.7143C47.5585 10.7143 47.9038 10.6096 48.1974 10.4134C48.4911 10.2171 48.72 9.93826 48.8551 9.61196C48.9903 9.28567 49.0257 8.92662 48.9568 8.58022C48.8879 8.23383 48.7178 7.91564 48.468 7.66591C48.2183 7.41617 47.9001 7.2461 47.5537 7.1772C47.2073 7.10829 46.8483 7.14366 46.522 7.27881C46.1957 7.41397 45.9168 7.64285 45.7206 7.93651C45.5244 8.23017 45.4196 8.57542 45.4196 8.9286C45.4202 9.40203 45.6085 9.85592 45.9433 10.1907C46.278 10.5255 46.7319 10.7138 47.2054 10.7143ZM47.2054 8.03574C47.3819 8.03574 47.5546 8.08811 47.7014 8.18621C47.8482 8.28432 47.9627 8.42377 48.0303 8.58692C48.0978 8.75007 48.1155 8.92959 48.0811 9.10279C48.0466 9.27598 47.9616 9.43508 47.8367 9.55994C47.7118 9.68481 47.5527 9.76985 47.3795 9.8043C47.2063 9.83875 47.0268 9.82107 46.8637 9.75349C46.7005 9.68591 46.5611 9.57147 46.463 9.42464C46.3649 9.27781 46.3125 9.10519 46.3125 8.9286C46.3127 8.69187 46.4069 8.4649 46.5743 8.29751C46.7417 8.13012 46.9686 8.03597 47.2054 8.03574ZM94.2292 48.8096C93.9937 48.8096 93.7635 48.8794 93.5678 49.0102C93.372 49.141 93.2194 49.3269 93.1293 49.5445C93.0392 49.762 93.0156 50.0013 93.0616 50.2323C93.1075 50.4632 93.2209 50.6753 93.3874 50.8418C93.5539 51.0083 93.766 51.1217 93.9969 51.1676C94.2279 51.2136 94.4672 51.19 94.6848 51.0999C94.9023 51.0098 95.0882 50.8572 95.219 50.6614C95.3498 50.4656 95.4196 50.2355 95.4196 50C95.4193 49.6844 95.2937 49.3818 95.0706 49.1586C94.8474 48.9355 94.5448 48.8099 94.2292 48.8096ZM94.2292 50.5953C94.1114 50.5953 93.9964 50.5604 93.8985 50.4949C93.8006 50.4295 93.7243 50.3366 93.6792 50.2278C93.6342 50.119 93.6224 49.9994 93.6454 49.8839C93.6683 49.7684 93.725 49.6624 93.8083 49.5791C93.8915 49.4959 93.9976 49.4392 94.113 49.4162C94.2285 49.3933 94.3482 49.405 94.457 49.4501C94.5657 49.4951 94.6587 49.5714 94.7241 49.6693C94.7895 49.7672 94.8244 49.8823 94.8244 50C94.8242 50.1578 94.7615 50.3092 94.6499 50.4207C94.5383 50.5323 94.387 50.5951 94.2292 50.5953ZM58.5149 31.5476C58.2794 31.5476 58.0493 31.6175 57.8535 31.7483C57.6577 31.8791 57.5051 32.065 57.415 32.2825C57.3249 32.5001 57.3013 32.7394 57.3473 32.9704C57.3932 33.2013 57.5066 33.4134 57.6731 33.5799C57.8396 33.7464 58.0517 33.8598 58.2826 33.9057C58.5136 33.9517 58.7529 33.9281 58.9705 33.838C59.188 33.7479 59.3739 33.5953 59.5047 33.3995C59.6355 33.2037 59.7054 32.9736 59.7054 32.7381C59.705 32.4225 59.5795 32.1199 59.3563 31.8967C59.1331 31.6735 58.8305 31.548 58.5149 31.5476ZM58.5149 33.3334C58.3972 33.3334 58.2821 33.2985 58.1842 33.233C58.0863 33.1676 58.01 33.0747 57.965 32.9659C57.9199 32.8571 57.9081 32.7375 57.9311 32.622C57.954 32.5065 58.0107 32.4005 58.094 32.3172C58.1772 32.234 58.2833 32.1773 58.3988 32.1543C58.5142 32.1314 58.6339 32.1431 58.7427 32.1882C58.8514 32.2332 58.9444 32.3095 59.0098 32.4074C59.0752 32.5053 59.1101 32.6204 59.1101 32.7381C59.11 32.8959 59.0472 33.0472 58.9356 33.1588C58.824 33.2704 58.6727 33.3332 58.5149 33.3334ZM74.5863 19.0476C74.3509 19.0476 74.1207 19.1175 73.9249 19.2483C73.7291 19.3791 73.5766 19.565 73.4865 19.7825C73.3963 20.0001 73.3728 20.2394 73.4187 20.4704C73.4646 20.7013 73.578 20.9134 73.7445 21.0799C73.911 21.2464 74.1231 21.3598 74.3541 21.4057C74.585 21.4517 74.8244 21.4281 75.0419 21.338C75.2594 21.2479 75.4453 21.0953 75.5762 20.8995C75.707 20.7037 75.7768 20.4736 75.7768 20.2381C75.7764 19.9225 75.6509 19.6199 75.4277 19.3967C75.2045 19.1735 74.9019 19.048 74.5863 19.0476ZM74.5863 20.8334C74.4686 20.8334 74.3535 20.7985 74.2556 20.733C74.1577 20.6676 74.0814 20.5747 74.0364 20.4659C73.9913 20.3571 73.9795 20.2375 74.0025 20.122C74.0255 20.0065 74.0822 19.9005 74.1654 19.8172C74.2487 19.734 74.3547 19.6773 74.4702 19.6543C74.5856 19.6314 74.7053 19.6431 74.8141 19.6882C74.9229 19.7332 75.0158 19.8095 75.0812 19.9074C75.1466 20.0053 75.1815 20.1204 75.1815 20.2381C75.1814 20.3959 75.1186 20.5472 75.007 20.6588C74.8954 20.7704 74.7441 20.8332 74.5863 20.8334ZM4.94345 35.7143C4.94345 35.4789 4.87363 35.2487 4.74282 35.0529C4.61201 34.8571 4.42608 34.7046 4.20855 34.6145C3.99102 34.5244 3.75166 34.5008 3.52073 34.5467C3.2898 34.5926 3.07767 34.706 2.91118 34.8725C2.74469 35.039 2.63131 35.2511 2.58538 35.4821C2.53944 35.713 2.56302 35.9524 2.65312 36.1699C2.74322 36.3874 2.89581 36.5733 3.09158 36.7042C3.28736 36.835 3.51752 36.9048 3.75298 36.9048C4.0686 36.9044 4.37119 36.7789 4.59437 36.5557C4.81755 36.3325 4.94309 36.0299 4.94345 35.7143ZM3.15774 35.7143C3.15774 35.5966 3.19265 35.4815 3.25805 35.3836C3.32346 35.2857 3.41642 35.2094 3.52519 35.1644C3.63395 35.1193 3.75364 35.1075 3.8691 35.1305C3.98457 35.1535 4.09063 35.2102 4.17387 35.2934C4.25712 35.3767 4.31381 35.4827 4.33678 35.5982C4.35974 35.7137 4.34796 35.8333 4.3029 35.9421C4.25785 36.0509 4.18156 36.1438 4.08367 36.2092C3.98579 36.2746 3.8707 36.3095 3.75298 36.3095C3.59516 36.3094 3.44385 36.2466 3.33225 36.135C3.22066 36.0234 3.1579 35.8721 3.15774 35.7143Z" fill="black"/>
<path d="M14.8142 9.53034L15.6993 8.36665L15.1404 8.04999L14.5719 9.35356H14.5535L13.9761 8.05892L13.4076 8.38511L14.2832 9.52142V9.53987L12.9136 9.36308V9.99642L14.2921 9.81963V9.83808L13.4076 10.9738L13.938 11.3095L14.5439 9.99642H14.5624L15.1213 11.3L15.7082 10.9649L14.8142 9.84701V9.82856L16.2201 9.99642V9.36308L14.8142 9.5488V9.53034Z" fill="black"/>
<path d="M31.0006 28.0161L30.4911 28.6703L30.797 28.8631L31.1458 28.1072H31.1559L31.478 28.8578L31.8161 28.6649L31.3012 28.0209V28.0101L32.1107 28.1072V27.7423L31.3012 27.8494V27.8387L31.8107 27.1685L31.4893 26.9863L31.1619 27.7369H31.1512L30.8184 26.9911L30.4911 27.1792L30.9952 27.8333V27.8441L30.2065 27.7423V28.1072L31.0006 28.0054V28.0161Z" fill="black"/>
<path d="M96.0149 13.5196V12.8988L94.6358 13.0816V13.0631L95.5036 11.9214L94.9554 11.6107L94.3983 12.8893H94.3798L93.8137 11.6196L93.256 11.9399L94.1149 13.0542V13.0726L92.7715 12.8988V13.5196L94.1239 13.3464V13.3649L93.256 14.4792L93.7768 14.8083L94.3709 13.5196H94.3887L94.937 14.7988L95.5126 14.4702L94.6358 13.3738V13.3554L96.0149 13.5196Z" fill="black"/>
<path d="M87.3499 33.0869L88.0987 32.1018L87.6255 31.8339L87.1452 32.9369H87.1291L86.641 31.8417L86.1595 32.1179L86.9005 33.0792V33.0946L85.7422 32.9452V33.4809L86.9083 33.3309V33.347L86.1595 34.3083L86.6089 34.5923L87.1214 33.4809H87.1368L87.61 34.5839L88.1065 34.3006L87.3499 33.3548V33.3387L88.5392 33.4809V32.9452L87.3499 33.1024V33.0869Z" fill="black"/>
<path d="M1.19048 84.5238C1.84796 84.5238 2.38095 83.9908 2.38095 83.3334C2.38095 82.6759 1.84796 82.1429 1.19048 82.1429C0.532994 82.1429 0 82.6759 0 83.3334C0 83.9908 0.532994 84.5238 1.19048 84.5238Z" fill="black"/>
<path d="M6.54748 82.1429H4.76177C4.44603 82.1429 4.14323 82.2683 3.91997 82.4916C3.69671 82.7148 3.57129 83.0176 3.57129 83.3334C3.57129 83.6491 3.69671 83.9519 3.91997 84.1752C4.14323 84.3984 4.44603 84.5238 4.76177 84.5238H6.54748C6.86321 84.5238 7.16602 84.3984 7.38927 84.1752C7.61253 83.9519 7.73796 83.6491 7.73796 83.3334C7.73796 83.0176 7.61253 82.7148 7.38927 82.4916C7.16602 82.2683 6.86321 82.1429 6.54748 82.1429ZM95.238 82.1429H93.4522C93.1365 82.1429 92.8337 82.2683 92.6104 82.4916C92.3872 82.7148 92.2618 83.0176 92.2618 83.3334C92.2618 83.6491 92.3872 83.9519 92.6104 84.1752C92.8337 84.3984 93.1365 84.5238 93.4522 84.5238H95.238C95.5537 84.5238 95.8565 84.3984 96.0798 84.1752C96.303 83.9519 96.4284 83.6491 96.4284 83.3334C96.4284 83.0176 96.303 82.7148 96.0798 82.4916C95.8565 82.2683 95.5537 82.1429 95.238 82.1429Z" fill="black"/>
<path d="M98.8096 84.5238C99.4671 84.5238 100 83.9908 100 83.3334C100 82.6759 99.4671 82.1429 98.8096 82.1429C98.1521 82.1429 97.6191 82.6759 97.6191 83.3334C97.6191 83.9908 98.1521 84.5238 98.8096 84.5238Z" fill="black"/>
<path d="M70.3296 86.9048H65.3845C65.0852 86.9288 64.8059 87.0646 64.6023 87.2852C64.3987 87.5058 64.2856 87.795 64.2856 88.0953C64.2856 88.3955 64.3987 88.6847 64.6023 88.9053C64.8059 89.1259 65.0852 89.2618 65.3845 89.2857H70.3296C70.6288 89.2618 70.9081 89.1259 71.1117 88.9053C71.3154 88.6847 71.4285 88.3955 71.4285 88.0953C71.4285 87.795 71.3154 87.5058 71.1117 87.2852C70.9081 87.0646 70.6288 86.9288 70.3296 86.9048ZM34.6153 86.9048H29.6702C29.3709 86.9288 29.0917 87.0646 28.888 87.2852C28.6844 87.5058 28.5713 87.795 28.5713 88.0953C28.5713 88.3955 28.6844 88.6847 28.888 88.9053C29.0917 89.1259 29.3709 89.2618 29.6702 89.2857H34.6153C34.9145 89.2618 35.1938 89.1259 35.3975 88.9053C35.6011 88.6847 35.7142 88.3955 35.7142 88.0953C35.7142 87.795 35.6011 87.5058 35.3975 87.2852C35.1938 87.0646 34.9145 86.9288 34.6153 86.9048ZM61.9046 86.9048H38.0951C37.7794 86.9048 37.4766 87.0302 37.2533 87.2535C37.0301 87.4767 36.9046 87.7795 36.9046 88.0953C36.9046 88.411 37.0301 88.7138 37.2533 88.9371C37.4766 89.1603 37.7794 89.2857 38.0951 89.2857H47.5832V90.4762H42.857C42.5413 90.4762 42.2385 90.6016 42.0152 90.8249C41.792 91.0482 41.6665 91.351 41.6665 91.6667C41.6665 91.9824 41.792 92.2852 42.0152 92.5085C42.2385 92.7317 42.5413 92.8572 42.857 92.8572H57.738C58.0537 92.8572 58.3565 92.7317 58.5798 92.5085C58.803 92.2852 58.9284 91.9824 58.9284 91.6667C58.9284 91.351 58.803 91.0482 58.5798 90.8249C58.3565 90.6016 58.0537 90.4762 57.738 90.4762H52.4165V89.2857H61.9046C62.2204 89.2857 62.5232 89.1603 62.7464 88.9371C62.9697 88.7138 63.0951 88.411 63.0951 88.0953C63.0951 87.7795 62.9697 87.4767 62.7464 87.2535C62.5232 87.0302 62.2204 86.9048 61.9046 86.9048Z" fill="black"/>
<path d="M1.19048 84.5238C1.84796 84.5238 2.38095 83.9908 2.38095 83.3334C2.38095 82.6759 1.84796 82.1429 1.19048 82.1429C0.532994 82.1429 0 82.6759 0 83.3334C0 83.9908 0.532994 84.5238 1.19048 84.5238Z" fill="black"/>
<path d="M6.54748 82.1429H4.76177C4.44603 82.1429 4.14323 82.2683 3.91997 82.4916C3.69671 82.7148 3.57129 83.0176 3.57129 83.3334C3.57129 83.6491 3.69671 83.9519 3.91997 84.1752C4.14323 84.3984 4.44603 84.5238 4.76177 84.5238H6.54748C6.86321 84.5238 7.16602 84.3984 7.38927 84.1752C7.61253 83.9519 7.73796 83.6491 7.73796 83.3334C7.73796 83.0176 7.61253 82.7148 7.38927 82.4916C7.16602 82.2683 6.86321 82.1429 6.54748 82.1429ZM95.238 82.1429H93.4522C93.1365 82.1429 92.8337 82.2683 92.6104 82.4916C92.3872 82.7148 92.2618 83.0176 92.2618 83.3334C92.2618 83.6491 92.3872 83.9519 92.6104 84.1752C92.8337 84.3984 93.1365 84.5238 93.4522 84.5238H95.238C95.5537 84.5238 95.8565 84.3984 96.0798 84.1752C96.303 83.9519 96.4284 83.6491 96.4284 83.3334C96.4284 83.0176 96.303 82.7148 96.0798 82.4916C95.8565 82.2683 95.5537 82.1429 95.238 82.1429Z" fill="black"/>
<path d="M98.8096 84.5238C99.4671 84.5238 100 83.9908 100 83.3334C100 82.6759 99.4671 82.1429 98.8096 82.1429C98.1521 82.1429 97.6191 82.6759 97.6191 83.3334C97.6191 83.9908 98.1521 84.5238 98.8096 84.5238Z" fill="black"/>
<path d="M70.3296 86.9048H65.3845C65.0852 86.9288 64.8059 87.0646 64.6023 87.2852C64.3987 87.5058 64.2856 87.795 64.2856 88.0953C64.2856 88.3955 64.3987 88.6847 64.6023 88.9053C64.8059 89.1259 65.0852 89.2618 65.3845 89.2857H70.3296C70.6288 89.2618 70.9081 89.1259 71.1117 88.9053C71.3154 88.6847 71.4285 88.3955 71.4285 88.0953C71.4285 87.795 71.3154 87.5058 71.1117 87.2852C70.9081 87.0646 70.6288 86.9288 70.3296 86.9048ZM34.6153 86.9048H29.6702C29.3709 86.9288 29.0917 87.0646 28.888 87.2852C28.6844 87.5058 28.5713 87.795 28.5713 88.0953C28.5713 88.3955 28.6844 88.6847 28.888 88.9053C29.0917 89.1259 29.3709 89.2618 29.6702 89.2857H34.6153C34.9145 89.2618 35.1938 89.1259 35.3975 88.9053C35.6011 88.6847 35.7142 88.3955 35.7142 88.0953C35.7142 87.795 35.6011 87.5058 35.3975 87.2852C35.1938 87.0646 34.9145 86.9288 34.6153 86.9048ZM61.9046 86.9048H38.0951C37.7794 86.9048 37.4766 87.0302 37.2533 87.2535C37.0301 87.4767 36.9046 87.7795 36.9046 88.0953C36.9046 88.411 37.0301 88.7138 37.2533 88.9371C37.4766 89.1603 37.7794 89.2857 38.0951 89.2857H47.5832V90.4762H42.857C42.5413 90.4762 42.2385 90.6016 42.0152 90.8249C41.792 91.0482 41.6665 91.351 41.6665 91.6667C41.6665 91.9824 41.792 92.2852 42.0152 92.5085C42.2385 92.7317 42.5413 92.8572 42.857 92.8572H57.738C58.0537 92.8572 58.3565 92.7317 58.5798 92.5085C58.803 92.2852 58.9284 91.9824 58.9284 91.6667C58.9284 91.351 58.803 91.0482 58.5798 90.8249C58.3565 90.6016 58.0537 90.4762 57.738 90.4762H52.4165V89.2857H61.9046C62.2204 89.2857 62.5232 89.1603 62.7464 88.9371C62.9697 88.7138 63.0951 88.411 63.0951 88.0953C63.0951 87.7795 62.9697 87.4767 62.7464 87.2535C62.5232 87.0302 62.2204 86.9048 61.9046 86.9048Z" fill="black"/>
<path d="M1.19048 84.5238C1.84796 84.5238 2.38095 83.9908 2.38095 83.3334C2.38095 82.6759 1.84796 82.1429 1.19048 82.1429C0.532994 82.1429 0 82.6759 0 83.3334C0 83.9908 0.532994 84.5238 1.19048 84.5238Z" fill="black"/>
<path d="M6.54748 82.1429H4.76177C4.44603 82.1429 4.14323 82.2683 3.91997 82.4916C3.69671 82.7148 3.57129 83.0176 3.57129 83.3334C3.57129 83.6491 3.69671 83.9519 3.91997 84.1752C4.14323 84.3984 4.44603 84.5238 4.76177 84.5238H6.54748C6.86321 84.5238 7.16602 84.3984 7.38927 84.1752C7.61253 83.9519 7.73796 83.6491 7.73796 83.3334C7.73796 83.0176 7.61253 82.7148 7.38927 82.4916C7.16602 82.2683 6.86321 82.1429 6.54748 82.1429ZM95.238 82.1429H93.4522C93.1365 82.1429 92.8337 82.2683 92.6104 82.4916C92.3872 82.7148 92.2618 83.0176 92.2618 83.3334C92.2618 83.6491 92.3872 83.9519 92.6104 84.1752C92.8337 84.3984 93.1365 84.5238 93.4522 84.5238H95.238C95.5537 84.5238 95.8565 84.3984 96.0798 84.1752C96.303 83.9519 96.4284 83.6491 96.4284 83.3334C96.4284 83.0176 96.303 82.7148 96.0798 82.4916C95.8565 82.2683 95.5537 82.1429 95.238 82.1429Z" fill="black"/>
<path d="M98.8096 84.5238C99.4671 84.5238 100 83.9908 100 83.3334C100 82.6759 99.4671 82.1429 98.8096 82.1429C98.1521 82.1429 97.6191 82.6759 97.6191 83.3334C97.6191 83.9908 98.1521 84.5238 98.8096 84.5238Z" fill="black"/>
<path d="M70.3296 86.9048H65.3845C65.0852 86.9288 64.8059 87.0646 64.6023 87.2852C64.3987 87.5058 64.2856 87.795 64.2856 88.0953C64.2856 88.3955 64.3987 88.6847 64.6023 88.9053C64.8059 89.1259 65.0852 89.2618 65.3845 89.2857H70.3296C70.6288 89.2618 70.9081 89.1259 71.1117 88.9053C71.3154 88.6847 71.4285 88.3955 71.4285 88.0953C71.4285 87.795 71.3154 87.5058 71.1117 87.2852C70.9081 87.0646 70.6288 86.9288 70.3296 86.9048ZM34.6153 86.9048H29.6702C29.3709 86.9288 29.0917 87.0646 28.888 87.2852C28.6844 87.5058 28.5713 87.795 28.5713 88.0953C28.5713 88.3955 28.6844 88.6847 28.888 88.9053C29.0917 89.1259 29.3709 89.2618 29.6702 89.2857H34.6153C34.9145 89.2618 35.1938 89.1259 35.3975 88.9053C35.6011 88.6847 35.7142 88.3955 35.7142 88.0953C35.7142 87.795 35.6011 87.5058 35.3975 87.2852C35.1938 87.0646 34.9145 86.9288 34.6153 86.9048ZM61.9046 86.9048H38.0951C37.7794 86.9048 37.4766 87.0302 37.2533 87.2535C37.0301 87.4767 36.9046 87.7795 36.9046 88.0953C36.9046 88.411 37.0301 88.7138 37.2533 88.9371C37.4766 89.1603 37.7794 89.2857 38.0951 89.2857H47.5832V90.4762H42.857C42.5413 90.4762 42.2385 90.6016 42.0152 90.8249C41.792 91.0482 41.6665 91.351 41.6665 91.6667C41.6665 91.9824 41.792 92.2852 42.0152 92.5085C42.2385 92.7317 42.5413 92.8572 42.857 92.8572H57.738C58.0537 92.8572 58.3565 92.7317 58.5798 92.5085C58.803 92.2852 58.9284 91.9824 58.9284 91.6667C58.9284 91.351 58.803 91.0482 58.5798 90.8249C58.3565 90.6016 58.0537 90.4762 57.738 90.4762H52.4165V89.2857H61.9046C62.2204 89.2857 62.5232 89.1603 62.7464 88.9371C62.9697 88.7138 63.0951 88.411 63.0951 88.0953C63.0951 87.7795 62.9697 87.4767 62.7464 87.2535C62.5232 87.0302 62.2204 86.9048 61.9046 86.9048Z" fill="black"/>
<path d="M1.19048 84.5238C1.84796 84.5238 2.38095 83.9908 2.38095 83.3334C2.38095 82.6759 1.84796 82.1429 1.19048 82.1429C0.532994 82.1429 0 82.6759 0 83.3334C0 83.9908 0.532994 84.5238 1.19048 84.5238Z" fill="black"/>
<path d="M6.54748 82.1429H4.76177C4.44603 82.1429 4.14323 82.2683 3.91997 82.4916C3.69671 82.7148 3.57129 83.0176 3.57129 83.3334C3.57129 83.6491 3.69671 83.9519 3.91997 84.1752C4.14323 84.3984 4.44603 84.5238 4.76177 84.5238H6.54748C6.86321 84.5238 7.16602 84.3984 7.38927 84.1752C7.61253 83.9519 7.73796 83.6491 7.73796 83.3334C7.73796 83.0176 7.61253 82.7148 7.38927 82.4916C7.16602 82.2683 6.86321 82.1429 6.54748 82.1429ZM95.238 82.1429H93.4522C93.1365 82.1429 92.8337 82.2683 92.6104 82.4916C92.3872 82.7148 92.2618 83.0176 92.2618 83.3334C92.2618 83.6491 92.3872 83.9519 92.6104 84.1752C92.8337 84.3984 93.1365 84.5238 93.4522 84.5238H95.238C95.5537 84.5238 95.8565 84.3984 96.0798 84.1752C96.303 83.9519 96.4284 83.6491 96.4284 83.3334C96.4284 83.0176 96.303 82.7148 96.0798 82.4916C95.8565 82.2683 95.5537 82.1429 95.238 82.1429Z" fill="black"/>
<path d="M98.8096 84.5238C99.4671 84.5238 100 83.9908 100 83.3334C100 82.6759 99.4671 82.1429 98.8096 82.1429C98.1521 82.1429 97.6191 82.6759 97.6191 83.3334C97.6191 83.9908 98.1521 84.5238 98.8096 84.5238Z" fill="black"/>
<path d="M70.3296 86.9048H65.3845C65.0852 86.9287 64.8059 87.0645 64.6023 87.2852C64.3987 87.5058 64.2856 87.795 64.2856 88.0952C64.2856 88.3955 64.3987 88.6847 64.6023 88.9053C64.8059 89.1259 65.0852 89.2617 65.3845 89.2857H70.3296C70.6288 89.2617 70.9081 89.1259 71.1117 88.9053C71.3154 88.6847 71.4285 88.3955 71.4285 88.0952C71.4285 87.795 71.3154 87.5058 71.1117 87.2852C70.9081 87.0645 70.6288 86.9287 70.3296 86.9048ZM34.6153 86.9048H29.6702C29.3709 86.9287 29.0917 87.0645 28.888 87.2852C28.6844 87.5058 28.5713 87.795 28.5713 88.0952C28.5713 88.3955 28.6844 88.6847 28.888 88.9053C29.0917 89.1259 29.3709 89.2617 29.6702 89.2857H34.6153C34.9145 89.2617 35.1938 89.1259 35.3975 88.9053C35.6011 88.6847 35.7142 88.3955 35.7142 88.0952C35.7142 87.795 35.6011 87.5058 35.3975 87.2852C35.1938 87.0645 34.9145 86.9287 34.6153 86.9048ZM61.9046 86.9048H38.0951C37.7794 86.9048 37.4766 87.0302 37.2533 87.2534C37.0301 87.4767 36.9046 87.7795 36.9046 88.0952C36.9046 88.411 37.0301 88.7138 37.2533 88.937C37.4766 89.1603 37.7794 89.2857 38.0951 89.2857H47.5832V90.4762H42.857C42.5413 90.4762 42.2385 90.6016 42.0152 90.8249C41.792 91.0481 41.6665 91.3509 41.6665 91.6667C41.6665 91.9824 41.792 92.2852 42.0152 92.5084C42.2385 92.7317 42.5413 92.8571 42.857 92.8571H57.738C58.0537 92.8571 58.3565 92.7317 58.5798 92.5084C58.803 92.2852 58.9284 91.9824 58.9284 91.6667C58.9284 91.3509 58.803 91.0481 58.5798 90.8249C58.3565 90.6016 58.0537 90.4762 57.738 90.4762H52.4165V89.2857H61.9046C62.2204 89.2857 62.5232 89.1603 62.7464 88.937C62.9697 88.7138 63.0951 88.411 63.0951 88.0952C63.0951 87.7795 62.9697 87.4767 62.7464 87.2534C62.5232 87.0302 62.2204 86.9048 61.9046 86.9048ZM29.7132 58.7395L38.0466 64.0968C38.3122 64.2675 38.6348 64.3257 38.9433 64.2587C39.2519 64.1916 39.5212 64.0046 39.6919 63.739C39.8627 63.4734 39.9209 63.1508 39.8538 62.8422C39.7867 62.5337 39.5998 62.2644 39.3341 62.0937L32.5586 57.7379L39.3341 53.3823C39.5993 53.2113 39.7857 52.9421 39.8525 52.6338C39.9193 52.3255 39.8611 52.0032 39.6905 51.7379C39.5199 51.4725 39.251 51.2856 38.9428 51.2184C38.6345 51.1511 38.3122 51.2089 38.0466 51.3791L29.7132 56.7364C29.5456 56.8442 29.4076 56.9924 29.3121 57.1674C29.2166 57.3424 29.1665 57.5386 29.1665 57.7379C29.1665 57.9373 29.2166 58.1335 29.3121 58.3085C29.4076 58.4835 29.5456 58.6317 29.7132 58.7395H29.7132ZM50.7843 63.7386C50.8688 63.8701 50.9784 63.9837 51.1068 64.0729C51.2352 64.1621 51.3799 64.2251 51.5327 64.2583C51.6854 64.2916 51.8432 64.2944 51.9971 64.2667C52.151 64.2389 52.2978 64.1812 52.4294 64.0966L60.7627 58.7395C60.9304 58.6317 61.0683 58.4835 61.1638 58.3085C61.2593 58.1335 61.3094 57.9373 61.3094 57.7379C61.3094 57.5386 61.2593 57.3424 61.1638 57.1674C61.0683 56.9924 60.9304 56.8442 60.7627 56.7364L52.4294 51.3792C52.1637 51.2085 51.8412 51.1503 51.5326 51.2174C51.224 51.2845 50.9548 51.4714 50.784 51.737C50.6133 52.0027 50.5551 52.3252 50.6222 52.6338C50.6893 52.9423 50.8762 53.2116 51.1418 53.3824L57.9173 57.7379L51.1418 62.0935C51.0103 62.178 50.8967 62.2876 50.8076 62.4161C50.7184 62.5445 50.6555 62.6892 50.6223 62.842C50.5891 62.9948 50.5863 63.1526 50.6141 63.3064C50.6419 63.4602 50.6998 63.6071 50.7843 63.7386ZM46.5002 50.7839L41.7386 63.8783C41.685 64.0252 41.6608 64.1813 41.6676 64.3376C41.6743 64.4938 41.7118 64.6473 41.7778 64.789C41.8439 64.9308 41.9372 65.0582 42.0526 65.1639C42.1679 65.2695 42.3029 65.3515 42.4499 65.4049C42.5969 65.4584 42.753 65.4824 42.9092 65.4755C43.0655 65.4686 43.2189 65.4309 43.3606 65.3647C43.5023 65.2985 43.6296 65.205 43.7351 65.0896C43.8407 64.9742 43.9225 64.8391 43.9758 64.692L48.7374 51.5977C48.7909 51.4507 48.815 51.2947 48.8083 51.1384C48.8015 50.9822 48.764 50.8288 48.698 50.6871C48.6319 50.5453 48.5385 50.418 48.4232 50.3123C48.3079 50.2067 48.1729 50.1248 48.026 50.0713C47.879 50.0179 47.7229 49.9939 47.5667 50.0008C47.4105 50.0076 47.2571 50.0452 47.1154 50.1114C46.9737 50.1776 46.8464 50.271 46.7409 50.3864C46.6353 50.5018 46.5535 50.6368 46.5002 50.7839H46.5002ZM75.3967 49.4046C74.7402 49.4055 74.1032 49.6279 73.5888 50.0359C73.0745 50.4439 72.7129 51.0135 72.5626 51.6526C72.3483 51.7332 72.1368 51.8209 71.9281 51.9155C71.37 51.5693 70.7112 51.4218 70.0587 51.4971C69.4062 51.5724 68.7983 51.866 68.3337 52.3302L67.2112 53.4527C66.7469 53.9173 66.4533 54.5253 66.3781 55.1778C66.3028 55.8303 66.4502 56.4891 66.7965 57.0472C66.7019 57.2558 66.6142 57.4673 66.5335 57.6817C65.8944 57.832 65.3248 58.1936 64.9168 58.7079C64.5089 59.2223 64.2864 59.8593 64.2856 60.5158V62.103C64.2864 62.7596 64.5089 63.3966 64.9168 63.9109C65.3248 64.4253 65.8944 64.7869 66.5335 64.9372C66.6142 65.1514 66.7018 65.3629 66.7965 65.5716C66.4503 66.1297 66.3028 66.7885 66.3781 67.441C66.4534 68.0935 66.7469 68.7014 67.2112 69.166L68.3336 70.2885C68.7983 70.7528 69.4062 71.0463 70.0587 71.1216C70.7112 71.1969 71.37 71.0495 71.9282 70.7033C72.1367 70.7979 72.3482 70.8855 72.5626 70.9663C72.7129 71.6054 73.0745 72.175 73.5889 72.5829C74.1032 72.9909 74.7402 73.2133 75.3967 73.2141H76.984C77.6405 73.2133 78.2775 72.9909 78.7919 72.5829C79.3062 72.175 79.6678 71.6053 79.8181 70.9663C80.0324 70.8856 80.2439 70.798 80.4525 70.7033C81.0107 71.0495 81.6695 71.1969 82.322 71.1216C82.9744 71.0464 83.5823 70.7528 84.047 70.2887L85.1695 69.1662C85.6338 68.7015 85.9274 68.0936 86.0027 67.4411C86.0779 66.7886 85.9305 66.1298 85.5842 65.5716C85.6788 65.3631 85.7665 65.1517 85.8472 64.9372C86.4863 64.7869 87.0559 64.4253 87.4639 63.9109C87.8719 63.3966 88.0943 62.7596 88.0951 62.103V60.5158C88.0943 59.8593 87.8719 59.2223 87.4639 58.7079C87.0559 58.1936 86.4863 57.832 85.8472 57.6817C85.7666 57.4675 85.6789 57.256 85.5842 57.0472C85.9305 56.489 86.0779 55.8302 86.0026 55.1777C85.9274 54.5251 85.6337 53.9172 85.1694 53.4525L84.0471 52.3302C83.5824 51.866 82.9745 51.5724 82.322 51.4971C81.6695 51.4218 81.0107 51.5693 80.4526 51.9155C80.244 51.8209 80.0325 51.7332 79.8181 51.6526C79.6678 51.0135 79.3062 50.4439 78.7919 50.0359C78.2775 49.6279 77.6405 49.4055 76.984 49.4046L75.3967 49.4046ZM77.5131 52.3147V53.4847C78.6933 53.6829 79.8129 54.147 80.7873 54.8418L81.6153 54.0138C81.6644 53.9647 81.7227 53.9257 81.7869 53.8991C81.8511 53.8725 81.9199 53.8589 81.9894 53.8589C82.0589 53.8589 82.1277 53.8725 82.1919 53.8991C82.2561 53.9257 82.3144 53.9647 82.3635 54.0138L83.4859 55.1362C83.535 55.1854 83.574 55.2437 83.6006 55.3079C83.6272 55.3721 83.6409 55.4409 83.6409 55.5104C83.6409 55.5798 83.6272 55.6486 83.6006 55.7128C83.574 55.777 83.535 55.8354 83.4859 55.8845L82.658 56.7124C83.3527 57.6868 83.8168 58.8064 84.0151 59.9866H85.1851C85.2546 59.9866 85.3234 60.0003 85.3876 60.0269C85.4518 60.0535 85.5101 60.0925 85.5592 60.1416C85.6083 60.1908 85.6473 60.2491 85.6739 60.3133C85.7005 60.3775 85.7142 60.4463 85.7142 60.5158V62.103C85.7142 62.1725 85.7005 62.2413 85.6739 62.3055C85.6473 62.3697 85.6083 62.4281 85.5592 62.4772C85.5101 62.5263 85.4518 62.5653 85.3876 62.5919C85.3234 62.6185 85.2546 62.6322 85.1851 62.6322H84.0151C83.8168 63.8123 83.3528 64.932 82.658 65.9063L83.4859 66.7343C83.535 66.7834 83.574 66.8418 83.6006 66.906C83.6272 66.9702 83.6409 67.039 83.6409 67.1084C83.6409 67.1779 83.6272 67.2467 83.6006 67.3109C83.574 67.3751 83.535 67.4334 83.4859 67.4826L82.3635 68.605C82.2643 68.7042 82.1297 68.7599 81.9894 68.7599C81.8491 68.7599 81.7145 68.7042 81.6152 68.605L80.7873 67.777C79.813 68.4718 78.6933 68.9359 77.5131 69.1341V70.3041C77.5131 70.3735 77.4994 70.4424 77.4728 70.5065C77.4463 70.5707 77.4073 70.6291 77.3582 70.6782C77.309 70.7273 77.2507 70.7663 77.1865 70.7929C77.1223 70.8195 77.0535 70.8332 76.984 70.8332H75.3967C75.3272 70.8332 75.2584 70.8195 75.1942 70.7929C75.13 70.7663 75.0717 70.7273 75.0226 70.6782C74.9734 70.6291 74.9345 70.5707 74.9079 70.5066C74.8813 70.4424 74.8676 70.3736 74.8676 70.3041V69.1341C73.6874 68.9359 72.5678 68.4718 71.5934 67.777L70.7654 68.605C70.6662 68.7042 70.5316 68.7599 70.3913 68.7599C70.251 68.7599 70.1164 68.7042 70.0172 68.605L68.8948 67.4826C68.7956 67.3833 68.7398 67.2488 68.7398 67.1084C68.7398 66.9681 68.7956 66.8335 68.8948 66.7343L69.7227 65.9063C69.0279 64.932 68.5639 63.8123 68.3657 62.6322H67.1956C67.1262 62.6322 67.0574 62.6185 66.9932 62.5919C66.929 62.5653 66.8706 62.5263 66.8215 62.4772C66.7724 62.4281 66.7334 62.3697 66.7068 62.3055C66.6802 62.2413 66.6665 62.1725 66.6665 62.103V60.5158C66.6665 60.4463 66.6802 60.3775 66.7068 60.3133C66.7334 60.2491 66.7724 60.1907 66.8215 60.1416C66.8706 60.0925 66.929 60.0535 66.9932 60.0269C67.0574 60.0003 67.1262 59.9866 67.1957 59.9866H68.3657C68.5639 58.8064 69.028 57.6868 69.7228 56.7124L68.8948 55.8845C68.7956 55.7853 68.7398 55.6507 68.7398 55.5104C68.7398 55.37 68.7956 55.2355 68.8948 55.1362L70.0172 54.0138C70.0663 53.9647 70.1247 53.9257 70.1888 53.8991C70.253 53.8725 70.3218 53.8589 70.3913 53.8589C70.4608 53.8589 70.5296 53.8725 70.5938 53.8991C70.658 53.9257 70.7163 53.9647 70.7655 54.0138L71.5934 54.8418C72.5678 54.147 73.6874 53.6829 74.8676 53.4847V52.3147C74.8676 52.2452 74.8813 52.1764 74.9079 52.1122C74.9345 52.048 74.9734 51.9897 75.0226 51.9405C75.0717 51.8914 75.13 51.8524 75.1942 51.8258C75.2584 51.7992 75.3272 51.7856 75.3967 51.7856H76.984C77.0535 51.7856 77.1223 51.7992 77.1865 51.8258C77.2507 51.8524 77.309 51.8914 77.3582 51.9405C77.4073 51.9897 77.4463 52.048 77.4728 52.1122C77.4994 52.1764 77.5131 52.2452 77.5131 52.3147V52.3147Z" fill="black"/>
<path d="M72.0239 61.3094C72.0239 62.1335 72.2683 62.939 72.7261 63.6242C73.184 64.3094 73.8347 64.8435 74.5961 65.1589C75.3574 65.4742 76.1952 65.5567 77.0035 65.396C77.8117 65.2352 78.5542 64.8384 79.1369 64.2556C79.7196 63.6729 80.1164 62.9305 80.2772 62.1222C80.438 61.314 80.3555 60.4762 80.0401 59.7149C79.7247 58.9535 79.1907 58.3027 78.5055 57.8449C77.8203 57.3871 77.0147 57.1427 76.1906 57.1427C75.0855 57.1427 74.0257 57.5817 73.2443 58.3631C72.4629 59.1445 72.0239 60.2043 72.0239 61.3094ZM77.9763 61.3094C77.9763 61.6625 77.8716 62.0078 77.6754 62.3015C77.4791 62.5951 77.2003 62.824 76.874 62.9592C76.5477 63.0943 76.1886 63.1297 75.8422 63.0608C75.4958 62.9919 75.1776 62.8218 74.9279 62.5721C74.6782 62.3223 74.5081 62.0041 74.4392 61.6577C74.3703 61.3113 74.4057 60.9523 74.5408 60.626C74.676 60.2997 74.9048 60.0208 75.1985 59.8246C75.4922 59.6284 75.8374 59.5237 76.1906 59.5237C76.664 59.5242 77.1179 59.7125 77.4527 60.0473C77.7875 60.382 77.9758 60.8359 77.9763 61.3094Z" fill="black"/>
<path d="M74.4046 39.8808C74.7202 39.8812 75.0228 40.0067 75.246 40.2299C75.4692 40.4531 75.5947 40.7557 75.5951 41.0713V47.0237H76.9839C77.3171 47.0265 77.6493 47.0608 77.976 47.1263V41.0713C77.975 40.1244 77.5984 39.2166 76.9288 38.5471C76.2593 37.8775 75.3515 37.5009 74.4046 37.4999H29.2192C29.4749 38.2719 29.6407 39.0708 29.7135 39.8808H74.4046Z" fill="black"/>
<path d="M15.5425 47.6161V52.932C15.5279 53.4797 15.6232 54.0247 15.8227 54.5349C16.0222 55.0452 16.3219 55.5103 16.7041 55.9028C17.0863 56.2953 17.5433 56.6073 18.048 56.8203C18.5527 57.0333 19.095 57.143 19.6429 57.143C20.1907 57.143 20.733 57.0333 21.2378 56.8203C21.7425 56.6073 22.1995 56.2953 22.5817 55.9028C22.9639 55.5103 23.2636 55.0452 23.4631 54.5349C23.6626 54.0247 23.7579 53.4797 23.7433 52.932V47.6161C24.9636 46.8115 25.9432 45.6914 26.578 44.3747C27.2128 43.0581 27.4791 41.5941 27.3487 40.1382C27.2183 38.6824 26.696 37.289 25.8373 36.1062C24.9786 34.9233 23.8156 33.9951 22.4717 33.4202C22.291 33.3468 22.0949 33.319 21.9009 33.3391C21.7068 33.3593 21.5207 33.4269 21.3589 33.5358C21.1971 33.6448 21.0645 33.7919 20.9729 33.9641C20.8813 34.1363 20.8333 34.3284 20.8334 34.5235V40.4667L18.4524 40.4405V34.5235C18.4525 34.3284 18.4045 34.1363 18.3129 33.9641C18.2213 33.7919 18.0887 33.6448 17.9269 33.5358C17.7651 33.4268 17.579 33.3593 17.3849 33.3391C17.1909 33.319 16.9948 33.3468 16.8141 33.4202C15.4702 33.9951 14.3072 34.9233 13.4485 36.1062C12.5898 37.289 12.0675 38.6824 11.9371 40.1382C11.8067 41.5941 12.073 43.0581 12.7078 44.3747C13.3426 45.6914 14.3222 46.8115 15.5425 47.6161ZM16.0715 36.6697V40.4405C16.0688 41.0753 16.3179 41.6851 16.7643 42.1364C17.2106 42.5877 17.8177 42.8435 18.4524 42.8477H20.8334C21.4681 42.8435 22.0752 42.5877 22.5215 42.1364C22.9679 41.6851 23.217 41.0753 23.2143 40.4405V36.6697C23.7838 37.2058 24.2364 37.8537 24.5436 38.5729C24.8509 39.2922 25.0063 40.0671 25 40.8492C25.0122 41.881 24.739 42.8962 24.2108 43.7826C23.6825 44.6691 22.9197 45.3924 22.0064 45.8728C21.8124 45.9731 21.6496 46.1249 21.5361 46.3115C21.4225 46.4981 21.3624 46.7123 21.3624 46.9308V52.932C21.377 53.1668 21.3434 53.4022 21.2636 53.6235C21.1838 53.8448 21.0595 54.0475 20.8984 54.2189C20.7373 54.3904 20.5428 54.527 20.3269 54.6204C20.111 54.7138 19.8782 54.762 19.6429 54.762C19.4076 54.762 19.1749 54.7138 18.9589 54.6204C18.743 54.527 18.5485 54.3904 18.3874 54.2189C18.2263 54.0475 18.102 53.8448 18.0222 53.6235C17.9424 53.4022 17.9088 53.1668 17.9235 52.932V46.9307C17.9234 46.7123 17.8634 46.4981 17.7498 46.3115C17.6362 46.1248 17.4735 45.9731 17.2794 45.8727C16.3661 45.3924 15.6033 44.6691 15.075 43.7826C14.5468 42.8962 14.2736 41.881 14.2858 40.8492C14.2795 40.0671 14.4349 39.2922 14.7421 38.5729C15.0494 37.8537 15.502 37.2058 16.0715 36.6697Z" fill="black"/>
<path d="M89.715 82.1429L52.9761 82.1427V77.9761H74.4047C75.1552 77.9749 75.8863 77.7377 76.4944 77.2979C77.1026 76.8582 77.5569 76.2382 77.7932 75.5259C77.5256 75.5697 77.2551 75.5929 76.984 75.5951H75.3968C75.1687 75.5944 74.9408 75.579 74.7147 75.5491C74.6139 75.5782 74.5096 75.5937 74.4047 75.5951H22.0237C21.7081 75.5948 21.4055 75.4692 21.1823 75.246C20.9592 75.0229 20.8336 74.7203 20.8333 74.4046V59.4072C20.0472 59.5624 19.2384 59.5624 18.4523 59.4072V74.4047C18.4533 75.3516 18.8299 76.2594 19.4995 76.9289C20.169 77.5985 21.0768 77.9751 22.0237 77.9761H43.4523V82.1428L10.2849 82.1429C10.1155 82.1208 9.94336 82.135 9.77995 82.1847C9.61654 82.2344 9.46562 82.3184 9.33726 82.4311C9.2089 82.5438 9.10606 82.6825 9.03561 82.8381C8.96515 82.9937 8.92871 83.1626 8.92871 83.3334C8.92871 83.5042 8.96515 83.673 9.03561 83.8286C9.10606 83.9842 9.2089 84.1229 9.33726 84.2356C9.46562 84.3483 9.61654 84.4323 9.77995 84.482C9.94336 84.5317 10.1155 84.546 10.2849 84.5238H89.715C89.8843 84.546 90.0565 84.5317 90.2199 84.482C90.3833 84.4323 90.5342 84.3483 90.6626 84.2356C90.7909 84.1229 90.8938 83.9842 90.9642 83.8286C91.0347 83.673 91.0711 83.5042 91.0711 83.3334C91.0711 83.1626 91.0347 82.9937 90.9642 82.8381C90.8938 82.6825 90.7909 82.5438 90.6626 82.4311C90.5342 82.3184 90.3833 82.2344 90.2199 82.1847C90.0565 82.135 89.8843 82.1208 89.715 82.1429ZM45.8333 77.9761H50.5952V82.1427H45.8333V77.9761Z" fill="black"/>
</svg>
