<svg width="252" height="252" viewBox="0 0 252 252" fill="none" xmlns="http://www.w3.org/2000/svg">
<path d="M126 251.016C195.044 251.016 251.016 195.044 251.016 126C251.016 56.9558 195.044 0.984375 126 0.984375C56.9558 0.984375 0.984375 56.9558 0.984375 126C0.984375 195.044 56.9558 251.016 126 251.016Z" fill="#324A5E"/>
<path d="M87.7077 139.388L49.4155 126V72.4993L87.7077 85.8868V139.388Z" fill="#ACB3BA"/>
<path d="M87.7077 142.291C87.3632 142.291 87.0679 142.242 86.7233 142.144L48.4312 128.756C47.2499 128.362 46.4624 127.23 46.4624 126V72.4992C46.4624 71.564 46.9054 70.6781 47.6929 70.0875C48.4804 69.5461 49.4647 69.3984 50.3507 69.6937L88.6429 83.0812C89.8241 83.475 90.6116 84.607 90.6116 85.8375V139.338C90.6116 140.273 90.1687 141.159 89.3812 141.75C88.889 142.095 88.2983 142.291 87.7077 142.291ZM52.3194 123.933L84.7546 135.253V88.0031L52.3194 76.6828V123.933Z" fill="#324A5E"/>
<path d="M87.7077 195.792C87.3632 195.792 87.0679 195.743 86.7233 195.645L48.4312 182.257C47.2499 181.863 46.4624 180.731 46.4624 179.501V126C46.4624 125.065 46.9054 124.179 47.6929 123.588C48.4804 123.047 49.4647 122.899 50.3507 123.195L88.6429 136.582C89.8241 136.976 90.6116 138.108 90.6116 139.338V192.839C90.6116 193.774 90.1687 194.66 89.3812 195.251C88.889 195.595 88.2983 195.792 87.7077 195.792ZM52.3194 177.384L84.7546 188.705V141.455L52.3194 130.134V177.384Z" fill="#324A5E"/>
<path d="M126 152.726L87.708 139.388V85.8867L126 99.2742V152.726Z" fill="white"/>
<path d="M126 155.679C125.656 155.679 125.36 155.63 125.016 155.531L86.7236 142.144C85.5424 141.75 84.7549 140.618 84.7549 139.388V85.8868C84.7549 84.9516 85.1979 84.0657 85.9854 83.475C86.7729 82.9336 87.7572 82.786 88.6432 83.0813L126.935 96.4688C128.117 96.8625 128.904 97.9946 128.904 99.225V152.726C128.904 153.661 128.461 154.547 127.674 155.138C127.181 155.482 126.591 155.679 126 155.679ZM90.6119 137.271L123.047 148.591V101.341L90.6119 90.0211V137.271Z" fill="#324A5E"/>
<path d="M126 206.227L87.708 192.839V139.387L126 152.726V206.227Z" fill="#FFD05B"/>
<path d="M126 209.13C125.656 209.13 125.36 209.081 125.016 208.983L86.7236 195.595C85.5424 195.202 84.7549 194.07 84.7549 192.839V139.388C84.7549 138.452 85.1979 137.566 85.9854 136.976C86.7729 136.434 87.7572 136.287 88.6432 136.582L126.935 149.97C128.117 150.363 128.904 151.495 128.904 152.726V206.227C128.904 207.162 128.461 208.048 127.674 208.638C127.181 208.983 126.591 209.13 126 209.13ZM90.6119 190.772L123.047 202.092V154.842L90.6119 143.522V190.772Z" fill="#324A5E"/>
<path d="M164.292 139.388L202.584 126V72.4993L164.292 85.8868V139.388Z" fill="white"/>
<path d="M164.292 142.291C163.701 142.291 163.111 142.094 162.619 141.75C161.831 141.209 161.388 140.323 161.388 139.338V85.8867C161.388 84.6562 162.176 83.5242 163.357 83.1304L201.649 69.7429C202.535 69.4476 203.519 69.5953 204.307 70.1367C205.094 70.6781 205.537 71.564 205.537 72.5484V126C205.537 127.23 204.75 128.362 203.569 128.756L165.276 142.144C164.932 142.242 164.637 142.291 164.292 142.291ZM167.245 87.9539V135.204L199.68 123.884V76.6335L167.245 87.9539Z" fill="#324A5E"/>
<path d="M164.292 192.839L202.584 179.501V126L164.292 139.388V192.839Z" fill="#FF7058"/>
<path d="M164.292 195.792C163.701 195.792 163.111 195.595 162.619 195.251C161.831 194.709 161.388 193.823 161.388 192.839V139.388C161.388 138.157 162.176 137.025 163.357 136.631L201.649 123.244C202.535 122.948 203.519 123.047 204.307 123.638C205.094 124.179 205.537 125.065 205.537 126.049V179.55C205.537 180.78 204.75 181.913 203.569 182.306L165.276 195.694C164.932 195.743 164.637 195.792 164.292 195.792ZM167.245 141.455V188.705L199.68 177.384V130.134L167.245 141.455Z" fill="#324A5E"/>
<path d="M126 152.726L164.292 139.388V85.8867L126 99.2742V152.726Z" fill="#ACB3BA"/>
<path d="M126 155.679C125.409 155.679 124.819 155.482 124.327 155.138C123.539 154.596 123.096 153.71 123.096 152.726V99.2742C123.096 98.0438 123.884 96.9117 125.065 96.518L163.357 83.1305C164.243 82.8352 165.227 82.9828 166.015 83.5242C166.802 84.0656 167.245 84.9516 167.245 85.936V139.437C167.245 140.667 166.458 141.799 165.277 142.193L126.984 155.482C126.64 155.63 126.345 155.679 126 155.679ZM128.953 101.341V148.591L161.388 137.271V90.0211L128.953 101.341Z" fill="#324A5E"/>
<path d="M126 206.227L164.292 192.839V139.387L126 152.726V206.227Z" fill="#84DBFF"/>
<path d="M126 209.13C125.409 209.13 124.819 208.934 124.327 208.589C123.539 208.048 123.096 207.162 123.096 206.177V152.726C123.096 151.495 123.884 150.363 125.065 149.97L163.357 136.582C164.243 136.287 165.227 136.434 166.015 136.976C166.802 137.517 167.245 138.403 167.245 139.388V192.888C167.245 194.119 166.458 195.251 165.277 195.645L126.984 208.983C126.64 209.081 126.345 209.13 126 209.13ZM128.953 154.842V202.092L161.388 190.772V143.522L128.953 154.842Z" fill="#324A5E"/>
<path d="M126 72.4993L87.708 85.8868L126 99.2743L164.292 85.8868L126 72.4993Z" fill="#4CDBC4"/>
<path d="M126 102.178C125.656 102.178 125.36 102.129 125.016 102.03L86.7236 88.643C85.5424 88.2492 84.7549 87.1172 84.7549 85.8867C84.7549 84.6563 85.5424 83.5242 86.7236 83.1305L125.016 69.743C125.656 69.5461 126.345 69.5461 126.935 69.743L165.228 83.1305C166.409 83.5242 167.196 84.6563 167.196 85.8867C167.196 87.1172 166.409 88.2492 165.228 88.643L126.985 102.03C126.64 102.129 126.345 102.178 126 102.178ZM96.5674 85.8867L126 96.1735L155.433 85.8867L126 75.6492L96.5674 85.8867Z" fill="#324A5E"/>
<path d="M126 45.7734L87.708 59.1609L126 72.4992L164.292 59.1609L126 45.7734Z" fill="white"/>
<path d="M126 75.4523C125.656 75.4523 125.36 75.4031 125.016 75.3047L86.7236 61.9172C85.5424 61.5234 84.7549 60.3914 84.7549 59.1609C84.7549 57.9304 85.5424 56.7984 86.7236 56.4047L125.016 43.0172C125.656 42.8203 126.345 42.8203 126.935 43.0172L165.228 56.4047C166.409 56.7984 167.196 57.9304 167.196 59.1609C167.196 60.3914 166.409 61.5234 165.228 61.9172L126.985 75.3047C126.64 75.4031 126.345 75.4523 126 75.4523ZM96.5674 59.1609L126 69.3984L155.433 59.1117L126 48.8742L96.5674 59.1609Z" fill="#324A5E"/>
<path d="M87.7077 59.1609L49.4155 72.4992L87.7077 85.8867L126 72.4992L87.7077 59.1609Z" fill="#ACB3BA"/>
<path d="M87.7077 88.8399C87.3632 88.8399 87.0679 88.7907 86.7233 88.6922L48.4312 75.3047C47.2499 74.911 46.4624 73.779 46.4624 72.5485C46.4624 71.318 47.2499 70.186 48.4312 69.7922L86.7233 56.4047C87.3632 56.2079 88.0522 56.2079 88.6429 56.4047L126.935 69.7922C128.116 70.186 128.904 71.318 128.904 72.5485C128.904 73.779 128.116 74.911 126.935 75.3047L88.6429 88.6922C88.3476 88.7907 88.003 88.8399 87.7077 88.8399ZM58.2749 72.4993L87.7077 82.786L117.141 72.4993L87.7077 62.2126L58.2749 72.4993Z" fill="#324A5E"/>
<path d="M164.292 88.8399C163.948 88.8399 163.652 88.7907 163.308 88.6922L125.016 75.3047C123.834 74.911 123.047 73.779 123.047 72.5485C123.047 71.318 123.834 70.186 125.016 69.7922L163.308 56.4047C163.948 56.2079 164.637 56.2079 165.227 56.4047L203.52 69.7922C204.701 70.186 205.488 71.318 205.488 72.5485C205.488 73.779 204.701 74.911 203.52 75.3047L165.227 88.6922C164.981 88.7907 164.637 88.8399 164.292 88.8399ZM134.909 72.4993L164.341 82.786L193.774 72.4993L164.341 62.2126L134.909 72.4993Z" fill="#324A5E"/>
</svg>
