<svg width="60" height="60" viewBox="0 0 100 100" fill="none" xmlns="http://www.w3.org/2000/svg">
<path d="M58.7976 61.085H58.797L39.7601 61.075C39.1937 61.075 38.7343 60.6152 38.7349 60.0482C38.7354 59.4822 39.194 59.0236 39.7606 59.0236H39.7612L58.7981 59.0336C59.3645 59.0336 59.8239 59.4933 59.8233 60.0603C59.8228 60.6262 59.364 61.085 58.7976 61.085Z" fill="black"/>
<path d="M79.6229 61.0799H70.7713C70.2049 61.0799 69.7455 60.6211 69.7455 60.0541C69.7455 59.4871 70.2047 59.0283 70.7713 59.0283H79.6229C87.6316 59.0283 94.1469 52.6047 94.1469 44.7096C94.1469 37.4256 88.6523 31.3205 81.3656 30.508C80.8934 30.4549 80.5191 30.0853 80.4611 29.6135C79.3252 20.3906 69.9117 14.6894 61.1938 17.768C60.6309 17.9664 60.0268 17.6449 59.866 17.0808C57.3549 8.26132 49.1057 2.10214 39.8053 2.10214C26.6561 2.10214 16.8971 14.0162 19.3434 26.4174C19.4586 27.0016 19.0533 27.5621 18.4613 27.6334C10.4557 28.609 4.41855 35.3461 4.41855 43.3043C4.41855 51.7232 11.1117 58.6217 19.6559 59.0082L27.7959 59.0182C28.3623 59.0191 28.8211 59.4789 28.8201 60.0449C28.8191 60.6109 28.3604 61.0695 27.7943 61.0695C27.7937 61.0695 27.7934 61.0695 27.7928 61.0695L19.6078 61.0586C9.92031 60.6209 2.36719 52.823 2.36719 43.3043C2.36719 34.667 8.65 27.3039 17.1492 25.7592C15.1955 12.4678 25.7385 0.0509644 39.8053 0.0509644C49.6596 0.0509644 58.4416 6.35643 61.5258 15.5105C70.9607 12.8391 80.7168 18.882 82.3812 28.5762C90.3123 29.8433 96.198 36.6445 96.198 44.7099C96.1982 53.7367 88.7623 61.0799 79.6229 61.0799Z" fill="black"/>
<path d="M66.4202 71.6543L64.9868 68.7045C65.6294 67.5496 66.1407 66.3236 66.5124 65.0485L69.6095 63.9686C70.9181 63.5129 71.7976 62.2758 71.7976 60.8895V59.2217C71.7976 57.8344 70.9165 56.5953 69.605 56.1406L66.5153 55.069C66.1507 53.7998 65.6409 52.5719 64.9942 51.4049L66.4235 48.451C67.028 47.2029 66.7757 45.7045 65.7944 44.7238L64.6136 43.543C63.631 42.5594 62.1325 42.3068 60.8845 42.9149L57.9392 44.3432C56.7811 43.7051 55.5532 43.1963 54.2767 42.8236L53.1974 39.7276C52.7411 38.4184 51.5036 37.5389 50.1177 37.5389H48.4499C47.0616 37.5389 45.8235 38.4203 45.3688 39.7315L44.2972 42.8215C43.022 43.1871 41.7911 43.6969 40.6251 44.342L37.6808 42.9147C36.4312 42.3076 34.9327 42.5621 33.9517 43.5428L32.7708 44.7236C31.7897 45.7043 31.5372 47.2027 32.1417 48.4508L33.571 51.4047C32.9245 52.5717 32.4145 53.7996 32.0499 55.0688L28.9593 56.1404C27.6481 56.5961 26.7671 57.8342 26.7671 59.2215V60.8893C26.7671 62.2756 27.6466 63.5127 28.9552 63.9684L32.0522 65.0483C32.4239 66.3234 32.9356 67.5494 33.5782 68.7043L32.1448 71.6541C31.5378 72.9041 31.7897 74.4037 32.7718 75.3863L33.9497 76.5643C34.9317 77.5469 36.4317 77.8004 37.6813 77.1924L40.6298 75.76C41.7847 76.4061 43.0138 76.919 44.2968 77.2865L45.3685 80.3777C45.8231 81.6889 47.0612 82.5693 48.4495 82.5693H50.1173C51.5036 82.5693 52.7411 81.6899 53.197 80.3816L54.2763 77.2846C55.5448 76.915 56.7698 76.4061 57.9308 75.766L60.8856 77.1963C62.1337 77.7992 63.6321 77.5469 64.6128 76.5662L65.7923 75.3863C66.7753 74.4039 67.0276 72.9045 66.4202 71.6543ZM62.9038 69.1121L64.5751 72.5518C64.8005 73.0145 64.7067 73.5715 64.3423 73.9361L63.1628 75.116C62.7981 75.4807 62.2427 75.5738 61.7796 75.3494L58.3384 73.6836C58.0288 73.5344 57.6644 73.5485 57.3692 73.7246C56.0731 74.4918 54.6804 75.0709 53.2288 75.4445C52.8968 75.5307 52.6294 75.7772 52.5167 76.1006L51.2601 79.7066C51.0907 80.1924 50.6319 80.518 50.1177 80.518H48.4499C47.9351 80.518 47.4759 80.1914 47.3069 79.7047L46.0573 76.1018C45.944 75.7762 45.6741 75.5287 45.3396 75.4438C43.8735 75.0731 42.4823 74.4932 41.2042 73.7209C40.9015 73.5383 40.5329 73.5258 40.2251 73.6758L36.7854 75.3475C36.3222 75.5709 35.7653 75.4797 35.4007 75.1141L34.2228 73.9361C33.8581 73.5715 33.7646 73.0147 33.9899 72.5518L35.6612 69.1121C35.8124 68.8006 35.7964 68.433 35.6187 68.1365C34.8493 66.8524 34.2685 65.4611 33.8917 64.0006C33.8062 63.669 33.5601 63.4016 33.236 63.2885L29.6296 62.0315C29.1442 61.8621 28.8183 61.4033 28.8183 60.8897V59.2219C28.8183 58.707 29.1452 58.2473 29.6315 58.0789L33.2345 56.8299C33.561 56.7168 33.8085 56.4463 33.8931 56.1117C34.2581 54.6652 34.836 53.2721 35.6114 51.9709C35.7878 51.6744 35.8032 51.3098 35.653 50.9992L33.9872 47.5576C33.7628 47.094 33.8569 46.5379 34.2206 46.1744L35.4015 44.9936C35.7661 44.6289 36.3216 44.5358 36.7847 44.7602L40.2169 46.425C40.5278 46.5774 40.8925 46.5611 41.189 46.384C42.4876 45.6117 43.8839 45.0328 45.3394 44.6652C45.6739 44.5801 45.9438 44.3326 46.0571 44.0072L47.3067 40.4043C47.4755 39.9176 47.9349 39.591 48.4497 39.591H50.1175C50.6313 39.591 51.0905 39.9176 51.2599 40.4033L52.5165 44.0082C52.6292 44.3317 52.8966 44.5781 53.2282 44.6633C54.6917 45.042 56.0874 45.6209 57.377 46.3852C57.6729 46.5604 58.0376 46.5754 58.3478 46.4252L61.78 44.7604C62.2427 44.5359 62.7991 44.6291 63.1632 44.9938L64.3442 46.1746C64.7079 46.5383 64.8021 47.0942 64.5776 47.5578L62.9118 50.9994C62.7616 51.31 62.7771 51.6746 62.9534 51.9711C63.7286 53.2723 64.3067 54.6656 64.6718 56.1119C64.7563 56.4465 65.0038 56.717 65.3304 56.8291L68.9323 58.0781C69.419 58.2475 69.7462 58.7072 69.7462 59.2221V60.8899C69.7462 61.4037 69.4202 61.8625 68.9349 62.0317L65.3288 63.2887C65.0048 63.4018 64.7589 63.6684 64.6731 64.0008C64.296 65.4602 63.7151 66.8525 62.9462 68.1367C62.7687 68.434 62.7526 68.8006 62.9038 69.1121Z" fill="black"/>
<path d="M49.2823 49.5018C43.4673 49.5018 38.7358 54.2356 38.7358 60.0531C38.7358 65.8688 43.4671 70.6006 49.2823 70.6006C55.0979 70.6006 59.8292 65.8688 59.8292 60.0531C59.8292 54.2356 55.0979 49.5018 49.2823 49.5018ZM49.2823 68.5492C44.5981 68.5492 40.7872 64.7379 40.7872 60.0531C40.7872 55.3664 44.5979 51.5531 49.2823 51.5531C53.9667 51.5531 57.7778 55.3664 57.7778 60.0531C57.7778 64.7379 53.9665 68.5492 49.2823 68.5492ZM95.8673 80.4559L93.7958 79.7367C93.5464 78.9065 93.2124 78.101 92.7972 77.3307L93.7558 75.3494C94.2425 74.3447 94.0392 73.1387 93.2489 72.3485L92.4036 71.5031C91.6122 70.7098 90.4048 70.5074 89.4001 70.9963L87.4249 71.9539C86.6591 71.5432 85.8538 71.2098 85.0198 70.9572L84.2962 68.8797C83.9286 67.826 82.9314 67.1178 81.8155 67.1178H80.6216C79.5038 67.1178 78.5062 67.827 78.1399 68.8826L77.4218 70.9541C76.5884 71.2045 75.7806 71.5391 75.0099 71.9527L73.0366 70.9971C72.031 70.5092 70.823 70.7125 70.0321 71.5029L69.1872 72.3483C68.3964 73.1375 68.1925 74.3436 68.6798 75.3492L69.6384 77.3305C69.2231 78.1018 68.8886 78.907 68.6392 79.7365L66.5677 80.4557C65.5114 80.8213 64.8017 81.819 64.8017 82.9367V84.1307C64.8017 85.2475 65.5099 86.2442 66.5642 86.6117L68.6415 87.335C68.895 88.1693 69.2306 88.9727 69.6433 89.736L68.6821 91.7143C68.1939 92.7199 68.3966 93.9279 69.1874 94.7192L70.0308 95.5625C70.821 96.3539 72.0286 96.5572 73.0362 96.0684L75.0124 95.1088C75.7767 95.5244 76.5829 95.86 77.4214 96.1115L78.1396 98.183C78.5062 99.2387 79.5032 99.949 80.6212 99.949H81.8151C82.931 99.949 83.9276 99.2408 84.2958 98.1861L85.0194 96.1086C85.8493 95.8572 86.6521 95.5227 87.4185 95.1119L89.4013 96.0715C90.4104 96.5594 91.6144 96.3539 92.4023 95.5637L93.2472 94.7194C94.0386 93.9279 94.2419 92.7201 93.7524 91.7145L92.7913 89.7361C93.2044 88.9719 93.5401 88.1686 93.7929 87.3352L95.8718 86.6121C96.9255 86.2445 97.6331 85.2469 97.6331 84.1311V82.9371C97.6333 81.8192 96.9235 80.8215 95.8673 80.4559ZM95.5819 84.1311C95.5819 84.3754 95.4267 84.5947 95.1964 84.675L92.6136 85.5744C92.2899 85.6877 92.0437 85.9551 91.9579 86.2865C91.6954 87.3031 91.2903 88.2738 90.7534 89.1713C90.5757 89.4688 90.5597 89.8354 90.7108 90.1459L91.9079 92.611C92.0151 92.8313 91.9706 93.0957 91.7972 93.269L90.9513 94.1143C90.779 94.2875 90.5155 94.3326 90.2946 94.2244L87.8296 93.0315C87.52 92.8813 87.1556 92.8973 86.8605 93.0725C85.956 93.6074 84.9839 94.0121 83.9712 94.2725C83.6392 94.3586 83.3718 94.6051 83.2591 94.9285L82.3591 97.5108C82.2784 97.7422 82.0601 97.8975 81.8157 97.8975H80.6218C80.3769 97.8975 80.1585 97.7422 80.0784 97.5098L79.1835 94.9295C79.0704 94.6039 78.8003 94.3565 78.4653 94.2715C77.4452 94.0141 76.4751 93.6104 75.5831 93.0715C75.2829 92.8887 74.912 92.8766 74.6044 93.0264L72.1407 94.2235C71.9198 94.3285 71.6554 94.2856 71.4821 94.1123L70.6388 93.269C70.4655 93.0957 70.421 92.8303 70.5276 92.6098L71.7247 90.1457C71.8759 89.8352 71.8599 89.4686 71.6821 89.1711C71.1462 88.2756 70.7405 87.3051 70.4776 86.2863C70.3921 85.9537 70.1456 85.6873 69.822 85.5742L67.2397 84.6748C67.0089 84.5947 66.8536 84.3754 66.8536 84.1309V82.9369C66.8536 82.6926 67.0089 82.4742 67.2403 82.393L69.8206 81.4975C70.1472 81.3842 70.3946 81.1149 70.4792 80.7803C70.7331 79.7736 71.1368 78.802 71.6776 77.8914C71.854 77.5959 71.8694 77.2313 71.7192 76.9207L70.5263 74.4557C70.4196 74.2354 70.4642 73.9719 70.6374 73.7986L71.4833 72.9533C71.6562 72.7801 71.9226 72.736 72.1413 72.8432L74.5993 74.0342C74.9099 74.1844 75.2749 74.1693 75.5704 73.9922C76.4778 73.4533 77.4521 73.0496 78.4651 72.7942C78.8001 72.709 79.0702 72.4615 79.1833 72.1361L80.0782 69.5559C80.1583 69.3244 80.3767 69.1692 80.6216 69.1692H81.8155C82.0599 69.1692 82.2782 69.3244 82.3589 69.5547L83.2589 72.1369C83.3716 72.4604 83.639 72.7069 83.971 72.793C84.9907 73.0555 85.9647 73.459 86.8667 73.993C87.1626 74.1682 87.5259 74.1822 87.8362 74.034L90.2958 72.842C90.5148 72.7328 90.7786 72.7799 90.9524 72.9531L91.7983 73.7984C91.9712 73.9717 92.0157 74.2352 91.9095 74.4555L90.7165 76.9205C90.5663 77.2311 90.5817 77.5957 90.7581 77.8912C91.2985 78.8008 91.7017 79.7723 91.9562 80.7801C92.0407 81.1147 92.2882 81.384 92.6147 81.4973L95.195 82.3938C95.4265 82.4738 95.5817 82.6922 95.5817 82.9367L95.5819 84.1311Z" fill="black"/>
<path d="M81.218 75.6849C76.8928 75.6849 73.374 79.2058 73.374 83.533C73.374 87.8582 76.8928 91.3769 81.218 91.3769C85.5436 91.3769 89.0625 87.8582 89.0625 83.533C89.0623 79.2058 85.5436 75.6849 81.218 75.6849ZM81.218 89.3256C78.0236 89.3256 75.4254 86.7273 75.4254 83.533C75.4254 80.3367 78.0236 77.7363 81.218 77.7363C84.4123 77.7363 87.0111 80.3367 87.0111 83.533C87.0109 86.7273 84.4121 89.3256 81.218 89.3256Z" fill="black"/>
</svg>
