<svg width="60" height="60" viewBox="0 0 100 100" fill="none" xmlns="http://www.w3.org/2000/svg">
<path d="M96.0976 5.69104H17.0732C14.9593 5.69104 13.1707 7.39836 13.1707 9.59348V18.8618H3.90244C1.70732 18.8618 0 20.5691 0 22.7642V90.4065C0 92.5203 1.70732 94.3089 3.90244 94.3089H82.9268C85.0406 94.3089 86.8293 92.6016 86.8293 90.4065V81.1382H96.0976C98.2114 81.1382 100 79.4309 100 77.2357V9.59348C100 7.39836 98.2927 5.69104 96.0976 5.69104ZM17.0732 8.94307H96.0976C96.4228 8.94307 96.748 9.18698 96.748 9.59348V20.813H16.4228V9.59348C16.4228 9.18698 16.748 8.94307 17.0732 8.94307ZM3.90244 22.1138H13.1707V33.9837H3.25203V22.7642C3.25203 22.439 3.49594 22.1138 3.90244 22.1138ZM83.5772 90.4065C83.5772 90.7317 83.3333 91.0569 82.9268 91.0569H3.90244C3.57724 91.0569 3.25203 90.813 3.25203 90.4065V37.2358H13.1707V77.2357C13.1707 79.3496 14.878 81.1382 17.0732 81.1382H83.5772V90.4065ZM96.0976 77.8862H17.0732C16.748 77.8862 16.4228 77.6423 16.4228 77.2357V24.065H96.748V77.2357C96.748 77.561 96.5041 77.8862 96.0976 77.8862Z" fill="black"/>
<path d="M30.1628 16.1789H24.1465C23.2522 16.1789 22.5205 15.4471 22.5205 14.5528C22.5205 13.6585 23.2522 12.9268 24.1465 12.9268H30.1628C31.0571 12.9268 31.7888 13.6585 31.7888 14.5528C31.7888 15.4471 31.0571 16.1789 30.1628 16.1789ZM43.9026 16.1789H37.8864C36.9921 16.1789 36.2603 15.4471 36.2603 14.5528C36.2603 13.6585 36.9921 12.9268 37.8864 12.9268H43.9026C44.7969 12.9268 45.5286 13.6585 45.5286 14.5528C45.5286 15.4471 44.7969 16.1789 43.9026 16.1789Z" fill="black"/>
<path d="M31.626 51.1382L47.0731 59.1057V56.0163L35.2032 50.0813L47.0731 44.1464V41.0569L31.626 48.9431V51.1382Z" fill="black"/>
<path d="M50.4878 60.0813H53.4146L62.5203 36.5041H59.5122L50.4878 60.0813Z" fill="black"/>
<path d="M65.8535 41.0569V44.1464L77.8047 50.0813L65.8535 56.0163V59.1057L81.3007 51.1382V48.9431L65.8535 41.0569Z" fill="black"/>
</svg>
