<svg width="83" height="83" viewBox="0 0 83 83" fill="none" xmlns="http://www.w3.org/2000/svg">
<path d="M16.3217 69.0588C16.7001 69.4373 17.1494 69.7375 17.6439 69.9423C18.1383 70.1472 18.6683 70.2526 19.2035 70.2526C19.7387 70.2526 20.2687 70.1472 20.7632 69.9423C21.2576 69.7375 21.7069 69.4373 22.0853 69.0588C22.1121 69.032 22.1398 69.0064 22.1664 68.9797L31.2411 78.0546C31.4235 78.237 31.6709 78.3394 31.9288 78.3394C32.1868 78.3394 32.4342 78.237 32.6166 78.0546C33.9609 76.7073 34.7158 74.8818 34.7158 72.9786C34.7158 71.0754 33.9609 69.2499 32.6166 67.9026L28.5733 63.8593C30.92 62.3625 33.4231 61.1263 36.0381 60.1726L52.008 54.3654C52.1617 54.3095 52.2989 54.2157 52.4067 54.0927C52.5146 53.9698 52.5898 53.8216 52.6252 53.6619C52.6606 53.5022 52.6552 53.3361 52.6094 53.1791C52.5636 53.022 52.479 52.8791 52.3633 52.7634L45.3096 45.7094C46.3128 44.3266 46.79 42.6313 46.6554 40.9282C46.5208 39.2252 45.7832 37.6259 44.5752 36.4179C43.3672 35.2099 41.768 34.4723 40.0649 34.3377C38.3618 34.203 36.6666 34.6802 35.2838 35.6834L28.2288 28.6287C28.1131 28.513 27.9702 28.4284 27.8131 28.3826C27.6561 28.3368 27.49 28.3314 27.3303 28.3668C27.1706 28.4023 27.0224 28.4774 26.8994 28.5853C26.7765 28.6932 26.6827 28.8303 26.6268 28.9841L20.8197 44.9541C18.9053 50.1948 15.873 54.956 11.9335 58.907C11.5551 59.2855 11.2548 59.7348 11.05 60.2292C10.8452 60.7237 10.7397 61.2537 10.7397 61.7889C10.7397 62.3241 10.8452 62.8541 11.05 63.3486C11.2548 63.8431 11.5551 64.2924 11.9335 64.6708L16.3217 69.0588ZM31.2414 69.2781C32.1034 70.1405 32.6375 71.2766 32.7514 72.4905C32.8654 73.7045 32.5522 74.9202 31.8657 75.9278L23.5819 67.6441C24.6476 66.6903 25.7658 65.7969 26.9313 64.9681L31.2414 69.2781ZM43.1991 37.7931C44.042 38.636 44.5718 39.7414 44.7011 40.9264C44.8303 42.1115 44.5512 43.3051 43.9098 44.3099L36.6833 37.0834C37.6883 36.4435 38.8814 36.1651 40.0658 36.2942C41.2503 36.4232 42.3554 36.9519 43.1991 37.7932V37.7931ZM22.6478 45.6187L27.9326 31.0843L49.9082 53.0586L35.3736 58.3434C31.5009 59.7586 27.8678 61.7585 24.6004 64.2735L16.7179 56.3908C19.2327 53.1238 21.2325 49.491 22.6478 45.6187ZM13.3092 60.2827C14.0671 59.5247 14.794 58.7354 15.4899 57.9149L23.0776 65.5026C22.2586 66.1983 21.4694 66.9252 20.71 67.6835C20.3105 68.083 19.7686 68.3074 19.2037 68.3074C18.6387 68.3074 18.0968 68.083 17.6973 67.6835L13.3092 63.2952C13.1114 63.0974 12.9545 62.8625 12.8474 62.6041C12.7403 62.3457 12.6852 62.0687 12.6852 61.7889C12.6852 61.5092 12.7403 61.2322 12.8474 60.9737C12.9545 60.7153 13.1114 60.4805 13.3092 60.2827Z" fill="black"/>
<path d="M51.1519 44.9502C51.2703 44.998 51.3971 45.0219 51.5248 45.0207C51.6525 45.0195 51.7788 44.9931 51.8963 44.9431C52.0138 44.893 52.1204 44.8204 52.2098 44.7292C52.2993 44.638 52.3699 44.53 52.4176 44.4116C53.1922 42.4889 53.3842 40.381 52.97 38.35C52.5557 36.3191 51.5534 34.4547 50.0877 32.9891C48.622 31.5234 46.7577 30.5211 44.7268 30.1068C42.6958 29.6925 40.5879 29.8846 38.6652 30.6592C38.4259 30.7556 38.2348 30.9432 38.1338 31.1806C38.0328 31.418 38.0302 31.6858 38.1267 31.9251C38.2232 32.1644 38.4107 32.3555 38.6481 32.4565C38.8855 32.5575 39.1533 32.5601 39.3926 32.4636C40.9613 31.8317 42.6813 31.675 44.3384 32.013C45.9955 32.3511 47.5166 33.1689 48.7124 34.3648C49.9083 35.5607 50.7261 37.0818 51.0641 38.7389C51.4022 40.396 51.2454 42.1159 50.6135 43.6847C50.5171 43.9239 50.5197 44.1916 50.6206 44.4289C50.7216 44.6663 50.9127 44.8538 51.1519 44.9502Z" fill="black"/>
<path d="M55.8848 46.7583C56.0033 46.8061 56.13 46.83 56.2577 46.8288C56.3855 46.8275 56.5117 46.8011 56.6292 46.7511C56.7468 46.7011 56.8533 46.6283 56.9428 46.5371C57.0322 46.4459 57.1028 46.338 57.1505 46.2195C58.2937 43.3824 58.5774 40.2717 57.9662 37.2746C57.355 34.2776 55.8759 31.5264 53.713 29.3635C51.5501 27.2006 48.7989 25.7216 45.8018 25.1104C42.8048 24.4992 39.6941 24.7829 36.857 25.9261C36.7376 25.9732 36.6287 26.0435 36.5366 26.1328C36.4445 26.2222 36.371 26.3289 36.3203 26.4468C36.2696 26.5647 36.2427 26.6915 36.2413 26.8198C36.2398 26.9481 36.2637 27.0755 36.3117 27.1945C36.3597 27.3135 36.4307 27.4219 36.5208 27.5134C36.6108 27.6048 36.718 27.6775 36.8363 27.7274C36.9546 27.7772 37.0816 27.8031 37.2099 27.8036C37.3382 27.8041 37.4654 27.7793 37.5841 27.7304C40.0673 26.7298 42.7899 26.4815 45.4132 27.0164C48.0364 27.5514 50.4445 28.846 52.3375 30.7391C54.2306 32.6322 55.5252 35.0402 56.0601 37.6635C56.5951 40.2867 56.3467 43.0094 55.3461 45.4926C55.2983 45.6111 55.2744 45.7378 55.2756 45.8655C55.2768 45.9933 55.3032 46.1195 55.3533 46.237C55.4033 46.3546 55.476 46.4611 55.5672 46.5506C55.6584 46.64 55.7663 46.7106 55.8848 46.7583Z" fill="black"/>
<path d="M66.7283 1.62109C63.8307 1.62109 60.9981 2.48034 58.5888 4.09017C56.1795 5.7 54.3017 7.98812 53.1929 10.6652C52.084 13.3422 51.7939 16.288 52.3592 19.1299C52.9244 21.9719 54.3198 24.5824 56.3687 26.6313C58.4176 28.6802 61.0281 30.0756 63.8701 30.6409C66.712 31.2062 69.6578 30.916 72.3348 29.8071C75.0119 28.6983 77.3 26.8205 78.9098 24.4112C80.5197 22.0019 81.3789 19.1693 81.3789 16.2717C81.3745 12.3875 79.8296 8.66358 77.083 5.917C74.3364 3.17042 70.6125 1.62547 66.7283 1.62109ZM66.7283 28.9771C64.2154 28.9771 61.759 28.2319 59.6696 26.8358C57.5802 25.4397 55.9517 23.4554 54.9901 21.1338C54.0285 18.8123 53.7768 16.2576 54.2671 13.793C54.7573 11.3285 55.9674 9.06458 57.7443 7.28771C59.5211 5.51084 61.785 4.30077 64.2496 3.81054C66.7142 3.3203 69.2688 3.57191 71.5904 4.53354C73.912 5.49518 75.8963 7.12365 77.2924 9.21303C78.6884 11.3024 79.4336 13.7589 79.4336 16.2717C79.4298 19.6402 78.09 22.8696 75.7081 25.2515C73.3262 27.6334 70.0968 28.9732 66.7283 28.9771Z" fill="#00CCFF"/>
<path d="M71.9907 14.5704C72.7094 14.5705 73.4121 14.3576 74.0099 13.9587C74.6078 13.5598 75.0741 12.9926 75.3499 12.3289C75.6257 11.6652 75.6987 10.9347 75.5597 10.2295C75.4206 9.52433 75.0758 8.87617 74.5686 8.36684C74.0615 7.8575 73.4149 7.50983 72.7103 7.36771C72.0058 7.22559 71.2749 7.2954 70.61 7.56832C69.9451 7.84124 69.3759 8.30504 68.9744 8.90116C68.5729 9.49729 68.357 10.199 68.3539 10.9177L63.8432 13.5227C63.3202 13.0696 62.6787 12.7751 61.9941 12.6739C61.3096 12.5726 60.6103 12.6687 59.9785 12.951C59.3467 13.2332 58.8085 13.6898 58.4271 14.2672C58.0457 14.8447 57.8369 15.5189 57.8253 16.2108C57.8137 16.9027 57.9997 17.5836 58.3616 18.1735C58.7234 18.7633 59.246 19.2378 59.868 19.541C60.49 19.8443 61.1856 19.9638 61.8732 19.8856C62.5607 19.8073 63.2117 19.5345 63.7497 19.0992L68.3743 21.997C68.4665 22.866 68.8683 23.6728 69.5062 24.2701C70.1441 24.8673 70.9756 25.2152 71.8488 25.25C72.722 25.2849 73.5786 25.0044 74.2621 24.4599C74.9456 23.9154 75.4104 23.1432 75.5716 22.2843C75.7328 21.4254 75.5796 20.5372 75.14 19.7819C74.7004 19.0266 74.0038 18.4547 73.1773 18.1706C72.3509 17.8865 71.4499 17.9092 70.6388 18.2346C69.8278 18.56 69.1608 19.1662 68.7598 19.9427L64.8841 17.5143C65.1618 16.7511 65.1756 15.9168 64.9235 15.1447L68.9005 12.848C69.2265 13.3743 69.6814 13.8087 70.2221 14.1102C70.7629 14.4116 71.3716 14.57 71.9907 14.5704ZM71.9907 9.24137C72.3253 9.24134 72.6524 9.34055 72.9307 9.52644C73.209 9.71233 73.4258 9.97656 73.5539 10.2857C73.682 10.5949 73.7155 10.9351 73.6503 11.2633C73.585 11.5915 73.4239 11.893 73.1873 12.1296C72.9507 12.3663 72.6492 12.5274 72.321 12.5927C71.9928 12.658 71.6526 12.6245 71.3434 12.4965C71.0342 12.3684 70.77 12.1516 70.5841 11.8733C70.3981 11.5951 70.2989 11.268 70.2989 10.9333C70.2994 10.4848 70.4778 10.0547 70.795 9.73756C71.1121 9.42037 71.5421 9.24193 71.9907 9.24137ZM61.4659 17.9638C61.1312 17.9638 60.8041 17.8646 60.5259 17.6787C60.2477 17.4928 60.0308 17.2285 59.9027 16.9194C59.7747 16.6102 59.7412 16.27 59.8065 15.9418C59.8717 15.6136 60.0329 15.3121 60.2695 15.0755C60.5061 14.8389 60.8076 14.6778 61.1358 14.6125C61.464 14.5472 61.8042 14.5807 62.1134 14.7088C62.4225 14.8368 62.6868 15.0537 62.8727 15.3319C63.0586 15.6101 63.1578 15.9373 63.1578 16.2719C63.1573 16.7205 62.9789 17.1505 62.6617 17.4677C62.3445 17.7849 61.9145 17.9633 61.4659 17.9638ZM71.9907 19.9187C72.3253 19.9187 72.6525 20.0179 72.9307 20.2038C73.209 20.3897 73.4259 20.6539 73.5539 20.9631C73.682 21.2723 73.7155 21.6125 73.6503 21.9407C73.585 22.2689 73.4238 22.5704 73.1872 22.807C72.9506 23.0437 72.6491 23.2048 72.3209 23.2701C71.9927 23.3354 71.6525 23.3018 71.3433 23.1738C71.0341 23.0457 70.7699 22.8288 70.584 22.5505C70.3981 22.2723 70.2989 21.9451 70.2989 21.6105C70.2994 21.162 70.4778 20.7319 70.795 20.4148C71.1121 20.0976 71.5421 19.9192 71.9907 19.9187ZM66.7283 52.0778C63.8307 52.0778 60.9981 52.937 58.5888 54.5469C56.1795 56.1567 54.3017 58.4448 53.1929 61.1219C52.084 63.7989 51.7939 66.7447 52.3592 69.5866C52.9244 72.4286 54.3198 75.0391 56.3687 77.088C58.4176 79.1369 61.0281 80.5323 63.8701 81.0976C66.712 81.6629 69.6578 81.3727 72.3348 80.2639C75.0119 79.155 77.3 77.2772 78.9098 74.8679C80.5197 72.4586 81.3789 69.6261 81.3789 66.7284C81.3745 62.8442 79.8296 59.1203 77.083 56.3737C74.3364 53.6271 70.6125 52.0822 66.7283 52.0778ZM66.7283 79.4338C64.2154 79.4338 61.759 78.6886 59.6696 77.2925C57.5802 75.8964 55.9517 73.9121 54.9901 71.5906C54.0285 69.269 53.7768 66.7143 54.2671 64.2498C54.7573 61.7852 55.9674 59.5213 57.7443 57.7444C59.5211 55.9675 61.785 54.7575 64.2496 54.2672C66.7142 53.777 69.2688 54.0286 71.5904 54.9902C73.912 55.9519 75.8963 57.5804 77.2924 59.6697C78.6884 61.7591 79.4336 64.2156 79.4336 66.7284C79.4298 70.0969 78.09 73.3264 75.7081 75.7082C73.3262 78.0901 70.0968 79.4299 66.7283 79.4338Z" fill="#00CCFF"/>
<path d="M72.7435 65.901L64.7758 60.9729C64.6285 60.8818 64.4596 60.8317 64.2864 60.8277C64.1133 60.8238 63.9422 60.8661 63.7909 60.9504C63.6396 61.0347 63.5135 61.1578 63.4257 61.3071C63.338 61.4564 63.2916 61.6265 63.2915 61.7997V71.6559C63.2916 71.8291 63.338 71.9992 63.4257 72.1485C63.5135 72.2978 63.6396 72.4209 63.7909 72.5052C63.9422 72.5895 64.1133 72.6318 64.2864 72.6279C64.4596 72.6239 64.6285 72.5738 64.7758 72.4827L72.7435 67.5546C72.8845 67.4674 73.0008 67.3456 73.0815 67.2008C73.1622 67.0561 73.2046 66.8931 73.2046 66.7273C73.2046 66.5616 73.1622 66.3986 73.0815 66.2538C73.0008 66.109 72.8845 65.9872 72.7435 65.9001V65.901ZM65.2369 69.9111V63.5454L70.3829 66.7283L65.2369 69.9111ZM16.2717 30.9224C19.1693 30.9224 22.0019 30.0631 24.4112 28.4533C26.8205 26.8435 28.6983 24.5553 29.8071 21.8783C30.916 19.2012 31.2062 16.2555 30.6409 13.4135C30.0756 10.5716 28.6802 7.9611 26.6313 5.91217C24.5824 3.86324 21.9719 2.46791 19.1299 1.90261C16.288 1.33731 13.3422 1.62744 10.6652 2.73631C7.98812 3.84519 5.7 5.72299 4.09017 8.13228C2.48034 10.5416 1.62109 13.3741 1.62109 16.2717C1.62547 20.156 3.17042 23.8799 5.917 26.6265C8.66358 29.373 12.3875 30.918 16.2717 30.9224ZM16.2717 3.56641C18.7846 3.56641 21.241 4.31157 23.3304 5.70765C25.4198 7.10372 27.0483 9.08803 28.0099 11.4096C28.9716 13.7312 29.2232 16.2858 28.7329 18.7504C28.2427 21.215 27.0326 23.4789 25.2557 25.2558C23.4789 27.0326 21.215 28.2427 18.7504 28.7329C16.2858 29.2232 13.7312 28.9716 11.4096 28.0099C9.08802 27.0483 7.10372 25.4198 5.70764 23.3304C4.31156 21.2411 3.56641 18.7846 3.56641 16.2717C3.57022 12.9032 4.91004 9.67382 7.29193 7.29193C9.67381 4.91005 12.9032 3.57023 16.2717 3.56641Z" fill="#00CCFF"/>
<path d="M10.2939 22.0887H17.2548C17.9424 22.0879 18.6017 21.8144 19.088 21.3282C19.5742 20.8419 19.8477 20.1826 19.8485 19.4949V19.3406L23.4028 21.2908C23.5509 21.3721 23.7176 21.4133 23.8865 21.4106C24.0554 21.4078 24.2207 21.3611 24.3661 21.2751C24.5114 21.189 24.6319 21.0666 24.7156 20.9198C24.7992 20.7731 24.8433 20.607 24.8433 20.4381V12.1057C24.8432 11.9367 24.7992 11.7707 24.7155 11.624C24.6318 11.4772 24.5113 11.3548 24.366 11.2687C24.2206 11.1827 24.0553 11.136 23.8863 11.1333C23.7174 11.1305 23.5507 11.1719 23.4026 11.2531L19.8485 13.2038V13.0488C19.8477 12.3612 19.5742 11.7019 19.088 11.2156C18.6017 10.7294 17.9424 10.4559 17.2548 10.4551H10.2939C9.60626 10.4558 8.94696 10.7293 8.46069 11.2156C7.97443 11.7018 7.70092 12.3611 7.7002 13.0488V19.4949C7.70092 20.1826 7.97443 20.8419 8.46069 21.3282C8.94696 21.8145 9.60626 22.088 10.2939 22.0887ZM22.8979 13.7491V18.7948L19.8485 17.1217V15.4229L22.8979 13.7491ZM9.64551 13.0488C9.64551 12.8769 9.71383 12.7119 9.83543 12.5903C9.95704 12.4687 10.122 12.4004 10.2939 12.4004H17.2548C17.4267 12.4004 17.5917 12.4687 17.7133 12.5903C17.8349 12.7119 17.9032 12.8769 17.9032 13.0488V19.4949C17.9032 19.6669 17.8349 19.8319 17.7133 19.9535C17.5917 20.0751 17.4267 20.1434 17.2548 20.1434H10.2939C10.122 20.1434 9.95704 20.0751 9.83543 19.9535C9.71383 19.8319 9.64551 19.6669 9.64551 19.4949V13.0488Z" fill="#00CCFF"/>
</svg>
