<svg width="100" height="100" viewBox="0 0 100 100" fill="none" xmlns="http://www.w3.org/2000/svg">
<path d="M31.25 59.375C30.8156 59.375 30.4031 59.5547 30.1062 59.8719C29.8109 60.1891 29.6609 60.6156 29.6906 61.0484L31.2531 82.9234C31.3125 83.7422 31.9937 84.375 32.8125 84.375H67.1875C68.0062 84.375 68.6875 83.7422 68.7469 82.9234L70.3094 61.0484C70.3406 60.6156 70.1891 60.1891 69.8937 59.8719C69.5969 59.5547 69.1844 59.375 68.75 59.375H65.4641L64.0016 54.2594C63.8922 53.8766 63.6422 53.55 63.3 53.3469L57.2219 49.7203C58.5656 48.0969 59.375 46.0172 59.375 43.75C59.375 38.5797 55.1703 34.375 50 34.375C44.8297 34.375 40.625 38.5797 40.625 43.75C40.625 46.0172 41.4344 48.0969 42.7766 49.7203L36.6984 53.3469C36.3563 53.55 36.1063 53.8766 35.9969 54.2594L34.5359 59.375H31.25ZM65.7328 81.25H34.2672L32.9281 62.5H35.7141H64.2859H67.0719L65.7328 81.25ZM50 37.5C53.4469 37.5 56.25 40.3031 56.25 43.75C56.25 45.7969 55.2469 47.6016 53.7219 48.7422C53.7188 48.7437 53.7156 48.7453 53.7125 48.7469C53.4562 48.9375 53.1891 49.1 52.9141 49.2453C52.8797 49.2641 52.8469 49.2828 52.8109 49.3016C52.5438 49.4375 52.2687 49.5516 51.9875 49.6453C51.9406 49.6609 51.8937 49.6734 51.8469 49.6891C50.6437 50.0641 49.3547 50.0641 48.1516 49.6891C48.1047 49.675 48.0578 49.6609 48.0125 49.6453C47.7328 49.5516 47.4562 49.4375 47.1891 49.3016C47.1547 49.2844 47.1203 49.2641 47.0859 49.2453C46.8109 49.1 46.5422 48.9359 46.2875 48.7469C46.2844 48.7453 46.2812 48.7437 46.2781 48.7422C44.7531 47.6016 43.75 45.7969 43.75 43.75C43.75 40.3031 46.5531 37.5 50 37.5ZM38.8328 55.7109L45.3031 51.85C46.6859 52.6562 48.2875 53.125 50 53.125C51.7125 53.125 53.3141 52.6563 54.6969 51.8516L61.1672 55.7125L62.2141 59.375H37.7859L38.8328 55.7109ZM95.3125 87.5H4.6875C3.825 87.5 3.125 88.1984 3.125 89.0625V95.3125C3.125 96.1766 3.825 96.875 4.6875 96.875H95.3125C96.175 96.875 96.875 96.1766 96.875 95.3125V89.0625C96.875 88.1984 96.175 87.5 95.3125 87.5ZM93.75 93.75H6.25V90.625H93.75V93.75Z" fill="black"/>
<path d="M76.5625 70.3125H73.4375V73.4375H76.5625V70.3125Z" fill="black"/>
<path d="M82.8125 70.3125H79.6875V73.4375H82.8125V70.3125Z" fill="black"/>
<path d="M89.0625 70.3125H85.9375V73.4375H89.0625V70.3125Z" fill="black"/>
<path d="M89.0625 64.0625H85.9375V67.1875H89.0625V64.0625Z" fill="black"/>
<path d="M89.0625 57.8125H85.9375V60.9375H89.0625V57.8125Z" fill="black"/>
<path d="M89.0625 51.5625H85.9375V54.6875H89.0625V51.5625Z" fill="black"/>
<path d="M89.0625 45.3125H85.9375V48.4375H89.0625V45.3125Z" fill="black"/>
<path d="M89.0625 39.0625H85.9375V42.1875H89.0625V39.0625Z" fill="black"/>
<path d="M89.0625 32.8125H85.9375V35.9375H89.0625V32.8125Z" fill="black"/>
<path d="M26.5625 70.3125H23.4375V73.4375H26.5625V70.3125Z" fill="black"/>
<path d="M20.3125 70.3125H17.1875V73.4375H20.3125V70.3125Z" fill="black"/>
<path d="M14.0625 70.3125H10.9375V73.4375H14.0625V70.3125Z" fill="black"/>
<path d="M14.0625 64.0625H10.9375V67.1875H14.0625V64.0625Z" fill="black"/>
<path d="M14.0625 57.8125H10.9375V60.9375H14.0625V57.8125Z" fill="black"/>
<path d="M14.0625 51.5625H10.9375V54.6875H14.0625V51.5625Z" fill="black"/>
<path d="M14.0625 43.75H10.9375V46.875H14.0625V43.75Z" fill="black"/>
<path d="M14.0625 37.5H10.9375V40.625H14.0625V37.5Z" fill="black"/>
<path d="M14.0625 31.25H10.9375V34.375H14.0625V31.25Z" fill="black"/>
<path d="M53.125 70.3125H46.875V73.4375H53.125V70.3125Z" fill="black"/>
<path d="M14.5202 9.83301L9.83271 14.5205C9.22178 15.1314 9.22178 16.1189 9.83271 16.7299L14.5202 21.4174L16.7296 19.208L13.1468 15.6252L16.7296 12.0424L14.5202 9.83301ZM32.3546 9.83301L30.1452 12.0424L33.728 15.6252L30.1452 19.208L32.3546 21.4174L37.0421 16.7299C37.653 16.1189 37.653 15.1314 37.0421 14.5205L32.3546 9.83301Z" fill="black"/>
<path d="M25.1648 8.67664L18.915 21.1763L21.7101 22.5738L27.9599 10.0742L25.1648 8.67664Z" fill="black"/>
<path d="M4.6875 28.125H42.1875C43.05 28.125 43.75 27.4266 43.75 26.5625V4.6875C43.75 3.82344 43.05 3.125 42.1875 3.125H4.6875C3.825 3.125 3.125 3.82344 3.125 4.6875V26.5625C3.125 27.4266 3.825 28.125 4.6875 28.125ZM6.25 6.25H40.625V25H6.25V6.25ZM82.8125 10.9375C79.3656 10.9375 76.5625 13.7406 76.5625 17.1875C76.5625 20.6344 79.3656 23.4375 82.8125 23.4375C86.2594 23.4375 89.0625 20.6344 89.0625 17.1875C89.0625 13.7406 86.2594 10.9375 82.8125 10.9375ZM82.8125 20.3125C81.0891 20.3125 79.6875 18.9109 79.6875 17.1875C79.6875 15.4641 81.0891 14.0625 82.8125 14.0625C84.5359 14.0625 85.9375 15.4641 85.9375 17.1875C85.9375 18.9109 84.5359 20.3125 82.8125 20.3125Z" fill="black"/>
<path d="M95.3125 12.5H94.4C94.3734 12.4359 94.3484 12.3719 94.3219 12.3094L94.9672 11.6641C95.2609 11.3703 95.425 10.975 95.425 10.5594C95.425 10.1453 95.2609 9.74688 94.9672 9.45469L90.5469 5.03437C89.9609 4.44844 88.9234 4.44844 88.3359 5.03437L87.6906 5.67969C87.6281 5.65313 87.5641 5.62656 87.5 5.6V4.6875C87.5 3.82344 86.8 3.125 85.9375 3.125H79.6875C78.825 3.125 78.125 3.82344 78.125 4.6875V5.6C78.0609 5.62656 77.9969 5.65313 77.9328 5.67969L77.2875 5.03437C76.9938 4.74062 76.5969 4.57656 76.1813 4.57656C75.7656 4.57656 75.3687 4.74062 75.0766 5.03437L70.6563 9.45469C70.3625 9.74844 70.1984 10.1453 70.1984 10.5594C70.1984 10.975 70.3625 11.3719 70.6563 11.6641L71.3016 12.3094C71.275 12.3719 71.2484 12.4359 71.2234 12.5H70.3125C69.45 12.5 68.75 13.1984 68.75 14.0625V20.3125C68.75 21.1766 69.45 21.875 70.3125 21.875H71.225C71.2516 21.9391 71.2781 22.0031 71.3047 22.0672L70.6594 22.7109C70.3656 23.0047 70.2016 23.4 70.2016 23.8156C70.2016 24.2297 70.3656 24.6281 70.6594 24.9203L75.0797 29.3406C75.6656 29.9266 76.7031 29.9266 77.2906 29.3406L77.9359 28.6953C78 28.7219 78.0641 28.7484 78.1281 28.775V29.6875C78.1281 30.5516 78.8281 31.25 79.6906 31.25H85.9406C86.8031 31.25 87.5031 30.5516 87.5031 29.6875V28.775C87.5672 28.7484 87.6313 28.7219 87.6953 28.6953L88.3406 29.3406C88.6344 29.6344 89.0312 29.7984 89.4469 29.7984C89.8625 29.7984 90.2594 29.6344 90.5516 29.3406L94.9719 24.9203C95.2656 24.6266 95.4297 24.2297 95.4297 23.8156C95.4297 23.4 95.2656 23.0031 94.9719 22.7109L94.3266 22.0672C94.3531 22.0031 94.3797 21.9391 94.4062 21.875H95.3125C96.175 21.875 96.875 21.1766 96.875 20.3125V14.0625C96.875 13.1984 96.175 12.5 95.3125 12.5ZM93.75 18.75H93.2906C92.6 18.75 91.9891 19.2047 91.7938 19.8672C91.6063 20.4984 91.3594 21.0969 91.0625 21.6453C90.7328 22.2547 90.8422 23.0078 91.3312 23.4969L91.6516 23.8172L89.4422 26.0281L89.1219 25.7062C88.6344 25.2188 87.8813 25.1109 87.2703 25.4375C86.725 25.7328 86.1266 25.9797 85.4906 26.1703C84.8297 26.3656 84.375 26.975 84.375 27.6656V28.125H81.25V27.6656C81.25 26.975 80.7953 26.3656 80.1344 26.1687C79.4984 25.9781 78.9 25.7328 78.3547 25.4359C77.7469 25.1078 76.9922 25.2156 76.5031 25.7047L76.1828 26.0266L73.9734 23.8156L74.2938 23.4953C74.7828 23.0078 74.8938 22.2531 74.5625 21.6438C74.2656 21.0953 74.0187 20.4984 73.8312 19.8656C73.6344 19.2047 73.025 18.75 72.3344 18.75H71.875V15.625H72.3344C73.025 15.625 73.6359 15.1703 73.8312 14.5078C74.0187 13.8781 74.2641 13.2797 74.5641 12.7281C74.8938 12.1187 74.7844 11.3672 74.2938 10.8781L73.9734 10.5578L76.1828 8.34688L76.5031 8.66875C76.9922 9.15781 77.7484 9.26875 78.3547 8.9375C78.9 8.64219 79.4984 8.39531 80.1344 8.20469C80.7953 8.00938 81.25 7.4 81.25 6.70938V6.25H84.375V6.70938C84.375 7.4 84.8297 8.00937 85.4906 8.20625C86.1266 8.39687 86.725 8.64219 87.2703 8.93906C87.8781 9.26875 88.6312 9.15937 89.1219 8.67031L89.4422 8.34844L91.6516 10.5594L91.3312 10.8797C90.8422 11.3672 90.7312 12.1203 91.0609 12.7297C91.3594 13.2812 91.6063 13.8781 91.7938 14.5094C91.9906 15.1703 92.6 15.625 93.2906 15.625H93.75V18.75Z" fill="black"/>
<path d="M37.0427 30.1457L34.833 32.3555L39.521 37.0433L41.7307 34.8335L37.0427 30.1457Z" fill="black"/>
<path d="M62.9583 30.1445L58.2705 34.8325L60.4803 37.0422L65.1681 32.3542L62.9583 30.1445Z" fill="black"/>
<path d="M51.5625 23.4375H48.4375V28.125H51.5625V23.4375Z" fill="black"/>
</svg>
