<svg width="188" height="188" viewBox="0 0 188 188" fill="none" xmlns="http://www.w3.org/2000/svg">
<path d="M16.1562 124.109H51.4062V132.922H16.1562V124.109Z" fill="#ECF0F1"/>
<path d="M16.1562 163.031V132.922H51.4062V163.031" fill="#2C3E50"/>
<path d="M51.7734 65.1772C51.05 65.1769 50.3336 65.3191 49.6652 65.5957C48.9968 65.8724 48.3895 66.2781 47.878 66.7896C47.3664 67.3011 46.9608 67.9084 46.6841 68.5769C46.4074 69.2453 46.2652 69.9617 46.2656 70.6851V67.9297C46.2656 66.4689 45.6853 65.068 44.6524 64.0351C43.6195 63.0022 42.2186 62.4219 40.7578 62.4219C39.297 62.4219 37.8961 63.0022 36.8632 64.0351C35.8303 65.068 35.25 66.4689 35.25 67.9297V70.6851C35.25 69.2243 34.6697 67.8234 33.6368 66.7905C32.6039 65.7575 31.203 65.1772 29.7422 65.1772C28.2814 65.1772 26.8805 65.7575 25.8476 66.7905C24.8147 67.8234 24.2344 69.2243 24.2344 70.6851V73.4375C24.2344 71.9767 23.6541 70.5758 22.6212 69.5429C21.5883 68.51 20.1873 67.9297 18.7266 67.9297C17.2658 67.9297 15.8649 68.51 14.832 69.5429C13.799 70.5758 13.2188 71.9767 13.2188 73.4375V106.484C13.2188 110.553 15.4483 114.063 18.7266 115.972V124.109H49.021V116.337C51.4753 115.267 53.5642 113.504 55.0318 111.265C56.4995 109.025 57.2822 106.406 57.2842 103.729V70.6821C57.2826 69.2216 56.7014 67.8214 55.6681 66.7892C54.6348 65.757 53.234 65.1772 51.7734 65.1772Z" fill="#F0C9AE"/>
<path d="M133.656 124.109H168.906V132.922H133.656V124.109Z" fill="#ECF0F1"/>
<path d="M133.656 163.031V132.922H168.906V163.031" fill="#2C3E50"/>
<path d="M169.273 65.1772C168.55 65.1769 167.834 65.3191 167.165 65.5957C166.497 65.8724 165.889 66.2781 165.378 66.7896C164.866 67.3011 164.461 67.9084 164.184 68.5769C163.907 69.2453 163.765 69.9617 163.766 70.6851V67.9297C163.766 66.4689 163.185 65.068 162.152 64.0351C161.12 63.0022 159.719 62.4219 158.258 62.4219C156.797 62.4219 155.396 63.0022 154.363 64.0351C153.33 65.068 152.75 66.4689 152.75 67.9297V70.6851C152.75 69.2243 152.17 67.8234 151.137 66.7905C150.104 65.7575 148.703 65.1772 147.242 65.1772C145.781 65.1772 144.38 65.7575 143.348 66.7905C142.315 67.8234 141.734 69.2243 141.734 70.6851V73.4375C141.734 71.9767 141.154 70.5758 140.121 69.5429C139.088 68.51 137.687 67.9297 136.227 67.9297C134.766 67.9297 133.365 68.51 132.332 69.5429C131.299 70.5758 130.719 71.9767 130.719 73.4375V106.484C130.719 110.553 132.948 114.063 136.227 115.972V124.109H166.521V116.337C168.975 115.267 171.064 113.504 172.532 111.265C173.999 109.025 174.782 106.406 174.784 103.729V70.6821C174.783 69.2216 174.201 67.8214 173.168 66.7892C172.135 65.757 170.734 65.1772 169.273 65.1772V65.1772Z" fill="#F0C9AE"/>
<path d="M69.0312 103.547H116.031V112.359H69.0312V103.547Z" fill="#ECF0F1"/>
<path d="M69.0312 163.031V112.359H116.031V163.031" fill="#2C3E50"/>
<path d="M114.93 28.4585C113.079 28.4585 111.305 29.1935 109.997 30.5019C108.688 31.8102 107.953 33.5848 107.953 35.4351V31.9453C107.953 30.095 107.218 28.3205 105.91 27.0121C104.601 25.7038 102.827 24.9688 100.977 24.9688C99.1263 24.9688 97.3517 25.7038 96.0434 27.0121C94.735 28.3205 94 30.095 94 31.9453V35.4351C94 33.5848 93.265 31.8102 91.9566 30.5019C90.6483 29.1935 88.8737 28.4585 87.0234 28.4585C85.1731 28.4585 83.3986 29.1935 82.0903 30.5019C80.7819 31.8102 80.0469 33.5848 80.0469 35.4351V38.9248C80.0473 37.0745 79.3126 35.2998 78.0045 33.9912C76.6964 32.6826 74.9221 31.9472 73.0718 31.9468C71.2215 31.9464 69.4468 32.681 68.1382 33.9891C66.8295 35.2972 66.0941 37.0716 66.0938 38.9219V80.7812C66.0938 85.9336 68.9167 90.381 73.0703 92.7986V103.547H111.443V93.2627C114.551 91.9074 117.197 89.6749 119.056 86.8386C120.915 84.0024 121.907 80.6856 121.909 77.2944V35.4351C121.908 33.5845 121.173 31.81 119.864 30.5017C118.555 29.1934 116.78 28.4585 114.93 28.4585V28.4585Z" fill="#F0C9AE"/>
<path d="M80.0469 96.2029C75.9582 96.1982 72.0383 94.5719 69.1471 91.6808C66.256 88.7896 64.6297 84.8697 64.625 80.781V44.1533C64.625 43.7638 64.7797 43.3902 65.0552 43.1148C65.3306 42.8393 65.7042 42.6846 66.0938 42.6846C66.4833 42.6846 66.8569 42.8393 67.1323 43.1148C67.4078 43.3902 67.5625 43.7638 67.5625 44.1533V80.781C67.5656 84.0911 68.8819 87.2648 71.2225 89.6054C73.5631 91.946 76.7368 93.2623 80.0469 93.2654C80.4364 93.2654 80.81 93.4201 81.0854 93.6956C81.3609 93.971 81.5156 94.3446 81.5156 94.7341C81.5156 95.1237 81.3609 95.4973 81.0854 95.7727C80.81 96.0481 80.4364 96.2029 80.0469 96.2029ZM104.466 96.2029C104.077 96.2029 103.703 96.0481 103.428 95.7727C103.152 95.4973 102.998 95.1237 102.998 94.7341C102.998 94.3446 103.152 93.971 103.428 93.6956C103.703 93.4201 104.077 93.2654 104.466 93.2654C108.701 93.2607 112.762 91.5762 115.757 88.5815C118.751 85.5868 120.436 81.5264 120.44 77.2913V44.1533C120.44 43.7638 120.595 43.3902 120.871 43.1148C121.146 42.8393 121.52 42.6846 121.909 42.6846C122.299 42.6846 122.672 42.8393 122.948 43.1148C123.223 43.3902 123.378 43.7638 123.378 44.1533V77.2913C123.372 82.305 121.377 87.1117 117.832 90.6569C114.287 94.2022 109.48 96.1967 104.466 96.2029Z" fill="#212E3A"/>
<path d="M73.0703 54.3438C70.8314 54.3406 68.6851 53.4499 67.102 51.8667C65.5189 50.2836 64.6281 48.1373 64.625 45.8984V38.9219C64.625 34.2659 68.4144 30.4766 73.0703 30.4766C77.7263 30.4766 81.5156 34.2659 81.5156 38.9219V45.8984C81.5125 48.1373 80.6217 50.2836 79.0386 51.8667C77.4555 53.4499 75.3092 54.3406 73.0703 54.3438ZM73.0703 33.4141C71.61 33.4156 70.21 33.9964 69.1774 35.029C68.1448 36.0616 67.5641 37.4616 67.5625 38.9219V45.8984C67.5625 48.9358 70.0329 51.4062 73.0703 51.4062C76.1077 51.4062 78.5781 48.9358 78.5781 45.8984V38.9219C78.5766 37.4616 77.9958 36.0616 76.9632 35.029C75.9306 33.9964 74.5306 33.4156 73.0703 33.4141V33.4141Z" fill="#212E3A"/>
<path d="M87.0234 54.3433C84.7846 54.3402 82.6383 53.4494 81.0551 51.8663C79.472 50.2831 78.5812 48.1368 78.5781 45.898V35.4316C78.5781 30.7757 82.3675 26.9863 87.0234 26.9863C91.6794 26.9863 95.4688 30.7757 95.4688 35.4316V45.898C95.4688 46.4796 95.4071 47.0641 95.2866 47.6369C95.2471 47.8258 95.1707 48.005 95.062 48.1643C94.9532 48.3236 94.814 48.46 94.6526 48.5655C94.4911 48.6711 94.3104 48.7438 94.1208 48.7795C93.9312 48.8153 93.7365 48.8133 93.5476 48.7738C93.3588 48.7342 93.1796 48.6579 93.0203 48.5491C92.861 48.4403 92.7246 48.3012 92.6191 48.1397C92.5135 47.9782 92.4408 47.7975 92.405 47.6079C92.3693 47.4184 92.3713 47.2236 92.4108 47.0348C92.4872 46.6617 92.5283 46.2798 92.5283 45.898V35.4316C92.5283 32.3943 90.0579 29.9238 87.0205 29.9238C83.9831 29.9238 81.5127 32.3943 81.5127 35.4316V45.898C81.5131 46.7796 81.725 47.6484 82.1305 48.4313C82.536 49.2142 83.1233 49.8884 83.8433 50.3974C84.5632 50.9064 85.3947 51.2353 86.268 51.3566C87.1413 51.4779 88.0309 51.388 88.8623 51.0944C89.0443 51.0299 89.2373 51.0021 89.4301 51.0126C89.623 51.0231 89.8118 51.0717 89.9857 51.1555C90.1597 51.2394 90.3153 51.3568 90.4437 51.5011C90.572 51.6454 90.6705 51.8137 90.7335 51.9962C90.7976 52.1783 90.825 52.3712 90.8143 52.5639C90.8037 52.7566 90.755 52.9452 90.6712 53.1191C90.5874 53.293 90.4702 53.4486 90.3261 53.577C90.182 53.7054 90.014 53.8041 89.8317 53.8674C88.9289 54.1823 87.9796 54.3431 87.0234 54.3433V54.3433Z" fill="#212E3A"/>
<path d="M94.2203 49.1121C93.8948 49.112 93.5785 49.0037 93.3211 48.8043C93.0638 48.605 92.88 48.3257 92.7986 48.0105C92.6202 47.3207 92.5303 46.611 92.5313 45.8984V31.9453C92.5313 27.2894 96.3206 23.5 100.977 23.5C105.633 23.5 109.422 27.2894 109.422 31.9453V45.8984C109.422 46.4801 109.36 47.0499 109.252 47.5963C109.174 47.9784 108.948 48.3141 108.623 48.5295C108.298 48.7449 107.901 48.8224 107.518 48.7449C107.136 48.6674 106.801 48.4412 106.585 48.1162C106.37 47.7912 106.292 47.3939 106.37 47.0117C106.443 46.6534 106.481 46.2803 106.481 45.8984V31.9453C106.448 30.507 105.854 29.1387 104.824 28.1332C103.795 27.1277 102.414 26.5647 100.975 26.5647C99.5364 26.5647 98.1547 27.1277 97.1257 28.1332C96.0967 29.1387 95.502 30.507 95.4688 31.9453V45.8984C95.4688 46.3626 95.5275 46.8267 95.645 47.2761C95.7011 47.4934 95.7067 47.7206 95.6613 47.9403C95.6159 48.1601 95.5208 48.3665 95.3833 48.5438C95.2457 48.721 95.0694 48.8644 94.8678 48.9629C94.6662 49.0614 94.4447 49.1125 94.2203 49.1121V49.1121Z" fill="#212E3A"/>
<path d="M121.906 56.5464C121.517 56.5464 121.143 56.3916 120.868 56.1162C120.592 55.8408 120.438 55.4672 120.438 55.0776V35.4316C120.438 32.3943 117.967 29.9238 114.93 29.9238C111.892 29.9238 109.422 32.3943 109.422 35.4316V47.7339C109.422 48.1234 109.267 48.497 108.992 48.7725C108.716 49.0479 108.343 49.2026 107.953 49.2026C107.564 49.2026 107.19 49.0479 106.915 48.7725C106.639 48.497 106.484 48.1234 106.484 47.7339V35.4316C106.484 30.7757 110.274 26.9863 114.93 26.9863C119.586 26.9863 123.375 30.7786 123.375 35.4346V55.0806C123.374 55.4696 123.219 55.8424 122.944 56.1172C122.668 56.392 122.295 56.5464 121.906 56.5464V56.5464Z" fill="#212E3A"/>
<path d="M121.906 60.4303C121.516 60.4303 121.143 60.2756 120.867 60.0002C120.592 59.7247 120.437 59.3511 120.437 58.9616C120.435 56.268 119.364 53.6854 117.46 51.7804C115.555 49.8755 112.973 48.8039 110.279 48.8008C109.89 48.8008 109.516 48.646 109.241 48.3706C108.965 48.0951 108.811 47.7216 108.811 47.332C108.811 46.9425 108.965 46.5689 109.241 46.2935C109.516 46.018 109.89 45.8633 110.279 45.8633C117.5 45.8633 123.375 51.7383 123.375 58.9616C123.375 59.3511 123.22 59.7247 122.944 60.0002C122.669 60.2756 122.295 60.4303 121.906 60.4303Z" fill="#212E3A"/>
<path d="M107.953 62.7539H96.3262C91.6702 62.7539 87.8809 58.9645 87.8809 54.3086C87.8809 49.6527 91.6702 45.8633 96.3262 45.8633H110.279C110.669 45.8633 111.042 46.018 111.318 46.2935C111.593 46.5689 111.748 46.9425 111.748 47.332C111.748 47.7216 111.593 48.0951 111.318 48.3706C111.042 48.646 110.669 48.8008 110.279 48.8008H96.3262C93.2888 48.8008 90.8184 51.2712 90.8184 54.3086C90.8184 57.346 93.2888 59.8164 96.3262 59.8164H107.953C108.342 59.8164 108.716 59.9712 108.991 60.2466C109.267 60.522 109.422 60.8956 109.422 61.2852C109.422 61.6747 109.267 62.0483 108.991 62.3237C108.716 62.5992 108.342 62.7539 107.953 62.7539Z" fill="#212E3A"/>
<path d="M98.6501 81.36C98.3598 81.36 98.0761 81.2739 97.8347 81.1127C97.5933 80.9515 97.4051 80.7224 97.2938 80.4543C97.1826 80.1862 97.1532 79.8911 97.2095 79.6064C97.2658 79.3216 97.4053 79.0599 97.6102 78.8543L106.484 69.9802V61.2852C106.484 60.8956 106.639 60.522 106.915 60.2466C107.19 59.9711 107.564 59.8164 107.953 59.8164C108.343 59.8164 108.716 59.9711 108.992 60.2466C109.267 60.522 109.422 60.8956 109.422 61.2852V70.5882C109.422 70.9789 109.266 71.352 108.993 71.6281L99.6899 80.9312C99.4136 81.2059 99.0397 81.3601 98.6501 81.36V81.36ZM111.443 105.016C111.053 105.016 110.68 104.861 110.404 104.586C110.129 104.31 109.974 103.936 109.974 103.547V93.2657C109.974 92.8762 110.129 92.5026 110.404 92.2271C110.68 91.9517 111.053 91.797 111.443 91.797C111.832 91.797 112.206 91.9517 112.481 92.2271C112.757 92.5026 112.912 92.8762 112.912 93.2657V103.547C112.912 103.936 112.757 104.31 112.481 104.586C112.206 104.861 111.832 105.016 111.443 105.016ZM73.0703 105.016C72.6808 105.016 72.3072 104.861 72.0318 104.586C71.7563 104.31 71.6016 103.936 71.6016 103.547V92.9896C71.6016 92.6001 71.7563 92.2265 72.0318 91.951C72.3072 91.6756 72.6808 91.5208 73.0703 91.5208C73.4599 91.5208 73.8334 91.6756 74.1089 91.951C74.3843 92.2265 74.5391 92.6001 74.5391 92.9896V103.547C74.5391 103.936 74.3843 104.31 74.1089 104.586C73.8334 104.861 73.4599 105.016 73.0703 105.016ZM24.2344 118.969C20.9243 118.966 17.7506 117.649 15.41 115.309C13.0694 112.968 11.7531 109.795 11.75 106.484V77.5677C11.75 77.1782 11.9047 76.8046 12.1802 76.5292C12.4556 76.2537 12.8292 76.099 13.2188 76.099C13.6083 76.099 13.9819 76.2537 14.2573 76.5292C14.5328 76.8046 14.6875 77.1782 14.6875 77.5677V106.484C14.6906 109.015 15.6974 111.442 17.4871 113.232C19.2769 115.021 21.7033 116.028 24.2344 116.031C24.6239 116.031 24.9975 116.186 25.2729 116.462C25.5484 116.737 25.7031 117.111 25.7031 117.5C25.7031 117.89 25.5484 118.263 25.2729 118.539C24.9975 118.814 24.6239 118.969 24.2344 118.969ZM43.5132 118.969C43.1237 118.969 42.7501 118.814 42.4746 118.539C42.1992 118.263 42.0444 117.89 42.0444 117.5C42.0444 117.111 42.1992 116.737 42.4746 116.462C42.7501 116.186 43.1237 116.031 43.5132 116.031C46.7748 116.027 49.9016 114.73 52.2079 112.424C54.5142 110.118 55.8116 106.991 55.8154 103.729V77.5677C55.8154 77.1782 55.9702 76.8046 56.2456 76.5292C56.5211 76.2537 56.8947 76.099 57.2842 76.099C57.6737 76.099 58.0473 76.2537 58.3228 76.5292C58.5982 76.8046 58.7529 77.1782 58.7529 77.5677V103.729C58.7475 107.769 57.1401 111.642 54.2833 114.499C51.4265 117.356 47.5534 118.963 43.5132 118.969V118.969Z" fill="#212E3A"/>
<path d="M18.7266 85.9219C16.8767 85.9203 15.1031 85.1848 13.7951 83.8768C12.4871 82.5687 11.7516 80.7951 11.75 78.9453V73.4375C11.75 69.5894 14.8784 66.4609 18.7266 66.4609C22.5747 66.4609 25.7031 69.5894 25.7031 73.4375V78.9453C25.7016 80.7951 24.966 82.5687 23.658 83.8768C22.35 85.1848 20.5764 85.9203 18.7266 85.9219V85.9219ZM18.7266 69.3984C16.4999 69.3984 14.6875 71.2109 14.6875 73.4375V78.9453C14.6875 81.1719 16.4999 82.9844 18.7266 82.9844C20.9532 82.9844 22.7656 81.1719 22.7656 78.9453V73.4375C22.7656 71.2109 20.9532 69.3984 18.7266 69.3984Z" fill="#212E3A"/>
<path d="M29.7422 85.9214C27.8924 85.9198 26.1188 85.1843 24.8107 83.8763C23.5027 82.5683 22.7672 80.7946 22.7656 78.9448V70.6816C22.7656 66.8335 25.8941 63.7051 29.7422 63.7051C33.5903 63.7051 36.7188 66.8335 36.7188 70.6816V78.9448C36.7181 79.4275 36.6679 79.9088 36.5689 80.3813C36.4816 80.7589 36.2514 81.088 35.9266 81.2994C35.6018 81.5109 35.2076 81.5882 34.827 81.5151C34.6381 81.4753 34.4589 81.3987 34.2997 81.2896C34.1404 81.1804 34.0043 81.041 33.899 80.8792C33.7937 80.7174 33.7213 80.5365 33.686 80.3467C33.6506 80.1569 33.6531 79.962 33.6931 79.7732C33.751 79.5009 33.7795 79.2232 33.7783 78.9448V70.6816C33.7783 68.455 31.9659 66.6426 29.7392 66.6426C27.5126 66.6426 25.7031 68.458 25.7031 70.6846V78.9478C25.7031 81.6326 28.5408 83.6478 31.0934 82.7577C31.8601 82.4786 32.6944 82.8928 32.9646 83.6595C33.2349 84.4262 32.8295 85.2634 32.0628 85.5307C31.3137 85.7892 30.5353 85.9214 29.7422 85.9214Z" fill="#212E3A"/>
<path d="M35.4223 81.7918C35.0956 81.7929 34.778 81.6844 34.5202 81.4836C34.2624 81.2828 34.0795 81.0014 34.0006 80.6843C33.8552 80.1161 33.7822 79.5318 33.7832 78.9453V67.9297C33.7832 64.0816 36.9117 60.9531 40.7598 60.9531C44.6079 60.9531 47.7363 64.0816 47.7363 67.9297V78.9453C47.7363 79.4241 47.6864 79.9 47.5924 80.3524C47.5564 80.5442 47.4824 80.7269 47.3749 80.8899C47.2675 81.0528 47.1286 81.1927 46.9664 81.3013C46.8043 81.41 46.6221 81.4852 46.4305 81.5226C46.2389 81.5601 46.0418 81.5589 45.8507 81.5193C45.6596 81.4797 45.4783 81.4023 45.3174 81.2918C45.1565 81.1813 45.0192 81.0398 44.9136 80.8757C44.808 80.7115 44.7362 80.5279 44.7024 80.3357C44.6686 80.1435 44.6734 79.9464 44.7166 79.7561C44.77 79.4891 44.7966 79.2175 44.7959 78.9453V67.9297C44.7959 65.7031 42.9835 63.8906 40.7568 63.8906C38.5302 63.8906 36.7178 65.7031 36.7178 67.9297V78.9453C36.7178 79.2861 36.7618 79.6268 36.8441 79.9617C36.8997 80.1784 36.9049 80.4049 36.8595 80.6239C36.814 80.8429 36.719 81.0486 36.5818 81.2252C36.4446 81.4019 36.2687 81.5447 36.0678 81.6429C35.8668 81.7411 35.646 81.792 35.4223 81.7918V81.7918Z" fill="#212E3A"/>
<path d="M57.2812 90.7275C56.8917 90.7275 56.5181 90.5728 56.2427 90.2974C55.9672 90.0219 55.8125 89.6483 55.8125 89.2588C55.8094 87.2147 54.996 85.2552 53.5506 83.8098C52.1052 82.3644 50.1457 81.551 48.1016 81.5479C47.712 81.5479 47.3384 81.3931 47.063 81.1177C46.7876 80.8422 46.6328 80.4686 46.6328 80.0791C46.6328 79.6896 46.7876 79.316 47.063 79.0405C47.3384 78.7651 47.712 78.6104 48.1016 78.6104C50.9247 78.6135 53.6314 79.7363 55.6277 81.7326C57.624 83.7289 58.7469 86.4356 58.75 89.2588C58.75 89.6483 58.5953 90.0219 58.3198 90.2974C58.0444 90.5728 57.6708 90.7275 57.2812 90.7275Z" fill="#212E3A"/>
<path d="M46.2656 92.5635H37.0859C33.2378 92.5635 30.1094 89.435 30.1094 85.5869C30.1094 81.7388 33.2378 78.6104 37.0859 78.6104H48.1016C48.4911 78.6104 48.8647 78.7651 49.1401 79.0405C49.4156 79.316 49.5703 79.6896 49.5703 80.0791C49.5703 80.4686 49.4156 80.8422 49.1401 81.1177C48.8647 81.3931 48.4911 81.5479 48.1016 81.5479H37.0859C34.8593 81.5479 33.0469 83.3603 33.0469 85.5869C33.0469 87.8135 34.8593 89.626 37.0859 89.626H46.2656C46.6552 89.626 47.0287 89.7807 47.3042 90.0562C47.5796 90.3316 47.7344 90.7052 47.7344 91.0947C47.7344 91.4843 47.5796 91.8578 47.3042 92.1333C47.0287 92.4087 46.6552 92.5635 46.2656 92.5635Z" fill="#212E3A"/>
<path d="M38.9219 107.252C38.6316 107.251 38.3479 107.165 38.1065 107.004C37.8651 106.843 37.6769 106.614 37.5656 106.346C37.4544 106.078 37.425 105.783 37.4813 105.498C37.5376 105.213 37.6771 104.951 37.882 104.746L44.7969 97.831V91.0953C44.7969 90.7058 44.9516 90.3322 45.2271 90.0567C45.5025 89.7813 45.8761 89.6265 46.2656 89.6265C46.6552 89.6265 47.0287 89.7813 47.3042 90.0567C47.5796 90.3322 47.7344 90.7058 47.7344 91.0953V98.4391C47.7344 98.8297 47.5787 99.2028 47.3055 99.4789L39.9618 106.823C39.6854 107.097 39.3116 107.252 38.9219 107.252V107.252ZM49.021 125.211C48.6315 125.211 48.2579 125.057 47.9824 124.781C47.707 124.506 47.5522 124.132 47.5522 123.743V116.766C47.5522 116.377 47.707 116.003 47.9824 115.728C48.2579 115.452 48.6315 115.297 49.021 115.297C49.4105 115.297 49.7841 115.452 50.0596 115.728C50.335 116.003 50.4897 116.377 50.4897 116.766V123.743C50.4897 124.132 50.335 124.506 50.0596 124.781C49.7841 125.057 49.4105 125.211 49.021 125.211ZM18.7266 125.211C18.337 125.211 17.9634 125.057 17.688 124.781C17.4126 124.506 17.2578 124.132 17.2578 123.743V116.123C17.2578 115.733 17.4126 115.36 17.688 115.084C17.9634 114.809 18.337 114.654 18.7266 114.654C19.1161 114.654 19.4897 114.809 19.7651 115.084C20.0406 115.36 20.1953 115.733 20.1953 116.123V123.743C20.1953 124.132 20.0406 124.506 19.7651 124.781C19.4897 125.057 19.1161 125.211 18.7266 125.211ZM57.2812 83.1699C56.8917 83.1699 56.5181 83.0152 56.2427 82.7397C55.9672 82.4643 55.8125 82.0907 55.8125 81.7012V70.6855C55.8125 68.4589 54.0001 66.6465 51.7734 66.6465C49.5468 66.6465 47.7344 68.4589 47.7344 70.6855V80.0503C47.7344 80.4398 47.5796 80.8134 47.3042 81.0889C47.0287 81.3643 46.6552 81.519 46.2656 81.519C45.8761 81.519 45.5025 81.3643 45.2271 81.0889C44.9516 80.8134 44.7969 80.4398 44.7969 80.0503V70.6855C44.7969 66.8374 47.9253 63.709 51.7734 63.709C55.6216 63.709 58.75 66.8374 58.75 70.6855V81.7012C58.75 82.0907 58.5953 82.4643 58.3198 82.7397C58.0444 83.0152 57.6708 83.1699 57.2812 83.1699Z" fill="#212E3A"/>
<path d="M51.4062 134.391H16.1562C15.7667 134.391 15.3931 134.236 15.1177 133.96C14.8422 133.685 14.6875 133.311 14.6875 132.922V124.109C14.6875 123.72 14.8422 123.346 15.1177 123.071C15.3931 122.795 15.7667 122.641 16.1562 122.641H51.4062C51.7958 122.641 52.1694 122.795 52.4448 123.071C52.7203 123.346 52.875 123.72 52.875 124.109V132.922C52.875 133.311 52.7203 133.685 52.4448 133.96C52.1694 134.236 51.7958 134.391 51.4062 134.391ZM17.625 131.453H49.9375V125.578H17.625V131.453Z" fill="#212E3A"/>
<path d="M51.4062 164.5C51.0167 164.5 50.6431 164.345 50.3677 164.07C50.0922 163.794 49.9375 163.421 49.9375 163.031V134.391H17.625V163.031C17.625 163.421 17.4703 163.794 17.1948 164.07C16.9194 164.345 16.5458 164.5 16.1562 164.5C15.7667 164.5 15.3931 164.345 15.1177 164.07C14.8422 163.794 14.6875 163.421 14.6875 163.031V132.922C14.6875 132.532 14.8422 132.159 15.1177 131.883C15.3931 131.608 15.7667 131.453 16.1562 131.453H51.4062C51.7958 131.453 52.1694 131.608 52.4448 131.883C52.7203 132.159 52.875 132.532 52.875 132.922V163.031C52.875 163.421 52.7203 163.794 52.4448 164.07C52.1694 164.345 51.7958 164.5 51.4062 164.5Z" fill="#212E3A"/>
<path d="M141.734 118.969C138.424 118.965 135.251 117.649 132.91 115.308C130.569 112.968 129.253 109.794 129.25 106.484V77.5674C129.25 77.1778 129.405 76.8043 129.68 76.5288C129.956 76.2534 130.329 76.0986 130.719 76.0986C131.108 76.0986 131.482 76.2534 131.757 76.5288C132.033 76.8043 132.188 77.1778 132.188 77.5674V106.484C132.191 109.015 133.197 111.442 134.987 113.231C136.777 115.021 139.203 116.028 141.734 116.031C142.124 116.031 142.497 116.186 142.773 116.461C143.048 116.737 143.203 117.11 143.203 117.5C143.203 117.889 143.048 118.263 142.773 118.538C142.497 118.814 142.124 118.969 141.734 118.969ZM161.013 118.969C160.624 118.969 160.25 118.814 159.975 118.538C159.699 118.263 159.544 117.889 159.544 117.5C159.544 117.11 159.699 116.737 159.975 116.461C160.25 116.186 160.624 116.031 161.013 116.031C164.275 116.027 167.402 114.73 169.708 112.423C172.014 110.117 173.312 106.99 173.315 103.729V77.5674C173.315 77.1778 173.47 76.8043 173.746 76.5288C174.021 76.2534 174.395 76.0986 174.784 76.0986C175.174 76.0986 175.547 76.2534 175.823 76.5288C176.098 76.8043 176.253 77.1778 176.253 77.5674V103.729C176.247 107.769 174.64 111.642 171.783 114.499C168.926 117.356 165.053 118.963 161.013 118.969Z" fill="#212E3A"/>
<path d="M136.227 85.9219C134.377 85.9203 132.603 85.1848 131.295 83.8768C129.987 82.5687 129.252 80.7951 129.25 78.9453V73.4375C129.25 69.5894 132.378 66.4609 136.227 66.4609C140.075 66.4609 143.203 69.5894 143.203 73.4375V78.9453C143.202 80.7951 142.466 82.5687 141.158 83.8768C139.85 85.1848 138.076 85.9203 136.227 85.9219V85.9219ZM136.227 69.3984C134 69.3984 132.188 71.2109 132.188 73.4375V78.9453C132.188 81.1719 134 82.9844 136.227 82.9844C138.453 82.9844 140.266 81.1719 140.266 78.9453V73.4375C140.266 71.2109 138.453 69.3984 136.227 69.3984Z" fill="#212E3A"/>
<path d="M147.242 85.9214C145.392 85.9198 143.619 85.1843 142.311 83.8763C141.003 82.5683 140.267 80.7946 140.266 78.9448V70.6816C140.266 66.8335 143.394 63.7051 147.242 63.7051C151.09 63.7051 154.219 66.8335 154.219 70.6816V78.9448C154.218 79.4275 154.168 79.9088 154.069 80.3813C153.982 80.7589 153.751 81.088 153.427 81.2994C153.102 81.5109 152.708 81.5882 152.327 81.5151C152.138 81.4753 151.959 81.3987 151.8 81.2896C151.64 81.1804 151.504 81.041 151.399 80.8792C151.294 80.7174 151.221 80.5365 151.186 80.3467C151.151 80.1569 151.153 79.962 151.193 79.7732C151.251 79.5009 151.28 79.2232 151.278 78.9448V70.6816C151.278 68.455 149.466 66.6426 147.239 66.6426C145.013 66.6426 143.2 68.455 143.2 70.6816V78.9448C143.197 81.6297 146.041 83.6448 148.59 82.7548C148.772 82.6895 148.966 82.6611 149.159 82.6712C149.352 82.6813 149.541 82.7297 149.715 82.8137C149.889 82.8976 150.045 83.0154 150.173 83.1601C150.301 83.3048 150.399 83.4736 150.462 83.6566C150.526 83.8386 150.553 84.0315 150.543 84.2242C150.532 84.4169 150.483 84.6056 150.399 84.7795C150.316 84.9533 150.198 85.1089 150.054 85.2373C149.91 85.3658 149.742 85.4644 149.56 85.5278C148.815 85.789 148.031 85.9221 147.242 85.9214V85.9214Z" fill="#212E3A"/>
<path d="M152.922 81.7918C152.596 81.7929 152.278 81.6844 152.02 81.4836C151.762 81.2828 151.579 81.0014 151.501 80.6843C151.355 80.1161 151.282 79.5318 151.283 78.9453V67.9297C151.283 64.0816 154.412 60.9531 158.26 60.9531C162.108 60.9531 165.236 64.0816 165.236 67.9297V78.9453C165.236 79.4241 165.186 79.9 165.092 80.3524C165.013 80.7337 164.786 81.0681 164.46 81.2818C164.135 81.4955 163.738 81.5712 163.356 81.4921C162.975 81.4131 162.641 81.1857 162.427 80.8601C162.213 80.5346 162.138 80.1374 162.217 79.7561C162.27 79.4891 162.297 79.2175 162.296 78.9453V67.9297C162.296 65.7031 160.483 63.8906 158.257 63.8906C156.03 63.8906 154.218 65.7031 154.218 67.9297V78.9453C154.218 79.2861 154.262 79.6268 154.344 79.9617C154.4 80.1784 154.405 80.4049 154.359 80.6239C154.314 80.8429 154.219 81.0486 154.082 81.2252C153.945 81.4019 153.769 81.5447 153.568 81.6429C153.367 81.7411 153.146 81.792 152.922 81.7918Z" fill="#212E3A"/>
<path d="M174.781 90.7275C174.392 90.7275 174.018 90.5728 173.743 90.2974C173.467 90.0219 173.312 89.6483 173.312 89.2588C173.309 87.2147 172.496 85.2552 171.051 83.8098C169.605 82.3644 167.646 81.551 165.602 81.5479C165.212 81.5479 164.838 81.3931 164.563 81.1177C164.288 80.8422 164.133 80.4686 164.133 80.0791C164.133 79.6896 164.288 79.316 164.563 79.0405C164.838 78.7651 165.212 78.6104 165.602 78.6104C168.425 78.6135 171.131 79.7363 173.128 81.7326C175.124 83.7289 176.247 86.4356 176.25 89.2588C176.25 89.6483 176.095 90.0219 175.82 90.2974C175.544 90.5728 175.171 90.7275 174.781 90.7275Z" fill="#212E3A"/>
<path d="M163.766 92.5635H154.586C150.738 92.5635 147.609 89.435 147.609 85.5869C147.609 81.7388 150.738 78.6104 154.586 78.6104H165.602C165.991 78.6104 166.365 78.7651 166.64 79.0405C166.916 79.316 167.07 79.6896 167.07 80.0791C167.07 80.4686 166.916 80.8422 166.64 81.1177C166.365 81.3931 165.991 81.5479 165.602 81.5479H154.586C152.359 81.5479 150.547 83.3603 150.547 85.5869C150.547 87.8135 152.359 89.626 154.586 89.626H163.766C164.155 89.626 164.529 89.7807 164.804 90.0562C165.08 90.3316 165.234 90.7052 165.234 91.0947C165.234 91.4843 165.08 91.8578 164.804 92.1333C164.529 92.4087 164.155 92.5635 163.766 92.5635Z" fill="#212E3A"/>
<path d="M156.422 107.252C156.132 107.251 155.848 107.165 155.606 107.004C155.365 106.843 155.177 106.614 155.066 106.346C154.954 106.078 154.925 105.783 154.981 105.498C155.038 105.213 155.177 104.951 155.382 104.746L162.297 97.831V91.0953C162.297 90.7058 162.452 90.3322 162.727 90.0567C163.003 89.7813 163.376 89.6265 163.766 89.6265C164.155 89.6265 164.529 89.7813 164.804 90.0567C165.08 90.3322 165.234 90.7058 165.234 91.0953V98.4391C165.234 98.8297 165.079 99.2028 164.806 99.4789L157.462 106.823C157.185 107.097 156.812 107.252 156.422 107.252V107.252ZM166.521 125.211C166.131 125.211 165.758 125.057 165.482 124.781C165.207 124.506 165.052 124.132 165.052 123.743V116.766C165.052 116.377 165.207 116.003 165.482 115.728C165.758 115.452 166.131 115.297 166.521 115.297C166.911 115.297 167.284 115.452 167.56 115.728C167.835 116.003 167.99 116.377 167.99 116.766V123.743C167.99 124.132 167.835 124.506 167.56 124.781C167.284 125.057 166.911 125.211 166.521 125.211ZM136.227 125.211C135.837 125.211 135.463 125.057 135.188 124.781C134.913 124.506 134.758 124.132 134.758 123.743V116.123C134.758 115.733 134.913 115.36 135.188 115.084C135.463 114.809 135.837 114.654 136.227 114.654C136.616 114.654 136.99 114.809 137.265 115.084C137.541 115.36 137.695 115.733 137.695 116.123V123.743C137.695 124.132 137.541 124.506 137.265 124.781C136.99 125.057 136.616 125.211 136.227 125.211ZM174.781 83.1699C174.392 83.1699 174.018 83.0152 173.743 82.7397C173.467 82.4643 173.312 82.0907 173.312 81.7012V70.6855C173.312 68.4589 171.5 66.6465 169.273 66.6465C167.047 66.6465 165.234 68.4589 165.234 70.6855V80.0503C165.234 80.4398 165.08 80.8134 164.804 81.0889C164.529 81.3643 164.155 81.519 163.766 81.519C163.376 81.519 163.003 81.3643 162.727 81.0889C162.452 80.8134 162.297 80.4398 162.297 80.0503V70.6855C162.297 66.8374 165.425 63.709 169.273 63.709C173.122 63.709 176.25 66.8374 176.25 70.6855V81.7012C176.25 82.0907 176.095 82.4643 175.82 82.7397C175.544 83.0152 175.171 83.1699 174.781 83.1699Z" fill="#212E3A"/>
<path d="M168.906 134.391H133.656C133.267 134.391 132.893 134.236 132.618 133.96C132.342 133.685 132.188 133.311 132.188 132.922V124.109C132.188 123.72 132.342 123.346 132.618 123.071C132.893 122.795 133.267 122.641 133.656 122.641H168.906C169.296 122.641 169.669 122.795 169.945 123.071C170.22 123.346 170.375 123.72 170.375 124.109V132.922C170.375 133.311 170.22 133.685 169.945 133.96C169.669 134.236 169.296 134.391 168.906 134.391ZM135.125 131.453H167.438V125.578H135.125V131.453Z" fill="#212E3A"/>
<path d="M168.906 164.5C168.517 164.5 168.143 164.345 167.868 164.07C167.592 163.794 167.438 163.421 167.438 163.031V134.391H135.125V163.031C135.125 163.421 134.97 163.794 134.695 164.07C134.419 164.345 134.046 164.5 133.656 164.5C133.267 164.5 132.893 164.345 132.618 164.07C132.342 163.794 132.188 163.421 132.188 163.031V132.922C132.188 132.532 132.342 132.159 132.618 131.883C132.893 131.608 133.267 131.453 133.656 131.453H168.906C169.296 131.453 169.669 131.608 169.945 131.883C170.22 132.159 170.375 132.532 170.375 132.922V163.031C170.375 163.421 170.22 163.794 169.945 164.07C169.669 164.345 169.296 164.5 168.906 164.5Z" fill="#212E3A"/>
<path d="M116.031 113.828H69.0312C68.6417 113.828 68.2681 113.673 67.9927 113.398C67.7172 113.122 67.5625 112.749 67.5625 112.359V103.547C67.5625 103.157 67.7172 102.784 67.9927 102.508C68.2681 102.233 68.6417 102.078 69.0312 102.078H116.031C116.421 102.078 116.794 102.233 117.07 102.508C117.345 102.784 117.5 103.157 117.5 103.547V112.359C117.5 112.749 117.345 113.122 117.07 113.398C116.794 113.673 116.421 113.828 116.031 113.828ZM70.5 110.891H114.562V105.016H70.5V110.891Z" fill="#212E3A"/>
<path d="M116.031 164.5C115.642 164.5 115.268 164.345 114.993 164.07C114.717 163.794 114.562 163.421 114.562 163.031V113.828H70.5V163.031C70.5 163.421 70.3453 163.794 70.0698 164.07C69.7944 164.345 69.4208 164.5 69.0312 164.5C68.6417 164.5 68.2681 164.345 67.9927 164.07C67.7172 163.794 67.5625 163.421 67.5625 163.031V112.359C67.5625 111.97 67.7172 111.596 67.9927 111.321C68.2681 111.045 68.6417 110.891 69.0312 110.891H116.031C116.421 110.891 116.794 111.045 117.07 111.321C117.345 111.596 117.5 111.97 117.5 112.359V163.031C117.5 163.421 117.345 163.794 117.07 164.07C116.794 164.345 116.421 164.5 116.031 164.5Z" fill="#212E3A"/>
</svg>
