<svg width="128" height="76" viewBox="0 0 128 76" fill="none" xmlns="http://www.w3.org/2000/svg">
<g clip-path="url(#clip0_1384_1238)">
<path d="M56.0719 74.4916H1.21777V61.1791C1.23023 59.7481 1.52793 58.3337 2.09384 57.0167C2.65975 55.6997 3.48276 54.506 4.51575 53.5039C5.54875 52.5019 6.77145 51.7111 8.11386 51.1769C9.45628 50.6427 10.892 50.3755 12.339 50.3908H44.9613C47.8809 50.3656 50.6912 51.4878 52.7746 53.5108C54.8579 55.5337 56.0439 58.2918 56.0719 61.1791V74.4916Z" fill="#0066CC"/>
<path d="M45.7559 47.9815H12.71C9.33908 47.9815 6.10625 49.3057 3.72266 51.6629C1.33908 54.02 0 57.2169 0 60.5504L0 74.083C0.00553981 74.5136 0.181731 74.925 0.490701 75.2286C0.799671 75.5321 1.21675 75.7037 1.6523 75.7064H11.1848C11.4718 75.8835 11.8001 75.9845 12.138 75.9997C12.4662 76.0051 12.7868 75.9019 13.0489 75.7064H44.2413C44.507 75.9027 44.8312 76.0058 45.1628 75.9997C45.5046 75.9878 45.8371 75.8866 46.1266 75.7064H56.9089C57.123 75.708 57.3351 75.6667 57.5326 75.5851C57.7302 75.5035 57.909 75.3833 58.0584 75.2317C58.2078 75.0801 58.3246 74.9001 58.4019 74.7027C58.4792 74.5053 58.5154 74.2945 58.5082 74.083V60.5923C58.5138 58.9347 58.1878 57.2923 57.5489 55.7598C56.91 54.2273 55.9709 52.8349 54.7856 51.6628C53.6004 50.4907 52.1923 49.562 50.6426 48.9302C49.0929 48.2984 47.4321 47.976 45.7559 47.9815ZM54.8541 73.3183H47.5459V63.4727C46.8151 62.53 46.0842 61.7968 45.1628 61.7968C44.9549 61.7726 44.7442 61.8017 44.551 61.8814C44.3578 61.9611 44.1887 62.0887 44.0599 62.2519C43.9311 62.415 43.847 62.6083 43.8157 62.8129C43.7844 63.0176 43.8069 63.2268 43.8812 63.4203V73.3183H13.409V63.4727C13.8221 62.5614 13.0595 61.8492 12.1698 61.8492C11.2801 61.8492 10.5281 62.5929 9.7549 63.4727V73.3183H3.65412V61.1265C3.62584 58.6299 4.60026 56.2242 6.36355 54.4373C8.12684 52.6504 10.535 51.6282 13.0595 51.5951H45.4487C47.9733 51.6282 50.3814 52.6504 52.1447 54.4373C53.908 56.2242 54.8824 58.6299 54.8541 61.1265V73.3183Z" fill="#353434"/>
<path d="M30.4725 60.7495C30.53 60.5502 30.5376 60.3401 30.4947 60.1373C30.4518 59.9345 30.3597 59.745 30.2262 59.5853C30.0928 59.4255 29.9221 59.3002 29.7288 59.2202C29.5355 59.1402 29.3255 59.1079 29.1167 59.126C28.1953 59.126 27.4644 59.8697 26.8184 60.7495V66.5102C27.045 66.9408 27.3713 67.3124 27.7707 67.5945C28.1701 67.8766 28.6314 68.0614 29.1167 68.1337C29.3261 68.1545 29.5375 68.1239 29.7321 68.0447C29.9267 67.9655 30.0986 67.8401 30.2326 67.6797C30.3666 67.5192 30.4586 67.3286 30.5004 67.1246C30.5423 66.9207 30.5327 66.7097 30.4725 66.5102V60.7495Z" fill="#353434"/>
<path d="M35.3553 54.2766V39.5396H21.9463V54.2766L28.5978 61.179L35.3553 54.2766Z" fill="#D3E6F8"/>
<path d="M31.6904 58.6546L36.5732 52.831V44.3574H31.6904V58.6546Z" fill="#A4CFF2"/>
<path d="M29.2431 61.9962C29.0317 61.9978 28.8223 61.9568 28.6274 61.8758C28.4326 61.7948 28.2565 61.6754 28.1098 61.5248L21.1829 54.6329C20.8836 54.3308 20.7162 53.9246 20.7168 53.5017V38.7542C20.7154 38.5415 20.7566 38.3306 20.8379 38.1337C20.9193 37.9368 21.0392 37.7577 21.1908 37.6068C21.3424 37.4559 21.5227 37.3362 21.7213 37.2545C21.9199 37.1727 22.1329 37.1307 22.3479 37.1307H36.1171C36.3353 37.1265 36.5522 37.1654 36.7551 37.2451C36.958 37.3248 37.1427 37.4438 37.2985 37.5949C37.4544 37.7461 37.5781 37.9265 37.6626 38.1255C37.7471 38.3246 37.7906 38.5383 37.7906 38.7542V53.5017C37.7918 53.7122 37.7503 53.9208 37.6684 54.1151C37.5865 54.3095 37.466 54.4855 37.3139 54.6329L30.4082 61.5248C30.2552 61.6758 30.0735 61.7952 29.8735 61.8761C29.6735 61.957 29.4592 61.9978 29.2431 61.9962ZM23.1635 53.1979L28.65 58.435L34.1364 53.1979V40.7442H23.1635V53.1979Z" fill="#353434"/>
<path d="M15.8877 37.2773V31.1185C15.846 27.7483 17.133 24.4944 19.476 22.0465C21.8189 19.5986 25.0336 18.149 28.4388 18.005C30.1364 17.9786 31.8223 18.2863 33.3985 18.9102C34.9748 19.5341 36.4098 20.4618 37.6201 21.6392C38.8304 22.8166 39.7919 24.2202 40.4486 25.7685C41.1053 27.3168 41.4441 28.9787 41.4453 30.6577V37.7067C41.4484 39.3883 41.1127 41.0537 40.4578 42.6056C39.803 44.1575 38.8422 45.5649 37.6314 46.7457C36.4207 47.9264 34.9842 48.8569 33.4059 49.4827C31.8276 50.1086 30.1391 50.4173 28.4388 50.3909C25.0336 50.2468 21.8189 48.7973 19.476 46.3493C17.133 43.9014 15.846 40.6476 15.8877 37.2773Z" fill="#FFE4B9"/>
<path d="M29.254 52.2553C25.3754 52.247 21.6582 50.7189 18.9167 48.0058C16.1751 45.2927 14.6325 41.6156 14.627 37.7801V30.6053C14.6579 26.7691 16.2285 23.102 18.9935 20.411C20.3626 19.0785 21.9836 18.0257 23.7641 17.3128C25.5446 16.5999 27.4497 16.2407 29.3705 16.2558C31.2914 16.271 33.1904 16.6601 34.9592 17.401C36.728 18.1419 38.3319 19.22 39.6793 20.5739C41.0267 21.9278 42.0913 23.5309 42.8122 25.2916C43.5332 27.0523 43.8964 28.9362 43.8811 30.8358V37.7801C43.8839 39.6809 43.5075 41.5636 42.7735 43.3203C42.0396 45.0771 40.9624 46.6735 39.6038 48.018C38.2451 49.3626 36.6316 50.4289 34.8556 51.156C33.0797 51.8831 31.1761 52.2567 29.254 52.2553ZM18.2811 31.15V37.2459C18.2416 40.064 19.2843 42.792 21.1989 44.8797C23.1134 46.9674 25.7573 48.2594 28.5973 48.4951C30.089 48.5864 31.5838 48.3754 32.99 47.8751C34.3963 47.3748 35.6844 46.5956 36.7753 45.5855C37.8662 44.5753 38.7369 43.3554 39.3341 42.0006C39.9313 40.6458 40.2423 39.1847 40.2481 37.7068V30.7205C40.2436 29.2409 39.9337 27.7777 39.3374 26.4206C38.7411 25.0635 37.8709 23.8411 36.7802 22.8282C35.6895 21.8153 34.4011 21.0332 32.9941 20.5298C31.5871 20.0265 30.0909 19.8124 28.5973 19.9008C25.7583 20.1389 23.1158 21.4316 21.2017 23.5188C19.2877 25.6059 18.2441 28.3326 18.2811 31.15Z" fill="#353434"/>
<path d="M126.771 74.4916H71.917V61.1791C71.9294 59.7481 72.2271 58.3337 72.7931 57.0167C73.359 55.6997 74.182 54.506 75.215 53.5039C76.248 52.5019 77.4707 51.7111 78.8131 51.1769C80.1555 50.6427 81.5913 50.3755 83.0382 50.3908H115.66C117.107 50.3769 118.541 50.6451 119.882 51.1799C121.224 51.7148 122.445 52.5057 123.477 53.5077C124.509 54.5096 125.331 55.7028 125.896 57.0192C126.461 58.3355 126.759 59.749 126.771 61.1791V74.4916Z" fill="#0066CC"/>
<path d="M115.237 47.9816H82.2444C80.5708 47.9747 78.9124 48.2947 77.3642 48.9233C75.8161 49.5518 74.4087 50.4766 73.2228 51.6444C72.037 52.8122 71.096 54.2001 70.454 55.7285C69.8119 57.2568 69.4814 58.8955 69.4814 60.5505V74.083C69.487 74.5137 69.6632 74.9251 69.9722 75.2286C70.2811 75.5322 70.6982 75.7038 71.1337 75.7065H80.9416C81.2124 75.9007 81.5392 76.0036 81.8737 75.9998C82.2086 75.9862 82.5338 75.885 82.8163 75.7065H113.956C114.231 75.8996 114.561 76.0022 114.898 75.9998C115.227 75.986 115.545 75.8847 115.82 75.7065H126.412C126.626 75.708 126.838 75.6668 127.035 75.5852C127.233 75.5036 127.412 75.3834 127.561 75.2318C127.71 75.0801 127.827 74.9002 127.905 74.7028C127.982 74.5054 128.018 74.2946 128.011 74.083V60.5924C128.016 58.933 127.69 57.2889 127.05 55.7551C126.409 54.2212 125.468 52.8278 124.281 51.6554C123.093 50.483 121.683 49.5548 120.131 48.9242C118.578 48.2937 116.915 47.9733 115.237 47.9816ZM124.336 73.3184H117.027V63.4728C116.856 63.0378 116.569 62.657 116.195 62.3711C115.822 62.0851 115.378 61.9048 114.909 61.8493C114.696 61.8366 114.482 61.8694 114.283 61.9454C114.083 62.0213 113.903 62.1387 113.753 62.2897C113.603 62.4406 113.488 62.6215 113.415 62.8202C113.343 63.0189 113.314 63.2307 113.331 63.4414V73.3184H84.1085V63.4728C83.9063 63.0317 83.596 62.6474 83.2058 62.3548C82.8156 62.0622 82.3577 61.8704 81.8737 61.7969C81.6648 61.7883 81.4568 61.8275 81.2658 61.9116C81.0748 61.9956 80.906 62.1222 80.7727 62.2814C80.6394 62.4406 80.5451 62.6282 80.4973 62.8294C80.4494 63.0306 80.4492 63.2401 80.4968 63.4414V73.3184H73.1356V61.1266C73.1073 58.63 74.0817 56.2243 75.845 54.4374C77.6083 52.6505 80.0164 51.6283 82.5409 51.5952H114.93C117.455 51.6283 119.863 52.6505 121.626 54.4374C123.389 56.2243 124.364 58.63 124.336 61.1266V73.3184Z" fill="#353434"/>
<path d="M98.8415 59.0843C98.6283 59.0608 98.4126 59.0915 98.2148 59.1735C98.0169 59.2554 97.8435 59.386 97.7109 59.5527C97.5784 59.7195 97.491 59.917 97.4572 60.1264C97.4234 60.3359 97.4441 60.5504 97.5175 60.7497V66.5105C97.4532 66.7074 97.4395 66.9171 97.4776 67.1206C97.5157 67.3241 97.6044 67.515 97.7358 67.6761C97.8672 67.8372 98.037 67.9634 98.2301 68.0433C98.4231 68.1233 98.6332 68.1544 98.8415 68.134C99.7418 68.134 100.462 67.4217 101.172 66.5105V60.7497C100.943 60.3105 100.613 59.9309 100.208 59.6415C99.8031 59.3521 99.3349 59.1613 98.8415 59.0843Z" fill="#353434"/>
<path d="M106.055 54.2766V39.5396H92.6455V54.2766L99.3606 61.179L106.055 54.2766Z" fill="#D3E6F8"/>
<path d="M101.171 58.6546L106.054 52.831V44.3574H101.171V58.6546Z" fill="#289FCE"/>
<path d="M98.7247 61.996C98.5133 61.9976 98.3038 61.9567 98.109 61.8756C97.9141 61.7946 97.738 61.6752 97.5914 61.5247L90.675 54.6327C90.3757 54.3306 90.2084 53.9244 90.209 53.5015V38.754C90.209 38.3252 90.3805 37.9139 90.6861 37.6097C90.9917 37.3055 91.4065 37.1333 91.8401 37.1305H105.609C105.827 37.1277 106.042 37.1677 106.244 37.248C106.446 37.3284 106.629 37.4475 106.784 37.5985C106.939 37.7496 107.061 37.9295 107.145 38.1278C107.229 38.3262 107.272 38.539 107.272 38.754V53.5015C107.274 53.9246 107.106 54.3313 106.806 54.6327L99.8897 61.5247C99.5741 61.8194 99.1587 61.9875 98.7247 61.996ZM93.8631 53.1978L99.3496 58.4348L104.836 53.1978V40.7441H93.8631V53.1978Z" fill="#353434"/>
<path d="M86.5439 37.2773V31.1185C86.5026 27.7413 87.7955 24.4814 90.1474 22.0324C92.4993 19.5833 95.7247 18.1384 99.1374 18.005C100.835 17.9786 102.521 18.2863 104.097 18.9102C105.673 19.5341 107.108 20.4618 108.319 21.6392C109.529 22.8166 110.491 24.2202 111.147 25.7685C111.804 27.3168 112.143 28.9787 112.144 30.6577V37.7067C112.145 39.3853 111.81 41.0474 111.156 42.5965C110.503 44.1457 109.545 45.5511 108.338 46.7312C107.131 47.9112 105.699 48.8424 104.125 49.4706C102.551 50.0989 100.866 50.4117 99.1692 50.3909C95.7509 50.2654 92.5174 48.824 90.1588 46.3741C87.8001 43.9242 86.5029 40.6598 86.5439 37.2773Z" fill="#FFE4B9"/>
<path d="M98.7355 52.2553C94.8569 52.247 91.1397 50.7189 88.3981 48.0058C85.6565 45.2927 84.114 41.6156 84.1084 37.7801V30.6053C84.1237 28.7058 84.5172 26.8278 85.2664 25.0787C86.0156 23.3295 87.1059 21.7435 88.4749 20.411C89.844 19.0785 91.4651 18.0257 93.2456 17.3128C95.026 16.5999 96.9311 16.2407 98.852 16.2558C100.773 16.271 102.672 16.6601 104.441 17.401C106.209 18.1419 107.813 19.22 109.161 20.5739C110.508 21.9278 111.573 23.5309 112.294 25.2916C113.015 27.0523 113.378 28.9362 113.363 30.8358V37.7801C113.36 41.6165 111.818 45.2951 109.076 48.0088C106.334 50.7226 102.615 52.2497 98.7355 52.2553ZM87.7625 31.15V37.2459C87.722 40.0557 88.7574 42.7767 90.6609 44.8631C92.5644 46.9494 95.1953 48.2469 98.0258 48.4951C99.5201 48.5865 101.018 48.3746 102.426 47.8724C103.834 47.3702 105.124 46.5882 106.215 45.5747C107.307 44.5612 108.177 43.3375 108.772 41.979C109.367 40.6205 109.675 39.1559 109.677 37.6753V30.7205C109.672 29.2409 109.362 27.7777 108.766 26.4206C108.17 25.0635 107.299 23.8411 106.209 22.8282C105.118 21.8153 103.83 21.0332 102.423 20.5298C101.016 20.0265 99.5194 19.8124 98.0258 19.9008C95.1963 20.1514 92.5668 21.4495 90.6638 23.5354C88.7607 25.6212 87.7245 28.3409 87.7625 31.15Z" fill="#353434"/>
<path d="M98.7353 74.4916H28.0361V57.1674C28.0458 55.3165 28.4243 53.4856 29.1499 51.7794C29.8754 50.0732 30.9339 48.5251 32.2647 47.2236C33.5956 45.9221 35.1727 44.8928 36.9061 44.1943C38.6394 43.4959 40.4949 43.142 42.3666 43.1531H84.426C86.2963 43.1434 88.1502 43.4983 89.8817 44.1975C91.6132 44.8967 93.1884 45.9265 94.5173 47.228C95.8462 48.5295 96.9027 50.0772 97.6265 51.7826C98.3502 53.4881 98.727 55.3179 98.7353 57.1674V74.4916Z" fill="#0066CC"/>
<path d="M93.8633 47.1333V74.4916H98.7355V53.3235C98.6853 51.916 98.1873 50.56 97.3126 49.4486C96.4378 48.3372 95.2308 47.527 93.8633 47.1333ZM45.1418 74.544H41.4453V60.4144C42.3811 60.3861 43.2904 60.7247 43.9748 61.3565C44.6593 61.9882 45.0635 62.8619 45.0994 63.7871L45.1418 74.544Z" fill="#289FCE"/>
<path d="M73.1357 47.6571V28.6885H54.8545V47.6571L63.9951 56.56L73.1357 47.6571Z" fill="#D3E6F8"/>
<path d="M67.0449 54.3288L73.1351 46.7979V35.9258H67.0449V54.3288Z" fill="#289FCE"/>
<path d="M85.2101 40.7441H74.3536V29.1074C74.3565 28.6832 74.1903 28.2749 73.8909 27.971C73.5916 27.6672 73.1832 27.4921 72.7543 27.4839H55.2463C54.8156 27.4894 54.4045 27.6632 54.1029 27.9674C53.8013 28.2716 53.6336 28.6814 53.6364 29.1074V40.7441H42.78C38.5446 40.7552 34.4864 42.426 31.4946 45.3906C28.5027 48.3551 26.8211 52.3716 26.8184 56.56V74.0726C26.8184 74.506 26.9924 74.9216 27.3023 75.228C27.6122 75.5345 28.0324 75.7066 28.4707 75.7066H41.2336C41.5069 75.8877 41.8262 75.9893 42.1551 75.9999C42.474 75.9891 42.7831 75.8873 43.0448 75.7066H83.7273C83.9968 75.8874 84.3126 75.989 84.6381 75.9999C84.9702 75.989 85.2928 75.8875 85.5702 75.7066H99.5618C99.7795 75.7094 99.9957 75.6691 100.197 75.588C100.399 75.5068 100.582 75.3866 100.736 75.2343C100.89 75.082 101.012 74.9008 101.094 74.7012C101.176 74.5017 101.217 74.288 101.214 74.0726V56.56C101.211 52.3644 99.5239 48.3416 96.5229 45.3758C93.5218 42.4101 89.4528 40.7441 85.2101 40.7441ZM56.0725 29.8929H70.6995V40.7441H56.0725V29.8929ZM63.3701 54.0776L56.0513 46.7457V44.3367H70.6995V46.7248L63.3701 54.0776ZM97.5176 73.3185H86.5446V60.2992C86.448 59.8588 86.2103 59.4609 85.8669 59.1647C85.5234 58.8684 85.0925 58.6896 84.6381 58.6548C84.1951 58.6685 83.7726 58.8424 83.4505 59.1435C83.1284 59.4446 82.9292 59.8521 82.8905 60.2887V73.3185H43.8815V60.2992C43.8574 59.86 43.6659 59.4461 43.3456 59.141C43.0252 58.8358 42.5998 58.6621 42.1551 58.6548C41.7007 58.6896 41.2698 58.8684 40.9263 59.1647C40.5829 59.4609 40.3452 59.8588 40.2486 60.2992V73.3185H30.4725V56.9161C30.4725 53.5826 31.8116 50.3856 34.1951 48.0285C36.5787 45.6714 39.8116 44.3472 43.1824 44.3472H53.647V48.076C53.6413 48.2883 53.6787 48.4997 53.7569 48.6976C53.8351 48.8954 53.9526 49.0758 54.1024 49.2281L62.1733 57.4084V64.2689C62.235 64.7065 62.4501 65.1087 62.7811 65.4055C63.1121 65.7022 63.538 65.8745 63.9844 65.8924C64.4321 65.868 64.8581 65.6941 65.1929 65.3992C65.5276 65.1043 65.7513 64.7058 65.8274 64.2689V57.3874L73.8982 49.2281C74.1956 48.9256 74.3594 48.5187 74.3536 48.0969V44.3576H84.8182C88.1891 44.3576 91.4219 45.6819 93.8055 48.039C96.1891 50.3961 97.5282 53.5931 97.5282 56.9266L97.5176 73.3185Z" fill="#353434"/>
<path d="M47.5459 26.6668V18.6227C47.5459 9.8245 54.3775 2.23079 63.2533 1.8642C65.4775 1.75785 67.7004 2.09921 69.7872 2.8676C71.8741 3.63599 73.7814 4.8154 75.3937 6.33435C77.006 7.85331 78.2895 9.68018 79.1667 11.7042C80.0438 13.7283 80.4962 15.9074 80.4965 18.1095V27.2324C80.489 29.4306 80.0314 31.6044 79.1512 33.6229C78.271 35.6414 76.9865 37.4626 75.3751 38.9768C73.7638 40.4909 71.859 41.6667 69.7757 42.433C67.6923 43.1994 65.4736 43.5405 63.2533 43.4359C54.3775 43.0483 47.5459 35.4651 47.5459 26.6668Z" fill="#FFE4B9"/>
<path d="M63.3913 45.3422C60.9878 45.3408 58.6081 44.8713 56.3881 43.9605C54.168 43.0496 52.1512 41.7153 50.4526 40.0337C48.7541 38.352 47.4071 36.356 46.4886 34.1596C45.5701 31.9632 45.0981 29.6093 45.0995 27.2325V18.0782C45.065 15.6686 45.5177 13.2766 46.431 11.0424C47.3444 8.80832 48.6999 6.77719 50.418 5.06833C52.1362 3.35946 54.1822 2.00731 56.4361 1.09128C58.69 0.175245 61.1063 -0.286201 63.543 -0.265964C65.9798 -0.245726 68.3879 0.255788 70.6259 1.20913C72.8639 2.16247 74.8867 3.54841 76.5756 5.28557C78.2645 7.02273 79.5853 9.07609 80.4606 11.3251C81.3358 13.574 81.7478 15.9733 81.6724 18.3819V27.2325C81.6752 32.0309 79.7511 36.634 76.323 40.03C72.8949 43.4259 68.2435 45.3367 63.3913 45.3422ZM48.7218 18.6542V26.6355C48.7218 34.2083 54.4307 40.8488 62.0461 41.5296C64.0718 41.7114 66.1137 41.4741 68.0415 40.8326C69.9694 40.1911 71.741 39.1596 73.2435 37.8038C74.7461 36.448 75.9466 34.7976 76.7687 32.9577C77.5908 31.1178 78.0163 29.1288 78.0183 27.1173V18.1619C78.0149 16.1513 77.5882 14.1635 76.7655 12.3248C75.9428 10.4862 74.742 8.83706 73.2396 7.48238C71.7372 6.1277 69.9661 5.09715 68.039 4.4563C66.1119 3.81545 64.071 3.57834 62.0461 3.76007C54.4307 4.43041 48.7218 11.0815 48.7218 18.6542Z" fill="#353434"/>
</g>
<defs>
<clipPath id="clip0_1384_1238">
<rect width="128" height="76" fill="white"/>
</clipPath>
</defs>
</svg>
