<svg width="38" height="38" viewBox="0 0 38 38" fill="none" xmlns="http://www.w3.org/2000/svg">
<g clip-path="url(#clip0_1217_1484)">
<path d="M2.86475 33.3815H24.4371L2.86475 14.6738V33.3815ZM22.0401 32.5046H19.0001V30.9846H18.1232V32.4461H15.8432V31.5692H14.9663V32.4461H12.6863V30.9846H11.8094V32.4461H9.52936V31.5692H8.65244V32.4461H6.4309V30.9846H5.55398V32.4461H3.74167V30.2246H5.20321V29.3477H3.74167V27.5938H4.61859V26.7169H3.74167V24.9631H5.20321V24.0861H3.74167V22.3323H4.61859V21.4554H3.74167V19.7015H5.20321V18.8246H3.74167V16.6615L22.0401 32.5046Z" fill="black"/>
<path d="M6.25537 21.5723V29.6984H15.6092L6.25537 21.5723ZM7.13229 23.443L13.2708 28.763H7.13229V23.443Z" fill="black"/>
<path d="M34.2002 1.63696C33.8495 1.63696 32.8556 1.69542 32.8556 1.69542H32.4464V6.66465H-0.116699V36.4216H33.8495C36.2464 36.4216 38.1756 34.4923 38.1756 32.0954V5.32004C38.1756 3.21542 36.4218 1.63696 34.2002 1.63696ZM33.8495 35.4862H0.760224V7.48312H32.4464V28.1785L32.5633 28.8216L33.031 28.7047C33.2648 28.6462 33.6741 28.5877 33.9079 28.5877C35.7787 28.5877 37.3571 30.1077 37.3571 32.037C37.2402 33.9662 35.7202 35.4862 33.8495 35.4862ZM37.2987 29.4647C36.5387 28.4123 35.2525 27.7693 33.8495 27.7693C33.6741 27.7693 33.4987 27.7693 33.2648 27.8277V2.51389H34.2002C36.0125 2.51389 37.2987 3.68312 37.2987 5.3785V29.4647Z" fill="black"/>
<path d="M24.9629 13.2708V28.1784C24.9629 29.1138 25.7229 29.9323 26.7167 29.9323C27.6521 29.9323 28.4706 29.1723 28.4706 28.1784V13.2708L26.7167 9.76306L24.9629 13.2708ZM25.8398 15.2H27.5937V25.84H25.8398V15.2ZM26.7167 29.0554C26.249 29.0554 25.8398 28.6461 25.8398 28.1784V26.6584H27.5937V28.1784C27.5352 28.6461 27.1844 29.0554 26.7167 29.0554ZM27.5352 14.3231H25.7814V13.4461L26.6583 11.6923L27.5352 13.4461V14.3231Z" fill="black"/>
</g>
<defs>
<clipPath id="clip0_1217_1484">
<rect width="38" height="38" fill="white"/>
</clipPath>
</defs>
</svg>
