<svg width="38" height="38" viewBox="0 0 38 38" fill="none" xmlns="http://www.w3.org/2000/svg">
<path d="M0.452381 33.7589C0.702224 33.7589 0.904762 33.5564 0.904762 33.3065C0.904762 33.0567 0.702224 32.8541 0.452381 32.8541C0.202538 32.8541 0 33.0567 0 33.3065C0 33.5564 0.202538 33.7589 0.452381 33.7589Z" fill="black"/>
<path d="M2.48789 32.8541H1.80931C1.68934 32.8541 1.57427 32.9018 1.48943 32.9866C1.40459 33.0715 1.35693 33.1865 1.35693 33.3065C1.35693 33.4265 1.40459 33.5416 1.48943 33.6264C1.57427 33.7112 1.68934 33.7589 1.80931 33.7589H2.48789C2.60786 33.7589 2.72293 33.7112 2.80777 33.6264C2.89261 33.5416 2.94027 33.4265 2.94027 33.3065C2.94027 33.1865 2.89261 33.0715 2.80777 32.9866C2.72293 32.9018 2.60786 32.8541 2.48789 32.8541ZM36.1903 32.8541H35.5117C35.3917 32.8541 35.2766 32.9018 35.1918 32.9866C35.107 33.0715 35.0593 33.1865 35.0593 33.3065C35.0593 33.4265 35.107 33.5416 35.1918 33.6264C35.2766 33.7112 35.3917 33.7589 35.5117 33.7589H36.1903C36.3102 33.7589 36.4253 33.7112 36.5101 33.6264C36.595 33.5416 36.6426 33.4265 36.6426 33.3065C36.6426 33.1865 36.595 33.0715 36.5101 32.9866C36.4253 32.9018 36.3102 32.8541 36.1903 32.8541Z" fill="black"/>
<path d="M37.5476 33.7589C37.7974 33.7589 38 33.5564 38 33.3065C38 33.0567 37.7974 32.8541 37.5476 32.8541C37.2978 32.8541 37.0952 33.0567 37.0952 33.3065C37.0952 33.5564 37.2978 33.7589 37.5476 33.7589Z" fill="black"/>
<path d="M26.7251 34.6637H24.8459C24.7322 34.6728 24.6261 34.7244 24.5487 34.8083C24.4713 34.8921 24.4284 35.002 24.4284 35.1161C24.4284 35.2302 24.4713 35.3401 24.5487 35.4239C24.6261 35.5077 24.7322 35.5593 24.8459 35.5685H26.7251C26.8388 35.5593 26.9449 35.5077 27.0223 35.4239C27.0997 35.3401 27.1427 35.2302 27.1427 35.1161C27.1427 35.002 27.0997 34.8921 27.0223 34.8083C26.9449 34.7244 26.8388 34.6728 26.7251 34.6637ZM13.1536 34.6637H11.2745C11.1608 34.6728 11.0547 34.7244 10.9773 34.8083C10.8999 34.8921 10.8569 35.002 10.8569 35.1161C10.8569 35.2302 10.8999 35.3401 10.9773 35.4239C11.0547 35.5077 11.1608 35.5593 11.2745 35.5685H13.1536C13.2674 35.5593 13.3735 35.5077 13.4509 35.4239C13.5283 35.3401 13.5712 35.2302 13.5712 35.1161C13.5712 35.002 13.5283 34.8921 13.4509 34.8083C13.3735 34.7244 13.2674 34.6728 13.1536 34.6637ZM23.5236 34.6637H14.476C14.356 34.6637 14.2409 34.7114 14.1561 34.7962C14.0713 34.881 14.0236 34.9961 14.0236 35.1161C14.0236 35.2361 14.0713 35.3511 14.1561 35.436C14.2409 35.5208 14.356 35.5685 14.476 35.5685H18.0815V36.0208H16.2855C16.1655 36.0208 16.0505 36.0685 15.9656 36.1533C15.8808 36.2382 15.8331 36.3532 15.8331 36.4732C15.8331 36.5932 15.8808 36.7083 15.9656 36.7931C16.0505 36.8779 16.1655 36.9256 16.2855 36.9256H21.9403C22.0603 36.9256 22.1753 36.8779 22.2602 36.7931C22.345 36.7083 22.3927 36.5932 22.3927 36.4732C22.3927 36.3532 22.345 36.2382 22.2602 36.1533C22.1753 36.0685 22.0603 36.0208 21.9403 36.0208H19.9181V35.5685H23.5236C23.6436 35.5685 23.7587 35.5208 23.8435 35.436C23.9283 35.3511 23.976 35.2361 23.976 35.1161C23.976 34.9961 23.9283 34.881 23.8435 34.7962C23.7587 34.7114 23.6436 34.6637 23.5236 34.6637Z" fill="black"/>
<path d="M12.2143 15.9887C12.0658 15.6932 11.9885 15.367 11.9885 15.0362C11.9885 14.7055 12.0658 14.3793 12.2143 14.0838V7.06842C12.2147 6.70861 12.3579 6.36365 12.6123 6.10923C12.8667 5.8548 13.2117 5.71169 13.5715 5.71128H14.7044C14.7036 5.78882 14.7229 5.86524 14.7605 5.93305L15.1422 6.61163C15.2771 6.8826 15.4844 7.11096 15.7411 7.27142C15.9978 7.43189 16.2938 7.5182 16.5965 7.5208H21.3795C22.0667 7.5208 22.7554 7.1158 22.9815 6.57915L23.2622 5.91383C23.2887 5.84978 23.3 5.78044 23.2952 5.71128H24.4286C24.7884 5.71169 25.1334 5.8548 25.3878 6.10923C25.6422 6.36365 25.7854 6.70861 25.7858 7.06842V14.0833C25.9343 14.379 26.0116 14.7053 26.0116 15.0362C26.0116 15.3671 25.9343 15.6933 25.7858 15.989V16.7385C26.1121 16.7819 26.4228 16.9048 26.6905 17.0965V7.06842C26.6888 6.46907 26.4499 5.89476 26.0261 5.47095C25.6023 5.04714 25.028 4.80827 24.4286 4.80652H13.5715C12.9721 4.80827 12.3978 5.04714 11.974 5.47095C11.5502 5.89476 11.3113 6.46907 11.3096 7.06842V17.0963C11.5773 16.9046 11.888 16.7818 12.2143 16.7385V15.9887ZM22.3656 5.71128L22.1478 6.2275C22.0611 6.34995 21.9457 6.44936 21.8118 6.51707C21.6779 6.58479 21.5295 6.61876 21.3794 6.61604H16.5965C16.4547 6.61154 16.317 6.56712 16.1992 6.48788C16.0814 6.40864 15.9884 6.2978 15.9308 6.16808L15.6738 5.71128H22.3656Z" fill="black"/>
<path d="M12.4764 20.9415H13.1486C13.2773 21.3962 13.459 21.8343 13.6898 22.2467L13.2132 22.7229C12.9955 22.9592 12.8801 23.2721 12.8922 23.5931C12.9043 23.9142 13.0428 24.2175 13.2777 24.4368L13.8462 25.0057C14.0661 25.2401 14.3696 25.3782 14.6908 25.3899C15.0119 25.4017 15.3247 25.2861 15.5611 25.0684L16.0359 24.5926C16.4481 24.8236 16.8861 25.0053 17.3408 25.1339V25.8063C17.3536 26.1275 17.4931 26.4306 17.7288 26.6493C17.9645 26.868 18.2771 26.9844 18.5984 26.9732H19.4016C19.7229 26.9844 20.0355 26.8679 20.2712 26.6493C20.5068 26.4306 20.6463 26.1275 20.6591 25.8063V25.1339C21.1138 25.0052 21.5518 24.8235 21.964 24.5925L22.4402 25.0692C22.6767 25.2867 22.9895 25.4019 23.3106 25.3899C23.6316 25.3779 23.935 25.2396 24.1546 25.0051L24.7231 24.4363C24.9574 24.2166 25.0955 23.9132 25.1072 23.5922C25.1188 23.2712 25.0033 22.9586 24.7855 22.7225L24.3101 22.2469C24.5408 21.8344 24.7225 21.3963 24.8513 20.9415H25.5226C25.8439 20.9289 26.1471 20.7895 26.3659 20.554C26.5847 20.3184 26.7013 20.0058 26.6903 19.6845V18.881C26.7013 18.5597 26.5847 18.2471 26.3659 18.0115C26.1471 17.776 25.8439 17.6367 25.5227 17.624H24.8514C24.7227 17.1693 24.5411 16.7313 24.3102 16.319L24.7859 15.843C25.0036 15.6069 25.1191 15.2943 25.1073 14.9733C25.0955 14.6524 24.9573 14.3491 24.7228 14.1296L24.1541 13.5601C23.9346 13.3253 23.6312 13.1869 23.31 13.1751C22.9888 13.1634 22.676 13.2792 22.4399 13.4972L21.9641 13.9726C21.5519 13.7416 21.1138 13.56 20.6591 13.4314V12.7595C20.6463 12.4382 20.5069 12.1351 20.2712 11.9164C20.0356 11.6977 19.7229 11.5811 19.4016 11.5923H18.5984C18.2771 11.5811 17.9644 11.6976 17.7288 11.9163C17.4931 12.1351 17.3536 12.4382 17.3408 12.7595V13.4314C16.8861 13.56 16.4481 13.7416 16.0358 13.9725L15.5607 13.4972C15.3243 13.2793 15.0113 13.1636 14.6899 13.1755C14.3686 13.1874 14.065 13.3259 13.8454 13.5607L13.2782 14.1289C13.0431 14.3481 12.9043 14.6515 12.8922 14.9728C12.8801 15.2941 12.9957 15.6071 13.2137 15.8434L13.6897 16.3192C13.4588 16.7314 13.2771 17.1693 13.1486 17.624H12.4764C12.1552 17.6367 11.8522 17.7761 11.6335 18.0116C11.4148 18.2472 11.2982 18.5597 11.3093 18.881V19.6845C11.2982 20.0057 11.4147 20.3183 11.6334 20.5538C11.8521 20.7894 12.1552 20.9288 12.4764 20.9415ZM12.2141 18.881C12.2141 18.69 12.3342 18.5288 12.4764 18.5288H13.5015C13.6048 18.5288 13.7049 18.4935 13.7853 18.4287C13.8657 18.364 13.9215 18.2737 13.9435 18.1728C14.0739 17.5758 14.3098 17.0068 14.6401 16.4927C14.6958 16.4058 14.72 16.3025 14.7089 16.2C14.6978 16.0974 14.652 16.0017 14.579 15.9288L13.8541 15.2042C13.8075 15.1371 13.7882 15.0548 13.8 14.9739C13.8118 14.8931 13.8539 14.8198 13.9178 14.7689L14.4849 14.2008C14.5361 14.137 14.6095 14.095 14.6904 14.0832C14.7713 14.0714 14.8537 14.0906 14.921 14.137L15.6454 14.8618C15.7183 14.9348 15.814 14.9806 15.9166 14.9917C16.0192 15.0029 16.1225 14.9785 16.2093 14.9228C16.7235 14.5926 17.2925 14.3568 17.8895 14.2265C17.9904 14.2045 18.0807 14.1487 18.1455 14.0683C18.2103 13.9879 18.2456 13.8878 18.2456 13.7845V12.7595C18.2456 12.6172 18.4072 12.4971 18.5984 12.4971H19.4016C19.5928 12.4971 19.7544 12.6172 19.7544 12.7595V13.7845C19.7544 13.8878 19.7897 13.9879 19.8545 14.0683C19.9193 14.1487 20.0096 14.2045 20.1105 14.2265C20.7076 14.3568 21.2765 14.5927 21.7906 14.923C21.8774 14.9786 21.9807 15.0029 22.0832 14.9918C22.1857 14.9807 22.2813 14.9348 22.3542 14.8619L23.0796 14.1369C23.1467 14.0906 23.2288 14.0713 23.3095 14.083C23.3902 14.0947 23.4634 14.1365 23.5145 14.2L24.0827 14.769C24.1462 14.8201 24.188 14.8933 24.1997 14.974C24.2114 15.0546 24.192 15.1367 24.1456 15.2037L23.4209 15.929C23.348 16.002 23.3022 16.0976 23.2911 16.2002C23.28 16.3027 23.3043 16.406 23.3599 16.4928C23.6902 17.007 23.9261 17.576 24.0566 18.173C24.0786 18.2738 24.1345 18.3641 24.2148 18.4288C24.2952 18.4935 24.3953 18.5288 24.4985 18.5288H25.5226C25.6651 18.5288 25.7855 18.69 25.7855 18.881V19.6845C25.7855 19.8754 25.6651 20.0368 25.5226 20.0368H24.4985C24.3953 20.0368 24.2952 20.072 24.2148 20.1368C24.1345 20.2015 24.0786 20.2917 24.0566 20.3925C23.9257 20.9898 23.6897 21.559 23.3597 22.0737C23.3042 22.1605 23.28 22.2638 23.2911 22.3662C23.3022 22.4687 23.348 22.5643 23.4209 22.6372L24.1454 23.3619C24.1919 23.429 24.2113 23.5111 24.1997 23.5919C24.188 23.6726 24.1463 23.746 24.0828 23.7972L23.5152 24.365C23.4641 24.4286 23.3908 24.4706 23.3101 24.4825C23.2293 24.4944 23.147 24.4754 23.0797 24.4292L22.3546 23.7032C22.2815 23.6302 22.1858 23.5844 22.0832 23.5733C21.9806 23.5622 21.8772 23.5865 21.7903 23.6421C21.2761 23.9726 20.7071 24.2087 20.11 24.3393C20.0092 24.3613 19.919 24.4171 19.8543 24.4975C19.7896 24.5779 19.7543 24.678 19.7544 24.7811V25.8063C19.7544 25.9484 19.5928 26.0685 19.4016 26.0685H18.5984C18.4072 26.0685 18.2456 25.9484 18.2456 25.8063V24.7811C18.2456 24.678 18.2103 24.5779 18.1456 24.4975C18.081 24.4171 17.9907 24.3613 17.8899 24.3393C17.2928 24.2087 16.7238 23.9727 16.2096 23.6422C16.1227 23.5864 16.0193 23.5621 15.9166 23.5732C15.8139 23.5843 15.7181 23.6303 15.6452 23.7034L14.9217 24.4283C14.8545 24.4748 14.7722 24.4942 14.6913 24.4826C14.6104 24.471 14.5368 24.4291 14.4855 24.3655L13.9174 23.7971C13.8537 23.7461 13.8118 23.673 13.7999 23.5923C13.788 23.5117 13.8071 23.4295 13.8533 23.3624L14.5789 22.6374C14.6519 22.5645 14.6977 22.4689 14.7089 22.3664C14.7201 22.2638 14.6959 22.1606 14.6403 22.0737C14.3102 21.5592 14.0742 20.99 13.9435 20.3928C13.9216 20.292 13.8657 20.2016 13.7853 20.1369C13.7049 20.0721 13.6048 20.0368 13.5015 20.0368H12.4764C12.3342 20.0368 12.2141 19.8754 12.2141 19.6845V18.881Z" fill="black"/>
<path d="M18.9999 22.4494C19.6262 22.4495 20.2385 22.2638 20.7593 21.9159C21.2801 21.5679 21.686 21.0734 21.9257 20.4948C22.1654 19.9161 22.2282 19.2794 22.106 18.6651C21.9839 18.0508 21.6823 17.4866 21.2394 17.0437C20.7966 16.6008 20.2323 16.2992 19.618 16.177C19.0038 16.0547 18.367 16.1174 17.7884 16.3571C17.2097 16.5968 16.7152 17.0027 16.3672 17.5234C16.0192 18.0442 15.8335 18.6564 15.8335 19.2828C15.8336 20.1225 16.1673 20.9279 16.7611 21.5217C17.3548 22.1155 18.1601 22.4492 18.9999 22.4494ZM18.9999 17.0209C19.4473 17.0208 19.8846 17.1534 20.2566 17.4019C20.6286 17.6504 20.9186 18.0037 21.0898 18.417C21.2611 18.8303 21.3059 19.2851 21.2186 19.7239C21.1314 20.1627 20.916 20.5657 20.5997 20.8821C20.2833 21.1984 19.8803 21.4139 19.4415 21.5012C19.0028 21.5885 18.548 21.5437 18.1346 21.3725C17.7213 21.2013 17.368 20.9114 17.1195 20.5394C16.8709 20.1675 16.7383 19.7301 16.7383 19.2828C16.739 18.6831 16.9775 18.1083 17.4014 17.6842C17.8254 17.2602 18.4003 17.0216 18.9999 17.0209Z" fill="black"/>
<path d="M19.0002 27.8779C18.8803 27.8779 18.7652 27.9256 18.6804 28.0104C18.5955 28.0953 18.5479 28.2103 18.5479 28.3303V30.5922C18.5479 30.7122 18.5955 30.8273 18.6804 30.9121C18.7652 30.9969 18.8803 31.0446 19.0002 31.0446C19.1202 31.0446 19.2353 30.9969 19.3201 30.9121C19.405 30.8273 19.4526 30.7122 19.4526 30.5922V28.3303C19.4526 28.2103 19.4049 28.0953 19.3201 28.0104C19.2353 27.9256 19.1202 27.8779 19.0002 27.8779Z" fill="black"/>
<path d="M16.7383 28.3303V29.2351C16.7383 29.3551 16.7859 29.4701 16.8708 29.555C16.9556 29.6398 17.0707 29.6875 17.1907 29.6875C17.3106 29.6875 17.4257 29.6398 17.5105 29.555C17.5954 29.4701 17.643 29.3551 17.643 29.2351V28.3303C17.643 28.2103 17.5954 28.0953 17.5105 28.0104C17.4257 27.9256 17.3106 27.8779 17.1907 27.8779C17.0707 27.8779 16.9556 27.9256 16.8708 28.0104C16.7859 28.0953 16.7383 28.2103 16.7383 28.3303ZM20.3573 28.3303V29.2351C20.3573 29.3551 20.405 29.4701 20.4898 29.555C20.5747 29.6398 20.6897 29.6875 20.8097 29.6875C20.9297 29.6875 21.0448 29.6398 21.1296 29.555C21.2144 29.4701 21.2621 29.3551 21.2621 29.2351V28.3303C21.2621 28.2103 21.2144 28.0953 21.1296 28.0104C21.0448 27.9256 20.9297 27.8779 20.8097 27.8779C20.6897 27.8779 20.5747 27.9256 20.4898 28.0104C20.405 28.0953 20.3573 28.2103 20.3573 28.3303Z" fill="black"/>
<path d="M34.0916 32.8542H26.2317C26.5287 32.4641 26.6898 31.9874 26.6903 31.4971V21.469C26.4226 21.6607 26.1119 21.7836 25.7856 21.827V22.577C25.9339 22.8726 26.0111 23.1988 26.0111 23.5296C26.0111 23.8603 25.9339 24.1865 25.7856 24.4822V31.4971C25.7852 31.8569 25.642 32.2019 25.3876 32.4563C25.1332 32.7107 24.7882 32.8538 24.4284 32.8542H13.5713C13.2115 32.8538 12.8665 32.7107 12.6121 32.4563C12.3577 32.2019 12.2146 31.8569 12.2141 31.4971V24.4822C12.0656 24.1865 11.9882 23.8602 11.9882 23.5292C11.9882 23.1983 12.0656 22.8719 12.2141 22.5762V21.827C11.8878 21.7837 11.5771 21.6609 11.3094 21.4692V31.4971C11.3099 31.9874 11.471 32.4641 11.768 32.8542H3.90813C3.84377 32.8458 3.77836 32.8512 3.71626 32.8701C3.65417 32.889 3.59682 32.9209 3.54804 32.9637C3.49926 33.0066 3.46018 33.0593 3.43341 33.1184C3.40664 33.1775 3.39279 33.2417 3.39279 33.3066C3.39279 33.3715 3.40664 33.4357 3.43341 33.4948C3.46018 33.5539 3.49926 33.6066 3.54804 33.6495C3.59682 33.6923 3.65417 33.7242 3.71626 33.7431C3.77836 33.762 3.84377 33.7674 3.90813 33.759H34.0916C34.1559 33.7674 34.2214 33.762 34.2834 33.7431C34.3455 33.7242 34.4029 33.6923 34.4517 33.6495C34.5004 33.6066 34.5395 33.5539 34.5663 33.4948C34.5931 33.4357 34.6069 33.3715 34.6069 33.3066C34.6069 33.2417 34.5931 33.1775 34.5663 33.1184C34.5395 33.0593 34.5004 33.0066 34.4517 32.9637C34.4029 32.9209 34.3455 32.889 34.2834 32.8701C34.2214 32.8512 34.1559 32.8458 34.0916 32.8542ZM7.18141 7.2947C7.31562 7.2947 7.44681 7.2549 7.5584 7.18034C7.66999 7.10578 7.75697 6.9998 7.80833 6.87581C7.85969 6.75182 7.87312 6.61538 7.84694 6.48375C7.82076 6.35212 7.75613 6.23121 7.66123 6.13631C7.56633 6.04141 7.44542 5.97678 7.31379 5.9506C7.18216 5.92441 7.04572 5.93785 6.92173 5.98921C6.79774 6.04057 6.69176 6.12755 6.6172 6.23914C6.54263 6.35073 6.50284 6.48192 6.50284 6.61613C6.50304 6.79604 6.5746 6.96851 6.70181 7.09573C6.82903 7.22294 7.0015 7.2945 7.18141 7.2947ZM7.18141 6.27684C7.24851 6.27684 7.31411 6.29674 7.3699 6.33402C7.4257 6.37131 7.46919 6.42429 7.49487 6.48629C7.52055 6.54829 7.52727 6.61651 7.51417 6.68232C7.50108 6.74814 7.46877 6.80859 7.42132 6.85604C7.37387 6.90349 7.31342 6.9358 7.2476 6.9489C7.18179 6.96199 7.11357 6.95527 7.05157 6.92959C6.98957 6.90391 6.93658 6.86042 6.8993 6.80463C6.86202 6.74883 6.84212 6.68323 6.84212 6.61613C6.84221 6.52617 6.87799 6.43993 6.94159 6.37632C7.0052 6.31271 7.09145 6.27693 7.18141 6.27684ZM30.988 5.25899C30.8985 5.25899 30.811 5.28552 30.7366 5.33523C30.6622 5.38494 30.6042 5.45559 30.57 5.53825C30.5358 5.62091 30.5268 5.71187 30.5443 5.79962C30.5617 5.88738 30.6048 5.96798 30.6681 6.03125C30.7313 6.09452 30.8119 6.1376 30.8997 6.15506C30.9875 6.17251 31.0784 6.16355 31.1611 6.12931C31.2437 6.09507 31.3144 6.03709 31.3641 5.9627C31.4138 5.8883 31.4403 5.80084 31.4403 5.71137C31.4402 5.59143 31.3925 5.47645 31.3077 5.39164C31.2229 5.30683 31.1079 5.25912 30.988 5.25899ZM30.988 5.93756C30.9432 5.93756 30.8995 5.92429 30.8623 5.89944C30.8251 5.87458 30.7961 5.83926 30.779 5.79793C30.7619 5.7566 30.7574 5.71112 30.7661 5.66724C30.7748 5.62336 30.7964 5.58306 30.828 5.55143C30.8596 5.51979 30.9 5.49825 30.9438 5.48952C30.9877 5.4808 31.0332 5.48528 31.0745 5.5024C31.1158 5.51952 31.1512 5.54851 31.176 5.5857C31.2009 5.6229 31.2141 5.66663 31.2141 5.71137C31.2141 5.77134 31.1902 5.82884 31.1478 5.87124C31.1054 5.91365 31.0479 5.9375 30.988 5.93756ZM2.14867 1.30065C2.0592 1.30065 1.97173 1.32719 1.89734 1.37689C1.82295 1.4266 1.76496 1.49725 1.73072 1.57992C1.69649 1.66258 1.68753 1.75354 1.70498 1.84129C1.72244 1.92904 1.76552 2.00965 1.82879 2.07292C1.89206 2.13618 1.97266 2.17927 2.06042 2.19672C2.14817 2.21418 2.23913 2.20522 2.32179 2.17098C2.40445 2.13674 2.4751 2.07876 2.52481 2.00436C2.57452 1.92997 2.60105 1.84251 2.60105 1.75303C2.60091 1.6331 2.55321 1.51811 2.4684 1.4333C2.38359 1.3485 2.26861 1.30079 2.14867 1.30065ZM2.14867 1.97923C2.10393 1.97923 2.0602 1.96596 2.02301 1.94111C1.98581 1.91625 1.95682 1.88092 1.9397 1.83959C1.92258 1.79826 1.9181 1.75278 1.92683 1.70891C1.93555 1.66503 1.9571 1.62473 1.98873 1.59309C2.02036 1.56146 2.06067 1.53992 2.10454 1.53119C2.14842 1.52246 2.1939 1.52694 2.23523 1.54406C2.27656 1.56118 2.31189 1.59017 2.33674 1.62737C2.36159 1.66457 2.37486 1.7083 2.37486 1.75303C2.3748 1.81301 2.35095 1.8705 2.30854 1.91291C2.26614 1.95532 2.20864 1.97917 2.14867 1.97923ZM37.0951 1.30065C37.0056 1.30065 36.9182 1.32719 36.8438 1.37689C36.7694 1.4266 36.7114 1.49725 36.6772 1.57992C36.6429 1.66258 36.634 1.75354 36.6514 1.84129C36.6689 1.92904 36.7119 2.00965 36.7752 2.07292C36.8385 2.13618 36.9191 2.17927 37.0068 2.19672C37.0946 2.21418 37.1856 2.20522 37.2682 2.17098C37.3509 2.13674 37.4215 2.07876 37.4712 2.00436C37.5209 1.92997 37.5475 1.84251 37.5475 1.75303C37.5473 1.6331 37.4996 1.51811 37.4148 1.4333C37.33 1.3485 37.215 1.30079 37.0951 1.30065ZM37.0951 1.97923C37.0504 1.97923 37.0066 1.96596 36.9694 1.94111C36.9322 1.91625 36.9032 1.88092 36.8861 1.83959C36.869 1.79826 36.8645 1.75278 36.8733 1.70891C36.882 1.66503 36.9035 1.62473 36.9352 1.59309C36.9668 1.56146 37.0071 1.53992 37.051 1.53119C37.0948 1.52246 37.1403 1.52694 37.1817 1.54406C37.223 1.56118 37.2583 1.59017 37.2832 1.62737C37.308 1.66457 37.3213 1.7083 37.3213 1.75303C37.3212 1.81301 37.2974 1.8705 37.255 1.91291C37.2126 1.95532 37.1551 1.97917 37.0951 1.97923ZM14.4761 1.52684C14.4761 1.43737 14.4495 1.34991 14.3998 1.27551C14.3501 1.20112 14.2794 1.14314 14.1968 1.1089C14.1141 1.07466 14.0232 1.0657 13.9354 1.08316C13.8477 1.10061 13.7671 1.1437 13.7038 1.20696C13.6405 1.27023 13.5974 1.35084 13.58 1.43859C13.5625 1.52634 13.5715 1.6173 13.6057 1.69996C13.64 1.78262 13.6979 1.85328 13.7723 1.90299C13.8467 1.95269 13.9342 1.97923 14.0237 1.97923C14.1436 1.97909 14.2586 1.93138 14.3434 1.84657C14.4282 1.76177 14.4759 1.64678 14.4761 1.52684ZM13.7975 1.52684C13.7975 1.48211 13.8107 1.43838 13.8356 1.40118C13.8605 1.36398 13.8958 1.33499 13.9371 1.31787C13.9784 1.30075 14.0239 1.29627 14.0678 1.305C14.1117 1.31373 14.152 1.33527 14.1836 1.3669C14.2152 1.39854 14.2368 1.43884 14.2455 1.48272C14.2542 1.52659 14.2498 1.57207 14.2326 1.6134C14.2155 1.65473 14.1865 1.69006 14.1493 1.71491C14.1121 1.73977 14.0684 1.75303 14.0237 1.75303C13.9637 1.75297 13.9062 1.72912 13.8638 1.68672C13.8214 1.64431 13.7975 1.58682 13.7975 1.52684Z" fill="black"/>
<path d="M2.46295 15.8924L2.79929 15.4502L2.5869 15.3298L2.37089 15.8252H2.36388L2.14447 15.3332L1.92846 15.4572L2.26119 15.889V15.896L1.74072 15.8288V16.0695L2.26458 16.0023V16.0093L1.92846 16.4409L2.13 16.5685L2.36026 16.0695H2.36727L2.57966 16.5648L2.80269 16.4375L2.46295 16.0127V16.0057L2.99721 16.0695V15.8288L2.46295 15.8994V15.8924Z" fill="black"/>
<path d="M28.5757 14.9489L28.382 15.1975L28.4981 15.2708L28.6306 14.9835H28.6347L28.7571 15.2688L28.8855 15.1955L28.6899 14.9507V14.9467L28.9975 14.9835V14.8449L28.6899 14.8856V14.8815L28.8835 14.6268L28.7611 14.5576L28.6367 14.8428H28.6327L28.5064 14.5594L28.382 14.6309L28.5736 14.8795V14.8836L28.2739 14.8449V14.9835L28.5757 14.9449V14.9489Z" fill="black"/>
<path d="M37.7113 15.0322V14.796L37.1872 14.8655V14.8587L37.5172 14.4246L37.3089 14.3068L37.0972 14.7926H37.0899L36.8751 14.3102L36.6629 14.4316L36.9895 14.8553V14.8621L36.479 14.796V15.0322L36.9929 14.9663V14.9731L36.6629 15.3965L36.8608 15.5216L37.0868 15.0322H37.0933L37.3017 15.5182L37.5206 15.3932L37.1872 14.9765V14.9697L37.7113 15.0322Z" fill="black"/>
<path d="M26.9391 2.49664L27.2236 2.12229L27.0438 2.02051L26.8613 2.43964H26.8551L26.6697 2.02345L26.4867 2.1284L26.7683 2.4937V2.49958L26.3281 2.44281V2.64638L26.7712 2.5896V2.59548L26.4867 2.96078L26.6575 3.06867L26.8522 2.64638H26.8581L27.0377 3.06551L27.2266 2.95784L26.9391 2.59842V2.59254L27.391 2.64638V2.44281L26.9391 2.50252V2.49664Z" fill="black"/>
<path d="M0.452381 33.7589C0.702224 33.7589 0.904762 33.5564 0.904762 33.3065C0.904762 33.0567 0.702224 32.8541 0.452381 32.8541C0.202538 32.8541 0 33.0567 0 33.3065C0 33.5564 0.202538 33.7589 0.452381 33.7589Z" fill="black"/>
<path d="M2.48789 32.8541H1.80931C1.68934 32.8541 1.57427 32.9018 1.48943 32.9866C1.40459 33.0715 1.35693 33.1865 1.35693 33.3065C1.35693 33.4265 1.40459 33.5416 1.48943 33.6264C1.57427 33.7112 1.68934 33.7589 1.80931 33.7589H2.48789C2.60786 33.7589 2.72293 33.7112 2.80777 33.6264C2.89261 33.5416 2.94027 33.4265 2.94027 33.3065C2.94027 33.1865 2.89261 33.0715 2.80777 32.9866C2.72293 32.9018 2.60786 32.8541 2.48789 32.8541ZM36.1903 32.8541H35.5117C35.3917 32.8541 35.2766 32.9018 35.1918 32.9866C35.107 33.0715 35.0593 33.1865 35.0593 33.3065C35.0593 33.4265 35.107 33.5416 35.1918 33.6264C35.2766 33.7112 35.3917 33.7589 35.5117 33.7589H36.1903C36.3102 33.7589 36.4253 33.7112 36.5101 33.6264C36.595 33.5416 36.6426 33.4265 36.6426 33.3065C36.6426 33.1865 36.595 33.0715 36.5101 32.9866C36.4253 32.9018 36.3102 32.8541 36.1903 32.8541Z" fill="black"/>
<path d="M37.5476 33.7589C37.7974 33.7589 38 33.5564 38 33.3065C38 33.0567 37.7974 32.8541 37.5476 32.8541C37.2978 32.8541 37.0952 33.0567 37.0952 33.3065C37.0952 33.5564 37.2978 33.7589 37.5476 33.7589Z" fill="black"/>
<path d="M26.7251 34.6637H24.8459C24.7322 34.6728 24.6261 34.7244 24.5487 34.8083C24.4713 34.8921 24.4284 35.002 24.4284 35.1161C24.4284 35.2302 24.4713 35.3401 24.5487 35.4239C24.6261 35.5077 24.7322 35.5593 24.8459 35.5685H26.7251C26.8388 35.5593 26.9449 35.5077 27.0223 35.4239C27.0997 35.3401 27.1427 35.2302 27.1427 35.1161C27.1427 35.002 27.0997 34.8921 27.0223 34.8083C26.9449 34.7244 26.8388 34.6728 26.7251 34.6637ZM13.1536 34.6637H11.2745C11.1608 34.6728 11.0547 34.7244 10.9773 34.8083C10.8999 34.8921 10.8569 35.002 10.8569 35.1161C10.8569 35.2302 10.8999 35.3401 10.9773 35.4239C11.0547 35.5077 11.1608 35.5593 11.2745 35.5685H13.1536C13.2674 35.5593 13.3735 35.5077 13.4509 35.4239C13.5283 35.3401 13.5712 35.2302 13.5712 35.1161C13.5712 35.002 13.5283 34.8921 13.4509 34.8083C13.3735 34.7244 13.2674 34.6728 13.1536 34.6637ZM23.5236 34.6637H14.476C14.356 34.6637 14.2409 34.7114 14.1561 34.7962C14.0713 34.881 14.0236 34.9961 14.0236 35.1161C14.0236 35.2361 14.0713 35.3511 14.1561 35.436C14.2409 35.5208 14.356 35.5685 14.476 35.5685H18.0815V36.0208H16.2855C16.1655 36.0208 16.0505 36.0685 15.9656 36.1533C15.8808 36.2382 15.8331 36.3532 15.8331 36.4732C15.8331 36.5932 15.8808 36.7083 15.9656 36.7931C16.0505 36.8779 16.1655 36.9256 16.2855 36.9256H21.9403C22.0603 36.9256 22.1753 36.8779 22.2602 36.7931C22.345 36.7083 22.3927 36.5932 22.3927 36.4732C22.3927 36.3532 22.345 36.2382 22.2602 36.1533C22.1753 36.0685 22.0603 36.0208 21.9403 36.0208H19.9181V35.5685H23.5236C23.6436 35.5685 23.7587 35.5208 23.8435 35.436C23.9283 35.3511 23.976 35.2361 23.976 35.1161C23.976 34.9961 23.9283 34.881 23.8435 34.7962C23.7587 34.7114 23.6436 34.6637 23.5236 34.6637Z" fill="black"/>
<path d="M12.2143 15.9887C12.0658 15.6932 11.9885 15.367 11.9885 15.0362C11.9885 14.7055 12.0658 14.3793 12.2143 14.0838V7.06842C12.2147 6.70861 12.3579 6.36365 12.6123 6.10923C12.8667 5.8548 13.2117 5.71169 13.5715 5.71128H14.7044C14.7036 5.78882 14.7229 5.86524 14.7605 5.93305L15.1422 6.61163C15.2771 6.8826 15.4844 7.11096 15.7411 7.27142C15.9978 7.43189 16.2938 7.5182 16.5965 7.5208H21.3795C22.0667 7.5208 22.7554 7.1158 22.9815 6.57915L23.2622 5.91383C23.2887 5.84978 23.3 5.78044 23.2952 5.71128H24.4286C24.7884 5.71169 25.1334 5.8548 25.3878 6.10923C25.6422 6.36365 25.7854 6.70861 25.7858 7.06842V14.0833C25.9343 14.379 26.0116 14.7053 26.0116 15.0362C26.0116 15.3671 25.9343 15.6933 25.7858 15.989V16.7385C26.1121 16.7819 26.4228 16.9048 26.6905 17.0965V7.06842C26.6888 6.46907 26.4499 5.89476 26.0261 5.47095C25.6023 5.04714 25.028 4.80827 24.4286 4.80652H13.5715C12.9721 4.80827 12.3978 5.04714 11.974 5.47095C11.5502 5.89476 11.3113 6.46907 11.3096 7.06842V17.0963C11.5773 16.9046 11.888 16.7818 12.2143 16.7385V15.9887ZM22.3656 5.71128L22.1478 6.2275C22.0611 6.34995 21.9457 6.44936 21.8118 6.51707C21.6779 6.58479 21.5295 6.61876 21.3794 6.61604H16.5965C16.4547 6.61154 16.317 6.56712 16.1992 6.48788C16.0814 6.40864 15.9884 6.2978 15.9308 6.16808L15.6738 5.71128H22.3656Z" fill="black"/>
<path d="M12.4764 20.9415H13.1486C13.2773 21.3962 13.459 21.8343 13.6898 22.2467L13.2132 22.7229C12.9955 22.9592 12.8801 23.2721 12.8922 23.5931C12.9043 23.9142 13.0428 24.2175 13.2777 24.4368L13.8462 25.0057C14.0661 25.2401 14.3696 25.3782 14.6908 25.3899C15.0119 25.4017 15.3247 25.2861 15.5611 25.0684L16.0359 24.5926C16.4481 24.8236 16.8861 25.0053 17.3408 25.1339V25.8063C17.3536 26.1275 17.4931 26.4306 17.7288 26.6493C17.9645 26.868 18.2771 26.9844 18.5984 26.9732H19.4016C19.7229 26.9844 20.0355 26.8679 20.2712 26.6493C20.5068 26.4306 20.6463 26.1275 20.6591 25.8063V25.1339C21.1138 25.0052 21.5518 24.8235 21.964 24.5925L22.4402 25.0692C22.6767 25.2867 22.9895 25.4019 23.3106 25.3899C23.6316 25.3779 23.935 25.2396 24.1546 25.0051L24.7231 24.4363C24.9574 24.2166 25.0955 23.9132 25.1072 23.5922C25.1188 23.2712 25.0033 22.9586 24.7855 22.7225L24.3101 22.2469C24.5408 21.8344 24.7225 21.3963 24.8513 20.9415H25.5226C25.8439 20.9289 26.1471 20.7895 26.3659 20.554C26.5847 20.3184 26.7013 20.0058 26.6903 19.6845V18.881C26.7013 18.5597 26.5847 18.2471 26.3659 18.0115C26.1471 17.776 25.8439 17.6367 25.5227 17.624H24.8514C24.7227 17.1693 24.5411 16.7313 24.3102 16.319L24.7859 15.843C25.0036 15.6069 25.1191 15.2943 25.1073 14.9733C25.0955 14.6524 24.9573 14.3491 24.7228 14.1296L24.1541 13.5601C23.9346 13.3253 23.6312 13.1869 23.31 13.1751C22.9888 13.1634 22.676 13.2792 22.4399 13.4972L21.9641 13.9726C21.5519 13.7416 21.1138 13.56 20.6591 13.4314V12.7595C20.6463 12.4382 20.5069 12.1351 20.2712 11.9164C20.0356 11.6977 19.7229 11.5811 19.4016 11.5923H18.5984C18.2771 11.5811 17.9644 11.6976 17.7288 11.9163C17.4931 12.1351 17.3536 12.4382 17.3408 12.7595V13.4314C16.8861 13.56 16.4481 13.7416 16.0358 13.9725L15.5607 13.4972C15.3243 13.2793 15.0113 13.1636 14.6899 13.1755C14.3686 13.1874 14.065 13.3259 13.8454 13.5607L13.2782 14.1289C13.0431 14.3481 12.9043 14.6515 12.8922 14.9728C12.8801 15.2941 12.9957 15.6071 13.2137 15.8434L13.6897 16.3192C13.4588 16.7314 13.2771 17.1693 13.1486 17.624H12.4764C12.1552 17.6367 11.8522 17.7761 11.6335 18.0116C11.4148 18.2472 11.2982 18.5597 11.3093 18.881V19.6845C11.2982 20.0057 11.4147 20.3183 11.6334 20.5538C11.8521 20.7894 12.1552 20.9288 12.4764 20.9415ZM12.2141 18.881C12.2141 18.69 12.3342 18.5288 12.4764 18.5288H13.5015C13.6048 18.5288 13.7049 18.4935 13.7853 18.4287C13.8657 18.364 13.9215 18.2737 13.9435 18.1728C14.0739 17.5758 14.3098 17.0068 14.6401 16.4927C14.6958 16.4058 14.72 16.3025 14.7089 16.2C14.6978 16.0974 14.652 16.0017 14.579 15.9288L13.8541 15.2042C13.8075 15.1371 13.7882 15.0548 13.8 14.9739C13.8118 14.8931 13.8539 14.8198 13.9178 14.7689L14.4849 14.2008C14.5361 14.137 14.6095 14.095 14.6904 14.0832C14.7713 14.0714 14.8537 14.0906 14.921 14.137L15.6454 14.8618C15.7183 14.9348 15.814 14.9806 15.9166 14.9917C16.0192 15.0029 16.1225 14.9785 16.2093 14.9228C16.7235 14.5926 17.2925 14.3568 17.8895 14.2265C17.9904 14.2045 18.0807 14.1487 18.1455 14.0683C18.2103 13.9879 18.2456 13.8878 18.2456 13.7845V12.7595C18.2456 12.6172 18.4072 12.4971 18.5984 12.4971H19.4016C19.5928 12.4971 19.7544 12.6172 19.7544 12.7595V13.7845C19.7544 13.8878 19.7897 13.9879 19.8545 14.0683C19.9193 14.1487 20.0096 14.2045 20.1105 14.2265C20.7076 14.3568 21.2765 14.5927 21.7906 14.923C21.8774 14.9786 21.9807 15.0029 22.0832 14.9918C22.1857 14.9807 22.2813 14.9348 22.3542 14.8619L23.0796 14.1369C23.1467 14.0906 23.2288 14.0713 23.3095 14.083C23.3902 14.0947 23.4634 14.1365 23.5145 14.2L24.0827 14.769C24.1462 14.8201 24.188 14.8933 24.1997 14.974C24.2114 15.0546 24.192 15.1367 24.1456 15.2037L23.4209 15.929C23.348 16.002 23.3022 16.0976 23.2911 16.2002C23.28 16.3027 23.3043 16.406 23.3599 16.4928C23.6902 17.007 23.9261 17.576 24.0566 18.173C24.0786 18.2738 24.1345 18.3641 24.2148 18.4288C24.2952 18.4935 24.3953 18.5288 24.4985 18.5288H25.5226C25.6651 18.5288 25.7855 18.69 25.7855 18.881V19.6845C25.7855 19.8754 25.6651 20.0368 25.5226 20.0368H24.4985C24.3953 20.0368 24.2952 20.072 24.2148 20.1368C24.1345 20.2015 24.0786 20.2917 24.0566 20.3925C23.9257 20.9898 23.6897 21.559 23.3597 22.0737C23.3042 22.1605 23.28 22.2638 23.2911 22.3662C23.3022 22.4687 23.348 22.5643 23.4209 22.6372L24.1454 23.3619C24.1919 23.429 24.2113 23.5111 24.1997 23.5919C24.188 23.6726 24.1463 23.746 24.0828 23.7972L23.5152 24.365C23.4641 24.4286 23.3908 24.4706 23.3101 24.4825C23.2293 24.4944 23.147 24.4754 23.0797 24.4292L22.3546 23.7032C22.2815 23.6302 22.1858 23.5844 22.0832 23.5733C21.9806 23.5622 21.8772 23.5865 21.7903 23.6421C21.2761 23.9726 20.7071 24.2087 20.11 24.3393C20.0092 24.3613 19.919 24.4171 19.8543 24.4975C19.7896 24.5779 19.7543 24.678 19.7544 24.7811V25.8063C19.7544 25.9484 19.5928 26.0685 19.4016 26.0685H18.5984C18.4072 26.0685 18.2456 25.9484 18.2456 25.8063V24.7811C18.2456 24.678 18.2103 24.5779 18.1456 24.4975C18.081 24.4171 17.9907 24.3613 17.8899 24.3393C17.2928 24.2087 16.7238 23.9727 16.2096 23.6422C16.1227 23.5864 16.0193 23.5621 15.9166 23.5732C15.8139 23.5843 15.7181 23.6303 15.6452 23.7034L14.9217 24.4283C14.8545 24.4748 14.7722 24.4942 14.6913 24.4826C14.6104 24.471 14.5368 24.4291 14.4855 24.3655L13.9174 23.7971C13.8537 23.7461 13.8118 23.673 13.7999 23.5923C13.788 23.5117 13.8071 23.4295 13.8533 23.3624L14.5789 22.6374C14.6519 22.5645 14.6977 22.4689 14.7089 22.3664C14.7201 22.2638 14.6959 22.1606 14.6403 22.0737C14.3102 21.5592 14.0742 20.99 13.9435 20.3928C13.9216 20.292 13.8657 20.2016 13.7853 20.1369C13.7049 20.0721 13.6048 20.0368 13.5015 20.0368H12.4764C12.3342 20.0368 12.2141 19.8754 12.2141 19.6845V18.881Z" fill="black"/>
<path d="M18.9999 22.4494C19.6262 22.4495 20.2385 22.2638 20.7593 21.9159C21.2801 21.5679 21.686 21.0734 21.9257 20.4948C22.1654 19.9161 22.2282 19.2794 22.106 18.6651C21.9839 18.0508 21.6823 17.4866 21.2394 17.0437C20.7966 16.6008 20.2323 16.2992 19.618 16.177C19.0038 16.0547 18.367 16.1174 17.7884 16.3571C17.2097 16.5968 16.7152 17.0027 16.3672 17.5234C16.0192 18.0442 15.8335 18.6564 15.8335 19.2828C15.8336 20.1225 16.1673 20.9279 16.7611 21.5217C17.3548 22.1155 18.1601 22.4492 18.9999 22.4494ZM18.9999 17.0209C19.4473 17.0208 19.8846 17.1534 20.2566 17.4019C20.6286 17.6504 20.9186 18.0037 21.0898 18.417C21.2611 18.8303 21.3059 19.2851 21.2186 19.7239C21.1314 20.1627 20.916 20.5657 20.5997 20.8821C20.2833 21.1984 19.8803 21.4139 19.4415 21.5012C19.0028 21.5885 18.548 21.5437 18.1346 21.3725C17.7213 21.2013 17.368 20.9114 17.1195 20.5394C16.8709 20.1675 16.7383 19.7301 16.7383 19.2828C16.739 18.6831 16.9775 18.1083 17.4014 17.6842C17.8254 17.2602 18.4003 17.0216 18.9999 17.0209Z" fill="black"/>
<path d="M19.0002 27.8779C18.8803 27.8779 18.7652 27.9256 18.6804 28.0104C18.5955 28.0953 18.5479 28.2103 18.5479 28.3303V30.5922C18.5479 30.7122 18.5955 30.8273 18.6804 30.9121C18.7652 30.9969 18.8803 31.0446 19.0002 31.0446C19.1202 31.0446 19.2353 30.9969 19.3201 30.9121C19.405 30.8273 19.4526 30.7122 19.4526 30.5922V28.3303C19.4526 28.2103 19.4049 28.0953 19.3201 28.0104C19.2353 27.9256 19.1202 27.8779 19.0002 27.8779Z" fill="black"/>
<path d="M16.7383 28.3303V29.2351C16.7383 29.3551 16.7859 29.4701 16.8708 29.555C16.9556 29.6398 17.0707 29.6875 17.1907 29.6875C17.3106 29.6875 17.4257 29.6398 17.5105 29.555C17.5954 29.4701 17.643 29.3551 17.643 29.2351V28.3303C17.643 28.2103 17.5954 28.0953 17.5105 28.0104C17.4257 27.9256 17.3106 27.8779 17.1907 27.8779C17.0707 27.8779 16.9556 27.9256 16.8708 28.0104C16.7859 28.0953 16.7383 28.2103 16.7383 28.3303ZM20.3573 28.3303V29.2351C20.3573 29.3551 20.405 29.4701 20.4898 29.555C20.5747 29.6398 20.6897 29.6875 20.8097 29.6875C20.9297 29.6875 21.0448 29.6398 21.1296 29.555C21.2144 29.4701 21.2621 29.3551 21.2621 29.2351V28.3303C21.2621 28.2103 21.2144 28.0953 21.1296 28.0104C21.0448 27.9256 20.9297 27.8779 20.8097 27.8779C20.6897 27.8779 20.5747 27.9256 20.4898 28.0104C20.405 28.0953 20.3573 28.2103 20.3573 28.3303Z" fill="black"/>
<path d="M34.0916 32.8542H26.2317C26.5287 32.4641 26.6898 31.9874 26.6903 31.4971V21.469C26.4226 21.6607 26.1119 21.7836 25.7856 21.827V22.577C25.9339 22.8726 26.0111 23.1988 26.0111 23.5296C26.0111 23.8603 25.9339 24.1865 25.7856 24.4822V31.4971C25.7852 31.8569 25.642 32.2019 25.3876 32.4563C25.1332 32.7107 24.7882 32.8538 24.4284 32.8542H13.5713C13.2115 32.8538 12.8665 32.7107 12.6121 32.4563C12.3577 32.2019 12.2146 31.8569 12.2141 31.4971V24.4822C12.0656 24.1865 11.9882 23.8602 11.9882 23.5292C11.9882 23.1983 12.0656 22.8719 12.2141 22.5762V21.827C11.8878 21.7837 11.5771 21.6609 11.3094 21.4692V31.4971C11.3099 31.9874 11.471 32.4641 11.768 32.8542H3.90813C3.84377 32.8458 3.77836 32.8512 3.71626 32.8701C3.65417 32.889 3.59682 32.9209 3.54804 32.9637C3.49926 33.0066 3.46018 33.0593 3.43341 33.1184C3.40664 33.1775 3.39279 33.2417 3.39279 33.3066C3.39279 33.3715 3.40664 33.4357 3.43341 33.4948C3.46018 33.5539 3.49926 33.6066 3.54804 33.6495C3.59682 33.6923 3.65417 33.7242 3.71626 33.7431C3.77836 33.762 3.84377 33.7674 3.90813 33.759H34.0916C34.1559 33.7674 34.2214 33.762 34.2834 33.7431C34.3455 33.7242 34.4029 33.6923 34.4517 33.6495C34.5004 33.6066 34.5395 33.5539 34.5663 33.4948C34.5931 33.4357 34.6069 33.3715 34.6069 33.3066C34.6069 33.2417 34.5931 33.1775 34.5663 33.1184C34.5395 33.0593 34.5004 33.0066 34.4517 32.9637C34.4029 32.9209 34.3455 32.889 34.2834 32.8701C34.2214 32.8512 34.1559 32.8458 34.0916 32.8542ZM7.18141 7.2947C7.31562 7.2947 7.44681 7.2549 7.5584 7.18034C7.66999 7.10578 7.75697 6.9998 7.80833 6.87581C7.85969 6.75182 7.87312 6.61538 7.84694 6.48375C7.82076 6.35212 7.75613 6.23121 7.66123 6.13631C7.56633 6.04141 7.44542 5.97678 7.31379 5.9506C7.18216 5.92441 7.04572 5.93785 6.92173 5.98921C6.79774 6.04057 6.69176 6.12755 6.6172 6.23914C6.54263 6.35073 6.50284 6.48192 6.50284 6.61613C6.50304 6.79604 6.5746 6.96851 6.70181 7.09573C6.82903 7.22294 7.0015 7.2945 7.18141 7.2947ZM7.18141 6.27684C7.24851 6.27684 7.31411 6.29674 7.3699 6.33402C7.4257 6.37131 7.46919 6.42429 7.49487 6.48629C7.52055 6.54829 7.52727 6.61651 7.51417 6.68232C7.50108 6.74814 7.46877 6.80859 7.42132 6.85604C7.37387 6.90349 7.31342 6.9358 7.2476 6.9489C7.18179 6.96199 7.11357 6.95527 7.05157 6.92959C6.98957 6.90391 6.93658 6.86042 6.8993 6.80463C6.86202 6.74883 6.84212 6.68323 6.84212 6.61613C6.84221 6.52617 6.87799 6.43993 6.94159 6.37632C7.0052 6.31271 7.09145 6.27693 7.18141 6.27684ZM30.988 5.25899C30.8985 5.25899 30.811 5.28552 30.7366 5.33523C30.6622 5.38494 30.6042 5.45559 30.57 5.53825C30.5358 5.62091 30.5268 5.71187 30.5443 5.79962C30.5617 5.88738 30.6048 5.96798 30.6681 6.03125C30.7313 6.09452 30.8119 6.1376 30.8997 6.15506C30.9875 6.17251 31.0784 6.16355 31.1611 6.12931C31.2437 6.09507 31.3144 6.03709 31.3641 5.9627C31.4138 5.8883 31.4403 5.80084 31.4403 5.71137C31.4402 5.59143 31.3925 5.47645 31.3077 5.39164C31.2229 5.30683 31.1079 5.25912 30.988 5.25899ZM30.988 5.93756C30.9432 5.93756 30.8995 5.92429 30.8623 5.89944C30.8251 5.87458 30.7961 5.83926 30.779 5.79793C30.7619 5.7566 30.7574 5.71112 30.7661 5.66724C30.7748 5.62336 30.7964 5.58306 30.828 5.55143C30.8596 5.51979 30.9 5.49825 30.9438 5.48952C30.9877 5.4808 31.0332 5.48528 31.0745 5.5024C31.1158 5.51952 31.1512 5.54851 31.176 5.5857C31.2009 5.6229 31.2141 5.66663 31.2141 5.71137C31.2141 5.77134 31.1902 5.82884 31.1478 5.87124C31.1054 5.91365 31.0479 5.9375 30.988 5.93756ZM2.14867 1.30065C2.0592 1.30065 1.97173 1.32719 1.89734 1.37689C1.82295 1.4266 1.76496 1.49725 1.73072 1.57992C1.69649 1.66258 1.68753 1.75354 1.70498 1.84129C1.72244 1.92904 1.76552 2.00965 1.82879 2.07292C1.89206 2.13618 1.97266 2.17927 2.06042 2.19672C2.14817 2.21418 2.23913 2.20522 2.32179 2.17098C2.40445 2.13674 2.4751 2.07876 2.52481 2.00436C2.57452 1.92997 2.60105 1.84251 2.60105 1.75303C2.60091 1.6331 2.55321 1.51811 2.4684 1.4333C2.38359 1.3485 2.26861 1.30079 2.14867 1.30065ZM2.14867 1.97923C2.10393 1.97923 2.0602 1.96596 2.02301 1.94111C1.98581 1.91625 1.95682 1.88092 1.9397 1.83959C1.92258 1.79826 1.9181 1.75278 1.92683 1.70891C1.93555 1.66503 1.9571 1.62473 1.98873 1.59309C2.02036 1.56146 2.06067 1.53992 2.10454 1.53119C2.14842 1.52246 2.1939 1.52694 2.23523 1.54406C2.27656 1.56118 2.31189 1.59017 2.33674 1.62737C2.36159 1.66457 2.37486 1.7083 2.37486 1.75303C2.3748 1.81301 2.35095 1.8705 2.30854 1.91291C2.26614 1.95532 2.20864 1.97917 2.14867 1.97923ZM37.0951 1.30065C37.0056 1.30065 36.9182 1.32719 36.8438 1.37689C36.7694 1.4266 36.7114 1.49725 36.6772 1.57992C36.6429 1.66258 36.634 1.75354 36.6514 1.84129C36.6689 1.92904 36.7119 2.00965 36.7752 2.07292C36.8385 2.13618 36.9191 2.17927 37.0068 2.19672C37.0946 2.21418 37.1856 2.20522 37.2682 2.17098C37.3509 2.13674 37.4215 2.07876 37.4712 2.00436C37.5209 1.92997 37.5475 1.84251 37.5475 1.75303C37.5473 1.6331 37.4996 1.51811 37.4148 1.4333C37.33 1.3485 37.215 1.30079 37.0951 1.30065ZM37.0951 1.97923C37.0504 1.97923 37.0066 1.96596 36.9694 1.94111C36.9322 1.91625 36.9032 1.88092 36.8861 1.83959C36.869 1.79826 36.8645 1.75278 36.8733 1.70891C36.882 1.66503 36.9035 1.62473 36.9352 1.59309C36.9668 1.56146 37.0071 1.53992 37.051 1.53119C37.0948 1.52246 37.1403 1.52694 37.1817 1.54406C37.223 1.56118 37.2583 1.59017 37.2832 1.62737C37.308 1.66457 37.3213 1.7083 37.3213 1.75303C37.3212 1.81301 37.2974 1.8705 37.255 1.91291C37.2126 1.95532 37.1551 1.97917 37.0951 1.97923ZM14.4761 1.52684C14.4761 1.43737 14.4495 1.34991 14.3998 1.27551C14.3501 1.20112 14.2794 1.14314 14.1968 1.1089C14.1141 1.07466 14.0232 1.0657 13.9354 1.08316C13.8477 1.10061 13.7671 1.1437 13.7038 1.20696C13.6405 1.27023 13.5974 1.35084 13.58 1.43859C13.5625 1.52634 13.5715 1.6173 13.6057 1.69996C13.64 1.78262 13.6979 1.85328 13.7723 1.90299C13.8467 1.95269 13.9342 1.97923 14.0237 1.97923C14.1436 1.97909 14.2586 1.93138 14.3434 1.84657C14.4282 1.76177 14.4759 1.64678 14.4761 1.52684ZM13.7975 1.52684C13.7975 1.48211 13.8107 1.43838 13.8356 1.40118C13.8605 1.36398 13.8958 1.33499 13.9371 1.31787C13.9784 1.30075 14.0239 1.29627 14.0678 1.305C14.1117 1.31373 14.152 1.33527 14.1836 1.3669C14.2152 1.39854 14.2368 1.43884 14.2455 1.48272C14.2542 1.52659 14.2498 1.57207 14.2326 1.6134C14.2155 1.65473 14.1865 1.69006 14.1493 1.71491C14.1121 1.73977 14.0684 1.75303 14.0237 1.75303C13.9637 1.75297 13.9062 1.72912 13.8638 1.68672C13.8214 1.64431 13.7975 1.58682 13.7975 1.52684Z" fill="black"/>
<path d="M2.46295 15.8924L2.79929 15.4502L2.5869 15.3298L2.37089 15.8252H2.36388L2.14447 15.3332L1.92846 15.4572L2.26119 15.889V15.896L1.74072 15.8288V16.0695L2.26458 16.0023V16.0093L1.92846 16.4409L2.13 16.5685L2.36026 16.0695H2.36727L2.57966 16.5648L2.80269 16.4375L2.46295 16.0127V16.0057L2.99721 16.0695V15.8288L2.46295 15.8994V15.8924Z" fill="black"/>
<path d="M28.5757 14.9489L28.382 15.1975L28.4981 15.2708L28.6306 14.9835H28.6347L28.7571 15.2688L28.8855 15.1955L28.6899 14.9507V14.9467L28.9975 14.9835V14.8449L28.6899 14.8856V14.8815L28.8835 14.6268L28.7611 14.5576L28.6367 14.8428H28.6327L28.5064 14.5594L28.382 14.6309L28.5736 14.8795V14.8836L28.2739 14.8449V14.9835L28.5757 14.9449V14.9489Z" fill="black"/>
<path d="M37.7113 15.0322V14.796L37.1872 14.8655V14.8587L37.5172 14.4246L37.3089 14.3068L37.0972 14.7926H37.0899L36.8751 14.3102L36.6629 14.4316L36.9895 14.8553V14.8621L36.479 14.796V15.0322L36.9929 14.9663V14.9731L36.6629 15.3965L36.8608 15.5216L37.0868 15.0322H37.0933L37.3017 15.5182L37.5206 15.3932L37.1872 14.9765V14.9697L37.7113 15.0322Z" fill="black"/>
<path d="M26.9391 2.49664L27.2236 2.12229L27.0438 2.02051L26.8613 2.43964H26.8551L26.6697 2.02345L26.4867 2.1284L26.7683 2.4937V2.49958L26.3281 2.44281V2.64638L26.7712 2.5896V2.59548L26.4867 2.96078L26.6575 3.06867L26.8522 2.64638H26.8581L27.0377 3.06551L27.2266 2.95784L26.9391 2.59842V2.59254L27.391 2.64638V2.44281L26.9391 2.50252V2.49664Z" fill="black"/>
</svg>
