<svg width="38" height="38" viewBox="0 0 38 38" fill="none" xmlns="http://www.w3.org/2000/svg">
<path d="M5.30587 16.7958L10.6408 19.9006C10.883 20.024 11.1509 20.0883 11.4227 20.0883C11.6945 20.0883 11.9625 20.024 12.2047 19.9006L17.5396 16.7958C17.767 16.6458 17.9561 16.4447 18.0919 16.2086C18.2276 15.9725 18.3063 15.7079 18.3215 15.436V9.21572C18.3063 8.94379 18.2276 8.67919 18.0919 8.44308C17.9561 8.20698 17.767 8.00591 17.5396 7.85594L12.2047 4.75111C11.9625 4.62769 11.6946 4.56335 11.4227 4.56335C11.1509 4.56335 10.883 4.62769 10.6408 4.75111L5.30587 7.85594C5.07851 8.00591 4.88938 8.20698 4.75361 8.44308C4.61783 8.67919 4.53918 8.94379 4.52393 9.21572V15.436C4.53918 15.7079 4.61783 15.9725 4.75361 16.2086C4.88938 16.4447 5.07851 16.6458 5.30587 16.7958ZM5.42869 9.21572C5.45902 8.98687 5.5784 8.77923 5.76092 8.63788L11.0958 5.53308C11.3052 5.44647 11.5403 5.44647 11.7497 5.53308L17.0846 8.63788C17.2671 8.77924 17.3864 8.98688 17.4168 9.21572V15.436C17.3865 15.6648 17.2671 15.8725 17.0846 16.0138L11.7497 19.1186C11.5403 19.2052 11.3052 19.2052 11.0958 19.1186L5.76092 16.0138C5.5784 15.8725 5.45902 15.6648 5.42869 15.436V9.21572ZM20.4606 16.7958L25.7956 19.9006C26.0377 20.024 26.3057 20.0883 26.5775 20.0883C26.8493 20.0883 27.1172 20.024 27.3594 19.9006L32.6944 16.7958C32.9217 16.6458 33.1109 16.4447 33.2466 16.2086C33.3824 15.9725 33.4611 15.7079 33.4763 15.436V9.21572C33.4611 8.94379 33.3824 8.67919 33.2466 8.44308C33.1108 8.20698 32.9217 8.00591 32.6944 7.85594L27.3594 4.75111C27.1173 4.62769 26.8493 4.56335 26.5775 4.56335C26.3057 4.56335 26.0377 4.62769 25.7956 4.75111L20.4606 7.85594C20.2333 8.00591 20.0441 8.20698 19.9084 8.44308C19.7726 8.67919 19.6939 8.94379 19.6787 9.21572V15.436C19.6939 15.7079 19.7726 15.9725 19.9084 16.2086C20.0441 16.4447 20.2333 16.6458 20.4606 16.7958ZM20.5835 9.21572C20.6138 8.98687 20.7332 8.77923 20.9157 8.63788L26.2506 5.53308C26.4599 5.44647 26.6951 5.44647 26.9044 5.53308L32.2393 8.63788C32.4218 8.77924 32.5412 8.98688 32.5715 9.21572V15.436C32.5412 15.6648 32.4218 15.8725 32.2393 16.0138L26.9044 19.1186C26.6951 19.2052 26.4599 19.2052 26.2506 19.1186L20.9157 16.0138C20.7332 15.8725 20.6138 15.6648 20.5835 15.436V9.21572Z" fill="black"/>
<path d="M9.04889 13.9571C9.15829 14.1887 9.2964 14.4056 9.45996 14.6028C9.79462 15.0077 10.2555 15.2887 10.7687 15.4006C11.0564 15.4645 11.3505 15.4953 11.6452 15.4925C12.0263 15.5005 12.405 15.4309 12.7583 15.2878C13.3095 15.0615 13.7521 14.6312 13.9939 14.0866C14.0834 13.8873 14.1321 13.6721 14.1371 13.4537C14.1388 13.3823 14.1257 13.3113 14.0986 13.2451C14.0715 13.179 14.031 13.1193 13.9796 13.0696C13.9302 13.0197 13.8712 12.9803 13.8062 12.9538C13.7413 12.9272 13.6716 12.914 13.6014 12.915C13.5314 12.9087 13.461 12.9193 13.3959 12.9458C13.3309 12.9723 13.2731 13.014 13.2274 13.0674C13.1409 13.1871 13.075 13.3206 13.0326 13.4621C12.9311 13.7721 12.7375 14.0439 12.4777 14.2412C12.2141 14.4236 11.8989 14.5166 11.5785 14.5065C11.2767 14.5133 10.9794 14.4321 10.723 14.2728C10.4662 14.1006 10.2689 13.8533 10.1582 13.5646C10.0139 13.1855 9.94616 12.7816 9.95871 12.3762C9.95871 11.6632 10.1088 11.1132 10.4091 10.7262C10.5493 10.5391 10.7326 10.3886 10.9434 10.2875C11.1541 10.1864 11.3862 10.1376 11.6198 10.1452C11.9046 10.1356 12.1854 10.2143 12.4236 10.3708C12.6646 10.5489 12.8592 10.7825 12.9909 11.0518C13.0587 11.1937 13.1476 11.3247 13.2544 11.4403C13.3538 11.5224 13.4811 11.5628 13.6096 11.553C13.678 11.5536 13.7458 11.5393 13.8083 11.5112C13.8707 11.4831 13.9263 11.4418 13.9712 11.3902C14.0679 11.289 14.1215 11.1542 14.1205 11.0142C14.106 10.714 13.9986 10.4256 13.8132 10.189C13.5823 9.87634 13.2786 9.62471 12.9286 9.45583C12.5198 9.25263 12.0681 9.15088 11.6117 9.15918C11.2204 9.15675 10.8325 9.23065 10.4696 9.37675C10.1166 9.51885 9.79789 9.7346 9.53483 10.0096C9.26295 10.2967 9.05422 10.6376 8.92208 11.0102C8.77385 11.4356 8.70156 11.8838 8.7085 12.3342C8.70702 12.6232 8.73545 12.9115 8.79332 13.1946C8.8478 13.4581 8.9336 13.714 9.04889 13.9571ZM24.2028 15.3794C24.2801 15.3826 24.3573 15.3689 24.4288 15.3392C24.5003 15.3095 24.5644 15.2645 24.6167 15.2074C24.731 15.0607 24.7865 14.8767 24.7724 14.6913V10.5461L25.7499 14.3717C25.7832 14.4974 25.8159 14.6183 25.8477 14.7344C25.8774 14.8455 25.9214 14.9523 25.9785 15.0521C26.0353 15.1487 26.1154 15.2297 26.2115 15.2875C26.3225 15.3518 26.4494 15.3836 26.5776 15.3794C26.7399 15.3891 26.9001 15.338 27.0268 15.2361C27.1273 15.1515 27.204 15.0422 27.2493 14.9189C27.2893 14.8027 27.3412 14.6203 27.4052 14.3717L28.3827 10.5461V14.6913C28.3685 14.8771 28.4249 15.0614 28.5406 15.2074C28.5913 15.2636 28.6537 15.3081 28.7234 15.3378C28.7931 15.3675 28.8684 15.3817 28.9442 15.3794C29.0221 15.3829 29.1 15.3694 29.1721 15.3396C29.2443 15.3099 29.3092 15.2648 29.3621 15.2074C29.4764 15.0608 29.532 14.8768 29.518 14.6913V9.93958C29.5308 9.84081 29.5184 9.74041 29.4821 9.6477C29.4457 9.55498 29.3865 9.47296 29.3099 9.40924C29.1402 9.30974 28.945 9.26213 28.7484 9.27227H28.3659C28.1965 9.26372 28.0269 9.2845 27.8647 9.3337C27.7615 9.37383 27.6786 9.45328 27.6341 9.55457C27.5631 9.72303 27.5061 9.89701 27.4635 10.0748L26.5775 13.364L25.6916 10.0748C25.6488 9.89707 25.5918 9.72311 25.521 9.55457C25.4765 9.45328 25.3935 9.37383 25.2904 9.33369C25.1281 9.2845 24.9586 9.26372 24.7892 9.27227H24.4066C24.2101 9.26213 24.0149 9.30974 23.8451 9.40924C23.7686 9.47296 23.7094 9.55498 23.673 9.6477C23.6366 9.74041 23.6243 9.84081 23.6371 9.93958V14.6913C23.6223 14.8778 23.6787 15.063 23.795 15.2096C23.8468 15.2654 23.9101 15.3095 23.9804 15.3388C24.0508 15.3681 24.1266 15.382 24.2028 15.3794ZM20.2782 28.587C20.6126 28.4407 20.8969 28.1997 21.0959 27.8937C21.2831 27.5946 21.38 27.248 21.3752 26.8953C21.3835 26.6251 21.3284 26.3567 21.2141 26.1118C21.1096 25.902 20.9556 25.7208 20.7655 25.5836C20.5512 25.4326 20.3165 25.313 20.0684 25.2282C19.7682 25.123 19.4627 25.0339 19.153 24.9611C18.884 24.8916 18.691 24.8386 18.5741 24.8023C18.4536 24.7644 18.3374 24.714 18.2275 24.6517C18.1222 24.5955 18.0304 24.5171 17.9584 24.422C17.8921 24.3297 17.8577 24.2182 17.8606 24.1045C17.8629 24.0028 17.8904 23.9032 17.9405 23.8146C17.9907 23.7261 18.0619 23.6513 18.148 23.597C18.3709 23.4472 18.6361 23.3732 18.9043 23.386C19.164 23.3637 19.4234 23.4323 19.6381 23.5802C19.8058 23.7305 19.9393 23.9151 20.0297 24.1213C20.0903 24.2485 20.1693 24.3661 20.2643 24.4701C20.3073 24.5079 20.3573 24.5369 20.4116 24.5552C20.4658 24.5735 20.5231 24.5808 20.5802 24.5768C20.653 24.5778 20.7251 24.5624 20.7911 24.5316C20.8572 24.5009 20.9154 24.4556 20.9614 24.3992C21.06 24.2896 21.1145 24.1474 21.1143 24.0001C21.1117 23.8273 21.0698 23.6575 20.9919 23.5033C20.8972 23.3164 20.7653 23.1508 20.6045 23.0165C20.4082 22.8508 20.1819 22.7245 19.9379 22.6445C19.6305 22.5451 19.3087 22.4978 18.9858 22.5044C18.5763 22.4955 18.1689 22.5671 17.7871 22.7154C17.4737 22.8357 17.2028 23.0459 17.0084 23.3195C16.8281 23.5839 16.7341 23.8976 16.7392 24.2176C16.728 24.533 16.8172 24.8438 16.9941 25.1052C17.1714 25.3494 17.4088 25.5435 17.6832 25.6689C18.0293 25.8261 18.3907 25.9473 18.7616 26.0305C19.0213 26.0886 19.2778 26.1597 19.5303 26.2436C19.7075 26.3015 19.8683 26.401 19.9992 26.5337C20.0605 26.6003 20.1081 26.6783 20.1392 26.7632C20.1703 26.8482 20.1844 26.9385 20.1806 27.0289C20.1807 27.155 20.1502 27.2793 20.0916 27.391C20.033 27.5026 19.948 27.5984 19.8442 27.6699C19.5895 27.8508 19.2817 27.9413 18.9697 27.927C18.7518 27.9361 18.5349 27.8924 18.3375 27.7996C18.1881 27.7244 18.0598 27.6131 17.9644 27.4757C17.8647 27.3223 17.7821 27.1585 17.7179 26.9872C17.6709 26.8479 17.5936 26.7209 17.4915 26.6152C17.4043 26.5321 17.2878 26.4871 17.1674 26.4899C17.0949 26.4877 17.0226 26.5008 16.9555 26.5286C16.8884 26.5563 16.8279 26.5979 16.778 26.6507C16.7283 26.7019 16.6892 26.7623 16.663 26.8286C16.6368 26.8949 16.6239 26.9658 16.6252 27.0371C16.6332 27.3224 16.7215 27.5997 16.8801 27.8371C17.0447 28.1066 17.2719 28.3323 17.5425 28.4949C17.9892 28.7392 18.4937 28.8576 19.0024 28.8377C19.4409 28.8486 19.8764 28.763 20.2782 28.587ZM28.9525 3.16668C29.0868 3.16668 29.2179 3.12688 29.3295 3.05232C29.4411 2.97776 29.5281 2.87178 29.5795 2.74779C29.6308 2.62379 29.6443 2.48735 29.6181 2.35572C29.5919 2.22409 29.5273 2.10318 29.4324 2.00828C29.3375 1.91338 29.2166 1.84876 29.0849 1.82257C28.9533 1.79639 28.8169 1.80983 28.6929 1.86119C28.5689 1.91255 28.4629 1.99952 28.3883 2.11111C28.3138 2.2227 28.274 2.3539 28.274 2.48811C28.2742 2.66801 28.3457 2.84049 28.4729 2.9677C28.6002 3.09491 28.7726 3.16647 28.9525 3.16668ZM28.9525 2.14882C29.0196 2.14882 29.0852 2.16872 29.141 2.206C29.1968 2.24328 29.2403 2.29627 29.266 2.35827C29.2917 2.42026 29.2984 2.48848 29.2853 2.5543C29.2722 2.62011 29.2399 2.68057 29.1925 2.72802C29.145 2.77547 29.0845 2.80778 29.0187 2.82087C28.9529 2.83397 28.8847 2.82725 28.8227 2.80157C28.7607 2.77589 28.7077 2.7324 28.6704 2.6766C28.6332 2.62081 28.6133 2.55521 28.6133 2.48811C28.6133 2.39815 28.6491 2.3119 28.7127 2.24829C28.7763 2.18468 28.8626 2.14891 28.9525 2.14882ZM15.3811 1.80954C15.5153 1.80954 15.6465 1.76974 15.7581 1.69518C15.8697 1.62061 15.9567 1.51464 16.008 1.39064C16.0594 1.26665 16.0728 1.13021 16.0466 0.998582C16.0205 0.866952 15.9558 0.746042 15.8609 0.651142C15.766 0.556242 15.6451 0.491614 15.5135 0.465431C15.3819 0.439249 15.2454 0.452687 15.1214 0.504046C14.9974 0.555406 14.8915 0.64238 14.8169 0.75397C14.7423 0.865561 14.7025 0.996756 14.7025 1.13096C14.7028 1.31087 14.7743 1.48335 14.9015 1.61056C15.0287 1.73777 15.2012 1.80933 15.3811 1.80954ZM15.3811 0.791679C15.4482 0.791679 15.5138 0.811577 15.5696 0.848859C15.6254 0.88614 15.6689 0.939129 15.6946 1.00113C15.7203 1.06312 15.727 1.13134 15.7139 1.19716C15.7008 1.26297 15.6685 1.32343 15.621 1.37088C15.5736 1.41833 15.5131 1.45064 15.4473 1.46373C15.3815 1.47682 15.3133 1.4701 15.2513 1.44442C15.1893 1.41874 15.1363 1.37526 15.099 1.31946C15.0617 1.26367 15.0418 1.19807 15.0418 1.13096C15.0419 1.04101 15.0777 0.95476 15.1413 0.891151C15.2049 0.827542 15.2912 0.791767 15.3811 0.791679ZM37.3216 11.5357C37.3216 11.4463 37.2951 11.3588 37.2453 11.2844C37.1956 11.21 37.125 11.152 37.0423 11.1178C36.9597 11.0835 36.8687 11.0746 36.781 11.092C36.6932 11.1095 36.6126 11.1526 36.5493 11.2158C36.4861 11.2791 36.443 11.3597 36.4255 11.4475C36.4081 11.5352 36.417 11.6262 36.4513 11.7088C36.4855 11.7915 36.5435 11.8622 36.6179 11.9119C36.6923 11.9616 36.7797 11.9881 36.8692 11.9881C36.9891 11.988 37.1041 11.9403 37.1889 11.8555C37.2738 11.7706 37.3215 11.6557 37.3216 11.5357ZM36.8692 11.7619C36.8245 11.7619 36.7807 11.7487 36.7435 11.7238C36.7063 11.6989 36.6774 11.6636 36.6602 11.6223C36.6431 11.581 36.6386 11.5355 36.6474 11.4916C36.6561 11.4477 36.6776 11.4074 36.7093 11.3758C36.7409 11.3442 36.7812 11.3226 36.8251 11.3139C36.869 11.3052 36.9144 11.3096 36.9558 11.3268C36.9971 11.3439 37.0324 11.3729 37.0573 11.4101C37.0821 11.4473 37.0954 11.491 37.0954 11.5357C37.0953 11.5957 37.0715 11.6532 37.0291 11.6956C36.9867 11.738 36.9292 11.7619 36.8692 11.7619ZM8.36921 4.52382C8.45868 4.52382 8.54615 4.49729 8.62054 4.44758C8.69493 4.39787 8.75292 4.32722 8.78716 4.24456C8.8214 4.1619 8.83035 4.07094 8.8129 3.98319C8.79544 3.89543 8.75236 3.81483 8.68909 3.75156C8.62583 3.68829 8.54522 3.64521 8.45747 3.62775C8.36971 3.6103 8.27875 3.61926 8.19609 3.65349C8.11343 3.68773 8.04278 3.74572 7.99307 3.82011C7.94336 3.8945 7.91683 3.98197 7.91683 4.07144C7.91697 4.19138 7.96467 4.30636 8.04948 4.39117C8.13429 4.47598 8.24927 4.52368 8.36921 4.52382ZM8.36921 3.84525C8.41395 3.84525 8.45768 3.85852 8.49487 3.88337C8.53207 3.90822 8.56106 3.94355 8.57818 3.98488C8.5953 4.02621 8.59978 4.07169 8.59105 4.11557C8.58233 4.15945 8.56078 4.19975 8.52915 4.23138C8.49752 4.26302 8.45721 4.28456 8.41334 4.29328C8.36946 4.30201 8.32398 4.29753 8.28265 4.28041C8.24132 4.26329 8.20599 4.2343 8.18114 4.19711C8.15629 4.15991 8.14302 4.11618 8.14302 4.07144C8.14308 4.01147 8.16693 3.95397 8.20934 3.91157C8.25174 3.86916 8.30924 3.84531 8.36921 3.84525ZM2.03588 3.16668C2.12535 3.16668 2.21281 3.14015 2.28721 3.09044C2.3616 3.04073 2.41958 2.97008 2.45382 2.88742C2.48806 2.80475 2.49702 2.7138 2.47957 2.62604C2.46211 2.53829 2.41903 2.45768 2.35576 2.39442C2.29249 2.33115 2.21189 2.28806 2.12413 2.27061C2.03638 2.25315 1.94542 2.26211 1.86276 2.29635C1.7801 2.33059 1.70944 2.38857 1.65974 2.46297C1.61003 2.53736 1.5835 2.62483 1.5835 2.7143C1.58363 2.83423 1.63134 2.94922 1.71615 3.03403C1.80095 3.11884 1.91594 3.16654 2.03588 3.16668ZM2.03588 2.48811C2.08061 2.48811 2.12435 2.50137 2.16154 2.52623C2.19874 2.55108 2.22773 2.58641 2.24485 2.62774C2.26197 2.66907 2.26645 2.71455 2.25772 2.75843C2.24899 2.8023 2.22745 2.84261 2.19582 2.87424C2.16418 2.90587 2.12388 2.92741 2.08 2.93614C2.03613 2.94487 1.99065 2.94039 1.94932 2.92327C1.90799 2.90615 1.87266 2.87716 1.84781 2.83996C1.82295 2.80277 1.80969 2.75903 1.80969 2.7143C1.80975 2.65433 1.8336 2.59683 1.876 2.55442C1.91841 2.51202 1.97591 2.48817 2.03588 2.48811Z" fill="black"/>
<path d="M0.452381 33.4762C0.702224 33.4762 0.904762 33.2736 0.904762 33.0238C0.904762 32.7739 0.702224 32.5714 0.452381 32.5714C0.202538 32.5714 0 32.7739 0 33.0238C0 33.2736 0.202538 33.4762 0.452381 33.4762Z" fill="black"/>
<path d="M2.48789 32.5714H1.80931C1.68934 32.5714 1.57427 32.6191 1.48943 32.7039C1.40459 32.7887 1.35693 32.9038 1.35693 33.0238C1.35693 33.1438 1.40459 33.2588 1.48943 33.3437C1.57427 33.4285 1.68934 33.4762 1.80931 33.4762H2.48789C2.60786 33.4762 2.72293 33.4285 2.80777 33.3437C2.89261 33.2588 2.94027 33.1438 2.94027 33.0238C2.94027 32.9038 2.89261 32.7887 2.80777 32.7039C2.72293 32.6191 2.60786 32.5714 2.48789 32.5714ZM36.1903 32.5714H35.5117C35.3917 32.5714 35.2766 32.6191 35.1918 32.7039C35.107 32.7887 35.0593 32.9038 35.0593 33.0238C35.0593 33.1438 35.107 33.2588 35.1918 33.3437C35.2766 33.4285 35.3917 33.4762 35.5117 33.4762H36.1903C36.3102 33.4762 36.4253 33.4285 36.5101 33.3437C36.595 33.2588 36.6426 33.1438 36.6426 33.0238C36.6426 32.9038 36.595 32.7887 36.5101 32.7039C36.4253 32.6191 36.3102 32.5714 36.1903 32.5714Z" fill="black"/>
<path d="M37.5476 33.4762C37.7974 33.4762 38 33.2736 38 33.0238C38 32.7739 37.7974 32.5714 37.5476 32.5714C37.2978 32.5714 37.0952 32.7739 37.0952 33.0238C37.0952 33.2736 37.2978 33.4762 37.5476 33.4762Z" fill="black"/>
<path d="M34.0919 32.5714H20.9727L25.2268 30.1355C25.4549 29.9874 25.6449 29.7876 25.7813 29.5522C25.9178 29.3169 25.9968 29.0528 26.012 28.7812V22.561C25.9968 22.2894 25.9178 22.0252 25.7813 21.7899C25.6449 21.5546 25.4549 21.3548 25.2268 21.2067L19.7854 18.0908C19.5416 17.969 19.2727 17.9055 19.0001 17.9055C18.7275 17.9055 18.4587 17.969 18.2149 18.0908L12.7735 21.2067C12.5453 21.3548 12.3553 21.5546 12.2189 21.7899C12.0825 22.0252 12.0034 22.2894 11.9882 22.561V28.7812C12.0034 29.0528 12.0825 29.3169 12.2189 29.5522C12.3553 29.7875 12.5453 29.9874 12.7735 30.1355L17.0275 32.5714H3.9084C3.84404 32.563 3.77863 32.5684 3.71654 32.5873C3.65444 32.6062 3.59709 32.6381 3.54831 32.681C3.49954 32.7238 3.46046 32.7765 3.43369 32.8356C3.40691 32.8948 3.39307 32.9589 3.39307 33.0238C3.39307 33.0887 3.40691 33.1529 3.43369 33.212C3.46046 33.2711 3.49954 33.3239 3.54831 33.3667C3.59709 33.4095 3.65444 33.4414 3.71654 33.4603C3.77863 33.4792 3.84404 33.4846 3.9084 33.4762H34.0919C34.1562 33.4846 34.2216 33.4792 34.2837 33.4603C34.3458 33.4414 34.4032 33.4095 34.4519 33.3667C34.5007 33.3239 34.5398 33.2711 34.5666 33.212C34.5933 33.1529 34.6072 33.0887 34.6072 33.0238C34.6072 32.9589 34.5933 32.8948 34.5666 32.8356C34.5398 32.7765 34.5007 32.7238 34.4519 32.681C34.4032 32.6381 34.3458 32.6062 34.2837 32.5873C34.2216 32.5684 34.1562 32.563 34.0919 32.5714ZM12.893 28.7812V22.561C12.9079 22.4491 12.9447 22.3412 13.0013 22.2436C13.0579 22.146 13.1333 22.0605 13.223 21.992L18.6644 18.8761C18.8796 18.7883 19.1206 18.7883 19.3359 18.8761L24.7773 21.992C24.867 22.0605 24.9423 22.146 24.9989 22.2436C25.0556 22.3412 25.0924 22.4491 25.1073 22.561V28.7812C25.0924 28.8931 25.0556 29.0009 24.9989 29.0986C24.9423 29.1962 24.867 29.2817 24.7773 29.3502L19.3359 32.4661C19.1206 32.5538 18.8796 32.5538 18.6644 32.4661L13.223 29.3502C13.1333 29.2817 13.0579 29.1962 13.0013 29.0986C12.9447 29.0009 12.9079 28.8931 12.893 28.7812Z" fill="black"/>
<path d="M1.71516 9.05009L2.05151 8.60788L1.83912 8.48755L1.62333 8.98291H1.61609L1.39669 8.49094L1.18068 8.61489L1.5134 9.04669V9.0537L0.993164 8.98653V9.22719L1.51702 9.16001V9.16703L1.18068 9.5986L1.38244 9.72617L1.6127 9.22719H1.61949L1.83188 9.72255L2.0549 9.5952L1.71516 9.17042V9.16341L2.24943 9.22719V8.98653L1.71516 9.0571V9.05009Z" fill="black"/>
<path d="M16.0093 5.44368L15.8154 5.69226L15.9317 5.76555L16.0642 5.47828H16.0683L16.1904 5.76351L16.3189 5.69023L16.1233 5.44549V5.44142L16.4309 5.47828V5.33963L16.1233 5.38034V5.37627L16.3169 5.12158L16.1947 5.05237L16.0703 5.33759H16.0663L15.94 5.05418L15.8154 5.12565L16.0072 5.37424V5.37831L15.7075 5.33963V5.47828L16.0093 5.43961V5.44368Z" fill="black"/>
<path d="M35.2855 6.49456V6.25864L34.7614 6.32808V6.32107L35.0914 5.88724L34.8831 5.76917L34.6714 6.25502H34.6642L34.4491 5.77256L34.2371 5.89425L34.5635 6.31768V6.32469L34.0532 6.25864V6.49456L34.5669 6.42874V6.43575L34.2371 6.85918L34.435 6.98426L34.6608 6.49456H34.6676L34.8759 6.98064L35.0946 6.85578L34.7614 6.43914V6.43213L35.2855 6.49456Z" fill="black"/>
<path d="M22.3257 4.75515L22.0411 5.12045L22.2117 5.22834L22.4066 4.80604H22.4123L22.5921 5.22518L22.7808 5.11751L22.4933 4.75809V4.75199L22.9454 4.80604V4.60247L22.4933 4.66219V4.65631L22.7778 4.28196L22.5982 4.18018L22.4155 4.59931H22.4096L22.2239 4.18312L22.0411 4.28807L22.3227 4.65337V4.65925L21.8823 4.60247V4.80604L22.3257 4.74904V4.75515Z" fill="black"/>
<path d="M26.7251 34.6072H24.8459C24.7322 34.6163 24.6261 34.6679 24.5487 34.7517C24.4713 34.8356 24.4284 34.9455 24.4284 35.0596C24.4284 35.1736 24.4713 35.2836 24.5487 35.3674C24.6261 35.4512 24.7322 35.5028 24.8459 35.5119H26.7251C26.8388 35.5028 26.9449 35.4512 27.0223 35.3674C27.0997 35.2836 27.1427 35.1736 27.1427 35.0596C27.1427 34.9455 27.0997 34.8356 27.0223 34.7517C26.9449 34.6679 26.8388 34.6163 26.7251 34.6072ZM13.1536 34.6072H11.2745C11.1608 34.6163 11.0547 34.6679 10.9773 34.7517C10.8999 34.8356 10.8569 34.9455 10.8569 35.0596C10.8569 35.1736 10.8999 35.2836 10.9773 35.3674C11.0547 35.4512 11.1608 35.5028 11.2745 35.5119H13.1536C13.2674 35.5028 13.3735 35.4512 13.4509 35.3674C13.5283 35.2836 13.5712 35.1736 13.5712 35.0596C13.5712 34.9455 13.5283 34.8356 13.4509 34.7517C13.3735 34.6679 13.2674 34.6163 13.1536 34.6072ZM23.5236 34.6072H14.476C14.356 34.6072 14.2409 34.6548 14.1561 34.7397C14.0713 34.8245 14.0236 34.9396 14.0236 35.0596C14.0236 35.1795 14.0713 35.2946 14.1561 35.3794C14.2409 35.4643 14.356 35.5119 14.476 35.5119H18.0815V35.9643H16.2855C16.1655 35.9643 16.0505 36.012 15.9656 36.0968C15.8808 36.1817 15.8331 36.2967 15.8331 36.4167C15.8331 36.5367 15.8808 36.6517 15.9656 36.7366C16.0505 36.8214 16.1655 36.8691 16.2855 36.8691H21.9403C22.0603 36.8691 22.1753 36.8214 22.2602 36.7366C22.345 36.6517 22.3927 36.5367 22.3927 36.4167C22.3927 36.2967 22.345 36.1817 22.2602 36.0968C22.1753 36.012 22.0603 35.9643 21.9403 35.9643H19.9181V35.5119H23.5236C23.6436 35.5119 23.7587 35.4643 23.8435 35.3794C23.9283 35.2946 23.976 35.1795 23.976 35.0596C23.976 34.9396 23.9283 34.8245 23.8435 34.7397C23.7587 34.6548 23.6436 34.6072 23.5236 34.6072Z" fill="black"/>
</svg>
