<svg width="38" height="38" viewBox="0 0 38 38" fill="none" xmlns="http://www.w3.org/2000/svg">
<path d="M11.2812 36.8125H4.15625C3.36918 36.8116 2.61461 36.4985 2.05807 35.9419C1.50152 35.3854 1.18844 34.6308 1.1875 33.8438V18.4062C1.18844 17.6192 1.50152 16.8646 2.05807 16.3081C2.61461 15.7515 3.36918 15.4384 4.15625 15.4375H11.2812C12.0683 15.4384 12.8229 15.7515 13.3794 16.3081C13.936 16.8646 14.2491 17.6192 14.25 18.4062V33.8438C14.2491 34.6308 13.936 35.3854 13.3794 35.9419C12.8229 36.4985 12.0683 36.8116 11.2812 36.8125ZM4.15625 16.625C3.68383 16.625 3.23077 16.8127 2.89672 17.1467C2.56267 17.4808 2.375 17.9338 2.375 18.4062V33.8438C2.375 34.3162 2.56267 34.7692 2.89672 35.1033C3.23077 35.4373 3.68383 35.625 4.15625 35.625H11.2812C11.7537 35.625 12.2067 35.4373 12.5408 35.1033C12.8748 34.7692 13.0625 34.3162 13.0625 33.8438V18.4062C13.0625 17.9338 12.8748 17.4808 12.5408 17.1467C12.2067 16.8127 11.7537 16.625 11.2812 16.625H4.15625Z" fill="black"/>
<path d="M13.6562 19H1.78125C1.62378 19 1.47276 18.9374 1.36141 18.8261C1.25006 18.7147 1.1875 18.5637 1.1875 18.4062C1.1875 18.2488 1.25006 18.0978 1.36141 17.9864C1.47276 17.8751 1.62378 17.8125 1.78125 17.8125H13.6562C13.8137 17.8125 13.9647 17.8751 14.0761 17.9864C14.1874 18.0978 14.25 18.2488 14.25 18.4062C14.25 18.5637 14.1874 18.7147 14.0761 18.8261C13.9647 18.9374 13.8137 19 13.6562 19ZM13.6562 34.4375H1.78125C1.62378 34.4375 1.47276 34.3749 1.36141 34.2636C1.25006 34.1522 1.1875 34.0012 1.1875 33.8438C1.1875 33.6863 1.25006 33.5353 1.36141 33.4239C1.47276 33.3126 1.62378 33.25 1.78125 33.25H13.6562C13.8137 33.25 13.9647 33.3126 14.0761 33.4239C14.1874 33.5353 14.25 33.6863 14.25 33.8438C14.25 34.0012 14.1874 34.1522 14.0761 34.2636C13.9647 34.3749 13.8137 34.4375 13.6562 34.4375ZM11.2812 11.2812C11.1927 11.2814 11.1053 11.2617 11.0254 11.2237C10.9455 11.1857 10.8751 11.1303 10.8193 11.0616C10.4545 10.5834 9.9859 10.1944 9.44878 9.92389C8.91165 9.65337 8.32009 9.50843 7.71875 9.5C7.11731 9.50834 6.52563 9.65324 5.9884 9.92376C5.45116 10.1943 4.98243 10.5833 4.61759 11.0616C4.51839 11.1839 4.37464 11.2619 4.21797 11.2782C4.0613 11.2946 3.90454 11.2481 3.78219 11.1488C3.65983 11.0496 3.5819 10.9059 3.56553 10.7492C3.54916 10.5925 3.5957 10.4358 3.69491 10.3134C4.17355 9.70052 4.78345 9.20264 5.47978 8.85638C6.17611 8.51011 6.94117 8.32427 7.71875 8.3125C8.49633 8.32427 9.26139 8.51011 9.95772 8.85638C10.654 9.20264 11.2639 9.70052 11.7426 10.3134C11.8133 10.4006 11.8578 10.506 11.8711 10.6174C11.8843 10.7288 11.8657 10.8417 11.8175 10.943C11.7692 11.0443 11.6932 11.1298 11.5983 11.1897C11.5034 11.2495 11.3935 11.2813 11.2812 11.2812Z" fill="black"/>
<path d="M9.79685 13.0625C9.70261 13.0627 9.60968 13.0404 9.52574 12.9976C9.4418 12.9547 9.36927 12.8925 9.31413 12.8161C9.14336 12.5426 8.90921 12.3143 8.6315 12.1505C8.35379 11.9867 8.0407 11.8922 7.71873 11.875C7.39666 11.8921 7.08344 11.9865 6.80562 12.1503C6.5278 12.3142 6.29356 12.5425 6.12273 12.8161C6.07711 12.8794 6.01948 12.9331 5.95311 12.9742C5.88673 13.0152 5.81293 13.0428 5.73591 13.0553C5.65888 13.0678 5.58015 13.065 5.5042 13.0471C5.42825 13.0292 5.35657 12.9965 5.29326 12.9509C5.22995 12.9053 5.17624 12.8476 5.1352 12.7813C5.09416 12.7149 5.06659 12.6411 5.05408 12.5641C5.04156 12.487 5.04434 12.4083 5.06225 12.3323C5.08017 12.2564 5.11286 12.1847 5.15848 12.1214C5.43994 11.6955 5.81919 11.3432 6.26457 11.0937C6.70995 10.8443 7.20855 10.705 7.71873 10.6875C8.22891 10.705 8.7275 10.8443 9.17288 11.0937C9.61827 11.3432 9.99752 11.6955 10.279 12.1214C10.343 12.2101 10.3812 12.3148 10.3895 12.4238C10.3977 12.5329 10.3757 12.6421 10.3259 12.7395C10.276 12.8368 10.2002 12.9185 10.1069 12.9755C10.0135 13.0325 9.90623 13.0626 9.79685 13.0625Z" fill="black"/>
<path d="M7.71899 14.25C7.56151 14.2507 7.41021 14.1888 7.29836 14.078C7.18651 13.9671 7.12327 13.8164 7.12256 13.6589C7.12186 13.5014 7.18373 13.3501 7.29458 13.2383C7.40543 13.1264 7.55617 13.0632 7.71364 13.0625H7.71899C7.87646 13.0625 8.02748 13.1251 8.13883 13.2364C8.25018 13.3478 8.31274 13.4988 8.31274 13.6562C8.31274 13.8137 8.25018 13.9647 8.13883 14.0761C8.02748 14.1874 7.87646 14.25 7.71899 14.25Z" fill="black"/>
<path d="M6.53128 30.875C6.37381 30.875 6.22278 30.8124 6.11143 30.7011C6.00008 30.5897 5.93753 30.4387 5.93753 30.2812V23.4021L4.57606 24.7635C4.46408 24.8717 4.31409 24.9315 4.15841 24.9302C4.00274 24.9288 3.85382 24.8664 3.74373 24.7563C3.63364 24.6462 3.5712 24.4973 3.56985 24.3416C3.56849 24.1859 3.62834 24.036 3.7365 23.924L6.1115 21.549C6.19453 21.466 6.30032 21.4094 6.41548 21.3865C6.53064 21.3636 6.65 21.3754 6.75848 21.4203C6.86696 21.4652 6.95968 21.5413 7.02492 21.6389C7.09017 21.7366 7.125 21.8513 7.12503 21.9688V30.2812C7.12503 30.4387 7.06247 30.5897 6.95112 30.7011C6.83977 30.8124 6.68875 30.875 6.53128 30.875ZM8.90628 30.875C8.82823 30.8753 8.75091 30.8599 8.67887 30.8299C8.5704 30.7849 8.4777 30.7088 8.4125 30.6111C8.34729 30.5135 8.3125 30.3987 8.31253 30.2812V21.9688C8.31253 21.8113 8.37508 21.6603 8.48643 21.5489C8.59778 21.4376 8.74881 21.375 8.90628 21.375C9.06375 21.375 9.21477 21.4376 9.32612 21.5489C9.43747 21.6603 9.50003 21.8113 9.50003 21.9688V28.8479L10.8615 27.4865C10.9735 27.3783 11.1235 27.3185 11.2791 27.3198C11.4348 27.3212 11.5837 27.3836 11.6938 27.4937C11.8039 27.6038 11.8664 27.7527 11.8677 27.9084C11.8691 28.0641 11.8092 28.214 11.7011 28.326L9.32606 30.701C9.21474 30.8124 9.06374 30.875 8.90628 30.875Z" fill="black"/>
<path d="M19.5938 36.8125H17.2188C17.0613 36.8125 16.9103 36.7499 16.7989 36.6386C16.6876 36.5272 16.625 36.3762 16.625 36.2188V33.8438C16.625 33.6863 16.6876 33.5353 16.7989 33.4239C16.9103 33.3126 17.0613 33.25 17.2188 33.25C17.3762 33.25 17.5272 33.3126 17.6386 33.4239C17.7499 33.5353 17.8125 33.6863 17.8125 33.8438V35.625H19V33.8438C19 33.6863 19.0626 33.5353 19.1739 33.4239C19.2853 33.3126 19.4363 33.25 19.5938 33.25C19.7512 33.25 19.9022 33.3126 20.0136 33.4239C20.1249 33.5353 20.1875 33.6863 20.1875 33.8438V36.2188C20.1875 36.3762 20.1249 36.5272 20.0136 36.6386C19.9022 36.7499 19.7512 36.8125 19.5938 36.8125ZM35.0312 36.8125H32.6562C32.4988 36.8125 32.3478 36.7499 32.2364 36.6386C32.1251 36.5272 32.0625 36.3762 32.0625 36.2188V33.8438C32.0625 33.6863 32.1251 33.5353 32.2364 33.4239C32.3478 33.3126 32.4988 33.25 32.6562 33.25C32.8137 33.25 32.9647 33.3126 33.0761 33.4239C33.1874 33.5353 33.25 33.6863 33.25 33.8438V35.625H34.4375V33.8438C34.4375 33.6863 34.5001 33.5353 34.6114 33.4239C34.7228 33.3126 34.8738 33.25 35.0312 33.25C35.1887 33.25 35.3397 33.3126 35.4511 33.4239C35.5624 33.5353 35.625 33.6863 35.625 33.8438V36.2188C35.625 36.3762 35.5624 36.5272 35.4511 36.6386C35.3397 36.7499 35.1887 36.8125 35.0312 36.8125ZM18.4062 28.5C18.2488 28.5 18.0978 28.4374 17.9864 28.3261C17.8751 28.2147 17.8125 28.0637 17.8125 27.9062V25.5312C17.8125 25.3738 17.8751 25.2228 17.9864 25.1114C18.0978 25.0001 18.2488 24.9375 18.4062 24.9375C18.5637 24.9375 18.7147 25.0001 18.8261 25.1114C18.9374 25.2228 19 25.3738 19 25.5312V27.9062C19 28.0637 18.9374 28.2147 18.8261 28.3261C18.7147 28.4374 18.5637 28.5 18.4062 28.5ZM33.8438 28.5C33.6863 28.5 33.5353 28.4374 33.4239 28.3261C33.3126 28.2147 33.25 28.0637 33.25 27.9062V25.5312C33.25 25.3738 33.3126 25.2228 33.4239 25.1114C33.5353 25.0001 33.6863 24.9375 33.8438 24.9375C34.0012 24.9375 34.1522 25.0001 34.2636 25.1114C34.3749 25.2228 34.4375 25.3738 34.4375 25.5312V27.9062C34.4375 28.0637 34.3749 28.2147 34.2636 28.3261C34.1522 28.4374 34.0012 28.5 33.8438 28.5ZM18.4062 20.1875C18.2488 20.1875 18.0978 20.1249 17.9864 20.0136C17.8751 19.9022 17.8125 19.7512 17.8125 19.5938V17.2188C17.8125 17.0613 17.8751 16.9103 17.9864 16.7989C18.0978 16.6876 18.2488 16.625 18.4062 16.625C18.5637 16.625 18.7147 16.6876 18.8261 16.7989C18.9374 16.9103 19 17.0613 19 17.2188V19.5938C19 19.7512 18.9374 19.9022 18.8261 20.0136C18.7147 20.1249 18.5637 20.1875 18.4062 20.1875ZM33.8438 20.1875C33.6863 20.1875 33.5353 20.1249 33.4239 20.0136C33.3126 19.9022 33.25 19.7512 33.25 19.5938V17.2188C33.25 17.0613 33.3126 16.9103 33.4239 16.7989C33.5353 16.6876 33.6863 16.625 33.8438 16.625C34.0012 16.625 34.1522 16.6876 34.2636 16.7989C34.3749 16.9103 34.4375 17.0613 34.4375 17.2188V19.5938C34.4375 19.7512 34.3749 19.9022 34.2636 20.0136C34.1522 20.1249 34.0012 20.1875 33.8438 20.1875ZM18.4062 11.875C18.2488 11.875 18.0978 11.8124 17.9864 11.7011C17.8751 11.5897 17.8125 11.4387 17.8125 11.2812V8.90625C17.8125 8.74878 17.8751 8.59776 17.9864 8.48641C18.0978 8.37506 18.2488 8.3125 18.4062 8.3125C18.5637 8.3125 18.7147 8.37506 18.8261 8.48641C18.9374 8.59776 19 8.74878 19 8.90625V11.2812C19 11.4387 18.9374 11.5897 18.8261 11.7011C18.7147 11.8124 18.5637 11.875 18.4062 11.875ZM33.8438 11.875C33.6863 11.875 33.5353 11.8124 33.4239 11.7011C33.3126 11.5897 33.25 11.4387 33.25 11.2812V8.90625C33.25 8.74878 33.3126 8.59776 33.4239 8.48641C33.5353 8.37506 33.6863 8.3125 33.8438 8.3125C34.0012 8.3125 34.1522 8.37506 34.2636 8.48641C34.3749 8.59776 34.4375 8.74878 34.4375 8.90625V11.2812C34.4375 11.4387 34.3749 11.5897 34.2636 11.7011C34.1522 11.8124 34.0012 11.875 33.8438 11.875Z" fill="black"/>
<path d="M35.625 9.5H16.625C16.3101 9.5 16.008 9.37489 15.7853 9.15219C15.5626 8.92949 15.4375 8.62744 15.4375 8.3125V3.5625C15.4375 3.24756 15.5626 2.94551 15.7853 2.72281C16.008 2.50011 16.3101 2.375 16.625 2.375H35.625C35.9399 2.375 36.242 2.50011 36.4647 2.72281C36.6874 2.94551 36.8125 3.24756 36.8125 3.5625V8.3125C36.8125 8.62744 36.6874 8.92949 36.4647 9.15219C36.242 9.37489 35.9399 9.5 35.625 9.5ZM16.625 3.5625V8.3125H35.625V3.5625H16.625Z" fill="black"/>
<path d="M17.2188 3.5625C17.0613 3.5625 16.9103 3.49994 16.7989 3.38859C16.6876 3.27724 16.625 3.12622 16.625 2.96875V1.78125C16.625 1.62378 16.6876 1.47276 16.7989 1.36141C16.9103 1.25006 17.0613 1.1875 17.2188 1.1875C17.3762 1.1875 17.5272 1.25006 17.6386 1.36141C17.7499 1.47276 17.8125 1.62378 17.8125 1.78125V2.96875C17.8125 3.12622 17.7499 3.27724 17.6386 3.38859C17.5272 3.49994 17.3762 3.5625 17.2188 3.5625ZM35.0312 3.5625C34.8738 3.5625 34.7228 3.49994 34.6114 3.38859C34.5001 3.27724 34.4375 3.12622 34.4375 2.96875V1.78125C34.4375 1.62378 34.5001 1.47276 34.6114 1.36141C34.7228 1.25006 34.8738 1.1875 35.0312 1.1875C35.1887 1.1875 35.3397 1.25006 35.4511 1.36141C35.5624 1.47276 35.625 1.62378 35.625 1.78125V2.96875C35.625 3.12622 35.5624 3.27724 35.4511 3.38859C35.3397 3.49994 35.1887 3.5625 35.0312 3.5625Z" fill="black"/>
<path d="M33.844 6.53125C33.6865 6.53196 33.5352 6.47008 33.4234 6.35923C33.3115 6.24839 33.2483 6.09764 33.2476 5.94017C33.2469 5.7827 33.3087 5.6314 33.4196 5.51954C33.5304 5.40769 33.6812 5.34446 33.8386 5.34375H33.844C34.0015 5.34375 34.1525 5.40631 34.2638 5.51766C34.3752 5.62901 34.4377 5.78003 34.4377 5.9375C34.4377 6.09497 34.3752 6.24599 34.2638 6.35734C34.1525 6.46869 34.0015 6.53125 33.844 6.53125ZM32.0627 6.53125C31.9848 6.5316 31.9075 6.51659 31.8353 6.48708C31.7631 6.45756 31.6975 6.41412 31.6421 6.35923C31.5867 6.30435 31.5427 6.23909 31.5125 6.16719C31.4824 6.09528 31.4667 6.01814 31.4663 5.94017C31.466 5.8622 31.481 5.78492 31.5105 5.71275C31.54 5.64058 31.5834 5.57493 31.6383 5.51954C31.6932 5.46416 31.7585 5.42013 31.8304 5.38997C31.9023 5.35981 31.9794 5.3441 32.0574 5.34375H32.0627C32.2202 5.34375 32.3712 5.40631 32.4826 5.51766C32.5939 5.62901 32.6565 5.78003 32.6565 5.9375C32.6565 6.09497 32.5939 6.24599 32.4826 6.35734C32.3712 6.46869 32.2202 6.53125 32.0627 6.53125ZM30.2815 6.53125C30.124 6.53196 29.9727 6.47008 29.8609 6.35923C29.749 6.24839 29.6858 6.09764 29.6851 5.94017C29.6844 5.7827 29.7462 5.6314 29.8571 5.51954C29.9679 5.40769 30.1187 5.34446 30.2761 5.34375H30.2815C30.439 5.34375 30.59 5.40631 30.7013 5.51766C30.8127 5.62901 30.8752 5.78003 30.8752 5.9375C30.8752 6.09497 30.8127 6.24599 30.7013 6.35734C30.59 6.46869 30.439 6.53125 30.2815 6.53125Z" fill="black"/>
<path d="M18.4062 7.125C18.2488 7.125 18.0978 7.06244 17.9864 6.95109C17.8751 6.83974 17.8125 6.68872 17.8125 6.53125V5.34375C17.8125 5.18628 17.8751 5.03526 17.9864 4.92391C18.0978 4.81256 18.2488 4.75 18.4062 4.75C18.5637 4.75 18.7147 4.81256 18.8261 4.92391C18.9374 5.03526 19 5.18628 19 5.34375V6.53125C19 6.68872 18.9374 6.83974 18.8261 6.95109C18.7147 7.06244 18.5637 7.125 18.4062 7.125ZM20.7812 7.125C20.6238 7.125 20.4728 7.06244 20.3614 6.95109C20.2501 6.83974 20.1875 6.68872 20.1875 6.53125V5.34375C20.1875 5.18628 20.2501 5.03526 20.3614 4.92391C20.4728 4.81256 20.6238 4.75 20.7812 4.75C20.9387 4.75 21.0897 4.81256 21.2011 4.92391C21.3124 5.03526 21.375 5.18628 21.375 5.34375V6.53125C21.375 6.68872 21.3124 6.83974 21.2011 6.95109C21.0897 7.06244 20.9387 7.125 20.7812 7.125ZM23.1562 7.125C22.9988 7.125 22.8478 7.06244 22.7364 6.95109C22.6251 6.83974 22.5625 6.68872 22.5625 6.53125V5.34375C22.5625 5.18628 22.6251 5.03526 22.7364 4.92391C22.8478 4.81256 22.9988 4.75 23.1562 4.75C23.3137 4.75 23.4647 4.81256 23.5761 4.92391C23.6874 5.03526 23.75 5.18628 23.75 5.34375V6.53125C23.75 6.68872 23.6874 6.83974 23.5761 6.95109C23.4647 7.06244 23.3137 7.125 23.1562 7.125ZM35.625 17.8125H16.625C16.3101 17.8125 16.008 17.6874 15.7853 17.4647C15.5626 17.242 15.4375 16.9399 15.4375 16.625V11.875C15.4375 11.5601 15.5626 11.258 15.7853 11.0353C16.008 10.8126 16.3101 10.6875 16.625 10.6875H35.625C35.9399 10.6875 36.242 10.8126 36.4647 11.0353C36.6874 11.258 36.8125 11.5601 36.8125 11.875V16.625C36.8125 16.9399 36.6874 17.242 36.4647 17.4647C36.242 17.6874 35.9399 17.8125 35.625 17.8125ZM16.625 11.875V16.625H35.625V11.875H16.625Z" fill="black"/>
<path d="M33.844 14.8438C33.6865 14.8445 33.5352 14.7826 33.4234 14.6717C33.3115 14.5609 33.2483 14.4101 33.2476 14.2527C33.2469 14.0952 33.3087 13.9439 33.4196 13.832C33.5304 13.7202 33.6812 13.657 33.8386 13.6562H33.844C34.0015 13.6562 34.1525 13.7188 34.2638 13.8302C34.3752 13.9415 34.4377 14.0925 34.4377 14.25C34.4377 14.4075 34.3752 14.5585 34.2638 14.6698C34.1525 14.7812 34.0015 14.8438 33.844 14.8438ZM32.0627 14.8438C31.9848 14.8441 31.9075 14.8291 31.8353 14.7996C31.7631 14.7701 31.6975 14.7266 31.6421 14.6717C31.5867 14.6168 31.5427 14.5516 31.5125 14.4797C31.4824 14.4078 31.4667 14.3306 31.4663 14.2527C31.466 14.1747 31.481 14.0974 31.5105 14.0252C31.54 13.9531 31.5834 13.8874 31.6383 13.832C31.6932 13.7767 31.7585 13.7326 31.8304 13.7025C31.9023 13.6723 31.9794 13.6566 32.0574 13.6562H32.0627C32.2202 13.6562 32.3712 13.7188 32.4826 13.8302C32.5939 13.9415 32.6565 14.0925 32.6565 14.25C32.6565 14.4075 32.5939 14.5585 32.4826 14.6698C32.3712 14.7812 32.2202 14.8438 32.0627 14.8438ZM30.2815 14.8438C30.124 14.8445 29.9727 14.7826 29.8609 14.6717C29.749 14.5609 29.6858 14.4101 29.6851 14.2527C29.6844 14.0952 29.7462 13.9439 29.8571 13.832C29.9679 13.7202 30.1187 13.657 30.2761 13.6562H30.2815C30.439 13.6562 30.59 13.7188 30.7013 13.8302C30.8127 13.9415 30.8752 14.0925 30.8752 14.25C30.8752 14.4075 30.8127 14.5585 30.7013 14.6698C30.59 14.7812 30.439 14.8438 30.2815 14.8438Z" fill="black"/>
<path d="M18.4062 15.4375C18.2488 15.4375 18.0978 15.3749 17.9864 15.2636C17.8751 15.1522 17.8125 15.0012 17.8125 14.8438V13.6562C17.8125 13.4988 17.8751 13.3478 17.9864 13.2364C18.0978 13.1251 18.2488 13.0625 18.4062 13.0625C18.5637 13.0625 18.7147 13.1251 18.8261 13.2364C18.9374 13.3478 19 13.4988 19 13.6562V14.8438C19 15.0012 18.9374 15.1522 18.8261 15.2636C18.7147 15.3749 18.5637 15.4375 18.4062 15.4375ZM20.7812 15.4375C20.6238 15.4375 20.4728 15.3749 20.3614 15.2636C20.2501 15.1522 20.1875 15.0012 20.1875 14.8438V13.6562C20.1875 13.4988 20.2501 13.3478 20.3614 13.2364C20.4728 13.1251 20.6238 13.0625 20.7812 13.0625C20.9387 13.0625 21.0897 13.1251 21.2011 13.2364C21.3124 13.3478 21.375 13.4988 21.375 13.6562V14.8438C21.375 15.0012 21.3124 15.1522 21.2011 15.2636C21.0897 15.3749 20.9387 15.4375 20.7812 15.4375ZM23.1562 15.4375C22.9988 15.4375 22.8478 15.3749 22.7364 15.2636C22.6251 15.1522 22.5625 15.0012 22.5625 14.8438V13.6562C22.5625 13.4988 22.6251 13.3478 22.7364 13.2364C22.8478 13.1251 22.9988 13.0625 23.1562 13.0625C23.3137 13.0625 23.4647 13.1251 23.5761 13.2364C23.6874 13.3478 23.75 13.4988 23.75 13.6562V14.8438C23.75 15.0012 23.6874 15.1522 23.5761 15.2636C23.4647 15.3749 23.3137 15.4375 23.1562 15.4375ZM35.625 26.125H16.625C16.3101 26.125 16.008 25.9999 15.7853 25.7772C15.5626 25.5545 15.4375 25.2524 15.4375 24.9375V20.1875C15.4375 19.8726 15.5626 19.5705 15.7853 19.3478C16.008 19.1251 16.3101 19 16.625 19H35.625C35.9399 19 36.242 19.1251 36.4647 19.3478C36.6874 19.5705 36.8125 19.8726 36.8125 20.1875V24.9375C36.8125 25.2524 36.6874 25.5545 36.4647 25.7772C36.242 25.9999 35.9399 26.125 35.625 26.125ZM16.625 20.1875V24.9375H35.625V20.1875H16.625Z" fill="black"/>
<path d="M33.844 23.1562C33.6865 23.157 33.5352 23.0951 33.4234 22.9842C33.3115 22.8734 33.2483 22.7226 33.2476 22.5652C33.2469 22.4077 33.3087 22.2564 33.4196 22.1445C33.5304 22.0327 33.6812 21.9695 33.8386 21.9688H33.844C34.0015 21.9688 34.1525 22.0313 34.2638 22.1427C34.3752 22.254 34.4377 22.405 34.4377 22.5625C34.4377 22.72 34.3752 22.871 34.2638 22.9823C34.1525 23.0937 34.0015 23.1562 33.844 23.1562ZM32.0627 23.1562C31.9053 23.157 31.754 23.0951 31.6421 22.9842C31.5303 22.8734 31.467 22.7226 31.4663 22.5652C31.4656 22.4077 31.5275 22.2564 31.6383 22.1445C31.7492 22.0327 31.8999 21.9695 32.0574 21.9688H32.0627C32.2202 21.9688 32.3712 22.0313 32.4826 22.1427C32.5939 22.254 32.6565 22.405 32.6565 22.5625C32.6565 22.72 32.5939 22.871 32.4826 22.9823C32.3712 23.0937 32.2202 23.1562 32.0627 23.1562ZM30.2815 23.1562C30.124 23.157 29.9727 23.0951 29.8609 22.9842C29.749 22.8734 29.6858 22.7226 29.6851 22.5652C29.6844 22.4077 29.7462 22.2564 29.8571 22.1445C29.9679 22.0327 30.1187 21.9695 30.2761 21.9688H30.2815C30.439 21.9688 30.59 22.0313 30.7013 22.1427C30.8127 22.254 30.8752 22.405 30.8752 22.5625C30.8752 22.72 30.8127 22.871 30.7013 22.9823C30.59 23.0937 30.439 23.1562 30.2815 23.1562Z" fill="black"/>
<path d="M18.4062 23.75C18.2488 23.75 18.0978 23.6874 17.9864 23.5761C17.8751 23.4647 17.8125 23.3137 17.8125 23.1562V21.9688C17.8125 21.8113 17.8751 21.6603 17.9864 21.5489C18.0978 21.4376 18.2488 21.375 18.4062 21.375C18.5637 21.375 18.7147 21.4376 18.8261 21.5489C18.9374 21.6603 19 21.8113 19 21.9688V23.1562C19 23.3137 18.9374 23.4647 18.8261 23.5761C18.7147 23.6874 18.5637 23.75 18.4062 23.75ZM20.7812 23.75C20.6238 23.75 20.4728 23.6874 20.3614 23.5761C20.2501 23.4647 20.1875 23.3137 20.1875 23.1562V21.9688C20.1875 21.8113 20.2501 21.6603 20.3614 21.5489C20.4728 21.4376 20.6238 21.375 20.7812 21.375C20.9387 21.375 21.0897 21.4376 21.2011 21.5489C21.3124 21.6603 21.375 21.8113 21.375 21.9688V23.1562C21.375 23.3137 21.3124 23.4647 21.2011 23.5761C21.0897 23.6874 20.9387 23.75 20.7812 23.75ZM23.1562 23.75C22.9988 23.75 22.8478 23.6874 22.7364 23.5761C22.6251 23.4647 22.5625 23.3137 22.5625 23.1562V21.9688C22.5625 21.8113 22.6251 21.6603 22.7364 21.5489C22.8478 21.4376 22.9988 21.375 23.1562 21.375C23.3137 21.375 23.4647 21.4376 23.5761 21.5489C23.6874 21.6603 23.75 21.8113 23.75 21.9688V23.1562C23.75 23.3137 23.6874 23.4647 23.5761 23.5761C23.4647 23.6874 23.3137 23.75 23.1562 23.75ZM35.625 34.4375H16.625C16.3101 34.4375 16.008 34.3124 15.7853 34.0897C15.5626 33.867 15.4375 33.5649 15.4375 33.25V28.5C15.4375 28.1851 15.5626 27.883 15.7853 27.6603C16.008 27.4376 16.3101 27.3125 16.625 27.3125H35.625C35.9399 27.3125 36.242 27.4376 36.4647 27.6603C36.6874 27.883 36.8125 28.1851 36.8125 28.5V33.25C36.8125 33.5649 36.6874 33.867 36.4647 34.0897C36.242 34.3124 35.9399 34.4375 35.625 34.4375ZM16.625 28.5V33.25H35.625V28.5H16.625Z" fill="black"/>
<path d="M33.844 31.4688C33.6865 31.4695 33.5352 31.4076 33.4234 31.2967C33.3115 31.1859 33.2483 31.0351 33.2476 30.8777C33.2469 30.7202 33.3087 30.5689 33.4196 30.457C33.5304 30.3452 33.6812 30.282 33.8386 30.2812H33.844C34.0015 30.2812 34.1525 30.3438 34.2638 30.4552C34.3752 30.5665 34.4377 30.7175 34.4377 30.875C34.4377 31.0325 34.3752 31.1835 34.2638 31.2948C34.1525 31.4062 34.0015 31.4688 33.844 31.4688ZM32.0627 31.4688C31.9053 31.4695 31.754 31.4076 31.6421 31.2967C31.5303 31.1859 31.467 31.0351 31.4663 30.8777C31.4656 30.7202 31.5275 30.5689 31.6383 30.457C31.7492 30.3452 31.8999 30.282 32.0574 30.2812H32.0627C32.2202 30.2812 32.3712 30.3438 32.4826 30.4552C32.5939 30.5665 32.6565 30.7175 32.6565 30.875C32.6565 31.0325 32.5939 31.1835 32.4826 31.2948C32.3712 31.4062 32.2202 31.4688 32.0627 31.4688ZM30.2815 31.4688C30.124 31.4695 29.9727 31.4076 29.8609 31.2967C29.749 31.1859 29.6858 31.0351 29.6851 30.8777C29.6844 30.7202 29.7462 30.5689 29.8571 30.457C29.9679 30.3452 30.1187 30.282 30.2761 30.2812H30.2815C30.439 30.2812 30.59 30.3438 30.7013 30.4552C30.8127 30.5665 30.8752 30.7175 30.8752 30.875C30.8752 31.0325 30.8127 31.1835 30.7013 31.2948C30.59 31.4062 30.439 31.4688 30.2815 31.4688Z" fill="black"/>
<path d="M18.4062 32.0625C18.2488 32.0625 18.0978 31.9999 17.9864 31.8886C17.8751 31.7772 17.8125 31.6262 17.8125 31.4688V30.2812C17.8125 30.1238 17.8751 29.9728 17.9864 29.8614C18.0978 29.7501 18.2488 29.6875 18.4062 29.6875C18.5637 29.6875 18.7147 29.7501 18.8261 29.8614C18.9374 29.9728 19 30.1238 19 30.2812V31.4688C19 31.6262 18.9374 31.7772 18.8261 31.8886C18.7147 31.9999 18.5637 32.0625 18.4062 32.0625ZM20.7812 32.0625C20.6238 32.0625 20.4728 31.9999 20.3614 31.8886C20.2501 31.7772 20.1875 31.6262 20.1875 31.4688V30.2812C20.1875 30.1238 20.2501 29.9728 20.3614 29.8614C20.4728 29.7501 20.6238 29.6875 20.7812 29.6875C20.9387 29.6875 21.0897 29.7501 21.2011 29.8614C21.3124 29.9728 21.375 30.1238 21.375 30.2812V31.4688C21.375 31.6262 21.3124 31.7772 21.2011 31.8886C21.0897 31.9999 20.9387 32.0625 20.7812 32.0625ZM23.1562 32.0625C22.9988 32.0625 22.8478 31.9999 22.7364 31.8886C22.6251 31.7772 22.5625 31.6262 22.5625 31.4688V30.2812C22.5625 30.1238 22.6251 29.9728 22.7364 29.8614C22.8478 29.7501 22.9988 29.6875 23.1562 29.6875C23.3137 29.6875 23.4647 29.7501 23.5761 29.8614C23.6874 29.9728 23.75 30.1238 23.75 30.2812V31.4688C23.75 31.6262 23.6874 31.7772 23.5761 31.8886C23.4647 31.9999 23.3137 32.0625 23.1562 32.0625Z" fill="black"/>
</svg>
