<svg width="38" height="38" viewBox="0 0 38 38" fill="none" xmlns="http://www.w3.org/2000/svg">
<path d="M22.3431 23.2123H22.3428L15.1088 23.2085C14.8936 23.2085 14.719 23.0338 14.7192 22.8183C14.7195 22.6032 14.8937 22.429 15.109 22.429H15.1093L22.3433 22.4327C22.5585 22.4327 22.7331 22.6075 22.7329 22.8229C22.7326 23.0379 22.5583 23.2123 22.3431 23.2123Z" fill="black"/>
<path d="M30.2566 23.2104H26.893C26.6777 23.2104 26.5032 23.0361 26.5032 22.8206C26.5032 22.6051 26.6777 22.4308 26.893 22.4308H30.2566C33.2999 22.4308 35.7757 19.9898 35.7757 16.9897C35.7757 14.2218 33.6878 11.9018 30.9188 11.5931C30.7394 11.5729 30.5972 11.4325 30.5751 11.2532C30.1435 7.74848 26.5663 5.58203 23.2535 6.75187C23.0396 6.82727 22.81 6.70511 22.749 6.49076C21.7947 3.13934 18.66 0.798854 15.1259 0.798854C10.1292 0.798854 6.42077 5.3262 7.35036 10.0386C7.39415 10.2606 7.24014 10.4736 7.01519 10.5007C3.97304 10.8715 1.67893 13.4316 1.67893 16.4557C1.67893 19.6549 4.22234 22.2763 7.46911 22.4232L10.5623 22.4269C10.7776 22.4273 10.9519 22.602 10.9515 22.8171C10.9512 23.0322 10.7768 23.2065 10.5617 23.2065C10.5615 23.2065 10.5614 23.2065 10.5611 23.2065L7.45085 23.2023C3.7696 23.036 0.899414 20.0728 0.899414 16.4557C0.899414 13.1735 3.28688 10.3755 6.51659 9.78853C5.77418 4.73779 9.7805 0.0194092 15.1259 0.0194092C18.8705 0.0194092 22.2077 2.41549 23.3797 5.89405C26.965 4.87888 30.6723 7.17521 31.3048 10.859C34.3186 11.3405 36.5551 13.925 36.5551 16.9898C36.5552 20.42 33.7296 23.2104 30.2566 23.2104Z" fill="black"/>
<path d="M25.2396 27.2286L24.6949 26.1077C24.9391 25.6689 25.1334 25.203 25.2746 24.7184L26.4515 24.3081C26.9488 24.1349 27.283 23.6648 27.283 23.138V22.5042C27.283 21.9771 26.9482 21.5062 26.4498 21.3334L25.2757 20.9262C25.1372 20.4439 24.9434 19.9773 24.6977 19.5339L25.2408 18.4114C25.4705 17.9371 25.3747 17.3677 25.0018 16.9951L24.5531 16.5463C24.1797 16.1726 23.6102 16.0766 23.136 16.3076L22.0168 16.8504C21.5767 16.6079 21.1101 16.4146 20.625 16.273L20.2149 15.0965C20.0415 14.599 19.5713 14.2648 19.0446 14.2648H18.4109C17.8833 14.2648 17.4128 14.5997 17.2401 15.098L16.8328 16.2722C16.3482 16.4111 15.8805 16.6048 15.4374 16.85L14.3186 16.3076C13.8437 16.0769 13.2743 16.1736 12.9015 16.5463L12.4528 16.995C12.08 17.3676 11.984 17.937 12.2137 18.4113L12.7569 19.5338C12.5112 19.9772 12.3174 20.4439 12.1789 20.9261L11.0044 21.3334C10.5062 21.5065 10.1714 21.977 10.1714 22.5042V23.1379C10.1714 23.6647 10.5056 24.1348 11.0029 24.308L12.1797 24.7183C12.321 25.2029 12.5154 25.6688 12.7596 26.1076L12.2149 27.2286C11.9843 27.7036 12.08 28.2734 12.4532 28.6468L12.9008 29.0944C13.274 29.4678 13.844 29.5641 14.3188 29.3331L15.4392 28.7888C15.8781 29.0343 16.3451 29.2292 16.8327 29.3689L17.2399 30.5435C17.4127 31.0418 17.8832 31.3763 18.4107 31.3763H19.0445C19.5713 31.3763 20.0415 31.0421 20.2147 30.545L20.6249 29.3681C21.1069 29.2277 21.5724 29.0343 22.0136 28.7911L23.1364 29.3346C23.6107 29.5637 24.1801 29.4678 24.5528 29.0952L25.001 28.6468C25.3745 28.2735 25.4704 27.7037 25.2396 27.2286ZM23.9033 26.2626L24.5384 27.5697C24.6241 27.7455 24.5885 27.9572 24.45 28.0957L24.0018 28.5441C23.8632 28.6827 23.6521 28.7181 23.4761 28.6328L22.1685 27.9998C22.0508 27.9431 21.9123 27.9484 21.8002 28.0154C21.3077 28.3069 20.7784 28.5269 20.2268 28.6689C20.1007 28.7017 19.9991 28.7953 19.9562 28.9182L19.4787 30.2885C19.4144 30.4731 19.24 30.5968 19.0446 30.5968H18.4109C18.2152 30.5968 18.0407 30.4727 17.9765 30.2878L17.5017 28.9187C17.4586 28.7949 17.3561 28.7009 17.2289 28.6686C16.6718 28.5278 16.1432 28.3074 15.6575 28.0139C15.5424 27.9445 15.4024 27.9398 15.2854 27.9968L13.9784 28.632C13.8023 28.7169 13.5907 28.6823 13.4522 28.5433L13.0045 28.0957C12.866 27.9572 12.8304 27.7456 12.9161 27.5697L13.5512 26.2626C13.6086 26.1442 13.6025 26.0045 13.535 25.8919C13.2426 25.4039 13.0219 24.8752 12.8787 24.3202C12.8462 24.1942 12.7527 24.0926 12.6296 24.0496L11.2591 23.572C11.0747 23.5076 10.9508 23.3333 10.9508 23.1381V22.5043C10.9508 22.3087 11.0751 22.134 11.2599 22.07L12.629 21.5954C12.7531 21.5524 12.8471 21.4496 12.8793 21.3225C13.018 20.7728 13.2376 20.2434 13.5322 19.7489C13.5993 19.6363 13.6051 19.4977 13.548 19.3797L12.915 18.0719C12.8298 17.8957 12.8655 17.6844 13.0037 17.5463L13.4524 17.0976C13.591 16.959 13.8021 16.9236 13.9781 17.0089L15.2823 17.6415C15.4005 17.6994 15.539 17.6932 15.6517 17.6259C16.1452 17.3325 16.6758 17.1125 17.2288 16.9728C17.356 16.9404 17.4586 16.8464 17.5016 16.7227L17.9765 15.3536C18.0406 15.1687 18.2151 15.0446 18.4108 15.0446H19.0445C19.2398 15.0446 19.4143 15.1687 19.4786 15.3533L19.9562 16.7231C19.999 16.846 20.1006 16.9397 20.2266 16.972C20.7827 17.116 21.3131 17.3359 21.8032 17.6264C21.9156 17.6929 22.0542 17.6986 22.172 17.6416L23.4763 17.0089C23.6521 16.9237 23.8636 16.9591 24.0019 17.0976L24.4507 17.5464C24.5889 17.6845 24.6247 17.8958 24.5394 18.072L23.9064 19.3798C23.8493 19.4978 23.8552 19.6364 23.9222 19.749C24.2168 20.2435 24.4365 20.7729 24.5752 21.3225C24.6073 21.4497 24.7013 21.5525 24.8254 21.5951L26.1942 22.0697C26.3791 22.134 26.5034 22.3087 26.5034 22.5044V23.1381C26.5034 23.3334 26.3796 23.5077 26.1951 23.572L24.8248 24.0497C24.7017 24.0927 24.6083 24.194 24.5757 24.3203C24.4324 24.8749 24.2116 25.404 23.9194 25.892C23.852 26.0049 23.8459 26.1442 23.9033 26.2626Z" fill="black"/>
<path d="M18.7274 18.8107C16.5177 18.8107 14.7197 20.6095 14.7197 22.8202C14.7197 25.0301 16.5176 26.8282 18.7274 26.8282C20.9373 26.8282 22.7352 25.0301 22.7352 22.8202C22.7352 20.6095 20.9373 18.8107 18.7274 18.8107ZM18.7274 26.0487C16.9474 26.0487 15.4992 24.6004 15.4992 22.8202C15.4992 21.0392 16.9473 19.5902 18.7274 19.5902C20.5075 19.5902 21.9557 21.0392 21.9557 22.8202C21.9557 24.6004 20.5074 26.0487 18.7274 26.0487ZM36.4297 30.5732L35.6425 30.3C35.5477 29.9845 35.4208 29.6784 35.263 29.3857L35.6273 28.6328C35.8123 28.251 35.735 27.7927 35.4347 27.4924L35.1135 27.1712C34.8127 26.8697 34.3539 26.7928 33.9721 26.9786L33.2216 27.3425C32.9306 27.1864 32.6246 27.0597 32.3076 26.9637L32.0327 26.1743C31.893 25.7739 31.514 25.5048 31.09 25.5048H30.6363C30.2116 25.5048 29.8324 25.7742 29.6933 26.1754L29.4204 26.9626C29.1037 27.0577 28.7967 27.1848 28.5039 27.342L27.754 26.9789C27.3719 26.7935 26.9128 26.8708 26.6123 27.1711L26.2912 27.4923C25.9907 27.7923 25.9132 28.2506 26.0984 28.6327L26.4627 29.3856C26.3049 29.6787 26.1778 29.9847 26.083 30.2999L25.2958 30.5732C24.8944 30.7121 24.6247 31.0912 24.6247 31.516V31.9697C24.6247 32.394 24.8939 32.7728 25.2945 32.9125L26.0839 33.1873C26.1802 33.5043 26.3077 33.8096 26.4645 34.0997L26.0993 34.8514C25.9138 35.2336 25.9908 35.6926 26.2913 35.9933L26.6118 36.3138C26.9121 36.6145 27.371 36.6917 27.7539 36.506L28.5048 36.1413C28.7952 36.2993 29.1016 36.4268 29.4202 36.5224L29.6931 37.3095C29.8324 37.7107 30.2113 37.9806 30.6362 37.9806H31.0899C31.5139 37.9806 31.8926 37.7115 32.0325 37.3107L32.3075 36.5213C32.6228 36.4257 32.9279 36.2986 33.2191 36.1425L33.9726 36.5072C34.3561 36.6926 34.8136 36.6145 35.113 36.3142L35.434 35.9933C35.7348 35.6926 35.812 35.2336 35.626 34.8515L35.2608 34.0997C35.4178 33.8093 35.5454 33.5041 35.6414 33.1874L36.4314 32.9126C36.8318 32.7729 37.1007 32.3938 37.1007 31.9698V31.5161C37.1008 31.0913 36.8311 30.7122 36.4297 30.5732ZM36.3212 31.9698C36.3212 32.0626 36.2622 32.146 36.1747 32.1765L35.1933 32.5183C35.0703 32.5613 34.9767 32.6629 34.9441 32.7889C34.8444 33.1752 34.6904 33.5441 34.4864 33.8851C34.4189 33.9981 34.4128 34.1374 34.4702 34.2554L34.9251 35.1922C34.9659 35.2759 34.9489 35.3764 34.883 35.4422L34.5616 35.7634C34.4961 35.8293 34.396 35.8464 34.3121 35.8053L33.3754 35.352C33.2577 35.2949 33.1192 35.301 33.0071 35.3675C32.6634 35.5708 32.294 35.7246 31.9092 35.8235C31.783 35.8563 31.6814 35.9499 31.6386 36.0728L31.2966 37.0541C31.2659 37.142 31.1829 37.201 31.0901 37.201H30.6364C30.5433 37.201 30.4603 37.142 30.4299 37.0537L30.0898 36.0732C30.0469 35.9495 29.9442 35.8555 29.8169 35.8232C29.4293 35.7253 29.0606 35.5719 28.7217 35.3672C28.6076 35.2977 28.4667 35.2931 28.3498 35.35L27.4136 35.8049C27.3296 35.8448 27.2291 35.8285 27.1633 35.7627L26.8428 35.4422C26.777 35.3764 26.7601 35.2755 26.8006 35.1917L27.2555 34.2554C27.3129 34.1374 27.3069 33.9981 27.2393 33.885C27.0357 33.5447 26.8815 33.1759 26.7816 32.7888C26.7491 32.6624 26.6554 32.5612 26.5325 32.5182L25.5512 32.1764C25.4635 32.146 25.4045 32.0626 25.4045 31.9697V31.516C25.4045 31.4232 25.4635 31.3402 25.5514 31.3093L26.5319 30.969C26.656 30.926 26.7501 30.8236 26.7822 30.6965C26.8787 30.314 27.0321 29.9447 27.2376 29.5987C27.3046 29.4864 27.3105 29.3479 27.2534 29.2299L26.8001 28.2932C26.7596 28.2094 26.7765 28.1093 26.8423 28.0435L27.1638 27.7223C27.2294 27.6564 27.3307 27.6397 27.4138 27.6804L28.3478 28.133C28.4659 28.1901 28.6046 28.1843 28.7169 28.117C29.0617 27.9123 29.4319 27.7589 29.8169 27.6618C29.9441 27.6294 30.0468 27.5354 30.0898 27.4117L30.4298 26.4312C30.4603 26.3433 30.5432 26.2843 30.6363 26.2843H31.09C31.1829 26.2843 31.2658 26.3433 31.2965 26.4308L31.6385 27.412C31.6813 27.5349 31.7829 27.6286 31.9091 27.6613C32.2966 27.7611 32.6667 27.9144 33.0095 28.1173C33.1219 28.1839 33.2599 28.1892 33.3779 28.1329L34.3125 27.68C34.3957 27.6385 34.496 27.6564 34.562 27.7222L34.8835 28.0434C34.9492 28.1092 34.9661 28.2094 34.9257 28.2931L34.4724 29.2298C34.4153 29.3478 34.4212 29.4864 34.4882 29.5987C34.6936 29.9443 34.8467 30.3135 34.9434 30.6964C34.9756 30.8236 35.0696 30.9259 35.1937 30.969L36.1742 31.3096C36.2622 31.3401 36.3212 31.423 36.3212 31.516L36.3212 31.9698Z" fill="black"/>
<path d="M30.8625 28.7603C29.219 28.7603 27.8818 30.0982 27.8818 31.7425C27.8818 33.3861 29.219 34.7232 30.8625 34.7232C32.5063 34.7232 33.8435 33.3861 33.8435 31.7425C33.8434 30.0982 32.5063 28.7603 30.8625 28.7603ZM30.8625 33.9437C29.6487 33.9437 28.6614 32.9564 28.6614 31.7425C28.6614 30.5279 29.6487 29.5398 30.8625 29.5398C32.0764 29.5398 33.0639 30.5279 33.0639 31.7425C33.0639 32.9564 32.0763 33.9437 30.8625 33.9437Z" fill="black"/>
</svg>
