<svg width="38" height="38" viewBox="0 0 38 38" fill="none" xmlns="http://www.w3.org/2000/svg">
<path d="M14.8433 27.312C14.6858 27.312 14.5348 27.3746 14.4235 27.4859C14.3121 27.5973 14.2495 27.7483 14.2495 27.9058V32.6558C14.2495 32.8132 14.3121 32.9642 14.4235 33.0756C14.5348 33.1869 14.6858 33.2495 14.8433 33.2495H23.1558C23.3132 33.2495 23.4644 33.1869 23.5757 33.0756C23.6871 32.9642 23.7495 32.8132 23.7495 32.6558V27.9058C23.7495 27.7483 23.6871 27.5973 23.5757 27.4859C23.4644 27.3746 23.3132 27.312 23.1558 27.312H14.8433ZM15.437 28.4995H22.562V32.062H15.437V28.4995Z" fill="black"/>
<path d="M5.34354 5.93701C5.18607 5.93703 5.03509 5.99959 4.92374 6.11093C4.81239 6.22228 4.74981 6.37329 4.74979 6.53076V10.186V10.7798H5.93729V10.186V7.12451H21.5511H24.5059H32.0623V10.1605V10.7543H33.2498V10.1605V6.53076C33.2498 6.37329 33.1873 6.22228 33.076 6.11093C32.9646 5.99959 32.8135 5.93703 32.656 5.93701H24.5059H21.5511H5.34354ZM32.0623 15.5576V16.1514V16.6245V27.312H5.93729V17.2183V16.6245V16.1769V15.5831H4.74979V16.1769V16.6245V17.2183V27.9058C4.74877 27.9259 4.74877 27.946 4.74979 27.9661C4.75501 28.025 4.76906 28.0829 4.79139 28.1377C4.79998 28.156 4.80955 28.1738 4.81995 28.191C4.83846 28.2256 4.86025 28.2582 4.88518 28.2884C4.9108 28.319 4.93947 28.347 4.97071 28.3719C4.98634 28.3843 5.00261 28.3959 5.01941 28.4067C5.03592 28.4176 5.05293 28.4277 5.07044 28.4369C5.08864 28.4455 5.10726 28.4532 5.12625 28.46C5.16307 28.4746 5.20134 28.4854 5.24033 28.4924C5.27332 28.4976 5.30667 28.5 5.34006 28.4996H32.6526C32.6728 28.4998 32.693 28.499 32.7132 28.4972C32.7327 28.495 32.7521 28.4918 32.7713 28.4877C32.8296 28.4761 32.886 28.4557 32.9383 28.4274C32.9729 28.4083 33.0055 28.3857 33.0357 28.3601C33.051 28.3477 33.0656 28.3346 33.0796 28.3207C33.0934 28.3067 33.1064 28.292 33.1187 28.2767C33.131 28.261 33.1426 28.2448 33.1532 28.228C33.1632 28.2114 33.1722 28.1944 33.1805 28.1769C33.1902 28.1588 33.1989 28.1402 33.2066 28.1212C33.2138 28.103 33.2202 28.0844 33.2256 28.0655C33.2365 28.0277 33.2438 27.9888 33.247 27.9495C33.2476 27.9348 33.2476 27.9201 33.247 27.9055V17.218V16.6242V16.1511V15.5573H32.0595L32.0623 15.5576Z" fill="black"/>
<path fill-rule="evenodd" clip-rule="evenodd" d="M5.93701 23.7495V24.937H32.062V23.7495H5.93701ZM10.687 32.062V33.2495H27.312V32.062H10.687Z" fill="black"/>
<path d="M7.03889 8.31203C6.88784 8.31256 6.74274 8.37057 6.63301 8.47438L2.59969 12.2642C2.4845 12.3721 2.41669 12.5215 2.41182 12.6793L2.38689 13.5723C2.37501 13.6043 2.375 13.6369 2.375 13.6697V13.9317V13.9503V14.2518C2.375 15.5573 3.44446 16.6268 4.75 16.6268C5.50026 16.6268 6.09508 16.2264 6.53125 15.6782C6.96742 16.2264 7.56224 16.6268 8.3125 16.6268C9.06276 16.6268 9.65758 16.2264 10.0938 15.6782C10.5299 16.2264 11.1247 16.6268 11.875 16.6268C12.6253 16.6268 13.2201 16.2264 13.6562 15.6782C14.0924 16.2264 14.6872 16.6268 15.4375 16.6268C16.1878 16.6268 16.7826 16.2264 17.2188 15.6782C17.6549 16.2264 18.2497 16.6268 19 16.6268C19.7503 16.6268 20.3451 16.2264 20.7812 15.6782C21.2174 16.2264 21.8122 16.6268 22.5625 16.6268C23.3128 16.6268 23.9076 16.2264 24.3438 15.6782C24.7799 16.2264 25.3747 16.6268 26.125 16.6268C26.8753 16.6268 27.4701 16.2264 27.9062 15.6782C28.3424 16.2264 28.9372 16.6268 29.6875 16.6268C30.4378 16.6268 31.0326 16.2264 31.4688 15.6782C31.9049 16.2264 32.4997 16.6268 33.25 16.6268C34.5554 16.6268 35.625 15.5573 35.625 14.2518V13.9503V13.9317V13.6094V13.607C35.625 13.5703 35.6132 13.5338 35.6108 13.498V13.4908L35.587 12.6791C35.587 12.5212 35.5146 12.3718 35.3992 12.2639L31.3658 8.47412C31.2566 8.37033 31.111 8.3123 30.9599 8.31177H17.7374H16.3249H7.03831L7.03889 8.31203ZM7.27547 9.49953H16.2838H17.738H17.7963H30.7242L34.4073 12.96L34.4371 13.948V13.9665V14.2518C34.4371 14.92 33.9177 15.4393 33.2496 15.4393C32.5814 15.4393 32.0621 14.92 32.0621 14.2518C32.0621 13.9239 31.7962 13.6581 31.4683 13.6581C31.1404 13.6581 30.8746 13.9239 30.8746 14.2518C30.8746 14.92 30.3552 15.4393 29.6871 15.4393C29.0189 15.4393 28.4996 14.92 28.4996 14.2518C28.4996 13.9239 28.2337 13.6581 27.9058 13.6581C27.5779 13.6581 27.3121 13.9239 27.3121 14.2518C27.3121 14.92 26.7927 15.4393 26.1246 15.4393C25.4564 15.4393 24.9371 14.92 24.9371 14.2518C24.9371 13.9239 24.6712 13.6581 24.3433 13.6581C24.0154 13.6581 23.7496 13.9239 23.7496 14.2518C23.7496 14.92 23.2302 15.4393 22.5621 15.4393C21.8939 15.4393 21.3746 14.92 21.3746 14.2518C21.3746 13.9239 21.1087 13.6581 20.7808 13.6581C20.4529 13.6581 20.1871 13.9239 20.1871 14.2518C20.1871 14.92 19.6677 15.4393 18.9996 15.4393C18.3314 15.4393 17.8121 14.92 17.8121 14.2518C17.8121 13.9239 17.5462 13.6581 17.2183 13.6581C16.8904 13.6581 16.6246 13.9239 16.6246 14.2518C16.6246 14.92 16.1052 15.4393 15.4371 15.4393C14.7689 15.4393 14.2496 14.92 14.2496 14.2518C14.2496 13.9239 13.9837 13.6581 13.6558 13.6581C13.3279 13.6581 13.0621 13.9239 13.0621 14.2518C13.0621 14.92 12.5427 15.4393 11.8746 15.4393C11.2064 15.4393 10.6871 14.92 10.6871 14.2518C10.6871 14.2518 10.7191 13.6577 10.0933 13.6577C9.46691 13.6577 9.49957 14.2518 9.49957 14.2518C9.49957 14.92 8.98015 15.4393 8.31207 15.4393C7.64386 15.4393 7.12457 14.92 7.12457 14.2518C7.12457 14.2518 7.15663 13.6577 6.53082 13.6577C5.90441 13.6577 5.93707 14.2518 5.93707 14.2518C5.93707 14.92 5.41765 15.4393 4.74957 15.4393C4.08136 15.4393 3.56207 14.92 3.56207 14.2518V13.9665V13.9503L3.59178 12.9599L7.27489 9.49947L7.27547 9.49953Z" fill="black"/>
<path fill-rule="evenodd" clip-rule="evenodd" d="M4.00049 11.2808V12.4683H34.1843V11.2808H4.00049Z" fill="black"/>
</svg>
