<svg width="188" height="188" viewBox="0 0 188 188" fill="none" xmlns="http://www.w3.org/2000/svg">
<g clip-path="url(#clip0_1393_1378)">
<path d="M171.19 53.6897C171.555 53.3258 171.844 52.8936 172.042 52.4178C172.239 51.942 172.341 51.4318 172.341 50.9167C172.341 50.4015 172.239 49.8914 172.042 49.4155C171.844 48.9397 171.555 48.5075 171.19 48.1437L155.523 32.477C155.16 32.1123 154.727 31.8229 154.252 31.6254C153.776 31.428 153.266 31.3263 152.75 31.3263C152.235 31.3263 151.725 31.428 151.249 31.6254C150.774 31.8229 150.341 32.1123 149.977 32.477L137.75 44.7127C129.256 38.9711 119.713 34.9622 109.667 32.9157V23.5H113.584C114.623 23.5 115.619 23.0874 116.353 22.3528C117.088 21.6183 117.5 20.6221 117.5 19.5833V3.91667C117.5 2.8779 117.088 1.88168 116.353 1.14717C115.619 0.412648 114.623 0 113.584 0L74.4172 0C73.3784 0 72.3822 0.412648 71.6476 1.14717C70.9131 1.88168 70.5005 2.8779 70.5005 3.91667V19.5833C70.5005 20.6221 70.9131 21.6183 71.6476 22.3528C72.3822 23.0874 73.3784 23.5 74.4172 23.5H78.3338V32.9157C68.288 34.9622 58.7449 38.9711 50.2513 44.7127L38.0235 32.477C37.6597 32.1123 37.2275 31.8229 36.7516 31.6254C36.2758 31.428 35.7657 31.3263 35.2505 31.3263C34.7353 31.3263 34.2252 31.428 33.7494 31.6254C33.2735 31.8229 32.8413 32.1123 32.4775 32.477L16.8108 48.1437C16.4461 48.5075 16.1567 48.9397 15.9592 49.4155C15.7618 49.8914 15.6602 50.4015 15.6602 50.9167C15.6602 51.4318 15.7618 51.942 15.9592 52.4178C16.1567 52.8936 16.4461 53.3258 16.8108 53.6897L29.0465 65.9175C20.3078 78.8324 15.6469 94.0731 15.6672 109.667C15.6672 152.86 50.8075 188 94.0005 188C137.193 188 172.334 152.86 172.334 109.667C172.334 93.4752 167.399 78.4195 158.954 65.9175L171.19 53.6897V53.6897Z" fill="#303C42"/>
<path d="M152.75 40.7881L162.878 50.9166L154.183 59.6116C151.128 55.9299 147.736 52.5381 144.062 49.4831L152.75 40.7881Z" fill="#546E7A"/>
<path d="M82.2507 15.6663H78.334V7.83301H109.667V15.6663H105.751C104.712 15.6663 103.716 16.079 102.981 16.8135C102.247 17.548 101.834 18.5442 101.834 19.583V31.7247C96.6247 31.2045 91.3766 31.2045 86.1673 31.7247V19.583C86.1673 18.5442 85.7547 17.548 85.0202 16.8135C84.2856 16.079 83.2894 15.6663 82.2507 15.6663V15.6663Z" fill="#546E7A"/>
<path opacity="0.2" d="M78.334 7.83301H109.667V11.7497H78.334V7.83301Z" fill="white"/>
<path d="M25.1211 50.9166L35.2496 40.7881L43.9446 49.4831C40.2629 52.5381 36.8711 55.9299 33.8161 59.6038L25.1211 50.9166Z" fill="#546E7A"/>
<path d="M94 180.167C55.131 180.167 23.5 148.536 23.5 109.667C23.5 70.798 55.131 39.167 94 39.167C132.869 39.167 164.5 70.798 164.5 109.667C164.5 148.536 132.869 180.167 94 180.167Z" fill="#E6E6E6"/>
<path opacity="0.1" d="M35.25 117.5C35.25 78.6314 66.881 47.0004 105.75 47.0004C117.273 46.993 128.619 49.8289 138.783 55.2567C126.185 44.8411 110.346 39.1505 94 39.167C55.131 39.167 23.5 70.798 23.5 109.667C23.5 136.606 38.6967 160.043 60.9668 171.911C52.9248 165.306 46.4472 157.001 42.0004 147.592C37.5535 138.184 35.2481 127.907 35.25 117.5V117.5Z" fill="black"/>
<path d="M101.441 111.578C101.606 110.951 101.833 110.34 101.833 109.666C101.816 108.316 101.445 106.993 100.758 105.831C100.071 104.668 99.0908 103.706 97.916 103.039V58.7497C97.916 57.7109 97.5034 56.7147 96.7689 55.9802C96.0343 55.2457 95.0381 54.833 93.9993 54.833C92.9606 54.833 91.9644 55.2457 91.2298 55.9802C90.4953 56.7147 90.0827 57.7109 90.0827 58.7497V103.039C88.9079 103.706 87.9281 104.668 87.241 105.831C86.5538 106.993 86.1832 108.316 86.166 109.666C86.166 113.982 89.6832 117.5 93.9993 117.5C94.673 117.5 95.284 117.272 95.9107 117.108L118.651 139.856C119.013 140.221 119.445 140.511 119.92 140.709C120.395 140.907 120.905 141.009 121.42 141.009C121.935 141.009 122.444 140.907 122.92 140.709C123.395 140.511 123.826 140.221 124.189 139.856C124.554 139.492 124.843 139.06 125.041 138.584C125.238 138.108 125.34 137.598 125.34 137.083C125.34 136.568 125.238 136.058 125.041 135.582C124.843 135.106 124.554 134.674 124.189 134.31L101.449 111.578H101.441Z" fill="#303C42"/>
<path d="M96.8123 56.04C97.4859 56.745 97.9168 57.6929 97.9168 58.7504V103.04C100.212 104.403 101.833 106.8 101.833 109.667C101.833 110.341 101.606 110.952 101.442 111.578L124.19 134.311C124.554 134.674 124.843 135.106 125.04 135.581C125.237 136.057 125.339 136.566 125.34 137.081C125.34 137.596 125.239 138.105 125.042 138.581C124.846 139.056 124.557 139.489 124.194 139.853C123.83 140.217 123.398 140.506 122.923 140.703C122.448 140.9 121.938 141.002 121.423 141.003C120.909 141.003 120.399 140.902 119.924 140.705C119.448 140.509 119.016 140.22 118.652 139.857L95.9114 117.117C95.2848 117.273 94.6738 117.5 94.0001 117.5C92.9779 117.497 91.9663 117.292 91.0234 116.897V116.913L138.439 164.328C151.416 153.772 160.217 138.946 163.27 122.498L96.8201 56.0479L96.8123 56.04Z" fill="url(#paint0_linear_1393_1378)"/>
<path opacity="0.1" d="M31.043 56.8385L33.816 59.6036C36.871 55.9298 40.2628 52.538 43.9366 49.483L41.1715 46.71C37.5133 49.7885 34.1215 53.1803 31.043 56.8385Z" fill="black"/>
<path opacity="0.1" d="M156.956 56.8385C153.878 53.1803 150.486 49.7885 146.828 46.71L144.062 49.483C147.736 52.538 151.128 55.9298 154.183 59.6036L156.956 56.8385Z" fill="black"/>
<path d="M171.19 53.6897C171.555 53.3258 171.844 52.8936 172.042 52.4178C172.239 51.942 172.341 51.4318 172.341 50.9167C172.341 50.4015 172.239 49.8914 172.042 49.4155C171.844 48.9397 171.555 48.5075 171.19 48.1437L155.523 32.477C155.16 32.1123 154.727 31.8229 154.252 31.6254C153.776 31.428 153.266 31.3263 152.75 31.3263C152.235 31.3263 151.725 31.428 151.249 31.6254C150.774 31.8229 150.341 32.1123 149.977 32.477L137.75 44.7127C129.256 38.9711 119.713 34.9622 109.667 32.9157V23.5H113.584C114.623 23.5 115.619 23.0874 116.353 22.3528C117.088 21.6183 117.5 20.6221 117.5 19.5833V3.91667C117.5 2.8779 117.088 1.88168 116.353 1.14717C115.619 0.412648 114.623 0 113.584 0L74.4172 0C73.3784 0 72.3822 0.412648 71.6476 1.14717C70.9131 1.88168 70.5005 2.8779 70.5005 3.91667V19.5833C70.5005 20.6221 70.9131 21.6183 71.6476 22.3528C72.3822 23.0874 73.3784 23.5 74.4172 23.5H78.3338V32.9157C68.288 34.9622 58.7449 38.9711 50.2513 44.7127L38.0235 32.477C37.6597 32.1123 37.2275 31.8229 36.7516 31.6254C36.2758 31.428 35.7657 31.3263 35.2505 31.3263C34.7353 31.3263 34.2252 31.428 33.7494 31.6254C33.2735 31.8229 32.8413 32.1123 32.4775 32.477L16.8108 48.1437C16.4461 48.5075 16.1567 48.9397 15.9592 49.4155C15.7618 49.8914 15.6602 50.4015 15.6602 50.9167C15.6602 51.4318 15.7618 51.942 15.9592 52.4178C16.1567 52.8936 16.4461 53.3258 16.8108 53.6897L29.0465 65.9175C20.3078 78.8324 15.6469 94.0731 15.6672 109.667C15.6672 152.86 50.8075 188 94.0005 188C137.193 188 172.334 152.86 172.334 109.667C172.334 93.4752 167.399 78.4195 158.954 65.9175L171.19 53.6897V53.6897Z" fill="url(#paint1_linear_1393_1378)"/>
</g>
<defs>
<linearGradient id="paint0_linear_1393_1378" x1="80.1474" y1="72.7064" x2="155.365" y2="147.924" gradientUnits="userSpaceOnUse">
<stop stop-opacity="0.1"/>
<stop offset="1" stop-opacity="0"/>
</linearGradient>
<linearGradient id="paint1_linear_1393_1378" x1="13.0994" y1="55.5529" x2="171.269" y2="129.308" gradientUnits="userSpaceOnUse">
<stop stop-color="white" stop-opacity="0.2"/>
<stop offset="1" stop-color="white" stop-opacity="0"/>
</linearGradient>
<clipPath id="clip0_1393_1378">
<rect width="188" height="188" fill="white"/>
</clipPath>
</defs>
</svg>
