<svg width="168" height="168" viewBox="0 0 168 168" fill="none" xmlns="http://www.w3.org/2000/svg">
<path d="M156.305 34.8706C156.898 34.8706 157.478 34.6947 157.972 34.365C158.465 34.0354 158.849 33.5669 159.076 33.0187C159.304 32.4705 159.363 31.8673 159.247 31.2854C159.131 30.7034 158.846 30.1689 158.426 29.7493C158.007 29.3298 157.472 29.044 156.89 28.9283C156.308 28.8125 155.705 28.8719 155.157 29.099C154.609 29.3261 154.14 29.7106 153.81 30.2039C153.481 30.6973 153.305 31.2773 153.305 31.8706C153.306 32.666 153.622 33.4285 154.185 33.991C154.747 34.5534 155.509 34.8697 156.305 34.8706ZM156.305 30.3706C156.602 30.3706 156.892 30.4586 157.138 30.6234C157.385 30.7883 157.577 31.0225 157.691 31.2966C157.804 31.5707 157.834 31.8723 157.776 32.1633C157.718 32.4542 157.575 32.7215 157.366 32.9313C157.156 33.1411 156.888 33.2839 156.597 33.3418C156.307 33.3997 156.005 33.37 155.731 33.2565C155.457 33.1429 155.222 32.9507 155.058 32.704C154.893 32.4573 154.805 32.1673 154.805 31.8706C154.805 31.4729 154.963 31.0916 155.245 30.8104C155.526 30.5292 155.907 30.371 156.305 30.3706ZM158.305 71.1867C157.909 71.1867 157.523 71.304 157.194 71.5237C156.865 71.7435 156.608 72.0559 156.457 72.4213C156.306 72.7868 156.266 73.1889 156.343 73.5769C156.42 73.9648 156.611 74.3212 156.891 74.6009C157.17 74.8806 157.527 75.0711 157.915 75.1482C158.303 75.2254 158.705 75.1858 159.07 75.0344C159.436 74.8831 159.748 74.6267 159.968 74.2978C160.188 73.9689 160.305 73.5822 160.305 73.1867C160.304 72.6564 160.093 72.1481 159.718 71.7731C159.343 71.3982 158.835 71.1873 158.305 71.1867ZM158.305 74.1867C158.107 74.1867 157.914 74.128 157.749 74.0181C157.585 73.9083 157.457 73.7521 157.381 73.5694C157.305 73.3866 157.285 73.1856 157.324 72.9916C157.363 72.7976 157.458 72.6194 157.598 72.4796C157.738 72.3397 157.916 72.2445 158.11 72.2059C158.304 72.1673 158.505 72.1871 158.688 72.2628C158.87 72.3385 159.026 72.4667 159.136 72.6311C159.246 72.7956 159.305 72.9889 159.305 73.1867C159.305 73.4518 159.199 73.706 159.012 73.8935C158.824 74.081 158.57 74.1864 158.305 74.1867ZM10.4727 30.6867C10.0771 30.6867 9.69042 30.804 9.36152 31.0237C9.03262 31.2435 8.77627 31.5559 8.6249 31.9213C8.47352 32.2868 8.43392 32.6889 8.51109 33.0769C8.58826 33.4648 8.77874 33.8212 9.05844 34.1009C9.33815 34.3806 9.69451 34.5711 10.0825 34.6482C10.4704 34.7254 10.8726 34.6858 11.238 34.5344C11.6035 34.3831 11.9158 34.1267 12.1356 33.7978C12.3554 33.4689 12.4727 33.0822 12.4727 32.6867C12.4721 32.1564 12.2611 31.6481 11.8862 31.2731C11.5113 30.8982 11.0029 30.6873 10.4727 30.6867ZM10.4727 33.6867C10.2749 33.6867 10.0815 33.628 9.91709 33.5181C9.75264 33.4083 9.62447 33.2521 9.54878 33.0694C9.47309 32.8866 9.45329 32.6856 9.49187 32.4916C9.53046 32.2976 9.6257 32.1194 9.76555 31.9796C9.9054 31.8397 10.0836 31.7445 10.2776 31.7059C10.4715 31.6673 10.6726 31.6871 10.8553 31.7628C11.0381 31.8385 11.1942 31.9667 11.3041 32.1311C11.414 32.2956 11.4727 32.4889 11.4727 32.6867C11.4724 32.9518 11.367 33.206 11.1795 33.3935C10.992 33.581 10.7378 33.6864 10.4727 33.6867ZM117.15 5.81348C116.754 5.81348 116.368 5.93077 116.039 6.15054C115.71 6.3703 115.454 6.68266 115.302 7.04811C115.151 7.41356 115.111 7.8157 115.188 8.20366C115.266 8.59162 115.456 8.94799 115.736 9.22769C116.016 9.5074 116.372 9.69788 116.76 9.77505C117.148 9.85222 117.55 9.81261 117.915 9.66124C118.281 9.50986 118.593 9.25352 118.813 8.92462C119.033 8.59572 119.15 8.20904 119.15 7.81348C119.149 7.28323 118.939 6.77487 118.564 6.39993C118.189 6.02499 117.68 5.81408 117.15 5.81348ZM117.15 8.81348C116.952 8.81348 116.759 8.75483 116.594 8.64495C116.43 8.53507 116.302 8.37889 116.226 8.19616C116.15 8.01343 116.131 7.81237 116.169 7.61839C116.208 7.42441 116.303 7.24622 116.443 7.10637C116.583 6.96652 116.761 6.87128 116.955 6.83269C117.149 6.79411 117.35 6.81391 117.533 6.8896C117.715 6.96529 117.872 7.09346 117.982 7.25791C118.091 7.42236 118.15 7.6157 118.15 7.81348C118.15 8.07861 118.044 8.33281 117.857 8.52029C117.669 8.70777 117.415 8.81321 117.15 8.81348ZM88.5751 24.3013C88.5751 23.9057 88.4578 23.519 88.2381 23.1901C88.0183 22.8612 87.706 22.6049 87.3405 22.4535C86.9751 22.3021 86.5729 22.2625 86.185 22.3397C85.797 22.4169 85.4406 22.6074 85.1609 22.8871C84.8812 23.1668 84.6907 23.5231 84.6136 23.9111C84.5364 24.2991 84.576 24.7012 84.7274 25.0666C84.8788 25.4321 85.1351 25.7445 85.464 25.9642C85.7929 26.184 86.1796 26.3013 86.5751 26.3013C87.1054 26.3007 87.6137 26.0898 87.9887 25.7148C88.3636 25.3399 88.5745 24.8315 88.5751 24.3013ZM85.5751 24.3013C85.5751 24.1035 85.6338 23.9102 85.7437 23.7457C85.8535 23.5813 86.0097 23.4531 86.1925 23.3774C86.3752 23.3017 86.5762 23.2819 86.7702 23.3205C86.9642 23.3591 87.1424 23.4543 87.2822 23.5942C87.4221 23.734 87.5173 23.9122 87.5559 24.1062C87.5945 24.3002 87.5747 24.5012 87.499 24.684C87.4233 24.8667 87.2952 25.0229 87.1307 25.1327C86.9663 25.2426 86.7729 25.3013 86.5751 25.3013C86.31 25.301 86.0558 25.1956 85.8683 25.0081C85.6808 24.8206 85.5754 24.5664 85.5751 24.3013Z" fill="black"/>
<path d="M10.8878 71.198L12.3748 69.242L11.4358 68.71L10.4808 70.9H10.4498L9.47982 68.726L8.52482 69.274L9.99582 71.183V71.214L7.69482 70.916V71.98L10.0108 71.683V71.714L8.52482 73.623L9.41582 74.187L10.4338 71.98H10.4648L11.4038 74.171L12.3898 73.608L10.8878 71.73V71.699L13.2498 71.98V70.916L10.8878 71.229V71.198Z" fill="#00CCFF"/>
<path d="M43.2339 36.9663L42.3779 38.0653L42.8919 38.3903L43.4779 37.1193H43.4959L44.0359 38.3813L44.6039 38.0563L43.7389 36.9753V36.9573L45.0989 37.1193V36.5073L43.7389 36.6873V36.6693L44.5949 35.5433L44.0549 35.2363L43.5049 36.4973H43.4869L42.9289 35.2453L42.3779 35.5613L43.2259 36.6603V36.6783L41.9009 36.5073V37.1193L43.2339 36.9483V36.9663Z" fill="#00CCFF"/>
<path d="M58.7239 13.0215V11.9775L56.4069 12.2845V12.2535L57.8659 10.3355L56.9449 9.81348L56.0089 11.9615H55.9769L55.0269 9.82848L54.0889 10.3665L55.5329 12.2385V12.2695L53.2759 11.9775V13.0215L55.5479 12.7295V12.7605L54.0889 14.6325L54.9639 15.1855L55.9629 13.0215H55.9919L56.9129 15.1695L57.8809 14.6175L56.4069 12.7755V12.7445L58.7239 13.0215Z" fill="#00CCFF"/>
<path d="M134.3 50.7905L135.558 49.1365L134.763 48.6865L133.956 50.5395H133.929L133.109 48.6995L132.3 49.1625L133.545 50.7775V50.8045L131.598 50.5525V51.4525L133.558 51.2015V51.2275L132.3 52.8425L133.055 53.3195L133.916 51.4525H133.942L134.736 53.3065L135.571 52.8295L134.3 51.2405V51.2145L136.298 51.4525V50.5525L134.3 50.8175V50.7905Z" fill="#00CCFF"/>
<path d="M2 148.187C3.10457 148.187 4 147.291 4 146.187C4 145.082 3.10457 144.187 2 144.187C0.89543 144.187 0 145.082 0 146.187C0 147.291 0.89543 148.187 2 148.187Z" fill="black"/>
<path d="M11 144.187H8C7.46957 144.187 6.96086 144.397 6.58579 144.772C6.21071 145.147 6 145.656 6 146.187C6 146.717 6.21071 147.226 6.58579 147.601C6.96086 147.976 7.46957 148.187 8 148.187H11C11.5304 148.187 12.0391 147.976 12.4142 147.601C12.7893 147.226 13 146.717 13 146.187C13 145.656 12.7893 145.147 12.4142 144.772C12.0391 144.397 11.5304 144.187 11 144.187ZM160 144.187H157C156.47 144.187 155.961 144.397 155.586 144.772C155.211 145.147 155 145.656 155 146.187C155 146.717 155.211 147.226 155.586 147.601C155.961 147.976 156.47 148.187 157 148.187H160C160.53 148.187 161.039 147.976 161.414 147.601C161.789 147.226 162 146.717 162 146.187C162 145.656 161.789 145.147 161.414 144.772C161.039 144.397 160.53 144.187 160 144.187Z" fill="black"/>
<path d="M166 148.187C167.105 148.187 168 147.291 168 146.187C168 145.082 167.105 144.187 166 144.187C164.895 144.187 164 145.082 164 146.187C164 147.291 164.895 148.187 166 148.187Z" fill="black"/>
<path d="M118.154 152.187H109.846C109.343 152.227 108.874 152.455 108.532 152.826C108.19 153.196 108 153.682 108 154.187C108 154.691 108.19 155.177 108.532 155.547C108.874 155.918 109.343 156.146 109.846 156.187H118.154C118.657 156.146 119.126 155.918 119.468 155.547C119.81 155.177 120 154.691 120 154.187C120 153.682 119.81 153.196 119.468 152.826C119.126 152.455 118.657 152.227 118.154 152.187ZM58.1539 152.187H49.8462C49.3434 152.227 48.8742 152.455 48.5321 152.826C48.19 153.196 48 153.682 48 154.187C48 154.691 48.19 155.177 48.5321 155.547C48.8742 155.918 49.3434 156.146 49.8462 156.187H58.1539C58.6567 156.146 59.1258 155.918 59.468 155.547C59.8101 155.177 60.0001 154.691 60.0001 154.187C60.0001 153.682 59.8101 153.196 59.468 152.826C59.1258 152.455 58.6567 152.227 58.1539 152.187ZM104 152.187H64C63.4696 152.187 62.9609 152.397 62.5858 152.772C62.2107 153.147 62 153.656 62 154.187C62 154.717 62.2107 155.226 62.5858 155.601C62.9609 155.976 63.4696 156.187 64 156.187H79.94V158.187H72C71.4696 158.187 70.9609 158.397 70.5858 158.772C70.2107 159.147 70 159.656 70 160.187C70 160.717 70.2107 161.226 70.5858 161.601C70.9609 161.976 71.4696 162.187 72 162.187H97C97.5305 162.187 98.0392 161.976 98.4142 161.601C98.7893 161.226 99 160.717 99 160.187C99 159.656 98.7893 159.147 98.4142 158.772C98.0392 158.397 97.5305 158.187 97 158.187H88.06V156.187H104C104.53 156.187 105.039 155.976 105.414 155.601C105.789 155.226 106 154.717 106 154.187C106 153.656 105.789 153.147 105.414 152.772C105.039 152.397 104.53 152.187 104 152.187Z" fill="#00CCFF"/>
<path d="M60 119.187H68C69.0038 119.184 69.9696 118.803 70.7051 118.12C71.4405 117.436 71.8915 116.501 71.9683 115.5H106.61C108.278 115.499 109.876 114.835 111.056 113.656C112.235 112.477 112.898 110.879 112.9 109.211C112.895 108.355 112.694 107.512 112.313 106.745C113.385 106.493 114.371 105.964 115.174 105.209C115.976 104.455 116.565 103.503 116.883 102.449C117.201 101.394 117.235 100.275 116.983 99.2031C116.731 98.1312 116.202 97.1445 115.447 96.3422C116.066 95.6843 116.536 94.9005 116.823 94.0443C117.111 93.1881 117.21 92.2798 117.114 91.3817C117.019 90.4836 116.73 89.6168 116.267 88.8407C115.805 88.0646 115.181 87.3976 114.437 86.8853C115.053 85.9366 115.401 84.8392 115.445 83.7089C115.49 82.5787 115.227 81.4575 114.687 80.4638C114.147 79.4701 113.348 78.6408 112.375 78.0635C111.402 77.4862 110.292 77.1823 109.161 77.1839H93.8477V65.3002C93.8471 63.5236 93.1417 61.8198 91.8863 60.5627C90.631 59.3056 88.9282 58.5978 87.1516 58.5947C85.375 58.5916 83.6698 59.2934 82.4101 60.5461C81.1503 61.7989 80.439 63.5002 80.4322 65.2767C80.4317 65.3309 80.2818 70.7933 77.1778 73.6615C76.4762 74.2882 75.6574 74.7696 74.7687 75.0779C73.8799 75.3862 72.9389 75.5153 72 75.4578V75.1869C71.9988 74.1264 71.577 73.1097 70.8271 72.3598C70.0772 71.6099 69.0605 71.1881 68 71.1869H60C58.9395 71.1881 57.9228 71.6099 57.1729 72.3598C56.423 73.1097 56.0012 74.1264 56 75.1869V115.187C56.0011 116.247 56.4229 117.264 57.1728 118.014C57.9227 118.764 58.9395 119.186 60 119.187ZM72 79.4524C74.9033 79.5742 77.7382 78.5495 79.8926 76.5994C84.2974 72.5291 84.4287 65.616 84.4321 65.3001C84.4335 64.5829 84.7194 63.8955 85.2271 63.3888C85.7347 62.8821 86.4226 62.5976 87.1399 62.5976C87.8571 62.5976 88.5451 62.8821 89.0527 63.3888C89.5604 63.8955 89.8463 64.5829 89.8477 65.3001V79.184C89.8477 79.7144 90.0584 80.2231 90.4335 80.5981C90.8085 80.9732 91.3172 81.1839 91.8477 81.184H109.161C109.768 81.184 110.35 81.4252 110.78 81.8545C111.209 82.2839 111.45 82.8663 111.45 83.4735C111.45 84.0807 111.209 84.6631 110.78 85.0925C110.35 85.5218 109.768 85.7631 109.161 85.7631H100.001C99.471 85.7631 98.9623 85.9738 98.5873 86.3488C98.2122 86.7239 98.0015 87.2326 98.0015 87.7631C98.0015 88.2935 98.2122 88.8022 98.5873 89.1773C98.9623 89.5523 99.471 89.7631 100.001 89.7631H110.86C111.468 89.7631 112.05 90.0043 112.479 90.4336C112.909 90.863 113.15 91.4454 113.15 92.0526C113.15 92.6598 112.909 93.2422 112.479 93.6716C112.05 94.1009 111.468 94.3422 110.86 94.3422H102.861C102.331 94.3422 101.822 94.5529 101.447 94.9279C101.072 95.303 100.861 95.8117 100.861 96.3422C100.861 96.8726 101.072 97.3813 101.447 97.7564C101.822 98.1314 102.331 98.3422 102.861 98.3422H110.86C111.468 98.3422 112.05 98.5834 112.479 99.0128C112.909 99.4421 113.15 100.024 113.15 100.632C113.15 101.239 112.909 101.821 112.479 102.251C112.05 102.68 111.468 102.921 110.86 102.921H105.721C105.19 102.921 104.682 103.132 104.306 103.507C103.931 103.882 103.721 104.391 103.721 104.921C103.721 105.452 103.931 105.96 104.306 106.335C104.682 106.711 105.19 106.921 105.721 106.921H105.76C107.433 106.921 108.9 107.992 108.9 109.211C108.899 109.818 108.658 110.4 108.228 110.829C107.799 111.258 107.217 111.5 106.61 111.5H72V79.4524ZM60 75.1869H68L68.0024 115.187H60V75.1869Z" fill="black"/>
<path d="M39.5 93.1865C39.5 101.988 42.1099 110.591 46.9996 117.909C51.8893 125.227 58.8393 130.931 66.9706 134.299C75.1019 137.667 84.0494 138.549 92.6815 136.831C101.314 135.114 109.243 130.876 115.466 124.653C121.69 118.429 125.928 110.5 127.645 101.868C129.362 93.2359 128.481 84.2884 125.113 76.1571C121.745 68.0258 116.041 61.0758 108.723 56.1861C101.405 51.2964 92.8013 48.6865 84 48.6865C72.202 48.6999 60.891 53.3925 52.5485 61.735C44.206 70.0775 39.5134 81.3885 39.5 93.1865ZM84 52.6865C92.0101 52.6865 99.8404 55.0618 106.501 59.512C113.161 63.9622 118.352 70.2874 121.417 77.6878C124.482 85.0882 125.285 93.2315 123.722 101.088C122.159 108.944 118.302 116.16 112.638 121.824C106.974 127.488 99.7574 131.346 91.9012 132.908C84.0449 134.471 75.9017 133.669 68.5013 130.604C61.1009 127.538 54.7757 122.347 50.3255 115.687C45.8753 109.027 43.5 101.197 43.5 93.1865C43.5122 82.449 47.7831 72.1548 55.3757 64.5622C62.9682 56.9696 73.2625 52.6987 84 52.6865Z" fill="black"/>
<path d="M92 93.1865H78C77.4696 93.1865 76.9609 93.3972 76.5858 93.7723C76.2107 94.1474 76 94.6561 76 95.1865C76 95.717 76.2107 96.2257 76.5858 96.6007C76.9609 96.9758 77.4696 97.1865 78 97.1865H92C92.5304 97.1865 93.0391 96.9758 93.4142 96.6007C93.7893 96.2257 94 95.717 94 95.1865C94 94.6561 93.7893 94.1474 93.4142 93.7723C93.0391 93.3972 92.5304 93.1865 92 93.1865ZM85 101.187H78C77.4696 101.187 76.9609 101.397 76.5858 101.772C76.2107 102.147 76 102.656 76 103.187C76 103.717 76.2107 104.226 76.5858 104.601C76.9609 104.976 77.4696 105.187 78 105.187H85C85.5304 105.187 86.0391 104.976 86.4142 104.601C86.7893 104.226 87 103.717 87 103.187C87 102.656 86.7893 102.147 86.4142 101.772C86.0391 101.397 85.5304 101.187 85 101.187ZM78 89.1865H85C85.5304 89.1865 86.0391 88.9758 86.4142 88.6007C86.7893 88.2257 87 87.717 87 87.1865C87 86.6561 86.7893 86.1474 86.4142 85.7723C86.0391 85.3972 85.5304 85.1865 85 85.1865H78C77.4696 85.1865 76.9609 85.3972 76.5858 85.7723C76.2107 86.1474 76 86.6561 76 87.1865C76 87.717 76.2107 88.2257 76.5858 88.6007C76.9609 88.9758 77.4696 89.1865 78 89.1865Z" fill="#00CCFF"/>
<path d="M150.721 144.187H118.487L147.727 94.1963C147.906 93.8899 148 93.5414 148 93.1865C148 92.8316 147.906 92.4831 147.727 92.1768L116.727 39.1768C116.55 38.8754 116.298 38.6254 115.995 38.4517C115.692 38.278 115.349 38.1866 115 38.1865H69.7501C69.2197 38.1865 68.711 38.3972 68.3359 38.7723C67.9608 39.1474 67.7501 39.6561 67.7501 40.1865C67.7501 40.717 67.9608 41.2257 68.3359 41.6007C68.711 41.9758 69.2197 42.1865 69.7501 42.1865H113.853L143.683 93.1865L113.853 144.187H54.1471L24.317 93.1865L54.1471 42.1865H57.7501C58.2806 42.1865 58.7893 41.9758 59.1643 41.6007C59.5394 41.2257 59.7501 40.717 59.7501 40.1865C59.7501 39.6561 59.5394 39.1474 59.1643 38.7723C58.7893 38.3972 58.2806 38.1865 57.7501 38.1865H53.0001C52.6509 38.1865 52.3079 38.278 52.005 38.4517C51.7021 38.6254 51.4499 38.8754 51.2736 39.1768L20.2736 92.1768C20.0944 92.4831 20 92.8316 20 93.1865C20 93.5414 20.0944 93.8899 20.2736 94.1963L49.5131 144.187H17.2788C16.9943 144.149 16.7051 144.173 16.4306 144.257C16.156 144.34 15.9025 144.481 15.6868 144.671C15.4712 144.86 15.2984 145.093 15.1801 145.355C15.0617 145.616 15.0005 145.9 15.0005 146.187C15.0005 146.473 15.0617 146.757 15.1801 147.019C15.2984 147.28 15.4712 147.513 15.6868 147.702C15.9025 147.892 16.156 148.033 16.4306 148.116C16.7051 148.2 16.9943 148.224 17.2788 148.187H150.721C151.006 148.224 151.295 148.2 151.57 148.116C151.844 148.033 152.098 147.892 152.313 147.702C152.529 147.513 152.702 147.28 152.82 147.019C152.939 146.757 153 146.473 153 146.187C153 145.9 152.939 145.616 152.82 145.355C152.702 145.093 152.529 144.86 152.313 144.671C152.098 144.481 151.844 144.34 151.57 144.257C151.295 144.173 151.006 144.149 150.721 144.187Z" fill="black"/>
</svg>
