<svg width="100" height="100" viewBox="0 0 100 100" fill="none" xmlns="http://www.w3.org/2000/svg">
<path d="M39.3574 56.2793C38.6813 56.2793 38.0118 56.4125 37.3872 56.6712C36.7626 56.9299 36.195 57.3092 35.7169 57.7872C35.2389 58.2653 34.8596 58.8329 34.6009 59.4575C34.3422 60.0821 34.209 60.7516 34.209 61.4277V74.2969C34.209 81.8145 40.4219 88.0273 47.9395 88.0273C55.457 88.0273 61.6719 81.8145 61.6719 74.2969V61.4277C61.6719 60.0623 61.1295 58.7528 60.1639 57.7872C59.1984 56.8217 57.8889 56.2793 56.5234 56.2793C55.158 56.2793 53.8485 56.8217 52.8829 57.7872C51.9174 58.7528 51.375 60.0623 51.375 61.4277V74.2969C51.375 76.2871 49.9316 77.7305 47.9395 77.7305C45.9473 77.7305 44.5059 76.2871 44.5059 74.2969V61.4277C44.5059 60.7516 44.3727 60.0821 44.114 59.4575C43.8552 58.8329 43.476 58.2653 42.9979 57.7872C42.5198 57.3092 41.9523 56.9299 41.3276 56.6712C40.703 56.4125 40.0335 56.2793 39.3574 56.2793ZM75.207 57.6172C74.2058 57.6114 73.2246 57.8979 72.3837 58.4414C71.5429 58.9849 70.8788 59.7619 70.4729 60.6772C70.0669 61.5924 69.9368 62.6062 70.0985 63.5944C70.2601 64.5825 70.7064 65.502 71.3828 66.2402L76.6719 72.0234L71.3828 77.8066C70.4766 78.8166 70.0057 80.1435 70.0726 81.4988C70.1394 82.8541 70.7387 84.1282 71.74 85.0441C72.7413 85.9599 74.0636 86.4434 75.4195 86.3894C76.7754 86.3355 78.0551 85.7484 78.9805 84.7559L83.6484 79.6504L88.3184 84.7559C88.7727 85.2621 89.3228 85.6734 89.9369 85.9658C90.5511 86.2583 91.2171 86.4261 91.8965 86.4596C92.5759 86.4931 93.2552 86.3917 93.8952 86.1611C94.5352 85.9306 95.1231 85.5755 95.625 85.1164C96.127 84.6573 96.533 84.1033 96.8195 83.4864C97.1061 82.8695 97.2676 82.2019 97.2946 81.5222C97.3217 80.8425 97.2138 80.1642 96.9772 79.5265C96.7405 78.8887 96.3799 78.3042 95.916 77.8066L90.625 72.0195L95.9141 66.2363C96.8356 65.2285 97.3192 63.8958 97.2584 62.5315C97.1976 61.1672 96.5974 59.8828 95.5898 58.9609C94.5818 58.0405 93.2498 57.5576 91.8861 57.6184C90.5224 57.6792 89.2385 58.2786 88.3164 59.2852L83.6465 64.3906L78.9785 59.2852C78.4988 58.7621 77.9162 58.3439 77.2671 58.0569C76.6181 57.7699 75.9167 57.6202 75.207 57.6172Z" fill="#00CCFF"/>
<path d="M7.88281 11.9727C6.51736 11.9727 5.20784 12.5151 4.24232 13.4806C3.2768 14.4461 2.73438 15.7556 2.73438 17.1211V29.9883C2.73438 37.5078 8.94727 43.7207 16.4668 43.7207C23.9863 43.7207 30.1973 37.5078 30.1973 29.9883V17.1211C30.1973 16.445 30.0641 15.7755 29.8054 15.1509C29.5466 14.5262 29.1674 13.9587 28.6893 13.4806C28.2112 13.0025 27.6437 12.6233 27.0191 12.3646C26.3944 12.1058 25.7249 11.9727 25.0488 11.9727C23.6834 11.9727 22.3739 12.5151 21.4083 13.4806C20.4428 14.4461 19.9004 15.7556 19.9004 17.1211V29.9883C19.9004 31.9805 18.459 33.4238 16.4668 33.4238C14.4746 33.4238 13.0312 31.9805 13.0312 29.9883V17.1211C13.0312 15.7556 12.4888 14.4461 11.5233 13.4806C10.5578 12.5151 9.24826 11.9727 7.88281 11.9727ZM42.9785 12.3867C44.2932 12.3867 45.554 12.909 46.4837 13.8386C47.4133 14.7682 47.9355 16.0291 47.9355 17.3438V38.3496C47.9355 39.0006 47.8073 39.6452 47.5582 40.2466C47.3091 40.848 46.944 41.3945 46.4837 41.8548C46.0234 42.3151 45.4769 42.6802 44.8755 42.9293C44.2741 43.1784 43.6295 43.3066 42.9785 43.3066C42.3276 43.3066 41.6831 43.1784 41.0818 42.9293C40.4805 42.6801 39.9342 42.315 39.4741 41.8546C39.0139 41.3943 38.649 40.8478 38.4001 40.2464C38.1512 39.645 38.0232 39.0005 38.0234 38.3496V17.3438C38.0232 16.6929 38.1512 16.0483 38.4001 15.4469C38.649 14.8455 39.0139 14.299 39.4741 13.8387C39.9342 13.3784 40.4805 13.0132 41.0818 12.7641C41.6831 12.515 42.3276 12.3867 42.9785 12.3867Z" fill="#00CCFF"/>
<path d="M59.4043 43.3047C61.9327 43.3047 63.9824 41.255 63.9824 38.7266C63.9824 36.1981 61.9327 34.1484 59.4043 34.1484C56.8759 34.1484 54.8262 36.1981 54.8262 38.7266C54.8262 41.255 56.8759 43.3047 59.4043 43.3047Z" fill="#00CCFF"/>
<path d="M24.3359 88.0273C26.8644 88.0273 28.9141 85.9776 28.9141 83.4492C28.9141 80.9208 26.8644 78.8711 24.3359 78.8711C21.8075 78.8711 19.7578 80.9208 19.7578 83.4492C19.7578 85.9776 21.8075 88.0273 24.3359 88.0273Z" fill="#00CCFF"/>
<path d="M56.5235 54.8144C54.7702 54.8165 53.0892 55.5139 51.8495 56.7537C50.6097 57.9935 49.9123 59.6744 49.9102 61.4277V74.2969C49.9102 75.4688 49.1172 76.2656 47.9395 76.2656C46.7618 76.2656 45.9707 75.4746 45.9707 74.2969V61.4277C45.9707 59.6738 45.274 57.9917 44.0338 56.7514C42.7935 55.5112 41.1114 54.8144 39.3575 54.8144C37.6035 54.8144 35.9214 55.5112 34.6812 56.7514C33.4409 57.9917 32.7442 59.6738 32.7442 61.4277V74.2969C32.7895 78.2973 34.4105 82.1186 37.2555 84.9314C40.1004 87.7443 43.9398 89.3219 47.9405 89.3219C51.9412 89.3219 55.7805 87.7443 58.6255 84.9314C61.4704 82.1186 63.0914 78.2973 63.1368 74.2969V61.4277C63.1347 59.6744 62.4373 57.9935 61.1975 56.7537C59.9577 55.5139 58.2768 54.8165 56.5235 54.8144ZM60.2071 74.2969C60.1664 77.5234 58.8561 80.6039 56.5601 82.8711C54.264 85.1383 51.1672 86.4097 47.9405 86.4097C44.7137 86.4097 41.6169 85.1383 39.3209 82.8711C37.0249 80.6039 35.7146 77.5234 35.6739 74.2969V61.4277C35.6739 60.4508 36.062 59.5138 36.7528 58.823C37.4436 58.1322 38.3805 57.7441 39.3575 57.7441C40.3344 57.7441 41.2714 58.1322 41.9622 58.823C42.653 59.5138 43.0411 60.4508 43.0411 61.4277V74.2969C43.0411 77.0898 45.1465 79.1953 47.9395 79.1953C50.7325 79.1953 52.8399 77.0898 52.8399 74.2969V61.4277C52.8399 60.4508 53.228 59.5138 53.9188 58.823C54.6096 58.1322 55.5465 57.7441 56.5235 57.7441C57.5004 57.7441 58.4374 58.1322 59.1282 58.823C59.819 59.5138 60.2071 60.4508 60.2071 61.4277V74.2969ZM98.7247 62.4668C98.6488 60.7685 97.922 59.1646 96.6949 57.9881C95.4678 56.8116 93.8348 56.1528 92.1348 56.1484H92.1153C91.1969 56.1486 90.2886 56.3396 89.4481 56.7095C88.6075 57.0793 87.853 57.6199 87.2325 58.2969L83.6446 62.2207L80.0586 58.2969C78.8747 57.0019 77.2249 56.2302 75.4721 56.1516C73.7192 56.0731 72.007 56.694 70.712 57.8779C69.417 59.0618 68.6453 60.7117 68.5667 62.4645C68.4882 64.2173 69.1091 65.9296 70.293 67.2246L74.6797 72.0195L70.293 76.8125C69.1091 78.1075 68.4882 79.8198 68.5667 81.5726C68.6453 83.3254 69.417 84.9753 70.712 86.1592C72.007 87.3431 73.7192 87.964 75.4721 87.8855C77.2249 87.8069 78.8747 87.0352 80.0586 85.7402L83.6446 81.8184L87.2364 85.7422C88.4203 87.0372 90.0701 87.8088 91.8229 87.8874C93.5758 87.966 95.288 87.345 96.5831 86.1611C97.8781 84.9772 98.6497 83.3274 98.7283 81.5746C98.8068 79.8217 98.1859 78.1095 97.002 76.8145L92.6172 72.0215L97.002 67.2266C97.5898 66.5866 98.0447 65.8364 98.3404 65.0193C98.6361 64.2023 98.7667 63.3347 98.7247 62.4668ZM94.836 65.248L89.545 71.0293C89.2981 71.2996 89.1611 71.6525 89.1611 72.0186C89.1611 72.3846 89.2981 72.7375 89.545 73.0078L94.836 78.791C95.4954 79.5121 95.8414 80.4655 95.7978 81.4417C95.7542 82.4178 95.3246 83.3367 94.6036 83.9961C93.8825 84.6555 92.929 85.0015 91.9529 84.9579C90.9767 84.9143 90.0579 84.4847 89.3985 83.7637L84.7305 78.6582C84.5933 78.5081 84.4263 78.3882 84.2401 78.3062C84.054 78.2242 83.8529 78.1818 83.6495 78.1818C83.4461 78.1818 83.2449 78.2242 83.0588 78.3062C82.8727 78.3882 82.7057 78.5081 82.5684 78.6582L77.9004 83.7637C77.5739 84.1208 77.1803 84.4102 76.7419 84.6152C76.3036 84.8202 75.8292 84.9369 75.3457 84.9586C74.8623 84.9803 74.3794 84.9065 73.9244 84.7415C73.4695 84.5765 73.0515 84.3236 72.6944 83.9971C72.3372 83.6706 72.0479 83.2769 71.8428 82.8386C71.6378 82.4002 71.5211 81.9258 71.4995 81.4424C71.4778 80.959 71.5516 80.476 71.7165 80.0211C71.8815 79.5661 72.1345 79.1482 72.461 78.791L77.75 73.0078C77.9978 72.7379 78.1352 72.3849 78.1352 72.0186C78.1352 71.6522 77.9978 71.2992 77.75 71.0293L72.461 65.2461C71.9783 64.719 71.6595 64.0629 71.5435 63.3577C71.4274 62.6525 71.5191 61.9288 71.8074 61.2748C72.0956 60.6208 72.568 60.0649 73.1668 59.6749C73.7656 59.2848 74.4651 59.0774 75.1797 59.0781H75.1954C75.7038 59.0809 76.2061 59.1887 76.671 59.3947C77.1358 59.6007 77.553 59.9006 77.8965 60.2754L82.5645 65.3789C82.7017 65.529 82.8687 65.6489 83.0549 65.7309C83.241 65.8129 83.4422 65.8553 83.6456 65.8553C83.8489 65.8553 84.0501 65.8129 84.2362 65.7309C84.4223 65.6489 84.5894 65.529 84.7266 65.3789L89.3946 60.2754C89.74 59.8983 90.1601 59.5971 90.6281 59.391C91.0962 59.1849 91.6019 59.0784 92.1133 59.0781H92.1231C92.8369 59.0798 93.5349 59.289 94.1321 59.68C94.7293 60.0711 95.2 60.6272 95.487 61.2808C95.774 61.9344 95.8648 62.6574 95.7486 63.3617C95.6323 64.066 95.3139 64.7213 94.8321 65.248H94.836ZM25.0489 10.5078C23.2956 10.5099 21.6146 11.2073 20.3749 12.4471C19.1351 13.6869 18.4377 15.3678 18.4356 17.1211V29.9883C18.4356 31.1602 17.6543 31.959 16.4668 31.959C15.2793 31.959 14.4961 31.1777 14.4961 29.9883V17.1211C14.4961 15.3671 13.7994 13.685 12.5592 12.4448C11.3189 11.2046 9.63681 10.5078 7.88286 10.5078C6.1289 10.5078 4.44679 11.2046 3.20656 12.4448C1.96633 13.685 1.26957 15.3671 1.26957 17.1211V29.9883C1.2624 32.9943 2.14893 35.9347 3.81655 38.4357C5.48416 40.9368 7.8576 42.8857 10.6353 44.0349C13.413 45.1841 16.4697 45.4817 19.4169 44.8898C22.3641 44.298 25.0688 42.8434 27.1875 40.7109C28.6055 39.3084 29.7311 37.6385 30.4991 35.7979C31.2672 33.9573 31.6625 31.9827 31.6622 29.9883V17.1211C31.6601 15.3678 30.9627 13.6869 29.7229 12.4471C28.4831 11.2073 26.8022 10.5099 25.0489 10.5078ZM28.7325 29.9883C28.753 31.6122 28.4508 33.224 27.8435 34.7302C27.2363 36.2364 26.336 37.6071 25.1949 38.7627C24.0538 39.9182 22.6946 40.8357 21.1962 41.462C19.6978 42.0882 18.0899 42.4106 16.4659 42.4106C14.8418 42.4106 13.234 42.0882 11.7355 41.462C10.2371 40.8357 8.87791 39.9182 7.73682 38.7627C6.59573 37.6071 5.69544 36.2364 5.08818 34.7302C4.48092 33.224 4.17877 31.6122 4.19926 29.9883V17.1211C4.19926 16.6374 4.29454 16.1584 4.47966 15.7114C4.66478 15.2645 4.93611 14.8585 5.27816 14.5164C5.62021 14.1743 6.02629 13.903 6.47321 13.7179C6.92012 13.5328 7.39912 13.4375 7.88286 13.4375C8.36659 13.4375 8.84559 13.5328 9.29251 13.7179C9.73942 13.903 10.1455 14.1743 10.4875 14.5164C10.8296 14.8585 11.1009 15.2645 11.2861 15.7114C11.4712 16.1584 11.5665 16.6374 11.5665 17.1211V29.9883C11.5665 32.7812 13.6739 34.8887 16.4668 34.8887C19.2598 34.8887 21.3653 32.7812 21.3653 29.9883V17.1211C21.3653 16.1441 21.7534 15.2072 22.4442 14.5164C23.135 13.8256 24.0719 13.4375 25.0489 13.4375C26.0258 13.4375 26.9628 13.8256 27.6536 14.5164C28.3444 15.2072 28.7325 16.1441 28.7325 17.1211V29.9883ZM42.9786 44.7715C44.6811 44.7694 46.3133 44.0922 47.5172 42.8883C48.7211 41.6844 49.3984 40.0522 49.4004 38.3496V17.3438C49.4153 16.4911 49.2602 15.6441 48.9442 14.852C48.6282 14.06 48.1576 13.3388 47.5599 12.7306C46.9622 12.1224 46.2493 11.6393 45.4629 11.3095C44.6765 10.9797 43.8323 10.8099 42.9795 10.8099C42.1268 10.8099 41.2826 10.9797 40.4961 11.3095C39.7097 11.6393 38.9969 12.1224 38.3992 12.7306C37.8015 13.3388 37.3309 14.06 37.0149 14.852C36.6989 15.6441 36.5438 16.4911 36.5586 17.3438V38.3496C36.5602 40.052 37.237 41.6842 38.4406 42.8882C39.6442 44.0921 41.2762 44.7694 42.9786 44.7715ZM39.4883 17.3438C39.4773 16.8783 39.5595 16.4154 39.73 15.9822C39.9005 15.549 40.1559 15.1543 40.4812 14.8212C40.8064 14.4881 41.195 14.2235 41.6241 14.0428C42.0531 13.8621 42.514 13.769 42.9795 13.769C43.4451 13.769 43.9059 13.8621 44.335 14.0428C44.764 14.2235 45.1526 14.4881 45.4779 14.8212C45.8032 15.1543 46.0586 15.549 46.2291 15.9822C46.3996 16.4154 46.4818 16.8783 46.4707 17.3438V38.3496C46.4818 38.815 46.3996 39.278 46.2291 39.7112C46.0586 40.1444 45.8032 40.5391 45.4779 40.8722C45.1526 41.2052 44.764 41.4699 44.335 41.6506C43.9059 41.8313 43.4451 41.9244 42.9795 41.9244C42.514 41.9244 42.0531 41.8313 41.6241 41.6506C41.195 41.4699 40.8064 41.2052 40.4812 40.8722C40.1559 40.5391 39.9005 40.1444 39.73 39.7112C39.5595 39.278 39.4773 38.815 39.4883 38.3496V17.3438ZM59.4043 32.6836C58.2086 32.6832 57.0396 33.0375 56.0452 33.7015C55.0508 34.3656 54.2757 35.3097 53.818 36.4143C53.3602 37.519 53.2403 38.7346 53.4735 39.9073C53.7067 41.0801 54.2825 42.1574 55.128 43.0029C55.9735 43.8484 57.0508 44.4242 58.2236 44.6574C59.3963 44.8906 60.6119 44.7707 61.7166 44.3129C62.8212 43.8551 63.7653 43.0801 64.4294 42.0857C65.0934 41.0913 65.4477 39.9223 65.4473 38.7266C65.4442 37.1248 64.8065 35.5896 63.6739 34.457C62.5413 33.3244 61.0061 32.6867 59.4043 32.6836ZM59.4043 41.8418C58.7881 41.8422 58.1856 41.6598 57.6731 41.3177C57.1605 40.9757 56.7609 40.4893 56.5248 39.9201C56.2888 39.3509 56.2268 38.7244 56.3468 38.12C56.4668 37.5156 56.7633 36.9603 57.1989 36.5244C57.6345 36.0886 58.1896 35.7917 58.7939 35.6713C59.3983 35.551 60.0247 35.6125 60.5941 35.8483C61.1634 36.084 61.6501 36.4833 61.9925 36.9956C62.3349 37.508 62.5176 38.1103 62.5176 38.7266C62.515 39.5516 62.1863 40.3422 61.603 40.9258C61.0198 41.5094 60.2294 41.8387 59.4043 41.8418ZM24.336 77.4062C23.1408 77.4062 21.9724 77.7607 20.9787 78.4247C19.9849 79.0887 19.2104 80.0325 18.753 81.1367C18.2956 82.2409 18.176 83.4559 18.4091 84.6281C18.6423 85.8004 19.2178 86.8771 20.063 87.7222C20.9081 88.5674 21.9848 89.1429 23.1571 89.3761C24.3293 89.6092 25.5443 89.4896 26.6485 89.0322C27.7527 88.5748 28.6965 87.8003 29.3605 86.8065C30.0245 85.8127 30.379 84.6444 30.379 83.4492C30.3759 81.8475 29.7382 80.3122 28.6056 79.1796C27.473 78.047 25.9377 77.4093 24.336 77.4062ZM24.336 86.5625C23.7202 86.5625 23.1183 86.3799 22.6063 86.0378C22.0944 85.6957 21.6953 85.2095 21.4597 84.6406C21.224 84.0717 21.1624 83.4458 21.2825 82.8418C21.4026 82.2379 21.6992 81.6832 22.1346 81.2478C22.57 80.8124 23.1247 80.5159 23.7286 80.3958C24.3325 80.2756 24.9585 80.3373 25.5274 80.5729C26.0963 80.8086 26.5825 81.2076 26.9246 81.7196C27.2667 82.2315 27.4493 82.8335 27.4493 83.4492C27.4462 84.274 27.1172 85.064 26.534 85.6472C25.9508 86.2304 25.1607 86.5594 24.336 86.5625Z" fill="black"/>
</svg>
