<svg width="187" height="110" xmlns="http://www.w3.org/2000/svg" xmlns:xlink="http://www.w3.org/1999/xlink"><defs><filter x="-10.5%" y="-13.9%" width="121%" height="138.9%" filterUnits="objectBoundingBox" id="a"><feOffset dy="5" in="SourceAlpha" result="shadowOffsetOuter1"/><feGaussianBlur stdDeviation="5" in="shadowOffsetOuter1" result="shadowBlurOuter1"/><feComposite in="shadowBlurOuter1" in2="SourceAlpha" operator="out" result="shadowBlurOuter1"/><feColorMatrix values="0 0 0 0 0.468466938 0 0 0 0 0.468466938 0 0 0 0 0.468466938 0 0 0 0.0865384615 0" in="shadowBlurOuter1"/></filter><path d="M4 0h159a4 4 0 014 4v82a4 4 0 01-4 4H4a4 4 0 01-4-4V4a4 4 0 014-4z" id="b"/></defs><g fill="none" fill-rule="evenodd"><g transform="translate(10 5)"><use fill="#000" filter="url(#a)" xlink:href="#b"/><path stroke="#EDEDED" d="M4 .5A3.5 3.5 0 00.5 4v82A3.5 3.5 0 004 89.5h159a3.5 3.5 0 003.5-3.5V4A3.5 3.5 0 00163 .5H4z" stroke-linejoin="square" fill="#FFF"/></g><g fill-rule="nonzero"><path d="M144.262 42.4c.65 0 1.176.527 1.176 1.176v15.52c0 .955-.063 1.725-.189 2.31a3.334 3.334 0 01-.714 1.493c-.35.41-.824.696-1.421.858-.598.162-1.377.243-2.339.243h-.728c-.555-.034-.879-.355-.97-.964-.092-.608.129-.967.662-1.076h.728c.364 0 .68-.02.946-.06.266-.041.494-.093.686-.156.191-.063.347-.167.469-.31a2.44 2.44 0 00.287-.413c.07-.13.121-.326.154-.587a9.734 9.734 0 00.077-1.424V43.576c0-.65.526-1.176 1.176-1.176zM103.884 36c.743 0 1.01.417.8 1.251L97.925 56.47a1.693 1.693 0 01-3.193 0L88 37.25c-.01-.834.305-1.251.944-1.251s1.146.417 1.521 1.251l4.384 12.906a94.743 94.743 0 011.48 4.746c.133-.688.63-2.284 1.492-4.788 1.386-4.1 2.851-8.388 4.397-12.864.368-.834.923-1.251 1.666-1.251zm13.3 6.4c.624 0 1.13.506 1.13 1.13v8.773c0 .759-.107 1.44-.322 2.046-.216.605-.505 1.108-.869 1.51-.363.402-.8.734-1.312.996a6.356 6.356 0 01-1.622.569 9.1 9.1 0 01-1.837.176 9.128 9.128 0 01-1.831-.176 6.295 6.295 0 01-1.635-.576 4.8 4.8 0 01-1.333-1.002c-.372-.402-.666-.906-.882-1.51-.215-.606-.323-1.283-.323-2.033v-8.772a1.13 1.13 0 012.262 0v8.8c0 .65.092 1.2.276 1.652.184.451.448.801.794 1.05.345.248.736.427 1.17.535a6.24 6.24 0 001.502.162c1.166 0 2.075-.257 2.725-.772.651-.515.976-1.39.976-2.628v-8.8c0-.624.506-1.13 1.13-1.13zm10.182 0c1.874 0 3.36.618 4.459 1.855 1.098 1.237 1.647 2.888 1.647 4.954 0 .101 0 1.1-1.147 1.19l-.171.007h-9.075c.027 1.657.47 2.95 1.33 3.876.86.927 2.015 1.39 3.467 1.39 1.209 0 2.42-.233 3.634-.7.147-.056 1.173-.606 1.656 0 .321.405.28.828-.121 1.272-1.535.904-3.286 1.356-5.252 1.356-2.196 0-3.926-.674-5.19-2.021-1.263-1.348-1.895-3.192-1.895-5.532 0-2.261.611-4.094 1.833-5.5 1.222-1.405 2.83-2.12 4.825-2.147zm26.476 0c1.692 0 3.234.32 4.626.957.461.327.602.704.422 1.131-.18.427-.544.618-1.09.572-1.41-.568-2.73-.851-3.958-.851-.955 0-1.703.184-2.245.551-.54.368-.812.885-.812 1.55 0 .567.196 1.002.587 1.303.391.301 1.174.647 2.347 1.037.3.107.678.23 1.133.373 1.51.478 2.579 1.043 3.206 1.695.628.652.942 1.532.942 2.64-.018 1.347-.514 2.391-1.487 3.132-.974.74-2.288 1.11-3.944 1.11-1.019 0-1.958-.106-2.818-.32-.86-.212-1.557-.487-2.094-.824-.632-.325-.901-.771-.807-1.338.093-.567.458-.746 1.093-.537 1.52.79 3.011 1.184 4.476 1.184 2.22 0 3.361-.763 3.425-2.287 0-.648-.236-1.157-.71-1.53-.473-.372-1.4-.789-2.783-1.25l-1.133-.385c-1.31-.426-2.244-.954-2.804-1.583-.56-.63-.844-1.414-.853-2.354 0-1.143.471-2.092 1.413-2.846.941-.753 2.23-1.13 3.868-1.13zM137.86 53.6c.63 0 1.12.158 1.47.473.349.315.524.69.524 1.127 0 .436-.175.812-.525 1.127-.35.315-.84.473-1.47.473-.62 0-1.107-.16-1.461-.479-.355-.319-.533-.693-.533-1.121 0-.436.175-.812.525-1.127.35-.315.84-.473 1.47-.473zm-10.522-9.365c-1.176 0-2.137.401-2.88 1.204-.688.74-1.113 1.732-1.275 2.975l-.035.316h7.98c0-1.445-.34-2.553-1.02-3.325-.67-.78-1.594-1.17-2.77-1.17zM144.64 37.6c.504 0 .896.158 1.176.473.28.315.42.69.42 1.127 0 .436-.14.812-.42 1.127-.28.315-.672.473-1.176.473-.495 0-.885-.16-1.17-.479a1.634 1.634 0 01-.425-1.121c0-.436.14-.812.42-1.127.28-.315.672-.473 1.175-.473z" fill="#2C3D52"/><path fill="#4DBA87" d="M59.774 28L54 38l-5.774-10H29l25 43.302L79 28z"/><path fill="#435466" d="M59.774 28L54 38l-5.774-10H39l15 25.98L69 28z"/></g></g></svg>