<svg width="100" height="100" viewBox="0 0 100 100" fill="none" xmlns="http://www.w3.org/2000/svg">
<path fill-rule="evenodd" clip-rule="evenodd" d="M76.5625 12.5H73.4375C72.575 12.5 71.875 13.2 71.875 14.0625C71.875 14.925 72.575 15.625 73.4375 15.625H76.5625C77.425 15.625 78.125 14.925 78.125 14.0625C78.125 13.2 77.425 12.5 76.5625 12.5ZM67.1875 12.5H64.0625C63.2 12.5 62.5 13.2 62.5 14.0625C62.5 14.925 63.2 15.625 64.0625 15.625H67.1875C68.05 15.625 68.75 14.925 68.75 14.0625C68.75 13.2 68.05 12.5 67.1875 12.5ZM57.8125 12.5H54.6875C53.825 12.5 53.125 13.2 53.125 14.0625C53.125 14.925 53.825 15.625 54.6875 15.625H57.8125C58.675 15.625 59.375 14.925 59.375 14.0625C59.375 13.2 58.675 12.5 57.8125 12.5ZM82.8125 18.75H17.1875C16.325 18.75 15.625 19.45 15.625 20.3125C15.625 21.175 16.325 21.875 17.1875 21.875H82.8125C83.675 21.875 84.375 21.175 84.375 20.3125C84.375 19.45 83.675 18.75 82.8125 18.75ZM17.1875 21.875H10.9375C8.35 21.875 6.25 23.975 6.25 26.5625V76.5625C6.25 79.15 8.35 81.25 10.9375 81.25H89.0625C91.65 81.25 93.75 79.15 93.75 76.5625V26.5625C93.75 23.975 91.65 21.875 89.0625 21.875H82.8125C81.95 21.875 81.25 22.575 81.25 23.4375C81.25 24.3 81.95 25 82.8125 25H89.0625C89.925 25 90.625 25.7 90.625 26.5625V76.5625C90.625 77.425 89.925 78.125 89.0625 78.125H10.9375C10.075 78.125 9.375 77.425 9.375 76.5625V26.5625C9.375 25.7 10.075 25 10.9375 25H17.1875C18.05 25 18.75 24.3 18.75 23.4375C18.75 22.575 18.05 21.875 17.1875 21.875Z" fill="black"/>
<path fill-rule="evenodd" clip-rule="evenodd" d="M42.2875 79.139L37.6 91.639C37.2969 92.4469 37.7062 93.3484 38.514 93.65C39.3219 93.9531 40.2234 93.5437 40.525 92.7359L45.2125 80.2359C45.5156 79.4281 45.1062 78.5265 44.2984 78.225C43.4906 77.9219 42.589 78.3312 42.2875 79.139ZM54.7875 80.2359L59.475 92.7359C59.7765 93.5437 60.6781 93.9531 61.4859 93.65C62.2937 93.3484 62.7031 92.4469 62.4 91.639L57.7125 79.139C57.4109 78.3312 56.5094 77.9219 55.7015 78.225C54.8937 78.5265 54.4844 79.4281 54.7875 80.2359Z" fill="black"/>
<path fill-rule="evenodd" clip-rule="evenodd" d="M35.9375 93.75H64.0625C64.925 93.75 65.625 93.05 65.625 92.1875C65.625 91.325 64.925 90.625 64.0625 90.625H35.9375C35.075 90.625 34.375 91.325 34.375 92.1875C34.375 93.05 35.075 93.75 35.9375 93.75ZM84.375 70.3125V10.9375C84.375 8.35 82.275 6.25 79.6875 6.25H20.3125C17.725 6.25 15.625 8.35 15.625 10.9375V70.3125C15.625 71.175 16.325 71.875 17.1875 71.875C18.05 71.875 18.75 71.175 18.75 70.3125V10.9375C18.75 10.075 19.45 9.375 20.3125 9.375H79.6875C80.55 9.375 81.25 10.075 81.25 10.9375V70.3125C81.25 71.175 81.95 71.875 82.8125 71.875C83.675 71.875 84.375 71.175 84.375 70.3125Z" fill="black"/>
<path fill-rule="evenodd" clip-rule="evenodd" d="M7.8125 71.875H92.1875C93.05 71.875 93.75 71.175 93.75 70.3125C93.75 69.45 93.05 68.75 92.1875 68.75H7.8125C6.95 68.75 6.25 69.45 6.25 70.3125C6.25 71.175 6.95 71.875 7.8125 71.875ZM45.3125 30.4047V26.5625C45.3125 25.7 46.0125 25 46.875 25H53.125C53.9875 25 54.6875 25.7 54.6875 26.5625V30.4047C55.5703 30.6828 56.4188 31.0359 57.225 31.4578L59.9437 28.7391C60.5531 28.1297 61.5438 28.1297 62.1531 28.7391L66.5734 33.1594C67.1828 33.7688 67.1828 34.7594 66.5734 35.3687L63.8547 38.0875C64.2766 38.8937 64.6313 39.7422 64.9078 40.625H68.75C69.6125 40.625 70.3125 41.325 70.3125 42.1875V48.4375C70.3125 49.3 69.6125 50 68.75 50H64.9078C64.6297 50.8828 64.2766 51.7313 63.8547 52.5375L66.5734 55.2562C67.1828 55.8656 67.1828 56.8563 66.5734 57.4656L62.1531 61.8859C61.5438 62.4953 60.5531 62.4953 59.9437 61.8859L57.225 59.1672C56.4188 59.5891 55.5703 59.9438 54.6875 60.2203V64.0625C54.6875 64.925 53.9875 65.625 53.125 65.625H46.875C46.0125 65.625 45.3125 64.925 45.3125 64.0625V60.2203C44.4297 59.9422 43.5812 59.5891 42.775 59.1672L40.0562 61.8859C39.4469 62.4953 38.4562 62.4953 37.8469 61.8859L33.4266 57.4656C32.8172 56.8563 32.8172 55.8656 33.4266 55.2562L36.1453 52.5375C35.7234 51.7313 35.3687 50.8828 35.0922 50H31.25C30.3875 50 29.6875 49.3 29.6875 48.4375V42.1875C29.6875 41.325 30.3875 40.625 31.25 40.625H35.0922C35.3703 39.7422 35.7234 38.8937 36.1453 38.0875L33.4266 35.3687C32.8172 34.7594 32.8172 33.7688 33.4266 33.1594L37.8469 28.7391C38.4562 28.1297 39.4469 28.1297 40.0562 28.7391L42.775 31.4578C43.5812 31.0359 44.4297 30.6812 45.3125 30.4047ZM51.5625 28.125H48.4375V31.5984C48.4375 32.3281 47.9328 32.9609 47.2219 33.1234C45.8281 33.4391 44.5219 33.9891 43.3484 34.7297C42.7313 35.1187 41.9266 35.0297 41.4094 34.5125L38.9516 32.0547L36.7422 34.2641L39.2 36.7219C39.7172 37.2391 39.8062 38.0437 39.4172 38.6609C38.6766 39.8344 38.1266 41.1406 37.8109 42.5344C37.6484 43.2453 37.0156 43.75 36.2859 43.75H32.8125V46.875H36.2859C37.0156 46.875 37.6484 47.3797 37.8109 48.0906C38.1266 49.4844 38.6766 50.7906 39.4172 51.9641C39.8062 52.5812 39.7172 53.3859 39.2 53.9031L36.7422 56.3609L38.9516 58.5703L41.4094 56.1125C41.9266 55.5953 42.7313 55.5062 43.3484 55.8953C44.5219 56.6359 45.8281 57.1859 47.2219 57.5016C47.9328 57.6641 48.4375 58.2969 48.4375 59.0266V62.5H51.5625V59.0266C51.5625 58.2969 52.0672 57.6641 52.7781 57.5016C54.1719 57.1859 55.4781 56.6359 56.6516 55.8953C57.2687 55.5062 58.0734 55.5953 58.5906 56.1125L61.0484 58.5703L63.2578 56.3609L60.8 53.9031C60.2828 53.3859 60.1937 52.5812 60.5828 51.9641C61.3234 50.7906 61.8734 49.4844 62.1891 48.0906C62.3516 47.3797 62.9844 46.875 63.7141 46.875H67.1875V43.75H63.7141C62.9844 43.75 62.3516 43.2453 62.1891 42.5344C61.8734 41.1406 61.3234 39.8344 60.5828 38.6609C60.1937 38.0437 60.2828 37.2391 60.8 36.7219L63.2578 34.2641L61.0484 32.0547L58.5906 34.5125C58.0734 35.0297 57.2687 35.1187 56.6516 34.7297C55.4781 33.9891 54.1719 33.4391 52.7781 33.1234C52.0672 32.9609 51.5625 32.3281 51.5625 31.5984V28.125Z" fill="black"/>
<path fill-rule="evenodd" clip-rule="evenodd" d="M50 35.9375C44.8266 35.9375 40.625 40.1391 40.625 45.3125C40.625 50.4859 44.8266 54.6875 50 54.6875C55.1734 54.6875 59.375 50.4859 59.375 45.3125C59.375 40.1391 55.1734 35.9375 50 35.9375ZM50 39.0625C53.45 39.0625 56.25 41.8625 56.25 45.3125C56.25 48.7625 53.45 51.5625 50 51.5625C46.55 51.5625 43.75 48.7625 43.75 45.3125C43.75 41.8625 46.55 39.0625 50 39.0625Z" fill="black"/>
</svg>
