<svg width="83" height="83" viewBox="0 0 83 83" fill="none" xmlns="http://www.w3.org/2000/svg">
<path d="M25.6504 52.9385L33.1549 71.9761H29.9901V80.8921H34.8533V71.9761H38.0355L30.5137 52.9194L43.9315 37.0477L41.4998 34.1748L25.6504 52.9385Z" fill="#D4E1F4"/>
<path d="M58.093 52.3141L42.2427 33.5539C42.1514 33.4458 42.0376 33.359 41.9093 33.2994C41.781 33.2398 41.6412 33.209 41.4998 33.209C41.3583 33.209 41.2185 33.2398 41.0902 33.2994C40.9619 33.359 40.8481 33.4458 40.7568 33.5539L24.9066 52.3141C24.7932 52.4483 24.7182 52.6107 24.6897 52.784C24.6611 52.9574 24.6801 53.1352 24.7445 53.2986L31.7426 71.048H29.9852C29.7272 71.048 29.4798 71.1505 29.2974 71.3329C29.115 71.5153 29.0125 71.7627 29.0125 72.0206V80.9367C29.0125 81.1946 29.115 81.442 29.2974 81.6244C29.4798 81.8068 29.7272 81.9093 29.9852 81.9093H53.0144C53.2724 81.9093 53.5198 81.8068 53.7022 81.6244C53.8846 81.442 53.9871 81.1946 53.9871 80.9367V72.0206C53.9871 71.7627 53.8846 71.5153 53.7022 71.3329C53.5198 71.1505 53.2724 71.048 53.0144 71.048H51.7571L58.2635 53.2764C58.3225 53.1152 58.3378 52.9413 58.3079 52.7723C58.2779 52.6033 58.2038 52.4452 58.093 52.3141ZM41.4998 54.2402C41.9168 54.2402 42.3245 54.3638 42.6713 54.5955C43.018 54.8272 43.2883 55.1565 43.4479 55.5418C43.6076 55.9271 43.6493 56.3511 43.568 56.7601C43.4867 57.1691 43.2859 57.5449 42.991 57.8398C42.6962 58.1347 42.3205 58.3356 41.9115 58.417C41.5025 58.4984 41.0785 58.4568 40.6931 58.2972C40.3078 58.1377 39.9784 57.8675 39.7467 57.5208C39.5149 57.1741 39.3912 56.7664 39.3911 56.3494C39.3916 55.7902 39.6139 55.2541 40.0092 54.8587C40.4046 54.4632 40.9406 54.2408 41.4998 54.2402ZM52.0418 79.964H30.9578V72.9933H52.0418V79.964ZM49.6857 71.048H33.8338L26.7674 53.1258L40.5271 36.84V52.4137C39.5657 52.6513 38.7245 53.2326 38.1623 54.0479C37.6001 54.8632 37.3558 55.8561 37.4755 56.8392C37.5951 57.8223 38.0705 58.7276 38.8119 59.3842C39.5533 60.0408 40.5094 60.4033 41.4998 60.4033C42.4901 60.4033 43.4462 60.0408 44.1876 59.3842C44.929 58.7276 45.4044 57.8223 45.5241 56.8392C45.6438 55.8561 45.3995 54.8632 44.8373 54.0479C44.2751 53.2326 43.4339 52.6513 42.4724 52.4137V36.84L56.2425 53.1381L49.6857 71.048Z" fill="black"/>
<path d="M32.553 54.3683L30.7432 55.082L31.4817 56.9549L33.2915 56.2412L32.553 54.3683Z" fill="black"/>
<path d="M33.8981 57.7816L32.0884 58.4951L36.3435 69.288L38.1532 68.5745L33.8981 57.7816Z" fill="black"/>
<path d="M70.4202 2.28022C69.1969 2.28185 68.0121 2.70757 67.0676 3.48484C66.123 4.26211 65.4772 5.34284 65.2401 6.54288H47.863V2.06348C47.863 1.80551 47.7605 1.55811 47.5781 1.3757C47.3957 1.1933 47.1483 1.09082 46.8903 1.09082H35.9862C35.7282 1.09082 35.4808 1.1933 35.2984 1.3757C35.116 1.55811 35.0136 1.80551 35.0136 2.06348V6.54288H17.7604C17.5078 5.25121 16.782 4.10041 15.7252 3.31593C14.6683 2.53146 13.3567 2.16985 12.0472 2.30194C10.7377 2.43403 9.52471 3.05031 8.64586 4.03004C7.76701 5.00976 7.28564 6.28234 7.29606 7.59844C7.30648 8.91455 7.80794 10.1793 8.70219 11.145C9.59644 12.1107 10.819 12.7077 12.1305 12.8191C13.4419 12.9304 14.7476 12.5481 15.7919 11.747C16.8362 10.9459 17.5437 9.78371 17.7758 8.4882H33.2725C31.1428 9.93305 29.3983 11.8764 28.1907 14.1491C26.9832 16.4218 26.3492 18.9552 26.3439 21.5288V26.2894H22.1831C21.9251 26.2894 21.6777 26.3919 21.4953 26.5743C21.3129 26.7567 21.2104 27.0041 21.2104 27.2621V38.166C21.2104 38.424 21.3129 38.6714 21.4953 38.8538C21.6777 39.0362 21.9251 39.1387 22.1831 39.1387H33.0864C33.3444 39.1387 33.5918 39.0362 33.7742 38.8538C33.9566 38.6714 34.0591 38.424 34.0591 38.166V27.2621C34.0591 27.0041 33.9566 26.7567 33.7742 26.5743C33.5918 26.3919 33.3444 26.2894 33.0864 26.2894H28.288V21.5281C28.2926 19.1413 28.9142 16.7962 30.0923 14.7204C31.2705 12.6446 32.9653 10.9086 35.0123 9.681V12.967C35.0123 13.2249 35.1147 13.4723 35.2971 13.6547C35.4795 13.8371 35.7269 13.9396 35.9849 13.9396H46.889C47.147 13.9396 47.3944 13.8371 47.5768 13.6547C47.7592 13.4723 47.8617 13.2249 47.8617 12.967V9.68148C49.9089 10.9089 51.6039 12.6448 52.7821 14.7207C53.9603 16.7966 54.5817 19.1418 54.586 21.5288V26.2894H49.7876C49.5296 26.2894 49.2822 26.3919 49.0998 26.5743C48.9174 26.7567 48.8149 27.0041 48.8149 27.2621V38.166C48.8149 38.424 48.9174 38.6714 49.0998 38.8538C49.2822 39.0362 49.5296 39.1387 49.7876 39.1387H60.6936C60.9516 39.1387 61.199 39.0362 61.3814 38.8538C61.5638 38.6714 61.6663 38.424 61.6663 38.166V27.2621C61.6663 27.0041 61.5638 26.7567 61.3814 26.5743C61.199 26.3919 60.9516 26.2894 60.6936 26.2894H56.5326V21.5281C56.5278 18.9544 55.894 16.421 54.6865 14.1482C53.4789 11.8754 51.7342 9.93211 49.6042 8.48755H65.2239C65.4007 9.47606 65.8558 10.3936 66.5357 11.1326C67.2157 11.8715 68.0924 12.4012 69.0628 12.6594C70.0332 12.9175 71.0572 12.8935 72.0144 12.5901C72.9717 12.2868 73.8226 11.7166 74.4672 10.9466C75.1117 10.1766 75.5233 9.23868 75.6535 8.24297C75.7837 7.24726 75.6272 6.23506 75.2023 5.32518C74.7774 4.41531 74.1018 3.64552 73.2548 3.10617C72.4077 2.56682 71.4244 2.28029 70.4202 2.28022ZM12.5804 10.8926C11.9211 10.8926 11.2765 10.697 10.7284 10.3307C10.1802 9.96439 9.75292 9.44373 9.50063 8.83459C9.24834 8.22545 9.18234 7.55518 9.31099 6.90853C9.43964 6.26188 9.75715 5.6679 10.2234 5.2017C10.6896 4.73551 11.2836 4.41803 11.9302 4.28941C12.5769 4.16079 13.2472 4.22682 13.8563 4.47914C14.4654 4.73146 14.9861 5.15874 15.3523 5.70694C15.7186 6.25515 15.9142 6.89966 15.9142 7.55898C15.9132 8.44284 15.5616 9.29021 14.9366 9.91518C14.3116 10.5401 13.4642 10.8917 12.5804 10.8926ZM32.1137 37.1934H23.1557V28.2347H32.1137V37.1934ZM59.721 37.1934H50.7622V28.2347H59.721V37.1934ZM45.9177 11.9949H36.9589V3.03613H45.9177V11.9949ZM70.4194 10.8926C69.76 10.8926 69.1155 10.6971 68.5673 10.3309C68.019 9.96458 67.5917 9.44395 67.3394 8.83482C67.0871 8.22568 67.021 7.5554 67.1496 6.90873C67.2782 6.26206 67.5957 5.66805 68.0619 5.20182C68.5281 4.73559 69.1221 4.41808 69.7688 4.28943C70.4155 4.16079 71.0857 4.2268 71.6949 4.47911C72.304 4.73142 72.8247 5.1587 73.191 5.70691C73.5573 6.25512 73.7528 6.89965 73.7528 7.55898C73.7518 8.44263 73.4004 9.2898 72.7756 9.91473C72.1509 10.5397 71.3038 10.8913 70.4202 10.8926H70.4194Z" fill="#00CCFF"/>
</svg>
