<svg width="91" height="58" xmlns="http://www.w3.org/2000/svg"><g stroke="#1B1B1B" stroke-width="2.1" fill="none" fill-rule="evenodd"><path d="M36.78 9.782c.416-.289.822-.458 1.216-.506.659-.081 1.256.093 1.793.522.537.429.83 1.116.88 2.063l-.408 2.8a369.05 369.05 0 01-1.473 9.224 82.118 82.118 0 01-2.17 9.256c-.5.83-1.144 1.295-1.934 1.392-.724.089-1.46-.188-2.206-.829a109.48 109.48 0 01-3.203-5.682 750.813 750.813 0 01-3.019-5.814l-.313-.512c-.042-.068-.08-.1-.112-.096a138.729 138.729 0 01-.776 3.477 138.73 138.73 0 00-.775 3.476c-.214.98-.438 2.015-.671 3.106a121.08 121.08 0 01-.75 3.281c-.47.791-1.1 1.235-1.89 1.332-1.02.125-1.86-.322-2.52-1.34a84.407 84.407 0 01-2.454-5.087 167.526 167.526 0 01-2.087-4.966c-.813-1.99-1.49-3.703-2.034-5.139a48.312 48.312 0 01-1.352-4.067c-.25-.959-.147-1.741.314-2.348.46-.606 1.019-.95 1.677-1.03.493-.061.99.043 1.491.311.5.269.894.752 1.18 1.45.641 2.23 1.343 4.407 2.105 6.531a81.398 81.398 0 002.516 6.206c.174-.754.342-1.499.502-2.233.16-.734.328-1.479.502-2.233l2.03-8.771c.206-.502.484-.884.836-1.148a2.42 2.42 0 011.17-.473 2.418 2.418 0 011.568.33c.487.288.854.765 1.103 1.431a56.396 56.396 0 002.893 6.215 276.633 276.633 0 013.1 5.86c.35-1.766.682-3.685.996-5.758.313-2.073.625-4.155.936-6.245l.372-2.685c.244-.598.553-1.012.968-1.3zm15.35 3.096c1.135 0 2.14.266 3.018.8a7.33 7.33 0 012.228 2.11 9.785 9.785 0 011.377 2.978 12.572 12.572 0 01.384 4.8c-.054.43-.121.866-.202 1.31a14.158 14.158 0 01-1.316 3.423 12.075 12.075 0 01-2.046 2.777 9.05 9.05 0 01-2.612 1.844 7.09 7.09 0 01-3.017.667c-1.108 0-2.113-.267-3.018-.8a7.608 7.608 0 01-2.288-2.066 9.832 9.832 0 01-1.438-2.845 10.344 10.344 0 01-.506-3.177c0-1.482.25-2.926.75-4.333a13.708 13.708 0 012.024-3.778 10.525 10.525 0 012.997-2.688 7.062 7.062 0 013.666-1.022zm-5.224 9.554a9.808 9.808 0 00-.243 2.267c0 .83.108 1.607.324 2.333a4.32 4.32 0 001.073 1.844c.5.504 1.168.756 2.005.756.81 0 1.532-.26 2.167-.778a7.087 7.087 0 001.62-1.91c.445-.756.79-1.571 1.033-2.445.243-.874.364-1.667.364-2.378 0-.652-.067-1.296-.202-1.933a6.003 6.003 0 00-.628-1.71 3.968 3.968 0 00-1.033-1.223 2.202 2.202 0 00-1.377-.467c-.648 0-1.255.186-1.822.556a6.61 6.61 0 00-1.52 1.378 8.099 8.099 0 00-1.113 1.822 10.29 10.29 0 00-.648 1.888zm23.086-9.554c1.134 0 2.14.266 3.017.8a7.33 7.33 0 012.228 2.11 9.785 9.785 0 011.377 2.978 12.572 12.572 0 01.384 4.8c-.054.43-.121.866-.202 1.31A14.158 14.158 0 0175.48 28.3a12.075 12.075 0 01-2.046 2.777 9.05 9.05 0 01-2.612 1.844 7.09 7.09 0 01-3.017.667c-1.107 0-2.113-.267-3.018-.8a7.608 7.608 0 01-2.288-2.066 9.832 9.832 0 01-1.438-2.845 10.344 10.344 0 01-.506-3.177c0-1.482.25-2.926.75-4.333a13.708 13.708 0 012.024-3.778 10.525 10.525 0 012.997-2.688 7.062 7.062 0 013.666-1.022zm-5.225 9.554a9.808 9.808 0 00-.243 2.267c0 .83.108 1.607.324 2.333a4.32 4.32 0 001.073 1.844c.5.504 1.168.756 2.005.756.81 0 1.532-.26 2.167-.778a7.087 7.087 0 001.62-1.91c.445-.756.79-1.571 1.033-2.445.243-.874.364-1.667.364-2.378 0-.652-.067-1.296-.202-1.933a6.003 6.003 0 00-.628-1.71 3.968 3.968 0 00-1.033-1.223 2.202 2.202 0 00-1.377-.467c-.648 0-1.255.186-1.822.556a6.61 6.61 0 00-1.52 1.378 8.099 8.099 0 00-1.113 1.822 10.29 10.29 0 00-.648 1.888z" fill="#14DF7D"/><path d="M43.484 50.11l.425.241c4.263 2.412 7.904 4.4 9.659 5.31l-.019-.29a552.05 552.05 0 00-.303-4.27l-.017-.226-.164-2.218-.14-1.922c-.042-.6-.072-1.048-.091-1.361-.01-.174-.018-.307-.021-.402-.003-.073-.003-.073-.003-.148 0-.043 0-.043.006-.123.006-.058.006-.058.037-.191.011-.26.011-.26 1.01-.76h28.035c4.446 0 8.052-3.602 8.052-8.043V9.093c0-4.44-3.605-8.043-8.05-8.043H9.1c-4.447 0-8.05 3.6-8.05 8.043v26.614c0 4.44 3.605 8.043 8.05 8.043h22.95c.354 0 12.162 6.773 11.433 6.36zm11.426-5.265v-.001.001zm-23.262.927a4.612 4.612 0 00.006.004zm.267.123c.007-.015.015-.045.136-.045h-.146z"/></g></svg>