<svg width="256" height="153" viewBox="0 0 256 153" fill="none" xmlns="http://www.w3.org/2000/svg">
<path fill-rule="evenodd" clip-rule="evenodd" d="M232.138 0H23.7592C10.5722 0 -0.102758 10.78 0.00124179 23.862V103.404C0.00124179 116.591 10.6772 127.267 23.8642 127.267H122.558L167.668 152.385L157.41 127.267H232.138C245.325 127.267 256 116.591 256 103.404V23.862C256 10.675 245.325 0 232.138 0ZM19.3642 18.42C16.4342 18.63 14.2362 19.676 12.7702 21.665C11.3052 23.548 10.7822 25.955 11.0962 28.677C17.2712 67.925 23.0272 94.403 28.3652 108.114C30.4582 113.137 32.8652 115.545 35.6912 115.336C40.0872 115.021 45.3202 108.951 51.4952 97.125C54.7392 90.426 59.7632 80.379 66.5652 66.982C72.2172 86.763 79.9622 101.625 89.6952 111.568C92.4172 114.393 95.2432 115.649 97.9632 115.44C100.371 115.23 102.255 113.975 103.511 111.672C104.557 109.684 104.976 107.381 104.767 104.765C104.139 95.241 105.081 81.949 107.697 64.889C110.418 47.306 113.767 34.642 117.849 27.107C118.686 25.537 119 23.967 118.896 22.083C118.686 19.676 117.64 17.688 115.651 16.118C113.663 14.548 111.465 13.815 109.058 14.024C106.023 14.234 103.72 15.699 102.15 18.629C95.6612 30.456 91.0562 49.609 88.3352 76.192C84.3582 66.145 81.0102 54.32 78.3922 40.4C77.2422 34.225 74.4152 31.294 69.8102 31.608C66.6702 31.818 64.0542 33.911 61.9602 37.888L39.0402 81.53C35.2722 66.354 31.7142 47.83 28.4702 25.956C27.7372 20.513 24.7022 18.001 19.3642 18.42ZM221.044 25.956C228.475 27.526 234.022 31.503 237.79 38.096C241.139 43.748 242.813 50.551 242.813 58.715C242.813 69.495 240.093 79.333 234.65 88.333C228.37 98.8 220.207 104.033 210.055 104.033C208.275 104.033 206.392 103.823 204.403 103.404C196.973 101.834 191.425 97.858 187.657 91.264C184.308 85.508 182.634 78.6 182.634 70.541C182.634 59.761 185.355 49.923 190.797 41.027C197.182 30.561 205.345 25.328 215.393 25.328C217.172 25.328 219.056 25.538 221.044 25.956ZM172.168 38.096C168.4 31.503 162.748 27.526 155.422 25.956C153.433 25.537 151.55 25.328 149.77 25.328C139.723 25.328 131.56 30.561 125.175 41.028C119.732 49.923 117.012 59.761 117.012 70.541C117.012 78.601 118.686 85.508 122.035 91.264C125.803 97.858 131.35 101.834 138.781 103.404C140.769 103.823 142.653 104.032 144.433 104.032C154.585 104.032 162.748 98.8 169.028 88.333C174.47 79.333 177.191 69.494 177.191 58.715C177.191 50.551 175.516 43.747 172.168 38.096Z" fill="black"/>
</svg>
