<svg width="32" height="32" viewBox="0 0 58 65" fill="none" xmlns="http://www.w3.org/2000/svg">
<path d="M57.3748 32.7865C57.3748 28.5995 55.8689 25.7012 54.5802 23.4448L54.1852 22.8029C52.62 20.2848 51.2523 18.0728 51.2523 15.4954C51.2523 12.3848 53.6124 9.48154 56.9403 9.48154C57.0391 9.48154 57.1329 9.49142 57.2267 9.49636L57.3797 9.51117C51.1396 3.77942 42.9724 0.603496 34.4994 0.613794C28.8838 0.61091 23.3557 2.00529 18.4133 4.67128C13.471 7.33728 9.26956 11.1911 6.18775 15.8855C6.97775 15.9102 7.73318 15.9299 8.37012 15.9299C11.9103 15.9299 17.3959 15.5004 17.3959 15.5004C19.2227 15.3917 19.44 18.0728 17.6131 18.29C17.6131 18.29 15.7813 18.5073 13.7372 18.611L26.0809 55.3164L33.4872 33.068L28.2041 18.606C26.3821 18.4974 24.654 18.2851 24.654 18.2851C22.8271 18.1765 23.0444 15.3819 24.8663 15.4905C24.8663 15.4905 30.4654 15.92 33.7933 15.92C37.3384 15.92 42.8289 15.4905 42.8289 15.4905C44.6558 15.3819 44.8681 18.0679 43.0412 18.2851C43.0412 18.2851 41.2045 18.4974 39.1653 18.606L51.4103 55.03L54.7876 43.7379L55.0542 42.8837C56.3873 38.6375 57.3699 35.5022 57.3699 32.7816L57.3748 32.7865ZM0.613309 34.4999C0.612972 40.863 2.40403 47.0978 5.78153 52.4906C9.15903 57.8834 13.9865 62.2165 19.7116 64.9939L3.54125 20.7045C1.60491 25.0455 0.607162 29.7465 0.613309 34.4999Z" fill="#21759b"/>
</svg>
