<svg width="88" height="88" viewBox="0 0 88 88" fill="none" xmlns="http://www.w3.org/2000/svg">
<path d="M37.8125 69.3521C37.4478 69.3521 37.098 69.497 36.8402 69.7549C36.5823 70.0127 36.4375 70.3624 36.4375 70.7271V74.8521V78.9771C36.4375 79.3417 36.5823 79.6914 36.8402 79.9493C37.098 80.2072 37.4478 80.352 37.8125 80.3521H46.0625C46.4272 80.352 46.7768 80.2072 47.0347 79.9493C47.2925 79.6914 47.4375 79.3417 47.4375 78.9771V74.8521V70.7271C47.4375 70.3624 47.2925 70.0127 47.0347 69.7549C46.7768 69.497 46.4272 69.3521 46.0625 69.3521H37.8125ZM39.1875 72.1021H44.6875V74.8521V77.6021H39.1875V74.8521V72.1021Z" fill="#2B4255"/>
<path d="M57.7881 10.329C57.4781 10.3152 57.1725 10.4066 56.921 10.5884C56.6695 10.7702 56.4869 11.0317 56.4029 11.3305C56.3189 11.6292 56.3384 11.9476 56.4583 12.2338C56.5781 12.5201 56.7912 12.7574 57.063 12.9071C71.5455 21.2686 76.4997 39.7445 68.1382 54.227C59.7768 68.7094 41.2955 73.6636 26.813 65.3021C26.6565 65.2032 26.4815 65.1369 26.2987 65.1072C26.116 65.0775 25.929 65.0851 25.7492 65.1293C25.5694 65.1736 25.4005 65.2538 25.2524 65.365C25.1043 65.4762 24.9803 65.6161 24.8877 65.7765C24.795 65.9368 24.7357 66.1142 24.7133 66.2981C24.6908 66.4819 24.7057 66.6683 24.7571 66.8463C24.8085 67.0242 24.8954 67.1899 25.0124 67.3334C25.1294 67.477 25.2741 67.5953 25.438 67.6815C41.2076 76.7861 61.4131 71.3715 70.5176 55.602C79.6222 39.8324 74.2076 19.627 58.438 10.5225C58.2409 10.4048 58.0175 10.3383 57.7881 10.3291V10.329Z" fill="#2B4255"/>
<path fill-rule="evenodd" clip-rule="evenodd" d="M28.8271 60.4845C28.5811 60.483 28.3392 60.5475 28.1267 60.6713C27.9141 60.795 27.7387 60.9735 27.6186 61.1881L22.5536 69.9591C22.4547 70.1157 22.3883 70.2906 22.3586 70.4733C22.3289 70.6561 22.3365 70.843 22.3808 71.0228C22.4251 71.2026 22.5052 71.3716 22.6164 71.5197C22.7276 71.6678 22.8676 71.7918 23.028 71.8845C23.1883 71.9772 23.3657 72.0365 23.5495 72.0589C23.7333 72.0813 23.9198 72.0664 24.0977 72.015C24.2756 71.9636 24.4412 71.8768 24.5848 71.7598C24.7283 71.6428 24.8468 71.498 24.933 71.3341L29.998 62.5631C30.1218 62.3552 30.1886 62.1182 30.1915 61.8761C30.1944 61.6341 30.1332 61.3956 30.0144 61.1847C29.8956 60.9738 29.7234 60.798 29.5149 60.675C29.3064 60.5521 29.0691 60.4864 28.8271 60.4845ZM60.2158 6.02692C59.9689 6.02445 59.7259 6.08851 59.5123 6.21231C59.2987 6.33612 59.1224 6.5151 59.0019 6.73054L53.9155 15.5392C53.7332 15.8554 53.684 16.2311 53.7787 16.5836C53.8734 16.9362 54.1041 17.2366 54.4203 17.4189C54.7366 17.6013 55.1123 17.6506 55.4649 17.5559C55.8174 17.4612 56.1179 17.2304 56.3002 16.9142L61.3867 8.10554C61.5105 7.89756 61.5771 7.66066 61.58 7.41863C61.5829 7.17659 61.5219 6.93807 61.4031 6.72718C61.2843 6.51629 61.1121 6.34046 60.9036 6.21751C60.6951 6.09457 60.4578 6.0288 60.2158 6.02692Z" fill="#2B4255"/>
<path d="M41.9375 11.5322C39.9492 11.5322 38.0077 11.7426 36.1367 12.1445C35.9535 12.1755 35.7784 12.2433 35.6221 12.3438C35.4658 12.4444 35.3317 12.5755 35.2275 12.7294C35.1233 12.8832 35.0513 13.0566 35.016 13.2391C34.9807 13.4215 34.9827 13.6092 35.0219 13.7908C35.0611 13.9724 35.1368 14.1442 35.2443 14.2957C35.3517 14.4473 35.4889 14.5756 35.6473 14.6727C35.8057 14.7699 35.9821 14.8338 36.1659 14.8609C36.3498 14.8879 36.5371 14.8775 36.7168 14.8301C38.3996 14.4687 40.144 14.2822 41.9375 14.2822C55.6228 14.2822 66.6875 25.3469 66.6875 39.0322C66.6875 52.7176 55.6228 63.7822 41.9375 63.7822C28.2522 63.7822 17.1875 52.7176 17.1875 39.0322C17.1875 34.6521 18.3219 30.5454 20.3135 26.9795C20.4915 26.6611 20.5357 26.2851 20.4365 25.9341C20.3373 25.583 20.1028 25.2857 19.7844 25.1077C19.466 24.9296 19.0899 24.8853 18.7389 24.9846C18.3879 25.0838 18.0907 25.3183 17.9126 25.6367C15.6993 29.5995 14.4375 34.1765 14.4375 39.0322C14.4375 54.2038 26.7659 66.5322 41.9375 66.5322C57.1091 66.5322 69.4375 54.2038 69.4375 39.0322C69.4375 23.8607 57.1091 11.5322 41.9375 11.5322Z" fill="#2B4255"/>
<path d="M25.4375 8.85205C22.4162 8.85205 19.9375 11.3308 19.9375 14.3521C19.9375 17.3734 22.4162 19.8521 25.4375 19.8521C28.4588 19.8521 30.9375 17.3733 30.9375 14.3521C30.9375 11.3308 28.4588 8.85208 25.4375 8.85205ZM25.4375 11.6021C26.9726 11.6021 28.1875 12.817 28.1875 14.3521C28.1875 15.8871 26.9726 17.1021 25.4375 17.1021C23.9024 17.1021 22.6875 15.8872 22.6875 14.3521C22.6875 12.817 23.9024 11.6021 25.4375 11.6021Z" fill="#F05542" fill-opacity="0.913"/>
<path d="M25.4375 1.97705C18.6192 1.97705 13.0625 7.53392 13.0625 14.3521C13.0625 16.6024 14.0931 19.2362 15.4473 22.108C16.8014 24.9798 18.5315 28.0112 20.104 30.5997C22.3639 34.3198 24.3096 37.1362 24.3096 37.1362C24.4361 37.319 24.605 37.4685 24.8019 37.5716C24.9988 37.6748 25.2179 37.7286 25.4402 37.7286C25.6625 37.7286 25.8814 37.6748 26.0783 37.5716C26.2753 37.4685 26.4443 37.319 26.5708 37.1362C26.5708 37.1362 29.3479 33.118 32.1299 28.3223C33.5209 25.9244 34.9168 23.3271 35.981 20.9049C37.0452 18.4826 37.8125 16.2858 37.8125 14.3521C37.8125 7.53392 32.2557 1.97705 25.4375 1.97705ZM25.4375 4.72705C30.7695 4.72705 35.0625 9.02016 35.0625 14.3521C35.0625 15.4559 34.4602 17.5261 33.4619 19.7983C32.4636 22.0706 31.1095 24.5991 29.7505 26.9419C27.5918 30.6632 26.2254 32.6138 25.4268 33.7955C24.7524 32.7947 24.0519 31.806 22.4512 29.171C20.9091 26.6326 19.2208 23.6657 17.9341 20.9371C16.6474 18.2085 15.8125 15.6366 15.8125 14.3521C15.8125 9.02016 20.1055 4.72705 25.4375 4.72705Z" fill="#F05542" fill-opacity="0.913"/>
<path d="M40.5412 23.9451C40.459 23.9368 40.371 23.9698 40.2836 24.0578C40.1551 24.1865 40.1854 24.516 40.3534 24.7883C40.6001 25.1873 40.6932 25.1916 40.826 24.7938C40.9677 24.3685 40.7875 23.9689 40.5414 23.9452L40.5412 23.9451ZM52.7336 24.7775C52.4619 24.7154 52.2446 24.837 52.0622 25.1321C51.9294 25.3471 51.5596 25.5241 51.2404 25.5241C50.9215 25.5241 50.2855 25.8713 49.8278 26.2976C49.2333 26.8515 48.8534 26.9561 48.5065 26.6681C47.9627 26.2169 47.3533 26.8268 47.7331 27.4416C47.8535 27.6368 47.6019 27.7048 47.1745 27.592C46.7471 27.4765 46.0879 27.5208 45.7082 27.6886C45.3285 27.8536 44.8875 27.9633 44.7253 27.9303C44.5647 27.8962 44.4299 28.0433 44.4299 28.258C44.4299 28.473 44.0814 28.2962 43.6511 27.8659C42.5807 26.7956 41.9591 26.8829 40.5519 28.2901C39.2449 29.5972 39.0291 30.3986 39.902 30.7341C40.2656 30.8735 40.5963 30.5503 40.8581 29.7994C41.3172 28.4824 42.1263 28.2172 41.7927 29.4932C41.6345 30.0966 41.7057 30.2502 42.0503 30.0357C42.404 29.8168 42.3964 29.9566 42.0181 30.5622C41.7353 31.0151 41.3276 31.3886 41.1104 31.4161C39.3825 31.547 38.1724 32.2788 38.1724 33.194C38.1724 33.4907 37.9843 33.7364 37.7534 33.7364C37.5238 33.7364 37.3861 34.1526 37.4527 34.6602C37.5192 35.1687 37.3481 35.8574 37.0713 36.191C36.3177 37.0985 36.0294 39.4971 36.5933 40.1763C36.8578 40.4951 37.6593 40.8662 38.3711 40.9982C39.7313 41.2537 40.1028 41.9172 40.1221 44.0435C40.1248 44.6565 40.4108 45.7544 40.7559 46.482V46.4876C41.2949 47.6239 41.4913 47.7515 42.147 47.4006C42.5672 47.1757 43.0024 46.694 43.1138 46.3318C43.2249 45.9691 43.4781 45.3676 43.6778 44.9944C43.8782 44.6207 44.043 43.8848 44.043 43.3562C44.043 42.8277 44.427 41.7337 44.9024 40.9285C45.727 39.5298 45.7359 39.4776 45.0044 39.7361C44.4926 39.9165 44.5921 39.7335 45.3106 39.1882C46.3753 38.3811 46.7993 37.1696 45.9497 37.3621C45.7077 37.4157 45.4262 37.2369 45.3267 36.9646C45.1812 36.5609 45.3666 36.5571 46.2559 36.9371C47.9364 37.6559 48.2706 37.9915 48.544 39.2359C48.7868 40.3557 49.6749 41.3905 49.4678 40.3262C49.3124 39.5282 49.9071 38.0382 50.3809 38.0382C50.6108 38.0382 51.214 38.4872 51.7236 39.0372C52.7223 40.1141 53.6039 39.986 53.2329 38.817C53.0754 38.3206 53.2494 38.026 53.7861 37.8555C54.6817 37.5715 55.0616 36.6633 54.8174 35.3956C54.6667 34.6135 54.7388 34.5602 55.4566 34.9444C55.9776 35.2249 56.172 35.2324 56.0098 34.9718C55.8715 34.7485 56.139 34.2155 56.6006 33.7848C57.2 33.2238 57.3689 32.7321 57.1968 32.0446C56.8833 30.7961 57.5485 30.2714 59.7158 30.0734C62.1285 29.8493 62.8203 29.4921 62.8203 28.4567C62.8203 27.7175 62.5646 27.526 61.354 27.3665C56.2739 26.6883 54.3964 26.2319 53.7271 25.5133C53.3281 25.0852 53.005 24.8397 52.7334 24.7775H52.7336ZM47.008 25.1266C46.6801 25.1266 46.2211 25.4962 45.9821 25.943C45.5869 26.6811 45.6182 26.7145 46.3366 26.3298C47.3927 25.7646 47.7463 25.1266 47.008 25.1266ZM60.006 30.6911C59.7503 30.7761 59.4744 31.053 59.3884 31.3088C59.1535 32.0136 59.9588 31.8693 60.2316 31.1584C60.3777 30.7761 60.2918 30.5976 60.006 30.6911ZM38.0436 30.836C37.9301 30.8223 37.7848 30.9334 37.5495 31.169C36.9164 31.8015 36.8101 32.3265 37.3884 31.9693C37.6037 31.8359 37.7805 31.9528 37.7805 32.2218C37.7805 32.56 37.905 32.5911 38.1833 32.3131C38.406 32.0909 38.4792 31.6194 38.3444 31.2657C38.2388 30.99 38.1572 30.8494 38.0436 30.836ZM45.2194 33.1456C45.4774 32.9858 45.9736 34.1834 45.9929 35.004C45.9956 35.1654 45.8386 35.2994 45.6491 35.2994C45.2011 35.2994 44.827 33.3876 45.2194 33.1456ZM43.1784 33.2531C43.6582 33.1274 43.8986 33.2955 43.9357 33.7902V33.7957C43.9654 34.1945 43.955 34.5 43.9137 34.4725C43.8733 34.445 43.5328 34.3432 43.1564 34.247C42.2692 34.0154 42.2814 33.4843 43.1784 33.2533V33.2531ZM40.3801 33.6077C40.5638 33.6599 40.7066 33.7773 40.7775 33.9621C40.895 34.2684 41.3263 34.5154 41.7336 34.5154C42.1409 34.5154 42.4748 34.6902 42.4748 34.9074C42.4748 35.1227 42.7517 35.2995 43.0871 35.2995C43.422 35.2995 43.5852 35.4771 43.4523 35.6916C43.3195 35.9072 42.5171 36.0837 41.6691 36.0837C40.8211 36.0837 40.1276 35.906 40.1276 35.6916C40.1276 35.4765 39.6794 35.2995 39.134 35.2995C38.2854 35.2995 38.2018 35.1914 38.5378 34.5636C38.9203 33.8488 39.8287 33.4506 40.3801 33.6077ZM57.82 33.7366C57.6633 33.7382 57.3328 34.1781 57.0842 34.7141C56.8358 35.2504 56.7627 35.6864 56.923 35.6864C57.0834 35.6864 57.4138 35.2466 57.6589 34.7087C57.9033 34.1708 57.9762 33.7349 57.82 33.7366ZM43.2751 36.9431C43.2833 36.7919 43.5617 37.1701 43.8928 37.7811C44.2242 38.3919 44.4177 38.966 44.3278 39.054C44.1551 39.2267 43.2476 37.4081 43.2751 36.9431ZM51.9763 40.5311C51.9053 40.5627 51.8635 40.6386 51.8635 40.7513C51.8635 40.9809 52.0406 41.1649 52.2556 41.1649C52.4709 41.1649 52.6476 41.0865 52.6476 40.993C52.6476 40.8984 52.4706 40.7114 52.2556 40.5794C52.148 40.5134 52.0471 40.4995 51.9763 40.5311ZM54.2053 40.5847C53.9924 40.7162 53.8185 40.9881 53.8185 41.1916C53.8185 41.7542 54.1009 41.6278 54.361 40.9499C54.4941 40.6094 54.4272 40.4471 54.2053 40.5846V40.5847ZM29.2136 41.4709C28.9262 41.4736 28.7188 41.7765 28.4562 42.5021C27.8125 44.2825 27.886 45.1025 28.7731 46.0471C29.4773 46.7965 29.5156 47.147 29.1975 49.9841C28.9629 52.0678 28.9787 53.2597 29.251 53.5881H29.2565C29.7853 54.2239 29.7478 54.2683 29.8474 52.804C29.8949 52.1052 30.2539 51.2734 30.6423 50.9508C31.7594 50.0227 33.7636 46.8344 34.0475 45.5422C34.2612 44.5689 34.1647 44.3199 33.4997 44.1082C33.0565 43.9676 32.694 43.6222 32.694 43.34C32.694 43.0576 32.1204 42.6156 31.4211 42.3571C30.7218 42.0983 29.8713 41.7383 29.5305 41.5623C29.4117 41.5007 29.3094 41.4699 29.2136 41.471V41.4709ZM55.5803 42.1208C55.5134 42.0718 55.5062 42.1098 55.5747 42.2443C55.7114 42.5133 55.6364 42.7331 55.4084 42.7331C55.1796 42.7331 54.9948 42.9289 54.9948 43.1681C54.9948 43.4046 55.2574 43.4932 55.5803 43.3722C55.903 43.2484 56.1657 43.3216 56.1657 43.5278C56.1657 43.7363 56.2569 43.9092 56.3644 43.9092C56.7459 43.9092 56.5477 43.2618 55.9403 42.5127C55.7709 42.3037 55.6471 42.1694 55.5803 42.1206V42.1208ZM53.4963 42.4323C53.4501 42.5401 53.7132 43.0253 54.3181 43.8073C54.526 44.0765 54.8502 44.2961 55.0378 44.2961C55.2253 44.2961 54.9952 43.8568 54.5275 43.3186C53.898 42.5947 53.5424 42.3246 53.4963 42.4323ZM58.6848 43.2917C58.5797 43.3082 58.5129 43.374 58.5129 43.5065C58.5129 43.704 58.8238 44.0491 59.2004 44.2691V44.2637C60.0901 44.784 60.0895 44.7868 59.8395 44.1347C59.6531 43.6459 58.9997 43.2396 58.6848 43.2914V43.2917ZM45.1872 44.1404C45.127 44.1294 45.0506 44.1415 44.9562 44.178C44.667 44.2888 44.4299 44.716 44.4299 45.1233C44.4299 46.19 45.0869 46.0341 45.3 44.9193C45.3968 44.4133 45.3676 44.1701 45.1872 44.1405V44.1404ZM58.3356 44.7258C57.994 44.5655 57.2092 44.984 56.3967 45.8322C55.5006 46.7664 55.3523 47.1854 55.5695 48.174C55.8272 49.3469 55.865 49.3604 56.9123 48.8186C57.8891 48.3104 58.0387 48.3298 58.5344 49.0174V49.0229C59.2672 50.0387 60.0054 49.9775 60.5163 48.8562C61.014 47.7639 60.0519 45.4724 59.093 45.4724C58.7758 45.4724 58.5129 45.3003 58.5129 45.0858C58.5129 44.8985 58.4496 44.7794 58.3358 44.7259L58.3356 44.7258ZM63.2341 50.5588C63.0053 50.5588 62.8205 50.7364 62.8205 50.9508C62.8205 51.1662 62.8986 51.3376 62.9924 51.3376C63.0872 51.3376 63.2731 51.1654 63.4059 50.9508C63.5396 50.7358 63.462 50.5588 63.2341 50.5588Z" fill="#F05542" fill-opacity="0.913"/>
<path d="M30.0244 77.6021C26.021 77.6021 22.6875 80.7315 22.6875 84.6489C22.6875 85.0136 22.8323 85.3633 23.0902 85.6212C23.348 85.879 23.6978 86.0239 24.0625 86.0239H41.9375H59.8125C60.1772 86.0239 60.5268 85.879 60.7847 85.6212C61.0425 85.3633 61.1875 85.0136 61.1875 84.6489C61.1875 80.7315 57.8594 77.6021 53.856 77.6021H30.0244ZM30.0244 80.3521H53.856C55.8657 80.3521 57.2001 81.6556 57.8413 83.2739H41.9375H26.0337C26.6746 81.6552 28.0142 80.3521 30.0244 80.3521Z" fill="#2B4255"/>
</svg>
